<?xml version="1.0" encoding="UTF-8" standalone="no"?>
<!DOCTYPE svg PUBLIC "-//W3C//DTD SVG 1.1//EN" "http://www.w3.org/Graphics/SVG/1.1/DTD/svg11.dtd">
<svg t="1605487267438" class="icon" viewBox="0 0 1024 1024" version="1.1" xmlns="http://www.w3.org/2000/svg" p-id="2864" xmlns:xlink="http://www.w3.org/1999/xlink" width="48" height="48"><defs><style type="text/css"/></defs><path d="M738.816 636.928s-16.384 44.032-46.08 83.968c0 0 53.248 17.92 48.64 65.024 0 0 1.536 52.224-113.664 48.64 0 0-80.896-6.144-105.472-40.448h-21.504c-24.576 34.304-105.472 40.448-105.472 40.448-115.2 3.584-113.664-48.64-113.664-48.64-4.608-47.104 48.64-65.024 48.64-65.024-29.696-39.936-46.08-83.968-46.08-83.968-72.192 116.224-65.024-16.384-65.024-16.384 13.312-78.336 70.144-130.048 70.144-130.048-8.192-71.168 21.504-83.968 21.504-83.968 6.144-220.672 195.584-216.576 199.68-216.576 4.096 0 193.536-4.096 199.68 216.576 0 0 29.696 12.8 21.504 83.968 0 0 56.832 51.2 70.144 130.048v9.216c2.048 28.16-3.072 104.448-62.976 7.168M512 0C229.376 0 0 229.376 0 512s229.376 512 512 512 512-229.376 512-512S794.624 0 512 0" fill="#12B7F5" p-id="2865"/><path d="M803.84 629.76c0 28.16-5.12 103.936-65.024 7.168 0 0-16.384 44.032-46.08 83.968 0 0 53.248 17.92 48.64 65.024 0 0 1.536 52.224-113.664 48.64 0 0-80.896-6.144-105.472-40.448h-21.504c-24.576 34.304-105.472 40.448-105.472 40.448-115.2 3.584-113.664-48.64-113.664-48.64-4.608-47.104 48.64-65.024 48.64-65.024-29.696-39.936-46.08-83.968-46.08-83.968-72.192 116.224-65.024-16.384-65.024-16.384 13.312-78.336 70.144-130.048 70.144-130.048-8.192-71.168 21.504-83.968 21.504-83.968 6.144-220.672 195.584-216.576 199.68-216.576 4.096 0 193.536-4.096 199.68 216.576 0 0 29.696 12.8 21.504 83.968 0 0 56.832 51.2 70.144 130.048 2.048 0 2.048 4.096 2.048 9.216" fill="#FFFFFF" p-id="2866"/></svg>