<?xml version="1.0" encoding="UTF-8" standalone="no"?>
<!DOCTYPE svg PUBLIC "-//W3C//DTD SVG 1.1//EN" "http://www.w3.org/Graphics/SVG/1.1/DTD/svg11.dtd">
<svg t="1605364088269" class="icon" viewBox="0 0 1024 1024" version="1.1" xmlns="http://www.w3.org/2000/svg" p-id="4146" xmlns:xlink="http://www.w3.org/1999/xlink" width="48" height="48"><defs><style type="text/css"/></defs><path d="M579.560727 511.581091c-11.659636 0-23.342545 10.845091-23.342545 24.203636 0 10.821818 11.659636 21.666909 23.342545 21.666909 17.524364 0 30.021818-10.845091 30.021818-21.666909 0-13.358545-12.497455-24.203636-30.021818-24.203636z m-76.730182-112.616727c18.338909 0 30.021818-11.682909 30.021819-29.184 0-18.362182-11.682909-29.207273-30.021819-29.207273-17.524364 0-34.210909 10.845091-34.210909 29.207273 0 17.524364 16.686545 29.184 34.210909 29.184zM512 0C229.236364 0 0 229.236364 0 512s229.236364 512 512 512 512-229.236364 512-512S794.763636 0 512 0z m-96.768 641.722182c-30.859636 0-53.387636-5.003636-82.571636-13.358546l-84.247273 42.565819 24.180364-71.749819c-59.229091-41.704727-94.254545-94.254545-94.254546-158.487272 0-113.454545 106.775273-200.215273 236.916364-200.215273 115.106909 0 217.693091 68.421818 237.730909 165.166545a115.549091 115.549091 0 0 0-22.528-2.490181c-113.454545 0-201.029818 85.085091-201.029818 187.671272 0 17.524364 2.490182 33.373091 6.656 50.059637-6.656 0.837818-14.196364 0.837818-20.852364 0.837818z m347.857455 81.733818l16.686545 60.066909-63.394909-35.84c-24.203636 4.980364-47.546182 12.497455-71.749818 12.497455-111.778909 0-200.192-76.753455-200.192-171.845819s88.436364-171.845818 200.192-171.845818c105.937455 0 201.053091 76.753455 201.053091 171.845818 0 53.387636-35.863273 100.933818-82.594909 135.144728zM337.687273 340.573091c-17.524364 0-35.886545 10.845091-35.886546 29.207273 0 17.524364 18.362182 29.184 35.863273 29.184 16.709818 0 30.045091-11.659636 30.045091-29.184 0-18.362182-13.335273-29.207273-30.021818-29.207273z m372.875636 171.008c-12.520727 0-23.365818 10.845091-23.365818 24.203636 0 10.821818 10.845091 21.666909 23.365818 21.666909 16.686545 0 29.207273-10.845091 29.207273-21.666909 0-13.358545-12.520727-24.203636-29.207273-24.203636z" fill="#2BC102" p-id="4147"/></svg>