<svg width="1800" height="770" viewBox="0 0 1800 770" fill="none" xmlns="http://www.w3.org/2000/svg">
<rect x="-0.146484" y="16" width="1800" height="754" fill="#2969E6"/>
<mask id="mask0_67_366" style="mask-type:alpha" maskUnits="userSpaceOnUse" x="-1" y="0" width="1801" height="770">
<rect x="-0.146484" width="1800" height="770" fill="#F6FAFF"/>
</mask>
<g mask="url(#mask0_67_366)">
<path d="M138.854 -299V948" stroke="white" stroke-opacity="0.05"/>
<path d="M278.854 -299V948" stroke="white" stroke-opacity="0.05"/>
<path d="M416.854 -299V948" stroke="white" stroke-opacity="0.05"/>
<path d="M556.854 -299V948" stroke="white" stroke-opacity="0.05"/>
<path d="M697.854 -299V948" stroke="white" stroke-opacity="0.05"/>
<path d="M837.854 -299V948" stroke="white" stroke-opacity="0.05"/>
<path d="M975.854 -299V948" stroke="white" stroke-opacity="0.05"/>
<path d="M1115.85 -299V948" stroke="white" stroke-opacity="0.05"/>
<path d="M1255.85 -299V948" stroke="white" stroke-opacity="0.05"/>
<path d="M1395.85 -299V948" stroke="white" stroke-opacity="0.05"/>
<path d="M1533.85 -299V948" stroke="white" stroke-opacity="0.05"/>
<path d="M1673.85 -299V948" stroke="white" stroke-opacity="0.05"/>
<path d="M1797.85 118H-0.146484" stroke="white" stroke-opacity="0.05"/>
<path d="M1797.85 258H-0.146484" stroke="white" stroke-opacity="0.05"/>
<path d="M1797.85 398H-0.146484" stroke="white" stroke-opacity="0.05"/>
<path d="M1797.85 538H-0.146484" stroke="white" stroke-opacity="0.05"/>
<path d="M1797.85 678H-0.146484" stroke="white" stroke-opacity="0.05"/>
<circle cx="696.854" cy="118" r="3" fill="#D1DFF4" fill-opacity="0.1"/>
<circle cx="696.854" cy="258" r="3" fill="#D1DFF4" fill-opacity="0.1"/>
<circle cx="696.854" cy="398" r="3" fill="#D1DFF4" fill-opacity="0.1"/>
<circle cx="837.854" cy="398" r="3" fill="#D1DFF4" fill-opacity="0.1"/>
<circle cx="837.854" cy="258" r="3" fill="#D1DFF4" fill-opacity="0.1"/>
<circle cx="837.854" cy="118" r="3" fill="#D1DFF4" fill-opacity="0.1"/>
<circle cx="974.854" cy="118" r="3" fill="#D1DFF4" fill-opacity="0.1"/>
<circle cx="971.854" cy="258" r="3" fill="#D1DFF4" fill-opacity="0.1"/>
<circle cx="975.854" cy="398" r="3" fill="#D1DFF4" fill-opacity="0.1"/>
<circle cx="1114.85" cy="398" r="3" fill="#D1DFF4" fill-opacity="0.1"/>
<circle cx="1112.85" cy="258" r="3" fill="#D1DFF4" fill-opacity="0.1"/>
<circle cx="1113.85" cy="118" r="3" fill="#D1DFF4" fill-opacity="0.1"/>
<circle cx="415.854" cy="118" r="3" fill="#D1DFF4" fill-opacity="0.1"/>
<circle cx="415.854" cy="258" r="3" fill="#D1DFF4" fill-opacity="0.1"/>
<circle cx="415.854" cy="398" r="3" fill="#D1DFF4" fill-opacity="0.1"/>
<circle cx="556.854" cy="398" r="3" fill="#D1DFF4" fill-opacity="0.1"/>
<circle cx="556.854" cy="258" r="3" fill="#D1DFF4" fill-opacity="0.1"/>
<circle cx="556.854" cy="118" r="3" fill="#D1DFF4" fill-opacity="0.1"/>
<circle cx="137.854" cy="118" r="3" fill="#D1DFF4" fill-opacity="0.1"/>
<circle cx="137.854" cy="258" r="3" fill="#D1DFF4" fill-opacity="0.1"/>
<circle cx="137.854" cy="398" r="3" fill="#D1DFF4" fill-opacity="0.1"/>
<circle cx="278.854" cy="398" r="3" fill="#D1DFF4" fill-opacity="0.1"/>
<circle cx="278.854" cy="258" r="3" fill="#D1DFF4" fill-opacity="0.1"/>
<circle cx="278.854" cy="118" r="3" fill="#D1DFF4" fill-opacity="0.1"/>
<circle cx="1255.85" cy="118" r="3" fill="#D1DFF4" fill-opacity="0.1"/>
<circle cx="1253.85" cy="258" r="3" fill="#D1DFF4" fill-opacity="0.1"/>
<circle cx="1255.85" cy="398" r="3" fill="#D1DFF4" fill-opacity="0.1"/>
<circle cx="1396.85" cy="398" r="3" fill="#D1DFF4" fill-opacity="0.1"/>
<circle cx="1394.85" cy="258" r="3" fill="#D1DFF4" fill-opacity="0.1"/>
<circle cx="1395.85" cy="118" r="3" fill="#D1DFF4" fill-opacity="0.1"/>
<circle cx="1533.85" cy="118" r="3" fill="#D1DFF4" fill-opacity="0.1"/>
<circle cx="1532.85" cy="258" r="3" fill="#D1DFF4" fill-opacity="0.1"/>
<circle cx="1533.85" cy="398" r="3" fill="#D1DFF4" fill-opacity="0.1"/>
<circle cx="698.854" cy="538" r="3" fill="#D1DFF4" fill-opacity="0.1"/>
<circle cx="836.854" cy="538" r="3" fill="#D1DFF4" fill-opacity="0.1"/>
<circle cx="975.854" cy="538" r="3" fill="#D1DFF4" fill-opacity="0.1"/>
<circle cx="1115.85" cy="538" r="3" fill="#D1DFF4" fill-opacity="0.1"/>
<circle cx="415.854" cy="538" r="3" fill="#D1DFF4" fill-opacity="0.1"/>
<circle cx="556.854" cy="538" r="3" fill="#D1DFF4" fill-opacity="0.1"/>
<circle cx="138.854" cy="538" r="3" fill="#D1DFF4" fill-opacity="0.1"/>
<circle cx="278.854" cy="538" r="3" fill="#D1DFF4" fill-opacity="0.1"/>
<circle cx="1255.85" cy="539" r="3" fill="#D1DFF4" fill-opacity="0.1"/>
<circle cx="1395.85" cy="538" r="3" fill="#D1DFF4" fill-opacity="0.1"/>
<circle cx="1532.85" cy="538" r="3" fill="#D1DFF4" fill-opacity="0.1"/>
<circle cx="1673.85" cy="538" r="3" fill="#D1DFF4" fill-opacity="0.1"/>
<circle cx="698.854" cy="678" r="3" fill="#D1DFF4" fill-opacity="0.1"/>
<circle cx="836.854" cy="678" r="3" fill="#D1DFF4" fill-opacity="0.1"/>
<circle cx="975.854" cy="678" r="3" fill="#D1DFF4" fill-opacity="0.1"/>
<circle cx="1115.85" cy="678" r="3" fill="#D1DFF4" fill-opacity="0.1"/>
<circle cx="415.854" cy="678" r="3" fill="#D1DFF4" fill-opacity="0.1"/>
<circle cx="556.854" cy="678" r="3" fill="#D1DFF4" fill-opacity="0.1"/>
<circle cx="138.854" cy="678" r="3" fill="#D1DFF4" fill-opacity="0.1"/>
<circle cx="278.854" cy="678" r="3" fill="#D1DFF4" fill-opacity="0.1"/>
<circle cx="1255.85" cy="679" r="3" fill="#D1DFF4" fill-opacity="0.1"/>
<circle cx="1395.85" cy="678" r="3" fill="#D1DFF4" fill-opacity="0.1"/>
<circle cx="1532.85" cy="678" r="3" fill="#D1DFF4" fill-opacity="0.1"/>
<circle cx="1673.85" cy="678" r="3" fill="#D1DFF4" fill-opacity="0.1"/>
<circle cx="1673.85" cy="398" r="3" fill="#D1DFF4" fill-opacity="0.1"/>
<circle cx="1673.85" cy="258" r="3" fill="#D1DFF4" fill-opacity="0.1"/>
<circle cx="1673.85" cy="118" r="3" fill="#D1DFF4" fill-opacity="0.1"/>
</g>
</svg>
