<svg width="1800" height="954" viewBox="0 0 1800 954" fill="none" xmlns="http://www.w3.org/2000/svg">
<mask id="mask0_231_2073" style="mask-type:alpha" maskUnits="userSpaceOnUse" x="-5" y="0" width="1810" height="954">
<path d="M-1 81L1805 0L1800 877L-5 954L-1 81Z" fill="#F8FBFF"/>
</mask>
<g mask="url(#mask0_231_2073)">
<path d="M142 -27V1220" stroke="#1E78FF" stroke-opacity="0.04"/>
<path d="M282 -27V1220" stroke="#1E78FF" stroke-opacity="0.04"/>
<path d="M420 -27V1220" stroke="#1E78FF" stroke-opacity="0.04"/>
<path d="M560 -27V1220" stroke="#1E78FF" stroke-opacity="0.04"/>
<path d="M701 -27V1220" stroke="#1E78FF" stroke-opacity="0.04"/>
<path d="M841 -27V1220" stroke="#1E78FF" stroke-opacity="0.04"/>
<path d="M979 -27V1220" stroke="#1E78FF" stroke-opacity="0.04"/>
<path d="M1119 -27V1220" stroke="#1E78FF" stroke-opacity="0.04"/>
<path d="M1259 -27V1220" stroke="#1E78FF" stroke-opacity="0.04"/>
<path d="M1399 -27V1220" stroke="#1E78FF" stroke-opacity="0.04"/>
<path d="M1537 -27V1220" stroke="#1E78FF" stroke-opacity="0.04"/>
<path d="M1677 -27V1220" stroke="#1E78FF" stroke-opacity="0.04"/>
<path d="M1801 250H3" stroke="#1E78FF" stroke-opacity="0.04"/>
<path d="M1801 390H3" stroke="#1E78FF" stroke-opacity="0.04"/>
<path d="M1801 530H3" stroke="#1E78FF" stroke-opacity="0.04"/>
<path d="M1801 670H3" stroke="#1E78FF" stroke-opacity="0.04"/>
<path d="M1801 810H3" stroke="#1E78FF" stroke-opacity="0.04"/>
<path d="M1801 950H3" stroke="#1E78FF" stroke-opacity="0.04"/>
<circle cx="700" cy="250" r="3" fill="#D1DFF4" fill-opacity="0.39"/>
<circle cx="700" cy="390" r="3" fill="#D1DFF4" fill-opacity="0.39"/>
<circle cx="700" cy="530" r="3" fill="#D1DFF4" fill-opacity="0.39"/>
<circle cx="700" cy="670" r="3" fill="#D1DFF4" fill-opacity="0.39"/>
<circle cx="841" cy="670" r="3" fill="#D1DFF4" fill-opacity="0.39"/>
<circle cx="841" cy="530" r="3" fill="#D1DFF4" fill-opacity="0.39"/>
<circle cx="841" cy="390" r="3" fill="#D1DFF4" fill-opacity="0.39"/>
<circle cx="841" cy="250" r="3" fill="#D1DFF4" fill-opacity="0.39"/>
<circle cx="977" cy="250" r="3" fill="#D1DFF4" fill-opacity="0.39"/>
<circle cx="978" cy="390" r="3" fill="#D1DFF4" fill-opacity="0.39"/>
<circle cx="975" cy="530" r="3" fill="#D1DFF4" fill-opacity="0.39"/>
<circle cx="979" cy="670" r="3" fill="#D1DFF4" fill-opacity="0.39"/>
<circle cx="1118" cy="670" r="3" fill="#D1DFF4" fill-opacity="0.39"/>
<circle cx="1116" cy="530" r="3" fill="#D1DFF4" fill-opacity="0.39"/>
<circle cx="1117" cy="390" r="3" fill="#D1DFF4" fill-opacity="0.39"/>
<circle cx="1118" cy="250" r="3" fill="#D1DFF4" fill-opacity="0.39"/>
<circle cx="419" cy="250" r="3" fill="#D1DFF4" fill-opacity="0.39"/>
<circle cx="419" cy="390" r="3" fill="#D1DFF4" fill-opacity="0.39"/>
<circle cx="419" cy="530" r="3" fill="#D1DFF4" fill-opacity="0.39"/>
<circle cx="419" cy="670" r="3" fill="#D1DFF4" fill-opacity="0.39"/>
<circle cx="560" cy="670" r="3" fill="#D1DFF4" fill-opacity="0.39"/>
<circle cx="560" cy="530" r="3" fill="#D1DFF4" fill-opacity="0.39"/>
<circle cx="560" cy="390" r="3" fill="#D1DFF4" fill-opacity="0.39"/>
<circle cx="560" cy="250" r="3" fill="#D1DFF4" fill-opacity="0.39"/>
<circle cx="141" cy="250" r="3" fill="#D1DFF4" fill-opacity="0.39"/>
<circle cx="141" cy="390" r="3" fill="#D1DFF4" fill-opacity="0.39"/>
<circle cx="141" cy="530" r="3" fill="#D1DFF4" fill-opacity="0.39"/>
<circle cx="141" cy="670" r="3" fill="#D1DFF4" fill-opacity="0.39"/>
<circle cx="282" cy="670" r="3" fill="#D1DFF4" fill-opacity="0.39"/>
<circle cx="282" cy="530" r="3" fill="#D1DFF4" fill-opacity="0.39"/>
<circle cx="282" cy="390" r="3" fill="#D1DFF4" fill-opacity="0.39"/>
<circle cx="282" cy="250" r="3" fill="#D1DFF4" fill-opacity="0.39"/>
<circle cx="1258" cy="250" r="3" fill="#D1DFF4" fill-opacity="0.39"/>
<circle cx="1259" cy="390" r="3" fill="#D1DFF4" fill-opacity="0.39"/>
<circle cx="1257" cy="530" r="3" fill="#D1DFF4" fill-opacity="0.39"/>
<circle cx="1259" cy="670" r="3" fill="#D1DFF4" fill-opacity="0.39"/>
<circle cx="1400" cy="670" r="3" fill="#D1DFF4" fill-opacity="0.39"/>
<circle cx="1398" cy="530" r="3" fill="#D1DFF4" fill-opacity="0.39"/>
<circle cx="1399" cy="390" r="3" fill="#D1DFF4" fill-opacity="0.39"/>
<circle cx="1398" cy="250" r="3" fill="#D1DFF4" fill-opacity="0.39"/>
<circle cx="1536" cy="250" r="3" fill="#D1DFF4" fill-opacity="0.39"/>
<circle cx="1537" cy="390" r="3" fill="#D1DFF4" fill-opacity="0.39"/>
<circle cx="1536" cy="530" r="3" fill="#D1DFF4" fill-opacity="0.39"/>
<circle cx="1537" cy="670" r="3" fill="#D1DFF4" fill-opacity="0.39"/>
<circle cx="702" cy="810" r="3" fill="#D1DFF4" fill-opacity="0.39"/>
<circle cx="840" cy="810" r="3" fill="#D1DFF4" fill-opacity="0.39"/>
<circle cx="979" cy="810" r="3" fill="#D1DFF4" fill-opacity="0.39"/>
<circle cx="1119" cy="810" r="3" fill="#D1DFF4" fill-opacity="0.39"/>
<circle cx="419" cy="810" r="3" fill="#D1DFF4" fill-opacity="0.39"/>
<circle cx="560" cy="810" r="3" fill="#D1DFF4" fill-opacity="0.39"/>
<circle cx="142" cy="810" r="3" fill="#D1DFF4" fill-opacity="0.39"/>
<circle cx="282" cy="810" r="3" fill="#D1DFF4" fill-opacity="0.39"/>
<circle cx="1259" cy="811" r="3" fill="#D1DFF4" fill-opacity="0.39"/>
<circle cx="1399" cy="810" r="3" fill="#D1DFF4" fill-opacity="0.39"/>
<circle cx="1536" cy="810" r="3" fill="#D1DFF4" fill-opacity="0.39"/>
<circle cx="1677" cy="810" r="3" fill="#D1DFF4" fill-opacity="0.39"/>
<circle cx="702" cy="950" r="3" fill="#D1DFF4" fill-opacity="0.39"/>
<circle cx="840" cy="950" r="3" fill="#D1DFF4" fill-opacity="0.39"/>
<circle cx="979" cy="950" r="3" fill="#D1DFF4" fill-opacity="0.39"/>
<circle cx="1119" cy="950" r="3" fill="#D1DFF4" fill-opacity="0.39"/>
<circle cx="419" cy="950" r="3" fill="#D1DFF4" fill-opacity="0.39"/>
<circle cx="560" cy="950" r="3" fill="#D1DFF4" fill-opacity="0.39"/>
<circle cx="142" cy="950" r="3" fill="#D1DFF4" fill-opacity="0.39"/>
<circle cx="282" cy="950" r="3" fill="#D1DFF4" fill-opacity="0.39"/>
<circle cx="1259" cy="951" r="3" fill="#D1DFF4" fill-opacity="0.39"/>
<circle cx="1399" cy="950" r="3" fill="#D1DFF4" fill-opacity="0.39"/>
<circle cx="1536" cy="950" r="3" fill="#D1DFF4" fill-opacity="0.39"/>
<circle cx="1677" cy="950" r="3" fill="#D1DFF4" fill-opacity="0.39"/>
<circle cx="1677" cy="670" r="3" fill="#D1DFF4" fill-opacity="0.39"/>
<circle cx="1677" cy="530" r="3" fill="#D1DFF4" fill-opacity="0.39"/>
<circle cx="1677" cy="390" r="3" fill="#D1DFF4" fill-opacity="0.39"/>
<circle cx="1677" cy="250" r="3" fill="#D1DFF4" fill-opacity="0.39"/>
</g>
</svg>
