<svg width="1798" height="390" viewBox="0 0 1798 390" fill="none" xmlns="http://www.w3.org/2000/svg">
<path d="M138.854 -299V948" stroke="white" stroke-opacity="0.05"/>
<path d="M278.854 -299V948" stroke="white" stroke-opacity="0.05"/>
<path d="M416.854 -299V948" stroke="white" stroke-opacity="0.05"/>
<path d="M556.854 -299V948" stroke="white" stroke-opacity="0.05"/>
<path d="M697.854 -299V948" stroke="white" stroke-opacity="0.05"/>
<path d="M837.854 -299V948" stroke="white" stroke-opacity="0.05"/>
<path d="M975.854 -299V948" stroke="white" stroke-opacity="0.05"/>
<path d="M1115.85 -299V948" stroke="white" stroke-opacity="0.05"/>
<path d="M1255.85 -299V948" stroke="white" stroke-opacity="0.05"/>
<path d="M1395.85 -299V948" stroke="white" stroke-opacity="0.05"/>
<path d="M1533.85 -299V948" stroke="white" stroke-opacity="0.05"/>
<path d="M1673.85 -299V948" stroke="white" stroke-opacity="0.05"/>
<path d="M1797.85 118H-0.146484" stroke="white" stroke-opacity="0.05"/>
<path d="M1797.85 258H-0.146484" stroke="white" stroke-opacity="0.05"/>
<circle cx="696.854" cy="118" r="3" fill="#D1DFF4" fill-opacity="0.1"/>
<circle cx="696.854" cy="258" r="3" fill="#D1DFF4" fill-opacity="0.1"/>
<circle cx="837.854" cy="258" r="3" fill="#D1DFF4" fill-opacity="0.1"/>
<circle cx="837.854" cy="118" r="3" fill="#D1DFF4" fill-opacity="0.1"/>
<circle cx="974.854" cy="118" r="3" fill="#D1DFF4" fill-opacity="0.1"/>
<circle cx="971.854" cy="258" r="3" fill="#D1DFF4" fill-opacity="0.1"/>
<circle cx="1112.85" cy="258" r="3" fill="#D1DFF4" fill-opacity="0.1"/>
<circle cx="1113.85" cy="118" r="3" fill="#D1DFF4" fill-opacity="0.1"/>
<circle cx="415.854" cy="118" r="3" fill="#D1DFF4" fill-opacity="0.1"/>
<circle cx="415.854" cy="258" r="3" fill="#D1DFF4" fill-opacity="0.1"/>
<circle cx="556.854" cy="258" r="3" fill="#D1DFF4" fill-opacity="0.1"/>
<circle cx="556.854" cy="118" r="3" fill="#D1DFF4" fill-opacity="0.1"/>
<circle cx="137.854" cy="118" r="3" fill="#D1DFF4" fill-opacity="0.1"/>
<circle cx="137.854" cy="258" r="3" fill="#D1DFF4" fill-opacity="0.1"/>
<circle cx="278.854" cy="258" r="3" fill="#D1DFF4" fill-opacity="0.1"/>
<circle cx="278.854" cy="118" r="3" fill="#D1DFF4" fill-opacity="0.1"/>
<circle cx="1255.85" cy="118" r="3" fill="#D1DFF4" fill-opacity="0.1"/>
<circle cx="1253.85" cy="258" r="3" fill="#D1DFF4" fill-opacity="0.1"/>
<circle cx="1394.85" cy="258" r="3" fill="#D1DFF4" fill-opacity="0.1"/>
<circle cx="1395.85" cy="118" r="3" fill="#D1DFF4" fill-opacity="0.1"/>
<circle cx="1533.85" cy="118" r="3" fill="#D1DFF4" fill-opacity="0.1"/>
<circle cx="1532.85" cy="258" r="3" fill="#D1DFF4" fill-opacity="0.1"/>
<circle cx="1673.85" cy="258" r="3" fill="#D1DFF4" fill-opacity="0.1"/>
<circle cx="1673.85" cy="118" r="3" fill="#D1DFF4" fill-opacity="0.1"/>
</svg>
