<svg width="1800" height="1140" viewBox="0 0 1800 1140" fill="none" xmlns="http://www.w3.org/2000/svg">
<mask id="mask0_507_2" style="mask-type:alpha" maskUnits="userSpaceOnUse" x="-1" y="0" width="1801" height="1140">
<rect x="-0.146484" width="1800" height="1140" fill="#F8FBFF"/>
</mask>
<g mask="url(#mask0_507_2)">
<path d="M139.854 -52V1195" stroke="#1E78FF" stroke-opacity="0.04"/>
<path d="M279.854 -52V1195" stroke="#1E78FF" stroke-opacity="0.04"/>
<path d="M417.854 -52V1195" stroke="#1E78FF" stroke-opacity="0.04"/>
<path d="M557.854 -52V1195" stroke="#1E78FF" stroke-opacity="0.04"/>
<path d="M698.854 -52V1195" stroke="#1E78FF" stroke-opacity="0.04"/>
<path d="M838.854 -52V1195" stroke="#1E78FF" stroke-opacity="0.04"/>
<path d="M976.854 -52V1195" stroke="#1E78FF" stroke-opacity="0.04"/>
<path d="M1116.85 -52V1195" stroke="#1E78FF" stroke-opacity="0.04"/>
<path d="M1256.85 -52V1195" stroke="#1E78FF" stroke-opacity="0.04"/>
<path d="M1396.85 -52V1195" stroke="#1E78FF" stroke-opacity="0.04"/>
<path d="M1534.85 -52V1195" stroke="#1E78FF" stroke-opacity="0.04"/>
<path d="M1674.85 -52V1195" stroke="#1E78FF" stroke-opacity="0.04"/>
<path d="M1798.85 85H0.853516" stroke="#1E78FF" stroke-opacity="0.04"/>
<path d="M1798.85 225H0.853516" stroke="#1E78FF" stroke-opacity="0.04"/>
<path d="M1798.85 365H0.853516" stroke="#1E78FF" stroke-opacity="0.04"/>
<path d="M1798.85 505H0.853516" stroke="#1E78FF" stroke-opacity="0.04"/>
<path d="M1798.85 645H0.853516" stroke="#1E78FF" stroke-opacity="0.04"/>
<path d="M1798.85 785H0.853516" stroke="#1E78FF" stroke-opacity="0.04"/>
<path d="M1798.85 925H0.853516" stroke="#1E78FF" stroke-opacity="0.04"/>
<path d="M1798.85 1065H0.853516" stroke="#1E78FF" stroke-opacity="0.04"/>
<circle cx="697.854" cy="85" r="3" fill="#D1DFF4" fill-opacity="0.39"/>
<circle cx="697.854" cy="225" r="3" fill="#D1DFF4" fill-opacity="0.39"/>
<circle cx="697.854" cy="365" r="3" fill="#D1DFF4" fill-opacity="0.39"/>
<circle cx="697.854" cy="505" r="3" fill="#D1DFF4" fill-opacity="0.39"/>
<circle cx="697.854" cy="645" r="3" fill="#D1DFF4" fill-opacity="0.39"/>
<circle cx="838.854" cy="645" r="3" fill="#D1DFF4" fill-opacity="0.39"/>
<circle cx="838.854" cy="505" r="3" fill="#D1DFF4" fill-opacity="0.39"/>
<circle cx="838.854" cy="365" r="3" fill="#D1DFF4" fill-opacity="0.39"/>
<circle cx="838.854" cy="225" r="3" fill="#D1DFF4" fill-opacity="0.39"/>
<circle cx="838.854" cy="85" r="3" fill="#D1DFF4" fill-opacity="0.39"/>
<circle cx="975.854" cy="85" r="3" fill="#D1DFF4" fill-opacity="0.39"/>
<circle cx="974.854" cy="225" r="3" fill="#D1DFF4" fill-opacity="0.39"/>
<circle cx="975.854" cy="365" r="3" fill="#D1DFF4" fill-opacity="0.39"/>
<circle cx="972.854" cy="505" r="3" fill="#D1DFF4" fill-opacity="0.39"/>
<circle cx="976.854" cy="645" r="3" fill="#D1DFF4" fill-opacity="0.39"/>
<circle cx="1115.85" cy="645" r="3" fill="#D1DFF4" fill-opacity="0.39"/>
<circle cx="1113.85" cy="505" r="3" fill="#D1DFF4" fill-opacity="0.39"/>
<circle cx="1114.85" cy="365" r="3" fill="#D1DFF4" fill-opacity="0.39"/>
<circle cx="1115.85" cy="225" r="3" fill="#D1DFF4" fill-opacity="0.39"/>
<circle cx="1113.85" cy="85" r="3" fill="#D1DFF4" fill-opacity="0.39"/>
<circle cx="416.854" cy="85" r="3" fill="#D1DFF4" fill-opacity="0.39"/>
<circle cx="416.854" cy="225" r="3" fill="#D1DFF4" fill-opacity="0.39"/>
<circle cx="416.854" cy="365" r="3" fill="#D1DFF4" fill-opacity="0.39"/>
<circle cx="416.854" cy="505" r="3" fill="#D1DFF4" fill-opacity="0.39"/>
<circle cx="416.854" cy="645" r="3" fill="#D1DFF4" fill-opacity="0.39"/>
<circle cx="557.854" cy="645" r="3" fill="#D1DFF4" fill-opacity="0.39"/>
<circle cx="557.854" cy="505" r="3" fill="#D1DFF4" fill-opacity="0.39"/>
<circle cx="557.854" cy="365" r="3" fill="#D1DFF4" fill-opacity="0.39"/>
<circle cx="557.854" cy="225" r="3" fill="#D1DFF4" fill-opacity="0.39"/>
<circle cx="557.854" cy="85" r="3" fill="#D1DFF4" fill-opacity="0.39"/>
<circle cx="138.854" cy="85" r="3" fill="#D1DFF4" fill-opacity="0.39"/>
<circle cx="138.854" cy="225" r="3" fill="#D1DFF4" fill-opacity="0.39"/>
<circle cx="138.854" cy="365" r="3" fill="#D1DFF4" fill-opacity="0.39"/>
<circle cx="138.854" cy="505" r="3" fill="#D1DFF4" fill-opacity="0.39"/>
<circle cx="138.854" cy="645" r="3" fill="#D1DFF4" fill-opacity="0.39"/>
<circle cx="279.854" cy="645" r="3" fill="#D1DFF4" fill-opacity="0.39"/>
<circle cx="279.854" cy="505" r="3" fill="#D1DFF4" fill-opacity="0.39"/>
<circle cx="279.854" cy="365" r="3" fill="#D1DFF4" fill-opacity="0.39"/>
<circle cx="279.854" cy="225" r="3" fill="#D1DFF4" fill-opacity="0.39"/>
<circle cx="278.854" cy="85" r="3" fill="#D1DFF4" fill-opacity="0.39"/>
<circle cx="1254.85" cy="85" r="3" fill="#D1DFF4" fill-opacity="0.39"/>
<circle cx="1255.85" cy="225" r="3" fill="#D1DFF4" fill-opacity="0.39"/>
<circle cx="1256.85" cy="365" r="3" fill="#D1DFF4" fill-opacity="0.39"/>
<circle cx="1254.85" cy="505" r="3" fill="#D1DFF4" fill-opacity="0.39"/>
<circle cx="1256.85" cy="645" r="3" fill="#D1DFF4" fill-opacity="0.39"/>
<circle cx="1397.85" cy="645" r="3" fill="#D1DFF4" fill-opacity="0.39"/>
<circle cx="1395.85" cy="505" r="3" fill="#D1DFF4" fill-opacity="0.39"/>
<circle cx="1396.85" cy="365" r="3" fill="#D1DFF4" fill-opacity="0.39"/>
<circle cx="1395.85" cy="225" r="3" fill="#D1DFF4" fill-opacity="0.39"/>
<circle cx="1395.85" cy="85" r="3" fill="#D1DFF4" fill-opacity="0.39"/>
<circle cx="1533.85" cy="85" r="3" fill="#D1DFF4" fill-opacity="0.39"/>
<circle cx="1533.85" cy="225" r="3" fill="#D1DFF4" fill-opacity="0.39"/>
<circle cx="1534.85" cy="365" r="3" fill="#D1DFF4" fill-opacity="0.39"/>
<circle cx="1533.85" cy="505" r="3" fill="#D1DFF4" fill-opacity="0.39"/>
<circle cx="1534.85" cy="645" r="3" fill="#D1DFF4" fill-opacity="0.39"/>
<circle cx="699.854" cy="785" r="3" fill="#D1DFF4" fill-opacity="0.39"/>
<circle cx="837.854" cy="785" r="3" fill="#D1DFF4" fill-opacity="0.39"/>
<circle cx="976.854" cy="785" r="3" fill="#D1DFF4" fill-opacity="0.39"/>
<circle cx="1116.85" cy="785" r="3" fill="#D1DFF4" fill-opacity="0.39"/>
<circle cx="416.854" cy="785" r="3" fill="#D1DFF4" fill-opacity="0.39"/>
<circle cx="557.854" cy="785" r="3" fill="#D1DFF4" fill-opacity="0.39"/>
<circle cx="139.854" cy="785" r="3" fill="#D1DFF4" fill-opacity="0.39"/>
<circle cx="279.854" cy="785" r="3" fill="#D1DFF4" fill-opacity="0.39"/>
<circle cx="1256.85" cy="786" r="3" fill="#D1DFF4" fill-opacity="0.39"/>
<circle cx="1396.85" cy="785" r="3" fill="#D1DFF4" fill-opacity="0.39"/>
<circle cx="1533.85" cy="785" r="3" fill="#D1DFF4" fill-opacity="0.39"/>
<circle cx="1674.85" cy="785" r="3" fill="#D1DFF4" fill-opacity="0.39"/>
<circle cx="699.854" cy="925" r="3" fill="#D1DFF4" fill-opacity="0.39"/>
<circle cx="837.854" cy="925" r="3" fill="#D1DFF4" fill-opacity="0.39"/>
<circle cx="976.854" cy="925" r="3" fill="#D1DFF4" fill-opacity="0.39"/>
<circle cx="1116.85" cy="925" r="3" fill="#D1DFF4" fill-opacity="0.39"/>
<circle cx="416.854" cy="925" r="3" fill="#D1DFF4" fill-opacity="0.39"/>
<circle cx="557.854" cy="925" r="3" fill="#D1DFF4" fill-opacity="0.39"/>
<circle cx="139.854" cy="925" r="3" fill="#D1DFF4" fill-opacity="0.39"/>
<circle cx="279.854" cy="925" r="3" fill="#D1DFF4" fill-opacity="0.39"/>
<circle cx="1256.85" cy="926" r="3" fill="#D1DFF4" fill-opacity="0.39"/>
<circle cx="1396.85" cy="925" r="3" fill="#D1DFF4" fill-opacity="0.39"/>
<circle cx="1533.85" cy="925" r="3" fill="#D1DFF4" fill-opacity="0.39"/>
<circle cx="1674.85" cy="925" r="3" fill="#D1DFF4" fill-opacity="0.39"/>
<circle cx="699.854" cy="1065" r="3" fill="#D1DFF4" fill-opacity="0.39"/>
<circle cx="837.854" cy="1065" r="3" fill="#D1DFF4" fill-opacity="0.39"/>
<circle cx="976.854" cy="1065" r="3" fill="#D1DFF4" fill-opacity="0.39"/>
<circle cx="1116.85" cy="1065" r="3" fill="#D1DFF4" fill-opacity="0.39"/>
<circle cx="416.854" cy="1065" r="3" fill="#D1DFF4" fill-opacity="0.39"/>
<circle cx="557.854" cy="1065" r="3" fill="#D1DFF4" fill-opacity="0.39"/>
<circle cx="139.854" cy="1065" r="3" fill="#D1DFF4" fill-opacity="0.39"/>
<circle cx="279.854" cy="1065" r="3" fill="#D1DFF4" fill-opacity="0.39"/>
<circle cx="1256.85" cy="1066" r="3" fill="#D1DFF4" fill-opacity="0.39"/>
<circle cx="1396.85" cy="1065" r="3" fill="#D1DFF4" fill-opacity="0.39"/>
<circle cx="1533.85" cy="1065" r="3" fill="#D1DFF4" fill-opacity="0.39"/>
<circle cx="1674.85" cy="1065" r="3" fill="#D1DFF4" fill-opacity="0.39"/>
<circle cx="1674.85" cy="645" r="3" fill="#D1DFF4" fill-opacity="0.39"/>
<circle cx="1674.85" cy="505" r="3" fill="#D1DFF4" fill-opacity="0.39"/>
<circle cx="1674.85" cy="365" r="3" fill="#D1DFF4" fill-opacity="0.39"/>
<circle cx="1674.85" cy="225" r="3" fill="#D1DFF4" fill-opacity="0.39"/>
<circle cx="1674.85" cy="85" r="3" fill="#D1DFF4" fill-opacity="0.39"/>
</g>
</svg>
