<svg width="178" height="43" viewBox="0 0 178 43" fill="none" xmlns="http://www.w3.org/2000/svg">
<g opacity="0.6">
<path d="M30.4029 34.5905L32.1989 36.3865L28.6583 39.9271C24.8098 43.7756 18.5496 43.7756 14.7011 39.9271L3.56606 28.7921C-0.282438 24.9436 -0.282438 18.6834 3.56606 14.8349L7.1067 11.2942L10.0315 14.2191C11.0578 15.2454 12.4946 15.7585 13.9827 15.7072C14.5471 15.7072 15.2142 15.8098 15.8813 16.0151C18.0364 16.6821 20.7047 18.3242 23.1678 20.7872C25.6308 23.2502 27.2728 25.9185 27.9399 28.0737C28.0938 28.6895 28.1965 29.2539 28.2478 29.7157C28.2991 31.563 29.1201 33.3077 30.4029 34.5905ZM17.9338 11.6534C20.2942 11.4995 23.9375 13.3981 27.2215 16.6821C30.3003 19.7609 32.1476 23.1476 32.3015 25.508C32.4042 27.3553 33.1225 29.1 34.4054 30.4341L36.304 32.3327L39.8446 28.7921C43.6931 24.9436 43.6931 18.6834 39.8446 14.8349L28.7096 3.69985C24.8611 -0.148649 18.6009 -0.148649 14.7524 3.69985L11.2118 7.24049L14.0853 10.114C15.1116 11.1916 16.497 11.7561 17.9338 11.6534Z" fill="#949494"/>
<path d="M28.2478 29.7164C28.2478 29.2033 28.1452 28.6388 27.9399 28.0744C27.2728 25.9192 25.6308 23.2509 23.1678 20.7879C20.7047 18.3249 18.0364 16.6828 15.8813 16.0158C15.1629 15.8105 14.5471 15.7079 13.9827 15.7079C12.4946 15.7592 11.1091 15.2461 10.0315 14.2198L7.1067 11.2949L3.56606 14.8356C-0.282438 18.6841 -0.282438 24.9443 3.56606 28.7928L14.7011 39.9278C18.5496 43.7763 24.8098 43.7763 28.6583 39.9278L32.1989 36.3872L30.4029 34.5912C29.1201 33.3084 28.2991 31.5637 28.2478 29.7164Z" fill="#949494"/>
</g>
<path d="M62.0547 30.3076H58.4297L63.9531 14.3076H68.3125L73.8281 30.3076H70.2031L66.1953 17.9639H66.0703L62.0547 30.3076ZM61.8281 24.0186H70.3906V26.6592H61.8281V24.0186ZM75.6914 30.3076V18.3076H78.918V20.4014H79.043C79.2617 19.6566 79.6289 19.0941 80.1445 18.7139C80.6602 18.3285 81.2539 18.1357 81.9258 18.1357C82.0924 18.1357 82.2721 18.1462 82.4648 18.167C82.6576 18.1878 82.8268 18.2165 82.9727 18.2529V21.2061C82.8164 21.1592 82.6003 21.1175 82.3242 21.0811C82.0482 21.0446 81.7956 21.0264 81.5664 21.0264C81.0768 21.0264 80.6393 21.1331 80.2539 21.3467C79.8737 21.555 79.5716 21.8467 79.3477 22.2217C79.1289 22.5967 79.0195 23.029 79.0195 23.5186V30.3076H75.6914ZM91.6777 18.3076V20.8076H84.4512V18.3076H91.6777ZM86.0918 15.4326H89.4199V26.6201C89.4199 26.9274 89.4668 27.167 89.5605 27.3389C89.6543 27.5055 89.7845 27.6227 89.9512 27.6904C90.123 27.7581 90.321 27.792 90.5449 27.792C90.7012 27.792 90.8574 27.779 91.0137 27.7529C91.1699 27.7217 91.2897 27.6982 91.373 27.6826L91.8965 30.1592C91.7298 30.2113 91.4954 30.2712 91.1934 30.3389C90.8913 30.4118 90.5241 30.4561 90.0918 30.4717C89.2897 30.5029 88.5866 30.3962 87.9824 30.1514C87.3835 29.9066 86.9173 29.5264 86.584 29.0107C86.2507 28.4951 86.0866 27.8441 86.0918 27.0576V15.4326ZM104.672 30.3076H99V14.3076H104.719C106.328 14.3076 107.714 14.6279 108.875 15.2686C110.036 15.904 110.93 16.818 111.555 18.0107C112.185 19.2035 112.5 20.6305 112.5 22.292C112.5 23.9587 112.185 25.391 111.555 26.5889C110.93 27.7868 110.031 28.7061 108.859 29.3467C107.693 29.9873 106.297 30.3076 104.672 30.3076ZM102.383 27.4092H104.531C105.531 27.4092 106.372 27.2321 107.055 26.8779C107.742 26.5186 108.258 25.9639 108.602 25.2139C108.951 24.4587 109.125 23.4847 109.125 22.292C109.125 21.1097 108.951 20.1436 108.602 19.3936C108.258 18.6436 107.745 18.0915 107.062 17.7373C106.38 17.3831 105.539 17.2061 104.539 17.2061H102.383V27.4092ZM120.365 30.542C119.152 30.542 118.102 30.2842 117.217 29.7686C116.337 29.2477 115.657 28.5238 115.178 27.5967C114.699 26.6644 114.459 25.5837 114.459 24.3545C114.459 23.1149 114.699 22.0316 115.178 21.1045C115.657 20.1722 116.337 19.4482 117.217 18.9326C118.102 18.4118 119.152 18.1514 120.365 18.1514C121.579 18.1514 122.626 18.4118 123.506 18.9326C124.391 19.4482 125.074 20.1722 125.553 21.1045C126.032 22.0316 126.271 23.1149 126.271 24.3545C126.271 25.5837 126.032 26.6644 125.553 27.5967C125.074 28.5238 124.391 29.2477 123.506 29.7686C122.626 30.2842 121.579 30.542 120.365 30.542ZM120.381 27.9639C120.933 27.9639 121.394 27.8076 121.764 27.4951C122.133 27.1774 122.412 26.7451 122.6 26.1982C122.792 25.6514 122.889 25.029 122.889 24.3311C122.889 23.6331 122.792 23.0107 122.6 22.4639C122.412 21.917 122.133 21.4847 121.764 21.167C121.394 20.8493 120.933 20.6904 120.381 20.6904C119.824 20.6904 119.355 20.8493 118.975 21.167C118.6 21.4847 118.316 21.917 118.123 22.4639C117.936 23.0107 117.842 23.6331 117.842 24.3311C117.842 25.029 117.936 25.6514 118.123 26.1982C118.316 26.7451 118.6 27.1774 118.975 27.4951C119.355 27.8076 119.824 27.9639 120.381 27.9639ZM132.857 30.5029C131.946 30.5029 131.12 30.2686 130.381 29.7998C129.646 29.3258 129.063 28.6305 128.631 27.7139C128.204 26.792 127.99 25.6618 127.99 24.3232C127.99 22.9482 128.212 21.805 128.654 20.8936C129.097 19.9769 129.686 19.292 130.42 18.8389C131.16 18.3805 131.969 18.1514 132.85 18.1514C133.521 18.1514 134.081 18.266 134.529 18.4951C134.982 18.7191 135.347 19.0003 135.623 19.3389C135.904 19.6722 136.118 20.0003 136.264 20.3232H136.365V14.3076H139.686V30.3076H136.404V28.3857H136.264C136.107 28.7191 135.886 29.0498 135.6 29.3779C135.318 29.7008 134.951 29.9691 134.498 30.1826C134.05 30.3962 133.503 30.5029 132.857 30.5029ZM133.912 27.8545C134.449 27.8545 134.902 27.7087 135.271 27.417C135.646 27.1201 135.933 26.7061 136.131 26.1748C136.334 25.6436 136.436 25.0212 136.436 24.3076C136.436 23.5941 136.337 22.9743 136.139 22.4482C135.941 21.9222 135.654 21.516 135.279 21.2295C134.904 20.943 134.449 20.7998 133.912 20.7998C133.365 20.7998 132.904 20.9482 132.529 21.2451C132.154 21.542 131.87 21.9535 131.678 22.4795C131.485 23.0055 131.389 23.6149 131.389 24.3076C131.389 25.0055 131.485 25.6227 131.678 26.1592C131.876 26.6904 132.16 27.1071 132.529 27.4092C132.904 27.7061 133.365 27.8545 133.912 27.8545ZM147.828 35.0576C146.75 35.0576 145.826 34.9092 145.055 34.6123C144.289 34.3206 143.68 33.9222 143.227 33.417C142.773 32.9118 142.479 32.3441 142.344 31.7139L145.422 31.2998C145.516 31.5394 145.664 31.7633 145.867 31.9717C146.07 32.18 146.339 32.3467 146.672 32.4717C147.01 32.6019 147.422 32.667 147.906 32.667C148.63 32.667 149.227 32.4899 149.695 32.1357C150.169 31.7868 150.406 31.2008 150.406 30.3779V28.1826H150.266C150.12 28.516 149.901 28.8311 149.609 29.1279C149.318 29.4248 148.943 29.667 148.484 29.8545C148.026 30.042 147.479 30.1357 146.844 30.1357C145.943 30.1357 145.122 29.9274 144.383 29.5107C143.648 29.0889 143.063 28.4456 142.625 27.5811C142.193 26.7113 141.977 25.6123 141.977 24.2842C141.977 22.9248 142.198 21.7894 142.641 20.8779C143.083 19.9665 143.672 19.2842 144.406 18.8311C145.146 18.3779 145.956 18.1514 146.836 18.1514C147.508 18.1514 148.07 18.266 148.523 18.4951C148.977 18.7191 149.341 19.0003 149.617 19.3389C149.898 19.6722 150.115 20.0003 150.266 20.3232H150.391V18.3076H153.695V30.4248C153.695 31.4456 153.445 32.2998 152.945 32.9873C152.445 33.6748 151.753 34.1904 150.867 34.5342C149.987 34.8831 148.974 35.0576 147.828 35.0576ZM147.898 27.6357C148.435 27.6357 148.888 27.5029 149.258 27.2373C149.633 26.9665 149.919 26.5811 150.117 26.0811C150.32 25.5758 150.422 24.9717 150.422 24.2686C150.422 23.5654 150.323 22.9561 150.125 22.4404C149.927 21.9196 149.641 21.516 149.266 21.2295C148.891 20.943 148.435 20.7998 147.898 20.7998C147.352 20.7998 146.891 20.9482 146.516 21.2451C146.141 21.5368 145.857 21.943 145.664 22.4639C145.471 22.9847 145.375 23.5863 145.375 24.2686C145.375 24.9613 145.471 25.5602 145.664 26.0654C145.862 26.5654 146.146 26.9535 146.516 27.2295C146.891 27.5003 147.352 27.6357 147.898 27.6357ZM161.813 30.542C160.578 30.542 159.516 30.292 158.625 29.792C157.74 29.2868 157.057 28.5732 156.578 27.6514C156.099 26.7243 155.859 25.6279 155.859 24.3623C155.859 23.1279 156.099 22.0446 156.578 21.1123C157.057 20.18 157.732 19.4535 158.602 18.9326C159.477 18.4118 160.503 18.1514 161.68 18.1514C162.471 18.1514 163.208 18.279 163.891 18.5342C164.578 18.7842 165.177 19.1618 165.688 19.667C166.203 20.1722 166.604 20.8076 166.891 21.5732C167.177 22.3337 167.32 23.2243 167.32 24.2451V25.1592H157.188V23.0967H164.188C164.188 22.6175 164.083 22.193 163.875 21.8232C163.667 21.4535 163.378 21.1644 163.008 20.9561C162.643 20.7425 162.219 20.6357 161.734 20.6357C161.229 20.6357 160.781 20.7529 160.391 20.9873C160.005 21.2165 159.703 21.5264 159.484 21.917C159.266 22.3024 159.154 22.7321 159.148 23.2061V25.167C159.148 25.7607 159.258 26.2738 159.477 26.7061C159.701 27.1383 160.016 27.4717 160.422 27.7061C160.828 27.9404 161.31 28.0576 161.867 28.0576C162.237 28.0576 162.576 28.0055 162.883 27.9014C163.19 27.7972 163.453 27.641 163.672 27.4326C163.891 27.2243 164.057 26.9691 164.172 26.667L167.25 26.8701C167.094 27.6097 166.773 28.2555 166.289 28.8076C165.81 29.3545 165.19 29.7816 164.43 30.0889C163.674 30.391 162.802 30.542 161.813 30.542ZM169.492 30.3076V18.3076H172.719V20.4014H172.844C173.063 19.6566 173.43 19.0941 173.945 18.7139C174.461 18.3285 175.055 18.1357 175.727 18.1357C175.893 18.1357 176.073 18.1462 176.266 18.167C176.458 18.1878 176.628 18.2165 176.773 18.2529V21.2061C176.617 21.1592 176.401 21.1175 176.125 21.0811C175.849 21.0446 175.596 21.0264 175.367 21.0264C174.878 21.0264 174.44 21.1331 174.055 21.3467C173.674 21.555 173.372 21.8467 173.148 22.2217C172.93 22.5967 172.82 23.029 172.82 23.5186V30.3076H169.492Z" fill="#949494"/>
</svg>
