<svg width="144" height="36" viewBox="0 0 144 36" fill="none" xmlns="http://www.w3.org/2000/svg">
<g opacity="0.6">
<path d="M14.3145 3.92878H18.8103L26.3877 17.0124L28.6104 20.9526L32.298 27.267L45.7857 3.92878H38.461L40.6836 0.0390625H52.5043L32.298 35.0465L26.3877 24.8423L24.1145 20.9526L14.3145 3.92878Z" fill="#949494"/>
<path d="M0.220703 0.0390625H40.6838L38.4611 3.92878L28.6105 20.9526L26.3878 17.0124L33.9652 3.92878H6.98981L20.4775 27.267L24.1146 20.9526L26.3878 24.8423L20.4775 35.0465L0.220703 0.0390625Z" fill="#949494"/>
<g>
<g>
<path d="M14.3145 3.92682H16.5371L25.2258 18.9805L26.3877 20.9506L27.499 22.8702L32.298 31.1548L49.1198 1.95673H39.5723L40.6836 0.0371094H52.5043L32.298 35.0445L26.3877 24.8403L25.2258 22.8702L24.1145 20.9506L14.3145 3.92682Z" fill="#949494"/>
</g>
<path d="M16.5371 3.92712H18.8103L26.3877 17.0107L27.499 18.9808L28.6104 20.9509L32.298 27.2654L45.7857 3.92712H38.4609L39.5723 1.95703H49.1197L32.298 31.1551L27.499 22.8705L26.3877 20.9509L25.2258 18.9808L16.5371 3.92712Z" fill="#949494"/>
<path d="M0.220703 0.0371094H40.6838L39.5724 1.95673L38.4611 3.92682L28.6105 20.9506L27.4992 18.9805L36.1879 3.92682L37.2992 1.95673H3.60525L20.4775 31.1548L25.226 22.8702L26.3878 24.8403L20.4775 35.0445L0.220703 0.0371094Z" fill="#949494"/>
<path d="M3.60547 1.95703H37.2994L36.1881 3.92712L27.4994 18.9808L26.388 17.0107L33.9654 3.92712H6.99002L20.4777 27.2654L24.1148 20.9509L25.2262 22.8705L20.4777 31.1551L3.60547 1.95703Z" fill="#949494"/>
</g>
<g>
<path d="M38.4609 3.92682L40.6836 0.0371094H48.3115L45.23 3.92682H38.4609Z" fill="#949494"/>
<path d="M28.6114 20.9505L26.3887 17.0103L28.3588 13.5752L31.0361 16.7577L28.6114 20.9505Z" fill="#949494"/>
<path d="M26.3886 24.8409L24.1154 20.9512L21.5391 25.3965L23.7112 29.4378L26.3886 24.8409Z" fill="#949494"/>
</g>
<path d="M14.3145 3.92773H18.8103L22.1444 9.73704L18.1031 10.5453L14.3145 3.92773Z" fill="#949494"/>
</g>
<path d="M66.6777 26.1689V10.1689H73.084C74.2611 10.1689 75.2428 10.3434 76.0293 10.6924C76.8158 11.0413 77.4069 11.5257 77.8027 12.1455C78.1986 12.7601 78.3965 13.4684 78.3965 14.2705C78.3965 14.8955 78.2715 15.445 78.0215 15.9189C77.7715 16.3877 77.4277 16.7731 76.9902 17.0752C76.5579 17.3721 76.0632 17.583 75.5059 17.708V17.8643C76.1152 17.8903 76.6855 18.0622 77.2168 18.3799C77.7533 18.6976 78.1882 19.1429 78.5215 19.7158C78.8548 20.2835 79.0215 20.9606 79.0215 21.7471C79.0215 22.596 78.8105 23.3538 78.3887 24.0205C77.972 24.682 77.3548 25.2054 76.5371 25.5908C75.7194 25.9762 74.7116 26.1689 73.5137 26.1689H66.6777ZM70.0605 23.4033H72.8184C73.7611 23.4033 74.4486 23.2236 74.8809 22.8643C75.3132 22.4997 75.5293 22.0153 75.5293 21.4111C75.5293 20.9684 75.4225 20.5778 75.209 20.2393C74.9954 19.9007 74.6908 19.6351 74.2949 19.4424C73.9043 19.2497 73.4382 19.1533 72.8965 19.1533H70.0605V23.4033ZM70.0605 16.8643H72.5684C73.0319 16.8643 73.4434 16.7835 73.8027 16.6221C74.1673 16.4554 74.4538 16.221 74.6621 15.9189C74.8757 15.6169 74.9824 15.2549 74.9824 14.833C74.9824 14.2549 74.7767 13.7887 74.3652 13.4346C73.959 13.0804 73.3809 12.9033 72.6309 12.9033H70.0605V16.8643ZM81.1602 26.1689V14.1689H84.4883V26.1689H81.1602ZM82.832 12.6221C82.3372 12.6221 81.9128 12.458 81.5586 12.1299C81.2096 11.7965 81.0352 11.3981 81.0352 10.9346C81.0352 10.4762 81.2096 10.083 81.5586 9.75488C81.9128 9.42155 82.3372 9.25488 82.832 9.25488C83.3268 9.25488 83.7487 9.42155 84.0977 9.75488C84.4518 10.083 84.6289 10.4762 84.6289 10.9346C84.6289 11.3981 84.4518 11.7965 84.0977 12.1299C83.7487 12.458 83.3268 12.6221 82.832 12.6221ZM93.5371 14.1689V16.6689H86.3105V14.1689H93.5371ZM87.9512 11.2939H91.2793V22.4814C91.2793 22.7887 91.3262 23.0283 91.4199 23.2002C91.5137 23.3669 91.6439 23.484 91.8105 23.5518C91.9824 23.6195 92.1803 23.6533 92.4043 23.6533C92.5605 23.6533 92.7168 23.6403 92.873 23.6143C93.0293 23.583 93.1491 23.5596 93.2324 23.5439L93.7559 26.0205C93.5892 26.0726 93.3548 26.1325 93.0527 26.2002C92.7507 26.2731 92.3835 26.3174 91.9512 26.333C91.1491 26.3643 90.446 26.2575 89.8418 26.0127C89.2428 25.7679 88.7767 25.3877 88.4434 24.8721C88.11 24.3564 87.946 23.7054 87.9512 22.9189V11.2939ZM114.242 10.1689V26.1689H111.32L104.359 16.0986H104.242V26.1689H100.859V10.1689H103.828L110.734 20.2314H110.875V10.1689H114.242ZM117.037 26.1689V10.1689H127.631V12.958H120.42V16.7705H126.928V19.5596H120.42V26.1689H117.037ZM129.297 12.958V10.1689H142.438V12.958H137.539V26.1689H134.195V12.958H129.297Z" fill="#949494"/>
</svg>
