<svg width="177" height="36" viewBox="0 0 177 36" fill="none" xmlns="http://www.w3.org/2000/svg">
<g opacity="0.6">
<path d="M41.0975 19.8081C41.0975 20.3252 40.8907 20.8422 40.4771 21.2558L31.0672 30.6658C24.0873 37.6457 12.7126 37.6457 5.73269 30.6658C2.37199 27.3051 0.458984 22.8069 0.458984 17.9985C0.458984 13.1902 2.32029 8.69199 5.73269 5.3313C9.09339 1.9706 13.5915 0.0576172 18.3999 0.0576172C23.2083 0.0576172 27.7065 1.9189 31.0672 5.3313C31.8944 6.15855 31.8944 7.45114 31.0672 8.22669C30.2399 9.05393 28.9473 9.05393 28.1718 8.22669C25.5866 5.64154 22.0708 4.19386 18.3999 4.19386C14.729 4.19386 11.2649 5.64154 8.62806 8.22669C6.04291 10.8118 4.59523 14.3276 4.59523 17.9985C4.59523 21.6694 6.04291 25.1336 8.62806 27.7704C14.0052 33.1475 22.7947 33.1475 28.1718 27.7704L37.5817 18.3605C38.409 17.5332 39.7016 17.5332 40.4771 18.3605C40.8907 18.7741 41.0975 19.2911 41.0975 19.8081Z" fill="#949494"/>
<path d="M26.5689 11.8972C26.5689 12.4143 26.3621 12.9313 25.9484 13.3449C25.1212 14.1722 23.8286 14.1722 23.0531 13.3449C20.4679 10.7598 16.28 10.7598 13.7465 13.3449C12.5056 14.5858 11.8335 16.2403 11.8335 17.9982C11.8335 19.7561 12.5056 21.4106 13.7465 22.6515C14.9874 23.8923 16.6419 24.5645 18.3998 24.5645C20.1577 24.5645 21.8122 23.8923 23.0531 22.6515C23.8803 21.8242 25.1729 21.8242 25.9484 22.6515C26.7757 23.4787 26.7757 24.7713 25.9484 25.5468C23.932 27.5633 21.2435 28.7007 18.3998 28.7007C15.5561 28.7007 12.8676 27.5633 10.8511 25.5468C8.83473 23.5304 7.69727 20.8418 7.69727 17.9982C7.69727 15.1545 8.83473 12.466 10.8511 10.4496C15.0391 6.26161 21.8122 6.26161 26.0001 10.4496C26.4138 10.8632 26.5689 11.3802 26.5689 11.8972Z" fill="#949494"/>
<path d="M68.9647 17.9989C68.9647 22.8073 67.1034 27.3054 63.691 30.6661C56.7111 37.646 45.3365 37.646 38.3566 30.6661C37.5293 29.8389 37.5293 28.5463 38.3566 27.7708C39.1838 26.9435 40.4764 26.9435 41.2519 27.7708C46.629 33.1479 55.4186 33.1479 60.7957 27.7708C63.3808 25.1856 64.8285 21.6698 64.8285 17.9989C64.8285 14.328 63.3808 10.8639 60.7957 8.22703C58.2105 5.64188 54.6947 4.1942 51.0238 4.1942C47.3529 4.1942 43.8888 5.64188 41.2519 8.22703L31.842 17.6887C31.0147 18.5159 29.7222 18.5159 28.9466 17.6887C28.1194 16.8614 28.1194 15.5689 28.9466 14.7933L38.3566 5.38337C45.3365 -1.59654 56.7111 -1.59654 63.691 5.38337C67.1034 8.74406 68.9647 13.2422 68.9647 17.9989Z" fill="#949494"/>
<path d="M61.7271 17.9982C61.7271 20.8418 60.5896 23.5304 58.5732 25.5468C56.5568 27.5633 53.8682 28.7007 51.0245 28.7007C48.1809 28.7007 45.4923 27.5633 43.4759 25.5468C42.6487 24.7196 42.6487 23.427 43.4759 22.6515C44.3032 21.8242 45.5957 21.8242 46.3713 22.6515C47.6121 23.8923 49.2666 24.5645 51.0245 24.5645C52.7824 24.5645 54.4369 23.8923 55.6778 22.6515C56.9187 21.4106 57.5908 19.7561 57.5908 17.9982C57.5908 16.2403 56.9187 14.5858 55.6778 13.3449C53.0927 10.7598 48.9047 10.7598 46.3713 13.3449C45.544 14.1722 44.2514 14.1722 43.4759 13.3449C42.6487 12.5177 42.6487 11.2251 43.4759 10.4496C47.6638 6.26161 54.4369 6.26161 58.6249 10.4496C60.6413 12.466 61.7271 15.1545 61.7271 17.9982Z" fill="#949494"/>
</g>
<path d="M93.2441 12.1699V28.1699H90.3223L83.3613 18.0996H83.2441V28.1699H79.8613V12.1699H82.8301L89.7363 22.2324H89.877V12.1699H93.2441ZM96.0391 28.1699V12.1699H106.633V14.959H99.4219V18.7715H105.93V21.5605H99.4219V28.1699H96.0391ZM108.299 14.959V12.1699H121.439V14.959H116.541V28.1699H113.197V14.959H108.299ZM128.695 28.1699V12.1699H132.078V25.3809H138.938V28.1699H128.695ZM146.537 28.4043C145.324 28.4043 144.274 28.1465 143.389 27.6309C142.508 27.11 141.829 26.3861 141.35 25.459C140.87 24.5267 140.631 23.446 140.631 22.2168C140.631 20.9772 140.87 19.8939 141.35 18.9668C141.829 18.0345 142.508 17.3105 143.389 16.7949C144.274 16.2741 145.324 16.0137 146.537 16.0137C147.751 16.0137 148.798 16.2741 149.678 16.7949C150.563 17.3105 151.245 18.0345 151.725 18.9668C152.204 19.8939 152.443 20.9772 152.443 22.2168C152.443 23.446 152.204 24.5267 151.725 25.459C151.245 26.3861 150.563 27.11 149.678 27.6309C148.798 28.1465 147.751 28.4043 146.537 28.4043ZM146.553 25.8262C147.105 25.8262 147.566 25.6699 147.936 25.3574C148.305 25.0397 148.584 24.6074 148.771 24.0605C148.964 23.5137 149.061 22.8913 149.061 22.1934C149.061 21.4954 148.964 20.873 148.771 20.3262C148.584 19.7793 148.305 19.347 147.936 19.0293C147.566 18.7116 147.105 18.5527 146.553 18.5527C145.995 18.5527 145.527 18.7116 145.146 19.0293C144.771 19.347 144.488 19.7793 144.295 20.3262C144.107 20.873 144.014 21.4954 144.014 22.1934C144.014 22.8913 144.107 23.5137 144.295 24.0605C144.488 24.6074 144.771 25.0397 145.146 25.3574C145.527 25.6699 145.995 25.8262 146.553 25.8262ZM154.607 28.1699V16.1699H157.834V18.2637H157.959C158.178 17.5189 158.545 16.9564 159.061 16.5762C159.576 16.1908 160.17 15.998 160.842 15.998C161.008 15.998 161.188 16.0085 161.381 16.0293C161.574 16.0501 161.743 16.0788 161.889 16.1152V19.0684C161.732 19.0215 161.516 18.9798 161.24 18.9434C160.964 18.9069 160.712 18.8887 160.482 18.8887C159.993 18.8887 159.555 18.9954 159.17 19.209C158.79 19.4173 158.488 19.709 158.264 20.084C158.045 20.459 157.936 20.8913 157.936 21.3809V28.1699H154.607ZM167.473 28.3652C166.561 28.3652 165.736 28.1309 164.996 27.6621C164.262 27.1882 163.678 26.4928 163.246 25.5762C162.819 24.6543 162.605 23.5241 162.605 22.1855C162.605 20.8105 162.827 19.6673 163.27 18.7559C163.712 17.8392 164.301 17.1543 165.035 16.7012C165.775 16.2428 166.585 16.0137 167.465 16.0137C168.137 16.0137 168.697 16.1283 169.145 16.3574C169.598 16.5814 169.962 16.8626 170.238 17.2012C170.52 17.5345 170.733 17.8626 170.879 18.1855H170.98V12.1699H174.301V28.1699H171.02V26.248H170.879C170.723 26.5814 170.501 26.9121 170.215 27.2402C169.934 27.5632 169.566 27.8314 169.113 28.0449C168.665 28.2585 168.118 28.3652 167.473 28.3652ZM168.527 25.7168C169.064 25.7168 169.517 25.571 169.887 25.2793C170.262 24.9824 170.548 24.5684 170.746 24.0371C170.949 23.5059 171.051 22.8835 171.051 22.1699C171.051 21.4564 170.952 20.8366 170.754 20.3105C170.556 19.7845 170.27 19.3783 169.895 19.0918C169.52 18.8053 169.064 18.6621 168.527 18.6621C167.98 18.6621 167.52 18.8105 167.145 19.1074C166.77 19.4043 166.486 19.8158 166.293 20.3418C166.1 20.8678 166.004 21.4772 166.004 22.1699C166.004 22.8678 166.1 23.485 166.293 24.0215C166.491 24.5527 166.775 24.9694 167.145 25.2715C167.52 25.5684 167.98 25.7168 168.527 25.7168Z" fill="#949494"/>
</svg>
