<svg width="172" height="43" viewBox="0 0 172 43" fill="none" xmlns="http://www.w3.org/2000/svg">
<g opacity="0.6">
<path d="M12.9344 21.6359C10.9462 23.6655 9.66218 26.3992 9.45508 29.3814C10.5734 29.9199 11.8574 30.2512 13.1829 30.2512C13.1829 27.766 14.2598 25.4879 15.958 23.9554C14.8397 23.3341 13.8042 22.5471 12.9344 21.6359ZM15.958 19.3578C16.5793 19.9376 17.2835 20.4347 18.0705 20.8075C18.1119 19.9791 18.2776 19.1507 18.4847 18.3223C17.6148 18.5708 16.7864 18.9021 15.958 19.3578ZM25.1533 18.3223C25.3604 19.1092 25.5261 19.9376 25.5675 20.8075C26.3545 20.4347 27.0586 19.9376 27.6799 19.3578C26.8929 18.9021 26.0231 18.5708 25.1533 18.3223Z" fill="#949494"/>
<path d="M34.2238 30.2517C34.2238 31.4115 34.0581 32.5298 33.7681 33.5653C32.3184 38.7842 27.5137 42.6363 21.8391 42.6363C16.1646 42.6363 11.3599 38.7842 9.91016 33.5653C10.9457 33.8552 12.064 34.0209 13.2238 34.0209C13.5137 34.0209 13.8036 34.0209 14.0936 33.9795C15.5019 36.8789 18.4427 38.8671 21.8391 38.8671C25.2356 38.8671 28.2178 36.8789 29.5847 33.9795C30.1232 32.8612 30.4545 31.5771 30.4545 30.2517C30.4545 27.7665 29.3776 25.4884 27.6794 23.9558C28.7977 23.3345 29.8332 22.589 30.7031 21.6777C32.6912 23.7073 33.9752 26.441 34.1823 29.4233C34.1823 29.6718 34.2238 29.9617 34.2238 30.2517Z" fill="#949494"/>
<path d="M34.1837 13.8902C33.9766 16.9138 32.6926 19.6062 30.7044 21.6357C29.8346 22.547 28.7991 23.334 27.6807 23.9138C26.8937 24.328 26.0239 24.7008 25.1541 24.9493C24.3671 25.1564 23.5387 25.3221 22.6689 25.3635C22.379 25.3635 22.089 25.405 21.7991 25.405C21.5091 25.405 21.2192 25.405 20.9293 25.3635C20.0594 25.3221 19.231 25.1564 18.444 24.9493C17.5742 24.7008 16.7044 24.3695 15.9174 23.9138C14.7991 23.2925 13.7636 22.547 12.8938 21.6357C10.9056 19.6062 9.62156 16.8724 9.41446 13.8902C9.41446 13.6002 9.37305 13.3103 9.37305 13.0204C9.37305 11.8606 9.53872 10.7423 9.82866 9.70675C11.2784 4.48782 16.0831 0.635742 21.7577 0.635742C27.4322 0.635742 32.2369 4.48782 33.6866 9.70675C32.6511 9.41681 31.5328 9.25113 30.373 9.25113C30.0831 9.25113 29.7932 9.25113 29.5032 9.29255C28.0949 6.39315 25.1541 4.40497 21.7577 4.40497C18.3612 4.40497 15.379 6.39315 14.0121 9.29255C13.4736 10.4109 13.1423 11.6949 13.1423 13.0204C13.1423 15.5056 14.2192 17.7422 15.9174 19.3162C16.5387 19.8961 17.2429 20.3931 18.0298 20.7659C19.1482 21.3044 20.4322 21.6357 21.7577 21.6357C23.0831 21.6357 24.3671 21.3458 25.4855 20.7659C26.2724 20.3931 26.9766 19.8961 27.5979 19.3162C29.2961 17.7422 30.373 15.5056 30.373 13.0204C31.7813 13.0204 33.0653 13.3517 34.1837 13.8902Z" fill="#949494"/>
<path d="M14.0534 9.29297C13.515 10.4113 13.1836 11.6953 13.1836 13.0208C15.6688 13.0208 17.9055 14.0977 19.4794 15.7545C20.1007 14.6362 20.8877 13.6007 21.799 12.7308C19.8108 10.7841 17.0771 9.50007 14.0534 9.29297ZM22.6688 25.4054C23.0416 26.1924 23.5386 26.8965 24.1185 27.5178C24.5327 26.7308 24.9055 25.861 25.154 24.9912C24.367 25.1983 23.5386 25.3225 22.6688 25.4054Z" fill="#949494"/>
<path d="M25.5677 20.8073C24.4493 21.3458 23.1653 21.6772 21.8398 21.6772C21.8398 20.3517 22.1298 19.0677 22.7097 17.9493C23.0824 17.1624 23.5795 16.4582 24.1594 15.8369C24.5736 16.6239 24.9463 17.4937 25.1949 18.3635C25.3605 19.1091 25.5262 19.9375 25.5677 20.8073Z" fill="#949494"/>
<path d="M21.8398 30.5409C19.8102 32.5291 17.0765 33.8131 14.0943 34.0202C13.8043 34.0202 13.5144 34.0616 13.2245 34.0616C12.0647 34.0616 10.9463 33.896 9.91084 33.606C4.69191 32.1563 0.839844 27.3516 0.839844 21.677C0.839844 16.0025 4.69191 11.1978 9.91084 9.74805C9.6209 10.7835 9.45523 11.9019 9.45523 13.0617C9.45523 13.3516 9.45522 13.6415 9.49664 13.9315C6.59724 15.3398 4.60908 18.2806 4.60908 21.677C4.60908 25.0735 6.59724 28.0557 9.49664 29.4226C10.615 29.9611 11.899 30.2924 13.2245 30.2924C15.7097 30.2924 17.9463 29.2155 19.5203 27.5173C20.1416 28.6356 20.9286 29.6711 21.8398 30.5409Z" fill="#949494"/>
<path d="M30.4548 30.251C30.4548 31.5764 30.1648 32.8605 29.585 33.9788C26.5613 33.7717 23.869 32.4877 21.8394 30.4995C20.9282 29.6297 20.1412 28.5942 19.5199 27.4758C19.1057 26.6889 18.7329 25.819 18.4844 24.9492C19.2714 25.1563 20.0998 25.322 20.9696 25.3634C21.2595 25.3634 21.5495 25.4048 21.8394 25.4048C22.1293 25.4048 22.4193 25.4048 22.7092 25.3634C23.082 26.1504 23.579 26.8545 24.1589 27.4758C25.6915 29.2155 27.9282 30.251 30.4548 30.251Z" fill="#949494"/>
<path d="M42.8411 21.6362C42.8411 27.3107 38.989 32.1154 33.7701 33.5651C34.06 32.5296 34.2257 31.4113 34.2257 30.2515C34.2257 29.9616 34.2257 29.6716 34.1843 29.4231C37.0837 28.0148 39.0718 25.074 39.0718 21.6776C39.0718 18.2811 37.0837 15.2989 34.1843 13.932C33.0659 13.3936 31.7819 13.0622 30.4565 13.0622C27.9713 13.0622 25.7346 14.1391 24.1606 15.8373C23.5807 16.4586 23.0837 17.1628 22.7109 17.9498C22.1725 19.0681 21.8411 20.3521 21.8411 21.6776C20.5156 21.6776 19.2316 21.3876 18.1133 20.8077C18.1547 19.9793 18.3204 19.1509 18.5275 18.3225C18.776 17.4527 19.1074 16.5829 19.563 15.7959C20.1843 14.6776 20.9713 13.6421 21.8825 12.7723C23.9121 10.7841 26.6458 9.50006 29.6281 9.33438C29.918 9.33438 30.208 9.29297 30.4979 9.29297C31.6577 9.29297 32.776 9.45864 33.8115 9.74858C38.989 11.1569 42.8411 15.9616 42.8411 21.6362Z" fill="#949494"/>
<path d="M22.709 25.4044C23.0818 26.1914 23.5788 26.8956 24.1587 27.5169C24.5729 26.7299 24.9457 25.8601 25.1942 24.9902C24.4072 25.1973 23.5788 25.3216 22.709 25.4044Z" fill="#949494"/>
<path d="M25.6087 20.8073C24.4903 21.3458 23.2063 21.6772 21.8809 21.6772C21.8809 20.3517 22.1708 19.0677 22.7507 17.9493C23.1235 17.1624 23.6205 16.4582 24.2004 15.8369C24.6146 16.6239 24.9874 17.4937 25.2359 18.3635C25.4016 19.1091 25.5672 19.9375 25.6087 20.8073Z" fill="#949494"/>
<path d="M15.9992 23.9558C14.8808 23.3345 13.8453 22.589 12.9755 21.6777C11.8157 22.8789 10.9045 24.3286 10.2832 25.9026C11.2773 26.8138 12.3542 27.6008 13.514 28.2221C13.9282 26.5239 14.798 25.0742 15.9992 23.9558Z" fill="#949494"/>
<path d="M27.7227 23.9553C29.0067 25.115 29.9179 26.689 30.2907 28.4286C31.4505 27.8073 32.5688 27.0204 33.5629 26.1505C32.983 24.4523 31.9889 22.9198 30.7463 21.6357C29.8765 22.547 28.841 23.334 27.7227 23.9553Z" fill="#949494"/>
<path d="M24.1589 27.5169C23.579 26.8956 23.082 26.1914 22.7092 25.4044C22.4193 25.4044 22.1293 25.4459 21.8394 25.4459C21.5495 25.4459 21.2595 25.4459 20.9696 25.4044C20.0998 25.363 19.2714 25.1973 18.4844 24.9902C18.7329 25.8601 19.0643 26.7299 19.5199 27.5169C20.1412 28.6352 20.9282 29.6707 21.8394 30.5405C21.9637 30.6648 22.1293 30.789 22.2536 30.9133L24.8216 28.1796C24.6145 27.9725 24.4074 27.724 24.1589 27.5169Z" fill="#949494"/>
<path d="M19.563 15.7957C19.1488 16.5827 18.776 17.4525 18.5275 18.3223C18.3204 19.1093 18.1547 19.9377 18.1133 20.8075C19.2316 21.346 20.5156 21.6774 21.8411 21.6774C21.8411 20.3519 22.131 19.0679 22.7109 17.9495C22.918 17.5353 23.1251 17.1626 23.4151 16.7898L19.9358 15.2158C19.8115 15.3815 19.6872 15.5886 19.563 15.7957Z" fill="#949494"/>
<path d="M29.6277 9.29261C29.9176 9.29261 30.2075 9.25119 30.4975 9.25119C31.6572 9.25119 32.7756 9.41687 33.8111 9.70681C33.2726 7.76006 32.2371 5.979 30.9117 4.5293L26.3555 5.64763C27.7638 6.55887 28.9235 7.80148 29.6277 9.29261Z" fill="#949494"/>
<path d="M30.4975 13.0205C30.4975 14.9673 29.8762 16.7483 28.7578 18.198L32.3614 19.6063C33.3969 17.9495 34.0596 16.0027 34.2253 13.8903C33.1069 13.3519 31.8229 13.0205 30.4975 13.0205Z" fill="#949494"/>
<path d="M13.2246 13.0202C15.1714 13.0202 16.9938 13.6829 18.4435 14.7598C18.9406 13.7658 19.1891 12.606 19.1891 11.4048C19.1891 11.1563 19.1891 10.9492 19.1477 10.7421C17.6151 9.9137 15.9169 9.37524 14.0944 9.25098C13.556 10.4107 13.2246 11.6948 13.2246 13.0202Z" fill="#949494"/>
<path d="M9.49682 13.8905C9.49682 13.6005 9.4554 13.3106 9.4554 13.0206C9.4554 11.8609 9.62108 10.7425 9.91102 9.70703C7.50865 10.3698 5.39623 11.778 3.82227 13.6005C4.19505 14.926 4.94061 16.1271 5.93469 17.0798C6.80452 15.7129 8.00569 14.5946 9.49682 13.8905Z" fill="#949494"/>
<path d="M13.2669 30.2509C13.2669 28.3041 13.9296 26.523 15.0065 25.0733C13.9296 24.4935 12.687 24.1621 11.403 24.1621C11.3201 24.1621 11.1959 24.1621 11.113 24.1621C10.2432 25.7361 9.66332 27.5171 9.53906 29.381C10.6574 29.9609 11.9414 30.2509 13.2669 30.2509Z" fill="#949494"/>
<path d="M14.0936 33.9787C13.8036 33.9787 13.5137 34.0201 13.2238 34.0201C12.064 34.0201 10.9457 33.8544 9.91016 33.5645C10.49 35.6769 11.6498 37.5822 13.1823 39.1148C14.5078 38.7834 15.709 38.0792 16.6616 37.168C15.6261 36.3396 14.7149 35.2627 14.0936 33.9787Z" fill="#949494"/>
<path d="M23.6629 31.949C25.4026 33.1088 27.4322 33.8129 29.6274 33.9786C30.1659 32.8602 30.4973 31.5762 30.4973 30.2508C28.2606 30.2508 26.1896 29.3809 24.657 27.9727C24.0357 29.091 23.6629 30.375 23.6629 31.7419C23.6215 31.8247 23.6629 31.9076 23.6629 31.949Z" fill="#949494"/>
<path d="M34.2247 29.4229C34.2247 29.7128 34.2662 30.0027 34.2662 30.2513C34.2662 31.411 34.1005 32.5294 33.8105 33.5649C35.6745 33.0264 37.3727 32.0738 38.781 30.8312C38.6153 29.4229 38.0354 28.0974 37.207 27.0205C36.3786 28.0146 35.3845 28.843 34.2247 29.4229Z" fill="#949494"/>
</g>
<path d="M63.6426 30.1689L59.0645 14.1689H62.7598L65.4082 25.2861H65.541L68.4629 14.1689H71.627L74.541 25.3096H74.6816L77.3301 14.1689H81.0254L76.4473 30.1689H73.1504L70.1035 19.708H69.9785L66.9395 30.1689H63.6426ZM84.9063 30.3955C84.1406 30.3955 83.4583 30.2627 82.8594 29.9971C82.2604 29.7262 81.7865 29.3278 81.4375 28.8018C81.0938 28.2705 80.9219 27.609 80.9219 26.8174C80.9219 26.1507 81.0443 25.5908 81.2891 25.1377C81.5339 24.6846 81.8672 24.32 82.2891 24.0439C82.7109 23.7679 83.1901 23.5596 83.7266 23.4189C84.2682 23.2783 84.8359 23.1794 85.4297 23.1221C86.1276 23.0492 86.6901 22.9814 87.1172 22.9189C87.5443 22.8512 87.8542 22.7523 88.0469 22.6221C88.2396 22.4919 88.3359 22.2992 88.3359 22.0439V21.9971C88.3359 21.5023 88.1797 21.1195 87.8672 20.8486C87.5599 20.5778 87.1224 20.4424 86.5547 20.4424C85.9557 20.4424 85.4792 20.5752 85.125 20.8408C84.7708 21.1012 84.5365 21.4294 84.4219 21.8252L81.3438 21.5752C81.5 20.846 81.8073 20.2158 82.2656 19.6846C82.724 19.1481 83.3151 18.7367 84.0391 18.4502C84.7682 18.1585 85.612 18.0127 86.5703 18.0127C87.237 18.0127 87.875 18.0908 88.4844 18.2471C89.099 18.4033 89.6432 18.6455 90.1172 18.9736C90.5964 19.3018 90.974 19.7236 91.25 20.2393C91.526 20.7497 91.6641 21.3617 91.6641 22.0752V30.1689H88.5078V28.5049H88.4141C88.2214 28.8799 87.9635 29.2106 87.6406 29.4971C87.3177 29.7783 86.9297 29.9997 86.4766 30.1611C86.0234 30.3174 85.5 30.3955 84.9063 30.3955ZM85.8594 28.0986C86.349 28.0986 86.7813 28.0023 87.1562 27.8096C87.5312 27.6117 87.8255 27.346 88.0391 27.0127C88.2526 26.6794 88.3594 26.3018 88.3594 25.8799V24.6064C88.2552 24.6742 88.112 24.7367 87.9297 24.7939C87.7526 24.846 87.5521 24.8955 87.3281 24.9424C87.1042 24.984 86.8802 25.0231 86.6563 25.0596C86.4323 25.0908 86.2292 25.1195 86.0469 25.1455C85.6563 25.2028 85.3151 25.2939 85.0234 25.4189C84.7318 25.5439 84.5052 25.7132 84.3438 25.9268C84.1823 26.1351 84.1016 26.3955 84.1016 26.708C84.1016 27.1611 84.2656 27.5075 84.5938 27.7471C84.9271 27.9814 85.349 28.0986 85.8594 28.0986ZM100.629 18.1689V20.6689H93.4023V18.1689H100.629ZM95.043 15.2939H98.3711V26.4814C98.3711 26.7887 98.418 27.0283 98.5117 27.2002C98.6055 27.3669 98.7357 27.484 98.9023 27.5518C99.0742 27.6195 99.2721 27.6533 99.4961 27.6533C99.6523 27.6533 99.8086 27.6403 99.9648 27.6143C100.121 27.583 100.241 27.5596 100.324 27.5439L100.848 30.0205C100.681 30.0726 100.447 30.1325 100.145 30.2002C99.8424 30.2731 99.4753 30.3174 99.043 30.333C98.2409 30.3643 97.5378 30.2575 96.9336 30.0127C96.3346 29.7679 95.8685 29.3877 95.5352 28.8721C95.2018 28.3564 95.0378 27.7054 95.043 26.9189V15.2939ZM108.137 30.4033C106.902 30.4033 105.84 30.1533 104.949 29.6533C104.064 29.1481 103.382 28.4346 102.902 27.5127C102.423 26.5856 102.184 25.4893 102.184 24.2236C102.184 22.9893 102.423 21.9059 102.902 20.9736C103.382 20.0413 104.056 19.3148 104.926 18.7939C105.801 18.2731 106.827 18.0127 108.004 18.0127C108.796 18.0127 109.533 18.1403 110.215 18.3955C110.902 18.6455 111.501 19.0231 112.012 19.5283C112.527 20.0335 112.928 20.6689 113.215 21.4346C113.501 22.195 113.645 23.0856 113.645 24.1064V25.0205H103.512V22.958H110.512C110.512 22.4788 110.408 22.0544 110.199 21.6846C109.991 21.3148 109.702 21.0257 109.332 20.8174C108.967 20.6038 108.543 20.4971 108.059 20.4971C107.553 20.4971 107.105 20.6143 106.715 20.8486C106.329 21.0778 106.027 21.3877 105.809 21.7783C105.59 22.1637 105.478 22.5934 105.473 23.0674V25.0283C105.473 25.6221 105.582 26.1351 105.801 26.5674C106.025 26.9997 106.34 27.333 106.746 27.5674C107.152 27.8018 107.634 27.9189 108.191 27.9189C108.561 27.9189 108.9 27.8669 109.207 27.7627C109.514 27.6585 109.777 27.5023 109.996 27.2939C110.215 27.0856 110.382 26.8304 110.496 26.5283L113.574 26.7314C113.418 27.471 113.098 28.1169 112.613 28.6689C112.134 29.2158 111.514 29.6429 110.754 29.9502C109.999 30.2523 109.126 30.4033 108.137 30.4033ZM115.816 30.1689V18.1689H119.043V20.2627H119.168C119.387 19.5179 119.754 18.9554 120.27 18.5752C120.785 18.1898 121.379 17.9971 122.051 17.9971C122.217 17.9971 122.397 18.0075 122.59 18.0283C122.783 18.0492 122.952 18.0778 123.098 18.1143V21.0674C122.941 21.0205 122.725 20.9788 122.449 20.9424C122.173 20.9059 121.921 20.8877 121.691 20.8877C121.202 20.8877 120.764 20.9945 120.379 21.208C119.999 21.4163 119.697 21.708 119.473 22.083C119.254 22.458 119.145 22.8903 119.145 23.3799V30.1689H115.816ZM133.574 30.1689L128.996 14.1689H132.691L135.34 25.2861H135.473L138.395 14.1689H141.559L144.473 25.3096H144.613L147.262 14.1689H150.957L146.379 30.1689H143.082L140.035 19.708H139.91L136.871 30.1689H133.574ZM152.705 30.1689V18.1689H156.033V30.1689H152.705ZM154.377 16.6221C153.882 16.6221 153.458 16.458 153.104 16.1299C152.755 15.7965 152.58 15.3981 152.58 14.9346C152.58 14.4762 152.755 14.083 153.104 13.7549C153.458 13.4215 153.882 13.2549 154.377 13.2549C154.872 13.2549 155.294 13.4215 155.643 13.7549C155.997 14.083 156.174 14.4762 156.174 14.9346C156.174 15.3981 155.997 15.7965 155.643 16.1299C155.294 16.458 154.872 16.6221 154.377 16.6221ZM164.105 34.9189C163.027 34.9189 162.103 34.7705 161.332 34.4736C160.566 34.182 159.957 33.7835 159.504 33.2783C159.051 32.7731 158.757 32.2054 158.621 31.5752L161.699 31.1611C161.793 31.4007 161.941 31.6247 162.145 31.833C162.348 32.0413 162.616 32.208 162.949 32.333C163.288 32.4632 163.699 32.5283 164.184 32.5283C164.908 32.5283 165.504 32.3512 165.973 31.9971C166.447 31.6481 166.684 31.0622 166.684 30.2393V28.0439H166.543C166.397 28.3773 166.178 28.6924 165.887 28.9893C165.595 29.2861 165.22 29.5283 164.762 29.7158C164.303 29.9033 163.757 29.9971 163.121 29.9971C162.22 29.9971 161.4 29.7887 160.66 29.3721C159.926 28.9502 159.34 28.307 158.902 27.4424C158.47 26.5726 158.254 25.4736 158.254 24.1455C158.254 22.7861 158.475 21.6507 158.918 20.7393C159.361 19.8278 159.949 19.1455 160.684 18.6924C161.423 18.2393 162.233 18.0127 163.113 18.0127C163.785 18.0127 164.348 18.1273 164.801 18.3564C165.254 18.5804 165.618 18.8617 165.895 19.2002C166.176 19.5335 166.392 19.8617 166.543 20.1846H166.668V18.1689H169.973V30.2861C169.973 31.307 169.723 32.1611 169.223 32.8486C168.723 33.5361 168.03 34.0518 167.145 34.3955C166.264 34.7445 165.251 34.9189 164.105 34.9189ZM164.176 27.4971C164.712 27.4971 165.165 27.3643 165.535 27.0986C165.91 26.8278 166.197 26.4424 166.395 25.9424C166.598 25.4372 166.699 24.833 166.699 24.1299C166.699 23.4268 166.6 22.8174 166.402 22.3018C166.204 21.7809 165.918 21.3773 165.543 21.0908C165.168 20.8044 164.712 20.6611 164.176 20.6611C163.629 20.6611 163.168 20.8096 162.793 21.1064C162.418 21.3981 162.134 21.8044 161.941 22.3252C161.749 22.846 161.652 23.4476 161.652 24.1299C161.652 24.8226 161.749 25.4215 161.941 25.9268C162.139 26.4268 162.423 26.8148 162.793 27.0908C163.168 27.3617 163.629 27.4971 164.176 27.4971Z" fill="#949494"/>
</svg>
