<svg width="188" height="43" viewBox="0 0 188 43" fill="none" xmlns="http://www.w3.org/2000/svg">
<g opacity="0.6">
<path d="M41.7986 21.2819L34.8327 28.299L31.401 24.816L34.884 21.2819L31.401 17.799L27.9181 14.316L20.9522 7.35018L6.96932 21.2819L20.9522 35.2648L27.9181 28.299L31.401 31.7307L20.9522 42.1794L0.0546875 21.2819L20.9522 0.435547L31.401 10.8331L34.8327 14.316L41.7986 21.2819Z" fill="#949494"/>
<path d="M62.697 21.0768L41.7995 41.9744L31.4019 31.5256L27.919 28.0939L20.9531 21.0768L27.919 14.111L31.4019 17.5939L27.8678 21.0768L31.4019 24.611L41.7995 35.0597L55.7824 21.0768L41.7995 7.1451L34.8336 14.111L31.4019 10.628L41.7995 0.230469L62.697 21.0768Z" fill="#949494"/>
<g opacity="0.3">
<path d="M29.6599 26.6087L31.4014 28.3502L33.1429 30.0917L41.8502 38.799L59.2648 21.3844L41.8502 3.96973L33.1429 12.677L34.8843 14.4185L41.8502 7.40142L55.7819 21.3844L41.8502 35.3161L34.8843 28.3502L33.1429 26.6087L31.4014 24.8673L27.8672 21.3844L31.4014 17.8502L29.6599 16.1087L24.4355 21.3844L29.6599 26.6087Z" fill="#949494"/>
<path d="M34.884 14.418L33.1425 12.6766L31.401 10.9351L20.9522 0.486328L0.0546875 21.3839L20.9522 42.2302L31.401 31.8327L29.6596 30.0912L20.9522 38.7985L3.53761 21.3839L20.9522 3.96926L29.6596 12.6766L31.401 14.3668L33.1425 16.1083L38.3669 21.3839L33.1425 26.6083L34.884 28.3498L41.8498 21.3839L34.884 14.418Z" fill="#949494"/>
<path d="M33.142 16.1087L31.4005 14.3673L29.6591 12.677L20.9517 3.96973L3.53711 21.3844L20.9517 38.799L29.6591 30.0917L27.9176 28.3502L20.9517 35.3161L7.02005 21.3844L20.9517 7.40142L27.9176 14.3673L29.6591 16.1087L31.4005 17.8502L34.9347 21.3844L31.4005 24.8673L33.142 26.6087L38.3664 21.3844L33.142 16.1087Z" fill="#949494"/>
<path d="M41.8507 0.486328L31.4019 10.9351L33.1434 12.6766L41.8507 3.96926L59.2653 21.3839L41.8507 38.7985L33.1434 30.0912L31.4019 28.3498L29.6604 26.6083L24.4361 21.3839L29.6604 16.1083L27.919 14.3668L20.9531 21.3839L27.919 28.3498L31.4019 31.8327L41.8507 42.2302L62.7483 21.3839L41.8507 0.486328Z" fill="#949494"/>
</g>
<path d="M31.4021 17.7993L27.9192 14.3164L23.668 18.5676L28.0729 21.0774L31.4021 17.7993Z" fill="#949494"/>
<path d="M31.4004 10.8331L34.8833 14.316L40.3638 8.83557C39.4419 7.91362 38.0077 6.58191 36.8296 5.45508L31.4004 10.8331Z" fill="#949494"/>
<path d="M31.4017 31.7305L27.9188 28.2988L23.2578 32.9598L26.6895 36.4427L31.4017 31.7305Z" fill="#949494"/>
<path d="M34.8321 28.2985L38.1614 24.918L34.2687 21.9473L31.4004 24.8155L34.8321 28.2985Z" fill="#949494"/>
</g>
<path d="M82.6074 14.1699V30.1699H79.6855L72.7246 20.0996H72.6074V30.1699H69.2246V14.1699H72.1934L79.0996 24.2324H79.2402V14.1699H82.6074ZM85.4023 30.1699V14.1699H95.9961V16.959H88.7852V20.7715H95.293V23.5605H88.7852V30.1699H85.4023ZM97.6621 16.959V14.1699H110.803V16.959H105.904V30.1699H102.561V16.959H97.6621ZM126.738 18.7715C126.676 18.1413 126.408 17.6517 125.934 17.3027C125.46 16.9538 124.816 16.7793 124.004 16.7793C123.452 16.7793 122.986 16.8574 122.605 17.0137C122.225 17.1647 121.934 17.3757 121.73 17.6465C121.533 17.9173 121.434 18.2246 121.434 18.5684C121.423 18.8548 121.483 19.1048 121.613 19.3184C121.749 19.5319 121.934 19.7168 122.168 19.873C122.402 20.0241 122.673 20.1569 122.98 20.2715C123.288 20.3809 123.616 20.4746 123.965 20.5527L125.402 20.8965C126.1 21.0527 126.741 21.2611 127.324 21.5215C127.908 21.7819 128.413 22.1022 128.84 22.4824C129.267 22.8626 129.598 23.3105 129.832 23.8262C130.072 24.3418 130.194 24.9329 130.199 25.5996C130.194 26.5788 129.944 27.4277 129.449 28.1465C128.96 28.86 128.251 29.4147 127.324 29.8105C126.402 30.2012 125.29 30.3965 123.988 30.3965C122.697 30.3965 121.572 30.1986 120.613 29.8027C119.66 29.4069 118.915 28.821 118.379 28.0449C117.848 27.2637 117.569 26.2975 117.543 25.1465H120.816C120.853 25.6829 121.007 26.1309 121.277 26.4902C121.553 26.8444 121.921 27.1126 122.379 27.2949C122.842 27.472 123.366 27.5605 123.949 27.5605C124.522 27.5605 125.02 27.4772 125.441 27.3105C125.868 27.1439 126.199 26.9121 126.434 26.6152C126.668 26.3184 126.785 25.9772 126.785 25.5918C126.785 25.2324 126.678 24.9303 126.465 24.6855C126.257 24.4408 125.949 24.2324 125.543 24.0605C125.142 23.8887 124.65 23.7324 124.066 23.5918L122.324 23.1543C120.975 22.8262 119.91 22.3132 119.129 21.6152C118.348 20.9173 117.96 19.9772 117.965 18.7949C117.96 17.8262 118.217 16.9798 118.738 16.2559C119.264 15.5319 119.986 14.9668 120.902 14.5605C121.819 14.1543 122.861 13.9512 124.027 13.9512C125.215 13.9512 126.251 14.1543 127.137 14.5605C128.027 14.9668 128.72 15.5319 129.215 16.2559C129.71 16.9798 129.965 17.8184 129.98 18.7715H126.738ZM137.881 30.4043C136.646 30.4043 135.584 30.1543 134.693 29.6543C133.808 29.1491 133.126 28.4355 132.646 27.5137C132.167 26.5866 131.928 25.4902 131.928 24.2246C131.928 22.9902 132.167 21.9069 132.646 20.9746C133.126 20.0423 133.8 19.3158 134.67 18.7949C135.545 18.2741 136.571 18.0137 137.748 18.0137C138.54 18.0137 139.277 18.1413 139.959 18.3965C140.646 18.6465 141.245 19.0241 141.756 19.5293C142.271 20.0345 142.673 20.6699 142.959 21.4355C143.245 22.196 143.389 23.0866 143.389 24.1074V25.0215H133.256V22.959H140.256C140.256 22.4798 140.152 22.0553 139.943 21.6855C139.735 21.3158 139.446 21.0267 139.076 20.8184C138.712 20.6048 138.287 20.498 137.803 20.498C137.298 20.498 136.85 20.6152 136.459 20.8496C136.074 21.0788 135.771 21.3887 135.553 21.7793C135.334 22.1647 135.222 22.5944 135.217 23.0684V25.0293C135.217 25.623 135.326 26.1361 135.545 26.5684C135.769 27.0007 136.084 27.334 136.49 27.5684C136.896 27.8027 137.378 27.9199 137.936 27.9199C138.305 27.9199 138.644 27.8678 138.951 27.7637C139.258 27.6595 139.521 27.5033 139.74 27.2949C139.959 27.0866 140.126 26.8314 140.24 26.5293L143.318 26.7324C143.162 27.472 142.842 28.1178 142.357 28.6699C141.878 29.2168 141.258 29.6439 140.498 29.9512C139.743 30.2533 138.87 30.4043 137.881 30.4043ZM150.982 30.4043C149.753 30.4043 148.696 30.1439 147.811 29.623C146.93 29.097 146.253 28.3678 145.779 27.4355C145.311 26.5033 145.076 25.4303 145.076 24.2168C145.076 22.9876 145.313 21.9095 145.787 20.9824C146.266 20.0501 146.946 19.3236 147.826 18.8027C148.706 18.2767 149.753 18.0137 150.967 18.0137C152.014 18.0137 152.93 18.2038 153.717 18.584C154.503 18.9642 155.126 19.498 155.584 20.1855C156.042 20.873 156.295 21.6803 156.342 22.6074H153.201C153.113 22.0085 152.878 21.5267 152.498 21.1621C152.123 20.7923 151.631 20.6074 151.021 20.6074C150.506 20.6074 150.055 20.748 149.67 21.0293C149.29 21.3053 148.993 21.709 148.779 22.2402C148.566 22.7715 148.459 23.4147 148.459 24.1699C148.459 24.9355 148.563 25.5866 148.771 26.123C148.985 26.6595 149.285 27.0684 149.67 27.3496C150.055 27.6309 150.506 27.7715 151.021 27.7715C151.402 27.7715 151.743 27.6934 152.045 27.5371C152.352 27.3809 152.605 27.1543 152.803 26.8574C153.006 26.5553 153.139 26.1934 153.201 25.7715H156.342C156.29 26.6882 156.04 27.4954 155.592 28.1934C155.149 28.8861 154.537 29.4277 153.756 29.8184C152.975 30.209 152.05 30.4043 150.982 30.4043ZM158.473 30.1699V18.1699H161.699V20.2637H161.824C162.043 19.5189 162.41 18.9564 162.926 18.5762C163.441 18.1908 164.035 17.998 164.707 17.998C164.874 17.998 165.053 18.0085 165.246 18.0293C165.439 18.0501 165.608 18.0788 165.754 18.1152V21.0684C165.598 21.0215 165.382 20.9798 165.105 20.9434C164.829 20.9069 164.577 20.8887 164.348 20.8887C163.858 20.8887 163.421 20.9954 163.035 21.209C162.655 21.4173 162.353 21.709 162.129 22.084C161.91 22.459 161.801 22.8913 161.801 23.3809V30.1699H158.473ZM172.385 30.4043C171.15 30.4043 170.088 30.1543 169.197 29.6543C168.312 29.1491 167.63 28.4355 167.15 27.5137C166.671 26.5866 166.432 25.4902 166.432 24.2246C166.432 22.9902 166.671 21.9069 167.15 20.9746C167.63 20.0423 168.304 19.3158 169.174 18.7949C170.049 18.2741 171.075 18.0137 172.252 18.0137C173.044 18.0137 173.781 18.1413 174.463 18.3965C175.15 18.6465 175.749 19.0241 176.26 19.5293C176.775 20.0345 177.176 20.6699 177.463 21.4355C177.749 22.196 177.893 23.0866 177.893 24.1074V25.0215H167.76V22.959H174.76C174.76 22.4798 174.656 22.0553 174.447 21.6855C174.239 21.3158 173.95 21.0267 173.58 20.8184C173.215 20.6048 172.791 20.498 172.307 20.498C171.801 20.498 171.354 20.6152 170.963 20.8496C170.577 21.0788 170.275 21.3887 170.057 21.7793C169.838 22.1647 169.726 22.5944 169.721 23.0684V25.0293C169.721 25.623 169.83 26.1361 170.049 26.5684C170.273 27.0007 170.588 27.334 170.994 27.5684C171.4 27.8027 171.882 27.9199 172.439 27.9199C172.809 27.9199 173.148 27.8678 173.455 27.7637C173.762 27.6595 174.025 27.5033 174.244 27.2949C174.463 27.0866 174.63 26.8314 174.744 26.5293L177.822 26.7324C177.666 27.472 177.346 28.1178 176.861 28.6699C176.382 29.2168 175.762 29.6439 175.002 29.9512C174.247 30.2533 173.374 30.4043 172.385 30.4043ZM186.447 18.1699V20.6699H179.221V18.1699H186.447ZM180.861 15.2949H184.189V26.4824C184.189 26.7897 184.236 27.0293 184.33 27.2012C184.424 27.3678 184.554 27.485 184.721 27.5527C184.893 27.6204 185.09 27.6543 185.314 27.6543C185.471 27.6543 185.627 27.6413 185.783 27.6152C185.939 27.584 186.059 27.5605 186.143 27.5449L186.666 30.0215C186.499 30.0736 186.265 30.1335 185.963 30.2012C185.661 30.2741 185.294 30.3184 184.861 30.334C184.059 30.3652 183.356 30.2585 182.752 30.0137C182.153 29.7689 181.687 29.3887 181.354 28.873C181.02 28.3574 180.856 27.7064 180.861 26.9199V15.2949Z" fill="#949494"/>
</svg>
