<svg width="187" height="43" viewBox="0 0 187 43" fill="none" xmlns="http://www.w3.org/2000/svg">
<g opacity="0.6">
<path d="M30.6744 34.5915L32.4704 36.3874L28.9298 39.928C25.0813 43.7766 18.8211 43.7766 14.9726 39.928L3.83755 28.7931C-0.0109535 24.9446 -0.0109535 18.6843 3.83755 14.8358L7.37818 11.2952L10.303 14.2201C11.3293 15.2463 12.7661 15.7595 14.2542 15.7082C14.8186 15.7082 15.4857 15.8108 16.1528 16.016C18.3079 16.6831 20.9762 18.3251 23.4393 20.7882C25.9023 23.2512 27.5443 25.9195 28.2114 28.0747C28.3653 28.6904 28.4679 29.2549 28.5193 29.7167C28.5706 31.564 29.3916 33.3086 30.6744 34.5915ZM18.2053 11.6544C20.5657 11.5005 24.2089 13.399 27.493 16.6831C30.5718 19.7619 32.4191 23.1486 32.573 25.509C32.6757 27.3563 33.394 29.1009 34.6769 30.4351L36.5755 32.3337L40.1161 28.7931C43.9646 24.9446 43.9646 18.6843 40.1161 14.8358L28.9811 3.70083C25.1326 -0.147672 18.8724 -0.147672 15.0239 3.70083L11.4832 7.24146L14.3568 10.115C15.3831 11.1926 16.7685 11.757 18.2053 11.6544Z" fill="#949494"/>
<path d="M28.5193 29.7164C28.5193 29.2033 28.4166 28.6388 28.2114 28.0744C27.5443 25.9192 25.9023 23.2509 23.4393 20.7879C20.9762 18.3249 18.3079 16.6828 16.1528 16.0158C15.4344 15.8105 14.8186 15.7079 14.2542 15.7079C12.7661 15.7592 11.3806 15.2461 10.303 14.2198L7.37818 11.2949L3.83755 14.8356C-0.0109535 18.6841 -0.0109535 24.9443 3.83755 28.7928L14.9726 39.9278C18.8211 43.7763 25.0813 43.7763 28.9298 39.9278L32.4704 36.3872L30.6744 34.5912C29.3916 33.3084 28.5706 31.5637 28.5193 29.7164Z" fill="#949494"/>
</g>
<path d="M63.0078 30.1689L58.4297 14.1689H62.125L64.7734 25.2861H64.9063L67.8281 14.1689H70.9922L73.9063 25.3096H74.0469L76.6953 14.1689H80.3906L75.8125 30.1689H72.5156L69.4688 19.708H69.3438L66.3047 30.1689H63.0078ZM86.2715 30.4033C85.0579 30.4033 84.0085 30.1455 83.123 29.6299C82.2428 29.109 81.5632 28.3851 81.084 27.458C80.6048 26.5257 80.3652 25.445 80.3652 24.2158C80.3652 22.9762 80.6048 21.8929 81.084 20.9658C81.5632 20.0335 82.2428 19.3096 83.123 18.7939C84.0085 18.2731 85.0579 18.0127 86.2715 18.0127C87.485 18.0127 88.5319 18.2731 89.4121 18.7939C90.2975 19.3096 90.9798 20.0335 91.459 20.9658C91.9382 21.8929 92.1777 22.9762 92.1777 24.2158C92.1777 25.445 91.9382 26.5257 91.459 27.458C90.9798 28.3851 90.2975 29.109 89.4121 29.6299C88.5319 30.1455 87.485 30.4033 86.2715 30.4033ZM86.2871 27.8252C86.8392 27.8252 87.3001 27.6689 87.6699 27.3564C88.0397 27.0387 88.3184 26.6064 88.5059 26.0596C88.6986 25.5127 88.7949 24.8903 88.7949 24.1924C88.7949 23.4945 88.6986 22.8721 88.5059 22.3252C88.3184 21.7783 88.0397 21.346 87.6699 21.0283C87.3001 20.7106 86.8392 20.5518 86.2871 20.5518C85.7298 20.5518 85.2611 20.7106 84.8809 21.0283C84.5059 21.346 84.222 21.7783 84.0293 22.3252C83.8418 22.8721 83.748 23.4945 83.748 24.1924C83.748 24.8903 83.8418 25.5127 84.0293 26.0596C84.222 26.6064 84.5059 27.0387 84.8809 27.3564C85.2611 27.6689 85.7298 27.8252 86.2871 27.8252ZM103.098 30.1689L98.5195 14.1689H102.215L104.863 25.2861H104.996L107.918 14.1689H111.082L113.996 25.3096H114.137L116.785 14.1689H120.48L115.902 30.1689H112.605L109.559 19.708H109.434L106.395 30.1689H103.098ZM126.361 30.4033C125.148 30.4033 124.098 30.1455 123.213 29.6299C122.333 29.109 121.653 28.3851 121.174 27.458C120.695 26.5257 120.455 25.445 120.455 24.2158C120.455 22.9762 120.695 21.8929 121.174 20.9658C121.653 20.0335 122.333 19.3096 123.213 18.7939C124.098 18.2731 125.148 18.0127 126.361 18.0127C127.575 18.0127 128.622 18.2731 129.502 18.7939C130.387 19.3096 131.07 20.0335 131.549 20.9658C132.028 21.8929 132.268 22.9762 132.268 24.2158C132.268 25.445 132.028 26.5257 131.549 27.458C131.07 28.3851 130.387 29.109 129.502 29.6299C128.622 30.1455 127.575 30.4033 126.361 30.4033ZM126.377 27.8252C126.929 27.8252 127.39 27.6689 127.76 27.3564C128.13 27.0387 128.408 26.6064 128.596 26.0596C128.788 25.5127 128.885 24.8903 128.885 24.1924C128.885 23.4945 128.788 22.8721 128.596 22.3252C128.408 21.7783 128.13 21.346 127.76 21.0283C127.39 20.7106 126.929 20.5518 126.377 20.5518C125.82 20.5518 125.351 20.7106 124.971 21.0283C124.596 21.346 124.312 21.7783 124.119 22.3252C123.932 22.8721 123.838 23.4945 123.838 24.1924C123.838 24.8903 123.932 25.5127 124.119 26.0596C124.312 26.6064 124.596 27.0387 124.971 27.3564C125.351 27.6689 125.82 27.8252 126.377 27.8252ZM134.432 30.1689V18.1689H137.658V20.2627H137.783C138.002 19.5179 138.369 18.9554 138.885 18.5752C139.4 18.1898 139.994 17.9971 140.666 17.9971C140.833 17.9971 141.012 18.0075 141.205 18.0283C141.398 18.0492 141.567 18.0778 141.713 18.1143V21.0674C141.557 21.0205 141.34 20.9788 141.064 20.9424C140.788 20.9059 140.536 20.8877 140.307 20.8877C139.817 20.8877 139.38 20.9945 138.994 21.208C138.614 21.4163 138.312 21.708 138.088 22.083C137.869 22.458 137.76 22.8903 137.76 23.3799V30.1689H134.432ZM146.762 14.1689V30.1689H143.434V14.1689H146.762ZM153.85 30.3643C152.938 30.3643 152.113 30.1299 151.373 29.6611C150.639 29.1872 150.055 28.4919 149.623 27.5752C149.196 26.6533 148.982 25.5231 148.982 24.1846C148.982 22.8096 149.204 21.6663 149.646 20.7549C150.089 19.8382 150.678 19.1533 151.412 18.7002C152.152 18.2419 152.962 18.0127 153.842 18.0127C154.514 18.0127 155.074 18.1273 155.521 18.3564C155.975 18.5804 156.339 18.8617 156.615 19.2002C156.896 19.5335 157.11 19.8617 157.256 20.1846H157.357V14.1689H160.678V30.1689H157.396V28.2471H157.256C157.1 28.5804 156.878 28.9111 156.592 29.2393C156.311 29.5622 155.943 29.8304 155.49 30.0439C155.042 30.2575 154.495 30.3643 153.85 30.3643ZM154.904 27.7158C155.441 27.7158 155.894 27.57 156.264 27.2783C156.639 26.9814 156.925 26.5674 157.123 26.0361C157.326 25.5049 157.428 24.8825 157.428 24.1689C157.428 23.4554 157.329 22.8356 157.131 22.3096C156.933 21.7835 156.646 21.3773 156.271 21.0908C155.896 20.8044 155.441 20.6611 154.904 20.6611C154.357 20.6611 153.896 20.8096 153.521 21.1064C153.146 21.4033 152.863 21.8148 152.67 22.3408C152.477 22.8669 152.381 23.4762 152.381 24.1689C152.381 24.8669 152.477 25.484 152.67 26.0205C152.868 26.5518 153.152 26.9684 153.521 27.2705C153.896 27.5674 154.357 27.7158 154.904 27.7158Z" fill="#949494"/>
</svg>
