<svg width="154" height="43" viewBox="0 0 154 43" fill="none" xmlns="http://www.w3.org/2000/svg">
<g>
<g opacity="0.6">
<path d="M2.87606 21.7659C3.52139 20.8516 4.27428 20.045 5.13472 19.2921L7.87738 17.0334L16.5356 9.77344C16.912 10.3112 17.3423 10.7952 17.88 11.2254L22.4511 15.0974L14.7609 21.497L9.97471 25.5303C9.54449 25.9067 9.16805 26.337 8.89916 26.821C7.8236 28.7032 8.03871 31.177 9.70582 32.7903C11.4805 34.565 14.3307 34.6187 16.3205 33.0592L22.4511 38.2218L21.3756 39.1361C16.0516 43.5996 8.03871 42.9543 3.46761 37.7378C-0.458161 33.1667 -0.511939 26.5521 2.87606 21.7659Z" fill="#949494"/>
<path d="M22.4512 4.82612L27.9903 0.147461C30.3565 2.9439 30.4103 6.92345 28.3667 9.77367L22.4512 4.82612Z" fill="#949494"/>
<path d="M22.4512 27.951L30.0876 21.4977L33.368 18.755C34.4436 17.8408 35.7343 17.2492 37.0787 17.0341C39.7676 16.5501 42.6178 17.4644 44.5 19.723L42.08 21.7666L36.0569 26.8217L28.5818 33.0599C28.5281 33.0599 28.4743 33.0061 28.4743 33.0061L22.4512 27.951Z" fill="#949494"/>
<path d="M16.8577 0.147461L22.3968 4.82612L28.3123 9.82745L36.9705 17.0874C35.6799 17.3025 34.3892 17.8941 33.2599 18.8083L29.9794 21.551L22.4506 15.0977L17.8795 11.2257C17.3417 10.7954 16.9115 10.3114 16.535 9.77367C14.4377 6.92345 14.4915 2.9439 16.8577 0.147461Z" fill="#949494"/>
<path d="M8.89844 26.8748C9.16733 26.3908 9.54377 25.9606 9.97399 25.5841L14.7602 21.5508L22.3966 28.0041L28.4735 33.0054C28.5273 33.0592 28.5273 33.0592 28.5811 33.113C30.5171 34.6725 33.4211 34.6188 35.1957 32.8441C36.8628 31.2308 37.0779 28.757 36.0024 26.8748L42.0255 21.8197C45.3597 26.5521 45.3597 33.1668 41.3802 37.7379C36.8091 43.0081 28.85 43.6534 23.4722 39.1361L22.3966 38.2219L16.266 33.0592L8.89844 26.8748Z" fill="#949494"/>
<path d="M0.402344 19.723C2.28456 17.4644 5.13478 16.5501 7.82367 17.0341L5.081 19.2928C4.22056 20.0457 3.46767 20.8524 2.82234 21.7666L0.402344 19.723Z" fill="#949494"/>
</g>
</g>
<path d="M73.8613 13.3096V29.3096H70.9395L63.9785 19.2393H63.8613V29.3096H60.4785V13.3096H63.4473L70.3535 23.3721H70.4941V13.3096H73.8613ZM83.0469 17.3096V19.8096H75.6406V17.3096H83.0469ZM77.3359 29.3096V16.4424C77.3359 15.5726 77.5052 14.8512 77.8438 14.2783C78.1875 13.7054 78.6562 13.2757 79.25 12.9893C79.8438 12.7028 80.5182 12.5596 81.2734 12.5596C81.7839 12.5596 82.25 12.5986 82.6719 12.6768C83.099 12.7549 83.4167 12.8252 83.625 12.8877L83.0313 15.3877C82.901 15.346 82.7396 15.307 82.5469 15.2705C82.3594 15.234 82.1667 15.2158 81.9688 15.2158C81.4792 15.2158 81.138 15.3304 80.9453 15.5596C80.7526 15.7835 80.6563 16.0986 80.6563 16.5049V29.3096H77.3359ZM91.4629 17.3096V19.8096H84.2363V17.3096H91.4629ZM85.877 14.4346H89.2051V25.6221C89.2051 25.9294 89.252 26.1689 89.3457 26.3408C89.4395 26.5075 89.5697 26.6247 89.7363 26.6924C89.9082 26.7601 90.1061 26.7939 90.3301 26.7939C90.4863 26.7939 90.6426 26.7809 90.7988 26.7549C90.9551 26.7236 91.0749 26.7002 91.1582 26.6846L91.6816 29.1611C91.515 29.2132 91.2806 29.2731 90.9785 29.3408C90.6764 29.4137 90.3092 29.458 89.877 29.4736C89.0749 29.5049 88.3717 29.3981 87.7676 29.1533C87.1686 28.9085 86.7025 28.5283 86.3691 28.0127C86.0358 27.4971 85.8717 26.846 85.877 26.0596V14.4346ZM98.6133 29.3096V27.3018L106.598 16.0986H98.5977V13.3096H110.848V15.3174L102.855 26.5205H110.863V29.3096H98.6133ZM118.818 29.5439C117.605 29.5439 116.555 29.2861 115.67 28.7705C114.79 28.2497 114.11 27.5257 113.631 26.5986C113.152 25.6663 112.912 24.5856 112.912 23.3564C112.912 22.1169 113.152 21.0335 113.631 20.1064C114.11 19.1742 114.79 18.4502 115.67 17.9346C116.555 17.4137 117.605 17.1533 118.818 17.1533C120.032 17.1533 121.079 17.4137 121.959 17.9346C122.844 18.4502 123.527 19.1742 124.006 20.1064C124.485 21.0335 124.725 22.1169 124.725 23.3564C124.725 24.5856 124.485 25.6663 124.006 26.5986C123.527 27.5257 122.844 28.2497 121.959 28.7705C121.079 29.2861 120.032 29.5439 118.818 29.5439ZM118.834 26.9658C119.386 26.9658 119.847 26.8096 120.217 26.4971C120.587 26.1794 120.865 25.7471 121.053 25.2002C121.245 24.6533 121.342 24.0309 121.342 23.333C121.342 22.6351 121.245 22.0127 121.053 21.4658C120.865 20.9189 120.587 20.4867 120.217 20.1689C119.847 19.8512 119.386 19.6924 118.834 19.6924C118.277 19.6924 117.808 19.8512 117.428 20.1689C117.053 20.4867 116.769 20.9189 116.576 21.4658C116.389 22.0127 116.295 22.6351 116.295 23.333C116.295 24.0309 116.389 24.6533 116.576 25.2002C116.769 25.7471 117.053 26.1794 117.428 26.4971C117.808 26.8096 118.277 26.9658 118.834 26.9658ZM130.217 22.3721V29.3096H126.889V17.3096H130.061V19.4268H130.201C130.467 18.7288 130.912 18.1768 131.537 17.7705C132.162 17.359 132.92 17.1533 133.811 17.1533C134.644 17.1533 135.37 17.3356 135.99 17.7002C136.61 18.0648 137.092 18.5856 137.436 19.2627C137.779 19.9346 137.951 20.7367 137.951 21.6689V29.3096H134.623V22.2627C134.628 21.5283 134.441 20.9554 134.061 20.5439C133.68 20.1273 133.157 19.9189 132.49 19.9189C132.042 19.9189 131.646 20.0153 131.303 20.208C130.964 20.4007 130.699 20.682 130.506 21.0518C130.318 21.4163 130.222 21.8564 130.217 22.3721ZM146.043 29.5439C144.809 29.5439 143.746 29.2939 142.855 28.7939C141.97 28.2887 141.288 27.5752 140.809 26.6533C140.329 25.7262 140.09 24.6299 140.09 23.3643C140.09 22.1299 140.329 21.0465 140.809 20.1143C141.288 19.182 141.962 18.4554 142.832 17.9346C143.707 17.4137 144.733 17.1533 145.91 17.1533C146.702 17.1533 147.439 17.2809 148.121 17.5361C148.809 17.7861 149.408 18.1637 149.918 18.6689C150.434 19.1742 150.835 19.8096 151.121 20.5752C151.408 21.3356 151.551 22.2262 151.551 23.2471V24.1611H141.418V22.0986H148.418C148.418 21.6195 148.314 21.195 148.105 20.8252C147.897 20.4554 147.608 20.1663 147.238 19.958C146.874 19.7445 146.449 19.6377 145.965 19.6377C145.46 19.6377 145.012 19.7549 144.621 19.9893C144.236 20.2184 143.934 20.5283 143.715 20.9189C143.496 21.3044 143.384 21.734 143.379 22.208V24.1689C143.379 24.7627 143.488 25.2757 143.707 25.708C143.931 26.1403 144.246 26.4736 144.652 26.708C145.059 26.9424 145.54 27.0596 146.098 27.0596C146.467 27.0596 146.806 27.0075 147.113 26.9033C147.421 26.7992 147.684 26.6429 147.902 26.4346C148.121 26.2262 148.288 25.971 148.402 25.6689L151.48 25.8721C151.324 26.6117 151.004 27.2575 150.52 27.8096C150.04 28.3564 149.421 28.7835 148.66 29.0908C147.905 29.3929 147.033 29.5439 146.043 29.5439Z" fill="#949494"/>
</svg>
