<svg width="195" height="36" viewBox="0 0 195 36" fill="none" xmlns="http://www.w3.org/2000/svg">
<g opacity="0.6">
<path d="M41.0956 19.8081C41.0956 20.3252 40.8888 20.8422 40.4752 21.2558L31.0652 30.6658C24.0853 37.6457 12.7106 37.6457 5.73074 30.6658C2.37004 27.3051 0.457031 22.8069 0.457031 17.9985C0.457031 13.1902 2.31834 8.69199 5.73074 5.3313C9.09143 1.9706 13.5896 0.0576172 18.398 0.0576172C23.2064 0.0576172 27.7045 1.9189 31.0652 5.3313C31.8925 6.15855 31.8925 7.45114 31.0652 8.22669C30.238 9.05393 28.9454 9.05393 28.1698 8.22669C25.5847 5.64154 22.0689 4.19386 18.398 4.19386C14.7271 4.19386 11.263 5.64154 8.62611 8.22669C6.04096 10.8118 4.59327 14.3276 4.59327 17.9985C4.59327 21.6694 6.04096 25.1336 8.62611 27.7704C14.0032 33.1475 22.7927 33.1475 28.1698 27.7704L37.5798 18.3605C38.407 17.5332 39.6996 17.5332 40.4752 18.3605C40.8888 18.7741 41.0956 19.2911 41.0956 19.8081Z" fill="#949494"/>
<path d="M26.5669 11.8972C26.5669 12.4143 26.3601 12.9313 25.9465 13.3449C25.1192 14.1722 23.8267 14.1722 23.0511 13.3449C20.466 10.7598 16.278 10.7598 13.7446 13.3449C12.5037 14.5858 11.8316 16.2403 11.8316 17.9982C11.8316 19.7561 12.5037 21.4106 13.7446 22.6515C14.9854 23.8923 16.6399 24.5645 18.3978 24.5645C20.1557 24.5645 21.8102 23.8923 23.0511 22.6515C23.8784 21.8242 25.1709 21.8242 25.9465 22.6515C26.7737 23.4787 26.7737 24.7713 25.9465 25.5468C23.9301 27.5633 21.2415 28.7007 18.3978 28.7007C15.5542 28.7007 12.8656 27.5633 10.8492 25.5468C8.83277 23.5304 7.69531 20.8418 7.69531 17.9982C7.69531 15.1545 8.83277 12.466 10.8492 10.4496C15.0371 6.26161 21.8102 6.26161 25.9982 10.4496C26.4118 10.8632 26.5669 11.3802 26.5669 11.8972Z" fill="#949494"/>
<path d="M68.9628 17.9979C68.9628 22.8063 67.1015 27.3044 63.6891 30.6651C56.7092 37.645 45.3345 37.645 38.3546 30.6651C37.5274 29.8379 37.5274 28.5453 38.3546 27.7698C39.1819 26.9425 40.4744 26.9425 41.25 27.7698C46.6271 33.1469 55.4166 33.1469 60.7937 27.7698C63.3789 25.1846 64.8265 21.6688 64.8265 17.9979C64.8265 14.327 63.3789 10.8629 60.7937 8.22606C58.2086 5.64091 54.6928 4.19323 51.0218 4.19323C47.3509 4.19323 43.8868 5.64091 41.25 8.22606L31.84 17.6877C31.0128 18.5149 29.7202 18.5149 28.9447 17.6877C28.1174 16.8605 28.1174 15.5679 28.9447 14.7923L38.3546 5.38239C45.3345 -1.59752 56.7092 -1.59752 63.6891 5.38239C67.1015 8.74309 68.9628 13.2412 68.9628 17.9979Z" fill="#949494"/>
<path d="M61.7251 17.9982C61.7251 20.8418 60.5877 23.5304 58.5712 25.5468C56.5548 27.5633 53.8663 28.7007 51.0226 28.7007C48.1789 28.7007 45.4904 27.5633 43.474 25.5468C42.6467 24.7196 42.6467 23.427 43.474 22.6515C44.3012 21.8242 45.5938 21.8242 46.3693 22.6515C47.6102 23.8923 49.2647 24.5645 51.0226 24.5645C52.7805 24.5645 54.435 23.8923 55.6759 22.6515C56.9167 21.4106 57.5889 19.7561 57.5889 17.9982C57.5889 16.2403 56.9167 14.5858 55.6759 13.3449C53.0907 10.7598 48.9028 10.7598 46.3693 13.3449C45.5421 14.1722 44.2495 14.1722 43.474 13.3449C42.6467 12.5177 42.6467 11.2251 43.474 10.4496C47.6619 6.26161 54.435 6.26161 58.6229 10.4496C60.6393 12.466 61.7251 15.1545 61.7251 17.9982Z" fill="#949494"/>
</g>
<path d="M83.6602 26.3105V10.3105H90.0664C91.2435 10.3105 92.2253 10.485 93.0117 10.834C93.7982 11.1829 94.3893 11.6673 94.7852 12.2871C95.181 12.9017 95.3789 13.61 95.3789 14.4121C95.3789 15.0371 95.2539 15.5866 95.0039 16.0605C94.7539 16.5293 94.4102 16.9147 93.9727 17.2168C93.5404 17.5137 93.0456 17.7246 92.4883 17.8496V18.0059C93.0977 18.0319 93.668 18.2038 94.1992 18.5215C94.7357 18.8392 95.1706 19.2845 95.5039 19.8574C95.8372 20.4251 96.0039 21.1022 96.0039 21.8887C96.0039 22.7376 95.793 23.4954 95.3711 24.1621C94.9544 24.8236 94.3372 25.347 93.5195 25.7324C92.7018 26.1178 91.694 26.3105 90.4961 26.3105H83.6602ZM87.043 23.5449H89.8008C90.7435 23.5449 91.431 23.3652 91.8633 23.0059C92.2956 22.6413 92.5117 22.1569 92.5117 21.5527C92.5117 21.11 92.4049 20.7194 92.1914 20.3809C91.9779 20.0423 91.6732 19.7767 91.2773 19.584C90.8867 19.3913 90.4206 19.2949 89.8789 19.2949H87.043V23.5449ZM87.043 17.0059H89.5508C90.0143 17.0059 90.4258 16.9251 90.7852 16.7637C91.1497 16.597 91.4362 16.3626 91.6445 16.0605C91.8581 15.7585 91.9648 15.3965 91.9648 14.9746C91.9648 14.3965 91.7591 13.9303 91.3477 13.5762C90.9414 13.222 90.3633 13.0449 89.6133 13.0449H87.043V17.0059ZM103.611 26.5449C102.377 26.5449 101.314 26.2949 100.424 25.7949C99.5384 25.2897 98.8561 24.5762 98.377 23.6543C97.8978 22.7272 97.6582 21.6309 97.6582 20.3652C97.6582 19.1309 97.8978 18.0475 98.377 17.1152C98.8561 16.1829 99.5306 15.4564 100.4 14.9355C101.275 14.4147 102.301 14.1543 103.479 14.1543C104.27 14.1543 105.007 14.2819 105.689 14.5371C106.377 14.7871 106.976 15.1647 107.486 15.6699C108.002 16.1751 108.403 16.8105 108.689 17.5762C108.976 18.3366 109.119 19.2272 109.119 20.248V21.1621H98.9863V19.0996H105.986C105.986 18.6204 105.882 18.196 105.674 17.8262C105.465 17.4564 105.176 17.1673 104.807 16.959C104.442 16.7454 104.018 16.6387 103.533 16.6387C103.028 16.6387 102.58 16.7559 102.189 16.9902C101.804 17.2194 101.502 17.5293 101.283 17.9199C101.064 18.3053 100.952 18.735 100.947 19.209V21.1699C100.947 21.7637 101.057 22.2767 101.275 22.709C101.499 23.1413 101.814 23.4746 102.221 23.709C102.627 23.9434 103.109 24.0605 103.666 24.0605C104.036 24.0605 104.374 24.0085 104.682 23.9043C104.989 23.8001 105.252 23.6439 105.471 23.4355C105.689 23.2272 105.856 22.972 105.971 22.6699L109.049 22.873C108.893 23.6126 108.572 24.2585 108.088 24.8105C107.609 25.3574 106.989 25.7845 106.229 26.0918C105.473 26.3939 104.601 26.5449 103.611 26.5449ZM116.76 26.5449C115.525 26.5449 114.463 26.2949 113.572 25.7949C112.687 25.2897 112.005 24.5762 111.525 23.6543C111.046 22.7272 110.807 21.6309 110.807 20.3652C110.807 19.1309 111.046 18.0475 111.525 17.1152C112.005 16.1829 112.679 15.4564 113.549 14.9355C114.424 14.4147 115.45 14.1543 116.627 14.1543C117.419 14.1543 118.156 14.2819 118.838 14.5371C119.525 14.7871 120.124 15.1647 120.635 15.6699C121.15 16.1751 121.551 16.8105 121.838 17.5762C122.124 18.3366 122.268 19.2272 122.268 20.248V21.1621H112.135V19.0996H119.135C119.135 18.6204 119.031 18.196 118.822 17.8262C118.614 17.4564 118.325 17.1673 117.955 16.959C117.59 16.7454 117.166 16.6387 116.682 16.6387C116.176 16.6387 115.729 16.7559 115.338 16.9902C114.952 17.2194 114.65 17.5293 114.432 17.9199C114.213 18.3053 114.101 18.735 114.096 19.209V21.1699C114.096 21.7637 114.205 22.2767 114.424 22.709C114.648 23.1413 114.963 23.4746 115.369 23.709C115.775 23.9434 116.257 24.0605 116.814 24.0605C117.184 24.0605 117.523 24.0085 117.83 23.9043C118.137 23.8001 118.4 23.6439 118.619 23.4355C118.838 23.2272 119.005 22.972 119.119 22.6699L122.197 22.873C122.041 23.6126 121.721 24.2585 121.236 24.8105C120.757 25.3574 120.137 25.7845 119.377 26.0918C118.622 26.3939 117.749 26.5449 116.76 26.5449ZM128.984 13.0996V10.3105H142.125V13.0996H137.227V26.3105H133.883V13.0996H128.984ZM147.908 26.5449C146.695 26.5449 145.645 26.2871 144.76 25.7715C143.88 25.2507 143.2 24.5267 142.721 23.5996C142.242 22.6673 142.002 21.5866 142.002 20.3574C142.002 19.1178 142.242 18.0345 142.721 17.1074C143.2 16.1751 143.88 15.4512 144.76 14.9355C145.645 14.4147 146.695 14.1543 147.908 14.1543C149.122 14.1543 150.169 14.4147 151.049 14.9355C151.934 15.4512 152.617 16.1751 153.096 17.1074C153.575 18.0345 153.814 19.1178 153.814 20.3574C153.814 21.5866 153.575 22.6673 153.096 23.5996C152.617 24.5267 151.934 25.2507 151.049 25.7715C150.169 26.2871 149.122 26.5449 147.908 26.5449ZM147.924 23.9668C148.476 23.9668 148.937 23.8105 149.307 23.498C149.676 23.1803 149.955 22.748 150.143 22.2012C150.335 21.6543 150.432 21.0319 150.432 20.334C150.432 19.6361 150.335 19.0137 150.143 18.4668C149.955 17.9199 149.676 17.4876 149.307 17.1699C148.937 16.8522 148.476 16.6934 147.924 16.6934C147.367 16.6934 146.898 16.8522 146.518 17.1699C146.143 17.4876 145.859 17.9199 145.666 18.4668C145.479 19.0137 145.385 19.6361 145.385 20.334C145.385 21.0319 145.479 21.6543 145.666 22.2012C145.859 22.748 146.143 23.1803 146.518 23.498C146.898 23.8105 147.367 23.9668 147.924 23.9668ZM158.994 22.8574L159.002 18.8652H159.486L163.33 14.3105H167.15L161.986 20.3418H161.197L158.994 22.8574ZM155.979 26.3105V10.3105H159.307V26.3105H155.979ZM163.479 26.3105L159.947 21.084L162.166 18.7324L167.377 26.3105H163.479ZM173.758 26.5449C172.523 26.5449 171.461 26.2949 170.57 25.7949C169.685 25.2897 169.003 24.5762 168.523 23.6543C168.044 22.7272 167.805 21.6309 167.805 20.3652C167.805 19.1309 168.044 18.0475 168.523 17.1152C169.003 16.1829 169.677 15.4564 170.547 14.9355C171.422 14.4147 172.448 14.1543 173.625 14.1543C174.417 14.1543 175.154 14.2819 175.836 14.5371C176.523 14.7871 177.122 15.1647 177.633 15.6699C178.148 16.1751 178.549 16.8105 178.836 17.5762C179.122 18.3366 179.266 19.2272 179.266 20.248V21.1621H169.133V19.0996H176.133C176.133 18.6204 176.029 18.196 175.82 17.8262C175.612 17.4564 175.323 17.1673 174.953 16.959C174.589 16.7454 174.164 16.6387 173.68 16.6387C173.174 16.6387 172.727 16.7559 172.336 16.9902C171.951 17.2194 171.648 17.5293 171.43 17.9199C171.211 18.3053 171.099 18.735 171.094 19.209V21.1699C171.094 21.7637 171.203 22.2767 171.422 22.709C171.646 23.1413 171.961 23.4746 172.367 23.709C172.773 23.9434 173.255 24.0605 173.812 24.0605C174.182 24.0605 174.521 24.0085 174.828 23.9043C175.135 23.8001 175.398 23.6439 175.617 23.4355C175.836 23.2272 176.003 22.972 176.117 22.6699L179.195 22.873C179.039 23.6126 178.719 24.2585 178.234 24.8105C177.755 25.3574 177.135 25.7845 176.375 26.0918C175.62 26.3939 174.747 26.5449 173.758 26.5449ZM184.766 19.373V26.3105H181.438V14.3105H184.609V16.4277H184.75C185.016 15.7298 185.461 15.1777 186.086 14.7715C186.711 14.36 187.469 14.1543 188.359 14.1543C189.193 14.1543 189.919 14.3366 190.539 14.7012C191.159 15.0658 191.641 15.5866 191.984 16.2637C192.328 16.9355 192.5 17.7376 192.5 18.6699V26.3105H189.172V19.2637C189.177 18.5293 188.99 17.9564 188.609 17.5449C188.229 17.1283 187.706 16.9199 187.039 16.9199C186.591 16.9199 186.195 17.0163 185.852 17.209C185.513 17.4017 185.247 17.6829 185.055 18.0527C184.867 18.4173 184.771 18.8574 184.766 19.373Z" fill="#949494"/>
</svg>
