<svg width="159" height="43" viewBox="0 0 159 43" fill="none" xmlns="http://www.w3.org/2000/svg">
<g opacity="0.6">
<path d="M29.7318 25.7584L25.5567 29.9335L22.0277 33.4625L13.4289 42.0613C12.4348 43.0554 10.8442 43.0554 9.89986 42.0613C9.40282 41.5643 9.1543 40.9181 9.1543 40.272C9.1543 39.6258 9.40282 38.9797 9.89986 38.4826L18.4987 29.8838L22.0277 26.3548L26.2028 22.1797L29.7318 25.7584Z" fill="#949494"/>
<path d="M43.4508 11.0467C43.4508 11.6929 43.2022 12.339 42.7052 12.8361L33.2614 22.2799L29.7324 18.7509L39.1762 9.30709C40.1703 8.313 41.7111 8.313 42.7052 9.30709C43.2022 9.75442 43.4508 10.4006 43.4508 11.0467Z" fill="#949494"/>
<path d="M35.7467 3.34263C35.7467 3.98878 35.4982 4.63492 35.0011 5.13197L17.8532 22.2799L14.3242 18.7509L18.4994 14.5758L22.0284 11.0468L31.4721 1.60298C32.4662 0.608901 34.0071 0.608901 35.0011 1.60298C35.4982 2.05032 35.7467 2.69648 35.7467 3.34263Z" fill="#949494"/>
<path d="M14.3245 25.7584L5.72573 34.3572C4.73165 35.3513 3.19082 35.3513 2.19673 34.3572C1.69969 33.8602 1.45117 33.214 1.45117 32.5679C1.45117 31.9217 1.69969 31.2755 2.19673 30.7785L10.7956 22.1797L14.3245 25.7584Z" fill="#949494"/>
<path d="M22.0269 10.997L18.4979 14.526L9.05416 5.08218C8.06007 4.08809 8.06007 2.54726 9.05416 1.55318C9.5512 1.05614 10.1974 0.807617 10.8435 0.807617C11.4897 0.807617 12.1358 1.05614 12.6329 1.55318L22.0269 10.997Z" fill="#949494"/>
<path d="M41.8602 34.4081C41.3631 34.9052 40.717 35.1537 40.0708 35.1537C39.4247 35.1537 38.7785 34.9052 38.2815 34.4081L21.9785 18.1052L25.5075 14.5762L29.6827 18.7513L33.2117 22.2803L41.8105 30.8791C42.8543 31.8235 42.8543 33.4141 41.8602 34.4081Z" fill="#949494"/>
<path d="M22.028 26.4052L18.499 29.9342L1.35103 12.7863C0.356948 11.7922 0.356948 10.2017 1.35103 9.25728C1.84807 8.76024 2.49423 8.51172 3.14038 8.51172C3.78653 8.51172 4.43269 8.76024 4.92973 9.25728L14.3735 18.7011L17.9025 22.2301L22.028 26.4052Z" fill="#949494"/>
<path d="M34.2049 42.0614C33.7078 42.5584 33.0617 42.807 32.4155 42.807C31.7694 42.807 31.1232 42.5584 30.6262 42.0614L22.0273 33.4626L25.5563 29.9336L34.2049 38.5324C35.1492 39.5265 35.1492 41.117 34.2049 42.0614Z" fill="#949494"/>
</g>
<path d="M58.8418 30.3076V14.3076H65.248C66.4251 14.3076 67.4069 14.4821 68.1934 14.8311C68.9798 15.18 69.571 15.6644 69.9668 16.2842C70.3626 16.8988 70.5605 17.6071 70.5605 18.4092C70.5605 19.0342 70.4355 19.5837 70.1855 20.0576C69.9355 20.5264 69.5918 20.9118 69.1543 21.2139C68.722 21.5107 68.2272 21.7217 67.6699 21.8467V22.0029C68.2793 22.029 68.8496 22.2008 69.3809 22.5186C69.9173 22.8363 70.3522 23.2816 70.6855 23.8545C71.0189 24.4222 71.1855 25.0993 71.1855 25.8857C71.1855 26.7347 70.9746 27.4925 70.5527 28.1592C70.1361 28.8206 69.5189 29.3441 68.7012 29.7295C67.8835 30.1149 66.8757 30.3076 65.6777 30.3076H58.8418ZM62.2246 27.542H64.9824C65.9251 27.542 66.6126 27.3623 67.0449 27.0029C67.4772 26.6383 67.6934 26.154 67.6934 25.5498C67.6934 25.1071 67.5866 24.7165 67.373 24.3779C67.1595 24.0394 66.8548 23.7738 66.459 23.5811C66.0684 23.3883 65.6022 23.292 65.0605 23.292H62.2246V27.542ZM62.2246 21.0029H64.7324C65.196 21.0029 65.6074 20.9222 65.9668 20.7607C66.3314 20.5941 66.6178 20.3597 66.8262 20.0576C67.0397 19.7555 67.1465 19.3936 67.1465 18.9717C67.1465 18.3936 66.9408 17.9274 66.5293 17.5732C66.123 17.2191 65.5449 17.042 64.7949 17.042H62.2246V21.0029ZM76.6523 14.3076V30.3076H73.3242V14.3076H76.6523ZM79.3184 30.3076V18.3076H82.6465V30.3076H79.3184ZM80.9902 16.7607C80.4954 16.7607 80.071 16.5967 79.7168 16.2686C79.3678 15.9352 79.1934 15.5368 79.1934 15.0732C79.1934 14.6149 79.3678 14.2217 79.7168 13.8936C80.071 13.5602 80.4954 13.3936 80.9902 13.3936C81.485 13.3936 81.9069 13.5602 82.2559 13.8936C82.61 14.2217 82.7871 14.6149 82.7871 15.0732C82.7871 15.5368 82.61 15.9352 82.2559 16.2686C81.9069 16.5967 81.485 16.7607 80.9902 16.7607ZM88.6406 23.3701V30.3076H85.3125V18.3076H88.4844V20.4248H88.625C88.8906 19.7269 89.3359 19.1748 89.9609 18.7686C90.5859 18.3571 91.3437 18.1514 92.2344 18.1514C93.0677 18.1514 93.7943 18.3337 94.4141 18.6982C95.0339 19.0628 95.5156 19.5837 95.8594 20.2607C96.2031 20.9326 96.375 21.7347 96.375 22.667V30.3076H93.0469V23.2607C93.0521 22.5264 92.8646 21.9535 92.4844 21.542C92.1042 21.1253 91.5807 20.917 90.9141 20.917C90.4661 20.917 90.0703 21.0133 89.7266 21.2061C89.388 21.3988 89.1224 21.68 88.9297 22.0498C88.7422 22.4144 88.6458 22.8545 88.6406 23.3701ZM104.404 35.0576C103.326 35.0576 102.402 34.9092 101.631 34.6123C100.865 34.3206 100.256 33.9222 99.8027 33.417C99.3496 32.9118 99.0553 32.3441 98.9199 31.7139L101.998 31.2998C102.092 31.5394 102.24 31.7633 102.443 31.9717C102.646 32.18 102.915 32.3467 103.248 32.4717C103.587 32.6019 103.998 32.667 104.482 32.667C105.206 32.667 105.803 32.4899 106.271 32.1357C106.745 31.7868 106.982 31.2008 106.982 30.3779V28.1826H106.842C106.696 28.516 106.477 28.8311 106.186 29.1279C105.894 29.4248 105.519 29.667 105.061 29.8545C104.602 30.042 104.055 30.1357 103.42 30.1357C102.519 30.1357 101.699 29.9274 100.959 29.5107C100.225 29.0889 99.6387 28.4456 99.2012 27.5811C98.7689 26.7113 98.5527 25.6123 98.5527 24.2842C98.5527 22.9248 98.7741 21.7894 99.2168 20.8779C99.6595 19.9665 100.248 19.2842 100.982 18.8311C101.722 18.3779 102.532 18.1514 103.412 18.1514C104.084 18.1514 104.646 18.266 105.1 18.4951C105.553 18.7191 105.917 19.0003 106.193 19.3389C106.475 19.6722 106.691 20.0003 106.842 20.3232H106.967V18.3076H110.271V30.4248C110.271 31.4456 110.021 32.2998 109.521 32.9873C109.021 33.6748 108.329 34.1904 107.443 34.5342C106.563 34.8831 105.55 35.0576 104.404 35.0576ZM104.475 27.6357C105.011 27.6357 105.464 27.5029 105.834 27.2373C106.209 26.9665 106.495 26.5811 106.693 26.0811C106.896 25.5758 106.998 24.9717 106.998 24.2686C106.998 23.5654 106.899 22.9561 106.701 22.4404C106.503 21.9196 106.217 21.516 105.842 21.2295C105.467 20.943 105.011 20.7998 104.475 20.7998C103.928 20.7998 103.467 20.9482 103.092 21.2451C102.717 21.5368 102.433 21.943 102.24 22.4639C102.048 22.9847 101.951 23.5863 101.951 24.2686C101.951 24.9613 102.048 25.5602 102.24 26.0654C102.438 26.5654 102.722 26.9535 103.092 27.2295C103.467 27.5003 103.928 27.6357 104.475 27.6357ZM118.074 30.3076V14.3076H124.48C125.658 14.3076 126.639 14.4821 127.426 14.8311C128.212 15.18 128.803 15.6644 129.199 16.2842C129.595 16.8988 129.793 17.6071 129.793 18.4092C129.793 19.0342 129.668 19.5837 129.418 20.0576C129.168 20.5264 128.824 20.9118 128.387 21.2139C127.954 21.5107 127.46 21.7217 126.902 21.8467V22.0029C127.512 22.029 128.082 22.2008 128.613 22.5186C129.15 22.8363 129.585 23.2816 129.918 23.8545C130.251 24.4222 130.418 25.0993 130.418 25.8857C130.418 26.7347 130.207 27.4925 129.785 28.1592C129.368 28.8206 128.751 29.3441 127.934 29.7295C127.116 30.1149 126.108 30.3076 124.91 30.3076H118.074ZM121.457 27.542H124.215C125.158 27.542 125.845 27.3623 126.277 27.0029C126.71 26.6383 126.926 26.154 126.926 25.5498C126.926 25.1071 126.819 24.7165 126.605 24.3779C126.392 24.0394 126.087 23.7738 125.691 23.5811C125.301 23.3883 124.835 23.292 124.293 23.292H121.457V27.542ZM121.457 21.0029H123.965C124.428 21.0029 124.84 20.9222 125.199 20.7607C125.564 20.5941 125.85 20.3597 126.059 20.0576C126.272 19.7555 126.379 19.3936 126.379 18.9717C126.379 18.3936 126.173 17.9274 125.762 17.5732C125.355 17.2191 124.777 17.042 124.027 17.042H121.457V21.0029ZM132.557 30.3076V18.3076H135.885V30.3076H132.557ZM134.229 16.7607C133.734 16.7607 133.309 16.5967 132.955 16.2686C132.606 15.9352 132.432 15.5368 132.432 15.0732C132.432 14.6149 132.606 14.2217 132.955 13.8936C133.309 13.5602 133.734 13.3936 134.229 13.3936C134.723 13.3936 135.145 13.5602 135.494 13.8936C135.848 14.2217 136.025 14.6149 136.025 15.0732C136.025 15.5368 135.848 15.9352 135.494 16.2686C135.145 16.5967 134.723 16.7607 134.229 16.7607ZM144.934 18.3076V20.8076H137.707V18.3076H144.934ZM139.348 15.4326H142.676V26.6201C142.676 26.9274 142.723 27.167 142.816 27.3389C142.91 27.5055 143.04 27.6227 143.207 27.6904C143.379 27.7581 143.577 27.792 143.801 27.792C143.957 27.792 144.113 27.779 144.27 27.7529C144.426 27.7217 144.546 27.6982 144.629 27.6826L145.152 30.1592C144.986 30.2113 144.751 30.2712 144.449 30.3389C144.147 30.4118 143.78 30.4561 143.348 30.4717C142.546 30.5029 141.842 30.3962 141.238 30.1514C140.639 29.9066 140.173 29.5264 139.84 29.0107C139.507 28.4951 139.342 27.8441 139.348 27.0576V15.4326ZM156.936 21.7295L153.889 21.917C153.837 21.6566 153.725 21.4222 153.553 21.2139C153.381 21.0003 153.154 20.8311 152.873 20.7061C152.597 20.5758 152.266 20.5107 151.881 20.5107C151.365 20.5107 150.93 20.6201 150.576 20.8389C150.222 21.0524 150.045 21.3389 150.045 21.6982C150.045 21.9847 150.16 22.2269 150.389 22.4248C150.618 22.6227 151.011 22.7816 151.568 22.9014L153.74 23.3389C154.907 23.5785 155.777 23.9639 156.35 24.4951C156.923 25.0264 157.209 25.7243 157.209 26.5889C157.209 27.3753 156.977 28.0654 156.514 28.6592C156.055 29.2529 155.425 29.7165 154.623 30.0498C153.826 30.3779 152.907 30.542 151.865 30.542C150.277 30.542 149.011 30.2113 148.068 29.5498C147.131 28.8831 146.581 27.9769 146.42 26.8311L149.693 26.6592C149.792 27.1436 150.032 27.5133 150.412 27.7686C150.792 28.0186 151.279 28.1436 151.873 28.1436C152.456 28.1436 152.925 28.0316 153.279 27.8076C153.639 27.5785 153.821 27.2842 153.826 26.9248C153.821 26.6227 153.693 26.3753 153.443 26.1826C153.193 25.9847 152.808 25.8337 152.287 25.7295L150.209 25.3154C149.037 25.0811 148.165 24.6748 147.592 24.0967C147.024 23.5186 146.74 22.7816 146.74 21.8857C146.74 21.1149 146.949 20.4508 147.365 19.8936C147.787 19.3363 148.378 18.9066 149.139 18.6045C149.904 18.3024 150.8 18.1514 151.826 18.1514C153.342 18.1514 154.535 18.4717 155.404 19.1123C156.279 19.7529 156.79 20.6253 156.936 21.7295Z" fill="#949494"/>
</svg>
