<svg width="157" height="43" viewBox="0 0 157 43" fill="none" xmlns="http://www.w3.org/2000/svg">
<g>
<path d="M38.9969 42.7998C38.0217 42.7998 36.9815 42.4097 36.2013 41.6295C34.6409 40.0691 34.6409 37.5986 36.2013 36.0382C42.4428 29.7967 42.4428 19.6543 36.2013 13.4128C33.1456 10.3571 29.1796 8.73169 24.8886 8.73169C20.5976 8.73169 16.5666 10.4221 13.5759 13.4128C10.5202 16.4685 8.89479 20.4345 8.89479 24.7255C8.89479 29.0165 10.5852 33.0475 13.5759 36.0382C15.1363 37.5986 15.1363 40.0691 13.5759 41.6295C12.0155 43.1899 9.54494 43.1899 7.98456 41.6295C3.4985 37.1435 0.962891 31.097 0.962891 24.7255C0.962891 18.354 3.43348 12.3726 7.98456 7.82148C12.4706 3.33541 18.5171 0.799805 24.8886 0.799805C31.2601 0.799805 37.2415 3.27039 41.7926 7.82148C51.0898 17.1187 51.0898 32.2673 41.7926 41.6295C41.0124 42.4097 40.0372 42.7998 38.9969 42.7998Z" fill="#949494"/>
<path d="M31.9752 36.4283C30.9999 36.4283 29.9597 36.0382 29.1795 35.258C27.6191 33.6976 27.6191 31.227 29.1795 29.6667C30.3498 28.4964 30.9349 27.001 30.9349 25.3756C30.9349 23.7503 30.2848 22.2549 29.1795 21.0846C28.0092 19.9143 26.5139 19.3292 24.8885 19.3292C23.2631 19.3292 21.7677 19.9794 20.5975 21.0846C19.4272 22.2549 18.842 23.7503 18.842 25.3756C18.842 27.001 19.4922 28.4964 20.5975 29.6667C22.1578 31.227 22.1578 33.6976 20.5975 35.258C19.0371 36.8184 16.5665 36.8184 15.0061 35.258C12.4055 32.6574 10.9102 29.1465 10.9102 25.4407C10.9102 21.7348 12.3405 18.2239 15.0061 15.6233C17.6068 13.0227 21.1176 11.5273 24.8235 11.5273C28.5294 11.5273 32.0402 12.9577 34.6408 15.6233C37.2414 18.2239 38.7368 21.7348 38.7368 25.4407C38.7368 29.1465 37.3064 32.6574 34.6408 35.258C33.9907 36.0382 32.9504 36.4283 31.9752 36.4283Z" fill="#949494"/>
</g>
<path d="M68.6953 30.3096H63.0234V14.3096H68.7422C70.3516 14.3096 71.737 14.6299 72.8984 15.2705C74.0599 15.9059 74.9531 16.82 75.5781 18.0127C76.2083 19.2054 76.5234 20.6325 76.5234 22.2939C76.5234 23.9606 76.2083 25.3929 75.5781 26.5908C74.9531 27.7887 74.0547 28.708 72.8828 29.3486C71.7161 29.9893 70.3203 30.3096 68.6953 30.3096ZM66.4063 27.4111H68.5547C69.5547 27.4111 70.3958 27.234 71.0781 26.8799C71.7656 26.5205 72.2813 25.9658 72.625 25.2158C72.974 24.4606 73.1484 23.4867 73.1484 22.2939C73.1484 21.1117 72.974 20.1455 72.625 19.3955C72.2813 18.6455 71.7682 18.0934 71.0859 17.7393C70.4036 17.3851 69.5625 17.208 68.5625 17.208H66.4063V27.4111ZM84.3887 30.5439C83.1751 30.5439 82.1257 30.2861 81.2402 29.7705C80.36 29.2497 79.6803 28.5257 79.2012 27.5986C78.722 26.6663 78.4824 25.5856 78.4824 24.3564C78.4824 23.1169 78.722 22.0335 79.2012 21.1064C79.6803 20.1742 80.36 19.4502 81.2402 18.9346C82.1257 18.4137 83.1751 18.1533 84.3887 18.1533C85.6022 18.1533 86.6491 18.4137 87.5293 18.9346C88.4147 19.4502 89.097 20.1742 89.5762 21.1064C90.0553 22.0335 90.2949 23.1169 90.2949 24.3564C90.2949 25.5856 90.0553 26.6663 89.5762 27.5986C89.097 28.5257 88.4147 29.2497 87.5293 29.7705C86.6491 30.2861 85.6022 30.5439 84.3887 30.5439ZM84.4043 27.9658C84.9564 27.9658 85.4173 27.8096 85.7871 27.4971C86.1569 27.1794 86.4355 26.7471 86.623 26.2002C86.8158 25.6533 86.9121 25.0309 86.9121 24.333C86.9121 23.6351 86.8158 23.0127 86.623 22.4658C86.4355 21.9189 86.1569 21.4867 85.7871 21.1689C85.4173 20.8512 84.9564 20.6924 84.4043 20.6924C83.847 20.6924 83.3783 20.8512 82.998 21.1689C82.623 21.4867 82.3392 21.9189 82.1465 22.4658C81.959 23.0127 81.8652 23.6351 81.8652 24.333C81.8652 25.0309 81.959 25.6533 82.1465 26.2002C82.3392 26.7471 82.623 27.1794 82.998 27.4971C83.3783 27.8096 83.847 27.9658 84.4043 27.9658ZM102.443 21.7314L99.3965 21.9189C99.3444 21.6585 99.2324 21.4242 99.0605 21.2158C98.8887 21.0023 98.6621 20.833 98.3809 20.708C98.1048 20.5778 97.7741 20.5127 97.3887 20.5127C96.873 20.5127 96.4382 20.6221 96.084 20.8408C95.7298 21.0544 95.5527 21.3408 95.5527 21.7002C95.5527 21.9867 95.6673 22.2288 95.8965 22.4268C96.1257 22.6247 96.5189 22.7835 97.0762 22.9033L99.248 23.3408C100.415 23.5804 101.285 23.9658 101.857 24.4971C102.43 25.0283 102.717 25.7262 102.717 26.5908C102.717 27.3773 102.485 28.0674 102.021 28.6611C101.563 29.2549 100.933 29.7184 100.131 30.0518C99.334 30.3799 98.4147 30.5439 97.373 30.5439C95.7845 30.5439 94.5189 30.2132 93.5762 29.5518C92.6387 28.8851 92.0892 27.9788 91.9277 26.833L95.2012 26.6611C95.3001 27.1455 95.5397 27.5153 95.9199 27.7705C96.3001 28.0205 96.7871 28.1455 97.3809 28.1455C97.9642 28.1455 98.4329 28.0335 98.7871 27.8096C99.1465 27.5804 99.3288 27.2861 99.334 26.9268C99.3288 26.6247 99.2012 26.3773 98.9512 26.1846C98.7012 25.9867 98.3158 25.8356 97.7949 25.7314L95.7168 25.3174C94.5449 25.083 93.6725 24.6768 93.0996 24.0986C92.5319 23.5205 92.248 22.7835 92.248 21.8877C92.248 21.1169 92.4564 20.4528 92.873 19.8955C93.2949 19.3382 93.8861 18.9085 94.6465 18.6064C95.4121 18.3044 96.3079 18.1533 97.334 18.1533C98.8496 18.1533 100.042 18.4736 100.912 19.1143C101.787 19.7549 102.298 20.6273 102.443 21.7314ZM110.281 30.5439C109.047 30.5439 107.984 30.2939 107.094 29.7939C106.208 29.2887 105.526 28.5752 105.047 27.6533C104.568 26.7262 104.328 25.6299 104.328 24.3643C104.328 23.1299 104.568 22.0465 105.047 21.1143C105.526 20.182 106.201 19.4554 107.07 18.9346C107.945 18.4137 108.971 18.1533 110.148 18.1533C110.94 18.1533 111.677 18.2809 112.359 18.5361C113.047 18.7861 113.646 19.1637 114.156 19.6689C114.672 20.1742 115.073 20.8096 115.359 21.5752C115.646 22.3356 115.789 23.2262 115.789 24.2471V25.1611H105.656V23.0986H112.656C112.656 22.6195 112.552 22.195 112.344 21.8252C112.135 21.4554 111.846 21.1663 111.477 20.958C111.112 20.7445 110.688 20.6377 110.203 20.6377C109.698 20.6377 109.25 20.7549 108.859 20.9893C108.474 21.2184 108.172 21.5283 107.953 21.9189C107.734 22.3044 107.622 22.734 107.617 23.208V25.1689C107.617 25.7627 107.727 26.2757 107.945 26.708C108.169 27.1403 108.484 27.4736 108.891 27.708C109.297 27.9424 109.779 28.0596 110.336 28.0596C110.706 28.0596 111.044 28.0075 111.352 27.9033C111.659 27.7992 111.922 27.6429 112.141 27.4346C112.359 27.2262 112.526 26.971 112.641 26.6689L115.719 26.8721C115.563 27.6117 115.242 28.2575 114.758 28.8096C114.279 29.3564 113.659 29.7835 112.898 30.0908C112.143 30.3929 111.271 30.5439 110.281 30.5439ZM125.873 30.3096H122.248L127.771 14.3096H132.131L137.646 30.3096H134.021L130.014 17.9658H129.889L125.873 30.3096ZM125.646 24.0205H134.209V26.6611H125.646V24.0205ZM139.51 30.3096V18.3096H142.736V20.4033H142.861C143.08 19.6585 143.447 19.096 143.963 18.7158C144.479 18.3304 145.072 18.1377 145.744 18.1377C145.911 18.1377 146.09 18.1481 146.283 18.1689C146.476 18.1898 146.645 18.2184 146.791 18.2549V21.208C146.635 21.1611 146.419 21.1195 146.143 21.083C145.867 21.0465 145.614 21.0283 145.385 21.0283C144.895 21.0283 144.458 21.1351 144.072 21.3486C143.692 21.557 143.39 21.8486 143.166 22.2236C142.947 22.5986 142.838 23.0309 142.838 23.5205V30.3096H139.51ZM155.496 18.3096V20.8096H148.27V18.3096H155.496ZM149.91 15.4346H153.238V26.6221C153.238 26.9294 153.285 27.1689 153.379 27.3408C153.473 27.5075 153.603 27.6247 153.77 27.6924C153.941 27.7601 154.139 27.7939 154.363 27.7939C154.52 27.7939 154.676 27.7809 154.832 27.7549C154.988 27.7236 155.108 27.7002 155.191 27.6846L155.715 30.1611C155.548 30.2132 155.314 30.2731 155.012 30.3408C154.71 30.4137 154.342 30.458 153.91 30.4736C153.108 30.5049 152.405 30.3981 151.801 30.1533C151.202 29.9085 150.736 29.5283 150.402 29.0127C150.069 28.4971 149.905 27.846 149.91 27.0596V15.4346Z" fill="#949494"/>
</svg>
