<svg width="153" height="43" viewBox="0 0 153 43" fill="none" xmlns="http://www.w3.org/2000/svg">
<g opacity="0.6">
<path d="M30.0951 25.7584L25.9199 29.9335L22.391 33.4625L13.7921 42.0613C12.7981 43.0554 11.2075 43.0554 10.2631 42.0613C9.7661 41.5643 9.51758 40.9181 9.51758 40.272C9.51758 39.6258 9.7661 38.9797 10.2631 38.4826L18.862 29.8838L22.391 26.3548L26.5661 22.1797L30.0951 25.7584Z" fill="#949494"/>
<path d="M43.814 11.0467C43.814 11.6929 43.5655 12.339 43.0685 12.8361L33.6247 22.2799L30.0957 18.7509L39.5395 9.30709C40.5336 8.313 42.0744 8.313 43.0685 9.30709C43.5655 9.75442 43.814 10.4006 43.814 11.0467Z" fill="#949494"/>
<path d="M36.11 3.34263C36.11 3.98878 35.8615 4.63492 35.3644 5.13197L18.2165 22.2799L14.6875 18.7509L18.8626 14.5758L22.3916 11.0468L31.8354 1.60298C32.8295 0.608901 34.3703 0.608901 35.3644 1.60298C35.8615 2.05032 36.11 2.69648 36.11 3.34263Z" fill="#949494"/>
<path d="M14.6878 25.7584L6.08901 34.3572C5.09493 35.3513 3.5541 35.3513 2.56002 34.3572C2.06297 33.8602 1.81445 33.214 1.81445 32.5679C1.81445 31.9217 2.06297 31.2755 2.56002 30.7785L11.1588 22.1797L14.6878 25.7584Z" fill="#949494"/>
<path d="M22.3902 10.997L18.8612 14.526L9.41744 5.08218C8.42335 4.08809 8.42335 2.54726 9.41744 1.55318C9.91448 1.05614 10.5606 0.807617 11.2068 0.807617C11.8529 0.807617 12.4991 1.05614 12.9961 1.55318L22.3902 10.997Z" fill="#949494"/>
<path d="M42.2235 34.4081C41.7264 34.9052 41.0803 35.1537 40.4341 35.1537C39.788 35.1537 39.1418 34.9052 38.6448 34.4081L22.3418 18.1052L25.8708 14.5762L30.0459 18.7513L33.5749 22.2803L42.1737 30.8791C43.2175 31.8235 43.2175 33.4141 42.2235 34.4081Z" fill="#949494"/>
<path d="M22.3912 26.4052L18.8622 29.9342L1.71431 12.7863C0.720229 11.7922 0.720229 10.2017 1.71431 9.25728C2.21135 8.76024 2.85751 8.51172 3.50366 8.51172C4.14981 8.51172 4.79597 8.76024 5.29301 9.25728L14.7368 18.7011L18.2658 22.2301L22.3912 26.4052Z" fill="#949494"/>
<path d="M34.5681 42.0614C34.0711 42.5584 33.4249 42.807 32.7788 42.807C32.1326 42.807 31.4865 42.5584 30.9894 42.0614L22.3906 33.4626L25.9196 29.9336L34.5681 38.5324C35.5125 39.5265 35.5125 41.117 34.5681 42.0614Z" fill="#949494"/>
</g>
<path d="M65.877 30.3076H60.2051V14.3076H65.9238C67.5332 14.3076 68.9186 14.6279 70.0801 15.2686C71.2415 15.904 72.1348 16.818 72.7598 18.0107C73.39 19.2035 73.7051 20.6305 73.7051 22.292C73.7051 23.9587 73.39 25.391 72.7598 26.5889C72.1348 27.7868 71.2363 28.7061 70.0645 29.3467C68.8978 29.9873 67.502 30.3076 65.877 30.3076ZM63.5879 27.4092H65.7363C66.7363 27.4092 67.5775 27.2321 68.2598 26.8779C68.9473 26.5186 69.4629 25.9639 69.8066 25.2139C70.1556 24.4587 70.3301 23.4847 70.3301 22.292C70.3301 21.1097 70.1556 20.1436 69.8066 19.3936C69.4629 18.6436 68.9499 18.0915 68.2676 17.7373C67.5853 17.3831 66.7441 17.2061 65.7441 17.2061H63.5879V27.4092ZM83.8438 25.1982V18.3076H87.1719V30.3076H83.9766V28.1279H83.8516C83.5807 28.8311 83.1302 29.3962 82.5 29.8232C81.875 30.2503 81.112 30.4639 80.2109 30.4639C79.4089 30.4639 78.7031 30.2816 78.0938 29.917C77.4844 29.5524 77.0078 29.0342 76.6641 28.3623C76.3255 27.6904 76.1536 26.8857 76.1484 25.9482V18.3076H79.4766V25.3545C79.4818 26.0628 79.6719 26.6227 80.0469 27.0342C80.4219 27.4456 80.9245 27.6514 81.5547 27.6514C81.9557 27.6514 82.3307 27.5602 82.6797 27.3779C83.0286 27.1904 83.3099 26.9144 83.5234 26.5498C83.7422 26.1852 83.849 25.7347 83.8438 25.1982ZM99.8184 21.7295L96.7715 21.917C96.7194 21.6566 96.6074 21.4222 96.4355 21.2139C96.2637 21.0003 96.0371 20.8311 95.7559 20.7061C95.4798 20.5758 95.1491 20.5107 94.7637 20.5107C94.248 20.5107 93.8132 20.6201 93.459 20.8389C93.1048 21.0524 92.9277 21.3389 92.9277 21.6982C92.9277 21.9847 93.0423 22.2269 93.2715 22.4248C93.5007 22.6227 93.8939 22.7816 94.4512 22.9014L96.623 23.3389C97.7897 23.5785 98.6595 23.9639 99.2324 24.4951C99.8053 25.0264 100.092 25.7243 100.092 26.5889C100.092 27.3753 99.86 28.0654 99.3965 28.6592C98.9382 29.2529 98.3079 29.7165 97.5059 30.0498C96.709 30.3779 95.7897 30.542 94.748 30.542C93.1595 30.542 91.8939 30.2113 90.9512 29.5498C90.0137 28.8831 89.4642 27.9769 89.3027 26.8311L92.5762 26.6592C92.6751 27.1436 92.9147 27.5133 93.2949 27.7686C93.6751 28.0186 94.1621 28.1436 94.7559 28.1436C95.3392 28.1436 95.8079 28.0316 96.1621 27.8076C96.5215 27.5785 96.7038 27.2842 96.709 26.9248C96.7038 26.6227 96.5762 26.3753 96.3262 26.1826C96.0762 25.9847 95.6908 25.8337 95.1699 25.7295L93.0918 25.3154C91.9199 25.0811 91.0475 24.6748 90.4746 24.0967C89.9069 23.5186 89.623 22.7816 89.623 21.8857C89.623 21.1149 89.8314 20.4508 90.248 19.8936C90.6699 19.3363 91.2611 18.9066 92.0215 18.6045C92.7871 18.3024 93.6829 18.1514 94.709 18.1514C96.2246 18.1514 97.4173 18.4717 98.2871 19.1123C99.1621 19.7529 99.6725 20.6253 99.8184 21.7295ZM108.57 18.3076V20.8076H101.344V18.3076H108.57ZM102.984 15.4326H106.313V26.6201C106.313 26.9274 106.359 27.167 106.453 27.3389C106.547 27.5055 106.677 27.6227 106.844 27.6904C107.016 27.7581 107.214 27.792 107.438 27.792C107.594 27.792 107.75 27.779 107.906 27.7529C108.062 27.7217 108.182 27.6982 108.266 27.6826L108.789 30.1592C108.622 30.2113 108.388 30.2712 108.086 30.3389C107.784 30.4118 107.417 30.4561 106.984 30.4717C106.182 30.5029 105.479 30.3962 104.875 30.1514C104.276 29.9066 103.81 29.5264 103.477 29.0107C103.143 28.4951 102.979 27.8441 102.984 27.0576V15.4326ZM115.893 30.3076V14.3076H122.205C123.413 14.3076 124.445 14.5238 125.299 14.9561C126.158 15.3831 126.812 15.9899 127.26 16.7764C127.713 17.5576 127.939 18.4769 127.939 19.5342C127.939 20.5967 127.71 21.5107 127.252 22.2764C126.794 23.0368 126.13 23.6201 125.26 24.0264C124.395 24.4326 123.348 24.6357 122.119 24.6357H117.893V21.917H121.572C122.218 21.917 122.755 21.8285 123.182 21.6514C123.609 21.4743 123.926 21.2087 124.135 20.8545C124.348 20.5003 124.455 20.0602 124.455 19.5342C124.455 19.0029 124.348 18.555 124.135 18.1904C123.926 17.8258 123.606 17.5498 123.174 17.3623C122.747 17.1696 122.208 17.0732 121.557 17.0732H119.275V30.3076H115.893ZM124.533 23.0264L128.51 30.3076H124.775L120.885 23.0264H124.533ZM130.268 30.3076V18.3076H133.596V30.3076H130.268ZM131.939 16.7607C131.445 16.7607 131.02 16.5967 130.666 16.2686C130.317 15.9352 130.143 15.5368 130.143 15.0732C130.143 14.6149 130.317 14.2217 130.666 13.8936C131.02 13.5602 131.445 13.3936 131.939 13.3936C132.434 13.3936 132.856 13.5602 133.205 13.8936C133.559 14.2217 133.736 14.6149 133.736 15.0732C133.736 15.5368 133.559 15.9352 133.205 16.2686C132.856 16.5967 132.434 16.7607 131.939 16.7607ZM142.715 18.3076V20.8076H135.309V18.3076H142.715ZM137.004 30.3076V17.4404C137.004 16.5706 137.173 15.8493 137.512 15.2764C137.855 14.7034 138.324 14.2738 138.918 13.9873C139.512 13.7008 140.186 13.5576 140.941 13.5576C141.452 13.5576 141.918 13.5967 142.34 13.6748C142.767 13.7529 143.085 13.8232 143.293 13.8857L142.699 16.3857C142.569 16.3441 142.408 16.305 142.215 16.2686C142.027 16.2321 141.835 16.2139 141.637 16.2139C141.147 16.2139 140.806 16.3285 140.613 16.5576C140.421 16.7816 140.324 17.0967 140.324 17.5029V30.3076H137.004ZM151.131 18.3076V20.8076H143.904V18.3076H151.131ZM145.545 15.4326H148.873V26.6201C148.873 26.9274 148.92 27.167 149.014 27.3389C149.107 27.5055 149.238 27.6227 149.404 27.6904C149.576 27.7581 149.774 27.792 149.998 27.792C150.154 27.792 150.311 27.779 150.467 27.7529C150.623 27.7217 150.743 27.6982 150.826 27.6826L151.35 30.1592C151.183 30.2113 150.949 30.2712 150.646 30.3389C150.344 30.4118 149.977 30.4561 149.545 30.4717C148.743 30.5029 148.04 30.3962 147.436 30.1514C146.837 29.9066 146.37 29.5264 146.037 29.0107C145.704 28.4951 145.54 27.8441 145.545 27.0576V15.4326Z" fill="#949494"/>
</svg>
