<svg width="152" height="43" viewBox="0 0 152 43" fill="none" xmlns="http://www.w3.org/2000/svg">
<g opacity="0.6">
<path d="M29.2787 25.7584L25.1035 29.9335L21.5745 33.4625L12.9757 42.0613C11.9816 43.0554 10.3911 43.0554 9.44673 42.0613C8.94969 41.5643 8.70117 40.9181 8.70117 40.272C8.70117 39.6258 8.94969 38.9797 9.44673 38.4826L18.0456 29.8838L21.5745 26.3548L25.7497 22.1797L29.2787 25.7584Z" fill="#949494"/>
<path d="M42.9976 11.0467C42.9976 11.6929 42.7491 12.339 42.2521 12.8361L32.8083 22.2799L29.2793 18.7509L38.7231 9.30709C39.7172 8.313 41.258 8.313 42.2521 9.30709C42.7491 9.75442 42.9976 10.4006 42.9976 11.0467Z" fill="#949494"/>
<path d="M35.2936 3.34263C35.2936 3.98878 35.0451 4.63492 34.548 5.13197L17.4001 22.2799L13.8711 18.7509L18.0462 14.5758L21.5752 11.0468L31.019 1.60298C32.0131 0.608901 33.5539 0.608901 34.548 1.60298C35.0451 2.05032 35.2936 2.69648 35.2936 3.34263Z" fill="#949494"/>
<path d="M13.8714 25.7584L5.2726 34.3572C4.27852 35.3513 2.73769 35.3513 1.74361 34.3572C1.24657 33.8602 0.998047 33.214 0.998047 32.5679C0.998047 31.9217 1.24657 31.2755 1.74361 30.7785L10.3424 22.1797L13.8714 25.7584Z" fill="#949494"/>
<path d="M21.5738 10.997L18.0448 14.526L8.60103 5.08218C7.60695 4.08809 7.60695 2.54726 8.60103 1.55318C9.09807 1.05614 9.74423 0.807617 10.3904 0.807617C11.0365 0.807617 11.6827 1.05614 12.1797 1.55318L21.5738 10.997Z" fill="#949494"/>
<path d="M41.407 34.4081C40.91 34.9052 40.2639 35.1537 39.6177 35.1537C38.9715 35.1537 38.3254 34.9052 37.8284 34.4081L21.5254 18.1052L25.0544 14.5762L29.2295 18.7513L32.7585 22.2803L41.3573 30.8791C42.4011 31.8235 42.4011 33.4141 41.407 34.4081Z" fill="#949494"/>
<path d="M21.5748 26.4052L18.0458 29.9342L0.897906 12.7863C-0.096177 11.7922 -0.096177 10.2017 0.897906 9.25728C1.39495 8.76024 2.0411 8.51172 2.68725 8.51172C3.33341 8.51172 3.97956 8.76024 4.4766 9.25728L13.9204 18.7011L17.4494 22.2301L21.5748 26.4052Z" fill="#949494"/>
<path d="M33.7517 42.0614C33.2547 42.5584 32.6085 42.807 31.9624 42.807C31.3162 42.807 30.6701 42.5584 30.173 42.0614L21.5742 33.4626L25.1032 29.9336L33.7517 38.5324C34.6961 39.5265 34.6961 41.117 33.7517 42.0614Z" fill="#949494"/>
</g>
<path d="M72.7695 14.3076V30.3076H69.8477L62.8867 20.2373H62.7695V30.3076H59.3867V14.3076H62.3555L69.2617 24.3701H69.4023V14.3076H72.7695ZM81.9551 18.3076V20.8076H74.5488V18.3076H81.9551ZM76.2441 30.3076V17.4404C76.2441 16.5706 76.4134 15.8493 76.752 15.2764C77.0957 14.7034 77.5645 14.2738 78.1582 13.9873C78.752 13.7008 79.4264 13.5576 80.1816 13.5576C80.6921 13.5576 81.1582 13.5967 81.5801 13.6748C82.0072 13.7529 82.3249 13.8232 82.5332 13.8857L81.9395 16.3857C81.8092 16.3441 81.6478 16.305 81.4551 16.2686C81.2676 16.2321 81.0749 16.2139 80.877 16.2139C80.3874 16.2139 80.0462 16.3285 79.8535 16.5576C79.6608 16.7816 79.5645 17.0967 79.5645 17.5029V30.3076H76.2441ZM90.3711 18.3076V20.8076H83.1445V18.3076H90.3711ZM84.7852 15.4326H88.1133V26.6201C88.1133 26.9274 88.1602 27.167 88.2539 27.3389C88.3477 27.5055 88.4779 27.6227 88.6445 27.6904C88.8164 27.7581 89.0143 27.792 89.2383 27.792C89.3945 27.792 89.5508 27.779 89.707 27.7529C89.8633 27.7217 89.9831 27.6982 90.0664 27.6826L90.5898 30.1592C90.4232 30.2113 90.1888 30.2712 89.8867 30.3389C89.5846 30.4118 89.2174 30.4561 88.7852 30.4717C87.9831 30.5029 87.2799 30.3962 86.6758 30.1514C86.0768 29.9066 85.6107 29.5264 85.2773 29.0107C84.944 28.4951 84.7799 27.8441 84.7852 27.0576V15.4326ZM97.5215 30.3076V28.2998L105.506 17.0967H97.5059V14.3076H109.756V16.3154L101.764 27.5186H109.771V30.3076H97.5215ZM117.727 30.542C116.513 30.542 115.464 30.2842 114.578 29.7686C113.698 29.2477 113.018 28.5238 112.539 27.5967C112.06 26.6644 111.82 25.5837 111.82 24.3545C111.82 23.1149 112.06 22.0316 112.539 21.1045C113.018 20.1722 113.698 19.4482 114.578 18.9326C115.464 18.4118 116.513 18.1514 117.727 18.1514C118.94 18.1514 119.987 18.4118 120.867 18.9326C121.753 19.4482 122.435 20.1722 122.914 21.1045C123.393 22.0316 123.633 23.1149 123.633 24.3545C123.633 25.5837 123.393 26.6644 122.914 27.5967C122.435 28.5238 121.753 29.2477 120.867 29.7686C119.987 30.2842 118.94 30.542 117.727 30.542ZM117.742 27.9639C118.294 27.9639 118.755 27.8076 119.125 27.4951C119.495 27.1774 119.773 26.7451 119.961 26.1982C120.154 25.6514 120.25 25.029 120.25 24.3311C120.25 23.6331 120.154 23.0107 119.961 22.4639C119.773 21.917 119.495 21.4847 119.125 21.167C118.755 20.8493 118.294 20.6904 117.742 20.6904C117.185 20.6904 116.716 20.8493 116.336 21.167C115.961 21.4847 115.677 21.917 115.484 22.4639C115.297 23.0107 115.203 23.6331 115.203 24.3311C115.203 25.029 115.297 25.6514 115.484 26.1982C115.677 26.7451 115.961 27.1774 116.336 27.4951C116.716 27.8076 117.185 27.9639 117.742 27.9639ZM129.125 23.3701V30.3076H125.797V18.3076H128.969V20.4248H129.109C129.375 19.7269 129.82 19.1748 130.445 18.7686C131.07 18.3571 131.828 18.1514 132.719 18.1514C133.552 18.1514 134.279 18.3337 134.898 18.6982C135.518 19.0628 136 19.5837 136.344 20.2607C136.688 20.9326 136.859 21.7347 136.859 22.667V30.3076H133.531V23.2607C133.536 22.5264 133.349 21.9535 132.969 21.542C132.589 21.1253 132.065 20.917 131.398 20.917C130.951 20.917 130.555 21.0133 130.211 21.2061C129.872 21.3988 129.607 21.68 129.414 22.0498C129.227 22.4144 129.13 22.8545 129.125 23.3701ZM144.951 30.542C143.717 30.542 142.654 30.292 141.764 29.792C140.878 29.2868 140.196 28.5732 139.717 27.6514C139.238 26.7243 138.998 25.6279 138.998 24.3623C138.998 23.1279 139.238 22.0446 139.717 21.1123C140.196 20.18 140.87 19.4535 141.74 18.9326C142.615 18.4118 143.641 18.1514 144.818 18.1514C145.61 18.1514 146.347 18.279 147.029 18.5342C147.717 18.7842 148.316 19.1618 148.826 19.667C149.342 20.1722 149.743 20.8076 150.029 21.5732C150.316 22.3337 150.459 23.2243 150.459 24.2451V25.1592H140.326V23.0967H147.326C147.326 22.6175 147.222 22.193 147.014 21.8232C146.805 21.4535 146.516 21.1644 146.146 20.9561C145.782 20.7425 145.357 20.6357 144.873 20.6357C144.368 20.6357 143.92 20.7529 143.529 20.9873C143.144 21.2165 142.842 21.5264 142.623 21.917C142.404 22.3024 142.292 22.7321 142.287 23.2061V25.167C142.287 25.7607 142.396 26.2738 142.615 26.7061C142.839 27.1383 143.154 27.4717 143.561 27.7061C143.967 27.9404 144.449 28.0576 145.006 28.0576C145.376 28.0576 145.714 28.0055 146.021 27.9014C146.329 27.7972 146.592 27.641 146.811 27.4326C147.029 27.2243 147.196 26.9691 147.311 26.667L150.389 26.8701C150.232 27.6097 149.912 28.2555 149.428 28.8076C148.949 29.3545 148.329 29.7816 147.568 30.0889C146.813 30.391 145.941 30.542 144.951 30.542Z" fill="#949494"/>
</svg>
