<svg width="172" height="43" viewBox="0 0 172 43" fill="none" xmlns="http://www.w3.org/2000/svg">
<g opacity="0.6">
<path d="M29.3861 25.6197L25.211 29.7949L21.682 33.3238L13.0831 41.9227C12.0891 42.9168 10.4985 42.9168 9.55416 41.9227C9.05711 41.4256 8.80859 40.7795 8.80859 40.1333C8.80859 39.4872 9.05711 38.841 9.55416 38.344L18.153 29.7452L21.682 26.2162L25.8571 22.041L29.3861 25.6197Z" fill="#949494"/>
<path d="M43.1051 10.9071C43.1051 11.5532 42.8565 12.1994 42.3595 12.6964L32.9157 22.1402L29.3867 18.6112L38.8305 9.16744C39.8246 8.17335 41.3654 8.17335 42.3595 9.16744C42.8565 9.61477 43.1051 10.2609 43.1051 10.9071Z" fill="#949494"/>
<path d="M35.401 3.20396C35.401 3.85011 35.1525 4.49625 34.6554 4.99329L17.5075 22.1412L13.9785 18.6122L18.1537 14.4371L21.6827 10.9081L31.1264 1.46431C32.1205 0.470229 33.6614 0.470229 34.6554 1.46431C35.1525 1.91165 35.401 2.5578 35.401 3.20396Z" fill="#949494"/>
<path d="M13.9788 25.6197L5.38002 34.2185C4.38594 35.2126 2.84511 35.2126 1.85103 34.2185C1.35399 33.7215 1.10547 33.0753 1.10547 32.4292C1.10547 31.783 1.35399 31.1369 1.85103 30.6398L10.4498 22.041L13.9788 25.6197Z" fill="#949494"/>
<path d="M21.6832 10.8583L18.1542 14.3873L8.71041 4.9435C7.71632 3.94942 7.71632 2.40859 8.71041 1.41451C9.20745 0.917466 9.8536 0.668945 10.4998 0.668945C11.1459 0.668945 11.7921 0.917466 12.2891 1.41451L21.6832 10.8583Z" fill="#949494"/>
<path d="M41.5145 34.2695C41.0174 34.7665 40.3713 35.015 39.7251 35.015C39.079 35.015 38.4328 34.7665 37.9358 34.2695L21.6328 17.9665L25.1618 14.4375L29.337 18.6127L32.8659 22.1416L41.4648 30.7405C42.5086 31.6848 42.5086 33.2754 41.5145 34.2695Z" fill="#949494"/>
<path d="M21.6823 26.2665L18.1533 29.7955L1.00533 12.6476C0.0112449 11.6535 0.0112449 10.063 1.00533 9.11861C1.50237 8.62157 2.14852 8.37305 2.79468 8.37305C3.44083 8.37305 4.08698 8.62157 4.58403 9.11861L14.0278 18.5624L17.5568 22.0914L21.6823 26.2665Z" fill="#949494"/>
<path d="M33.8592 41.9227C33.3621 42.4198 32.716 42.6683 32.0698 42.6683C31.4237 42.6683 30.7775 42.4198 30.2805 41.9227L21.6816 33.3239L25.2106 29.7949L33.8592 38.3937C34.8035 39.3878 34.8035 40.9784 33.8592 41.9227Z" fill="#949494"/>
</g>
<path d="M59.4961 30.1689V14.1689H62.8789V21.2236H63.0898L68.8477 14.1689H72.9023L66.9648 21.333L72.9727 30.1689H68.9258L64.543 23.5908L62.8789 25.6221V30.1689H59.4961ZM79.1426 30.4033C77.929 30.4033 76.8796 30.1455 75.9941 29.6299C75.1139 29.109 74.4342 28.3851 73.9551 27.458C73.4759 26.5257 73.2363 25.445 73.2363 24.2158C73.2363 22.9762 73.4759 21.8929 73.9551 20.9658C74.4342 20.0335 75.1139 19.3096 75.9941 18.7939C76.8796 18.2731 77.929 18.0127 79.1426 18.0127C80.3561 18.0127 81.403 18.2731 82.2832 18.7939C83.1686 19.3096 83.8509 20.0335 84.3301 20.9658C84.8092 21.8929 85.0488 22.9762 85.0488 24.2158C85.0488 25.445 84.8092 26.5257 84.3301 27.458C83.8509 28.3851 83.1686 29.109 82.2832 29.6299C81.403 30.1455 80.3561 30.4033 79.1426 30.4033ZM79.1582 27.8252C79.7103 27.8252 80.1712 27.6689 80.541 27.3564C80.9108 27.0387 81.1895 26.6064 81.377 26.0596C81.5697 25.5127 81.666 24.8903 81.666 24.1924C81.666 23.4945 81.5697 22.8721 81.377 22.3252C81.1895 21.7783 80.9108 21.346 80.541 21.0283C80.1712 20.7106 79.7103 20.5518 79.1582 20.5518C78.6009 20.5518 78.1322 20.7106 77.752 21.0283C77.377 21.346 77.0931 21.7783 76.9004 22.3252C76.7129 22.8721 76.6191 23.4945 76.6191 24.1924C76.6191 24.8903 76.7129 25.5127 76.9004 26.0596C77.0931 26.6064 77.377 27.0387 77.752 27.3564C78.1322 27.6689 78.6009 27.8252 79.1582 27.8252ZM90.6348 30.3955C89.8691 30.3955 89.1868 30.2627 88.5879 29.9971C87.9889 29.7262 87.515 29.3278 87.166 28.8018C86.8223 28.2705 86.6504 27.609 86.6504 26.8174C86.6504 26.1507 86.7728 25.5908 87.0176 25.1377C87.2624 24.6846 87.5957 24.32 88.0176 24.0439C88.4395 23.7679 88.9186 23.5596 89.4551 23.4189C89.9967 23.2783 90.5645 23.1794 91.1582 23.1221C91.8561 23.0492 92.4186 22.9814 92.8457 22.9189C93.2728 22.8512 93.5827 22.7523 93.7754 22.6221C93.9681 22.4919 94.0645 22.2992 94.0645 22.0439V21.9971C94.0645 21.5023 93.9082 21.1195 93.5957 20.8486C93.2884 20.5778 92.8509 20.4424 92.2832 20.4424C91.6842 20.4424 91.2077 20.5752 90.8535 20.8408C90.4993 21.1012 90.265 21.4294 90.1504 21.8252L87.0723 21.5752C87.2285 20.846 87.5358 20.2158 87.9941 19.6846C88.4525 19.1481 89.0436 18.7367 89.7676 18.4502C90.4967 18.1585 91.3405 18.0127 92.2988 18.0127C92.9655 18.0127 93.6035 18.0908 94.2129 18.2471C94.8275 18.4033 95.3717 18.6455 95.8457 18.9736C96.3249 19.3018 96.7025 19.7236 96.9785 20.2393C97.2546 20.7497 97.3926 21.3617 97.3926 22.0752V30.1689H94.2363V28.5049H94.1426C93.9499 28.8799 93.6921 29.2106 93.3691 29.4971C93.0462 29.7783 92.6582 29.9997 92.2051 30.1611C91.752 30.3174 91.2285 30.3955 90.6348 30.3955ZM91.5879 28.0986C92.0775 28.0986 92.5098 28.0023 92.8848 27.8096C93.2598 27.6117 93.554 27.346 93.7676 27.0127C93.9811 26.6794 94.0879 26.3018 94.0879 25.8799V24.6064C93.9837 24.6742 93.8405 24.7367 93.6582 24.7939C93.4811 24.846 93.2806 24.8955 93.0566 24.9424C92.8327 24.984 92.6087 25.0231 92.3848 25.0596C92.1608 25.0908 91.9577 25.1195 91.7754 25.1455C91.3848 25.2028 91.0436 25.2939 90.752 25.4189C90.4603 25.5439 90.2337 25.7132 90.0723 25.9268C89.9108 26.1351 89.8301 26.3955 89.8301 26.708C89.8301 27.1611 89.9941 27.5075 90.3223 27.7471C90.6556 27.9814 91.0775 28.0986 91.5879 28.0986ZM103.303 14.1689V30.1689H99.9746V14.1689H103.303ZM109.391 30.3955C108.625 30.3955 107.943 30.2627 107.344 29.9971C106.745 29.7262 106.271 29.3278 105.922 28.8018C105.578 28.2705 105.406 27.609 105.406 26.8174C105.406 26.1507 105.529 25.5908 105.773 25.1377C106.018 24.6846 106.352 24.32 106.773 24.0439C107.195 23.7679 107.674 23.5596 108.211 23.4189C108.753 23.2783 109.32 23.1794 109.914 23.1221C110.612 23.0492 111.174 22.9814 111.602 22.9189C112.029 22.8512 112.339 22.7523 112.531 22.6221C112.724 22.4919 112.82 22.2992 112.82 22.0439V21.9971C112.82 21.5023 112.664 21.1195 112.352 20.8486C112.044 20.5778 111.607 20.4424 111.039 20.4424C110.44 20.4424 109.964 20.5752 109.609 20.8408C109.255 21.1012 109.021 21.4294 108.906 21.8252L105.828 21.5752C105.984 20.846 106.292 20.2158 106.75 19.6846C107.208 19.1481 107.799 18.7367 108.523 18.4502C109.253 18.1585 110.096 18.0127 111.055 18.0127C111.721 18.0127 112.359 18.0908 112.969 18.2471C113.583 18.4033 114.128 18.6455 114.602 18.9736C115.081 19.3018 115.458 19.7236 115.734 20.2393C116.01 20.7497 116.148 21.3617 116.148 22.0752V30.1689H112.992V28.5049H112.898C112.706 28.8799 112.448 29.2106 112.125 29.4971C111.802 29.7783 111.414 29.9997 110.961 30.1611C110.508 30.3174 109.984 30.3955 109.391 30.3955ZM110.344 28.0986C110.833 28.0986 111.266 28.0023 111.641 27.8096C112.016 27.6117 112.31 27.346 112.523 27.0127C112.737 26.6794 112.844 26.3018 112.844 25.8799V24.6064C112.74 24.6742 112.596 24.7367 112.414 24.7939C112.237 24.846 112.036 24.8955 111.813 24.9424C111.589 24.984 111.365 25.0231 111.141 25.0596C110.917 25.0908 110.714 25.1195 110.531 25.1455C110.141 25.2028 109.799 25.2939 109.508 25.4189C109.216 25.5439 108.99 25.7132 108.828 25.9268C108.667 26.1351 108.586 26.3955 108.586 26.708C108.586 27.1611 108.75 27.5075 109.078 27.7471C109.411 27.9814 109.833 28.0986 110.344 28.0986ZM123.885 30.1689V14.1689H127.268V21.2236H127.479L133.236 14.1689H137.291L131.354 21.333L137.361 30.1689H133.314L128.932 23.5908L127.268 25.6221V30.1689H123.885ZM139.742 30.1689V18.1689H143.07V30.1689H139.742ZM141.414 16.6221C140.919 16.6221 140.495 16.458 140.141 16.1299C139.792 15.7965 139.617 15.3981 139.617 14.9346C139.617 14.4762 139.792 14.083 140.141 13.7549C140.495 13.4215 140.919 13.2549 141.414 13.2549C141.909 13.2549 142.331 13.4215 142.68 13.7549C143.034 14.083 143.211 14.4762 143.211 14.9346C143.211 15.3981 143.034 15.7965 142.68 16.1299C142.331 16.458 141.909 16.6221 141.414 16.6221ZM151.158 30.4033C149.929 30.4033 148.872 30.1429 147.986 29.6221C147.106 29.096 146.429 28.3669 145.955 27.4346C145.486 26.5023 145.252 25.4294 145.252 24.2158C145.252 22.9867 145.489 21.9085 145.963 20.9814C146.442 20.0492 147.122 19.3226 148.002 18.8018C148.882 18.2757 149.929 18.0127 151.143 18.0127C152.189 18.0127 153.106 18.2028 153.893 18.583C154.679 18.9632 155.301 19.4971 155.76 20.1846C156.218 20.8721 156.471 21.6794 156.518 22.6064H153.377C153.288 22.0075 153.054 21.5257 152.674 21.1611C152.299 20.7913 151.807 20.6064 151.197 20.6064C150.682 20.6064 150.231 20.7471 149.846 21.0283C149.465 21.3044 149.169 21.708 148.955 22.2393C148.742 22.7705 148.635 23.4137 148.635 24.1689C148.635 24.9346 148.739 25.5856 148.947 26.1221C149.161 26.6585 149.46 27.0674 149.846 27.3486C150.231 27.6299 150.682 27.7705 151.197 27.7705C151.577 27.7705 151.919 27.6924 152.221 27.5361C152.528 27.3799 152.781 27.1533 152.979 26.8564C153.182 26.5544 153.314 26.1924 153.377 25.7705H156.518C156.465 26.6872 156.215 27.4945 155.768 28.1924C155.325 28.8851 154.713 29.4268 153.932 29.8174C153.15 30.208 152.226 30.4033 151.158 30.4033ZM161.664 26.7158L161.672 22.7236H162.156L166 18.1689H169.82L164.656 24.2002H163.867L161.664 26.7158ZM158.648 30.1689V14.1689H161.977V30.1689H158.648ZM166.148 30.1689L162.617 24.9424L164.836 22.5908L170.047 30.1689H166.148Z" fill="#949494"/>
</svg>
