<svg width="500" height="408" viewBox="0 0 500 408" fill="none" xmlns="http://www.w3.org/2000/svg">
<path d="M0 342.4H500V342.65H0V342.4Z" fill="#F2ECEC"/>
<path d="M50.1001 351.92H141V352.17H50.1001V351.92Z" fill="#F2ECEC"/>
<path d="M168.782 349.21H193.672V349.46H168.782V349.21Z" fill="#F2ECEC"/>
<path d="M111.89 361.21H150.48V361.46H111.89V361.21Z" fill="#F2ECEC"/>
<path d="M424.899 359.53H447.539V359.78H424.899V359.53Z" fill="#F2ECEC"/>
<path d="M389.11 359.53H416V359.78H389.11V359.53Z" fill="#F2ECEC"/>
<path d="M274.851 355.31H321.691V355.56H274.851V355.31Z" fill="#F2ECEC"/>
<path d="M262.999 297.8H456.089C457.602 297.797 459.052 297.195 460.12 296.124C461.189 295.053 461.789 293.603 461.789 292.09V20.66C461.776 19.156 461.17 17.718 460.103 16.6582C459.035 15.5985 457.593 15.0026 456.089 15H262.999C261.485 15 260.032 15.6016 258.961 16.6724C257.891 17.7433 257.289 19.1956 257.289 20.71V292.09C257.289 293.604 257.891 295.057 258.961 296.128C260.032 297.198 261.485 297.8 262.999 297.8ZM456.089 15.2C457.535 15.2026 458.922 15.7791 459.943 16.8027C460.965 17.8264 461.539 19.2136 461.539 20.66V292.09C461.539 293.536 460.965 294.924 459.943 295.947C458.922 296.971 457.535 297.547 456.089 297.55H262.999C261.552 297.547 260.165 296.971 259.141 295.948C258.118 294.924 257.542 293.537 257.539 292.09V20.66C257.542 19.2127 258.118 17.8255 259.141 16.8021C260.165 15.7787 261.552 15.2026 262.999 15.2H456.089Z" fill="#F2ECEC"/>
<path d="M46.69 297.8H239.79C241.304 297.797 242.754 297.195 243.825 296.125C244.895 295.054 245.497 293.604 245.5 292.09V20.66C245.484 19.1551 244.876 17.7171 243.807 16.6576C242.738 15.5981 241.295 15.0025 239.79 15H46.69C45.1877 15.0052 43.748 15.6022 42.6829 16.6617C41.6178 17.7212 41.0132 19.1578 41 20.66V292.09C41 293.601 41.5988 295.05 42.6653 296.121C43.7319 297.191 45.1791 297.795 46.69 297.8ZM239.79 15.2C241.237 15.2026 242.625 15.7787 243.648 16.8021C244.671 17.8255 245.247 19.2127 245.25 20.66V292.09C245.247 293.537 244.671 294.924 243.648 295.948C242.625 296.971 241.237 297.547 239.79 297.55H46.69C45.2427 297.547 43.8555 296.971 42.8321 295.948C41.8087 294.924 41.2327 293.537 41.23 292.09V20.66C41.2327 19.2127 41.8087 17.8255 42.8321 16.8021C43.8555 15.7787 45.2427 15.2026 46.69 15.2H239.79Z" fill="#F2ECEC"/>
<path d="M73.8008 336.72H55.0508L55.0508 232.7H73.8008L73.8008 336.72Z" fill="#FEFBFB"/>
<path d="M265.178 342.4H58.6484V336.71H265.178V342.4Z" fill="#EDEDED"/>
<path d="M73.8012 232.69H268.781V336.71H73.8012V232.69Z" fill="white"/>
<path d="M71.8514 232.69H52.6914V227.73H71.8514V232.69Z" fill="#EDEDED"/>
<path d="M71.8506 227.73H271.141V232.69H71.8506V227.73Z" fill="#DADADA"/>
<path d="M80.53 270.23H262V243.11H80.53V270.23ZM260.78 269H81.78V244.4H260.78V269Z" fill="#D6D6D6"/>
<path d="M80.53 326.3H262V277.75H80.53V326.3ZM260.78 325H81.78V279H260.78V325Z" fill="#D6D6D6"/>
<path d="M235.928 247.77L106.648 247.77C105.731 247.77 104.988 247.026 104.988 246.11V245.39C104.988 244.473 105.731 243.73 106.648 243.73L235.928 243.73C236.845 243.73 237.588 244.473 237.588 245.39V246.11C237.588 247.026 236.845 247.77 235.928 247.77Z" fill="#D6D6D6"/>
<path d="M235.928 282.42H106.648C105.731 282.42 104.988 281.677 104.988 280.76V280.04C104.988 279.123 105.731 278.38 106.648 278.38H235.928C236.845 278.38 237.588 279.123 237.588 280.04V280.76C237.588 281.677 236.845 282.42 235.928 282.42Z" fill="#D6D6D6"/>
<path d="M442.899 342.4H435.109V210H442.899V342.4Z" fill="#D1D1D1"/>
<path d="M445.351 342.4H439.941V210H445.351V342.4Z" fill="#EDEDED"/>
<path d="M354.351 210H447.031V219.57H354.351V210Z" fill="#EDEDED"/>
<path d="M350.86 342.4H343.07V219.58H350.86V342.4Z" fill="#D1D1D1"/>
<path d="M353.308 342.4H347.898V219.58H353.308V342.4Z" fill="#EDEDED"/>
<path d="M301.552 342.4H293.762V219.58H301.552V342.4Z" fill="#D1D1D1"/>
<path d="M304.019 342.4H298.609V219.58H304.019V342.4Z" fill="#EDEDED"/>
<path d="M393.591 342.4H385.801V219.58H393.591V342.4Z" fill="#D1D1D1"/>
<path d="M396.051 342.4H390.641V219.58H396.051V342.4Z" fill="#EDEDED"/>
<path d="M354.342 219.57H293.762V210H354.342V219.57Z" fill="#D1D1D1"/>
<path d="M362.2 135.97H437.09L430.46 78H368.83L362.2 135.97Z" fill="#CDCDFF"/>
<path d="M395.569 135.97H403.719V210H395.569V135.97Z" fill="#BFBFFF"/>
<path d="M383.002 210H416.262C416.262 209.061 415.889 208.161 415.225 207.497C414.561 206.833 413.661 206.46 412.722 206.46H386.572C386.104 206.456 385.641 206.545 385.208 206.721C384.775 206.897 384.381 207.157 384.049 207.486C383.717 207.815 383.454 208.207 383.274 208.638C383.094 209.07 383.002 209.533 383.002 210Z" fill="#B2B2FF"/>
<path d="M395.569 142.38L403.719 138.49V135.97H395.569V142.38Z" fill="#B2B2FF"/>
<path d="M364.609 209.79H329.439L325.089 162.02H360.259L364.609 209.79Z" fill="#B2B2FF"/>
<path d="M366.43 209.79H331.26L326.91 162.02H362.08L366.43 209.79Z" fill="#BFBFFF"/>
<path d="M336.07 204.5L332.68 167.31H357.27L360.66 204.5H336.07Z" fill="#CDCDFF"/>
<path d="M75.2083 175.53H146.598L160.488 225H89.0983L75.2083 175.53Z" fill="#B3B3FF"/>
<path d="M89.0991 225L89.3791 227.73H160.789L160.499 225H89.0991Z" fill="#B3B3FF"/>
<path d="M77.4014 175.53H148.801L162.691 225H91.2914L77.4014 175.53Z" fill="#BFBFFF"/>
<path d="M92.1005 221.77L80.6105 178.93C80.4505 178.32 80.7605 177.79 81.2805 177.79H146.921C147.183 177.821 147.429 177.935 147.623 178.114C147.817 178.294 147.949 178.531 148.001 178.79L159.481 221.6C159.651 222.21 159.341 222.74 158.821 222.74H93.1805C92.9209 222.714 92.6763 222.606 92.4822 222.431C92.2881 222.257 92.1544 222.025 92.1005 221.77Z" fill="#CDCDFF"/>
<path d="M109.899 225L110.189 227.73H188.809L188.519 225H109.899Z" fill="#BFBFFF"/>
<path d="M113.264 62.0385C113.627 55.8018 115.977 49.6052 120.314 43.4487C124.651 37.2921 130.774 32.3235 138.685 28.5428C146.576 24.781 155.634 23.1806 165.859 23.7416C175.367 24.2648 183.657 26.4828 190.728 30.3955C197.381 33.8987 202.94 39.1689 206.793 45.6265C210.334 51.6425 212.001 58.5777 211.58 65.5457C211.416 70.6397 209.971 75.6103 207.38 79.999C205.04 83.8916 202.119 87.404 198.718 90.4147C195.442 93.295 189.575 98.1104 181.118 104.861C179.144 106.447 177.256 108.137 175.461 109.924C174.227 111.142 173.144 112.505 172.237 113.983C171.532 115.17 170.949 116.425 170.497 117.73C170.066 118.996 169.401 121.202 168.503 124.377C166.877 131.123 162.79 134.314 156.242 133.951C154.657 133.902 153.097 133.54 151.652 132.884C150.208 132.229 148.908 131.294 147.827 130.133C145.631 127.776 144.653 124.403 144.893 120.014C145.09 110.782 148.943 102.005 155.606 95.6119C159.446 92.0197 163.465 88.6236 167.648 85.4367C172.039 81.993 175.228 79.398 177.194 77.6302C179.153 75.8828 180.857 73.8691 182.256 71.6481C183.662 69.4422 184.467 66.907 184.59 64.2942C184.766 61.7933 184.401 59.2837 183.519 56.937C182.636 54.5902 181.258 52.4616 179.478 50.6965C175.763 46.8687 170.844 44.778 164.72 44.4245C157.508 44.0285 152.101 45.5558 148.499 49.0065C144.898 52.4572 141.713 57.6686 138.946 64.6406C136.316 71.9191 131.896 75.3957 125.688 75.0705C123.953 75.0102 122.251 74.5885 120.688 73.8323C119.126 73.0762 117.739 72.0023 116.616 70.6793C115.512 69.5332 114.647 68.179 114.072 66.6955C113.497 65.2121 113.222 63.6291 113.264 62.0385ZM155.231 172.368C151.376 172.209 147.719 170.615 144.978 167.899C142.145 165.151 140.853 161.451 141.103 156.798C141.179 154.856 141.656 152.951 142.506 151.203C143.355 149.456 144.558 147.903 146.038 146.644C147.51 145.34 149.228 144.347 151.092 143.722C152.956 143.098 154.926 142.855 156.885 143.009C158.819 143.086 160.717 143.55 162.467 144.375C164.217 145.199 165.784 146.367 167.074 147.809C168.364 149.251 169.352 150.937 169.977 152.768C170.603 154.599 170.854 156.537 170.716 158.467C170.462 163.049 168.793 166.565 165.71 169.017C162.768 171.421 159.022 172.619 155.231 172.368Z" fill="#B5C7F1"/>
<path opacity="0.5" d="M286.748 54.6062C287.241 51.0202 288.748 47.6496 291.092 44.891C293.827 41.577 297.375 39.0284 301.388 37.4941C306.059 35.6879 311.112 35.0963 316.074 35.7746C320.704 36.2044 325.177 37.6784 329.155 40.0858C332.602 42.1681 335.409 45.1588 337.269 48.7303C338.997 52.0713 339.686 55.8528 339.247 59.5885C338.999 62.3088 338.068 64.9226 336.541 67.1876C335.169 69.1975 333.498 70.986 331.585 72.4911C329.748 73.9289 326.459 76.3218 321.717 79.6698C320.608 80.4508 319.545 81.2956 318.533 82.2C317.834 82.8105 317.214 83.5053 316.686 84.2686C316.267 84.879 315.915 85.5322 315.634 86.2172C315.366 86.879 314.942 88.0384 314.353 89.6662C313.239 93.2362 310.953 94.815 307.495 94.4026C306.649 94.3266 305.825 94.084 305.073 93.6887C304.32 93.2934 303.653 92.7532 303.11 92.0992C302.531 91.3184 302.122 90.4258 301.907 89.4781C301.692 88.5303 301.677 87.5483 301.863 86.5944C302.258 81.6645 304.592 77.0926 308.353 73.8813C310.514 72.0703 312.763 70.3688 315.094 68.7831C317.549 67.0899 319.334 65.7936 320.445 64.9162C321.546 64.042 322.519 63.0181 323.336 61.8743C324.156 60.7361 324.666 59.4043 324.816 58.0095C324.99 56.6785 324.873 55.3256 324.474 54.0439C324.076 52.7622 323.404 51.5821 322.506 50.5845C320.532 48.3882 317.785 47.0395 314.84 46.8202C310.996 46.3803 308.062 47.0248 306.041 48.7535C303.628 51.0059 301.722 53.7471 300.452 56.7942C298.81 60.6091 296.325 62.3101 292.998 61.8971C292.073 61.8078 291.176 61.527 290.364 61.0725C289.553 60.6181 288.844 59.9999 288.285 59.2572C287.733 58.6225 287.313 57.8845 287.049 57.086C286.786 56.2876 286.683 55.4446 286.748 54.6062ZM305.743 114.946C303.687 114.739 301.782 113.773 300.4 112.237C299.685 111.426 299.159 110.467 298.859 109.428C298.56 108.39 298.494 107.298 298.666 106.231C298.761 105.193 299.072 104.186 299.578 103.275C300.084 102.364 300.775 101.568 301.607 100.939C302.436 100.289 303.387 99.8136 304.405 99.5409C305.423 99.2683 306.485 99.2043 307.528 99.3529C308.559 99.4546 309.559 99.7623 310.469 100.258C311.38 100.753 312.181 101.427 312.826 102.238C313.471 103.049 313.947 103.981 314.225 104.979C314.503 105.977 314.577 107.021 314.444 108.049C314.376 109.13 314.07 110.183 313.547 111.132C313.025 112.081 312.299 112.903 311.422 113.538C309.775 114.708 307.746 115.211 305.743 114.946Z" fill="#3772FF" fill-opacity="0.5"/>
<g opacity="0.1">
<path opacity="0.1" d="M137.855 91.1599C138.759 89.7367 139.241 88.0861 139.244 86.3999C139.278 84.402 138.788 82.4301 137.824 80.6799C136.712 78.6414 135.098 76.9204 133.134 75.6799C131.364 74.4332 129.332 73.6057 127.194 73.2599C125.342 72.9596 123.443 73.1741 121.704 73.8799C120.076 74.5392 118.683 75.6712 117.704 77.1299C116.97 78.1687 116.509 79.3759 116.364 80.6399C116.25 81.7649 116.304 82.9007 116.524 84.0099C116.744 85.0832 117.191 86.9232 117.864 89.5299C118.016 90.1433 118.136 90.7641 118.224 91.3899C118.341 92.1602 118.279 92.947 118.044 93.6899C117.934 94.0099 117.734 94.5499 117.434 95.3099C117.252 95.6213 117.133 95.9658 117.085 96.3234C117.036 96.6811 117.059 97.0448 117.152 97.3935C117.245 97.7423 117.406 98.0691 117.626 98.3551C117.847 98.6411 118.121 98.8807 118.434 99.0599C119.085 99.5168 119.891 99.6967 120.674 99.5599C121.116 99.4602 121.532 99.269 121.896 98.9986C122.259 98.7282 122.562 98.3845 122.784 97.9899C123.489 96.9922 123.985 95.8632 124.244 94.6699C124.452 93.6354 124.475 92.5725 124.314 91.5299C124.098 90.2359 123.815 88.9541 123.464 87.6899C123.104 86.3399 122.864 85.3499 122.734 84.6899C122.609 84.0311 122.572 83.3585 122.624 82.6899C122.682 82.0375 122.905 81.4108 123.274 80.8699C123.616 80.347 124.066 79.9039 124.594 79.5708C125.122 79.2377 125.716 79.0225 126.334 78.9399C127.709 78.7526 129.102 79.1117 130.214 79.9399C130.846 80.2906 131.398 80.7685 131.835 81.3434C132.272 81.9183 132.585 82.5777 132.754 83.2799C132.928 84.808 132.775 86.3556 132.304 87.8199C131.734 89.6699 132.104 91.0199 133.394 91.8899C133.749 92.1368 134.15 92.3077 134.573 92.3921C134.997 92.4764 135.433 92.4722 135.855 92.3799C136.253 92.3211 136.635 92.1828 136.978 91.9732C137.322 91.7636 137.62 91.487 137.855 91.1599ZM112.904 106.82C113.697 107.362 114.662 107.593 115.614 107.47C116.117 107.398 116.598 107.215 117.02 106.933C117.442 106.65 117.796 106.277 118.054 105.84C118.334 105.444 118.528 104.994 118.624 104.519C118.721 104.044 118.717 103.554 118.614 103.08C118.518 102.599 118.325 102.142 118.049 101.737C117.772 101.331 117.417 100.986 117.004 100.72C116.608 100.444 116.161 100.251 115.688 100.153C115.215 100.055 114.728 100.054 114.254 100.15C113.779 100.238 113.327 100.422 112.926 100.692C112.525 100.962 112.184 101.312 111.924 101.72C111.623 102.124 111.414 102.59 111.312 103.084C111.21 103.579 111.218 104.089 111.334 104.58C111.559 105.497 112.119 106.296 112.904 106.82Z" fill="#407BFF" fill-opacity="0.3"/>
</g>
<path d="M316.127 389.6L324.176 387.513L319.374 369.105L311.325 371.192L316.127 389.6Z" fill="#FFC3BD"/>
<path d="M324.263 385.384L315.277 388.227C315.202 388.245 315.132 388.279 315.071 388.325C315.009 388.371 314.957 388.429 314.919 388.496C314.88 388.562 314.855 388.636 314.845 388.712C314.835 388.788 314.841 388.866 314.862 388.94L316.757 395.913C316.89 396.279 317.159 396.58 317.508 396.753C317.857 396.925 318.259 396.956 318.631 396.84C321.74 395.775 323.177 395.158 327.148 393.901C329.586 393.135 335.463 391.399 338.859 390.335C342.255 389.27 340.988 386.076 339.509 386.278C332.673 386.992 328.702 386.417 325.86 385.427C325.347 385.237 324.785 385.222 324.263 385.384Z" fill="#263238"/>
<path opacity="0.2" d="M311.325 371.203L319.374 369.116L321.844 378.602L313.795 380.689L311.325 371.203Z" fill="black"/>
<path d="M291.047 182.963C291.047 182.963 305.782 252.985 309.7 275.907C313.958 301.011 323.316 372.885 323.316 372.885L309.636 377.857C309.636 377.857 288.226 301.639 284.978 277.504C278.175 253.911 260.939 182.963 260.939 182.963H291.047Z" fill="#B5C7F1"/>
<path opacity="0.3" d="M272.127 205.821C276.907 217.298 278.643 238.197 277.812 250.696C274.022 235.94 269.817 219.086 266.559 205.885C267.613 202.254 269.061 198.443 272.127 205.821Z" fill="black"/>
<path d="M309.911 379.475L324.582 375.238L324.028 369.031L306.568 373.939L309.911 379.475Z" fill="#263238"/>
<path d="M327.564 385.831C326.838 386.039 326.092 386.171 325.339 386.225C325.301 386.232 325.262 386.226 325.227 386.209C325.193 386.192 325.165 386.164 325.147 386.129C325.127 386.1 325.116 386.064 325.116 386.028C325.116 385.992 325.127 385.957 325.147 385.927C325.349 385.672 327.106 383.468 328.203 383.532C328.329 383.536 328.451 383.573 328.559 383.638C328.667 383.703 328.757 383.795 328.82 383.904C328.929 384.058 328.995 384.237 329.011 384.424C329.028 384.611 328.995 384.799 328.916 384.969C328.586 385.412 328.105 385.719 327.564 385.831ZM325.754 385.831C327.287 385.65 328.32 385.278 328.575 384.767C328.625 384.656 328.643 384.534 328.628 384.414C328.613 384.294 328.565 384.18 328.49 384.085C328.46 384.031 328.417 383.985 328.365 383.952C328.313 383.918 328.254 383.898 328.192 383.894C327.617 383.872 326.489 384.948 325.754 385.81V385.831Z" fill="#B5C7F1"/>
<path d="M325.381 386.225H325.286C325.254 386.22 325.224 386.208 325.198 386.189C325.172 386.171 325.151 386.147 325.137 386.118C325.137 386.022 324.157 383.861 324.711 382.86C324.786 382.733 324.888 382.622 325.009 382.536C325.13 382.45 325.268 382.39 325.413 382.36C325.573 382.314 325.744 382.321 325.9 382.381C326.055 382.44 326.187 382.549 326.276 382.69C326.755 383.478 326.105 385.458 325.467 386.161C325.446 386.191 325.416 386.213 325.381 386.225ZM325.381 382.754C325.308 382.776 325.24 382.813 325.181 382.863C325.123 382.912 325.075 382.973 325.041 383.041C324.848 383.921 324.957 384.84 325.349 385.65C325.85 384.862 326.233 383.393 325.914 382.882C325.914 382.786 325.754 382.68 325.477 382.733L325.381 382.754Z" fill="#B5C7F1"/>
<path d="M279.644 122.991C280.358 124.716 281.039 126.249 281.774 127.824C282.508 129.4 283.296 130.944 284.095 132.488C285.713 135.564 287.416 138.599 289.29 141.558C293.018 147.71 297.527 153.354 302.705 158.348L302.896 158.54C303.168 158.784 303.468 158.995 303.791 159.168C304.677 159.646 305.652 159.939 306.655 160.03C307.229 160.071 307.805 160.071 308.379 160.03C309.238 159.975 310.092 159.857 310.934 159.679C312.446 159.359 313.788 158.965 315.108 158.55C317.727 157.72 320.165 156.708 322.56 155.686C324.956 154.664 327.319 153.557 329.64 152.354C331.961 151.151 334.24 149.948 336.497 148.585C337.02 148.265 337.412 147.77 337.603 147.187C337.793 146.604 337.77 145.972 337.536 145.405C337.303 144.838 336.875 144.373 336.329 144.093C335.783 143.814 335.156 143.738 334.559 143.879C329.619 145.072 324.69 146.403 319.835 147.584C317.418 148.191 315.001 148.723 312.681 149.171C311.587 149.392 310.481 149.552 309.369 149.65C308.951 149.674 308.532 149.674 308.113 149.65C307.953 149.65 307.89 149.65 307.932 149.65C308.311 149.66 308.679 149.774 308.997 149.98L310.061 150.8C308.002 148.52 306.092 146.108 304.344 143.581C302.556 140.994 300.863 138.258 299.234 135.511C297.605 132.764 296.04 129.879 294.56 126.994C293.08 124.109 291.611 121.138 290.302 118.36L290.238 118.221C289.609 116.81 288.446 115.705 287.004 115.151C285.561 114.597 283.957 114.639 282.546 115.267C281.134 115.895 280.029 117.059 279.475 118.501C278.921 119.944 278.963 121.547 279.591 122.959L279.644 122.991Z" fill="#FFC3BD"/>
<path d="M281.281 111.728C288.137 111.919 292.843 119.361 297.336 128.634C293.892 134.587 288.957 139.541 283.016 143.007C283.016 143.007 265.003 111.27 281.281 111.728Z" fill="#FFB147"/>
<path d="M336.837 148.627L343.012 147.052L338.2 140.866C338.2 140.866 332.876 141.707 330.853 146.189L333.047 147.754C333.579 148.164 334.193 148.453 334.847 148.604C335.501 148.755 336.179 148.763 336.837 148.627Z" fill="#FFC3BD"/>
<path d="M344.512 140.728L343.32 139.664C342.832 139.236 342.209 138.995 341.561 138.981C340.913 138.967 340.28 139.183 339.775 139.589L338.199 140.856L343.011 147.042L344.981 143.976C345.307 143.469 345.439 142.861 345.353 142.265C345.267 141.668 344.969 141.122 344.512 140.728Z" fill="#FFC3BD"/>
<path d="M244.086 388.642H252.507L254.52 369.883H246.098L244.086 388.642Z" fill="#FFC3BD"/>
<path d="M253.24 387.705H243.775C243.619 387.696 243.465 387.749 243.348 387.853C243.23 387.957 243.158 388.102 243.147 388.259L242.689 395.456C242.698 395.843 242.857 396.211 243.134 396.481C243.41 396.752 243.782 396.904 244.169 396.904C247.459 396.84 249.035 396.659 253.197 396.659C255.753 396.659 262.779 396.914 266.346 396.914C269.912 396.914 269.785 393.55 268.283 393.252C261.565 391.878 257.073 389.994 254.688 388.205C254.273 387.884 253.764 387.708 253.24 387.705Z" fill="#263238"/>
<path opacity="0.2" d="M246.098 369.883H254.52L253.476 379.56H245.055L246.098 369.883Z" fill="black"/>
<path d="M274.59 182.963C274.59 182.963 272.727 253.357 271.396 276.556C269.905 301.958 257.289 377.218 257.289 377.218H241.852C241.852 377.218 245.238 301 247.793 276.077C246.728 248.779 246.025 182.941 246.025 182.941L274.59 182.963Z" fill="#B5C7F1"/>
<path d="M241.229 377.218H258.732L259.562 371.586L240.761 371.905L241.229 377.218Z" fill="#263238"/>
<path d="M256.225 389.111C255.468 389.094 254.715 388.998 253.978 388.823C253.942 388.817 253.91 388.798 253.885 388.772C253.86 388.745 253.844 388.711 253.84 388.674C253.83 388.638 253.832 388.6 253.845 388.566C253.859 388.531 253.883 388.502 253.915 388.483C254.181 388.312 256.566 386.736 257.598 387.13C257.713 387.173 257.816 387.244 257.896 387.337C257.976 387.43 258.031 387.542 258.056 387.663C258.123 387.845 258.135 388.042 258.092 388.231C258.048 388.42 257.951 388.593 257.811 388.727C257.345 389.04 256.782 389.176 256.225 389.111ZM254.521 388.557C256.033 388.844 257.14 388.791 257.534 388.419C257.616 388.33 257.671 388.22 257.696 388.102C257.72 387.984 257.712 387.862 257.673 387.748C257.663 387.689 257.638 387.634 257.601 387.587C257.564 387.541 257.515 387.504 257.46 387.482C256.906 387.269 255.501 387.95 254.521 388.557Z" fill="#B5C7F1"/>
<path d="M254.026 388.833H253.93C253.901 388.816 253.877 388.793 253.859 388.766C253.84 388.738 253.828 388.707 253.823 388.674C253.823 388.578 253.632 386.246 254.484 385.48C254.592 385.376 254.724 385.298 254.868 385.254C255.013 385.209 255.165 385.199 255.314 385.224C255.478 385.226 255.638 385.283 255.767 385.385C255.896 385.487 255.987 385.629 256.027 385.789C256.219 386.672 254.963 388.365 254.122 388.844L254.026 388.833ZM255.218 385.544C255.139 385.541 255.061 385.555 254.987 385.585C254.914 385.614 254.848 385.658 254.792 385.714C254.326 386.487 254.131 387.394 254.239 388.29C254.973 387.694 255.814 386.406 255.687 385.831C255.687 385.714 255.591 385.586 255.303 385.554L255.218 385.544Z" fill="#B5C7F1"/>
<path d="M287.503 117.146C287.049 115.768 286.232 114.537 285.138 113.584C284.044 112.63 282.713 111.989 281.285 111.727C279.205 111.242 277.097 110.887 274.972 110.663C268.589 110.31 262.191 110.31 255.808 110.663C252.465 110.812 249.059 111.206 246.344 111.589H246.248C245.55 111.67 244.877 111.892 244.268 112.242C243.659 112.592 243.128 113.062 242.706 113.624C242.285 114.186 241.983 114.827 241.817 115.51C241.652 116.192 241.627 116.901 241.744 117.594C243.87 128.443 245.26 139.423 245.907 150.459C246.567 166.493 245.673 179.077 245.992 182.942H291.048C293.784 143.837 290.25 126.058 287.503 117.146Z" fill="#FFB147"/>
<path d="M252.753 86.8034C251.967 87.3709 251.342 88.1328 250.938 89.0145C250.535 89.8961 250.368 90.8673 250.453 91.8331C250.537 92.7988 250.871 93.726 251.422 94.524C251.973 95.3219 252.721 95.9632 253.594 96.3852C251.773 99.3981 256.617 104.721 261.493 101.378C266.369 98.0354 259.481 83.9607 252.753 86.8034Z" fill="#263238"/>
<path d="M272.915 83.5674C273.584 83.5872 274.246 83.4329 274.838 83.1197C275.429 82.8064 275.929 82.345 276.289 81.7805C276.648 81.216 276.855 80.5678 276.889 79.8994C276.923 79.2309 276.782 78.5652 276.481 77.9674C278.749 77.0837 278.345 72.1331 274.256 71.9202C270.168 71.7072 268.06 82.3218 272.915 83.5674Z" fill="#263238"/>
<path d="M274.243 114.847C274.548 114.567 274.775 114.213 274.901 113.819C275.028 113.425 275.05 113.005 274.965 112.6C274.88 112.196 274.691 111.82 274.417 111.51C274.143 111.2 273.794 110.967 273.402 110.833C269.293 109.321 268.547 106.34 268.877 103.093C268.972 102.18 269.121 101.273 269.325 100.378L262.351 94.8099L257.22 90.7217C258.497 96.0449 259.924 105.318 257.22 110.013C256.916 110.504 256.799 111.088 256.889 111.658C256.979 112.228 257.27 112.748 257.709 113.122C259.477 114.687 263.096 116.71 269.058 116.39C271.795 116.252 273.317 115.624 274.243 114.847Z" fill="#FFC3BD"/>
<path d="M289.811 117.337C289.303 115.805 288.408 114.429 287.212 113.343C286.017 112.258 284.561 111.499 282.986 111.141C280.966 110.82 278.929 110.607 276.886 110.502C276.673 110.472 276.455 110.495 276.253 110.569C276.05 110.644 275.87 110.767 275.727 110.929C275.585 111.09 275.485 111.285 275.436 111.495C275.387 111.705 275.392 111.924 275.449 112.131C279.015 125.376 284.104 151.875 282.528 184.698C282.521 184.902 282.556 185.106 282.63 185.296C282.704 185.487 282.816 185.66 282.96 185.805C283.103 185.951 283.275 186.066 283.465 186.142C283.654 186.219 283.857 186.257 284.062 186.252H293.005C293.393 186.259 293.768 186.117 294.055 185.856C294.342 185.595 294.519 185.234 294.548 184.847C297.242 144.742 292.483 124.758 289.811 117.337Z" fill="#EA9727"/>
<path d="M246.587 110.79C249.449 110.38 252.331 110.117 255.221 110.002C255.744 109.964 256.264 110.112 256.688 110.42C257.113 110.727 257.415 111.175 257.542 111.684C260.853 126.27 263.802 158.678 263.93 184.751C263.926 184.949 263.882 185.145 263.802 185.327C263.723 185.509 263.608 185.673 263.464 185.811C263.321 185.948 263.152 186.056 262.967 186.128C262.782 186.2 262.584 186.235 262.386 186.231H246.416C246.021 186.239 245.637 186.093 245.349 185.822C245.06 185.551 244.889 185.178 244.872 184.783C244.766 179.534 245.49 167.237 244.872 151.97C244.282 141.091 242.916 130.268 240.784 119.584C240.231 116.592 243.425 111.237 246.587 110.79Z" fill="#EA9727"/>
<path d="M240.975 115.422C237.558 120.575 234.449 125.738 231.511 131.157C230.063 133.872 228.636 136.629 227.348 139.525C226.709 140.973 226.081 142.453 225.495 144.018C224.85 145.711 224.351 147.456 224.005 149.235C223.742 150.531 223.685 151.86 223.834 153.174C224.008 154.237 224.283 155.282 224.654 156.294C225.262 157.943 226.006 159.538 226.879 161.063C228.446 163.829 230.193 166.489 232.107 169.027C235.789 173.941 239.817 178.588 244.159 182.931C244.66 183.434 245.329 183.735 246.038 183.777C246.747 183.818 247.447 183.598 248.004 183.158C248.561 182.718 248.937 182.088 249.061 181.388C249.184 180.689 249.046 179.969 248.673 179.364V179.301C245.575 174.307 242.445 169.218 239.613 164.172C238.207 161.659 236.866 159.104 235.79 156.634C234.715 154.164 233.927 151.46 234.481 151.385C234.821 150.253 235.233 149.143 235.716 148.064C236.248 146.85 236.855 145.594 237.494 144.348C238.793 141.846 240.187 139.302 241.646 136.8C244.563 131.775 247.672 126.707 250.749 121.799V121.735C251.586 120.439 251.874 118.863 251.55 117.355C251.225 115.847 250.315 114.529 249.019 113.692C247.723 112.854 246.147 112.566 244.639 112.891C243.13 113.215 241.813 114.126 240.975 115.422Z" fill="#FFC3BD"/>
<path d="M247.595 110.651C240.739 110.524 237.108 116.326 232.616 125.557C237.705 134.979 247.414 139.056 247.414 139.056C247.414 139.056 261.074 110.886 247.595 110.651Z" fill="#FFB147"/>
<path d="M251.113 179.087L255.062 180.344L247.748 185.901C247.748 185.901 241.765 182.792 243.639 179.971L244.852 179.428C246.828 178.556 249.054 178.435 251.113 179.087Z" fill="#FFC3BD"/>
<path d="M257.275 185.22L252.836 189.681C252.692 189.821 252.521 189.929 252.334 190C252.146 190.07 251.946 190.101 251.745 190.09C251.545 190.079 251.35 190.026 251.171 189.936C250.992 189.845 250.834 189.718 250.707 189.564L247.757 185.901L255.072 180.344L257.35 183.463C257.56 183.712 257.669 184.031 257.655 184.356C257.641 184.681 257.506 184.99 257.275 185.22Z" fill="#FFC3BD"/>
<path opacity="0.2" d="M269.328 100.421C269.125 101.316 268.975 102.222 268.881 103.135C266.241 103.806 262.493 100.783 262.142 98.2168C262.097 97.091 262.168 95.9636 262.355 94.8525L269.328 100.421Z" fill="black"/>
<path d="M252.848 83.1626C254.647 91.0196 255.286 95.7041 260.119 99.2068C261.7 100.363 263.56 101.08 265.508 101.284C267.456 101.488 269.424 101.172 271.21 100.368C272.997 99.5639 274.538 98.3009 275.677 96.7074C276.817 95.1139 277.513 93.2468 277.696 91.2964C278.314 83.9291 275.269 72.3138 266.667 70.2484C258.064 68.183 251.048 75.2948 252.848 83.1626Z" fill="#FFC3BD"/>
<path d="M256.486 90.0402C258.764 90.1573 261.192 82.1193 256.167 78.2439C256.965 78.6804 259.148 77.882 258.764 76.3808C260.244 76.9983 266.717 76.7321 265.152 74.1025C268.442 74.9542 275.618 73.5276 276.384 70.3869C277.151 67.2461 273.446 67.1397 272.871 67.5549C274.5 65.2765 274.468 61.9336 270.145 60.7199C265.823 59.5062 259.307 65.7556 259.307 65.7556C259.989 64.1054 257.593 62.7746 255.113 64.1906C252.632 65.6066 251.472 69.631 251.472 69.631C251.472 68.4173 245.68 70.0462 248.427 75.1352C245.584 76.1998 244.285 77.7116 244.466 80.3413C244.647 82.971 246.446 83.12 246.446 83.12C246.066 84.0668 246.013 85.1138 246.296 86.0941C246.58 87.0743 247.184 87.9314 248.011 88.5284C250.961 90.9026 253.537 88.1132 256.486 90.0402Z" fill="#263238"/>
<path d="M251.976 90.6467C252.978 92.112 254.456 93.1844 256.16 93.681C258.353 94.2665 259.099 92.3076 258.204 90.2635C257.395 88.4216 255.287 85.8878 253.222 86.2072C251.156 86.5266 250.741 88.8155 251.976 90.6467Z" fill="#FFC3BD"/>
<path d="M265.865 82.843C265.971 83.4818 266.418 83.9609 266.855 83.9076C267.291 83.8544 267.568 83.2795 267.462 82.6301C267.355 81.9806 266.908 81.5654 266.471 81.5654C266.035 81.5654 265.811 82.1936 265.865 82.843Z" fill="#263238"/>
<path d="M273.66 81.427C273.767 82.0764 274.203 82.5555 274.64 82.4916C275.076 82.4278 275.353 81.8635 275.247 81.2141C275.14 80.5646 274.704 80.1494 274.267 80.1494C273.831 80.1494 273.554 80.7882 273.66 81.427Z" fill="#263238"/>
<path d="M270.583 82.875C271.717 84.7486 273.104 86.4573 274.703 87.9534C274.289 88.3427 273.796 88.639 273.258 88.8226C272.72 89.0062 272.149 89.0729 271.584 89.018L270.583 82.875Z" fill="#ED847E"/>
<path d="M270.198 92.1905C269.424 92.278 268.64 92.21 267.892 91.9907C267.144 91.7713 266.448 91.4049 265.844 90.9129C265.809 90.8754 265.789 90.8259 265.789 90.7745C265.789 90.7231 265.809 90.6736 265.844 90.6361C265.882 90.6031 265.931 90.585 265.982 90.585C266.033 90.585 266.082 90.6031 266.121 90.6361C266.785 91.1633 267.56 91.5331 268.388 91.7175C269.216 91.9019 270.075 91.8962 270.901 91.7007C270.926 91.6945 270.952 91.6934 270.978 91.6976C271.004 91.7018 271.028 91.7111 271.05 91.725C271.072 91.739 271.091 91.7572 271.105 91.7787C271.12 91.8001 271.13 91.8243 271.135 91.8498C271.141 91.8743 271.142 91.8999 271.138 91.9249C271.134 91.9498 271.124 91.9736 271.11 91.9947C271.096 92.0158 271.078 92.0337 271.056 92.0472C271.035 92.0608 271.011 92.0697 270.986 92.0734C270.727 92.1316 270.463 92.1708 270.198 92.1905Z" fill="#263238"/>
<path d="M265.544 78.4148C265.608 78.4319 265.667 78.4648 265.715 78.5106C265.752 78.5454 265.781 78.5875 265.801 78.6342C265.822 78.6809 265.832 78.7312 265.832 78.7821C265.832 78.833 265.822 78.8833 265.801 78.93C265.781 78.9767 265.752 79.0187 265.715 79.0536C265.3 79.5171 264.78 79.8735 264.197 80.0923C263.615 80.311 262.989 80.3857 262.372 80.3098C262.321 80.3048 262.271 80.2892 262.226 80.264C262.181 80.2389 262.142 80.2048 262.111 80.1638C262.08 80.1228 262.058 80.0758 262.046 80.0258C262.034 79.9759 262.033 79.9239 262.042 79.8733C262.051 79.8223 262.07 79.7735 262.097 79.7297C262.125 79.686 262.162 79.6482 262.204 79.6186C262.247 79.5889 262.295 79.5679 262.345 79.5568C262.396 79.5457 262.448 79.5448 262.499 79.5539C262.988 79.597 263.479 79.5229 263.933 79.3377C264.386 79.1525 264.789 78.8617 265.108 78.4893C265.167 78.438 265.239 78.404 265.316 78.3908C265.393 78.3777 265.472 78.386 265.544 78.4148Z" fill="#263238"/>
<path d="M275.867 76.4874C275.809 76.5135 275.745 76.527 275.681 76.527C275.617 76.527 275.553 76.5135 275.495 76.4874C275.04 76.2607 274.541 76.1366 274.034 76.1237C273.526 76.1108 273.022 76.2095 272.556 76.4129C272.465 76.4643 272.358 76.4787 272.257 76.4529C272.156 76.4271 272.068 76.3631 272.013 76.2745C271.967 76.1821 271.957 76.0755 271.987 75.9765C272.017 75.8776 272.083 75.7937 272.173 75.7421C272.748 75.4664 273.377 75.3232 274.015 75.3232C274.652 75.3232 275.282 75.4664 275.857 75.7421C275.903 75.7624 275.945 75.7922 275.979 75.8297C276.014 75.8672 276.04 75.9115 276.056 75.9597C276.072 76.0079 276.077 76.0589 276.072 76.1095C276.068 76.16 276.052 76.209 276.027 76.2532C276.003 76.3476 275.946 76.4305 275.867 76.4874Z" fill="#263238"/>
</svg>
