<svg width="424" height="427" viewBox="0 0 424 427" fill="none" xmlns="http://www.w3.org/2000/svg">
<path d="M18.5809 93.4697L185.211 93.4697V86.1598L18.5809 86.1598V93.4697Z" fill="#EBEBEB"/>
<path d="M175.861 93.4795H168.551V117.649H175.861V93.4795Z" fill="#EBEBEB"/>
<path d="M175.861 93.4795H168.551V100.949H175.861V93.4795Z" fill="#AFACAC"/>
<path d="M35.2241 93.4795H27.9141V117.649H35.2241V93.4795Z" fill="#EBEBEB"/>
<path d="M35.2241 93.4795H27.9141V100.949H35.2241V93.4795Z" fill="#AFACAC"/>
<path d="M154.098 86.1696V39.5996H142.368V86.1696H154.098Z" fill="#C9C6C6"/>
<path d="M154.098 42.2294V37.1094H142.368V42.2294H154.098Z" fill="#AFACAC"/>
<path d="M154.098 50.6803V48.7803H142.368V50.6803H154.098Z" fill="#AFACAC"/>
<path d="M154.102 80.0595V74.9395H140.912V80.0595H154.102Z" fill="#AFACAC"/>
<path d="M142.371 86.1699V31.8398H134.171V86.1699H142.371Z" fill="#AFACAC"/>
<path d="M140.77 57.8402V36.9502H135.85V57.8402H140.77Z" fill="#EBEBEB"/>
<path d="M81.6357 86.1884L120.273 47.9932L114.509 42.1616L75.8709 80.3568L81.6357 86.1884Z" fill="#C9C6C6"/>
<path d="M89.5265 76.0416L104.383 61.3555L100.924 57.8565L86.0677 72.5427L89.5265 76.0416Z" fill="#AFACAC"/>
<path d="M134.184 86.1701V44.9102H120.264V86.1701H134.184Z" fill="#A6A6A6"/>
<path d="M134.184 81.8099V77.96H120.264V81.8099H134.184Z" fill="#C9C6C6"/>
<path d="M134.184 75.4295V73.9395H120.264V75.4295H134.184Z" fill="#C9C6C6"/>
<path d="M163.723 86.1794V47.3994H154.113V86.1794H163.723Z" fill="#A6A6A6"/>
<path d="M163.723 82.0602V78.4502H154.113V82.0602H163.723Z" fill="#C9C6C6"/>
<path d="M163.723 58.9997V55.3896H154.113V58.9997H163.723Z" fill="#C9C6C6"/>
<path d="M163.715 62.8795V61.4795H154.105V62.8795H163.715Z" fill="#C9C6C6"/>
<path d="M52.2725 36.4894C60.4725 44.4894 61.8525 56.9494 60.1225 67.8294C60.1225 68.0694 59.6925 68.0094 59.6925 67.7694C59.6925 65.2994 59.7725 62.8394 59.7625 60.3994C59.7625 60.2794 59.6825 60.1794 59.6325 60.0694C57.4228 58.6135 55.5949 56.6485 54.3025 54.3394C52.9325 51.6494 52.3925 48.6094 51.3525 45.7894C51.2525 45.5194 51.5425 45.5994 51.7225 45.7394C56.7225 49.4194 58.3025 53.3794 59.7225 58.6694C59.6897 55.9016 59.3984 53.1429 58.8525 50.4294C57.9001 45.3145 55.546 40.5647 52.0525 36.7094C52.0337 36.6787 52.0258 36.6427 52.03 36.607C52.0343 36.5713 52.0504 36.5381 52.0758 36.5127C52.1012 36.4873 52.1344 36.4712 52.1701 36.4669C52.2058 36.4627 52.2418 36.4706 52.2725 36.4894Z" fill="#A6A6A6"/>
<path d="M50.7333 37.4302C49.3133 37.4302 48.4333 39.7302 47.3333 40.4302C47.2175 40.5242 47.0832 40.5927 46.9392 40.6312C46.7951 40.6698 46.6446 40.6775 46.4974 40.6539C46.3501 40.6303 46.2095 40.5759 46.0848 40.4943C45.96 40.4127 45.8538 40.3056 45.7733 40.1802C44.6833 38.6602 46.1833 36.7902 47.5833 35.7402C46.656 36.2599 45.6775 36.6822 44.6633 37.0002C44.5247 37.0489 44.3772 37.0665 44.2311 37.0518C44.085 37.0371 43.9439 36.9903 43.8179 36.9149C43.6919 36.8395 43.584 36.7373 43.502 36.6155C43.42 36.4937 43.3658 36.3553 43.3433 36.2102C42.8633 34.1402 45.4633 33.2102 47.2533 33.2102C46.3833 32.6102 43.9033 30.9802 45.2533 30.2102C46.6033 29.4402 49.5033 31.7402 50.4433 32.5102C51.8433 33.6402 53.5033 35.3402 53.5733 37.1102C53.6233 39.1302 51.8133 37.8602 50.7333 37.4302Z" fill="#AFACAC"/>
<path d="M51.1318 37.7799C49.3318 36.9499 45.8618 38.1399 45.5718 37.4499C44.9718 36.0599 47.7418 35.1099 49.2418 34.9199C47.8618 34.5499 45.2418 33.9199 45.3018 32.6299C45.4018 31.0099 49.3518 32.3999 51.3518 33.9299C53.8618 35.8599 53.8518 37.7299 53.4318 38.0999C52.8618 38.6099 51.4318 37.9099 51.1318 37.7799Z" fill="#EBEBEB"/>
<path d="M70.9501 35.7002C62.4501 43.4102 60.6001 55.7702 61.9501 66.7002C61.9501 66.9502 62.3701 66.9002 62.3801 66.7002C62.4701 64.2302 62.4901 61.7702 62.5901 59.3302L62.7301 59.0002C64.9937 57.6367 66.8943 55.7464 68.2701 53.4902C69.7501 50.8502 70.4001 47.8302 71.5501 45.0602C71.6601 44.7902 71.3701 44.8602 71.1801 44.9902C66.0501 48.4802 64.3101 52.3802 62.6801 57.6102C62.8164 54.846 63.2115 52.1007 63.8601 49.4102C65.0113 44.3297 67.5527 39.6695 71.2001 35.9502C71.2332 35.9171 71.2518 35.8721 71.2518 35.8252C71.2518 35.7783 71.2332 35.7334 71.2001 35.7002C71.1669 35.6671 71.122 35.6484 71.0751 35.6484C71.0282 35.6484 70.9832 35.6671 70.9501 35.7002Z" fill="#A6A6A6"/>
<path d="M72.4521 36.6902C73.8621 36.7902 74.6621 39.0802 75.7321 39.7802C75.8442 39.8788 75.9758 39.9527 76.1184 39.9969C76.2611 40.0411 76.4114 40.0547 76.5596 40.0367C76.7078 40.0188 76.8506 39.9697 76.9785 39.8928C77.1065 39.8158 77.2167 39.7127 77.3021 39.5902C78.4521 38.1102 77.0221 36.1802 75.6621 35.0802C76.5666 35.6632 77.5282 36.1524 78.5321 36.5402C78.6688 36.5943 78.8157 36.6177 78.9624 36.6085C79.1091 36.5994 79.252 36.558 79.3809 36.4874C79.5098 36.4167 79.6216 36.3185 79.7082 36.1997C79.7948 36.081 79.8542 35.9446 79.8821 35.8002C80.4321 33.7402 77.8821 32.7202 76.0921 32.6102C76.9721 32.0402 79.5121 30.5002 78.2321 29.6102C76.9521 28.7202 73.9521 31.0002 72.9521 31.7502C71.5121 32.8302 69.7921 34.4602 69.6621 36.2202C69.5021 38.2802 71.3521 37.0802 72.4521 36.6902Z" fill="#AFACAC"/>
<path d="M72.0341 36.9999C73.8741 36.2499 77.2841 37.5599 77.6041 36.8899C78.2541 35.5299 75.5241 34.4699 74.0441 34.2299C75.4341 33.9099 78.0441 33.4099 78.0441 32.0799C78.0441 30.4599 74.0441 31.6999 71.9541 33.1599C69.3741 34.9899 69.3141 36.8499 69.7141 37.2399C70.2741 37.7899 71.7341 37.1499 72.0341 36.9999Z" fill="#EBEBEB"/>
<path d="M62.2517 56.0703C61.6825 60.1948 60.7999 64.2699 59.6117 68.2603C59.5958 68.3386 59.5495 68.4073 59.4829 68.4513C59.4163 68.4954 59.335 68.5112 59.2567 68.4953C59.1785 68.4794 59.1098 68.4331 59.0657 68.3665C59.0216 68.2999 59.0058 68.2186 59.0217 68.1403C59.5817 64.3803 60.6017 60.6903 61.1517 56.9403C61.766 53.1365 61.9872 49.2795 61.8117 45.4303C61.4517 39.1003 59.7317 32.3603 55.6017 27.4303C55.5117 27.3103 55.7017 27.1403 55.7917 27.2503C64.0717 36.9003 62.7917 48.7303 62.7917 49.7903C63.9617 45.7903 65.1717 41.2203 69.6017 37.1503C69.7917 36.9703 69.9417 37.0603 69.9117 37.3603C69.1217 44.7603 67.0617 48.6303 62.7617 52.5903C62.5917 53.7403 62.4417 54.9103 62.2517 56.0703Z" fill="#A6A6A6"/>
<path d="M55.5204 28.5203C54.0304 27.8603 51.9803 29.7503 50.5203 29.8803C50.3564 29.9196 50.186 29.9245 50.0201 29.8946C49.8541 29.8648 49.6962 29.8008 49.5562 29.7069C49.4161 29.6129 49.2971 29.491 49.2066 29.3487C49.1161 29.2064 49.0561 29.0469 49.0303 28.8803C48.6603 26.7603 51.1604 25.5603 53.1404 25.1803C51.8904 25.1003 50.6604 25.4403 49.4304 25.1103C49.2609 25.0906 49.0978 25.0344 48.9522 24.9455C48.8066 24.8567 48.682 24.7374 48.5869 24.5958C48.4919 24.4542 48.4287 24.2936 48.4016 24.1252C48.3746 23.9568 48.3844 23.7845 48.4303 23.6203C48.9803 21.2303 52.1403 21.6203 54.0204 22.4303C53.4204 21.4303 51.6703 18.4303 53.4403 18.2603C55.2104 18.0903 57.0804 21.9803 57.6704 23.2603C58.5504 25.1403 59.4304 27.7303 58.6004 29.6003C57.6704 31.7403 56.4304 29.5103 55.5204 28.5203Z" fill="#AFACAC"/>
<path d="M55.7704 29.0794C54.3104 27.3294 50.1204 26.8094 50.1604 25.9494C50.2404 24.2094 53.5904 24.6094 55.2404 25.1694C54.0004 24.0894 51.5604 22.1694 52.3104 20.8094C53.2304 19.1794 56.6204 22.6094 57.9304 25.2094C59.5704 28.4794 58.6104 30.3994 57.9904 30.5794C57.1404 30.8194 56.0104 29.3794 55.7704 29.0794Z" fill="#EBEBEB"/>
<path d="M67.7045 58.2898L71.3545 86.1698H49.1445C49.6045 83.6998 53.7345 58.2598 53.7345 58.2598L67.7045 58.2898Z" fill="#AFACAC"/>
<path d="M332.56 65.4301C333.165 62.865 334.266 60.443 335.8 58.3001C337.26 56.3001 339.613 54.8467 342.86 53.9401C343.86 53.6401 345.03 53.3201 346.44 52.9401C347.891 52.5875 349.309 52.1124 350.68 51.5201C352.075 50.9248 353.362 50.1038 354.49 49.0901C355.633 48.0581 356.432 46.7004 356.78 45.2001C357.079 44.1211 357.116 42.9865 356.89 41.8901C356.68 40.9049 356.271 39.9727 355.69 39.1501C355.089 38.3203 354.327 37.6198 353.45 37.0901C352.553 36.5346 351.574 36.1229 350.55 35.8701C349.374 35.5679 348.149 35.5101 346.95 35.7001C345.86 35.8621 344.797 36.1716 343.79 36.6201C342.808 37.06 341.882 37.6138 341.03 38.2701C340.244 38.8667 339.493 39.5077 338.78 40.1901L332.68 33.1901C333.816 31.6559 335.202 30.3239 336.78 29.2501C338.317 28.2062 340.002 27.4005 341.78 26.8601C343.591 26.3184 345.47 26.0323 347.36 26.0101C349.312 25.9821 351.259 26.2142 353.15 26.7001C355.304 27.2439 357.369 28.096 359.28 29.2301C361.19 30.3561 362.856 31.852 364.18 33.6301C365.545 35.487 366.487 37.6203 366.94 39.8801C367.449 42.537 367.332 45.2759 366.6 47.8801C366.22 49.5093 365.6 51.0731 364.76 52.5201C364.014 53.7662 363.076 54.8867 361.98 55.8401C360.895 56.7719 359.695 57.5616 358.41 58.1901C357.016 58.8619 355.576 59.4333 354.1 59.9001C352.79 60.3001 351.5 60.6601 350.21 61.0001C348.966 61.3213 347.754 61.7564 346.59 62.3001C345.477 62.8051 344.461 63.5024 343.59 64.3601C342.695 65.303 342.073 66.4712 341.79 67.7401L332.56 65.4301ZM327.75 85.2601L330.7 73.5401L340.13 75.9101L337.18 87.6301L327.75 85.2601Z" fill="#EBEBEB"/>
<path d="M35.0294 282.78C35.4586 284.675 35.5129 286.635 35.1894 288.55C34.712 290.588 33.5726 292.41 31.9494 293.73C31.3894 294.24 30.6994 294.84 29.8794 295.52C29.0304 296.221 28.2441 296.993 27.5294 297.83C26.7925 298.673 26.2011 299.633 25.7794 300.67C25.3562 301.725 25.2654 302.883 25.5194 303.99C25.6751 304.804 26.0174 305.571 26.5194 306.23C26.9784 306.814 27.5496 307.3 28.1994 307.66C28.8674 308.01 29.5981 308.224 30.3494 308.29C31.1242 308.371 31.907 308.331 32.6694 308.17C33.5379 308.002 34.3641 307.662 35.0994 307.17C35.7719 306.713 36.3777 306.164 36.8994 305.54C37.4074 304.925 37.8436 304.254 38.1994 303.54C38.5316 302.893 38.8222 302.225 39.0694 301.54L45.3694 304.18C45.1067 305.566 44.6131 306.898 43.9094 308.12C43.2253 309.315 42.362 310.398 41.3494 311.33C40.3257 312.281 39.1705 313.079 37.9194 313.7C36.6337 314.346 35.2687 314.82 33.8594 315.11C32.2561 315.448 30.6125 315.553 28.9794 315.42C27.3499 315.291 25.7624 314.839 24.3094 314.09C22.8019 313.296 21.4849 312.184 20.4494 310.83C19.2591 309.232 18.4547 307.381 18.0994 305.42C17.8216 304.218 17.7272 302.981 17.8194 301.75C17.9083 300.682 18.1683 299.636 18.5894 298.65C19.0027 297.679 19.5442 296.768 20.1994 295.94C20.9018 295.038 21.6706 294.189 22.4994 293.4C23.2394 292.72 23.9794 292.06 24.7294 291.4C25.4544 290.795 26.1237 290.125 26.7294 289.4C27.2694 288.701 27.6823 287.912 27.9494 287.07C28.2413 286.154 28.2759 285.175 28.0494 284.24L35.0294 282.78ZM31.8094 268.07L33.6394 276.8L26.6394 278.27L24.8094 269.55L31.8094 268.07Z" fill="#EBEBEB"/>
<path d="M349.954 193.55C351.131 195.095 351.997 196.854 352.504 198.73C352.906 200.789 352.614 202.924 351.674 204.8C351.384 205.5 351.004 206.33 350.544 207.29C350.058 208.279 349.663 209.31 349.364 210.37C349.044 211.443 348.905 212.561 348.954 213.68C349.011 214.814 349.408 215.904 350.094 216.81C350.571 217.484 351.202 218.036 351.934 218.42C352.596 218.762 353.32 218.966 354.064 219.02C354.817 219.068 355.572 218.963 356.284 218.71C357.017 218.455 357.708 218.091 358.334 217.63C359.055 217.119 359.664 216.465 360.124 215.71C360.562 215.015 360.898 214.26 361.124 213.47C361.325 212.702 361.443 211.914 361.474 211.12C361.515 210.397 361.515 209.673 361.474 208.95L368.294 208.73C368.637 210.095 368.746 211.508 368.614 212.91C368.483 214.286 368.146 215.634 367.614 216.91C367.072 218.198 366.351 219.403 365.474 220.49C364.576 221.621 363.534 222.63 362.374 223.49C361.053 224.465 359.598 225.243 358.054 225.8C356.518 226.358 354.886 226.606 353.254 226.53C351.555 226.434 349.898 225.973 348.394 225.18C346.647 224.217 345.145 222.866 344.004 221.23C343.252 220.252 342.652 219.167 342.224 218.01C341.858 217.002 341.659 215.942 341.634 214.87C341.604 213.813 341.715 212.757 341.964 211.73C342.236 210.62 342.586 209.53 343.014 208.47C343.404 207.54 343.794 206.63 344.214 205.74C344.631 204.884 344.966 203.99 345.214 203.07C345.439 202.206 345.514 201.309 345.434 200.42C345.315 199.467 344.938 198.564 344.344 197.81L349.954 193.55ZM340.954 181.55L346.244 188.72L340.474 192.98L335.184 185.81L340.954 181.55Z" fill="#EBEBEB"/>
<path d="M382.791 175.51C382.757 173.372 383.144 171.248 383.931 169.26C384.908 167.173 386.555 165.472 388.611 164.43C389.321 164 390.201 163.52 391.241 162.97C392.296 162.408 393.299 161.756 394.241 161.02C395.227 160.284 396.079 159.384 396.761 158.36C397.445 157.316 397.794 156.088 397.761 154.84C397.778 153.978 397.602 153.122 397.246 152.337C396.889 151.551 396.361 150.855 395.701 150.3C395.068 149.767 394.333 149.369 393.541 149.13C392.726 148.872 391.876 148.741 391.021 148.74C390.049 148.729 389.084 148.909 388.181 149.27C387.355 149.616 386.578 150.07 385.871 150.62C385.184 151.162 384.563 151.783 384.021 152.47C383.522 153.092 383.061 153.743 382.641 154.42L376.461 150.16C377.054 148.729 377.882 147.408 378.911 146.25C379.922 145.126 381.095 144.159 382.391 143.38C383.711 142.593 385.135 141.994 386.621 141.6C388.148 141.198 389.721 140.996 391.301 141C393.106 141.001 394.901 141.263 396.631 141.78C398.355 142.287 399.959 143.134 401.351 144.27C402.787 145.462 403.95 146.949 404.761 148.63C405.707 150.619 406.182 152.798 406.151 155C406.17 156.352 405.991 157.7 405.621 159C405.277 160.126 404.761 161.192 404.091 162.16C403.427 163.11 402.64 163.967 401.751 164.71C400.785 165.516 399.762 166.251 398.691 166.91C397.751 167.48 396.801 168.03 395.851 168.55C394.937 169.05 394.07 169.633 393.261 170.29C392.5 170.905 391.853 171.65 391.351 172.49C390.831 173.402 390.571 174.44 390.601 175.49L382.791 175.51ZM382.931 192.05V182.25H390.811V192.05H382.931Z" fill="#EBEBEB"/>
<path d="M136.273 232.32C135.798 230.235 135.737 228.078 136.093 225.97C136.617 223.726 137.878 221.723 139.673 220.28C140.283 219.71 141.033 219.06 141.943 218.28C142.869 217.502 143.732 216.653 144.523 215.74C145.325 214.807 145.97 213.75 146.433 212.61C146.898 211.45 146.996 210.176 146.713 208.96C146.543 208.065 146.166 207.223 145.613 206.5C145.1 205.88 144.467 205.37 143.753 205C143.022 204.609 142.219 204.371 141.393 204.3C140.544 204.221 139.688 204.268 138.853 204.44C137.899 204.632 136.992 205.009 136.183 205.55C135.439 206.057 134.766 206.663 134.183 207.35C133.629 208.024 133.152 208.758 132.763 209.54C132.385 210.251 132.051 210.986 131.763 211.74L124.953 208.82C125.238 207.298 125.775 205.834 126.543 204.49C127.293 203.176 128.241 201.985 129.353 200.96C130.475 199.912 131.741 199.029 133.113 198.34C134.528 197.633 136.026 197.109 137.573 196.78C139.338 196.411 141.146 196.296 142.943 196.44C144.732 196.579 146.476 197.072 148.073 197.89C149.73 198.755 151.178 199.974 152.313 201.46C154.395 204.364 155.425 207.891 155.233 211.46C155.132 212.63 154.849 213.777 154.393 214.86C153.941 215.932 153.349 216.941 152.633 217.86C151.854 218.846 151.009 219.778 150.103 220.65C149.293 221.4 148.483 222.13 147.663 222.83C146.872 223.51 146.142 224.26 145.483 225.07C144.869 225.833 144.389 226.696 144.063 227.62C143.751 228.628 143.717 229.703 143.963 230.73L136.273 232.32ZM139.843 248.47L137.843 238.89L145.553 237.25L147.553 246.84L139.843 248.47Z" fill="#EBEBEB"/>
<path d="M376.743 309.89L390.103 309.61L396.683 309.5C398.873 309.45 401.043 309.5 403.223 309.44L402.783 309.89L402.723 298.7L403.223 299.2L389.953 299.14C385.543 299.14 381.133 299.02 376.713 298.97L376.993 298.7C376.993 300.53 376.903 302.37 376.853 304.24L376.743 309.89ZM376.743 309.89L376.603 304.35C376.603 302.49 376.493 300.6 376.473 298.7V298.43H376.743C381.163 298.38 385.573 298.27 389.983 298.26L403.223 298.2H403.723V298.7V309.89V310.34H403.273C401.043 310.34 398.803 310.34 396.583 310.28L389.923 310.17L376.743 309.89Z" fill="#EBEBEB"/>
<path d="M391.512 324L404.872 323.72L411.452 323.61C413.642 323.56 415.812 323.61 417.992 323.55L417.552 324L417.502 312.81L417.992 313.31L404.752 313.25C400.342 313.25 395.932 313.13 391.512 313.08L391.792 312.81C391.792 314.64 391.702 316.48 391.662 318.35L391.512 324ZM391.512 324L391.372 318.46C391.372 316.6 391.262 314.71 391.242 312.81V312.54H391.512C395.932 312.49 400.342 312.38 404.752 312.37L417.992 312.31H418.502V312.81L418.442 324V324.45H417.952C415.722 324.45 413.492 324.45 411.262 324.39L404.602 324.28L391.512 324Z" fill="#EBEBEB"/>
<path d="M361.954 324L375.314 323.72L381.894 323.61C384.074 323.56 386.254 323.61 388.434 323.55L387.994 324L387.954 312.81L388.454 313.31L375.214 313.25C370.804 313.25 366.384 313.13 361.974 313.08L362.244 312.81C362.244 314.64 362.164 316.48 362.114 318.35L361.954 324ZM361.954 324L361.814 318.46C361.764 316.6 361.704 314.71 361.684 312.81V312.54H361.954C366.364 312.49 370.784 312.38 375.194 312.37L388.434 312.31H388.934V312.81L388.954 324V324.45H388.514C386.284 324.45 384.044 324.45 381.824 324.39L375.164 324.28L361.954 324Z" fill="#EBEBEB"/>
<path d="M20.6823 324L34.0323 323.72L40.6123 323.61C42.8023 323.56 44.9823 323.61 47.1623 323.55L46.7123 324L46.6623 312.81L47.1623 313.31L33.9523 313.25C29.5323 313.25 25.1223 313.13 20.7123 313.08L20.9823 312.81C20.9823 314.64 20.8923 316.48 20.8523 318.35L20.6823 324ZM20.6823 324L20.5323 318.46C20.5323 316.6 20.4223 314.71 20.4023 312.81V312.54H20.6823C25.0923 312.49 29.5023 312.38 33.9223 312.37L47.1623 312.31H47.6623V312.81L47.6023 324V324.45H47.1623C44.9323 324.45 42.6923 324.45 40.4623 324.39L33.8023 324.28L20.6823 324Z" fill="#EBEBEB"/>
<path d="M20.6823 12.7698L34.0323 12.4898L40.6123 12.3698C42.8023 12.3698 44.9823 12.3698 47.1623 12.3698L46.7123 12.8198L46.6623 1.62984L47.1623 2.11984L33.9523 1.99984C29.5323 1.99984 25.1223 1.88984 20.7123 1.83984L20.9823 1.56984C20.9823 3.39984 20.8923 5.23984 20.8523 7.09984L20.6823 12.7698ZM20.6823 12.7698L20.5323 7.22984C20.5323 5.35984 20.4223 3.46984 20.4023 1.57985V1.30984H20.6823C25.0923 1.30984 29.5023 1.14985 33.9223 1.14985L47.1623 1.08984H47.6623V1.59984L47.6023 12.7898V13.2298H47.1623C44.9323 13.2298 42.6923 13.2298 40.4623 13.1798L33.8023 12.9998L20.6823 12.7698Z" fill="#EBEBEB"/>
<path d="M5.95187 26.8802L19.3019 26.6002L25.8819 26.4802C28.0719 26.4802 30.2419 26.4802 32.4319 26.4802L31.9819 26.9302V15.7402L32.4819 16.2302L19.1519 16.1202C14.7319 16.1202 10.3219 16.0002 5.95187 16.0002L6.22187 15.7302C6.22187 17.5602 6.13187 19.4002 6.09187 21.2602L5.95187 26.8802ZM5.95187 26.8802L5.80187 21.3402C5.80187 19.4702 5.69188 17.5802 5.67188 15.6902V15.4202H5.95187C10.3619 15.4202 14.7719 15.2602 19.1919 15.2602L32.4319 15.2002H32.9319V15.7102L32.8719 26.9002V27.3402H32.4319C30.1919 27.3402 27.9619 27.3402 25.7319 27.3402L19.0719 27.2202L5.95187 26.8802Z" fill="#EBEBEB"/>
<path d="M391.512 12.7798L404.872 12.4998L411.452 12.3898C413.642 12.3898 415.812 12.3898 417.992 12.3298L417.552 12.7798L417.502 1.58984L417.992 2.08984L404.752 1.99984C400.342 1.99984 395.932 1.88984 391.512 1.83984L391.792 1.56984C391.792 3.39984 391.702 5.23984 391.662 7.09984L391.512 12.7798ZM391.512 12.7798L391.372 7.23984C391.372 5.36984 391.262 3.48984 391.242 1.58984V1.31984H391.512C395.932 1.26984 400.342 1.16984 404.752 1.15984L417.952 1.08984H418.462V1.58984L418.412 12.7798V13.2298H417.952C415.722 13.2298 413.492 13.2298 411.262 13.2298L404.602 13.1198L391.512 12.7798Z" fill="#EBEBEB"/>
<path d="M248.16 157.829L234.81 158.109L228.23 158.219C226.04 158.269 223.86 158.219 221.68 158.279L222.13 157.829L222.18 169.019L221.68 168.519L234.92 168.589C239.34 168.589 243.75 168.699 248.16 168.749L247.89 169.019C247.89 167.189 247.98 165.349 248.02 163.489L248.16 157.829ZM248.16 157.829L248.31 163.369C248.31 165.239 248.42 167.119 248.44 169.019V169.289H248.16C243.75 169.289 239.34 169.439 234.92 169.449L221.68 169.509H221.18V168.999L221.24 157.809V157.359H221.68C223.91 157.359 226.15 157.359 228.38 157.409L235.04 157.519L248.16 157.829Z" fill="#EBEBEB"/>
<path d="M233.396 143.72L220.046 144L213.466 144.11C211.276 144.11 209.096 144.11 206.916 144.17L207.366 143.72L207.416 154.91L206.916 154.41L220.156 154.48C224.566 154.48 228.986 154.59 233.396 154.64L233.126 154.91C233.126 153.08 233.206 151.24 233.256 149.38L233.396 143.72ZM233.396 143.72L233.536 149.26C233.586 151.13 233.656 153.01 233.666 154.91V155.18H233.386C228.976 155.23 224.556 155.33 220.146 155.34L206.906 155.4H206.406V154.9L206.466 143.71V143.26H206.956C209.186 143.26 211.426 143.26 213.656 143.31L220.316 143.42L233.396 143.72Z" fill="#EBEBEB"/>
<path d="M0.320312 374.52L53.2303 374.28L106.14 374.19L211.95 374.02L317.76 374.19L370.67 374.28L423.58 374.52L370.67 374.77L317.76 374.86L211.95 375.02L106.14 374.86L53.2303 374.77L0.320312 374.52Z" fill="#263238"/>
<path d="M388.95 264.49C385.15 260.77 380.24 256.27 374.43 257.88C368.97 259.39 366.88 265.35 365.9 270.32C364.64 276.73 363.66 283.19 362.64 289.64C361.62 296.09 360.64 302.64 359.71 309.19C359.177 312.87 358.657 316.553 358.15 320.24C357.89 322.08 357.634 323.92 357.38 325.76C357.13 327.57 356.83 329.38 356.73 331.2C356.73 331.78 357.61 331.86 357.73 331.31C358.44 328.24 358.73 325.04 359.18 321.93C359.63 318.82 360.09 315.65 360.54 312.52C361.45 306.29 362.4 300.07 363.33 293.84C364.26 287.61 365.24 281.4 366.24 275.18C367.08 269.9 367.48 263.35 372.15 259.87C373.42 259.003 374.889 258.473 376.42 258.329C377.95 258.186 379.492 258.434 380.9 259.05C383.97 260.23 386.43 262.43 388.84 264.61C388.95 264.68 389.05 264.57 388.95 264.49Z" fill="#263238"/>
<path d="M383.779 260.69C383.779 260.69 376.009 257.9 372.179 263.56C368.349 269.22 372.929 283.64 408.279 291.77C407.245 280.721 404.372 269.922 399.779 259.82C392.199 243.29 378.689 249.55 383.779 260.69Z" fill="#B5C7F1"/>
<path d="M406.25 289.41C405.717 288.421 405.122 287.466 404.47 286.55C403.88 285.64 403.28 284.73 402.68 283.83C402.23 283.15 401.76 282.47 401.3 281.83C401.3 281.67 401.3 281.5 401.36 281.33L401.48 280.41C401.57 279.75 401.67 279.08 401.76 278.41C401.85 277.74 401.97 277.1 402.1 276.41C402.181 275.703 402.335 275.006 402.56 274.33C402.56 274.22 402.42 274.17 402.41 274.33C402.334 274.731 402.227 275.126 402.09 275.51L401.85 276.4C401.68 277.07 401.52 277.74 401.37 278.4C401.22 279.06 401.11 279.65 401 280.27C400.95 280.58 400.91 280.88 400.87 281.18C400.24 280.28 399.59 279.39 398.93 278.52C397.05 276.05 395.07 273.67 393.01 271.34C393.01 271.34 393.01 271.34 393.01 271.28C393.2 267.57 393.11 263.89 393.93 260.28C393.93 260.18 393.81 260.12 393.78 260.22C392.848 263.665 392.404 267.223 392.46 270.79C391.73 269.97 390.98 269.15 390.23 268.34C388.5 266.49 386.75 264.66 384.96 262.88C384.89 262.81 384.77 262.88 384.84 262.99C387.84 266.2 390.65 269.54 393.41 272.94C391.251 272.905 389.091 272.985 386.94 273.18C384.55 273.35 382.17 273.66 379.79 273.99C379.68 273.99 379.71 274.16 379.79 274.15C382.156 273.802 384.54 273.588 386.93 273.51C389.24 273.41 391.53 273.51 393.84 273.51C395.334 275.35 396.804 277.21 398.25 279.09H397.95C397.41 279.09 396.87 279.09 396.33 279.09C395.25 279.09 394.18 279.19 393.11 279.28C390.913 279.463 388.731 279.797 386.58 280.28C386.559 280.28 386.539 280.289 386.524 280.304C386.509 280.319 386.5 280.339 386.5 280.36C386.5 280.382 386.509 280.402 386.524 280.417C386.539 280.432 386.559 280.44 386.58 280.44C388.75 280.19 390.93 279.99 393.11 279.91C394.11 279.91 395.2 279.91 396.24 279.91H397.95C398.249 279.951 398.554 279.924 398.84 279.83C399.787 281.064 400.734 282.3 401.68 283.54C402.43 284.54 403.17 285.54 403.9 286.54C404.63 287.54 405.32 288.69 406.14 289.65C406.18 289.58 406.29 289.49 406.25 289.41Z" fill="#263238"/>
<path d="M387.157 268.72C385.903 268.56 384.639 268.5 383.377 268.54C382.117 268.54 380.847 268.54 379.587 268.62C379.477 268.62 379.487 268.78 379.587 268.78C380.867 268.68 382.147 268.66 383.427 268.68C384.707 268.7 385.907 268.82 387.137 268.78C387.197 268.78 387.197 268.73 387.157 268.72Z" fill="#263238"/>
<path d="M398.261 271.57C398.401 270.36 398.551 269.15 398.811 267.96C398.811 267.939 398.802 267.918 398.787 267.903C398.772 267.888 398.752 267.88 398.731 267.88C398.709 267.88 398.689 267.888 398.674 267.903C398.659 267.918 398.651 267.939 398.651 267.96C398.471 269.15 398.241 270.33 398.071 271.52C397.981 272.11 397.901 272.71 397.821 273.3C397.719 273.857 397.672 274.423 397.681 274.99C397.688 275.012 397.702 275.032 397.72 275.046C397.739 275.06 397.762 275.067 397.786 275.067C397.809 275.067 397.832 275.06 397.851 275.046C397.87 275.032 397.884 275.012 397.891 274.99C397.996 274.432 398.056 273.867 398.071 273.3C398.121 272.72 398.191 272.14 398.261 271.57Z" fill="#263238"/>
<path d="M395.949 258.19C395.639 259.37 395.329 260.56 395.119 261.75C395.009 262.36 394.909 262.97 394.829 263.58C394.719 264.17 394.679 264.771 394.709 265.37C394.709 265.383 394.714 265.396 394.724 265.405C394.733 265.415 394.746 265.42 394.759 265.42C394.772 265.42 394.785 265.415 394.794 265.405C394.804 265.396 394.809 265.383 394.809 265.37C394.949 264.812 395.039 264.244 395.079 263.67C395.159 263.08 395.249 262.5 395.349 261.91C395.569 260.68 395.789 259.46 396.099 258.25C396.109 258.15 395.949 258.09 395.949 258.19Z" fill="#263238"/>
<path d="M349.948 329.89C349.748 327.67 349.528 325.44 349.298 323.22C348.825 318.82 348.295 314.423 347.708 310.03C347.118 305.66 346.558 301.27 345.848 296.91C345.593 294.871 345.141 292.862 344.498 290.91C344.27 290.077 343.853 289.308 343.281 288.662C342.709 288.015 341.997 287.508 341.198 287.18C337.038 285.75 334.198 290.06 332.558 293.11C332.508 293.2 332.638 293.27 332.698 293.19C333.698 291.74 336.478 287.69 339.638 287.88C341.758 288 343.458 289.51 344.478 294.8C347.018 307.99 349.308 334.8 349.578 336.51C349.718 337.44 350.368 337.4 350.378 336.4C350.338 334.26 350.088 332.07 349.948 329.89Z" fill="#263238"/>
<path d="M333.629 291.52C333.629 291.52 337.269 278.68 329.229 285.1C315.849 295.79 315.379 319 315.379 319C315.379 319 339.159 305.19 342.109 296.08C346.519 282.54 333.629 291.52 333.629 291.52Z" fill="#B5C7F1"/>
<path d="M338.13 297.82C336.27 298.2 334.37 298.45 332.49 298.72L329.81 299.1C329.21 299.18 328.6 299.24 327.99 299.31C329.76 296.87 331.55 294.44 333.25 291.95C333.266 291.929 333.273 291.902 333.269 291.876C333.265 291.85 333.251 291.826 333.23 291.81C333.209 291.794 333.182 291.788 333.156 291.791C333.13 291.795 333.106 291.809 333.09 291.83C331.672 293.284 330.337 294.817 329.09 296.42L328.03 293.42C327.63 292.27 327.19 291.13 326.9 289.94C326.9 289.84 326.72 289.94 326.75 289.99C327.07 291.16 327.3 292.37 327.62 293.55C327.94 294.73 328.27 295.81 328.67 296.92C327.8 298.05 326.96 299.21 326.15 300.38C325.74 299.22 325.23 298.1 324.88 296.92C324.88 296.82 324.69 296.87 324.72 296.92C325.15 298.23 325.38 299.58 325.78 300.92C325.23 301.72 324.69 302.52 324.17 303.32C323.17 304.81 322.3 306.32 321.42 307.84C321.351 307.87 321.293 307.921 321.256 307.986C321.218 308.05 321.202 308.126 321.21 308.2C319.71 310.8 318.28 313.43 316.87 316.09C316.859 316.109 316.857 316.131 316.862 316.151C316.868 316.172 316.881 316.19 316.9 316.2C316.919 316.211 316.941 316.214 316.961 316.208C316.982 316.202 316.999 316.189 317.01 316.17C318.42 313.54 320.01 310.98 321.62 308.47C321.872 308.387 322.135 308.337 322.4 308.32L323.22 308.14C323.83 308.01 324.44 307.85 325.05 307.7C326.26 307.4 327.45 307.11 328.68 306.9C328.78 306.9 328.73 306.73 328.68 306.75C327.24 307.02 325.8 307.19 324.34 307.35C323.65 307.43 322.97 307.52 322.29 307.63H322.19C323.037 306.337 323.903 305.05 324.79 303.77C325.65 302.52 326.54 301.28 327.43 300.04C328.26 299.93 329.07 299.71 329.89 299.56L332.65 299.02C334.49 298.65 336.33 298.24 338.18 297.94C338.28 298 338.23 297.8 338.13 297.82Z" fill="#263238"/>
<path d="M323.842 299.091C323.732 298.751 323.632 298.411 323.522 298.091C323.299 297.382 323.115 296.66 322.972 295.931C322.972 295.831 322.802 295.881 322.822 295.931C322.982 296.661 323.152 297.381 323.312 298.101C323.458 298.827 323.665 299.54 323.932 300.231C323.949 300.26 323.975 300.282 324.006 300.295C324.037 300.308 324.071 300.31 324.103 300.3C324.135 300.291 324.164 300.271 324.183 300.244C324.203 300.217 324.213 300.184 324.212 300.151C324.102 299.811 323.952 299.451 323.842 299.091Z" fill="#263238"/>
<path d="M340.563 294.85C339.483 295.01 338.393 295.09 337.293 295.19C336.193 295.29 335.123 295.43 334.033 295.6C333.973 295.6 333.973 295.7 334.033 295.69C335.123 295.62 336.213 295.53 337.303 295.39C338.393 295.25 339.473 295.09 340.573 295.01C340.673 295 340.663 294.84 340.563 294.85Z" fill="#263238"/>
<path d="M367.4 313.64C366.97 304.19 366.4 294.75 365.4 285.34C364.93 280.65 364.4 275.97 363.74 271.34C363.157 266.752 362.251 262.211 361.03 257.75C360.192 254.282 358.654 251.022 356.51 248.17C355.451 246.783 354.056 245.688 352.457 244.988C350.858 244.288 349.107 244.007 347.37 244.17C343.24 244.68 339.9 247.29 337.02 250.12C333.79 253.3 330.83 256.77 327.84 260.12C327.08 260.98 326.33 261.85 325.58 262.72C325.52 262.8 325.63 262.91 325.7 262.83C328.63 259.47 331.7 256.2 334.85 253.08C337.79 250.19 340.85 247.08 344.85 245.84C346.744 245.24 348.769 245.191 350.69 245.7C352.22 246.183 353.598 247.055 354.69 248.23C356.99 250.61 358.27 253.84 359.19 256.97C361.73 265.66 362.64 274.77 363.58 283.74C364.52 292.71 365.19 301.99 365.65 311.15C366.11 320.31 366.47 329.56 367.36 338.74C367.47 339.87 367.61 341 367.76 342.13C367.85 342.88 369.03 342.89 368.97 342.13C368.26 332.63 367.82 323.14 367.4 313.64Z" fill="#263238"/>
<path d="M336.52 251.12C336.52 251.12 341.92 241.12 335.52 237.92C329.12 234.72 307.8 258.54 301.57 293.38C301.57 293.38 336.04 278.13 347.75 262.93C359.46 247.73 346.2 244.39 336.52 251.12Z" fill="#B5C7F1"/>
<path d="M341.589 259.24C337.719 259.24 333.849 258.95 329.979 258.97L332.159 256.48C333.235 255.374 334.237 254.198 335.159 252.96C335.209 252.88 335.099 252.77 335.019 252.83C333.966 253.731 332.986 254.714 332.089 255.77C331.089 256.77 330.149 257.83 329.189 258.87C327.709 260.48 326.259 262.1 324.809 263.74C324.809 263.58 324.809 263.42 324.809 263.27C324.809 262.59 324.809 261.91 324.809 261.27C324.809 259.96 324.809 258.64 324.809 257.33C324.809 254.67 324.809 251.99 325.009 249.33C325.009 249.23 324.859 249.23 324.849 249.33C324.669 252.01 324.389 254.67 324.259 257.33C324.199 258.65 324.169 259.96 324.149 261.28C324.149 261.95 324.149 262.63 324.149 263.28C324.149 263.65 324.149 264.04 324.149 264.42C323.929 264.68 323.689 264.93 323.469 265.18C320.379 268.72 317.469 272.37 314.569 276.09C314.569 275.89 314.569 275.67 314.519 275.47C314.519 275.06 314.429 274.65 314.389 274.24C314.289 273.35 314.169 272.47 314.029 271.58C313.889 270.69 313.779 269.92 313.639 269.09C313.499 268.26 313.249 267.22 313.179 266.28C313.183 266.268 313.185 266.255 313.183 266.242C313.181 266.229 313.177 266.217 313.169 266.206C313.162 266.196 313.152 266.187 313.141 266.181C313.129 266.175 313.117 266.172 313.104 266.172C313.091 266.172 313.078 266.175 313.067 266.181C313.055 266.187 313.045 266.196 313.038 266.206C313.031 266.217 313.026 266.229 313.024 266.242C313.023 266.255 313.024 266.268 313.029 266.28C313.185 267.22 313.292 268.168 313.349 269.12L313.589 271.68C313.659 272.53 313.739 273.38 313.829 274.24L313.949 275.47C313.949 275.67 313.999 275.88 314.029 276.08C314.038 276.254 314.093 276.423 314.189 276.57L312.719 278.49C310.719 281.08 308.839 283.7 306.919 286.31C306.859 286.39 306.979 286.5 307.039 286.42C308.859 284.05 310.729 281.72 312.619 279.42C314.039 279.48 315.489 279.37 316.909 279.35C318.329 279.33 319.909 279.35 321.389 279.35C321.41 279.35 321.43 279.341 321.445 279.326C321.46 279.311 321.469 279.291 321.469 279.27C321.469 279.249 321.46 279.228 321.445 279.213C321.43 279.198 321.41 279.19 321.389 279.19C319.889 279.19 318.389 279.24 316.899 279.25C315.409 279.26 314.149 279.19 312.789 279.25C314.449 277.25 316.139 275.25 317.789 273.2L319.749 271C320.322 271.075 320.901 271.095 321.479 271.06H323.479C324.749 271.06 326.019 271.06 327.299 271.01C329.929 271.01 332.559 270.88 335.189 270.87C335.201 270.874 335.214 270.876 335.227 270.874C335.239 270.873 335.252 270.868 335.262 270.861C335.273 270.853 335.281 270.843 335.287 270.832C335.293 270.821 335.296 270.808 335.296 270.795C335.296 270.782 335.293 270.769 335.287 270.758C335.281 270.746 335.273 270.737 335.262 270.729C335.252 270.722 335.239 270.717 335.227 270.716C335.214 270.714 335.201 270.715 335.189 270.72C332.549 270.72 329.919 270.57 327.289 270.5C326.009 270.5 324.739 270.43 323.459 270.41H321.459C321.079 270.41 320.679 270.41 320.279 270.41L324.629 265.26C324.663 265.237 324.69 265.206 324.709 265.17C326.119 263.5 327.529 261.84 328.959 260.17C329.159 259.95 329.359 259.73 329.549 259.5C333.549 259.62 337.549 259.36 341.549 259.44C341.699 259.4 341.699 259.24 341.589 259.24Z" fill="#263238"/>
<path d="M339.612 266.09H338.672C338.653 266.09 338.635 266.097 338.622 266.11C338.609 266.123 338.602 266.141 338.602 266.16C338.602 266.178 338.609 266.196 338.622 266.209C338.635 266.222 338.653 266.23 338.672 266.23H339.602C339.615 266.224 339.626 266.214 339.634 266.203C339.642 266.191 339.647 266.177 339.648 266.163C339.649 266.148 339.646 266.134 339.64 266.121C339.633 266.109 339.624 266.098 339.612 266.09Z" fill="#263238"/>
<path d="M337.52 266.1C336.28 266.1 335.04 266.1 333.8 266.02L331.95 266C331.376 265.93 330.795 265.93 330.22 266C330.204 266 330.189 266.006 330.178 266.017C330.166 266.029 330.16 266.044 330.16 266.06C330.16 266.076 330.166 266.091 330.178 266.102C330.189 266.114 330.204 266.12 330.22 266.12C330.793 266.235 331.377 266.275 331.96 266.24H333.82H337.54C337.63 266.26 337.63 266.1 337.52 266.1Z" fill="#263238"/>
<path d="M326.693 277.741C324.171 277.316 321.62 277.086 319.062 277.051V277.101C321.603 277.341 324.133 277.481 326.653 277.891C326.753 277.911 326.793 277.751 326.693 277.741Z" fill="#263238"/>
<path d="M316.318 266.64C316.318 266.42 316.268 266.2 316.238 265.98C316.178 265.48 316.098 264.98 316.018 264.49C315.868 263.54 315.708 262.6 315.528 261.65C315.528 261.57 315.358 261.59 315.368 261.65C315.488 262.65 315.598 263.6 315.688 264.58L315.808 266.02C315.794 266.481 315.858 266.941 315.998 267.38C316.018 267.41 316.046 267.434 316.079 267.449C316.111 267.463 316.148 267.468 316.183 267.463C316.219 267.458 316.253 267.443 316.28 267.419C316.307 267.396 316.327 267.365 316.338 267.33C316.372 267.101 316.365 266.867 316.318 266.64Z" fill="#263238"/>
<path d="M367.06 238.29C365.82 235.99 364.25 232.96 361.17 233.15C358.63 233.31 357.48 235.9 356.94 238.05C355.26 244.68 355.14 251.68 354.82 258.48C354.12 272.85 353.5 287.23 353.41 301.62C353.41 305.62 353.41 309.62 353.41 313.62C353.41 317.69 353.41 321.78 353.69 325.84C353.69 325.92 353.722 325.996 353.778 326.052C353.834 326.109 353.911 326.14 353.99 326.14C354.07 326.14 354.146 326.109 354.202 326.052C354.259 325.996 354.29 325.92 354.29 325.84C354.29 322.36 354.19 318.84 354.18 315.4C354.17 311.96 354.18 308.61 354.24 305.21C354.354 298.337 354.537 291.463 354.79 284.59C355.05 277.76 355.35 270.93 355.64 264.1C355.78 260.69 355.93 257.27 356.08 253.86C356.23 250.45 356.37 247.25 356.75 243.96C356.96 242.11 357.23 240.27 357.62 238.46C357.81 237.11 358.359 235.835 359.21 234.77C359.797 234.19 360.573 233.839 361.396 233.78C362.219 233.721 363.037 233.959 363.7 234.45C365.11 235.466 366.214 236.85 366.89 238.45C366.911 238.473 366.941 238.486 366.972 238.487C367.003 238.488 367.033 238.476 367.055 238.455C367.078 238.434 367.091 238.405 367.092 238.374C367.093 238.343 367.081 238.313 367.06 238.29Z" fill="#263238"/>
<path d="M366.221 237.19C366.221 237.19 363.691 228.25 369.291 232.72C378.611 240.16 378.941 256.35 378.941 256.35C378.941 256.35 362.371 246.73 360.311 240.35C357.241 230.93 366.221 237.19 366.221 237.19Z" fill="#B5C7F1"/>
<path d="M375.453 249.72C375.303 249.47 375.143 249.23 374.983 248.98C375.003 248.727 375.003 248.473 374.983 248.22C374.983 247.84 374.983 247.45 374.983 247.07C374.983 246.31 374.983 245.55 375.063 244.8C375.063 244.779 375.055 244.758 375.04 244.743C375.025 244.728 375.004 244.72 374.983 244.72C374.962 244.72 374.942 244.728 374.927 244.743C374.912 244.758 374.903 244.779 374.903 244.8C374.903 245.54 374.833 246.29 374.813 247.03C374.813 247.4 374.813 247.77 374.813 248.14C374.813 248.28 374.813 248.45 374.813 248.62C374.163 247.62 373.493 246.62 372.813 245.62C372.613 245.33 372.403 245.05 372.203 244.77C372.096 243.8 372.08 242.823 372.153 241.85C372.153 240.85 372.153 239.77 372.213 238.73C372.213 238.63 372.053 238.63 372.053 238.73C372.053 239.81 371.973 240.89 371.913 241.97C371.848 242.738 371.828 243.509 371.853 244.28C370.253 242.11 368.553 240.01 366.853 237.92C366.793 237.85 366.673 237.92 366.733 238.02C367.793 239.37 368.813 240.75 369.813 242.15C367.863 241.69 365.883 241.43 363.903 241.15C363.803 241.15 363.763 241.29 363.903 241.31C366.003 241.63 368.063 242.15 370.133 242.61C370.923 243.73 371.713 244.85 372.483 245.98L373.423 247.36H373.343L372.693 247.27L371.313 247.15C370.363 247.07 369.403 247.02 368.443 246.97C368.343 246.97 368.353 247.13 368.443 247.13C369.383 247.13 370.323 247.22 371.253 247.32L372.743 247.5L373.383 247.58H373.573C374.103 248.36 374.643 249.14 375.163 249.92C376.103 251.31 376.943 252.79 377.933 254.12C377.946 254.131 377.962 254.138 377.979 254.139C377.996 254.141 378.013 254.137 378.027 254.128C378.042 254.119 378.053 254.105 378.06 254.09C378.066 254.074 378.067 254.056 378.063 254.04C377.281 252.549 376.409 251.106 375.453 249.72Z" fill="#263238"/>
<path d="M371.332 239.62C371.332 239.27 371.332 238.92 371.332 238.57C371.312 237.839 371.342 237.107 371.422 236.38C371.426 236.368 371.428 236.355 371.426 236.342C371.424 236.33 371.42 236.317 371.412 236.307C371.405 236.296 371.395 236.288 371.384 236.282C371.372 236.276 371.36 236.272 371.347 236.272C371.334 236.272 371.321 236.276 371.31 236.282C371.298 236.288 371.288 236.296 371.281 236.307C371.274 236.317 371.269 236.33 371.267 236.342C371.266 236.355 371.267 236.368 371.272 236.38C371.272 237.11 371.192 237.83 371.152 238.55C371.152 238.92 371.152 239.28 371.152 239.64V240.14C371.127 240.313 371.127 240.488 371.152 240.66C371.152 240.679 371.159 240.697 371.172 240.71C371.185 240.723 371.203 240.73 371.222 240.73C371.24 240.73 371.258 240.723 371.271 240.71C371.284 240.697 371.292 240.679 371.292 240.66C371.317 240.501 371.317 240.339 371.292 240.18L371.332 239.62Z" fill="#263238"/>
<path d="M369.278 243.32C368.658 243.21 368.028 243.18 367.408 243.13C366.788 243.08 366.048 243.01 365.408 242.92C365.387 242.92 365.367 242.928 365.352 242.943C365.337 242.958 365.328 242.979 365.328 243C365.328 243.021 365.337 243.041 365.352 243.056C365.367 243.071 365.387 243.08 365.408 243.08C366.718 243.16 368.018 243.4 369.328 243.44C369.338 243.45 369.348 243.33 369.278 243.32Z" fill="#263238"/>
<path d="M374.478 243.37C374.528 243.44 374.478 243.64 374.478 243.72V244.63C374.478 244.84 374.478 245.05 374.478 245.26C374.443 245.439 374.443 245.622 374.478 245.8C374.478 245.8 374.528 245.8 374.538 245.8C374.558 245.715 374.558 245.626 374.538 245.54C374.533 245.444 374.533 245.347 374.538 245.25V244.63C374.538 244.42 374.538 244.21 374.538 244V243.72C374.538 243.63 374.538 243.44 374.538 243.37C374.538 243.3 374.378 243.22 374.478 243.37Z" fill="#263238"/>
<path d="M367.439 286C363.959 283.39 360.829 279.63 356.139 279.44C352.269 279.29 349.559 282.2 348.009 285.44C347.234 287.169 346.602 288.958 346.119 290.79C345.419 293.23 344.753 295.687 344.119 298.16C342.913 303.02 341.879 307.92 341.019 312.86C340.549 315.61 340.109 318.37 339.759 321.14C339.32 323.948 339.049 326.78 338.949 329.62C338.948 329.729 338.986 329.835 339.058 329.917C339.131 329.999 339.23 330.052 339.339 330.064C339.447 330.077 339.557 330.048 339.645 329.985C339.734 329.921 339.796 329.827 339.819 329.72C340.289 327.4 340.489 325.01 340.819 322.67C341.149 320.33 341.519 317.96 341.909 315.62C342.709 310.953 343.636 306.287 344.689 301.62C345.689 297.23 346.689 292.78 348.079 288.51C349.079 285.45 350.719 281.88 354.029 280.78C359.029 279.11 363.619 283.36 367.299 286.13C367.409 286.18 367.519 286.06 367.439 286Z" fill="#263238"/>
<path d="M363.842 283.5C363.842 283.5 360.622 274.33 365.272 272.5C372.272 269.81 390.452 290.33 386.882 321.77C386.882 321.77 372.812 314.02 362.412 305.29C352.012 296.56 349.412 285.17 353.942 282.23C358.472 279.29 363.842 283.5 363.842 283.5Z" fill="#B5C7F1"/>
<path d="M384.78 315.06C384.296 313.963 383.732 312.903 383.09 311.89C382.49 310.81 381.89 309.74 381.27 308.68C380.06 306.61 378.86 304.54 377.62 302.48L377.01 301.48C377.01 301.36 377.06 301.23 377.08 301.11L377.29 300.2C377.45 299.52 377.57 298.83 377.69 298.14C377.95 296.8 378.18 295.44 378.54 294.14C378.54 294.05 378.41 294.02 378.39 294.14C378.1 295.48 377.67 296.81 377.28 298.14C377.08 298.79 376.87 299.43 376.7 300.09L376.52 300.76C375.03 298.31 373.52 295.87 371.86 293.51C371.967 293.187 372.025 292.85 372.03 292.51C372.08 292.05 372.13 291.59 372.19 291.13C372.31 290.13 372.43 289.06 372.58 288.03C372.88 286.03 373.18 284.03 373.68 282.03C373.68 281.93 373.55 281.9 373.53 282.03C373.02 284.03 372.48 286.03 372.1 288.03C371.92 289.03 371.74 290.03 371.61 291.03C371.55 291.53 371.49 292.03 371.44 292.53C371.44 292.67 371.44 292.83 371.38 292.98C370.88 292.27 370.38 291.55 369.85 290.86C368.24 288.74 366.57 286.68 364.85 284.62C364.79 284.54 364.65 284.62 364.72 284.71C367.6 288.393 370.245 292.254 372.64 296.27L374.01 298.5L373.55 298.44C372.96 298.36 372.37 298.33 371.78 298.27L368.22 297.96C365.85 297.77 363.47 297.63 361.11 297.38C361.01 297.38 360.98 297.52 361.11 297.53C363.51 297.81 365.89 298.19 368.28 298.53C369.46 298.7 370.63 298.86 371.81 299.01C372.703 299.187 373.61 299.278 374.52 299.28C375.45 300.8 376.39 302.28 377.32 303.82C377.11 303.82 376.89 303.82 376.69 303.82H373.3C371.77 303.82 370.24 303.82 368.72 303.82C368.61 303.82 368.63 303.97 368.72 303.97C370.27 303.97 371.81 304.07 373.36 304.15L375.56 304.28L376.66 304.36C376.989 304.436 377.331 304.436 377.66 304.36L380.04 308.22C380.77 309.41 381.51 310.59 382.26 311.77C382.967 313.021 383.766 314.217 384.65 315.35C384.69 315.21 384.82 315.16 384.78 315.06Z" fill="#263238"/>
<path d="M378.068 289.65C377.928 290.664 377.718 291.666 377.438 292.65C377.178 293.65 376.888 294.65 376.558 295.65C376.553 295.663 376.551 295.677 376.551 295.691C376.551 295.705 376.554 295.718 376.56 295.731C376.566 295.743 376.574 295.755 376.585 295.764C376.595 295.773 376.607 295.78 376.621 295.784C376.634 295.788 376.648 295.79 376.662 295.788C376.675 295.787 376.689 295.782 376.701 295.775C376.713 295.768 376.723 295.759 376.731 295.748C376.74 295.737 376.745 295.724 376.748 295.71C377.058 294.71 377.338 293.71 377.578 292.71C377.818 291.71 377.978 290.71 378.228 289.66C378.23 289.639 378.222 289.618 378.208 289.602C378.194 289.586 378.175 289.577 378.153 289.575C378.132 289.574 378.111 289.581 378.095 289.595C378.079 289.609 378.07 289.629 378.068 289.65Z" fill="#263238"/>
<path d="M367.728 295.79C367.512 295.609 367.241 295.507 366.958 295.5L365.628 295.32C364.808 295.21 363.978 295.12 363.158 295.02C361.438 294.82 359.728 294.65 358.008 294.44C357.908 294.44 357.878 294.58 358.008 294.59C359.628 294.79 361.238 295.04 362.858 295.25L365.228 295.56L366.378 295.68C366.822 295.685 367.261 295.762 367.678 295.91C367.692 295.911 367.706 295.907 367.718 295.899C367.73 295.891 367.739 295.88 367.744 295.867C367.749 295.854 367.751 295.84 367.748 295.827C367.745 295.813 367.738 295.8 367.728 295.79Z" fill="#263238"/>
<path d="M378.05 309.62C377.24 309.55 376.42 309.52 375.61 309.5H374.38H373.79C373.534 309.525 373.276 309.525 373.02 309.5C372.91 309.5 372.9 309.67 373.02 309.65C373.259 309.625 373.501 309.625 373.74 309.65H374.38L375.6 309.73C376.41 309.78 377.23 309.83 378.04 309.83C378.14 309.79 378.15 309.62 378.05 309.62Z" fill="#263238"/>
<path d="M383.013 306.1L383.283 304.72C383.443 303.81 383.613 302.9 383.783 302C383.783 301.979 383.774 301.958 383.759 301.943C383.744 301.928 383.724 301.92 383.703 301.92C383.681 301.92 383.661 301.928 383.646 301.943C383.631 301.958 383.623 301.979 383.623 302L383.023 304.65C382.923 305.09 382.823 305.53 382.733 305.97C382.733 306.18 382.653 306.38 382.603 306.59C382.539 306.8 382.516 307.021 382.533 307.24C382.535 307.26 382.543 307.279 382.556 307.295C382.569 307.31 382.586 307.321 382.605 307.327C382.625 307.332 382.646 307.332 382.665 307.325C382.684 307.318 382.701 307.306 382.713 307.29C382.887 306.916 382.989 306.512 383.013 306.1Z" fill="#263238"/>
<path d="M335.348 326.101L336.328 337.251L339.658 374.881H369.128L373.288 337.251L374.518 326.101H335.348Z" fill="#37474F"/>
<path d="M335.348 326.101L336.328 337.251H373.288L374.518 326.101H335.348Z" fill="#263238"/>
<path d="M332.431 332.11H377.441V323.07H332.431V332.11Z" fill="#37474F"/>
<path d="M175.952 289.13C175.952 273.13 178.565 258.753 183.792 246C189.018 233.247 199.798 222.137 216.132 212.67C221.038 209.73 227.085 206.397 234.272 202.67C241.667 198.786 248.716 194.276 255.342 189.19C262.115 184.068 267.994 177.861 272.742 170.82C277.528 163.643 280.008 155.175 279.852 146.55C279.995 140.268 278.659 134.04 275.952 128.37C273.454 123.308 269.953 118.806 265.662 115.14C261.253 111.466 256.153 108.715 250.662 107.05C245.032 105.273 239.165 104.366 233.262 104.36C226.572 104.268 219.93 105.506 213.722 108C208.01 110.353 202.653 113.486 197.802 117.31C193.073 121.053 188.795 125.332 185.052 130.06C181.606 134.358 178.417 138.856 175.502 143.53H168.122L132.852 114.13C136.931 104.244 142.648 95.1158 149.762 87.1299C156.717 79.3434 164.808 72.6514 173.762 67.2799C182.869 61.8652 192.696 57.7646 202.952 55.0999C213.508 52.3116 224.383 50.9098 235.302 50.9299C247.751 50.9369 260.134 52.7525 272.062 56.3199C283.956 59.8205 295.035 65.6539 304.652 73.4799C314.586 81.7031 322.615 91.9871 328.182 103.62C334.222 115.873 337.242 130.497 337.242 147.49C337.393 156.851 336.156 166.182 333.572 175.18C331.225 182.963 327.665 190.327 323.022 197C318.423 203.56 312.987 209.49 306.852 214.64C300.189 220.19 293.145 225.266 285.772 229.83C279.232 233.763 272.698 237.523 266.172 241.11C259.855 244.556 253.867 248.573 248.282 253.11C243.022 257.373 238.542 262.516 235.042 268.31C231.615 274.03 229.902 280.973 229.902 289.14L175.952 289.13ZM176.952 403.32V335.69H231.352V403.32H176.952Z" fill="#B5C7F1"/>
<g opacity="0.2">
<path opacity="0.2" d="M175.952 289.13C175.952 273.13 178.565 258.753 183.792 246C189.018 233.247 199.798 222.137 216.132 212.67C221.038 209.73 227.085 206.397 234.272 202.67C241.667 198.786 248.716 194.276 255.342 189.19C262.115 184.068 267.994 177.861 272.742 170.82C277.528 163.643 280.008 155.175 279.852 146.55C279.995 140.268 278.659 134.04 275.952 128.37C273.454 123.308 269.953 118.806 265.662 115.14C261.253 111.466 256.153 108.715 250.662 107.05C245.032 105.273 239.165 104.366 233.262 104.36C226.572 104.268 219.93 105.506 213.722 108C208.01 110.353 202.653 113.486 197.802 117.31C193.073 121.053 188.795 125.332 185.052 130.06C181.606 134.358 178.417 138.856 175.502 143.53H168.122L132.852 114.13C136.931 104.244 142.648 95.1158 149.762 87.1299C156.717 79.3434 164.808 72.6514 173.762 67.2799C182.869 61.8652 192.696 57.7646 202.952 55.0999C213.508 52.3116 224.383 50.9098 235.302 50.9299C247.751 50.9369 260.134 52.7525 272.062 56.3199C283.956 59.8205 295.035 65.6539 304.652 73.4799C314.586 81.7031 322.615 91.9871 328.182 103.62C334.222 115.873 337.242 130.497 337.242 147.49C337.393 156.851 336.156 166.182 333.572 175.18C331.225 182.963 327.665 190.327 323.022 197C318.423 203.56 312.987 209.49 306.852 214.64C300.189 220.19 293.145 225.266 285.772 229.83C279.232 233.763 272.698 237.523 266.172 241.11C259.855 244.556 253.867 248.573 248.282 253.11C243.022 257.373 238.542 262.516 235.042 268.31C231.615 274.03 229.902 280.973 229.902 289.14L175.952 289.13ZM176.952 403.32V335.69H231.352V403.32H176.952Z" fill="black"/>
</g>
<path d="M168.614 289.13C168.614 273.13 171.228 258.753 176.454 246C181.681 233.247 192.464 222.137 208.804 212.67C213.704 209.73 219.748 206.397 226.934 202.67C234.334 198.789 241.387 194.279 248.014 189.19C254.785 184.066 260.664 177.859 265.414 170.82C270.193 163.64 272.669 155.174 272.514 146.55C272.643 140.283 271.301 134.074 268.594 128.42C266.097 123.358 262.596 118.856 258.304 115.19C253.896 111.516 248.796 108.765 243.304 107.1C237.675 105.323 231.807 104.416 225.904 104.41C219.214 104.299 212.569 105.519 206.354 108C200.64 110.354 195.28 113.487 190.424 117.31C185.699 121.053 181.424 125.332 177.684 130.06C174.235 134.358 171.043 138.856 168.124 143.53L125.484 114.13C129.561 104.242 135.278 95.114 142.394 87.13C149.347 79.3406 157.439 72.6482 166.394 67.28C175.499 61.8668 185.323 57.7664 195.574 55.1C206.141 52.3082 217.026 50.9063 227.954 50.93C240.404 50.9363 252.787 52.7519 264.714 56.32C276.61 59.8184 287.689 65.6519 297.304 73.48C307.241 81.701 315.27 91.9855 320.834 103.62C326.874 115.873 329.898 130.497 329.904 147.49C330.053 156.851 328.812 166.182 326.224 175.18C323.872 182.966 320.301 190.331 315.644 197C311.046 203.56 305.61 209.49 299.474 214.64C292.815 220.195 285.771 225.271 278.394 229.83C271.868 233.763 265.334 237.523 258.794 241.11C252.478 244.556 246.489 248.573 240.904 253.11C235.648 257.373 231.172 262.516 227.674 268.31C224.248 274.03 222.531 280.973 222.524 289.14L168.614 289.13ZM169.614 403.32V335.69H223.954V403.32H169.614Z" fill="#B5C7F1"/>
<path d="M146.191 408.73C144.061 409.41 83.3307 408.63 81.0407 407.13C80.1607 406.57 79.7607 397.72 79.5807 387V386.67C79.5807 384.46 79.5107 382.18 79.5007 379.88C79.5007 379.56 79.5007 379.24 79.5007 378.93C79.4207 363.47 79.6607 347.42 79.6607 347.42L120.291 347.83L119.061 379L119.011 380.24L118.761 386.7V387.36C118.761 387.36 141.851 398.1 144.201 400C146.551 401.9 148.321 408.05 146.191 408.73Z" fill="#FFC3BD"/>
<path d="M146.19 408.73C144.06 409.41 83.33 408.63 81.04 407.13C80.16 406.57 79.76 397.72 79.58 387V386.67C79.58 384.46 79.51 382.18 79.5 379.88C79.5 379.56 79.5 379.24 79.5 378.93L119.07 379.04L119.02 380.28L118.77 386.74V387.4C118.77 387.4 141.85 398.1 144.2 400C146.55 401.9 148.32 408.05 146.19 408.73Z" fill="#EBEBEB"/>
<path d="M146.194 408.73C144.884 409.15 121.354 409.01 102.934 408.49C91.4337 408.18 81.9337 407.7 81.0437 407.13C80.1537 406.56 79.7737 397.97 79.5938 387.45C79.5938 387.3 79.5938 387.15 79.5938 387C79.5938 386.85 79.5938 386.77 79.5938 386.66L118.784 386.74V387.4C118.784 387.4 141.904 398.1 144.244 400.01C146.584 401.92 148.324 408.05 146.194 408.73Z" fill="#263238"/>
<path d="M145.541 406.36C135.301 405.98 93.9912 405.36 83.8412 405.79C83.7613 405.79 83.7613 405.85 83.8412 405.86C93.9812 406.46 135.291 406.71 145.531 406.53C145.751 406.53 145.751 406.37 145.541 406.36Z" fill="#263238"/>
<path d="M123.122 386.9C119.122 386.1 114.172 386.65 111.052 389.48C110.932 389.59 111.052 389.76 111.222 389.72C115.089 388.531 119.072 387.757 123.102 387.41C123.162 387.401 123.217 387.371 123.257 387.326C123.297 387.281 123.32 387.223 123.323 387.163C123.325 387.103 123.306 387.044 123.27 386.996C123.233 386.948 123.181 386.914 123.122 386.9Z" fill="#263238"/>
<path d="M126.013 388.69C122.013 387.89 117.063 388.44 113.943 391.27C113.823 391.38 113.943 391.55 114.113 391.51C117.967 390.323 121.936 389.549 125.953 389.2C126.015 389.197 126.074 389.173 126.119 389.131C126.165 389.089 126.193 389.032 126.201 388.971C126.208 388.909 126.193 388.847 126.159 388.796C126.124 388.744 126.073 388.707 126.013 388.69Z" fill="#B5C7F1"/>
<path d="M128.892 390.48C124.892 389.68 119.942 390.23 116.822 393.06C116.702 393.17 116.822 393.34 116.992 393.3C120.859 392.115 124.842 391.344 128.872 391C128.941 391.003 129.008 390.978 129.059 390.931C129.109 390.884 129.139 390.819 129.142 390.75C129.145 390.681 129.12 390.614 129.073 390.563C129.026 390.513 128.961 390.483 128.892 390.48Z" fill="#B5C7F1"/>
<path d="M128.486 378.18C126.926 375.98 123.966 376.93 122.266 378.32C119.391 380.762 117.212 383.918 115.946 387.47C115.939 387.485 115.937 387.502 115.938 387.518C115.939 387.535 115.944 387.55 115.953 387.564C115.962 387.578 115.974 387.59 115.989 387.598C116.003 387.606 116.019 387.61 116.036 387.61C116.036 387.92 116.316 388.25 116.666 388.12C120.006 386.93 123.726 386.12 126.606 383.9C128.286 382.63 129.956 380.27 128.486 378.18ZM121.356 385.28C119.726 385.91 118.076 386.45 116.476 387.13C117.716 385.35 118.866 383.53 120.286 381.87C120.959 381.067 121.68 380.306 122.446 379.59C123.666 378.52 128.446 376.26 127.666 380.67C127.246 383.1 123.306 384.54 121.356 385.28Z" fill="#B5C7F1"/>
<path d="M105.709 386.28C109.009 387.74 112.829 387.72 116.359 388.11C116.719 388.11 116.909 387.76 116.849 387.46C116.865 387.455 116.879 387.446 116.891 387.435C116.902 387.424 116.912 387.41 116.917 387.394C116.923 387.379 116.925 387.363 116.924 387.346C116.923 387.33 116.917 387.314 116.909 387.3C114.853 384.139 112.005 381.571 108.649 379.85C106.649 378.85 103.569 378.65 102.569 381.15C101.569 383.65 103.779 385.43 105.709 386.28ZM103.929 383.38C102.169 379.27 107.339 380.38 108.759 381.14C109.676 381.649 110.555 382.224 111.389 382.86C113.102 384.187 114.744 385.602 116.309 387.1C114.589 386.8 112.859 386.66 111.129 386.42C109.069 386.15 104.949 385.65 103.949 383.38H103.929Z" fill="#B5C7F1"/>
<path d="M102.953 408.49C91.4533 408.18 81.9533 407.7 81.0633 407.13C80.1733 406.56 79.7933 397.97 79.6133 387.45C84.3133 391.66 96.0333 402.11 102.953 408.49Z" fill="#263238"/>
<path d="M67.1914 172.48C67.1914 172.48 76.3114 275.1 77.7914 282.93C78.1414 284.72 78.3514 294.42 78.4914 306.88C78.8014 334.09 78.6214 383.15 78.6214 383.15H121.431C121.431 383.15 120.161 298.15 118.261 282.5C116.361 266.85 104.261 172.5 104.261 172.5L67.1914 172.48Z" fill="#B5C7F1"/>
<path d="M119.492 375.69C112.812 375.55 114.732 375.5 108.052 375.43C104.782 375.43 83.3019 375.22 80.2419 375.72C80.2233 375.72 80.2055 375.728 80.1924 375.741C80.1792 375.754 80.1719 375.772 80.1719 375.79C80.1719 375.809 80.1792 375.827 80.1924 375.84C80.2055 375.853 80.2233 375.86 80.2419 375.86C83.3019 376.36 104.782 376.18 108.052 376.14C114.732 376.08 112.812 376.03 119.492 375.89C119.518 375.89 119.544 375.88 119.563 375.861C119.581 375.842 119.592 375.817 119.592 375.79C119.592 375.764 119.581 375.739 119.563 375.72C119.544 375.701 119.518 375.69 119.492 375.69Z" fill="#263238"/>
<path d="M86.752 327.1C86.6987 320.886 86.652 314.676 86.612 308.47C86.612 302.47 86.612 296.47 86.292 290.47C85.712 278.3 83.292 266.34 81.492 254.31C79.692 242.28 78.272 230.2 76.942 218.11C75.452 204.55 74.142 190.96 72.752 177.39C72.752 177.3 72.592 177.3 72.602 177.39C74.602 201.63 76.872 225.86 80.222 249.95C81.062 255.95 81.9753 261.93 82.962 267.89C83.962 273.89 84.962 279.97 85.432 286.08C85.902 292.19 85.972 298.08 86.032 304.08C86.1053 310.293 86.1687 316.5 86.222 322.7C86.352 336.48 86.482 357.7 86.622 371.48C86.6324 371.526 86.6583 371.568 86.6956 371.598C86.7329 371.628 86.7792 371.644 86.827 371.644C86.8748 371.644 86.9211 371.628 86.9584 371.598C86.9957 371.568 87.0216 371.526 87.032 371.48C86.952 359.12 86.842 339.39 86.752 327.1Z" fill="#263238"/>
<path d="M58.1641 172.48C58.1641 172.48 76.3141 275.1 77.7941 282.93C78.1441 284.72 78.3541 294.42 78.4941 306.88L98.9541 172.48H58.1641Z" fill="#263238"/>
<path d="M96.4818 412.35C94.3118 412.88 33.7818 407.79 31.6018 406.14C30.7618 405.52 30.9918 396.66 31.6018 385.96C31.6018 385.85 31.6018 385.73 31.6018 385.62C31.7218 383.42 31.8518 381.15 32.0118 378.85L32.0718 377.85C33.0718 362.42 34.4618 346.43 34.4618 346.43L74.9518 349.77L71.5218 380.77L71.3918 382L70.6918 388.43L70.6218 389.09C70.6218 389.09 92.9118 401.4 95.1218 403.47C97.3318 405.54 98.6518 411.82 96.4818 412.35Z" fill="#FFC3BD"/>
<path d="M96.4818 412.35C94.3118 412.88 33.7818 407.79 31.6018 406.14C30.7618 405.52 30.9918 396.66 31.6018 385.96C31.6018 385.85 31.6018 385.73 31.6018 385.62C31.7218 383.42 31.8518 381.15 32.0118 378.85L32.0718 377.85L71.5218 380.76L71.3918 381.99L70.6918 388.42L70.6218 389.08C70.6218 389.08 92.9118 401.39 95.1218 403.46C97.3318 405.53 98.6518 411.82 96.4818 412.35Z" fill="#EBEBEB"/>
<path d="M96.4818 412.35C94.3118 412.88 33.7818 407.79 31.6018 406.14C30.7618 405.52 30.9918 396.66 31.6018 385.96C31.6018 385.85 31.6018 385.73 31.6018 385.62L70.6918 388.47L70.6218 389.13C70.6218 389.13 92.9118 401.44 95.1218 403.51C97.3318 405.58 98.6518 411.82 96.4818 412.35Z" fill="#263238"/>
<path d="M95.9505 409.94C85.7705 408.83 44.6005 405.33 34.4505 405C34.3705 405 34.3605 405.06 34.4505 405.07C44.5105 406.39 85.7105 409.56 95.9405 410.07C96.1905 410.12 96.2105 410 95.9505 409.94Z" fill="#263238"/>
<path d="M75.0116 388.94C71.0116 387.86 66.1016 388.06 62.7916 390.66C62.6616 390.76 62.7916 390.95 62.9416 390.92C66.8775 390.002 70.9005 389.509 74.9416 389.45C75.0042 389.449 75.0646 389.427 75.1116 389.385C75.1587 389.344 75.1893 389.287 75.1978 389.225C75.2063 389.163 75.1922 389.1 75.158 389.048C75.1238 388.995 75.0718 388.957 75.0116 388.94Z" fill="#B5C7F1"/>
<path d="M77.7712 390.93C73.7712 389.85 68.8512 390.05 65.5412 392.65C65.4212 392.75 65.5412 392.94 65.6912 392.91C69.6271 391.993 73.6501 391.5 77.6912 391.44C77.7547 391.442 77.8168 391.421 77.8658 391.381C77.9148 391.34 77.9473 391.283 77.9572 391.221C77.967 391.158 77.9536 391.094 77.9193 391.04C77.885 390.986 77.8323 390.947 77.7712 390.93Z" fill="#B5C7F1"/>
<path d="M80.5248 392.92C76.5248 391.84 71.6048 392.04 68.2948 394.64C68.1748 394.74 68.2948 394.93 68.4548 394.9C72.3906 393.981 76.4137 393.489 80.4548 393.43C80.5174 393.43 80.5778 393.407 80.6248 393.366C80.6719 393.324 80.7025 393.268 80.711 393.206C80.7195 393.144 80.7054 393.081 80.6712 393.028C80.637 392.976 80.585 392.937 80.5248 392.92Z" fill="#B5C7F1"/>
<path d="M80.9522 380.63C79.5622 378.32 76.5422 379.05 74.7422 380.32C71.6838 382.545 69.2687 385.54 67.7422 389C67.7422 389.08 67.7422 389.13 67.8222 389.15C67.8129 389.228 67.8222 389.307 67.8493 389.381C67.8763 389.455 67.9203 389.521 67.9778 389.575C68.0352 389.628 68.1045 389.667 68.18 389.689C68.2555 389.711 68.335 389.715 68.4122 389.7C71.8222 388.75 75.6022 388.16 78.6222 386.19C80.4622 385 82.2922 382.81 80.9522 380.63ZM73.3422 387.2C71.6722 387.71 69.9922 388.13 68.3422 388.7C69.6461 386.963 71.0379 385.295 72.5122 383.7C73.2368 382.942 74.0119 382.233 74.8322 381.58C76.1222 380.58 81.0422 378.67 79.9622 383.02C79.3922 385.44 75.3522 386.6 73.3622 387.2H73.3422Z" fill="#B5C7F1"/>
<path d="M57.688 387.09C60.878 388.78 64.688 389.03 68.178 389.66C68.538 389.73 68.758 389.36 68.718 389.06C68.7335 389.055 68.7477 389.046 68.7595 389.035C68.7713 389.024 68.7804 389.01 68.7861 388.995C68.7919 388.979 68.7941 388.963 68.7927 388.946C68.7913 388.93 68.7863 388.914 68.778 388.9C66.9572 385.601 64.2975 382.842 61.068 380.9C59.168 379.79 56.068 379.34 54.918 381.76C53.768 384.18 55.828 386.1 57.688 387.09ZM56.118 384.09C54.648 379.86 59.728 381.33 61.118 382.19C61.9935 382.77 62.8288 383.408 63.618 384.1C65.2334 385.546 66.7721 387.074 68.228 388.68C66.528 388.26 64.818 387.99 63.108 387.68C61.048 387.19 56.948 386.41 56.118 384.07V384.09Z" fill="#B5C7F1"/>
<path d="M72.4223 385.46L29.6523 383.65C29.6523 383.65 41.3323 289.79 41.5423 284C42.1023 269 52.0523 172.41 52.0523 172.41H104.292C104.292 172.41 100.992 194.72 95.3623 208.86C91.5727 210.187 87.9138 211.86 84.4323 213.86C84.4323 213.86 79.5323 277.75 79.3523 285.72C78.9523 301.5 72.4223 385.46 72.4223 385.46Z" fill="#B5C7F1"/>
<path d="M71.282 377.62C64.622 377.2 66.542 377.23 59.862 376.88C56.602 376.71 35.142 375.62 32.072 375.99C32.002 375.99 32.002 376.11 32.072 376.13C35.072 376.76 56.582 377.49 59.842 377.59C66.522 377.81 64.612 377.68 71.292 377.82C71.3185 377.819 71.3435 377.807 71.3613 377.787C71.3791 377.768 71.3883 377.742 71.387 377.715C71.3857 377.689 71.3739 377.664 71.3542 377.646C71.3345 377.628 71.3085 377.619 71.282 377.62Z" fill="#263238"/>
<path d="M55.8837 178.17C53.9437 202.5 51.9537 226.84 49.7237 251.17C47.4937 275.5 44.8837 299.93 41.7237 324.22C39.9537 337.77 37.9537 356.88 35.8438 370.4C35.8438 370.49 35.9637 370.53 35.9837 370.4C40.2937 346.4 43.4637 316.56 46.1537 292.31C48.8437 268.06 51.0537 243.74 53.0237 219.42C54.1337 205.66 55.1337 191.89 56.1937 178.13C56.2037 178 55.9537 178 55.8837 178.17Z" fill="#263238"/>
<path d="M97.2208 207.921C92.7904 209.543 88.5107 211.551 84.4308 213.921C84.3964 213.936 84.3696 213.965 84.3565 214.001C84.3434 214.037 84.3449 214.076 84.3608 214.111C84.3768 214.145 84.4057 214.172 84.4413 214.185C84.477 214.198 84.5164 214.196 84.5508 214.181C88.8608 212.331 93.2508 210.561 97.4508 208.471C97.5238 208.44 97.5816 208.382 97.6116 208.309C97.6416 208.236 97.6413 208.153 97.6108 208.081C97.5803 208.008 97.5221 207.95 97.449 207.92C97.3758 207.89 97.2938 207.89 97.2208 207.921Z" fill="#263238"/>
<path d="M98.5931 178.35C98.5931 178.2 98.3231 178.17 98.3231 178.35C98.3231 183.46 98.0331 187.96 97.6031 192.75C97.4031 194.97 95.6031 207.23 91.7631 206.34C91.1231 206.19 90.7631 205.55 90.6931 204.58C90.7004 203.31 90.8718 202.046 91.2031 200.82C91.6231 198.25 91.9731 195.68 92.2031 193.08C92.6499 188.25 92.5963 183.388 92.0431 178.57C92.0353 178.542 92.0189 178.519 91.9964 178.502C91.9738 178.484 91.9464 178.475 91.9181 178.475C91.8899 178.475 91.8624 178.484 91.8398 178.502C91.8173 178.519 91.8009 178.542 91.7931 178.57C91.907 185.256 91.5159 191.942 90.6231 198.57C90.1431 201.76 88.5331 206.57 91.8731 207.05C95.2131 207.53 97.4731 199.51 97.8731 197.31C98.9344 191.048 99.1764 184.674 98.5931 178.35Z" fill="#263238"/>
<path d="M91.8618 206.65C91.5157 207.476 91.2283 208.325 91.0018 209.19C90.7493 209.858 90.6271 210.567 90.6418 211.28C90.6418 211.42 90.8318 211.43 90.9018 211.34C91.2995 210.722 91.6028 210.048 91.8018 209.34C92.0918 208.55 92.4018 207.77 92.6718 206.97C92.7142 206.863 92.7123 206.743 92.6663 206.637C92.6204 206.531 92.5342 206.448 92.4268 206.405C92.3194 206.363 92.1995 206.365 92.0936 206.411C91.9876 206.457 91.9043 206.543 91.8618 206.65Z" fill="#263238"/>
<path d="M74.4411 182.36C74.4533 181.826 74.3995 181.292 74.2811 180.77C74.2735 180.756 74.2621 180.743 74.2479 180.735C74.2338 180.726 74.2176 180.722 74.2011 180.722C74.1846 180.722 74.1684 180.726 74.1543 180.735C74.1401 180.743 74.1287 180.756 74.1211 180.77C74.0154 181.223 73.9551 181.686 73.9411 182.15C73.9411 182.68 73.8211 183.15 73.7611 183.73C73.65 184.812 73.4629 185.885 73.2011 186.94C72.7144 188.933 71.6987 190.757 70.2611 192.22C68.8275 193.631 67.1279 194.742 65.2611 195.49C63.195 196.222 61.0881 196.833 58.9511 197.32C58.9299 197.32 58.9095 197.329 58.8945 197.344C58.8795 197.359 58.8711 197.379 58.8711 197.4C58.8711 197.422 58.8795 197.442 58.8945 197.457C58.9095 197.472 58.9299 197.48 58.9511 197.48C61.3172 197.476 63.6602 197.014 65.8511 196.12C67.7933 195.392 69.5613 194.264 71.0411 192.81C72.5184 191.309 73.5559 189.431 74.0411 187.38C74.2859 186.323 74.4266 185.245 74.4611 184.16C74.4894 183.561 74.4827 182.96 74.4411 182.36Z" fill="#263238"/>
<path d="M125.574 84.5803C128.794 88.4703 132.294 98.9803 132.164 101.85C132.034 104.72 114.344 111.24 111.844 109.68C109.344 108.12 99.5043 94.2203 99.4143 89.0703C99.3243 83.9203 122.234 80.5603 125.574 84.5803Z" fill="#FFC3BD"/>
<path d="M98.9516 77.4405C97.3316 75.7505 92.0916 70.7005 89.7616 72.9805C88.3016 74.4005 91.8216 78.2905 93.3016 79.8305C96.3516 82.9905 98.7116 88.5805 99.8116 91.3105C100.912 94.0405 106.062 88.6505 106.062 88.6505C106.062 88.6505 103.182 81.8305 98.9516 77.4405Z" fill="#FFC3BD"/>
<path d="M103.252 94.36C103.252 94.36 105.062 99.22 108.012 99.11C110.962 99 110.212 94.82 110.172 94.52C110.262 94.78 112.042 99.2 115.002 98.79C117.962 98.38 116.702 94.27 116.612 94.01C116.772 94.22 119.052 97.01 121.222 96.18C124.962 94.76 119.352 87.49 119.892 84.3C119.892 84.3 125.412 84.61 125.572 84.58C125.572 84.58 120.372 77.58 116.022 77.06C115.389 76.9723 114.745 77.1054 114.199 77.4369C113.652 77.7684 113.237 78.278 113.022 78.88C113.022 78.88 111.592 76.43 109.252 76.68C108.052 76.81 107.192 78.85 107.192 78.85C106.841 78.3115 106.348 77.8808 105.767 77.6054C105.187 77.33 104.541 77.2209 103.902 77.29C102.252 77.56 101.432 79.62 101.342 80.42C100.642 86.54 103.252 94.36 103.252 94.36Z" fill="#FFC3BD"/>
<path d="M101.535 79.8604C101.535 79.8604 101.465 79.8604 101.455 79.8604C100.553 84.8305 101.184 89.9574 103.265 94.5604C103.335 94.7003 103.595 94.6503 103.545 94.4803C102.172 89.7296 101.495 84.8052 101.535 79.8604Z" fill="#263238"/>
<path d="M107.179 78.7804C107.179 78.7204 107.089 78.7204 107.079 78.7804C106.147 84.2686 107.211 89.9092 110.079 94.6804C110.189 94.8504 110.449 94.8904 110.339 94.6804C108.509 91.3604 107.079 83.4104 107.179 78.7804Z" fill="#263238"/>
<path d="M116.953 94.2701C114.213 89.5701 113.243 84.4701 113.013 79.0801C113.013 79.0101 112.913 79.0201 112.893 79.0801C112.293 81.7501 112.803 85.1601 113.423 87.7901C113.954 90.2365 115.116 92.5015 116.793 94.3601C116.843 94.4401 116.953 94.3701 116.953 94.2701Z" fill="#263238"/>
<path d="M103.25 94.36C103.685 95.258 104.201 96.1149 104.79 96.92C105.331 97.7264 106.077 98.3751 106.95 98.8C107.365 98.9594 107.825 98.9594 108.24 98.8C108.665 98.6481 109.043 98.3899 109.34 98.05C109.602 97.6858 109.786 97.271 109.879 96.8319C109.972 96.3929 109.972 95.9393 109.88 95.5L109.51 93.34L110.61 95.24C111.091 96.0895 111.705 96.856 112.43 97.51C112.746 97.8312 113.128 98.0812 113.549 98.2433C113.969 98.4054 114.42 98.4759 114.87 98.45C115.289 98.4247 115.687 98.2558 115.997 97.9717C116.306 97.6876 116.509 97.3057 116.57 96.89C116.686 95.9552 116.566 95.0063 116.22 94.13L115.33 91.69L116.96 93.69C117.414 94.2485 117.934 94.7489 118.51 95.18C119.044 95.603 119.691 95.8603 120.37 95.92C120.676 95.934 120.98 95.8629 121.249 95.7147C121.517 95.5664 121.739 95.3467 121.89 95.08C122.126 94.4404 122.178 93.7476 122.04 93.08C121.753 91.6044 121.352 90.1533 120.84 88.74C120.6 88.02 120.36 87.29 120.16 86.55C119.915 85.8235 119.826 85.0533 119.9 84.29C119.913 85.0458 120.069 85.7922 120.36 86.49C120.62 87.2 120.91 87.9 121.2 88.61C121.82 90.0245 122.306 91.4943 122.65 93C122.856 93.809 122.821 94.6605 122.55 95.45C122.355 95.8641 122.042 96.2118 121.651 96.45C121.26 96.6882 120.808 96.8064 120.35 96.79C119.505 96.7423 118.693 96.4428 118.02 95.93C117.369 95.464 116.781 94.9162 116.27 94.3L117.01 93.86C117.441 94.8855 117.596 96.006 117.46 97.11C117.369 97.7244 117.064 98.2872 116.6 98.7C116.137 99.0851 115.569 99.3221 114.97 99.38C114.398 99.4152 113.825 99.3272 113.291 99.1219C112.756 98.9166 112.271 98.5988 111.87 98.19C111.066 97.469 110.39 96.617 109.87 95.67L110.6 95.41C110.694 95.9583 110.667 96.5204 110.522 97.0574C110.377 97.5943 110.117 98.0934 109.76 98.52C109.375 98.9219 108.893 99.218 108.36 99.38C107.818 99.5474 107.232 99.5045 106.72 99.26C105.8 98.7571 105.041 98.005 104.53 97.09C104.001 96.2314 103.572 95.3155 103.25 94.36Z" fill="#263238"/>
<path d="M109.753 107.61C109.753 107.61 90.6829 97.8599 98.1529 92.2799C100.363 90.6199 111.453 86.4499 112.333 88.6599C113.473 91.5099 109.163 94.1199 106.203 95.3199C106.203 95.3199 113.153 97.7299 112.923 103.06C112.865 104.037 112.538 104.979 111.979 105.782C111.42 106.584 110.649 107.217 109.753 107.61Z" fill="#FFC3BD"/>
<path d="M97.5625 92.7804C98.3495 92.0234 99.2463 91.3896 100.223 90.9004C101.192 90.3835 102.195 89.9292 103.223 89.5404C105.264 88.7383 107.372 88.116 109.523 87.6804C110.094 87.5605 110.681 87.5268 111.263 87.5804C111.615 87.602 111.957 87.7047 112.263 87.8804C112.421 87.9724 112.563 88.0908 112.683 88.2304C112.8 88.3693 112.892 88.5286 112.953 88.7004C113.183 89.3163 113.183 89.9945 112.953 90.6104C112.742 91.1722 112.43 91.6907 112.033 92.1404C111.279 92.9929 110.382 93.707 109.383 94.2504C108.421 94.8008 107.418 95.2755 106.383 95.6704V94.9604C107.166 95.2663 107.919 95.6446 108.633 96.0904C109.35 96.5228 110.02 97.0289 110.633 97.6004C111.236 98.1877 111.748 98.8618 112.153 99.6004C112.562 100.32 112.83 101.11 112.943 101.93C112.731 101.151 112.393 100.411 111.943 99.7404C111.482 99.0908 110.938 98.5056 110.323 98.0004C109.705 97.4844 109.035 97.0352 108.323 96.6604C107.631 96.2791 106.904 95.9644 106.153 95.7204L105.223 95.4304L106.123 95.0104C107.098 94.5879 108.043 94.1002 108.953 93.5504C109.851 93.0319 110.661 92.3736 111.353 91.6004C111.684 91.2801 111.927 90.8803 112.06 90.4392C112.193 89.9982 112.211 89.5304 112.113 89.0804C111.893 88.3804 110.703 88.4104 109.693 88.5604C108.683 88.7104 107.613 88.9804 106.563 89.2404C105.513 89.5004 104.483 89.7904 103.453 90.1204C101.363 90.6964 99.3761 91.5938 97.5625 92.7804Z" fill="#263238"/>
<path d="M87.8013 121.41C104.661 142.22 129.171 155.7 135.221 151.31C141.271 146.92 120.881 123.94 120.531 123.6C119.341 122.46 110.321 117.77 93.9413 110.87C77.8713 104.1 80.2713 112.12 87.8013 121.41Z" fill="#FFC3BD"/>
<path d="M112.954 119L100.254 135.7C100.254 135.7 89.5941 124.7 83.9541 117.42C78.3141 110.14 78.8741 104.48 91.4941 109.18C98.8817 111.915 106.055 115.198 112.954 119Z" fill="#F3A335"/>
<path d="M99.0412 131.87C100.591 129.59 102.211 127.35 103.871 125.16C104.701 124.08 105.501 122.98 106.351 121.91C107.201 120.84 108.171 119.77 109.041 118.67C109.101 118.59 109.221 118.67 109.161 118.75C108.361 119.85 107.641 121 106.841 122.1C106.041 123.2 105.161 124.34 104.311 125.46C102.638 127.66 100.915 129.82 99.1412 131.94C99.0912 132 98.9512 131.94 99.0412 131.87Z" fill="#263238"/>
<path d="M106.332 127.68L100.252 135.68C100.252 135.68 89.5916 124.68 83.9516 117.4L83.4116 116.69L83.1816 116.36L82.8316 115.85C82.5316 115.41 82.2616 114.98 82.0216 114.56C81.9316 114.41 81.8516 114.26 81.7716 114.11C81.3545 113.351 81.0193 112.55 80.7716 111.72C80.6979 111.464 80.6411 111.204 80.6016 110.94C80.6016 110.81 80.6016 110.69 80.6016 110.57C86.1416 114.41 99.1416 122.82 106.332 127.68Z" fill="#FEA123"/>
<path d="M106.841 182.73C106.841 182.73 48.9709 183.73 48.6309 183.37C47.7309 182.37 59.4208 122.78 71.5108 110.5C75.7808 106.16 84.5908 107.93 86.0608 108.64C89.4508 110.28 92.6408 113.82 95.3108 120.38C100.651 133.5 107.571 181.79 106.841 182.73Z" fill="#FFB147"/>
<path opacity="0.1" d="M88.9524 110.6H71.4224L71.5124 110.5C71.9203 110.088 72.3731 109.722 72.8624 109.41H87.4124C87.9571 109.764 88.4721 110.162 88.9524 110.6ZM90.8824 112.6H69.7724C69.4924 112.97 69.2224 113.37 68.9524 113.79H91.8024C91.5124 113.37 91.2124 113 90.9524 112.6H90.8824ZM93.0624 115.79H67.7424C67.5224 116.18 67.3024 116.58 67.0924 116.99H93.7424C93.5324 116.58 93.3124 116.17 93.0824 115.79H93.0624ZM94.6924 118.99H66.0824L65.5124 120.18H95.2224C95.0624 119.77 94.8924 119.37 94.7124 119L94.6924 118.99ZM95.9624 122.18H64.6324L64.1224 123.37H96.3724C96.2424 123 96.1124 122.56 95.9524 122.18H95.9624ZM96.9624 125.37H63.3124C63.1624 125.77 63.0024 126.16 62.8424 126.57H97.3124L96.9624 125.37ZM97.8224 128.56H62.1024C61.9624 128.96 61.8124 129.35 61.6724 129.76H98.1424C98.0157 129.353 97.9157 128.953 97.8424 128.56H97.8224ZM98.6024 131.76H60.9524C60.8124 132.15 60.6824 132.55 60.5524 132.95H98.8724L98.6024 131.76ZM99.3224 134.95H59.9524C59.8224 135.34 59.7024 135.74 59.5724 136.14H99.6524C99.5124 135.74 99.4324 135.34 99.3424 135L99.3224 134.95ZM100.002 138.14H58.9524C58.8224 138.53 58.7024 138.93 58.5824 139.34H100.322C100.192 138.94 100.112 138.54 100.022 138.14H100.002ZM100.652 141.33H57.9524C57.8324 141.73 57.7124 142.13 57.6024 142.53H100.952L100.652 141.33ZM101.272 144.53H57.0124C56.8924 144.93 56.7824 145.32 56.6724 145.72H101.512C101.442 145.32 101.372 144.92 101.292 144.53H101.272ZM101.862 147.72H56.1224C56.0124 148.12 55.9024 148.52 55.8024 148.91H102.102C102.032 148.51 101.952 148.12 101.882 147.72H101.862ZM102.432 150.91H55.2724C55.1624 151.31 55.0624 151.71 54.9624 152.11H102.662C102.602 151.71 102.532 151.31 102.452 150.91H102.432ZM103.002 154.11H54.4424C54.3524 154.51 54.2524 154.9 54.1524 155.3H103.212C103.152 154.91 103.082 154.51 103.022 154.11H103.002ZM103.522 157.3H53.6524C53.5624 157.7 53.4624 158.1 53.3724 158.49H103.742C103.682 158.1 103.612 157.7 103.542 157.3H103.522ZM104.042 160.49H52.8924C52.8024 160.9 52.7124 161.3 52.6124 161.69H104.252C104.192 161.29 104.132 160.9 104.062 160.49H104.042ZM104.552 163.68H52.1624C52.0724 164.08 51.9824 164.49 51.8924 164.88H104.742C104.682 164.49 104.622 164.09 104.572 163.68H104.552ZM105.022 166.88H51.4524C51.3724 167.28 51.2824 167.68 51.2024 168.07H105.202L105.022 166.88ZM105.482 170.07H50.7724C50.6924 170.48 50.6124 170.87 50.5324 171.26H105.672C105.612 170.87 105.562 170.47 105.502 170.07H105.482ZM105.922 173.26H50.1424C50.0491 173.673 49.9691 174.073 49.9024 174.46H106.102C106.052 174.07 105.952 173.67 105.952 173.26H105.922ZM106.322 176.45H49.5324C49.4524 176.87 49.3824 177.27 49.3124 177.65H106.492C106.452 177.27 106.402 176.87 106.342 176.45H106.322ZM106.692 179.65H48.9524C48.8824 180.08 48.8324 180.48 48.7724 180.84H106.772C106.792 180.49 106.752 180.09 106.712 179.65H106.692ZM48.5724 182.84C48.528 183.014 48.528 183.196 48.5724 183.37C48.8424 183.64 84.7324 183.09 100.022 182.84H48.5724Z" fill="#FFB147"/>
<path d="M74.812 117.72C70.912 123.07 50.912 145.18 50.172 147.23C49.432 149.28 54.062 153.81 53.982 154.66C53.682 158.12 46.212 181.14 43.222 178.8C39.282 175.72 22.602 153.66 24.962 144.11C27.322 134.56 66.272 111.63 72.452 109.64C78.632 107.65 78.662 112.44 74.812 117.72Z" fill="#FFC3BD"/>
<path d="M59.1022 137.85L47.7422 121.9C47.7422 121.9 60.4522 113.56 68.9522 110C77.4522 106.44 81.6422 108.42 73.8722 119.41C69.3302 125.853 64.3976 132.011 59.1022 137.85Z" fill="#F3A335"/>
<path d="M51.1047 120.86C52.9047 122.947 54.6547 125.08 56.3547 127.26C57.1947 128.33 58.0447 129.39 58.8547 130.48C59.6647 131.57 60.4647 132.79 61.3147 133.91C61.3747 133.99 61.2547 134.09 61.1947 134.01C60.3347 133.01 59.4147 132.01 58.5547 130.91C57.6947 129.81 56.8147 128.71 55.9547 127.61C54.2547 125.43 52.6047 123.2 51.0147 120.94C50.9547 120.88 51.0547 120.8 51.1047 120.86Z" fill="#263238"/>
<path d="M59.0838 137.93C60.8238 135.62 62.8738 133.56 64.7538 131.37C66.6338 129.18 68.5038 126.92 70.2938 124.64C70.2938 124.64 70.4238 124.64 70.3838 124.7C69.5538 125.89 68.7438 127.09 67.8738 128.25C67.4438 128.82 66.9938 129.38 66.5338 129.94L67.2038 129.39C67.8893 128.874 68.6001 128.394 69.3338 127.95C69.3338 127.95 69.4138 127.95 69.3338 128.01C68.6974 128.598 68.0297 129.153 67.3338 129.67C66.8338 130.05 66.3338 130.4 65.8038 130.75L65.0038 131.75C63.2583 134.003 61.3138 136.095 59.1938 138C59.1338 138.09 59.0238 138 59.0838 137.93Z" fill="#263238"/>
<path d="M53.0039 187.54C55.6739 185.73 52.0039 183.61 52.0039 183.61C52.0039 183.61 58.0039 185.39 60.0039 182.46C62.0039 179.53 57.4439 177.23 57.1239 177.05C57.4439 177.15 63.0039 178.63 64.7439 175.48C66.4839 172.33 61.6039 170.57 61.2839 170.48C61.6139 170.48 65.9439 170.29 66.7239 167.59C68.0539 162.96 55.6139 162.42 52.9339 159.59C52.9339 159.59 54.1339 153.47 54.2339 153.3C53.4293 154.673 52.1806 155.731 50.6939 156.3C48.0039 157.06 45.5839 157.5 44.4939 158.79C43.9853 159.354 43.6719 160.067 43.5998 160.824C43.5278 161.58 43.701 162.339 44.0939 162.99C44.0939 162.99 40.6939 162.6 39.2439 165.04C38.5039 166.29 39.8539 168.6 39.8539 168.6C39.0845 168.545 38.3148 168.702 37.6288 169.055C36.9428 169.408 36.3668 169.942 35.9639 170.6C35.0339 172.4 36.5339 174.43 36.5339 174.43C36.5339 174.43 33.8139 175.43 33.4639 177.59C32.7939 181.92 47.2839 191.4 53.0039 187.54Z" fill="#FFC3BD"/>
<path d="M36.7702 174.8C36.7702 174.8 36.6602 174.8 36.7002 174.87C40.8453 179.335 46.2517 182.432 52.2002 183.75C52.3902 183.75 52.5302 183.49 52.3302 183.41C46.7538 181.309 41.5123 178.408 36.7702 174.8Z" fill="#263238"/>
<path d="M39.815 168.56C39.8084 168.555 39.8009 168.551 39.7928 168.548C39.7847 168.546 39.7763 168.545 39.7679 168.546C39.7595 168.547 39.7514 168.55 39.7441 168.554C39.7367 168.558 39.7302 168.563 39.725 168.57C39.7197 168.577 39.7158 168.584 39.7135 168.592C39.7111 168.6 39.7104 168.609 39.7113 168.617C39.7123 168.625 39.7148 168.633 39.7189 168.641C39.7229 168.648 39.7284 168.655 39.735 168.66C44.356 173.532 50.566 176.593 57.245 177.29C57.475 177.29 57.705 177.09 57.435 177.05C52.955 176.37 44.215 172 39.815 168.56Z" fill="#263238"/>
<path d="M61.8182 170.33C55.2982 169.59 49.6682 166.83 44.2981 163.17C44.2281 163.17 44.1682 163.22 44.2082 163.28C46.3482 165.79 50.0182 167.77 53.0082 169.07C55.7538 170.327 58.7815 170.841 61.7882 170.56C61.9482 170.55 61.9482 170.35 61.8182 170.33Z" fill="#263238"/>
<path d="M36.399 174.43C35.8559 173.883 35.4749 173.196 35.2984 172.446C35.1218 171.696 35.1567 170.911 35.399 170.18C35.7122 169.491 36.2622 168.937 36.949 168.62C37.7676 168.337 38.643 168.258 39.499 168.39C39.0217 167.717 38.7595 166.915 38.747 166.091C38.7345 165.266 38.9723 164.457 39.429 163.77C39.9412 163.182 40.6546 162.808 41.429 162.72C42.3129 162.634 43.2042 162.668 44.079 162.82C43.7146 162.391 43.4553 161.883 43.3216 161.336C43.1879 160.789 43.1836 160.219 43.309 159.67C43.4745 159.074 43.7781 158.525 44.195 158.068C44.612 157.611 45.1306 157.259 45.709 157.04C47.0697 156.547 48.4822 156.212 49.919 156.04C50.6566 155.929 51.3784 155.731 52.069 155.45C52.8134 155.109 53.4373 154.551 53.8591 153.85C53.9391 153.73 53.9391 153.85 53.8591 153.96C53.579 154.436 53.2206 154.862 52.799 155.22C52.3613 155.601 51.8734 155.921 51.349 156.17C50.0473 156.661 48.7101 157.052 47.349 157.34C46.1559 157.657 45.1012 158.361 44.349 159.34C44.0053 159.858 43.812 160.461 43.7909 161.083C43.7697 161.704 43.9214 162.319 44.229 162.86C44.229 162.86 44.229 162.99 44.139 162.98C43.3406 162.976 42.5447 163.07 41.769 163.26C41.1256 163.413 40.5457 163.763 40.109 164.26C39.7045 164.893 39.4731 165.622 39.438 166.373C39.4029 167.124 39.5653 167.871 39.909 168.54C39.0466 168.598 38.2024 168.815 37.419 169.18C36.9104 169.492 36.5012 169.943 36.239 170.48C35.9395 171.098 35.8173 171.787 35.8862 172.47C35.9551 173.153 36.2122 173.804 36.629 174.35C36.6329 174.366 36.6329 174.383 36.629 174.4C36.629 174.4 35.759 174.76 35.719 174.76C35.679 174.76 35.719 174.76 35.719 174.76C35.9387 174.636 36.1658 174.526 36.399 174.43Z" fill="#263238"/>
<path d="M86.0427 117.51C82.8627 118.68 76.6427 114.35 73.9327 110.57C73.7527 110.31 73.5727 99.0601 73.3127 96.8401C73.2527 96.3801 87.6827 98.5601 87.6827 98.5601C87.2214 101.436 87.1139 104.358 87.3627 107.26C87.4027 107.58 89.1127 116.39 86.0427 117.51Z" fill="#FFC3BD"/>
<path d="M87.6827 98.5597C87.6827 98.5597 87.5227 99.4897 87.3927 100.87C83.3927 105.78 76.9727 106.3 73.7127 106.19C73.6027 102.7 73.4727 98.1897 73.3127 96.8397C73.2527 96.3897 87.6827 98.5597 87.6827 98.5597Z" fill="#263238"/>
<path d="M73.3707 72.8701C73.3707 72.8701 68.7707 74.6501 67.8307 79.2501C66.8907 83.8501 67.8307 88.7301 68.2107 88.9801C68.5907 89.2301 73.3707 72.8701 73.3707 72.8701Z" fill="#263238"/>
<path d="M91.9509 78.8097C93.1309 83.8797 89.5509 98.0697 85.7909 101.03C80.3509 105.33 71.9109 105.21 68.3709 98.7797C64.9509 92.5497 69.9509 74.1497 74.1009 71.4997C80.2009 67.6097 90.1809 71.3097 91.9509 78.8097Z" fill="#FFC3BD"/>
<path d="M77.678 86.7803C77.678 86.7803 77.748 86.8403 77.738 86.8803C77.538 87.8803 77.468 89.0103 78.308 89.4903C78.308 89.4903 78.308 89.5503 78.308 89.5403C77.228 89.2003 77.328 87.6703 77.678 86.7803Z" fill="#263238"/>
<path d="M78.7332 85.9003C80.3432 86.0503 79.9132 89.2503 78.4332 89.1103C76.9532 88.9703 77.3932 85.7703 78.7332 85.9003Z" fill="#263238"/>
<path d="M72.1009 85.79C72.1009 85.79 72.0209 85.79 72.0109 85.87C71.9209 86.87 71.6509 87.98 70.7109 88.2V88.26C71.8309 88.24 72.1709 86.74 72.1009 85.79Z" fill="#263238"/>
<path d="M71.3527 84.6398C69.7727 84.3198 69.2427 87.4998 70.7127 87.7998C72.1827 88.0998 72.6727 84.9098 71.3527 84.6398Z" fill="#263238"/>
<path d="M72.8324 90.4897C72.8324 90.4897 72.4124 91.9297 72.3124 92.6297C73.6719 92.8285 74.9956 93.2225 76.2424 93.7997C76.5324 93.9397 76.5724 93.6897 76.2424 93.4297C75.312 92.6739 74.1766 92.2142 72.9824 92.1097C72.9824 91.9097 73.6724 89.8997 73.5624 89.8697C73.0224 89.8386 72.4806 89.8824 71.9524 89.9997C72.7324 86.9997 73.9524 84.0797 74.7324 80.9997C74.7324 80.8897 74.6024 80.8297 74.5524 80.9197C73.1095 83.9738 71.9707 87.1625 71.1524 90.4397C71.0224 90.8797 72.5324 90.5697 72.8324 90.4897Z" fill="#263238"/>
<path d="M79.9523 84.8105C79.5723 84.5705 79.2723 84.2806 78.9523 84.0106C78.6323 83.7406 78.2123 83.4906 78.0623 83.0106C78.0303 82.8661 78.0484 82.715 78.1139 82.5822C78.1794 82.4495 78.2882 82.3431 78.4223 82.2806C78.7036 82.1885 79.0046 82.1743 79.2933 82.2394C79.5821 82.3046 79.8478 82.4466 80.0623 82.6506C80.5674 82.9897 80.9248 83.5079 81.0623 84.1006C81.0887 84.2398 81.0728 84.3837 81.0166 84.5139C80.9605 84.644 80.8667 84.7543 80.7473 84.8307C80.6279 84.9071 80.4884 84.946 80.3467 84.9424C80.205 84.9388 80.0677 84.8929 79.9523 84.8105Z" fill="#263238"/>
<path d="M70.6543 81.1196C71.0943 81.0496 71.4943 80.9296 71.9243 80.8196C72.3875 80.78 72.824 80.5864 73.1643 80.2696C73.2535 80.1515 73.3018 80.0076 73.3018 79.8596C73.3018 79.7116 73.2535 79.5677 73.1643 79.4496C72.9451 79.2501 72.6767 79.1125 72.3867 79.051C72.0968 78.9895 71.7956 79.0063 71.5143 79.0996C70.9133 79.2002 70.3714 79.521 69.9943 79.9996C69.9182 80.1124 69.8756 80.2444 69.8714 80.3804C69.8673 80.5164 69.9017 80.6507 69.9708 80.7679C70.0399 80.8851 70.1407 80.9804 70.2617 81.0426C70.3827 81.1049 70.5188 81.1316 70.6543 81.1196Z" fill="#263238"/>
<path d="M89.5902 90.9301C86.6502 90.6401 88.2502 77.6701 88.2502 77.6701C86.4355 78.2882 84.5369 78.6254 82.6202 78.6701C80.6838 78.6019 78.7614 78.3134 76.8902 77.8101C76.4902 77.6601 81.8002 76.1601 81.8002 76.1601C81.8002 76.1601 68.7402 77.3001 68.3002 74.8401C68.1402 73.9901 70.5702 66.2501 81.4102 66.7401C89.4102 67.1001 93.1402 75.4601 93.1402 75.4601C93.1402 75.4601 97.0302 79.7901 96.3602 81.7501C95.2202 85.1901 92.7102 91.2401 89.5902 90.9301Z" fill="#263238"/>
<path d="M87.8145 91.0002C87.8145 91.0002 91.4645 86.6402 93.4745 88.0002C95.4845 89.3602 92.4745 95.8502 89.8945 96.5602C89.5731 96.6719 89.2324 96.7176 88.8929 96.6946C88.5534 96.6716 88.2221 96.5803 87.9186 96.4263C87.6152 96.2723 87.346 96.0586 87.1271 95.7981C86.9082 95.5376 86.744 95.2356 86.6445 94.9102L87.8145 91.0002Z" fill="#FFC3BD"/>
<path d="M136.52 150.56C144.64 144.29 136.88 112.46 132.16 100.74C130.77 97.2897 108.72 103.74 109.75 107.61C115.64 129.5 127.63 157.43 136.52 150.56Z" fill="#FFC3BD"/>
<path d="M113.402 119.62L115.832 125.62C116.662 127.62 117.472 129.62 118.372 131.62C119.272 133.62 120.142 135.55 121.062 137.5C121.982 139.45 123.002 141.36 124.002 143.28C122.737 141.518 121.585 139.678 120.552 137.77C119.552 135.86 118.552 133.9 117.682 131.92C116.812 129.94 116.012 127.92 115.292 125.86C114.572 123.8 113.952 121.73 113.402 119.62Z" fill="#263238"/>
<path d="M111.958 56.3499C112.054 57.4746 111.815 58.6026 111.271 59.5915C110.726 60.5803 109.901 61.3857 108.899 61.9058C107.898 62.4258 106.764 62.6373 105.642 62.5135C104.52 62.3896 103.46 61.936 102.596 61.21C101.732 60.4839 101.102 59.518 100.786 58.4342C100.471 57.3504 100.483 56.1974 100.823 55.1209C101.162 54.0444 101.813 53.0926 102.693 52.3858C103.573 51.679 104.643 51.249 105.768 51.1499C106.516 51.0841 107.269 51.1664 107.986 51.3922C108.702 51.618 109.366 51.9829 109.941 52.4659C110.516 52.9489 110.99 53.5406 111.336 54.2071C111.682 54.8736 111.894 55.6017 111.958 56.3499Z" fill="white"/>
<path d="M111.958 56.35C112.082 57.8811 111.614 59.4015 110.65 60.5977C109.686 61.794 108.301 62.575 106.778 62.78C105.949 62.9463 105.094 62.9356 104.27 62.7485C103.445 62.5613 102.669 62.202 101.993 61.6941C101.317 61.1861 100.756 60.5411 100.347 59.8011C99.9379 59.0612 99.6897 58.2431 99.6188 57.4005C99.5479 56.558 99.6559 55.7099 99.9356 54.912C100.215 54.114 100.661 53.3843 101.242 52.7705C101.824 52.1567 102.529 51.6727 103.31 51.3504C104.092 51.028 104.933 50.8745 105.778 50.9C107.309 50.8477 108.803 51.383 109.952 52.3964C111.101 53.4097 111.819 54.8243 111.958 56.35ZM111.958 56.35C111.894 55.6144 111.682 54.8993 111.334 54.2479C110.987 53.5965 110.511 53.0222 109.935 52.5597C109.36 52.0972 108.696 51.756 107.985 51.5567C107.274 51.3574 106.53 51.3041 105.798 51.4C104.398 51.5798 103.122 52.2938 102.237 53.3925C101.351 54.4912 100.924 55.8897 101.046 57.2958C101.167 58.7018 101.827 60.0065 102.888 60.9373C103.949 61.868 105.328 62.3526 106.738 62.29C107.477 62.259 108.201 62.0787 108.868 61.76C109.535 61.4413 110.13 60.9908 110.618 60.4356C111.106 59.8805 111.476 59.2322 111.706 58.53C111.937 57.8278 112.022 57.0862 111.958 56.35Z" fill="#263238"/>
<path d="M99.5361 66.8802C99.5892 67.5068 99.4553 68.135 99.1514 68.6855C98.8475 69.236 98.3872 69.6841 97.8287 69.973C97.2702 70.2619 96.6386 70.3788 96.0137 70.3089C95.3888 70.2389 94.7986 69.9852 94.3178 69.5799C93.8371 69.1746 93.4873 68.6359 93.3126 68.0318C93.138 67.4277 93.1463 66.7854 93.3367 66.1861C93.527 65.5868 93.8907 65.0573 94.3819 64.6647C94.8731 64.2721 95.4696 64.0339 96.0961 63.9802C96.5127 63.9432 96.9325 63.989 97.3313 64.1149C97.7301 64.2409 98.1001 64.4445 98.4198 64.7141C98.7396 64.9837 99.0028 65.3138 99.1944 65.6856C99.386 66.0574 99.5022 66.4634 99.5361 66.8802Z" fill="white"/>
<path d="M99.5361 66.8795C99.5923 67.5658 99.4406 68.2531 99.1008 68.8519C98.761 69.4508 98.2488 69.9336 97.6309 70.2374C97.013 70.5412 96.3179 70.652 95.6362 70.5553C94.9545 70.4587 94.3176 70.1592 93.8084 69.6956C93.2993 69.2321 92.9414 68.626 92.7814 67.9563C92.6214 67.2866 92.6667 66.5842 92.9113 65.9406C93.1559 65.297 93.5886 64.7419 94.1531 64.3475C94.7175 63.9532 95.3876 63.7378 96.0761 63.7295C96.9425 63.726 97.7786 64.0477 98.4193 64.631C99.0599 65.2142 99.4585 66.0166 99.5361 66.8795ZM99.5361 66.8795C99.5032 66.4738 99.386 66.0794 99.1922 65.7214C98.9984 65.3635 98.7321 65.0499 98.4103 64.8005C98.0886 64.5512 97.7184 64.3717 97.3234 64.2734C96.9283 64.175 96.5172 64.1601 96.1161 64.2295C95.553 64.3248 95.0298 64.582 94.6105 64.9698C94.1912 65.3575 93.8939 65.859 93.755 66.4129C93.616 66.9669 93.6414 67.5493 93.828 68.089C94.0147 68.6288 94.3544 69.1025 94.8059 69.4523C95.2573 69.8021 95.8009 70.0128 96.3701 70.0588C96.9394 70.1047 97.5097 69.9839 98.0114 69.711C98.5131 69.4381 98.9244 69.0251 99.1952 68.5222C99.466 68.0194 99.5844 67.4486 99.5361 66.8795Z" fill="#263238"/>
<path d="M154.616 29.7899C155.147 34.18 153.914 38.6012 151.188 42.083C148.462 45.5647 144.466 47.8223 140.076 48.3599C137.188 48.7195 134.255 48.309 131.576 47.1699C130.27 48.8803 128.586 50.2664 126.657 51.2205C124.727 52.1745 122.604 52.6708 120.451 52.6708C118.299 52.6708 116.176 52.1745 114.246 51.2205C112.317 50.2664 110.633 48.8803 109.326 47.1699C108.712 47.3516 108.083 47.482 107.446 47.5599C105.269 47.8258 103.061 47.4544 101.09 46.4907C99.1198 45.527 97.471 44.0125 96.3438 42.1306C95.2166 40.2488 94.6594 38.0804 94.7397 35.8882C94.82 33.696 95.5345 31.5742 96.7964 29.7799C94.339 26.6534 93.0795 22.7519 93.2449 18.7787C93.4103 14.8055 94.9898 11.0221 97.6985 8.11071C100.407 5.19929 104.067 3.35138 108.018 2.90018C111.969 2.44898 115.951 3.42417 119.246 5.64992C120.792 3.72803 122.818 2.24855 125.119 1.36125C127.42 0.473941 129.915 0.21029 132.351 0.596977C134.787 0.983665 137.077 2.00697 138.991 3.56332C140.904 5.11967 142.372 7.15383 143.246 9.45992C143.831 9.26342 144.434 9.12934 145.046 9.05992C146.895 8.8383 148.768 9.18554 150.415 10.0554C152.062 10.9252 153.404 12.2763 154.263 13.9285C155.122 15.5807 155.458 17.4556 155.224 19.3032C154.991 21.1508 154.2 22.8834 152.956 24.2699C153.831 25.9977 154.393 27.8665 154.616 29.7899Z" fill="white"/>
<path d="M154.617 29.7899C155.137 34.1784 153.921 38.5963 151.227 42.0999C150.324 43.2412 149.283 44.2657 148.127 45.1499C145.787 46.9215 143.025 48.0524 140.114 48.4311C137.203 48.8099 134.243 48.4235 131.527 47.3099H131.687C130.373 49.0531 128.674 50.469 126.723 51.4474C124.771 52.4257 122.62 52.9399 120.437 52.9499C118.244 52.9577 116.078 52.4616 114.107 51.4999C112.137 50.5215 110.411 49.1136 109.057 47.3799L109.417 47.4999C107.091 48.2025 104.603 48.1676 102.297 47.3999C99.9806 46.6354 97.9624 45.1628 96.5274 43.1899C95.8249 42.1982 95.2692 41.1103 94.8773 39.9599C94.5026 38.8029 94.3037 37.5961 94.2873 36.3799C94.2656 33.9288 95.0064 31.5315 96.4073 29.5199V30.0799C93.8496 26.8777 92.545 22.8538 92.7373 18.7599C92.8458 15.7104 93.7731 12.7463 95.4219 10.1787C97.0707 7.61107 99.3802 5.53455 102.108 4.16704C104.836 2.79954 107.882 2.19147 110.925 2.40664C113.969 2.62181 116.899 3.65229 119.407 5.38994L118.967 5.44995C120.555 3.4951 122.633 1.9954 124.988 1.10316C127.343 0.210931 129.893 -0.0420412 132.377 0.369945C134.847 0.779711 137.165 1.83419 139.096 3.42678C141.028 5.01938 142.504 7.09365 143.377 9.43994L143.247 9.36994C145.201 8.73444 147.311 8.76257 149.247 9.44994C150.671 9.95911 151.947 10.8117 152.962 11.9321C153.978 13.0525 154.701 14.4061 155.068 15.8729C155.435 17.3397 155.434 18.8744 155.066 20.3409C154.698 21.8074 153.974 23.1604 152.957 24.2799C153.832 26.0039 154.395 27.8695 154.617 29.7899ZM154.617 29.7899C154.381 27.8671 153.806 26.0015 152.917 24.2799C154.276 22.7881 155.1 20.886 155.257 18.8741C155.415 16.8622 154.898 14.8552 153.787 13.1699C152.689 11.4894 151.065 10.221 149.168 9.56396C147.271 8.90694 145.21 8.89849 143.307 9.53994H143.207V9.43994C142.32 7.16957 140.855 5.1703 138.957 3.63994C137.059 2.11225 134.788 1.11813 132.377 0.759944C129.978 0.401627 127.527 0.677434 125.267 1.55995C123.022 2.45157 121.052 3.92126 119.557 5.81994L119.367 6.05995L119.107 5.87995C115.888 3.73465 112.011 2.80482 108.169 3.25687C104.328 3.70892 100.772 5.51333 98.1391 8.34721C95.5061 11.1811 93.9675 14.8594 93.7986 18.724C93.6297 22.5886 94.8416 26.3872 97.2173 29.4399L97.4373 29.7199L97.2274 30.0099C95.9209 31.8542 95.2218 34.0598 95.2274 36.3199C95.2432 37.4431 95.4218 38.558 95.7573 39.6299C96.108 40.6997 96.617 41.711 97.2673 42.6299C98.5907 44.4807 100.455 45.8755 102.605 46.6224C104.754 47.3692 107.081 47.4312 109.267 46.7999L109.497 46.7399L109.627 46.9199C110.9 48.5955 112.534 49.9627 114.407 50.9199C117.26 52.3651 120.527 52.7723 123.647 52.0716C126.767 51.3709 129.546 49.6061 131.507 47.0799L131.577 46.9899H131.677C134.342 48.1426 137.264 48.5704 140.147 48.2299C143.048 47.8735 145.805 46.7671 148.147 45.0199C149.301 44.1526 150.343 43.1448 151.247 42.0199C152.135 40.8692 152.878 39.613 153.457 38.2799C154.567 35.5967 154.967 32.6726 154.617 29.7899Z" fill="#263238"/>
<path d="M126.104 30.3103C126.083 29.0932 126.3 27.8838 126.744 26.7503C127.301 25.5607 128.241 24.5923 129.414 24.0003C129.824 23.7503 130.314 23.4803 130.914 23.1703C131.521 22.8504 132.1 22.4791 132.644 22.0603C133.203 21.635 133.689 21.1216 134.084 20.5403C134.478 19.9488 134.684 19.2513 134.674 18.5403C134.684 18.0212 134.571 17.5071 134.344 17.0403C134.139 16.6223 133.849 16.2512 133.494 15.9503C133.133 15.6492 132.714 15.4247 132.264 15.2903C131.802 15.1402 131.319 15.0626 130.834 15.0603C130.278 15.0499 129.726 15.1555 129.214 15.3703C128.745 15.5633 128.304 15.819 127.904 16.1303C127.53 16.443 127.194 16.7988 126.904 17.1903C126.617 17.5429 126.353 17.9137 126.114 18.3003L122.594 15.8703C122.935 15.0582 123.408 14.3081 123.994 13.6503C124.557 13.0016 125.218 12.4448 125.954 12.0003C126.704 11.5581 127.512 11.2215 128.354 11.0003C129.225 10.7705 130.123 10.6562 131.024 10.6603C132.039 10.6655 133.049 10.8136 134.024 11.1003C135.005 11.393 135.919 11.8754 136.714 12.5203C137.533 13.1964 138.195 14.0427 138.654 15.0003C139.172 16.1352 139.425 17.3731 139.394 18.6203C139.406 19.3909 139.305 20.1591 139.094 20.9003C138.902 21.543 138.608 22.1507 138.224 22.7003C137.845 23.2422 137.398 23.7329 136.894 24.1603C136.346 24.6195 135.764 25.0373 135.154 25.4103L133.534 26.3403C133.015 26.629 132.523 26.9636 132.064 27.3403C131.621 27.6858 131.244 28.1094 130.954 28.5903C130.653 29.1123 130.504 29.708 130.524 30.3103H126.104ZM126.184 39.7303V34.1503H130.664V39.7303H126.184Z" fill="#3772FF" fill-opacity="0.3"/>
<path d="M116.098 19.8699C116.374 21.0541 116.408 22.2822 116.198 23.4799C115.912 24.7533 115.208 25.8942 114.198 26.7199C113.848 27.0399 113.418 27.4099 112.898 27.8399C112.369 28.2785 111.877 28.7601 111.428 29.2799C110.969 29.8097 110.601 30.411 110.338 31.0599C110.073 31.7207 110.018 32.4465 110.178 33.1399C110.268 33.6467 110.481 34.1238 110.798 34.5299C111.084 34.9004 111.445 35.2069 111.858 35.4299C112.273 35.6523 112.728 35.7884 113.198 35.8299C113.682 35.874 114.171 35.847 114.648 35.7499C115.192 35.6456 115.709 35.4312 116.168 35.1199C116.586 34.837 116.966 34.5008 117.298 34.1199C117.618 33.738 117.89 33.3182 118.108 32.8699C118.312 32.4643 118.492 32.0469 118.648 31.6199L122.588 33.2799C122.426 34.1457 122.119 34.9777 121.678 35.7399C121.25 36.4846 120.71 37.1592 120.078 37.7399C119.436 38.3293 118.715 38.8273 117.938 39.2199C117.133 39.6241 116.279 39.92 115.398 40.0999C114.392 40.3136 113.361 40.3777 112.338 40.2899C111.318 40.2135 110.325 39.9312 109.418 39.4599C108.482 38.9715 107.66 38.2898 107.008 37.4599C105.827 35.8059 105.245 33.799 105.358 31.7699C105.413 31.105 105.575 30.4533 105.838 29.8399C106.094 29.2316 106.431 28.66 106.838 28.1399C107.278 27.5758 107.76 27.0444 108.278 26.5499C108.738 26.1299 109.208 25.7099 109.668 25.3099C110.112 24.9132 110.517 24.4745 110.878 23.9999C111.229 23.5669 111.503 23.0763 111.688 22.5499C111.87 21.9767 111.891 21.3642 111.748 20.7799L116.098 19.8699ZM114.098 10.6699L115.248 16.1299L110.858 17.0499L109.708 11.5899L114.098 10.6699Z" fill="#3772FF" fill-opacity="0.3"/>
</svg>
