<svg width="25" height="32" viewBox="0 0 25 32" fill="none" xmlns="http://www.w3.org/2000/svg">
<path d="M8.79013 31.6293C4.47161 31.6028 0.899414 22.2443 0.899414 17.4782C0.899414 9.69285 6.40092 7.98842 8.52116 7.98842C9.47666 7.98842 10.4969 8.38676 11.3968 8.73926C12.0261 8.98515 12.677 9.23898 13.0389 9.23898C13.2556 9.23898 13.7662 9.02305 14.2169 8.8336C15.1783 8.42731 16.3745 7.92236 17.7675 7.92236C17.77 7.92236 17.7734 7.92236 17.7758 7.92236C18.816 7.92236 21.9698 8.1647 23.8659 11.1876L24.3101 11.8961L23.6709 12.4081C22.7577 13.1396 21.0915 14.4739 21.0915 17.117C21.0915 20.2473 22.9785 21.4512 23.885 22.0302C24.2852 22.2858 24.6994 22.5493 24.6994 23.1256C24.6994 23.502 21.8702 31.5826 17.7617 31.5826C16.7564 31.5826 16.0458 31.2618 15.419 30.9789C14.7847 30.6925 14.2376 30.4457 13.3336 30.4457C12.8753 30.4457 12.2958 30.6757 11.6824 30.9199C10.844 31.252 9.89508 31.6293 8.81835 31.6293H8.79013Z" fill="white"/>
<path d="M17.7549 0.379395C17.8522 4.29272 15.344 7.0076 12.8387 6.83733C12.4258 3.71437 15.3436 0.379395 17.7549 0.379395Z" fill="white"/>
</svg>
