<svg width="1800" height="642" viewBox="0 0 1800 642" fill="none" xmlns="http://www.w3.org/2000/svg">
<mask id="mask0_544_4" style="mask-type:alpha" maskUnits="userSpaceOnUse" x="0" y="0" width="1801" height="642">
<rect width="1801" height="642" fill="#C4C4C4"/>
</mask>
<g mask="url(#mask0_544_4)">
<path d="M1130.61 54.4026L369.853 535.611M1391.85 -16.3888L455.853 594.383" stroke="#0194FF"/>
<path d="M836.798 16.5315L195.853 426.611" stroke="#0194FF"/>
<path d="M532.853 94.6125L100.854 366.811" stroke="#0194FF"/>
<path d="M452.853 43.152L20.8535 315.35" stroke="#0194FF"/>
<path d="M982.271 19.6108L283.853 482.611" stroke="#0194FF"/>
<path d="M1046.85 321.409L1552.85 -17.3892" stroke="#0595FF"/>
<path d="M1125.85 375.856L1720.85 -20.3892" stroke="#0595FF"/>
<path d="M1210.85 427.157L1797.85 28.6108" stroke="#159CFF"/>
<path d="M1289.85 480.156L1797.85 140.61" stroke="#159CFF"/>
<path d="M1371.85 535.157L1800.85 246.611" stroke="#159CFF"/>
<path d="M453.703 593.64L-419.146 30.6108" stroke="#0096B7"/>
<path d="M555.33 533.999L-234.146 28.6108" stroke="#0096B7"/>
<path d="M636.278 481.563L-81.1465 26.6108" stroke="#0096B7"/>
<path d="M717.963 427.156L87.0001 22.6396" stroke="#0096B7"/>
<path d="M801.945 376.486L266.707 29.6104" stroke="#0096B7"/>
<path d="M880.601 322.933L427.707 30.6104" stroke="#0096B7"/>
<path d="M765.245 42.519L1454.85 481.612" stroke="#2F9BFF" stroke-opacity="0.78"/>
<path d="M645.487 63.9946L1371.85 533.611" stroke="#227AFF" stroke-opacity="0.67"/>
<path d="M935.737 39.6411L1531.85 428.611" stroke="#2F9BFF" stroke-opacity="0.78"/>
<path d="M1091.17 42.6729L1609.85 375.61" stroke="#2F9BFF" stroke-opacity="0.78"/>
<path d="M1263.24 51.6104L1689.85 321.611" stroke="#20D7FF"/>
<g opacity="0.2">
<path opacity="0.4" d="M964.429 163.781L1045.47 216.55L1126.51 163.781L1045.47 111.012L964.429 163.781ZM1045.78 109.603L1128.06 163.177C1128.47 163.445 1128.47 164.116 1128.06 164.385L1045.78 217.958C1045.59 218.083 1045.35 218.083 1045.16 217.958L962.883 164.385C962.471 164.116 962.471 163.445 962.883 163.177L1045.16 109.603C1045.35 109.479 1045.59 109.479 1045.78 109.603Z" fill="#85CCFF"/>
<path opacity="0.4" d="M1046.03 216.765L1127.07 269.534L1208.11 216.765L1127.07 163.996L1046.03 216.765ZM1127.38 162.588L1209.66 216.161C1210.07 216.43 1210.07 217.101 1209.66 217.369L1127.38 270.943C1127.19 271.067 1126.95 271.067 1126.76 270.943L1044.48 217.369C1044.07 217.101 1044.07 216.43 1044.48 216.161L1126.76 162.588C1126.95 162.463 1127.19 162.463 1127.38 162.588Z" fill="#85CCFF"/>
<path opacity="0.4" d="M1208.67 216.981L1127.63 269.75L1208.67 322.518L1289.71 269.75L1208.67 216.981ZM1208.98 215.572L1291.26 269.146C1291.67 269.414 1291.67 270.085 1291.26 270.353L1208.98 323.927C1208.79 324.052 1208.55 324.052 1208.36 323.927L1126.08 270.353C1125.67 270.085 1125.67 269.414 1126.08 269.146L1208.36 215.572C1208.55 215.447 1208.79 215.447 1208.98 215.572Z" fill="#85CCFF"/>
<path opacity="0.4" d="M1290.27 269.966L1209.23 322.735L1290.27 375.504L1371.31 322.735L1290.27 269.966ZM1290.58 268.557L1372.86 322.131C1373.27 322.4 1373.27 323.07 1372.86 323.339L1290.58 376.913C1290.39 377.037 1290.15 377.037 1289.96 376.913L1207.68 323.339C1207.27 323.07 1207.27 322.4 1207.68 322.131L1289.96 268.557C1290.15 268.433 1290.39 268.433 1290.58 268.557Z" fill="#85CCFF"/>
<path opacity="0.4" d="M1290.83 375.719L1371.87 428.488L1452.91 375.719L1371.87 322.95L1290.83 375.719ZM1372.18 321.542L1454.46 375.116C1454.87 375.384 1454.87 376.055 1454.46 376.323L1372.18 429.897C1371.99 430.021 1371.75 430.021 1371.56 429.897L1289.28 376.323C1288.87 376.055 1288.87 375.384 1289.28 375.116L1371.56 321.542C1371.75 321.417 1371.99 321.417 1372.18 321.542Z" fill="#85CCFF"/>
<path opacity="0.4" d="M1372.42 428.704L1453.47 481.473L1534.51 428.704L1453.47 375.935L1372.42 428.704ZM1453.78 374.526L1536.06 428.1C1536.47 428.368 1536.47 429.039 1536.06 429.307L1453.78 482.881C1453.58 483.006 1453.35 483.006 1453.16 482.881L1370.88 429.307C1370.47 429.039 1370.47 428.368 1370.88 428.1L1453.16 374.526C1453.35 374.401 1453.58 374.401 1453.78 374.526Z" fill="#85CCFF"/>
<path opacity="0.4" d="M882.83 216.765L963.872 269.534L1044.91 216.765L963.872 163.996L882.83 216.765ZM964.181 162.588L1046.46 216.161C1046.87 216.43 1046.87 217.101 1046.46 217.369L964.181 270.943C963.99 271.067 963.754 271.067 963.563 270.943L881.284 217.369C880.872 217.101 880.872 216.43 881.284 216.161L963.563 162.588C963.754 162.463 963.99 162.463 964.181 162.588Z" fill="#85CCFF"/>
<path opacity="0.4" d="M964.429 269.75L1045.47 322.518L1126.51 269.75L1045.47 216.981L964.429 269.75ZM1045.78 215.572L1128.06 269.146C1128.47 269.414 1128.47 270.085 1128.06 270.353L1045.78 323.927C1045.59 324.052 1045.35 324.052 1045.16 323.927L962.883 270.353C962.471 270.085 962.471 269.414 962.883 269.146L1045.16 215.572C1045.35 215.447 1045.59 215.447 1045.78 215.572Z" fill="#85CCFF"/>
<path opacity="0.4" d="M1046.03 322.735L1127.07 375.504L1208.11 322.735L1127.07 269.966L1046.03 322.735ZM1127.38 268.557L1209.66 322.131C1210.07 322.4 1210.07 323.07 1209.66 323.339L1127.38 376.913C1127.19 377.037 1126.95 377.037 1126.76 376.913L1044.48 323.339C1044.07 323.07 1044.07 322.4 1044.48 322.131L1126.76 268.557C1126.95 268.433 1127.19 268.433 1127.38 268.557Z" fill="#85CCFF"/>
<path opacity="0.4" d="M1127.63 375.719L1208.67 428.488L1289.71 375.719L1208.67 322.95L1127.63 375.719ZM1208.98 321.542L1291.26 375.116C1291.67 375.384 1291.67 376.055 1291.26 376.323L1208.98 429.897C1208.79 430.021 1208.55 430.021 1208.36 429.897L1126.08 376.323C1125.67 376.055 1125.67 375.384 1126.08 375.116L1208.36 321.542C1208.55 321.417 1208.79 321.417 1208.98 321.542Z" fill="#85CCFF"/>
<path opacity="0.4" d="M1209.23 428.704L1290.27 481.473L1371.31 428.704L1290.27 375.935L1209.23 428.704ZM1290.58 374.526L1372.86 428.1C1373.27 428.368 1373.27 429.039 1372.86 429.307L1290.58 482.881C1290.39 483.006 1290.15 483.006 1289.96 482.881L1207.68 429.307C1207.27 429.039 1207.27 428.368 1207.68 428.1L1289.96 374.526C1290.15 374.401 1290.39 374.401 1290.58 374.526Z" fill="#85CCFF"/>
<path opacity="0.4" d="M1290.83 481.688L1371.87 534.457L1452.91 481.688L1371.87 428.919L1290.83 481.688ZM1372.18 427.51L1454.46 481.084C1454.87 481.353 1454.87 482.023 1454.46 482.292L1372.18 535.866C1371.99 535.99 1371.75 535.99 1371.56 535.866L1289.28 482.292C1288.87 482.023 1288.87 481.353 1289.28 481.084L1371.56 427.51C1371.75 427.386 1371.99 427.386 1372.18 427.51Z" fill="#85CCFF"/>
<path opacity="0.4" d="M801.23 269.75L882.273 322.518L963.316 269.75L882.273 216.981L801.23 269.75ZM882.582 215.572L964.861 269.146C965.273 269.414 965.273 270.085 964.861 270.353L882.582 323.927C882.391 324.052 882.155 324.052 881.964 323.927L799.685 270.353C799.273 270.085 799.273 269.414 799.685 269.146L881.964 215.572C882.155 215.447 882.391 215.447 882.582 215.572Z" fill="#85CCFF"/>
<path opacity="0.4" d="M963.872 269.966L882.83 322.735L963.872 375.504L1044.91 322.735L963.872 269.966ZM964.181 268.557L1046.46 322.131C1046.87 322.4 1046.87 323.07 1046.46 323.339L964.181 376.913C963.99 377.037 963.754 377.037 963.563 376.913L881.284 323.339C880.872 323.07 880.872 322.4 881.284 322.131L963.563 268.557C963.754 268.433 963.99 268.433 964.181 268.557Z" fill="#85CCFF"/>
<path opacity="0.4" d="M964.429 375.719L1045.47 428.488L1126.51 375.719L1045.47 322.95L964.429 375.719ZM1045.78 321.542L1128.06 375.116C1128.47 375.384 1128.47 376.055 1128.06 376.323L1045.78 429.897C1045.59 430.021 1045.35 430.021 1045.16 429.897L962.883 376.323C962.471 376.055 962.471 375.384 962.883 375.116L1045.16 321.542C1045.35 321.417 1045.59 321.417 1045.78 321.542Z" fill="#85CCFF"/>
<path opacity="0.4" d="M1046.03 428.704L1127.07 481.473L1208.11 428.704L1127.07 375.935L1046.03 428.704ZM1127.38 374.526L1209.66 428.1C1210.07 428.368 1210.07 429.039 1209.66 429.307L1127.38 482.881C1127.19 483.006 1126.95 483.006 1126.76 482.881L1044.48 429.307C1044.07 429.039 1044.07 428.368 1044.48 428.1L1126.76 374.526C1126.95 374.401 1127.19 374.401 1127.38 374.526Z" fill="#85CCFF"/>
<path opacity="0.4" d="M1127.63 481.688L1208.67 534.457L1289.71 481.688L1208.67 428.919L1127.63 481.688ZM1208.98 427.51L1291.26 481.084C1291.67 481.353 1291.67 482.023 1291.26 482.292L1208.98 535.866C1208.79 535.99 1208.55 535.99 1208.36 535.866L1126.08 482.292C1125.67 482.023 1125.67 481.353 1126.08 481.084L1208.36 427.51C1208.55 427.386 1208.79 427.386 1208.98 427.51Z" fill="#85CCFF"/>
<path opacity="0.4" d="M1209.23 534.673L1290.27 587.442L1371.31 534.673L1290.27 481.905L1209.23 534.673ZM1290.58 480.496L1372.86 534.07C1373.27 534.338 1373.27 535.009 1372.86 535.277L1290.58 588.851C1290.39 588.976 1290.15 588.976 1289.96 588.851L1207.68 535.277C1207.27 535.009 1207.27 534.338 1207.68 534.07L1289.96 480.496C1290.15 480.371 1290.39 480.371 1290.58 480.496Z" fill="#85CCFF"/>
<path opacity="0.4" d="M800.674 269.966L719.631 322.735L800.674 375.504L881.717 322.735L800.674 269.966ZM800.983 268.557L883.262 322.131C883.674 322.4 883.674 323.07 883.262 323.339L800.983 376.913C800.792 377.037 800.556 377.037 800.365 376.913L718.086 323.339C717.674 323.07 717.674 322.4 718.086 322.131L800.365 268.557C800.556 268.433 800.792 268.433 800.983 268.557Z" fill="#85CCFF"/>
<path opacity="0.4" d="M801.23 375.719L882.273 428.488L963.316 375.719L882.273 322.95L801.23 375.719ZM882.582 321.542L964.861 375.116C965.273 375.384 965.273 376.055 964.861 376.323L882.582 429.897C882.391 430.021 882.155 430.021 881.964 429.897L799.685 376.323C799.273 376.055 799.273 375.384 799.685 375.116L881.964 321.542C882.155 321.417 882.391 321.417 882.582 321.542Z" fill="#85CCFF"/>
<path opacity="0.4" d="M882.83 428.704L963.872 481.473L1044.91 428.704L963.872 375.935L882.83 428.704ZM964.181 374.526L1046.46 428.1C1046.87 428.368 1046.87 429.039 1046.46 429.307L964.181 482.881C963.99 483.006 963.754 483.006 963.563 482.881L881.284 429.307C880.872 429.039 880.872 428.368 881.284 428.1L963.563 374.526C963.754 374.401 963.99 374.401 964.181 374.526Z" fill="#85CCFF"/>
<path opacity="0.4" d="M964.429 481.688L1045.47 534.457L1126.51 481.688L1045.47 428.919L964.429 481.688ZM1045.78 427.51L1128.06 481.084C1128.47 481.353 1128.47 482.023 1128.06 482.292L1045.78 535.866C1045.59 535.99 1045.35 535.99 1045.16 535.866L962.883 482.292C962.471 482.023 962.471 481.353 962.883 481.084L1045.16 427.51C1045.35 427.386 1045.59 427.386 1045.78 427.51Z" fill="#85CCFF"/>
<path opacity="0.4" d="M1046.03 534.673L1127.07 587.442L1208.11 534.673L1127.07 481.905L1046.03 534.673ZM1127.38 480.496L1209.66 534.07C1210.07 534.338 1210.07 535.009 1209.66 535.277L1127.38 588.851C1127.19 588.976 1126.95 588.976 1126.76 588.851L1044.48 535.277C1044.07 535.009 1044.07 534.338 1044.48 534.07L1126.76 480.496C1126.95 480.371 1127.19 480.371 1127.38 480.496Z" fill="#85CCFF"/>
<path opacity="0.4" d="M1127.63 587.658L1208.67 640.427L1289.71 587.658L1208.67 534.889L1127.63 587.658ZM1208.98 533.48L1291.26 587.054C1291.67 587.322 1291.67 587.993 1291.26 588.262L1208.98 641.835C1208.79 641.96 1208.55 641.96 1208.36 641.835L1126.08 588.262C1125.67 587.993 1125.67 587.322 1126.08 587.054L1208.36 533.48C1208.55 533.356 1208.79 533.356 1208.98 533.48Z" fill="#85CCFF"/>
<path opacity="0.4" d="M638.032 375.719L719.075 428.488L800.118 375.719L719.075 322.95L638.032 375.719ZM719.384 321.542L801.663 375.116C802.075 375.384 802.075 376.055 801.663 376.323L719.384 429.897C719.193 430.021 718.957 430.021 718.766 429.897L636.487 376.323C636.075 376.055 636.075 375.384 636.487 375.116L718.766 321.542C718.957 321.417 719.193 321.417 719.384 321.542Z" fill="#85CCFF"/>
<path opacity="0.4" d="M719.631 428.704L800.674 481.473L881.717 428.704L800.674 375.935L719.631 428.704ZM800.983 374.526L883.262 428.1C883.674 428.368 883.674 429.039 883.262 429.307L800.983 482.881C800.792 483.006 800.556 483.006 800.365 482.881L718.086 429.307C717.674 429.039 717.674 428.368 718.086 428.1L800.365 374.526C800.556 374.401 800.792 374.401 800.983 374.526Z" fill="#85CCFF"/>
<path opacity="0.4" d="M801.23 481.688L882.273 534.457L963.316 481.688L882.273 428.919L801.23 481.688ZM882.582 427.51L964.861 481.084C965.273 481.353 965.273 482.023 964.861 482.292L882.582 535.866C882.391 535.99 882.155 535.99 881.964 535.866L799.685 482.292C799.273 482.023 799.273 481.353 799.685 481.084L881.964 427.51C882.155 427.386 882.391 427.386 882.582 427.51Z" fill="#85CCFF"/>
<path opacity="0.4" d="M882.83 534.673L963.872 587.442L1044.91 534.673L963.872 481.905L882.83 534.673ZM964.181 480.496L1046.46 534.07C1046.87 534.338 1046.87 535.009 1046.46 535.277L964.181 588.851C963.99 588.976 963.754 588.976 963.563 588.851L881.284 535.277C880.872 535.009 880.872 534.338 881.284 534.07L963.563 480.496C963.754 480.371 963.99 480.371 964.181 480.496Z" fill="#85CCFF"/>
<path opacity="0.4" d="M964.429 587.658L1045.47 640.427L1126.51 587.658L1045.47 534.889L964.429 587.658ZM1045.78 533.48L1128.06 587.054C1128.47 587.322 1128.47 587.993 1128.06 588.262L1045.78 641.835C1045.59 641.96 1045.35 641.96 1045.16 641.835L962.883 588.262C962.471 587.993 962.471 587.322 962.883 587.054L1045.16 533.48C1045.35 533.356 1045.59 533.356 1045.78 533.48Z" fill="#85CCFF"/>
<path opacity="0.4" d="M556.433 428.704L637.476 481.473L718.519 428.704L637.476 375.935L556.433 428.704ZM637.785 374.526L720.064 428.1C720.476 428.368 720.476 429.039 720.064 429.307L637.785 482.881C637.594 483.006 637.358 483.006 637.167 482.881L554.888 429.307C554.476 429.039 554.476 428.368 554.888 428.1L637.167 374.526C637.358 374.401 637.594 374.401 637.785 374.526Z" fill="#85CCFF"/>
<path opacity="0.4" d="M638.032 481.688L719.075 534.457L800.118 481.688L719.075 428.919L638.032 481.688ZM719.384 427.51L801.663 481.084C802.075 481.353 802.075 482.023 801.663 482.292L719.384 535.866C719.193 535.99 718.957 535.99 718.766 535.866L636.487 482.292C636.075 482.023 636.075 481.353 636.487 481.084L718.766 427.51C718.957 427.386 719.193 427.386 719.384 427.51Z" fill="#85CCFF"/>
<path opacity="0.4" d="M719.631 534.673L800.674 587.442L881.717 534.673L800.674 481.905L719.631 534.673ZM800.983 480.496L883.262 534.07C883.674 534.338 883.674 535.009 883.262 535.277L800.983 588.851C800.792 588.976 800.556 588.976 800.365 588.851L718.086 535.277C717.674 535.009 717.674 534.338 718.086 534.07L800.365 480.496C800.556 480.371 800.792 480.371 800.983 480.496Z" fill="#85CCFF"/>
<path opacity="0.4" d="M801.23 587.658L882.273 640.427L963.316 587.658L882.273 534.889L801.23 587.658ZM882.582 533.48L964.861 587.054C965.273 587.322 965.273 587.993 964.861 588.262L882.582 641.835C882.391 641.96 882.155 641.96 881.964 641.835L799.685 588.262C799.273 587.993 799.273 587.322 799.685 587.054L881.964 533.48C882.155 533.356 882.391 533.356 882.582 533.48Z" fill="#85CCFF"/>
<path opacity="0.4" d="M555.877 428.919L474.834 481.688L555.877 534.457L636.919 481.688L555.877 428.919ZM556.186 427.51L638.465 481.084C638.877 481.353 638.877 482.023 638.465 482.292L556.186 535.866C555.995 535.99 555.759 535.99 555.568 535.866L473.289 482.292C472.876 482.023 472.876 481.353 473.289 481.084L555.568 427.51C555.759 427.386 555.995 427.386 556.186 427.51Z" fill="#85CCFF"/>
<path opacity="0.4" d="M556.433 534.673L637.476 587.442L718.519 534.673L637.476 481.905L556.433 534.673ZM637.785 480.496L720.064 534.07C720.476 534.338 720.476 535.009 720.064 535.277L637.785 588.851C637.594 588.976 637.358 588.976 637.167 588.851L554.888 535.277C554.476 535.009 554.476 534.338 554.888 534.07L637.167 480.496C637.358 480.371 637.594 480.371 637.785 480.496Z" fill="#85CCFF"/>
<path opacity="0.4" d="M638.032 587.658L719.075 640.427L800.118 587.658L719.075 534.889L638.032 587.658ZM719.384 533.48L801.663 587.054C802.075 587.322 802.075 587.993 801.663 588.262L719.384 641.835C719.193 641.96 718.957 641.96 718.766 641.835L636.487 588.262C636.075 587.993 636.075 587.322 636.487 587.054L718.766 533.48C718.957 533.356 719.193 533.356 719.384 533.48Z" fill="#85CCFF"/>
</g>
<path d="M487.854 -11.9995H-2.14648L-92.1465 530L298.854 604H463.854L630.854 488L957.854 274L1450.85 588L1874.85 581.296V444L1883.85 157L1797.85 -20.9995L487.854 -11.9995Z" fill="url(#paint0_linear_544_4)"/>
<path d="M925.854 605.001L366.854 609.001L369.854 557.612L958.854 276.611L1443.85 605.001H925.854Z" fill="url(#paint1_linear_544_4)"/>
</g>
<defs>
<linearGradient id="paint0_linear_544_4" x1="887.854" y1="54.9995" x2="868.854" y2="501" gradientUnits="userSpaceOnUse">
<stop stop-color="white"/>
<stop offset="0.52339" stop-color="white" stop-opacity="0.96"/>
<stop offset="0.993564" stop-color="white" stop-opacity="0.92"/>
</linearGradient>
<linearGradient id="paint1_linear_544_4" x1="951.353" y1="276.611" x2="956.853" y2="772.612" gradientUnits="userSpaceOnUse">
<stop stop-color="white" stop-opacity="0"/>
<stop offset="0.559969" stop-color="white" stop-opacity="0.58"/>
<stop offset="1" stop-color="white"/>
</linearGradient>
</defs>
</svg>
