<svg width="45" height="45" viewBox="0 0 45 45" fill="none" xmlns="http://www.w3.org/2000/svg">
<path d="M18.3436 8.00025C18.4582 8.2335 18.5339 8.48328 18.5678 8.74007L19.1943 18.0549L19.5053 22.7367C19.5085 23.2181 19.584 23.6965 19.7294 24.1564C20.105 25.0485 21.0086 25.6155 21.9915 25.576L36.9704 24.5962C37.619 24.5855 38.2454 24.8281 38.7117 25.2706C39.1002 25.6394 39.3511 26.1218 39.4301 26.6406L39.4567 26.9557C38.8368 35.5387 32.533 42.6977 23.9677 44.5457C15.4024 46.3937 6.61917 42.4899 2.38659 34.9537C1.16637 32.7643 0.404212 30.3578 0.144859 27.8755C0.0365142 27.1406 -0.0111926 26.3984 0.00220325 25.656C-0.0111733 16.4539 6.54179 8.49847 15.7147 6.58059C16.8187 6.40869 17.901 6.99314 18.3436 8.00025Z" fill="url(#paint0_linear_576_40)"/>
<path opacity="0.4" d="M24.4573 0.00184316C34.717 0.262859 43.3399 7.6405 44.9997 17.5776L44.9839 17.6509L44.9386 17.7576L44.9449 18.0503C44.9214 18.438 44.7717 18.8112 44.5136 19.1125C44.2449 19.4265 43.8777 19.6403 43.4733 19.7232L43.2267 19.7571L25.945 20.8768C25.3702 20.9335 24.7978 20.7481 24.3703 20.3668C24.0141 20.0491 23.7863 19.6201 23.722 19.158L22.562 1.90138C22.5418 1.84303 22.5418 1.77978 22.562 1.72143C22.5779 1.24576 22.7872 0.796137 23.1434 0.473016C23.4995 0.149894 23.9727 -0.0198008 24.4573 0.00184316Z" fill="url(#paint1_linear_576_40)"/>
<defs>
<linearGradient id="paint0_linear_576_40" x1="19.7283" y1="6.55078" x2="19.7283" y2="45.0002" gradientUnits="userSpaceOnUse">
<stop stop-color="#7CC3FD"/>
<stop offset="1" stop-color="#8FEFF7"/>
</linearGradient>
<linearGradient id="paint1_linear_576_40" x1="33.7733" y1="0" x2="33.7733" y2="20.8868" gradientUnits="userSpaceOnUse">
<stop stop-color="#7CC3FD"/>
<stop offset="1" stop-color="#8FEFF7"/>
</linearGradient>
</defs>
</svg>
