<svg width="52" height="52" viewBox="0 0 52 52" fill="none" xmlns="http://www.w3.org/2000/svg">
<path d="M45.9548 34.4283C44.5764 37.688 42.4205 40.5604 39.6756 42.7944C36.9306 45.0284 33.6802 46.556 30.2084 47.2436C26.7367 47.9312 23.1494 47.7579 19.7601 46.7388C16.3709 45.7197 13.2828 43.8859 10.766 41.3977C8.24921 38.9094 6.38025 35.8426 5.32252 32.4652C4.2648 29.0877 4.05053 25.5026 4.69844 22.0233C5.34636 18.544 6.83672 15.2763 9.03925 12.506C11.2418 9.73569 14.0894 7.54711 17.3332 6.13159" stroke="#446DFF" stroke-width="3" stroke-linecap="round" stroke-linejoin="round"/>
<path d="M47.6667 26C47.6667 23.1547 47.1062 20.3373 46.0174 17.7086C44.9285 15.0798 43.3326 12.6913 41.3207 10.6794C39.3087 8.66746 36.9202 7.0715 34.2915 5.98265C31.6628 4.8938 28.8453 4.33337 26 4.33337V26H47.6667Z" stroke="#F36EFF" stroke-width="3" stroke-linecap="round" stroke-linejoin="round"/>
</svg>
