<svg width="49" height="49" viewBox="0 0 49 49" fill="none" xmlns="http://www.w3.org/2000/svg">
<path d="M12.5063 31.6497L19.5467 22.4995L27.5774 28.8078L34.467 19.9159" stroke="#F36EFF" stroke-width="3" stroke-linecap="round" stroke-linejoin="round"/>
<path d="M42.4984 11.2825C44.9954 11.2825 47.0196 9.25821 47.0196 6.76117C47.0196 4.26412 44.9954 2.23987 42.4984 2.23987C40.0013 2.23987 37.9771 4.26412 37.9771 6.76117C37.9771 9.25821 40.0013 11.2825 42.4984 11.2825Z" stroke="#F36EFF" stroke-width="3" stroke-linecap="round" stroke-linejoin="round"/>
<path d="M30.5703 4.22083H13.4755C6.39212 4.22083 2 9.23731 2 16.3207V35.3317C2 42.415 6.306 47.41 13.4755 47.41H33.7137C40.7971 47.41 45.1892 42.415 45.1892 35.3317V18.7751" stroke="#446DFF" stroke-width="3" stroke-linecap="round" stroke-linejoin="round"/>
</svg>
