<svg width="50" height="41" viewBox="0 0 50 41" fill="none" xmlns="http://www.w3.org/2000/svg">
<path opacity="0.4" d="M31.4584 8.94202C32.8028 8.94202 34.094 9.47155 35.034 10.4151C35.9806 11.3674 36.5051 12.6465 36.5028 13.978V16.7454C36.4917 17.0701 36.2273 17.3338 35.8962 17.3425H14.7406C14.4117 17.3316 14.1473 17.0679 14.1404 16.7454V13.978C14.1162 11.2214 16.374 8.97035 19.1828 8.94202H31.4584ZM36.8608 0.625654C41.7431 0.625654 45.7119 4.51755 45.7119 9.30506V13.4301C45.7119 14.3453 44.9564 15.0906 44.0208 15.0906C43.0875 15.0906 42.3297 14.3453 42.3297 13.4301V9.30506C42.3297 6.348 39.8764 3.94226 36.8608 3.94226H33.3208C32.3875 3.94226 31.6297 3.20137 31.6297 2.28614C31.6297 1.36873 32.3875 0.625654 33.3208 0.625654H36.8608ZM17.3811 0.625C18.3144 0.625 19.0722 1.36808 19.0722 2.28548C19.0722 3.20071 18.3166 3.94379 17.3811 3.94379L13.7611 3.94597C10.7566 3.95033 8.31218 6.34953 8.31218 9.29787V13.4295C8.31218 14.3447 7.55218 15.09 6.61885 15.09C5.68551 15.09 4.92773 14.3447 4.92773 13.4295V9.29787C4.92773 4.52125 8.88996 0.631537 13.7588 0.627179L17.3811 0.625Z" fill="white"/>
<path d="M48.0728 20.7168H2.56833C1.635 20.7168 0.875 21.4599 0.875 22.3773C0.875 23.2925 1.635 24.0334 2.56833 24.0334H4.92611V31.9523C4.92611 36.7289 8.89055 40.6186 13.7594 40.623L17.3794 40.6252C18.315 40.6252 19.0706 39.8821 19.0728 38.9647C19.0728 38.0494 18.315 37.3064 17.3817 37.3064L13.7639 37.3042C10.7572 37.2998 8.31055 34.9006 8.31055 31.9523V24.0334H14.1394V26.2365C14.1172 28.9931 16.3728 31.2463 19.1817 31.2724H31.4572C34.2683 31.2463 36.5239 28.9931 36.5017 26.2365V24.0334H42.3306V31.9436C42.3306 34.9028 39.8772 37.3064 36.8617 37.3064H33.3217C32.3861 37.3064 31.6283 38.0494 31.6283 38.9647C31.6283 39.8821 32.3861 40.6252 33.3217 40.6252H36.8617C41.7417 40.6252 45.7128 36.7333 45.7128 31.9436V24.0334H48.0728C49.0061 24.0334 49.7639 23.2925 49.7639 22.3773C49.7639 21.4599 49.0061 20.7168 48.0728 20.7168Z" fill="white"/>
</svg>
