<svg width="49" height="49" viewBox="0 0 49 49" fill="none" xmlns="http://www.w3.org/2000/svg">
<path fill-rule="evenodd" clip-rule="evenodd" d="M40.7054 40.7017C33.7017 47.7062 23.3309 49.2195 14.844 45.2946C13.5912 44.7902 12.564 44.3825 11.5875 44.3825C8.86753 44.3986 5.482 47.0359 3.72245 45.2785C1.96289 43.5187 4.60222 40.1305 4.60222 37.3942C4.60222 36.4175 4.2107 35.4087 3.70632 34.1534C-0.220434 25.6679 1.295 15.2936 8.29867 8.29149C17.2392 -0.652364 31.7648 -0.652363 40.7054 8.28919C49.662 17.2469 49.6459 31.7602 40.7054 40.7017Z" stroke="#9644FF" stroke-opacity="0.25" stroke-width="2" stroke-linecap="round" stroke-linejoin="round"/>
<path d="M34.6738 25.4464H34.6944" stroke="#9746FF" stroke-width="4" stroke-linecap="round" stroke-linejoin="round"/>
<path d="M25.4863 25.4464H25.507" stroke="#9746FF" stroke-width="4" stroke-linecap="round" stroke-linejoin="round"/>
<path d="M16.2993 25.4464H16.3199" stroke="#9746FF" stroke-width="4" stroke-linecap="round" stroke-linejoin="round"/>
</svg>
