<svg width="75" height="53" viewBox="0 0 75 53" fill="none" xmlns="http://www.w3.org/2000/svg">
<g id="Icon" opacity="0.104623">
<g id="right-quote">
<path id="Path" d="M17.0173 49.622C26.083 50.0923 33.831 43.4398 34.2889 34.7925C34.5078 30.6575 33.0418 26.669 30.161 23.5616C27.2866 20.4612 23.3273 18.5851 19.0117 18.2787L18.8864 18.2692C17.3742 18.1471 16.0569 19.2273 15.941 20.6683C15.8251 22.1093 16.9562 23.3714 18.467 23.4876L18.6185 23.4991C24.5366 23.9156 29.1078 28.8546 28.8085 34.5082C28.5032 40.2731 23.3379 44.7081 17.2941 44.3946C11.2503 44.0811 6.58163 39.1359 6.88687 33.3711C7.26813 26.1706 9.41531 19.6194 13.2692 13.8993C16.1495 9.62399 18.9643 7.43282 19.0169 7.3923C20.1962 6.49514 20.3894 4.85295 19.4473 3.72073C18.9367 3.10729 18.1972 2.76897 17.4383 2.72961C16.7942 2.69633 16.136 2.87815 15.5918 3.28957C15.4535 3.39431 12.1633 5.90941 8.79435 10.8436C5.72301 15.3416 1.94839 22.852 1.40647 33.0868C0.948604 41.7342 7.95163 49.1517 17.0173 49.622Z" fill="black"/>
<path id="Path_2" d="M56.0813 49.6591C65.1469 50.1294 72.895 43.477 73.3528 34.8296C73.5718 30.6945 72.1057 26.706 69.225 23.5984C66.3506 20.498 62.3912 18.622 58.0757 18.3155L57.9503 18.306C56.4414 18.1841 55.1207 19.264 55.005 20.705C54.8891 22.146 56.0201 23.4082 57.531 23.5243L57.6825 23.5359C63.6006 23.9527 68.1718 28.8917 67.8724 34.5453C67.5672 40.3102 62.4018 44.7452 56.3581 44.4317C50.3143 44.1182 45.6456 39.173 45.9508 33.4082C46.3321 26.2076 48.4793 19.6564 52.3332 13.9365C55.2134 9.66112 58.0283 7.46994 58.0808 7.42942C59.2603 6.53214 59.4534 4.89007 58.5113 3.75784C58.0007 3.14427 57.2612 2.80608 56.5023 2.76672C55.8582 2.73331 55.1999 2.91513 54.6557 3.32655C54.5174 3.43129 51.2271 5.94639 47.8582 10.8806C44.787 15.3786 41.0124 22.8889 40.4704 33.1239C40.0126 41.7713 47.0156 49.1889 56.0813 49.6591Z" fill="black"/>
</g>
</g>
</svg>
