<svg width="39" height="45" viewBox="0 0 39 45" fill="none" xmlns="http://www.w3.org/2000/svg">
<path opacity="0.4" d="M34.4448 15.7972C33.4289 15.7972 32.0833 15.7748 30.408 15.7748C26.3221 15.7748 22.9625 12.393 22.9625 8.26875V1.03275C22.9625 0.4635 22.508 0 21.9443 0H10.0432C4.48912 0 0 4.5585 0 10.1452V34.389C0 40.2503 4.703 45 10.5066 45H28.2291C33.7631 45 38.25 40.4707 38.25 34.8795V16.8097C38.25 16.2383 37.7977 15.777 37.2319 15.7793C36.2806 15.786 35.1399 15.7972 34.4448 15.7972Z" fill="white"/>
<path opacity="0.4" d="M28.315 1.27634C27.6423 0.576588 26.4678 1.05809 26.4678 2.02784V7.96109C26.4678 10.4496 28.5175 12.4971 31.006 12.4971C32.5743 12.5151 34.7523 12.5196 36.6018 12.5151C37.549 12.5128 38.0305 11.3811 37.3735 10.6971C34.9998 8.22884 30.7495 3.80534 28.315 1.27634Z" fill="white"/>
<path d="M24.5648 29.0092C25.4896 29.0092 26.2411 29.7607 26.2411 30.6854C26.2411 31.6102 25.4896 32.3594 24.5648 32.3594H12.3158C11.3911 32.3594 10.6418 31.6102 10.6418 30.6854C10.6418 29.7607 11.3911 29.0092 12.3158 29.0092H24.5648ZM19.9319 17.7722C20.8566 17.7722 21.6081 18.5237 21.6081 19.4485C21.6081 20.3732 20.8566 21.1225 19.9319 21.1225H12.3156C11.3909 21.1225 10.6416 20.3732 10.6416 19.4485C10.6416 18.5237 11.3909 17.7722 12.3156 17.7722H19.9319Z" fill="white"/>
</svg>
