<svg width="40" height="40" viewBox="0 0 40 40" fill="none" xmlns="http://www.w3.org/2000/svg">
<path d="M29.3511 0H10.6667C3.85778 0 0 3.85778 0 10.6667V29.3333C0 36.1422 3.85778 40 10.6667 40H29.3511C36.16 40 40 36.1422 40 29.3333V10.6667C40 3.85778 36.16 0 29.3511 0Z" fill="#913BFF" fill-opacity="0.27"/>
<path d="M10.7373 14.738C9.83065 14.738 9.08398 15.4846 9.08398 16.4091V30.1513C9.08398 31.058 9.83065 31.8046 10.7373 31.8046C11.6618 31.8046 12.4084 31.058 12.4084 30.1513V16.4091C12.4084 15.4846 11.6618 14.738 10.7373 14.738Z" fill="white"/>
<path d="M20.0703 8.17795C19.1637 8.17795 18.417 8.92461 18.417 9.84906V30.1513C18.417 31.0579 19.1637 31.8046 20.0703 31.8046C20.9948 31.8046 21.7414 31.0579 21.7414 30.1513V9.84906C21.7414 8.92461 20.9948 8.17795 20.0703 8.17795Z" fill="white"/>
<path d="M29.2795 21.9913C28.3551 21.9913 27.6084 22.738 27.6084 23.6624V30.1513C27.6084 31.058 28.3551 31.8046 29.2617 31.8046C30.1862 31.8046 30.9328 31.058 30.9328 30.1513V23.6624C30.9328 22.738 30.1862 21.9913 29.2795 21.9913Z" fill="white"/>
</svg>
