<svg width="49" height="40" viewBox="0 0 49 40" fill="none" xmlns="http://www.w3.org/2000/svg">
<path opacity="0.4" d="M30.5834 8.31702C31.9278 8.31702 33.219 8.84655 34.159 9.7901C35.1056 10.7424 35.6301 12.0215 35.6278 13.353V16.1204C35.6167 16.4451 35.3523 16.7088 35.0212 16.7175H13.8656C13.5367 16.7066 13.2723 16.4429 13.2654 16.1204V13.353C13.2412 10.5964 15.499 8.34535 18.3078 8.31702H30.5834ZM35.9858 0.000653734C40.8681 0.000653734 44.8369 3.89255 44.8369 8.68006V12.8051C44.8369 13.7203 44.0814 14.4656 43.1458 14.4656C42.2125 14.4656 41.4547 13.7203 41.4547 12.8051V8.68006C41.4547 5.723 39.0014 3.31726 35.9858 3.31726H32.4458C31.5125 3.31726 30.7547 2.57637 30.7547 1.66114C30.7547 0.743731 31.5125 0.000653734 32.4458 0.000653734H35.9858ZM16.5061 0C17.4394 0 18.1972 0.743077 18.1972 1.66048C18.1972 2.57571 17.4416 3.31879 16.5061 3.31879L12.8861 3.32097C9.88162 3.32533 7.43718 5.72453 7.43718 8.67287V12.8045C7.43718 13.7197 6.67718 14.465 5.74385 14.465C4.81051 14.465 4.05273 13.7197 4.05273 12.8045V8.67287C4.05273 3.89625 8.01496 0.00653734 12.8838 0.00217911L16.5061 0Z" fill="url(#paint0_linear_576_36)"/>
<path d="M47.1978 20.0918H1.69333C0.76 20.0918 0 20.8349 0 21.7523C0 22.6675 0.76 23.4084 1.69333 23.4084H4.05111V31.3273C4.05111 36.1039 8.01555 39.9936 12.8844 39.998L16.5044 40.0002C17.44 40.0002 18.1956 39.2571 18.1978 38.3397C18.1978 37.4244 17.44 36.6814 16.5067 36.6814L12.8889 36.6792C9.88222 36.6748 7.43555 34.2756 7.43555 31.3273V23.4084H13.2644V25.6115C13.2422 28.3681 15.4978 30.6213 18.3067 30.6474H30.5822C33.3933 30.6213 35.6489 28.3681 35.6267 25.6115V23.4084H41.4556V31.3186C41.4556 34.2778 39.0022 36.6814 35.9867 36.6814H32.4467C31.5111 36.6814 30.7533 37.4244 30.7533 38.3397C30.7533 39.2571 31.5111 40.0002 32.4467 40.0002H35.9867C40.8667 40.0002 44.8378 36.1083 44.8378 31.3186V23.4084H47.1978C48.1311 23.4084 48.8889 22.6675 48.8889 21.7523C48.8889 20.8349 48.1311 20.0918 47.1978 20.0918Z" fill="url(#paint1_linear_576_36)"/>
<defs>
<linearGradient id="paint0_linear_576_36" x1="24.4448" y1="0" x2="24.4448" y2="16.7175" gradientUnits="userSpaceOnUse">
<stop stop-color="#75B4FE"/>
<stop offset="1" stop-color="#93F8F5"/>
</linearGradient>
<linearGradient id="paint1_linear_576_36" x1="24.4444" y1="20.0918" x2="24.4444" y2="40.0002" gradientUnits="userSpaceOnUse">
<stop stop-color="#75B4FE"/>
<stop offset="1" stop-color="#93F8F5"/>
</linearGradient>
</defs>
</svg>
