<svg width="49" height="49" viewBox="0 0 49 49" fill="none" xmlns="http://www.w3.org/2000/svg">
<path d="M12.5073 31.65L19.5476 22.4997L27.5783 28.808L34.4679 19.9161" stroke="#913BFF" stroke-width="2.5" stroke-linecap="round" stroke-linejoin="round"/>
<path d="M42.4984 11.2826C44.9954 11.2826 47.0197 9.25834 47.0197 6.76129C47.0197 4.26425 44.9954 2.23999 42.4984 2.23999C40.0013 2.23999 37.9771 4.26425 37.9771 6.76129C37.9771 9.25834 40.0013 11.2826 42.4984 11.2826Z" stroke="#9644FF" stroke-width="2.5" stroke-linecap="round" stroke-linejoin="round"/>
<path d="M30.5703 4.22083H13.4755C6.39212 4.22083 2 9.23732 2 16.3207V35.3317C2 42.4151 6.306 47.41 13.4755 47.41H33.7137C40.7971 47.41 45.1892 42.4151 45.1892 35.3317V18.7751" stroke="#9644FF" stroke-opacity="0.2" stroke-width="2.5" stroke-linecap="round" stroke-linejoin="round"/>
</svg>
