<svg width="40" height="40" viewBox="0 0 40 40" fill="none" xmlns="http://www.w3.org/2000/svg">
<path d="M20 0C31.0232 0 40 8.9725 40 20.0116C40 31.0275 31.0232 40 20 40C8.97683 40 0 31.0275 0 20.0116C0 8.9725 8.97683 0 20 0ZM17.722 12.0598C17.2973 12.0598 16.8919 12.1563 16.5058 12.3493C16.0232 12.6194 15.6371 13.0439 15.4247 13.5456C15.2896 13.8929 15.0772 14.9349 15.0772 14.9542C14.8649 16.0926 14.749 17.945 14.749 19.9904C14.749 21.9411 14.8649 23.7144 15.0386 24.8722C15.0579 24.8915 15.2703 26.1843 15.5019 26.6281C15.9266 27.4385 16.7568 27.9402 17.6448 27.9402H17.722C18.3012 27.9209 19.5174 27.4192 19.5174 27.3999C21.5637 26.5509 25.5985 23.9074 27.2201 22.1515L27.3359 22.0357C27.5483 21.8234 27.8185 21.4954 27.8764 21.4182C28.1853 21.013 28.3398 20.5113 28.3398 20.0116C28.3398 19.4501 28.166 18.9291 27.8378 18.5046C27.7606 18.4274 27.471 18.0994 27.2008 17.8292C25.6178 16.1312 21.4865 13.3526 19.3243 12.5036C18.9961 12.3705 18.166 12.0791 17.722 12.0598Z" fill="url(#paint0_linear_403_23)"/>
<defs>
<linearGradient id="paint0_linear_403_23" x1="20" y1="0" x2="20" y2="40" gradientUnits="userSpaceOnUse">
<stop stop-color="#69A5FF"/>
<stop offset="1" stop-color="#5EE7C3"/>
</linearGradient>
</defs>
</svg>
