<svg width="47" height="44" viewBox="0 0 47 44" fill="none" xmlns="http://www.w3.org/2000/svg">
<path fill-rule="evenodd" clip-rule="evenodd" d="M23.0929 2.34454C26.7616 0.0250857 31.6352 -0.615698 35.8454 0.733558C45.0037 3.68703 47.8466 13.6711 45.3038 21.6154C41.3801 34.0927 24.6227 43.3998 23.912 43.7902C23.6593 43.9301 23.3795 44 23.0997 44C22.8199 44 22.5424 43.9323 22.2897 43.7947C21.5835 43.4089 4.94793 34.2393 0.893389 21.6177C0.891133 21.6177 0.891133 21.6154 0.891133 21.6154C-1.65395 13.6688 1.17994 3.68252 10.3292 0.733558C14.6251 -0.656311 19.3069 -0.0448589 23.0929 2.34454ZM11.367 3.95553C3.96419 6.34267 2.10501 14.3051 4.11536 20.5843C7.27866 30.4262 19.7762 38.3841 23.0974 40.3539C26.43 38.3638 39.0178 30.3179 42.0795 20.5933C44.0899 14.3073 42.2239 6.34493 34.8098 3.95553C31.2178 2.80257 27.0279 3.50427 24.1353 5.7425C23.5307 6.20729 22.6913 6.21632 22.0821 5.75604C19.0181 3.45238 15.0154 2.77775 11.367 3.95553ZM32.6438 8.43627C35.7191 9.43129 37.8738 12.1546 38.1378 15.3743C38.2123 16.3062 37.5196 17.123 36.5877 17.1974C36.5404 17.2019 36.4952 17.2042 36.4479 17.2042C35.5747 17.2042 34.8346 16.5341 34.7624 15.6496C34.6135 13.7949 33.3725 12.2291 31.6059 11.6582C30.7146 11.3694 30.2273 10.415 30.5138 9.52832C30.8049 8.63934 31.7503 8.1565 32.6438 8.43627Z" fill="#446DFF"/>
<rect x="28" y="9" width="11" height="10" fill="white"/>
<path d="M31 9C33 9.7619 37 11.1818 37 17" stroke="#F36EFF" stroke-width="3" stroke-linecap="round"/>
</svg>
