<svg width="45" height="49" viewBox="0 0 45 49" fill="none" xmlns="http://www.w3.org/2000/svg">
<path d="M43.125 33.6667V15.3334C43.1242 14.5296 42.912 13.7402 42.5098 13.0444C42.1075 12.3485 41.5294 11.7707 40.8333 11.3688L24.7917 2.20212C24.0949 1.79985 23.3045 1.58807 22.5 1.58807C21.6955 1.58807 20.9051 1.79985 20.2083 2.20212L4.16667 11.3688C3.4706 11.7707 2.89245 12.3485 2.49022 13.0444C2.08799 13.7402 1.87582 14.5296 1.875 15.3334V33.6667C1.87582 34.4705 2.08799 35.2598 2.49022 35.9557C2.89245 36.6516 3.4706 37.2294 4.16667 37.6313L20.2083 46.798C20.9051 47.2002 21.6955 47.412 22.5 47.412C23.3045 47.412 24.0949 47.2002 24.7917 46.798L40.8333 37.6313C41.5294 37.2294 42.1075 36.6516 42.5098 35.9557C42.912 35.2598 43.1242 34.4705 43.125 33.6667Z" stroke="#913BFF" stroke-opacity="0.2" stroke-width="3" stroke-linecap="round" stroke-linejoin="round"/>
<path d="M10.8652 17.0961L22.1473 23.4423L33.4293 17.0961" stroke="#9644FF" stroke-width="3" stroke-linecap="round" stroke-linejoin="round"/>
<path d="M22.5 36.1346V25.5577" stroke="#9644FF" stroke-width="3" stroke-linecap="round" stroke-linejoin="round"/>
</svg>
