<svg width="126" height="114" viewBox="0 0 126 114" fill="none" xmlns="http://www.w3.org/2000/svg">
<path d="M46.2395 74.6049C21.3006 74.6049 0 78.4573 0 93.8551C0 109.265 21.1652 113.25 46.2395 113.25C71.1785 113.25 92.4791 109.397 92.4791 93.9997C92.4791 78.5899 71.3139 74.6049 46.2395 74.6049Z" fill="#3A89FF"/>
<path opacity="0.7" d="M46.2396 59.927C63.2247 59.927 76.8361 46.5972 76.8361 29.9635C76.8361 13.3298 63.2247 0 46.2396 0C29.2607 0 15.643 13.3298 15.643 29.9635C15.643 46.5972 29.2607 59.927 46.2396 59.927Z" fill="#3FD1FF"/>
<path opacity="0.4" d="M89.1744 30.5068C89.1744 38.9773 86.5765 46.8812 82.0209 53.4466C81.5468 54.1219 81.9655 55.0322 82.7904 55.1769C83.9355 55.3638 85.1113 55.4784 86.3118 55.5025C98.2549 55.81 108.973 48.2799 111.934 36.9396C116.323 20.113 103.445 5.00464 87.0382 5.00464C85.2591 5.00464 83.5538 5.1855 81.8916 5.51709C81.6638 5.56532 81.4176 5.67384 81.2944 5.86677C81.1344 6.11395 81.2513 6.43348 81.4114 6.64449C86.3426 13.4149 89.1744 21.6564 89.1744 30.5068Z" fill="#FF7236"/>
<path d="M124.444 76.5655C122.258 72.0016 116.982 68.8726 108.954 67.3353C105.168 66.4309 94.912 65.1468 85.376 65.3276C85.2344 65.3457 85.1544 65.4422 85.1421 65.5025C85.1236 65.5989 85.1667 65.7436 85.3514 65.8461C89.7593 67.9803 106.794 77.2648 104.651 96.8466C104.559 97.7027 105.255 98.4262 106.123 98.3056C110.315 97.7208 121.101 95.4479 124.444 88.382C126.297 84.6441 126.297 80.3034 124.444 76.5655Z" fill="#FF7236"/>
</svg>
