<svg width="62" height="51" viewBox="0 0 62 51" fill="none" xmlns="http://www.w3.org/2000/svg">
<path d="M21.6867 0.692139L0.15625 20.5545C0.15625 20.5545 6.80842 31.4867 19.7302 40.7912C32.6519 50.0957 42.078 50.409 42.078 50.409L61.6867 26.8127C61.6867 26.8127 47.1302 24.7324 38.3736 17.482C29.6258 10.2404 21.6867 0.692139 21.6867 0.692139Z" fill="url(#paint0_linear_739_5)"/>
<path d="M24.2885 12.5983L12.582 24.7446L13.2642 25.4033L24.9707 13.257L24.2885 12.5983Z" fill="#B4C9FC"/>
<path d="M30.9643 18.6596L19.2578 30.8059L19.94 31.4646L31.6465 19.3183L30.9643 18.6596Z" fill="#B4C9FC"/>
<path d="M38.0483 23.629L26.3418 35.7754L27.0239 36.4341L38.7304 24.2878L38.0483 23.629Z" fill="#B4C9FC"/>
<path d="M46.4955 28.3124L34.7891 40.4587L35.4712 41.1174L47.1777 28.9711L46.4955 28.3124Z" fill="#B4C9FC"/>
<defs>
<linearGradient id="paint0_linear_739_5" x1="0.153033" y1="25.5486" x2="61.6897" y2="25.5486" gradientUnits="userSpaceOnUse">
<stop stop-color="#D4E0FF"/>
<stop offset="1" stop-color="#E9F1FF"/>
</linearGradient>
</defs>
</svg>
