<svg width="92" height="69" viewBox="0 0 92 69" fill="none" xmlns="http://www.w3.org/2000/svg">
<g style="mix-blend-mode:multiply" opacity="0.15">
<g style="mix-blend-mode:multiply" opacity="0.03">
<path d="M44.5689 44.9702C41.2461 46.8997 37.8735 48.8094 34.6899 50.9378C32.5907 53.3547 36.1225 55.0455 37.9132 56.0799L56.2786 66.6823C58.2683 67.836 59.87 68.9202 62.1383 68.9202C63.9691 68.912 65.7612 68.3918 67.3116 67.4183L75.0617 62.9128C79.7774 60.1777 84.7119 57.6016 89.2584 54.6278C88.8804 54.8665 89.4674 54.4885 89.547 54.4189C89.6266 54.3493 89.7957 54.2399 89.8852 54.1404L89.9349 54.0808C90.0928 53.9013 90.2391 53.712 90.3727 53.5138C90.5508 53.1947 90.6434 52.835 90.6413 52.4695C90.512 50.1919 87.0797 48.9685 85.3088 48.0037L85.1298 47.8943L75.4795 42.3345L68.0478 38.0379C65.879 36.7847 63.6406 35.4718 61.0837 36.0487H61.2031C60.695 36.1214 60.193 36.231 59.7009 36.3769L59.5317 36.4366C58.5134 36.8676 57.5348 37.3868 56.6068 37.9881L52.697 40.2558L44.5689 44.9702Z" fill="#FDFDFE"/>
</g>
<g style="mix-blend-mode:multiply" opacity="0.06">
<path d="M43.5147 44.9703C40.1819 46.8998 36.8193 48.8095 33.6357 50.9379C31.5365 53.3548 35.0683 55.0357 36.859 56.0601L55.2243 66.6625C57.214 67.8262 58.8157 68.9203 61.084 68.9203C62.9119 68.9036 64.6993 68.3803 66.2474 67.4085L73.9974 62.893C78.7131 60.1579 83.6476 57.5818 88.1941 54.6179C87.826 54.8467 88.4031 54.4687 88.4926 54.4091C88.5821 54.3494 88.7313 54.2201 88.8308 54.1206V54.0709C88.9502 53.9317 89.2288 53.5438 89.2686 53.504C89.439 53.1997 89.5313 52.858 89.5372 52.5094C89.4178 50.2218 85.9756 49.0183 84.2146 48.0436L84.0256 47.9442C80.8089 46.0876 77.5955 44.2343 74.3854 42.3844L66.9537 38.0877C64.7849 36.8345 62.5365 35.5216 59.9897 36.0985H60.0991C59.5945 36.1721 59.0957 36.2818 58.6068 36.4267L58.4377 36.4864C57.4 36.9167 56.4014 37.4358 55.4531 38.038L51.5532 40.3056L43.5147 44.9703Z" fill="#FAFBFE"/>
</g>
<g style="mix-blend-mode:multiply" opacity="0.1">
<path d="M42.4501 44.9704C39.1172 46.8999 35.7546 48.8095 32.571 50.938C30.4718 53.3548 34.0136 55.0257 35.8043 56.0502L54.1597 66.6526C56.1495 67.8163 57.7512 68.9203 60.0195 68.9203C61.8468 68.9016 63.6322 68.371 65.173 67.3886L72.923 62.8831C77.6387 60.138 82.5732 57.5719 87.1198 54.5981C86.7517 54.8268 87.3188 54.4588 87.4183 54.3892C87.5177 54.3196 87.6669 54.2002 87.7565 54.1008H87.8063C87.9642 53.9214 88.1104 53.732 88.244 53.5339C88.4141 53.2295 88.5063 52.8878 88.5126 52.5393C88.3932 50.2616 84.951 49.0681 83.1901 48.0934L83.001 47.994C79.7975 46.1374 76.5874 44.2841 73.3707 42.4341L65.939 38.1375C63.7602 36.8843 61.5217 35.5714 58.9749 36.1483H59.0843C58.5794 36.2207 58.0806 36.3304 57.592 36.4765L57.3731 36.4168C56.3354 36.8471 55.3368 37.3662 54.3885 37.9684L50.4886 40.2361L42.4501 44.9704Z" fill="#F8F9FD"/>
</g>
<g style="mix-blend-mode:multiply" opacity="0.13">
<path d="M41.3955 44.9703C38.0727 46.8998 34.7001 48.8095 31.5165 50.9379C29.4273 53.3548 32.969 55.0058 34.7598 56.0402L53.125 66.6427C55.1147 67.7964 56.6966 68.9203 58.9748 68.9203C60.803 68.8981 62.5883 68.364 64.1282 67.3787C66.7049 65.8768 69.2916 64.3948 71.8782 62.8632C76.584 60.1181 81.5285 57.552 86.065 54.5881C85.7069 54.8168 86.264 54.4488 86.3635 54.3693C86.463 54.2897 86.6221 54.1803 86.7017 54.0809C86.7813 53.9814 86.7017 54.0808 86.7017 54.0311C86.7017 53.9814 87.1096 53.5139 87.1395 53.4741C87.3148 53.1719 87.4075 52.8289 87.4081 52.4795C87.2887 50.192 83.8465 49.0084 82.0856 48.0436L81.9065 47.9342C78.693 46.0843 75.4896 44.2244 72.2662 42.3844L64.8445 38.0877C62.6658 36.8345 60.4273 35.5216 57.8805 36.0985H57.9899C57.485 36.1709 56.9862 36.2806 56.4976 36.4267L56.3185 36.4864C55.3021 36.9214 54.3238 37.4404 53.3936 38.038L49.4938 40.3056L41.3955 44.9703Z" fill="#F6F7FC"/>
</g>
<g style="mix-blend-mode:multiply" opacity="0.16">
<path d="M40.341 44.9705C37.0181 46.9 33.6455 48.8096 30.462 50.9381C28.3727 53.3549 31.9244 54.996 33.7052 56.0304L52.0705 66.6328C54.0602 67.7866 55.642 68.9204 57.9203 68.9204C59.7455 68.8897 61.5262 68.3525 63.0637 67.3688L70.8138 62.8434C75.5195 60.1083 80.464 57.5422 85.0006 54.5683C84.6425 54.7971 85.1996 54.439 85.309 54.3495C85.4185 54.26 85.5577 54.1606 85.6473 54.071V54.0213C85.7766 53.8821 86.0551 53.4942 86.085 53.4544C86.2528 53.1486 86.3481 52.8083 86.3636 52.4598C86.2343 50.1623 82.792 48.9986 81.0311 48.0239L80.852 47.9244C77.6485 46.0745 74.4351 44.2146 71.2217 42.3746L63.8 38.0779C61.6212 36.8247 59.3828 35.5118 56.8359 36.0887H56.9453C56.4405 36.1612 55.9417 36.2709 55.453 36.4169L55.274 36.4766C54.2557 36.9077 53.277 37.4268 52.3491 38.0282L48.4193 40.266L40.341 44.9705Z" fill="#F3F5FC"/>
</g>
<g style="mix-blend-mode:multiply" opacity="0.19">
<path d="M39.2865 44.9703C35.9636 46.8998 32.591 48.8095 29.4074 50.9379C27.3182 53.3548 30.8698 54.9859 32.6606 56.0104L51.0259 66.6128C53.0156 67.7765 54.5875 68.9203 56.8658 68.9203C58.6903 68.8871 60.469 68.3426 61.9993 67.3488L69.7493 62.8234C74.4551 60.0882 79.3996 57.5222 83.9461 54.5582C83.588 54.7771 84.1252 54.419 84.2446 54.3394C84.3753 54.2665 84.4902 54.1685 84.5828 54.051V54.0013C84.7122 53.862 84.9808 53.4841 85.0107 53.4443C85.177 53.1384 85.269 52.7977 85.2792 52.4497C85.1499 50.1522 81.7077 49.0084 79.9567 48.0337L79.7677 47.9342C76.5642 46.071 73.3574 44.2211 70.1473 42.3844L62.7256 38.0877C60.5468 36.8345 58.3084 35.5216 55.7018 36.0985H55.8212C55.3163 36.1709 54.8175 36.2806 54.3289 36.4267L54.1498 36.4864C53.1315 36.9175 52.1528 37.4366 51.2249 38.038L47.4245 40.2659L39.2865 44.9703Z" fill="#F1F3FB"/>
</g>
<g style="mix-blend-mode:multiply" opacity="0.23">
<path d="M38.2316 44.9705C34.9087 46.9 31.5361 48.8096 28.3525 50.9381C26.2534 53.3549 29.815 54.9761 31.6057 56.0006L49.971 66.603C51.9608 67.7667 53.5327 68.9204 55.801 68.9204C57.6257 68.879 59.403 68.3315 60.9345 67.339C63.5212 65.8272 66.0979 64.3055 68.6845 62.8136C73.3903 60.0685 78.3348 57.5124 82.8814 54.5385C82.5331 54.7573 83.0604 54.4092 83.1798 54.3197C83.3129 54.2503 83.4285 54.1517 83.5181 54.0313C83.5181 54.0313 83.5181 54.0313 83.5678 53.9815C83.7209 53.8042 83.8638 53.6182 83.9956 53.4246C84.161 53.1183 84.2529 52.7778 84.2642 52.43C84.1349 50.1324 80.7026 48.9986 78.9416 48.0239L78.7526 47.9145L69.1422 42.3746L61.7205 38.0779C59.5417 36.8247 57.3032 35.5118 54.6967 36.0887H54.8161C54.3112 36.1612 53.8124 36.2709 53.3238 36.4169L53.1447 36.4766C52.1264 36.9077 51.1477 37.4268 50.2198 38.0282L46.3099 40.2958L38.2316 44.9705Z" fill="#EFF1FA"/>
</g>
<g style="mix-blend-mode:multiply" opacity="0.26">
<path d="M37.1773 44.9705C33.8544 46.9 30.4818 48.8096 27.2982 50.9381C25.1991 53.3549 28.7706 54.9164 30.5514 55.9906L48.9167 66.593C50.9064 67.7468 52.4783 68.9204 54.7466 68.9204C56.5739 68.8767 58.3523 68.322 59.8802 67.3191C62.4668 65.8173 65.0336 64.3353 67.6202 62.7937C72.3259 60.0486 77.2705 57.4925 81.817 54.5286C81.4688 54.7474 81.9961 54.3993 82.1254 54.2998C82.2558 54.2307 82.3708 54.136 82.4636 54.0213V53.9716C82.6199 53.7908 82.766 53.6016 82.9014 53.4046C83.0678 53.0988 83.1598 52.7581 83.17 52.4101C83.0506 50.1125 79.6084 48.9886 77.8475 48.0139L77.6684 47.9145L68.058 42.3746L60.6263 38.0779C58.4575 36.8247 56.2191 35.5118 53.6622 36.0887H53.7816C53.2735 36.1614 52.7715 36.2711 52.2794 36.4169L52.1103 36.4766C51.092 36.9077 50.1133 37.4268 49.1853 38.0282L45.2755 40.2958L37.1773 44.9705Z" fill="#ECEFFA"/>
</g>
<g style="mix-blend-mode:multiply" opacity="0.29">
<path d="M36.1227 44.9705C32.7999 46.9 29.4273 48.8096 26.2437 50.9381C24.1445 53.3549 27.7161 54.9165 29.5068 55.9807L47.8721 66.5831C49.8618 67.7368 51.4238 68.9204 53.692 68.9204C55.5162 68.8682 57.2901 68.3104 58.8156 67.3092C61.4023 65.7974 63.969 64.2756 66.5557 62.7738C71.2614 60.0386 76.2059 57.4825 80.7525 54.5087C80.4142 54.7275 80.9216 54.3794 81.0609 54.2799C81.1929 54.2134 81.3085 54.1182 81.3991 54.0014L81.4489 53.9517C81.5782 53.8125 81.8468 53.4345 81.8767 53.3947C82.0487 53.0911 82.1411 52.749 82.1453 52.4001C82.0259 50.0927 78.5836 48.9886 76.8227 48.0139L76.6437 47.9145L67.0432 42.3746L59.6115 38.0779C57.4427 36.8247 55.2043 35.5118 52.6475 36.0887H52.7668C52.2588 36.1614 51.7567 36.2711 51.2646 36.4169L51.0955 36.4766C50.0772 36.9077 49.0985 37.4268 48.1705 38.0282L44.2607 40.2958L36.1227 44.9705Z" fill="#EAEDF9"/>
</g>
<g style="mix-blend-mode:multiply" opacity="0.32">
<path d="M35.0679 44.9706C31.7351 46.9001 28.3725 48.8097 25.1889 50.9381C23.0897 53.355 26.6712 54.9165 28.452 55.9609L46.8173 66.5732C48.8071 67.727 50.359 68.9205 52.6373 68.9205C54.4609 68.8658 56.2326 68.3007 57.7509 67.2893C60.3376 65.7875 62.9043 64.3056 65.491 62.754C70.1967 60.0188 75.1511 57.4627 79.6877 54.4988C79.3594 54.7077 79.8569 54.3695 79.9961 54.2701C80.1283 54.1993 80.2437 54.1009 80.3344 53.9816C80.4876 53.8043 80.6304 53.6183 80.7622 53.4246C80.931 53.1192 81.0264 52.7787 81.0407 52.43C80.9114 50.1226 77.4692 49.0384 75.7182 48.0637L75.5292 47.9543C72.339 46.1044 69.1421 44.2611 65.9387 42.4244L58.507 38.1277C56.3283 36.8745 54.0898 35.5616 51.4932 36.1385H51.6026C51.0978 36.211 50.599 36.3207 50.1103 36.4667L49.9412 36.5264C48.9035 36.9567 47.9049 37.4758 46.9566 38.078L43.0567 40.3457L35.0679 44.9706Z" fill="#E8EBF9"/>
</g>
<g style="mix-blend-mode:multiply" opacity="0.35">
<path d="M34.0136 44.9702C30.6808 46.8998 27.3082 48.8094 24.1246 50.9378C22.0354 53.3547 25.6169 54.9162 27.4076 55.9108L45.773 66.5133C47.7627 67.677 49.3047 68.8804 51.583 68.8804C53.4035 68.8173 55.1706 68.2491 56.6866 67.2393C59.2733 65.7275 61.8401 64.1959 64.4268 62.704C69.1325 59.9589 74.0869 57.4127 78.6235 54.4488C78.2952 54.6477 78.7926 54.3195 78.9419 54.2101C79.0697 54.1372 79.1841 54.043 79.2802 53.9316V53.8819C79.4341 53.7052 79.5769 53.5192 79.7079 53.3249C79.8713 53.0178 79.9631 52.6778 79.9765 52.3303C79.8472 50.0228 76.405 48.9387 74.654 47.964L74.465 47.8645C71.2681 46.0146 68.0713 44.1713 64.8744 42.3346L57.4527 38.0379C55.274 36.7847 53.0355 35.4718 50.4886 36.0487H50.598C50.0932 36.1211 49.5944 36.2308 49.1057 36.3769L48.9366 36.4366C47.916 36.8694 46.9341 37.3885 46.0018 37.9881L42.1019 40.2558L34.0136 44.9702Z" fill="#E5E9F8"/>
</g>
<g style="mix-blend-mode:multiply" opacity="0.39">
<path d="M32.9492 44.9705C29.6263 46.9 26.2537 48.8097 23.0701 50.9381C20.9809 53.355 24.5624 54.9165 26.3532 55.9111L44.7185 66.5135C46.7082 67.6673 48.2502 68.8906 50.5285 68.8906C52.3516 68.8252 54.1199 68.2498 55.6321 67.2296C58.2188 65.7278 60.7756 64.1961 63.3623 62.6943C68.078 59.9492 73.0224 57.403 77.569 54.4391C77.2407 54.638 77.7281 54.3198 77.8774 54.2004C78.0047 54.1269 78.119 54.0328 78.2157 53.9219V53.8722C78.3662 53.6952 78.5057 53.5092 78.6335 53.3152C78.7956 53.0076 78.8874 52.6679 78.9021 52.3206C78.7728 50.0131 75.3305 48.9489 73.5795 47.9742L73.4005 47.8747C70.2103 46.0248 67.0134 44.1815 63.8099 42.3448L56.3882 38.0481C54.2095 36.7949 51.971 35.4821 49.3744 36.0589H49.4839C48.979 36.1314 48.4802 36.2411 47.9916 36.3871L47.8125 36.4468C46.7952 36.8799 45.8167 37.399 44.8876 37.9984L40.9877 40.2661L32.9492 44.9705Z" fill="#E3E7F7"/>
</g>
<g style="mix-blend-mode:multiply" opacity="0.42">
<path d="M31.8944 44.9704C28.5715 46.9 25.1989 48.8096 22.0153 50.938C19.9261 53.3549 23.5176 54.9164 25.2984 55.911L43.6637 66.5135C45.6534 67.6672 47.1955 68.9005 49.4737 68.9005C51.2938 68.8267 53.0574 68.2481 54.5675 67.2296C57.1541 65.7178 59.7109 64.1861 62.2976 62.6843C67.0133 59.9491 71.9578 57.4029 76.5043 54.439C76.186 54.6379 76.6535 54.3097 76.8127 54.1904C76.9437 54.1222 77.059 54.0274 77.151 53.9119V53.8622C77.2903 53.7229 77.5489 53.345 77.5788 53.3151C77.7462 53.0097 77.8383 52.6687 77.8474 52.3205C77.7181 50.0031 74.2758 48.9588 72.5248 47.9841L72.3458 47.8747L62.7652 42.3546L55.3833 38.0281C53.2045 36.7749 50.966 35.462 48.4192 36.0389H48.5286C48.0237 36.1114 47.5249 36.2211 47.0363 36.3671L46.8572 36.4268C45.8389 36.8579 44.8602 37.3771 43.9323 37.9784L40.0225 40.2461L31.8944 44.9704Z" fill="#E1E5F7"/>
</g>
<g style="mix-blend-mode:multiply" opacity="0.45">
<path d="M30.8399 44.9706C27.517 46.9001 24.1444 48.8097 20.9608 50.9381C18.8617 53.355 22.4631 54.9165 24.2539 55.9111L42.6191 66.5235C44.6088 67.6772 46.1409 68.9205 48.4092 68.9205C50.2319 68.8444 51.9967 68.2586 53.5029 67.2297C56.0896 65.7278 58.6564 64.1862 61.2331 62.6843C65.9487 59.9492 70.8932 57.403 75.4397 54.4391C75.1214 54.638 75.589 54.3198 75.7581 54.2004C75.8829 54.1232 75.9967 54.0296 76.0964 53.9219C76.2503 53.7452 76.3932 53.5592 76.5242 53.365C76.6906 53.0591 76.7826 52.7184 76.7928 52.3704C76.6734 50.053 73.2212 49.0186 71.4802 48.0439L71.2912 47.9444C68.1076 46.1044 64.9141 44.2544 61.7205 42.4244L54.2889 38.1277C52.1201 36.8745 49.8816 35.5616 47.275 36.1385H47.3944C46.8896 36.211 46.3908 36.3207 45.9021 36.4667L45.7231 36.5264C44.7048 36.9575 43.7261 37.4767 42.7981 38.078L38.8883 40.3457L30.8399 44.9706Z" fill="#DEE3F6"/>
</g>
<g style="mix-blend-mode:multiply" opacity="0.48">
<path d="M29.7851 44.9704C26.4622 46.8999 23.0896 48.8096 19.9061 50.938C17.8069 53.3549 21.4183 54.9164 23.1991 55.911L41.5643 66.5134C43.5541 67.6771 45.0862 68.9303 47.3545 68.9303C49.1587 68.8459 50.9044 68.2641 52.3985 67.2494C54.9851 65.7475 57.5519 64.196 60.1286 62.7041C64.8443 59.959 69.7987 57.4228 74.3353 54.4589C74.0269 54.6479 74.4846 54.3395 74.6537 54.2102C74.7803 54.1357 74.8945 54.0417 74.992 53.9317V53.882C75.1213 53.7328 75.3899 53.3648 75.4098 53.335C75.58 53.0301 75.6754 52.6893 75.6883 52.3404C75.559 50.013 72.1068 48.9985 70.3658 48.0238L70.1867 47.9244C66.9899 46.0744 63.7997 44.2344 60.6161 42.4043L53.1844 38.1077C51.0156 36.8545 48.7771 35.5416 46.2203 36.1185H46.3397C45.8316 36.1912 45.3296 36.3009 44.8375 36.4467L44.6683 36.5064C43.65 36.9374 42.6713 37.4566 41.7434 38.0579L37.8336 40.3256L29.7851 44.9704Z" fill="#DCE1F5"/>
</g>
<g style="mix-blend-mode:multiply" opacity="0.52">
<path d="M28.7307 44.9701C25.4078 46.8996 22.0352 48.8093 18.8516 50.9377C16.7524 53.3546 20.3638 54.9161 22.1446 55.9107L40.5199 66.5131C42.5096 67.6768 44.0318 68.9399 46.3001 68.9399C48.1222 68.8526 49.8834 68.2565 51.3839 67.2193C53.9705 65.7174 56.5274 64.1758 59.114 62.6739C63.8198 59.9289 68.7742 57.3926 73.3109 54.4287C73.0024 54.6177 73.4501 54.3193 73.6391 54.1801C73.7628 54.1055 73.8737 54.0115 73.9674 53.9016L74.0172 53.8519C74.168 53.6786 74.3076 53.4959 74.4351 53.3048C74.5972 52.9973 74.6889 52.6576 74.7036 52.3102C74.5743 49.9928 71.1221 48.9883 69.3811 48.0136L69.202 47.9042L59.6413 42.3941L52.2096 38.0974C50.0408 36.8442 47.8023 35.5314 45.1958 36.1082H45.3152C44.8071 36.1809 44.305 36.2906 43.8129 36.4364L43.6438 36.4961C42.6255 36.9272 41.6468 37.4464 40.7189 38.0477L36.809 40.3154L28.7307 44.9701Z" fill="#DADEF5"/>
</g>
<g style="mix-blend-mode:multiply" opacity="0.55">
<path d="M27.6762 44.9707C24.3434 46.9002 20.9807 48.8098 17.7971 50.9382C15.6979 53.3551 19.3093 54.847 21.1001 55.9112L39.4654 66.4739C41.4551 67.6276 42.9673 68.9106 45.2456 68.9106C47.0646 68.8149 48.8212 68.2157 50.3194 67.18C52.9061 65.6782 55.4629 64.1266 58.0496 62.6248C62.7553 59.8896 67.7098 57.3534 72.2564 54.3895C71.948 54.5785 72.3857 54.2701 72.5747 54.1309C72.6986 54.0564 72.8123 53.9661 72.913 53.8624V53.8126C73.0646 53.64 73.2042 53.4573 73.3308 53.2656C73.4942 52.9585 73.586 52.6185 73.5994 52.271C73.4701 49.9436 70.0179 48.959 68.2769 47.9743L68.0978 47.8749L58.547 42.3648L51.1154 38.0681C48.9366 36.8149 46.6981 35.5021 44.1513 36.0789H44.2607C43.7558 36.1514 43.257 36.2611 42.7684 36.4071L42.5993 36.4668C41.5786 36.8997 40.5968 37.4187 39.6644 38.0184L35.7645 40.2861L27.6762 44.9707Z" fill="#D8DCF4"/>
</g>
<g style="mix-blend-mode:multiply" opacity="0.58">
<path d="M26.6217 44.9703C23.2888 46.8998 19.9162 48.8095 16.7425 50.9379C14.6434 53.3548 18.2647 54.8368 20.0455 55.9109L38.4109 66.5134C40.4006 67.6671 41.9128 68.9601 44.1911 68.9601C46.0097 68.8619 47.7642 68.2554 49.255 67.2096C51.8417 65.7077 54.3985 64.1562 56.9851 62.6543C61.6909 59.9192 66.6454 57.3829 71.1919 54.419C70.8935 54.608 71.3213 54.3096 71.5103 54.1604C71.636 54.0885 71.75 53.998 71.8485 53.8919H71.8983C72.0276 53.7427 72.2963 53.3747 72.3162 53.3448C72.4783 53.0373 72.57 52.6976 72.5847 52.3502C72.4554 50.0229 69.0032 49.0482 67.2721 48.0735L67.0831 47.974C63.9128 46.1307 60.7292 44.294 57.5323 42.4639L50.1106 38.1673C47.9318 36.9141 45.6934 35.6012 43.0968 36.1781H43.2062C42.7013 36.2505 42.2025 36.3602 41.7139 36.5063L41.5448 36.5659C40.507 36.9962 39.5084 37.5153 38.5601 38.1175L34.6602 40.3852L26.6217 44.9703Z" fill="#D5DAF3"/>
</g>
<g style="mix-blend-mode:multiply" opacity="0.61">
<path d="M25.5373 44.9705C22.2144 46.9 18.8418 48.8096 15.6582 50.9381C13.569 53.3549 17.1903 54.8269 18.9811 55.8514L37.3463 66.4538C39.3361 67.6175 40.8383 68.9204 43.1166 68.9204C44.9323 68.8153 46.6826 68.2056 48.1705 67.16C50.7572 65.6581 53.314 64.0966 55.9006 62.6047C60.6064 59.8596 65.5608 57.3333 70.1073 54.3694C69.8089 54.5484 70.2367 54.26 70.4356 54.1108C70.5566 54.0325 70.6669 53.9389 70.764 53.8323V53.7826C70.9033 53.6334 71.1619 53.2654 71.1818 53.2455C71.3452 52.9385 71.437 52.5985 71.4504 52.2509C71.3311 49.9136 67.8689 48.9588 66.1378 47.9841L65.9587 47.8747C62.7752 46.0314 59.5916 44.198 56.408 42.3746L48.9863 38.0779C46.8075 36.8247 44.5691 35.5118 42.0222 36.0887H42.1317C41.6268 36.1612 41.128 36.2709 40.6393 36.4169H40.4603C39.443 36.85 38.4644 37.3691 37.5354 37.9685L33.6355 40.2362L25.5373 44.9705Z" fill="#D3D8F3"/>
</g>
<g style="mix-blend-mode:multiply" opacity="0.65">
<path d="M24.5425 44.9705C21.2197 46.9 17.8471 48.8096 14.6635 50.9381C12.5743 53.3549 16.2055 54.817 17.9863 55.8414L36.3516 66.4439C38.3413 67.6075 39.8435 68.9204 42.1218 68.9204C43.9398 68.811 45.6907 68.1943 47.1757 67.1401C49.7624 65.6382 52.3092 64.0867 54.8959 62.5848C59.6016 59.8497 64.556 57.3134 69.1025 54.3495C68.814 54.5286 69.2219 54.2401 69.4309 54.0909C69.5498 54.0095 69.6628 53.9197 69.7691 53.8224V53.7727C69.9084 53.6135 70.1671 53.2555 70.187 53.2256C70.3566 52.9211 70.4489 52.5796 70.4556 52.231C70.3362 49.9037 66.8741 48.9588 65.143 47.9741L64.9639 47.8747C61.7936 46.0314 58.6133 44.198 55.4231 42.3746L48.0015 38.0779C45.8227 36.8247 43.5843 35.5118 40.9877 36.0887H41.0971C40.5922 36.1612 40.0935 36.2709 39.6048 36.4169H39.4655C38.4472 36.848 37.4685 37.3672 36.5406 37.9685L32.6308 40.2362L24.5425 44.9705Z" fill="#D1D6F2"/>
</g>
<g style="mix-blend-mode:multiply" opacity="0.68">
<path d="M23.4479 44.9705C20.125 46.9 16.7524 48.8096 13.5688 50.9381C11.4796 53.3549 15.1109 54.7971 16.8917 55.8315L35.267 66.4339C37.2567 67.5876 38.749 68.9204 41.0173 68.9204C42.8356 68.8044 44.5856 68.1845 46.0713 67.1301C48.6579 65.6283 51.2048 64.0668 53.7915 62.5649C58.4972 59.8298 63.4616 57.3035 67.9982 54.3396C67.7197 54.5087 68.1176 54.2302 68.3265 54.071C68.4515 53.9981 68.5654 53.9076 68.6648 53.8025V53.7528C68.8109 53.5817 68.9471 53.4024 69.0727 53.2157C69.2361 52.9086 69.3279 52.5686 69.3413 52.2211C69.212 49.8838 65.7498 48.9489 64.0187 47.9741L63.8397 47.8747C60.6693 46.0314 57.4924 44.198 54.3088 42.3746L46.8771 38.0779C44.7083 36.8247 42.4698 35.5118 39.913 36.0887H40.0324C39.5273 36.1601 39.0285 36.2698 38.5401 36.4169L38.361 36.4766C37.3427 36.9077 36.364 37.4268 35.4361 38.0282L31.5063 40.266L23.4479 44.9705Z" fill="#CED4F1"/>
</g>
<g style="mix-blend-mode:multiply" opacity="0.71">
<path d="M22.3936 44.9705C19.0707 46.9 15.6981 48.8096 12.5145 50.9381C10.4153 53.3549 14.0566 54.7872 15.8474 55.8215L34.2126 66.424C36.2023 67.5777 37.6946 68.9204 39.9629 68.9204C41.883 68.9204 43.3355 68.0849 45.0069 67.1102C47.5936 65.6084 50.1404 64.0469 52.7271 62.545C57.4328 59.8099 62.3972 57.2836 66.9338 54.3197C66.6552 54.4987 67.0532 54.2202 67.2721 54.0512C67.3942 53.9784 67.5049 53.8879 67.6004 53.7826L67.6501 53.7329C67.7987 53.5638 67.9349 53.3843 68.058 53.1958C68.2189 52.8878 68.3106 52.5483 68.3266 52.2012C68.1973 49.8639 64.7351 48.9489 63.014 47.9741L62.825 47.8648C59.6613 46.0347 56.4777 44.1947 53.3041 42.3746L45.8725 38.0779C43.7036 36.8247 41.4652 35.5118 38.8587 36.0887H38.978C38.473 36.1601 37.9741 36.2698 37.4857 36.4169L37.3067 36.4766C36.2884 36.9077 35.3097 37.4268 34.3817 38.0282L30.5117 40.266L22.3936 44.9705Z" fill="#CCD2F1"/>
</g>
<g style="mix-blend-mode:multiply" opacity="0.74">
<path d="M21.3388 44.9703C18.016 46.8998 14.6433 48.8095 11.4597 50.9379C9.36057 53.3548 13.0118 54.7771 14.7926 55.8015L33.1578 66.4039C35.1476 67.5676 36.6399 68.9203 38.9082 68.9203C40.8283 68.9203 42.2808 68.0649 43.9522 67.1002C46.5388 65.5983 49.0757 64.0269 51.6624 62.535C56.3781 59.7799 61.3524 57.3034 65.879 54.3196C65.6005 54.4886 65.9785 54.2201 66.2074 54.051C66.3277 53.9715 66.4409 53.8817 66.5456 53.7825V53.7327C66.6849 53.5736 66.9436 53.2155 66.9635 53.1957C67.1268 52.8886 67.2186 52.5486 67.2321 52.2011C67.1027 49.8538 63.6406 48.9587 61.9195 47.974L61.7404 47.8745L52.2195 42.3844L44.7878 38.0877C42.619 36.8345 40.3806 35.5216 37.8237 36.0985H37.9431C37.4487 36.1698 36.96 36.2761 36.4807 36.4168L36.3116 36.4764C35.2933 36.9075 34.3146 37.4267 33.3867 38.028L29.4769 40.2957L21.3388 44.9703Z" fill="#CAD0F0"/>
</g>
<g style="mix-blend-mode:multiply" opacity="0.77">
<path d="M20.2845 44.9705C16.9517 46.9 13.589 48.8096 10.4054 50.9381C8.30628 53.3549 11.9575 54.7673 13.7483 55.7917L32.1135 66.3941C34.1032 67.5578 35.5757 68.9204 37.8539 68.9204C39.774 68.9204 41.2166 68.0551 42.8879 67.0903C45.4746 65.5785 48.0115 64.017 50.5982 62.5152C55.3139 59.78 60.2683 57.2538 64.8148 54.2899C64.5363 54.4589 64.9143 54.1904 65.1431 54.0213C65.2673 53.9472 65.3811 53.8569 65.4814 53.7528L65.5312 53.703C65.6704 53.5439 65.9291 53.1858 65.939 53.166C66.0999 52.8579 66.1916 52.5185 66.2077 52.1714C66.0783 49.8341 62.6162 48.9488 60.895 47.9642L60.716 47.8548C57.5423 46.0247 54.3786 44.1947 51.1951 42.3746L43.7734 38.0779C41.5946 36.8247 39.3661 35.5118 36.7596 36.0887H36.869C36.3641 36.1612 35.8653 36.2709 35.3767 36.4169L35.2075 36.4766C34.1698 36.9069 33.1712 37.426 32.2229 38.0282L28.323 40.2958L20.2845 44.9705Z" fill="#C7CEF0"/>
</g>
<g style="mix-blend-mode:multiply" opacity="0.81">
<path d="M19.2297 44.9708C15.8969 46.9003 12.5243 48.8099 9.35068 50.9383C7.25151 53.3552 10.9127 54.7576 12.6935 55.782L31.0587 66.3845C33.0485 67.5382 34.5209 68.9207 36.7992 68.9207C38.7193 68.9207 40.1519 68.0355 41.7735 67.0707C44.3602 65.5689 46.907 63.9974 49.4837 62.4956C54.1994 59.7604 59.1539 57.2441 63.7004 54.2802C63.4318 54.4393 63.7999 54.1807 64.0387 54.0017C64.156 53.9222 64.2658 53.8323 64.367 53.7332C64.5063 53.574 64.7649 53.216 64.7749 53.1961C64.9383 52.889 65.0301 52.549 65.0435 52.2015C64.9241 49.8542 61.452 48.979 59.7309 48.0043L59.5518 47.8949L50.0409 42.4047L42.6191 38.1179C40.4404 36.8648 38.2019 35.5519 35.655 36.1288H35.7645C35.2597 36.2012 34.7609 36.3109 34.2722 36.457L34.103 36.5167C33.0824 36.9495 32.1006 37.4686 31.1682 38.0682L27.2683 40.3359L19.2297 44.9708Z" fill="#C5CCEF"/>
</g>
<g style="mix-blend-mode:multiply" opacity="0.84">
<path d="M18.1654 44.9705C14.8425 46.9 11.4699 48.8096 8.28628 50.9381C6.19705 53.3549 9.85823 54.7374 11.639 55.7718L30.0143 66.3742C32.004 67.528 33.4665 68.9204 35.7447 68.9204C37.6648 68.9204 39.0875 68.0253 40.7191 67.0605C43.3058 65.5487 45.8526 63.9773 48.4293 62.4754C53.145 59.7403 58.1094 57.2239 62.646 54.26C62.3873 54.4291 62.7455 54.1705 62.9843 53.9815C63.1031 53.9035 63.2161 53.8171 63.3225 53.7229V53.6732C63.4618 53.5141 63.7205 53.156 63.7304 53.1361C63.8871 52.8265 63.9785 52.4879 63.999 52.1415C63.8697 49.7943 60.3976 48.9389 58.6864 47.9543L58.5074 47.8548L48.9964 42.3646L41.5747 38.0779C39.3959 36.8247 37.1575 35.5118 34.5608 36.0887H34.6703C34.1654 36.1612 33.6666 36.2709 33.178 36.4169L32.9989 36.4766C31.9816 36.9097 31.003 37.4288 30.074 38.0282L26.1741 40.2958L18.1654 44.9705Z" fill="#C3CAEE"/>
</g>
<g style="mix-blend-mode:multiply" opacity="0.87">
<path d="M17.1108 44.9705C13.788 46.9 10.4153 48.8096 7.23175 50.9381C5.14253 53.3549 8.80364 54.7275 10.5944 55.7519L28.9597 66.3643C30.9494 67.518 32.4119 68.9204 34.6901 68.9204C36.6102 68.9204 38.0329 68.0153 39.6645 67.0406C42.2511 65.5388 44.788 63.9574 47.3747 62.4655C52.0804 59.7204 57.0448 57.214 61.5814 54.2501C61.3227 54.4092 61.6709 54.1606 61.9296 53.9716L62.2579 53.703V53.6533C62.4071 53.4942 62.6558 53.1361 62.6658 53.1262C62.8292 52.8191 62.921 52.4791 62.9344 52.1316C62.8051 49.7744 59.333 48.9389 57.6218 47.9543L57.4427 47.8448L47.9418 42.3646L40.52 38.0779C38.3413 36.8247 36.1028 35.5118 33.556 36.0887H33.6654C33.1605 36.1612 32.6617 36.2709 32.1731 36.4169L31.994 36.4766C30.9757 36.9077 29.997 37.4268 29.0691 38.0282L25.1593 40.2958L17.1108 44.9705Z" fill="#C0C8EE"/>
</g>
<g style="mix-blend-mode:multiply" opacity="0.9">
<path d="M16.056 44.9708C12.7332 46.9003 9.36057 48.8099 6.17699 50.9383C4.08776 53.3552 7.75884 54.7178 9.53965 55.7422L27.905 66.3447C29.8947 67.5084 31.3572 68.9207 33.6354 68.9207C35.5555 68.9207 36.9683 67.9957 38.6098 67.031C41.1965 65.5192 43.7334 63.9477 46.32 62.4459C51.0258 59.7107 55.9901 57.1944 60.5268 54.2305C60.278 54.3896 60.6163 54.141 60.875 53.952L61.2132 53.6834C61.3525 53.5143 61.6112 53.1663 61.6211 53.1464C61.7845 52.8393 61.8763 52.4993 61.8897 52.1518C61.7604 49.8045 58.2883 48.969 56.5771 47.9943L56.3981 47.8849L46.907 42.4047L39.4753 38.1179C37.3065 36.8648 35.0681 35.5519 32.4615 36.1288H32.5809C32.0758 36.2001 31.577 36.3098 31.0886 36.457L30.9095 36.5167C29.8912 36.9477 28.9125 37.4669 27.9846 38.0682L24.0748 40.3359L16.056 44.9708Z" fill="#BEC6ED"/>
</g>
<g style="mix-blend-mode:multiply" opacity="0.94">
<path d="M15.0016 44.9704C11.6787 46.8999 8.30613 48.8096 5.12256 50.938C3.02339 53.3549 6.7044 54.7076 8.48521 55.732L26.8604 66.3344C28.8502 67.4881 30.3026 68.9204 32.5709 68.9204C34.491 68.9204 35.9037 67.9855 37.5453 67.0108C40.1319 65.5089 42.6688 63.9275 45.2555 62.4256C49.9612 59.6905 54.9256 57.1841 59.4721 54.2202C59.2234 54.3694 59.5517 54.1307 59.8104 53.9317C60.069 53.7328 60.1088 53.703 60.1486 53.6732C60.2978 53.514 60.5466 53.156 60.5565 53.146C60.7199 52.839 60.8117 52.499 60.8251 52.1514C60.6958 49.7942 57.2237 48.9787 55.5126 47.994L55.3335 47.8945L45.8524 42.4143L38.4705 38.0281C36.3017 36.7749 34.0632 35.462 31.5064 36.0389H31.6258C31.1208 36.1103 30.6219 36.22 30.1335 36.3671L29.9544 36.4268C28.9361 36.8579 27.9575 37.3771 27.0295 37.9784L23.1197 40.2461L15.0016 44.9704Z" fill="#BCC4EC"/>
</g>
<g style="mix-blend-mode:multiply" opacity="0.97">
<path d="M13.947 44.9704C10.6241 46.8999 7.25153 48.8096 4.06795 50.938C1.96878 53.3549 5.65975 54.6877 7.44057 55.722L25.8059 66.3245C27.7956 67.4782 29.2481 68.9204 31.5164 68.9204C33.4365 68.9204 34.8492 67.9258 36.4907 67.0008C39.0774 65.489 41.6143 63.9076 44.201 62.4058C48.9067 59.6706 53.8711 57.1642 58.4176 54.2003C58.1689 54.3495 58.4873 54.1207 58.7659 53.9119L59.0941 53.6533V53.6035C59.2434 53.4444 59.4921 53.0863 59.502 53.0764C59.6654 52.7693 59.7572 52.4293 59.7706 52.0818C59.6413 49.7246 56.1692 48.9289 54.468 47.9443L54.2889 47.8349L44.8078 42.3646L37.4756 38.0281C35.3068 36.7749 33.0684 35.462 30.4618 36.0389H30.5812C30.0731 36.1116 29.571 36.2213 29.079 36.3671L28.9098 36.4268C27.8916 36.8579 26.9129 37.3771 25.9849 37.9784L22.0751 40.2461L13.947 44.9704Z" fill="#B9C2EC"/>
</g>
<g style="mix-blend-mode:multiply" opacity="0.5">
<path d="M58.7661 52.0222C58.6467 49.655 55.1646 48.8693 53.4634 47.8946L43.8032 42.3148L36.3815 38.0281C34.2127 36.7749 31.9742 35.462 29.4174 36.0389H29.5269C29.022 36.1114 28.5232 36.2211 28.0345 36.3671L27.8654 36.4268C26.8471 36.8579 25.8685 37.3771 24.9405 37.9784L21.0306 40.2461L12.9424 44.9505C9.6096 46.8801 6.24689 48.7897 3.06331 50.9181C0.964137 53.335 4.65511 54.6579 6.43593 55.6922L24.8112 66.2947C26.8009 67.4484 28.2335 68.9005 30.5118 68.9005C32.4319 68.9005 33.8346 67.9059 35.4861 66.9611C38.0728 65.4592 40.5997 63.8778 43.1864 62.376C47.8921 59.6309 52.8565 57.1344 57.4031 54.1705C57.025 54.3993 58 53.703 58.0895 53.6135C58.179 53.524 58.5173 53.0565 58.5272 53.0466C58.6868 52.7288 58.7686 52.3777 58.7661 52.0222Z" fill="#B7C0EB"/>
</g>
</g>
<path d="M0.347551 52.3304C-0.756751 51.6242 1.12358 35.999 1.12358 35.999L27.8656 20.4634C28.6579 20.0615 29.5339 19.8521 30.4224 19.8521C31.3108 19.8521 32.1868 20.0615 32.9792 20.4634L59.9003 35.999C59.9003 35.999 61.7906 51.654 60.3878 52.4597L33.1782 68.3733C32.3841 68.7753 31.5065 68.9847 30.6164 68.9847C29.7263 68.9847 28.8487 68.7753 28.0546 68.3733L0.347551 52.3304Z" fill="#B7C0EB"/>
<path d="M60.9548 17.7482C60.9548 17.7482 60.9548 17.8277 60.9548 17.8675C60.9595 17.8972 60.9595 17.9274 60.9548 17.957V18.0664C60.9585 18.0961 60.9585 18.1262 60.9548 18.1559C60.9585 18.1923 60.9585 18.229 60.9548 18.2653L60.8653 18.4245C60.8339 18.4775 60.7935 18.5246 60.7459 18.5637L60.5967 18.7129L60.4773 18.8024L60.3778 18.882L60.2485 18.9715L60.1092 19.0511L33.3771 34.5966L33.3174 67.5974L60.0595 52.0618L60.1589 52.0021C60.1996 51.9689 60.2428 51.9389 60.2883 51.9126L60.3878 51.833L60.4972 51.7435L60.6265 51.6142L60.6962 51.5346V51.465C60.7283 51.4293 60.7551 51.3891 60.7757 51.3457C60.7882 51.3075 60.8048 51.2707 60.8255 51.2362V51.1666V51.0572C60.8196 51.0344 60.8196 51.0104 60.8255 50.9876C60.8299 50.9513 60.8299 50.9145 60.8255 50.8782C60.8297 50.8519 60.8297 50.825 60.8255 50.7986L60.8852 17.7879C60.8852 17.7879 60.9548 17.7183 60.9548 17.7482Z" fill="#E4E7FB"/>
<path d="M1.14325 19.1106C0.847829 18.9808 0.592978 18.7737 0.405599 18.5111C0.21822 18.2485 0.105266 17.9401 0.0787327 17.6187L0.019043 50.6294C0.0476389 50.9503 0.16139 51.2577 0.34852 51.52C0.53565 51.7823 0.789385 51.9899 1.08356 52.1213L28.0047 67.657V34.6462L1.14325 19.1106Z" fill="#EFF1FE"/>
<path d="M59.9003 16.157C61.313 16.9626 61.313 18.2954 59.9003 19.1408L33.1681 34.6864C32.3734 35.0861 31.496 35.2943 30.6063 35.2943C29.7167 35.2943 28.8394 35.0861 28.0446 34.6864L1.18314 19.1507C-0.229571 18.3352 -0.23952 17.0024 1.18314 16.1669L27.8655 0.611367C28.6579 0.209462 29.5338 0 30.4223 0C31.3108 0 32.1868 0.209462 32.9791 0.611367L59.9003 16.157Z" fill="url(#paint0_linear_230_1748)"/>
<path d="M32.7802 67.8364L33.4367 67.4784V34.4975L32.8398 34.8257H32.7304L32.4518 34.9351H32.3424L32.1633 34.9948H32.0141L31.8151 35.0445H31.6758L31.268 35.0943H31.1386H30.8999H30.0145H29.8354H29.6762C29.61 35.0991 29.5435 35.0991 29.4773 35.0943H29.338C29.2603 35.0803 29.1838 35.0603 29.1092 35.0346C29.0662 35.0392 29.0228 35.0392 28.9798 35.0346L28.5918 34.9053L28.4128 34.8257H28.3232C28.2337 34.8257 27.7263 34.4975 27.6467 34.4478V67.4983C27.7263 67.4983 28.174 67.7967 28.2735 67.8364H28.3531L28.5222 67.9061L28.9102 68.0354H29.0097L29.2286 68.0851H29.2882C29.3206 68.0957 29.3554 68.0957 29.3877 68.0851H29.5668H29.6464H29.7359H29.905H31.1685L31.5764 68.0254H31.6957L31.8947 67.9757C31.941 67.9804 31.9877 67.9804 32.034 67.9757L32.223 67.916H32.2926L32.5712 67.8066L32.7802 67.8364Z" fill="url(#paint1_linear_230_1748)"/>
<defs>
<linearGradient id="paint0_linear_230_1748" x1="19.7773" y1="8.75315" x2="53.5992" y2="25.6687" gradientUnits="userSpaceOnUse">
<stop stop-color="#FBFCFF"/>
<stop offset="1" stop-color="#F2F5FE"/>
</linearGradient>
<linearGradient id="paint1_linear_230_1748" x1="4142.83" y1="63319.6" x2="4168.19" y2="63319.6" gradientUnits="userSpaceOnUse">
<stop stop-color="#EFF1FE"/>
<stop offset="1" stop-color="#E4E7FB"/>
</linearGradient>
</defs>
</svg>
