<svg width="43" height="98" viewBox="0 0 43 98" fill="none" xmlns="http://www.w3.org/2000/svg">
<path fill-rule="evenodd" clip-rule="evenodd" d="M35.4351 96.8499L11.149 81.2633C8.62296 79.802 6.57268 75.8941 6.57268 72.5185L4.00134 4.13443C4.00134 0.294408 8.62296 -0.600463 11.149 0.860783L37.9385 16.3341C40.4645 17.7954 42.5148 21.7034 42.5148 25.079V91.7752C42.5148 96.8952 38.0858 98.2205 35.4351 96.8499Z" fill="url(#paint0_linear_25_4064)"/>
<path fill-rule="evenodd" clip-rule="evenodd" d="M35.2181 96.7366L8.4286 81.2633C5.90257 79.802 3.85229 75.8941 3.85229 72.5185V5.07463C3.85229 1.71036 5.90257 0.158499 8.4286 1.61974L35.2181 17.0931C37.7441 18.5543 39.7944 22.4623 39.7944 25.8379V93.2818C39.7944 96.646 37.7441 98.1979 35.2181 96.7366Z" fill="url(#paint1_linear_25_4064)"/>
<path fill-rule="evenodd" clip-rule="evenodd" d="M6.43488 67.8629V8.26896C6.43488 7.06825 7.15983 6.52453 8.05471 7.04559L35.5805 22.9381C36.4754 23.4591 37.2003 24.8411 37.2003 26.0418V85.6357C37.2003 86.8364 36.4754 87.3801 35.5805 86.8591L8.05471 70.9666C7.15983 70.4455 6.43488 69.0636 6.43488 67.8629Z" fill="#EBF4FD"/>
<path fill-rule="evenodd" clip-rule="evenodd" d="M25.1818 15.0202L18.4533 11.1348C18.2381 11.0102 18.0682 10.6817 18.0682 10.3985C18.0682 10.1154 18.2381 9.99076 18.4533 10.104L25.1818 13.9894C25.3971 14.114 25.567 14.4425 25.567 14.7256C25.567 15.0202 25.3971 15.1448 25.1818 15.0202Z" fill="url(#paint2_linear_25_4064)"/>
<path fill-rule="evenodd" clip-rule="evenodd" d="M24.4003 85.1486C24.4003 86.7911 23.2449 87.4481 21.8177 86.6212C20.3904 85.7943 19.235 83.8007 19.235 82.1582C19.235 80.5157 20.3904 79.8587 21.8177 80.6856C23.2449 81.5125 24.4003 83.5175 24.4003 85.1486Z" fill="url(#paint3_linear_25_4064)"/>
<path opacity="0.1" d="M33.9494 85.2619L8.0434 70.2983C6.85401 69.6186 5.89117 67.7722 5.89117 66.1977V13.9893C5.89117 12.4035 6.85401 11.6785 8.0434 12.3695L33.9494 27.3331C35.1387 28.0128 36.1016 29.8591 36.1016 31.4337V83.6421C36.0903 85.2279 35.1274 85.9529 33.9494 85.2619Z" fill="#0C223D"/>
<path d="M28.5576 82.0562L2.65161 67.0926C1.46223 66.4129 0.49939 64.5665 0.49939 62.992V10.7836C0.49939 9.19779 1.46223 8.47283 2.65161 9.16381L28.5576 24.1274C29.747 24.8071 30.7098 26.6534 30.7098 28.228V80.4363C30.7098 82.0109 29.747 82.7358 28.5576 82.0562Z" fill="white"/>
<path fill-rule="evenodd" clip-rule="evenodd" d="M24.4683 44.0638C24.4683 46.216 22.9504 47.0769 21.0814 46.0008C19.9826 45.3665 16.1426 43.1463 14.7493 42.3534C13.8204 41.821 10.7733 40.0539 9.95777 39.5895C7.61298 38.2302 5.70996 34.9565 5.70996 32.2606C5.70996 29.5873 7.59032 28.4998 9.92379 29.8252C10.9093 28.5112 12.699 28.2846 14.7493 29.4627C17.4792 31.0372 19.7674 34.6054 20.2658 37.8563C20.5263 37.9356 20.7982 38.0489 21.0814 38.2075C22.9504 39.2949 24.4683 41.9116 24.4683 44.0638Z" fill="#CCE2F9"/>
<path fill-rule="evenodd" clip-rule="evenodd" d="M23.6867 55.2894L6.0951 45.1286C5.87987 45.004 5.70996 44.6755 5.70996 44.4037C5.70996 44.1205 5.87987 43.9959 6.0951 44.1091L23.6867 54.2699C23.9019 54.3945 24.0718 54.723 24.0718 54.9949C24.0718 55.278 23.9019 55.4026 23.6867 55.2894Z" fill="#CCE2F9"/>
<path fill-rule="evenodd" clip-rule="evenodd" d="M17.7736 51.8685L6.10633 45.1286C5.8911 45.004 5.72119 44.6755 5.72119 44.4037C5.72119 44.1205 5.8911 43.9959 6.10633 44.1091L17.7736 50.849C17.9889 50.9736 18.1588 51.3021 18.1588 51.574C18.1588 51.8571 17.9889 51.9931 17.7736 51.8685Z" fill="url(#paint4_linear_25_4064)"/>
<path d="M18.2721 41.1074L16.7202 38.4341C16.6522 38.3095 16.5503 38.2075 16.4483 38.1509C16.3464 38.0943 16.2558 38.0829 16.1765 38.1283L14.6246 39.0118C14.4773 39.0911 14.4773 39.3743 14.6246 39.6348C14.7039 39.7594 14.7945 39.8614 14.8965 39.918C14.9984 39.9746 15.089 39.986 15.1683 39.9407L16.0632 39.4309V46.4653C16.0632 46.7032 16.2331 46.9977 16.4483 47.1223C16.6636 47.2469 16.8335 47.1449 16.8335 46.9071V39.8614L17.7397 41.4246C17.8869 41.6851 18.1248 41.821 18.2834 41.7304C18.4193 41.6398 18.4193 41.3566 18.2721 41.1074Z" fill="#4B93EF"/>
<path d="M14.6247 43.5314L13.7185 44.0412V36.9955C13.7185 36.7576 13.5486 36.4631 13.3333 36.3385C13.1181 36.2139 12.9482 36.3158 12.9482 36.5537V43.5881L12.0533 42.0475C11.974 41.9229 11.8834 41.821 11.7815 41.7643C11.6795 41.7077 11.5889 41.6964 11.5096 41.7417C11.3624 41.821 11.3624 42.1042 11.5096 42.3647L13.0615 45.038C13.1294 45.1626 13.2314 45.2645 13.3333 45.3212C13.4353 45.3778 13.5259 45.3891 13.6052 45.3438L15.1571 44.4603C15.3043 44.381 15.3043 44.0978 15.1571 43.8373C15.0098 43.5881 14.7719 43.4521 14.6247 43.5314Z" fill="#4B93EF"/>
<path d="M22.2367 64.2607L6.93324 55.4253C6.60475 55.2327 6.33289 54.723 6.33289 54.2812C6.33289 53.8394 6.60475 53.6355 6.93324 53.8281L22.2367 62.6635C22.5652 62.8561 22.837 63.3659 22.837 63.8076C22.837 64.2494 22.5652 64.4533 22.2367 64.2607Z" fill="url(#paint5_linear_25_4064)"/>
<path d="M20.4469 66.5375L8.71163 59.7637C8.54172 59.6731 8.41711 59.4125 8.41711 59.186C8.41711 58.9708 8.55304 58.8688 8.71163 58.9594L20.4469 65.7333C20.6168 65.8239 20.7414 66.0844 20.7414 66.311C20.7414 66.5262 20.6055 66.6282 20.4469 66.5375Z" fill="url(#paint6_linear_25_4064)"/>
<path d="M20.4469 68.5765L8.71163 61.8027C8.54172 61.712 8.41711 61.4515 8.41711 61.225C8.41711 61.0097 8.55304 60.9078 8.71163 60.9984L20.4469 67.7723C20.6168 67.8629 20.7414 68.1234 20.7414 68.35C20.7414 68.5765 20.6055 68.6785 20.4469 68.5765Z" fill="url(#paint7_linear_25_4064)"/>
<defs>
<linearGradient id="paint0_linear_25_4064" x1="23.4818" y1="49.0779" x2="9.0004" y2="19.3913" gradientUnits="userSpaceOnUse">
<stop stop-color="#6DACEF"/>
<stop offset="1" stop-color="#97C9FE"/>
</linearGradient>
<linearGradient id="paint1_linear_25_4064" x1="18.013" y1="95.0707" x2="62.3328" y2="20.5688" gradientUnits="userSpaceOnUse">
<stop stop-color="#7AB4F4"/>
<stop offset="0.9514" stop-color="#DAEAFA"/>
<stop offset="1" stop-color="#DFEDFA"/>
</linearGradient>
<linearGradient id="paint2_linear_25_4064" x1="18.0694" y1="12.5695" x2="25.5664" y2="12.5695" gradientUnits="userSpaceOnUse">
<stop stop-color="#7AB4F4"/>
<stop offset="1" stop-color="#DFEDFA"/>
</linearGradient>
<linearGradient id="paint3_linear_25_4064" x1="19.232" y1="83.6608" x2="24.4039" y2="83.6608" gradientUnits="userSpaceOnUse">
<stop stop-color="#7AB4F4"/>
<stop offset="1" stop-color="#DFEDFA"/>
</linearGradient>
<linearGradient id="paint4_linear_25_4064" x1="5.63513" y1="46.5693" x2="16.3001" y2="52.7269" gradientUnits="userSpaceOnUse">
<stop stop-color="#3282ED"/>
<stop offset="1" stop-color="#60A2F0"/>
</linearGradient>
<linearGradient id="paint5_linear_25_4064" x1="6.20866" y1="57.0854" x2="20.4396" y2="65.3019" gradientUnits="userSpaceOnUse">
<stop stop-color="#C9CFE7"/>
<stop offset="1" stop-color="#EBF0F6"/>
</linearGradient>
<linearGradient id="paint6_linear_25_4064" x1="8.34292" y1="61.3893" x2="18.8533" y2="67.4576" gradientUnits="userSpaceOnUse">
<stop stop-color="#C9CFE7"/>
<stop offset="1" stop-color="#EBF0F6"/>
</linearGradient>
<linearGradient id="paint7_linear_25_4064" x1="8.34296" y1="63.4298" x2="18.8553" y2="69.4993" gradientUnits="userSpaceOnUse">
<stop stop-color="#C9CFE7"/>
<stop offset="1" stop-color="#EBF0F6"/>
</linearGradient>
</defs>
</svg>
