<svg width="471" height="559" viewBox="0 0 471 559" fill="none" xmlns="http://www.w3.org/2000/svg">
<path d="M248.141 482.015C248.141 484.455 247.431 531.671 237.982 550.724C235.542 555.696 232.485 558.753 228.718 558.598C215.315 558.042 184.898 501.501 172.886 469.416C170.605 463.886 168.958 458.116 167.976 452.216C167.698 449.436 167.976 447.861 169.489 447.831C172.284 447.769 175.079 447.893 177.858 448.201L178.969 448.355C212.289 452.37 244.59 478.896 247.894 481.706L248.141 482.015Z" fill="url(#paint0_linear_362_8104)"/>
<path d="M248.141 482.015C203.766 485.875 174.245 462.406 167.853 452.308C166.216 449.745 166.154 448.047 167.853 447.923C171.181 447.697 174.524 447.821 177.827 448.294L178.939 448.448C208.337 452.895 244.251 479.144 247.864 481.799L248.141 482.015Z" fill="url(#paint1_linear_362_8104)"/>
<path d="M328.369 452.37C327.184 459.243 325.183 465.951 322.409 472.35C309.779 504.774 280.659 558.228 267.597 558.815C265.867 558.707 264.2 558.126 262.779 557.135C261.357 556.143 260.236 554.78 259.537 553.194C248.667 535.531 248.142 482.17 248.142 482.17L248.42 481.954C251.755 479.143 284.149 452.494 317.53 448.572H318.457C321.245 448.264 324.051 448.14 326.856 448.201C328.184 448.047 328.647 449.622 328.369 452.37Z" fill="url(#paint2_linear_362_8104)"/>
<path d="M328.369 452.37C322.193 462.406 292.61 485.999 248.081 482.108L248.359 481.892C251.972 479.205 288.04 452.895 317.469 448.51H318.395C321.698 448.037 325.041 447.913 328.369 448.14C330.037 448.14 329.975 449.807 328.369 452.37Z" fill="url(#paint3_linear_362_8104)"/>
<path style="mix-blend-mode:multiply" opacity="0.3" d="M248.141 482.015C248.141 484.455 247.431 531.671 237.982 550.724C237.982 550.724 235.357 500.822 222.078 489.519C208.8 478.217 172.824 469.509 172.824 469.509C170.543 463.979 168.896 458.209 167.914 452.308C166.278 449.745 166.216 448.047 167.914 447.923C171.243 447.697 174.586 447.821 177.889 448.294L179 448.448C212.32 452.463 244.621 478.989 247.925 481.799L248.141 482.015Z" fill="url(#paint4_linear_362_8104)"/>
<path style="mix-blend-mode:multiply" opacity="0.3" d="M328.369 452.37C327.184 459.243 325.183 465.951 322.409 472.35C316.233 473.678 282.975 481.367 271.241 501.686C261.421 518.639 259.753 542.417 259.537 553.164C248.667 535.5 248.142 482.139 248.142 482.139L248.42 481.923C251.755 479.113 284.149 452.463 317.53 448.541H318.457C321.759 448.068 325.102 447.944 328.431 448.17C330.037 448.14 329.975 449.807 328.369 452.37Z" fill="url(#paint5_linear_362_8104)"/>
<path d="M185.176 308.591C184.125 319.043 182.131 329.379 179.216 339.472C176.492 343.299 173.554 346.969 170.416 350.465C144.327 379.921 110.743 401.755 73.2351 413.646C72.0308 414.079 70.8264 414.418 69.5912 414.789C61.5006 417.136 46.6471 392.864 54.3363 372.205C55.0649 370.185 56.007 368.25 57.1464 366.43C62.3233 359.072 68.3334 352.336 75.057 346.358C102.113 321.262 132.321 299.795 164.919 282.497C171.703 278.966 178.707 275.871 185.887 273.233C186.683 285.017 186.445 296.849 185.176 308.591Z" fill="url(#paint6_linear_362_8104)"/>
<path d="M73.2979 413.677C72.3807 414.721 71.3443 415.654 70.2099 416.456C58.1666 425.412 40.503 420.224 50.2612 382.889C50.9686 379.136 52.3161 375.532 54.2448 372.236C55.589 369.727 57.5333 367.591 59.9043 366.018C62.2752 364.445 64.9989 363.483 67.8321 363.218C84.2914 361.736 86.1442 399.132 73.2979 413.677Z" fill="url(#paint7_linear_362_8104)"/>
<path style="mix-blend-mode:multiply" opacity="0.3" d="M185.178 308.591L170.417 350.496C144.328 379.951 110.744 401.786 73.2364 413.677C72.3192 414.721 71.2828 415.654 70.1484 416.456C58.1051 425.412 40.4415 420.224 50.1997 382.889C50.9071 379.136 52.2546 375.532 54.1833 372.236C54.9118 370.216 55.8539 368.28 56.9934 366.461C62.1703 359.103 68.1804 352.367 74.904 346.389C74.2864 347.5 69.994 356.054 79.1037 359.328C88.8619 362.817 140.339 350.558 162.975 326.317C185.61 302.075 184.869 279.502 164.797 282.528C171.581 278.996 178.585 275.902 185.764 273.264C186.6 285.034 186.403 296.855 185.178 308.591Z" fill="url(#paint8_linear_362_8104)"/>
<path d="M64.5276 378.257C51.8049 375.941 13.2044 403.919 0.914062 460.275C0.914062 460.275 1.74783 464.815 13.2662 465.216C24.7846 465.618 44.3627 444.65 57.6721 432.298C70.9816 419.946 85.7424 382.117 64.5276 378.257Z" fill="url(#paint9_linear_362_8104)"/>
<path d="M13.2043 465.217C13.2043 465.217 33.2148 435.386 37.2292 427.975C37.2292 427.975 44.8258 390.919 56.7765 383.569C68.7272 376.219 72.649 384.434 75.3047 393.636C77.9604 402.838 58.2279 458.639 13.2043 465.217Z" fill="url(#paint10_linear_362_8104)"/>
<path style="mix-blend-mode:multiply" opacity="0.5" d="M36.271 433.996C36.271 433.996 41.0575 444.959 47.1409 446.688C47.1409 446.688 42.0148 410.743 51.0009 391.721C43.2545 404.659 38.2414 419.046 36.271 433.996Z" fill="url(#paint11_linear_362_8104)"/>
<path d="M56.066 385.823C56.066 385.823 68.4181 377.176 75.1809 393.636C72.8641 412.604 66.9754 430.962 57.8262 447.738C57.8262 447.738 50.1061 449.931 47.1416 446.688C40.5332 439.555 42.4786 395.272 56.066 385.823Z" fill="url(#paint12_linear_362_8104)"/>
<path d="M329.943 422.601C324.045 457.311 292.887 480.471 248.389 480.471C209.603 480.471 176.746 466.019 168.1 434.151C159.453 402.282 162.757 343.486 174.276 306.831C175.946 301.437 178.01 296.173 180.452 291.082C182.594 286.611 185.05 282.298 187.801 278.174C201.944 256.867 222.665 242.94 246.072 242.94C256.634 242.679 267.121 244.778 276.769 249.084C286.417 253.39 294.983 259.794 301.842 267.829C307.726 274.761 312.402 282.632 315.677 291.113C319.582 301.097 322.781 311.344 325.25 321.777C325.238 321.88 325.238 321.983 325.25 322.086C333.346 354.966 334.941 389.11 329.943 422.601Z" fill="url(#paint13_linear_362_8104)"/>
<path style="mix-blend-mode:multiply" opacity="0.3" d="M329.943 422.601C324.045 457.311 292.887 480.471 248.389 480.471C209.603 480.471 176.746 466.019 168.1 434.151C159.453 402.282 162.757 343.486 174.276 306.831C175.946 301.437 178.01 296.173 180.452 291.082C180.452 291.082 156.983 368.9 175.758 418.463C194.533 468.026 281.925 466.976 311.631 433.904C339.794 402.591 326.794 328.91 325.466 321.901C333.514 354.854 335.036 389.064 329.943 422.601Z" fill="url(#paint14_linear_362_8104)"/>
<path d="M169.736 402.004C176.375 355.406 213.741 323.815 255.275 327.737C300.02 331.968 324.076 374.675 323.428 411.33C322.779 447.985 296.006 476.611 247.987 476.611C199.968 476.611 163.56 445.453 169.736 402.004Z" fill="url(#paint15_linear_362_8104)"/>
<path d="M170.139 405.864C176.778 359.266 214.174 327.675 255.677 331.597C300.454 335.828 324.51 378.535 323.861 415.19C323.213 451.845 296.408 480.471 248.39 480.471C200.371 480.471 163.932 449.436 170.139 405.864Z" fill="url(#paint16_radial_362_8104)"/>
<path style="mix-blend-mode:multiply" opacity="0.5" d="M301.998 267.706C292.487 282.59 240.237 291.267 210.036 288.488C183.726 286.11 187.71 279.008 187.926 278.112C202.069 256.805 222.79 242.878 246.197 242.878C256.759 242.605 267.249 244.693 276.902 248.988C286.556 253.283 295.129 259.677 301.998 267.706Z" fill="url(#paint17_linear_362_8104)"/>
<path d="M283.407 293.522C280.999 294.325 280.875 313.903 283.407 317.053C285.939 320.202 290.047 319.245 291.405 314.644C292.764 310.043 287.082 292.287 283.407 293.522Z" fill="white"/>
<path d="M287.915 322.271C285.877 322.765 285.63 327.614 286.587 329.312C286.926 329.68 287.349 329.96 287.82 330.128C288.291 330.296 288.795 330.348 289.291 330.278C289.786 330.208 290.256 330.019 290.662 329.727C291.068 329.435 291.397 329.049 291.621 328.602C292.177 326.533 289.953 321.932 287.915 322.271Z" fill="white"/>
<path style="mix-blend-mode:screen" opacity="0.72" d="M196.448 453.328C196.448 453.328 207.163 471.856 247.122 472.134C287.082 472.412 303.294 448.541 303.294 448.541C296.522 452.273 289.077 454.621 281.389 455.448C273.702 456.275 265.927 455.565 258.517 453.359C232.145 446.102 206.082 442.056 196.448 453.328Z" fill="url(#paint18_linear_362_8104)"/>
<path style="mix-blend-mode:screen" opacity="0.72" d="M186.01 376.281C193.915 388.88 226.371 382.179 262.964 385.73C299.557 389.282 305.795 401.171 313.515 398.793C321.235 396.415 309.037 341.324 254.379 337.588C199.721 333.851 184.065 373.162 186.01 376.281Z" fill="url(#paint19_linear_362_8104)"/>
<path d="M304.868 271.288C303.141 269.148 301.05 267.33 298.692 265.915C298.692 265.915 308.697 316.62 328.677 337.372C328.677 337.372 319.969 289.538 304.868 271.288Z" fill="url(#paint20_linear_362_8104)"/>
<path d="M327.011 32.799C327.011 32.799 346.311 16.2162 369.966 13.1282C369.966 13.1282 377.192 16.6485 385.406 42.7115C393.62 68.7746 378.334 120.19 378.334 120.19L327.011 32.799Z" fill="url(#paint21_linear_362_8104)"/>
<path d="M369.964 13.1281C357.512 28.1737 350.736 47.1134 350.819 66.6438L358.23 71.3067L379.846 26.7155C379.846 26.7155 372.62 12.8502 369.964 13.1281Z" fill="url(#paint22_linear_362_8104)"/>
<path d="M357.52 69.2067C357.52 69.2067 352.424 40.9203 370.983 20.2305C370.983 20.2305 391.982 30.1122 400.659 66.7671C409.337 103.422 386.732 125.44 386.732 125.44L357.52 69.2067Z" fill="url(#paint23_linear_362_8104)"/>
<path d="M346.711 21.4657C343.16 23.3803 343.438 27.2404 350.819 26.2522C358.199 25.264 362.244 19.5203 361.441 18.3777C360.639 17.2351 350.726 19.3041 346.711 21.4657Z" fill="white"/>
<path d="M164.951 36.9679C164.951 36.9679 145.65 20.3234 121.996 17.4207C121.996 17.4207 114.77 20.941 106.402 47.004C98.033 73.067 113.473 124.483 113.473 124.483L164.951 36.9679Z" fill="url(#paint24_linear_362_8104)"/>
<path d="M121.995 17.4208C134.455 32.4745 141.231 51.4264 141.141 70.9673L133.73 75.6302L112.113 31.0391C112.113 31.0391 119.339 17.0194 121.995 17.4208Z" fill="url(#paint25_linear_362_8104)"/>
<path d="M134.44 73.3758C134.44 73.3758 139.535 45.1511 120.945 24.3995C120.945 24.3995 99.9772 34.3121 91.2999 70.9671C88.8319 81.6987 89.0304 92.8715 91.8781 103.509C94.7258 114.146 100.136 123.923 107.636 131.987L134.44 73.3758Z" fill="url(#paint26_linear_362_8104)"/>
<path d="M145.218 25.6348C148.8 27.5494 148.522 31.4094 141.142 30.4522C133.761 29.4949 129.716 23.6893 130.519 22.5777C131.322 21.466 141.235 23.4732 145.218 25.6348Z" fill="white"/>
<path d="M110.693 215.456C140.276 283.702 361.719 262.425 388.184 206.192C417.119 144.864 350.571 -6.66615 244.467 0.405447C154.821 6.51975 72.6483 127.694 110.693 215.456Z" fill="url(#paint27_linear_362_8104)"/>
<path d="M122.923 205.821C151.209 261.807 344.489 252.543 372.745 201.097C396.708 157.37 340.074 24.3068 243.047 29.0624C146.021 33.8179 95.6247 152.09 122.923 205.821Z" fill="url(#paint28_linear_362_8104)"/>
<path d="M275.718 13.1283C273.711 15.537 297.334 25.7584 300.422 24.307C303.51 22.8556 282.481 5.1612 275.718 13.1283Z" fill="white"/>
<path style="mix-blend-mode:screen" opacity="0.5" d="M156.984 85.1101C154.76 98.4504 180.02 96.9372 220.443 95.6094C268.987 94.0036 317.778 135.754 346.157 105.8C350.85 100.859 304.375 35.9486 248.266 37.4C192.156 38.8513 158.929 73.5608 156.984 85.1101Z" fill="url(#paint29_linear_362_8104)"/>
<path style="mix-blend-mode:screen" opacity="0.5" d="M182.088 224.257C179.525 233.923 199.752 243.588 249.469 241.149C309.562 238.061 322.316 225.708 319.382 222.126C317.591 220.026 299.588 231.39 250.241 220.551C217.539 213.418 184.713 214.097 182.088 224.257Z" fill="url(#paint30_linear_362_8104)"/>
<path style="mix-blend-mode:screen" opacity="0.2" d="M128.295 194.211C127.047 183.286 127.171 172.248 128.665 161.354C131.136 142.548 136.2 130.474 139.196 132.079C142.191 133.685 141.759 152.213 143.519 170.371C144.909 184.483 147.626 197.731 147.626 197.731C147.626 197.731 134.625 210.237 128.295 194.211Z" fill="url(#paint31_linear_362_8104)"/>
<path style="mix-blend-mode:multiply" opacity="0.5" d="M132.464 238.555C132.464 238.555 135.552 235.312 151.486 225.894C162.232 219.563 173.534 212.09 175.14 209.342C177.518 202.888 129.098 206.717 129.098 206.717L110.569 215.549C115.783 224.961 123.32 232.882 132.464 238.555Z" fill="url(#paint32_linear_362_8104)"/>
<path d="M95.4381 95.7023C95.4381 95.7023 107.79 103.762 99.7614 122.383C99.7614 122.383 41.3975 154.159 44.7635 188.776C47.6045 217.68 128.14 203.691 128.14 203.691L131.012 213.326C131.012 213.326 62.5197 226.728 38.8962 210.639C38.8962 210.639 30.8673 191.555 50.7852 157.123C63.6986 135.287 78.6495 114.721 95.4381 95.7023Z" fill="url(#paint33_linear_362_8104)"/>
<path d="M118.011 201.004C110.662 209.311 126.256 218.421 139.072 219.81C153.462 221.385 179 215.673 177.456 201.282C175.912 186.892 135.243 181.519 118.011 201.004Z" fill="url(#paint34_linear_362_8104)"/>
<path d="M119 202.548C118.537 204.895 169.891 205.482 171.095 196.372C172.299 187.262 122.366 184.205 119 202.548Z" fill="url(#paint35_linear_362_8104)"/>
<path style="mix-blend-mode:screen" opacity="0.72" d="M388.029 36.7827C388.029 36.7827 381.235 28.3523 371.94 30.6066C362.645 32.8609 362.059 62.0428 367.617 62.7839C373.176 63.525 375.523 46.6026 379.753 43.9469C383.43 42.3354 387.482 41.7793 391.457 42.3411L388.029 36.7827Z" fill="url(#paint36_linear_362_8104)"/>
<path style="mix-blend-mode:multiply" opacity="0.5" d="M303.294 251.154C303.294 251.154 271.642 219.162 261.42 187.17L340.783 239.419C340.783 239.419 313.793 248.899 303.294 251.154Z" fill="url(#paint37_linear_362_8104)"/>
<path style="mix-blend-mode:screen" opacity="0.72" d="M99.083 49.2579C100.643 47.8808 102.519 46.9096 104.544 46.4302C106.57 45.9509 108.682 45.9781 110.694 46.5096C118.723 47.8066 123.355 64.3275 127.462 62.66C131.569 60.9925 128.574 34.281 117.704 26.4065C117.704 26.4065 103.684 38.388 99.083 49.2579Z" fill="url(#paint38_linear_362_8104)"/>
<path d="M84.2606 114.446C84.2606 114.446 56.4683 146.871 58.1049 149.125C59.7416 151.379 86.0208 117.72 84.2606 114.446Z" fill="url(#paint39_linear_362_8104)"/>
<path d="M158.866 125.44C175.866 123.385 193.104 124.686 209.603 129.269C213.308 130.381 201.79 116.917 184.219 114.447C166.648 111.976 157.724 119.357 158.866 125.44Z" fill="url(#paint40_radial_362_8104)"/>
<path d="M220.319 179.882C224.704 166.603 241.379 167.19 244.776 179.11C248.42 191.771 233.783 206.347 227.144 204.03C220.504 201.714 217.077 189.702 220.319 179.882Z" fill="#2F95CD"/>
<path d="M264.199 163.423C248.543 119.943 289.707 64.1424 353.011 57.0708C353.011 57.0708 413.043 95.7021 399.146 202.394C399.146 202.394 304.776 276.043 264.199 163.423Z" fill="url(#paint41_linear_362_8104)"/>
<path d="M353.012 57.0708C353.012 57.0708 374.412 57.2561 399.579 78.1929C424.747 99.1298 436.636 160.551 399.147 202.394C399.147 202.394 415.915 116.67 353.012 57.0708Z" fill="url(#paint42_linear_362_8104)"/>
<path d="M300.638 149.218C302.46 169.074 361.534 167.19 371.076 149.218C378.734 134.797 356.501 87.7353 332.97 91.1013C309.439 94.4672 298.075 121.21 300.638 149.218Z" fill="url(#paint43_radial_362_8104)"/>
<path d="M344.488 57.8737C326.422 57.8737 308.762 63.2309 293.74 73.2679C278.719 83.3049 267.011 97.5709 260.097 114.262C253.184 130.953 251.375 149.319 254.899 167.038C258.424 184.757 267.123 201.033 279.898 213.808C292.673 226.582 308.949 235.282 326.668 238.807C344.387 242.331 362.753 240.522 379.444 233.609C396.135 226.695 410.401 214.987 420.438 199.966C430.475 184.944 435.832 167.284 435.832 149.218C435.832 124.992 426.209 101.758 409.078 84.6277C391.948 67.4974 368.714 57.8737 344.488 57.8737ZM344.488 225.276C329.445 225.276 314.74 220.815 302.232 212.458C289.725 204.1 279.976 192.222 274.219 178.324C268.463 164.426 266.957 149.133 269.891 134.379C272.826 119.626 280.07 106.073 290.707 95.4364C301.344 84.7994 314.896 77.5556 329.65 74.6209C344.404 71.6862 359.697 73.1924 373.594 78.949C387.492 84.7057 399.371 94.4543 407.728 106.962C416.086 119.47 420.546 134.175 420.546 149.218C420.546 169.39 412.533 188.735 398.269 202.999C384.006 217.263 364.66 225.276 344.488 225.276Z" fill="#E99457"/>
<path d="M344.488 51.5127C326.421 51.5127 308.759 56.8707 293.737 66.9091C278.715 76.9475 267.007 91.2153 260.094 107.908C253.182 124.601 251.374 142.969 254.901 160.688C258.429 178.408 267.131 194.684 279.909 207.458C292.687 220.231 308.966 228.928 326.687 232.449C344.408 235.97 362.775 234.157 379.465 227.239C396.156 220.32 410.42 208.608 420.453 193.582C430.486 178.557 435.838 160.893 435.832 142.826C435.832 130.832 433.469 118.955 428.878 107.875C424.288 96.7941 417.559 86.7264 409.076 78.2468C400.594 69.7672 390.524 63.0417 379.442 58.4546C368.36 53.8675 356.482 51.5086 344.488 51.5127ZM344.488 218.884C329.445 218.884 314.74 214.423 302.232 206.066C289.725 197.709 279.976 185.83 274.219 171.932C268.463 158.034 266.957 142.741 269.891 127.988C272.826 113.234 280.07 99.6815 290.707 89.0445C301.344 78.4076 314.896 71.1638 329.65 68.229C344.404 65.2943 359.697 66.8005 373.594 72.5572C387.492 78.3139 399.371 88.0624 407.728 100.57C416.086 113.078 420.546 127.783 420.546 142.826C420.546 162.998 412.533 182.344 398.269 196.607C384.006 210.871 364.66 218.884 344.488 218.884Z" fill="url(#paint44_linear_362_8104)"/>
<path d="M446.178 284.535C446.178 284.535 426.415 321.932 401.34 334.284C376.265 346.636 337.943 331.752 325.56 321.932C308.668 308.499 302.461 262.178 309.594 262.178C316.048 262.178 322.379 267.088 342.883 269.682C349.505 270.499 356.162 270.983 362.832 271.133C378.87 271.299 394.815 268.676 409.955 263.382C414.427 261.897 418.809 260.154 423.08 258.164C437.933 258.102 446.178 284.535 446.178 284.535Z" fill="url(#paint45_linear_362_8104)"/>
<path d="M420.547 259.77C420.547 259.77 418.725 287.253 429.286 291.02C439.847 294.788 446.178 284.536 446.178 284.536L451.427 273.357L420.547 259.77Z" fill="url(#paint46_linear_362_8104)"/>
<path d="M388.03 226.419C388.03 226.419 425.704 267.767 451.458 284.535C451.458 284.535 467.454 282.621 470.573 266.81L415.575 203.289L388.03 226.419Z" fill="url(#paint47_linear_362_8104)"/>
<path style="mix-blend-mode:multiply" opacity="0.5" d="M455.348 249.208C455.348 249.208 420.114 222.219 413.691 220.026C410.487 224.293 408.014 229.062 406.372 234.139C404.149 241.735 444.262 279.409 444.262 279.409C444.262 279.409 406.959 249.177 389.913 228.426C399.695 221.526 408.925 213.875 417.52 205.543L455.348 249.208Z" fill="url(#paint48_linear_362_8104)"/>
<path d="M409.584 249.332C409.09 251.524 393.711 255.786 389.512 247.664C389.103 246.878 388.752 246.062 388.462 245.225C387.397 242.746 387.231 239.974 387.992 237.386C388.753 234.799 390.394 232.558 392.631 231.051L392.847 231.267C395.163 233.336 410.016 247.294 409.584 249.332Z" fill="url(#paint49_linear_362_8104)"/>
<path d="M455.349 249.209L447.845 240.562C447.845 240.562 422.616 228.025 417.521 205.575C417.521 205.575 423.388 193.593 435.864 193.223C440.836 193.068 445.313 199.615 448.741 208.447C453.836 221.787 456.924 240.439 455.349 249.209Z" fill="url(#paint50_linear_362_8104)"/>
<path style="mix-blend-mode:multiply" opacity="0.3" d="M446.178 284.535C446.178 284.535 426.415 321.931 401.34 334.284C376.265 346.636 337.943 331.751 325.56 321.931C308.668 308.499 302.461 262.178 309.594 262.178C316.048 262.178 322.379 267.088 342.883 269.682C341.617 269.682 324.139 268.385 321.051 273.326C317.963 278.267 353.012 329.96 388.03 315.755C423.049 301.55 415.823 263.66 409.986 263.537C414.458 262.051 418.84 260.308 423.11 258.318C437.933 258.102 446.178 284.535 446.178 284.535Z" fill="url(#paint51_linear_362_8104)"/>
<path style="mix-blend-mode:multiply" opacity="0.3" d="M409.585 249.332C409.09 251.524 393.712 255.786 389.512 247.664C389.103 246.878 388.752 246.063 388.462 245.225C391.828 249.455 397.047 248.714 398.622 244.051C400.197 239.388 394.237 232.78 392.909 231.329C395.163 233.336 410.017 247.294 409.585 249.332Z" fill="url(#paint52_linear_362_8104)"/>
<path style="mix-blend-mode:multiply" opacity="0.3" d="M455.349 249.208L447.845 240.562C447.845 240.562 422.616 228.024 417.521 205.574C418.139 206.779 430.275 225.646 443.244 227.376C452.786 228.673 449.019 209.65 448.71 208.384C453.836 221.786 456.924 240.438 455.349 249.208Z" fill="url(#paint53_linear_362_8104)"/>
<path d="M51.0017 405.865C48.1169 410.601 46.9096 416.17 47.574 421.675C50.5878 416.992 51.8053 411.376 51.0017 405.865Z" fill="white"/>
<path d="M17.28 446.317C18.108 441.546 20.6031 437.223 24.3208 434.12C24.3208 434.12 21.5106 444.465 17.28 446.317Z" fill="white"/>
<path d="M93.9256 339.07C92.9683 337.434 111.651 319.523 116.993 318.905C122.336 318.288 115.171 320.758 110.817 327.397C106.463 334.037 95.624 342.035 93.9256 339.07Z" fill="white"/>
<path d="M122.027 315.045C120.082 312.822 130.488 308.869 130.488 308.869C130.488 308.869 124.065 317.392 122.027 315.045Z" fill="white"/>
<path d="M344.488 282.467C343.778 286.759 365.611 286.759 365.24 282.467C364.869 278.174 345.23 278.174 344.488 282.467Z" fill="white"/>
<path d="M201.173 503.508C198.27 504.836 203.643 519.566 207.658 519.257C211.672 518.948 204.57 501.902 201.173 503.508Z" fill="white"/>
<path style="mix-blend-mode:screen" opacity="0.5" d="M344.458 218.853C386.412 218.853 420.423 186.059 420.423 145.605C420.423 105.151 386.412 72.3569 344.458 72.3569C302.503 72.3569 268.492 105.151 268.492 145.605C268.492 186.059 302.503 218.853 344.458 218.853Z" fill="url(#paint54_radial_362_8104)"/>
<path style="mix-blend-mode:screen" opacity="0.5" d="M277.139 127.54C277.787 141.065 299.712 146.068 342.389 124.884C376.357 108.178 408.905 127.231 411.715 122.043C414.525 116.855 379.013 73.746 340.505 78.5942C301.997 83.4425 276.552 115.496 277.139 127.54Z" fill="url(#paint55_linear_362_8104)"/>
<defs>
<linearGradient id="paint0_linear_362_8104" x1="10291.2" y1="27859.2" x2="10918.6" y2="24236.2" gradientUnits="userSpaceOnUse">
<stop stop-color="#CBC1F7"/>
<stop offset="1" stop-color="#E8DCF7"/>
</linearGradient>
<linearGradient id="paint1_linear_362_8104" x1="10701.5" y1="8203.38" x2="10701.5" y2="7814.87" gradientUnits="userSpaceOnUse">
<stop stop-color="#BE9DEA"/>
<stop offset="1" stop-color="#9E8CEF"/>
</linearGradient>
<linearGradient id="paint2_linear_362_8104" x1="12422.3" y1="28004.6" x2="13134.7" y2="23890.3" gradientUnits="userSpaceOnUse">
<stop stop-color="#CBC1F7"/>
<stop offset="1" stop-color="#E8DCF7"/>
</linearGradient>
<linearGradient id="paint3_linear_362_8104" x1="12930.4" y1="8178.04" x2="12930.4" y2="7790.86" gradientUnits="userSpaceOnUse">
<stop stop-color="#BE9DEA"/>
<stop offset="1" stop-color="#9E8CEF"/>
</linearGradient>
<linearGradient id="paint4_linear_362_8104" x1="10693.6" y1="25776.1" x2="10693.6" y2="22343" gradientUnits="userSpaceOnUse">
<stop stop-color="#9D68C2"/>
<stop offset="1" stop-color="#CCEDFF"/>
</linearGradient>
<linearGradient id="paint5_linear_362_8104" x1="12922.1" y1="26395.9" x2="12922.1" y2="22813" gradientUnits="userSpaceOnUse">
<stop stop-color="#9D68C2"/>
<stop offset="1" stop-color="#CCEDFF"/>
</linearGradient>
<linearGradient id="paint6_linear_362_8104" x1="13125.5" y1="29154.4" x2="14061" y2="22101.3" gradientUnits="userSpaceOnUse">
<stop stop-color="#CBC1F7"/>
<stop offset="1" stop-color="#E8DCF7"/>
</linearGradient>
<linearGradient id="paint7_linear_362_8104" x1="2892.79" y1="11999.8" x2="2892.79" y2="10944.2" gradientUnits="userSpaceOnUse">
<stop stop-color="#BE9DEA"/>
<stop offset="1" stop-color="#9E8CEF"/>
</linearGradient>
<linearGradient id="paint8_linear_362_8104" x1="13926.4" y1="30237.4" x2="13926.4" y2="23244.7" gradientUnits="userSpaceOnUse">
<stop stop-color="#9D68C2"/>
<stop offset="1" stop-color="#CCEDFF"/>
</linearGradient>
<linearGradient id="paint9_linear_362_8104" x1="5402.94" y1="19474.3" x2="5783.66" y2="16892.1" gradientUnits="userSpaceOnUse">
<stop stop-color="#CBC1F7"/>
<stop offset="1" stop-color="#E8DCF7"/>
</linearGradient>
<linearGradient id="paint10_linear_362_8104" x1="4774.43" y1="18832" x2="4774.43" y2="16522.2" gradientUnits="userSpaceOnUse">
<stop stop-color="#BE9DEA"/>
<stop offset="1" stop-color="#9E8CEF"/>
</linearGradient>
<linearGradient id="paint11_linear_362_8104" x1="1158.1" y1="12066.7" x2="1158.1" y2="11088.3" gradientUnits="userSpaceOnUse">
<stop stop-color="#8DA4E5"/>
<stop offset="1" stop-color="#755CBB"/>
</linearGradient>
<linearGradient id="paint12_linear_362_8104" x1="2566.38" y1="14213.8" x2="2903.16" y2="12903.9" gradientUnits="userSpaceOnUse">
<stop stop-color="#CBC1F7"/>
<stop offset="1" stop-color="#E8DCF7"/>
</linearGradient>
<linearGradient id="paint13_linear_362_8104" x1="23644.4" y1="53267.2" x2="26785.4" y2="35418.2" gradientUnits="userSpaceOnUse">
<stop stop-color="#CBC1F7"/>
<stop offset="1" stop-color="#E8DCF7"/>
</linearGradient>
<linearGradient id="paint14_linear_362_8104" x1="24318.2" y1="42589.3" x2="24318.2" y2="30970.2" gradientUnits="userSpaceOnUse">
<stop stop-color="#9D68C2"/>
<stop offset="1" stop-color="#CCEDFF"/>
</linearGradient>
<linearGradient id="paint15_linear_362_8104" x1="22058.2" y1="33463.8" x2="22058.2" y2="26254.3" gradientUnits="userSpaceOnUse">
<stop stop-color="#BE9DEA"/>
<stop offset="1" stop-color="#9E8CEF"/>
</linearGradient>
<radialGradient id="paint16_radial_362_8104" cx="0" cy="0" r="1" gradientUnits="userSpaceOnUse" gradientTransform="translate(22212.1 32535.1) scale(5693.66 5501.09)">
<stop stop-color="#45FFCD"/>
<stop offset="1" stop-color="#22E0FF"/>
</radialGradient>
<linearGradient id="paint17_linear_362_8104" x1="16353.5" y1="7688.59" x2="16353.5" y2="6998.2" gradientUnits="userSpaceOnUse">
<stop stop-color="#8DA4E5"/>
<stop offset="1" stop-color="#755CBB"/>
</linearGradient>
<linearGradient id="paint18_linear_362_8104" x1="15470.1" y1="6143.97" x2="15470.1" y2="5928.09" gradientUnits="userSpaceOnUse">
<stop stop-color="#D4E2FF"/>
<stop offset="1"/>
</linearGradient>
<linearGradient id="paint19_linear_362_8104" x1="16045.7" y1="11887.1" x2="21498.5" y2="11887.1" gradientUnits="userSpaceOnUse">
<stop/>
<stop offset="1" stop-color="#D4E2FF"/>
</linearGradient>
<linearGradient id="paint20_linear_362_8104" x1="5057.59" y1="12086.3" x2="5350.24" y2="12086.3" gradientUnits="userSpaceOnUse">
<stop stop-color="#8879EA"/>
<stop offset="1" stop-color="#9E8CEF"/>
</linearGradient>
<linearGradient id="paint21_linear_362_8104" x1="11141.4" y1="11437.7" x2="11141.4" y2="7725.88" gradientUnits="userSpaceOnUse">
<stop stop-color="#B9ACF4"/>
<stop offset="1" stop-color="#E1D1F5"/>
</linearGradient>
<linearGradient id="paint22_linear_362_8104" x1="5585.48" y1="5300.77" x2="5585.48" y2="4204.02" gradientUnits="userSpaceOnUse">
<stop stop-color="#BE9DEA"/>
<stop offset="1" stop-color="#9E8CEF"/>
</linearGradient>
<linearGradient id="paint23_linear_362_8104" x1="8823.58" y1="11421.8" x2="8823.58" y2="7837.28" gradientUnits="userSpaceOnUse">
<stop stop-color="#45FFCD"/>
<stop offset="1" stop-color="#22E0FF"/>
</linearGradient>
<linearGradient id="paint24_linear_362_8104" x1="-55839.8" y1="11586.6" x2="-55839.8" y2="7874.71" gradientUnits="userSpaceOnUse">
<stop stop-color="#B9ACF4"/>
<stop offset="1" stop-color="#E1D1F5"/>
</linearGradient>
<linearGradient id="paint25_linear_362_8104" x1="-25167.2" y1="5387.43" x2="-25167.2" y2="4290.02" gradientUnits="userSpaceOnUse">
<stop stop-color="#BE9DEA"/>
<stop offset="1" stop-color="#9E8CEF"/>
</linearGradient>
<linearGradient id="paint26_linear_362_8104" x1="-41218.7" y1="11911.7" x2="-41218.7" y2="8163.36" gradientUnits="userSpaceOnUse">
<stop stop-color="#45FFCD"/>
<stop offset="1" stop-color="#22E0FF"/>
</linearGradient>
<linearGradient id="paint27_linear_362_8104" x1="40817.5" y1="39349.4" x2="43223.5" y2="17543.4" gradientUnits="userSpaceOnUse">
<stop stop-color="#CBC1F7"/>
<stop offset="1" stop-color="#E8DCF7"/>
</linearGradient>
<linearGradient id="paint28_linear_362_8104" x1="37413.1" y1="31572.7" x2="37413.1" y2="16608.1" gradientUnits="userSpaceOnUse">
<stop stop-color="#0665BD"/>
<stop offset="1" stop-color="#1A1F77"/>
</linearGradient>
<linearGradient id="paint29_linear_362_8104" x1="21553.5" y1="7385.12" x2="33199" y2="7385.12" gradientUnits="userSpaceOnUse">
<stop/>
<stop offset="1" stop-color="#6A9BFF"/>
</linearGradient>
<linearGradient id="paint30_linear_362_8104" x1="16855.1" y1="3862.35" x2="23010.8" y2="3862.35" gradientUnits="userSpaceOnUse">
<stop/>
<stop offset="1" stop-color="#6A9BFF"/>
</linearGradient>
<linearGradient id="paint31_linear_362_8104" x1="2230.65" y1="9608.96" x2="2230.65" y2="8005.04" gradientUnits="userSpaceOnUse">
<stop/>
<stop offset="1" stop-color="#00E3FF"/>
</linearGradient>
<linearGradient id="paint32_linear_362_8104" x1="7114.71" y1="4984.57" x2="7114.71" y2="4632.83" gradientUnits="userSpaceOnUse">
<stop stop-color="#8DA4E5"/>
<stop offset="1" stop-color="#755CBB"/>
</linearGradient>
<linearGradient id="paint33_linear_362_8104" x1="8348.94" y1="17181.4" x2="9153.32" y2="12293.4" gradientUnits="userSpaceOnUse">
<stop stop-color="#BE9DEA"/>
<stop offset="1" stop-color="#9E8CEF"/>
</linearGradient>
<linearGradient id="paint34_linear_362_8104" x1="5173.17" y1="6058.56" x2="5255.95" y2="5709.44" gradientUnits="userSpaceOnUse">
<stop stop-color="#DD1A8F"/>
<stop offset="1" stop-color="#FE117E"/>
</linearGradient>
<linearGradient id="paint35_linear_362_8104" x1="5800.56" y1="2182.62" x2="5800.56" y2="2110.97" gradientUnits="userSpaceOnUse">
<stop stop-color="#D93DE3"/>
<stop offset="1" stop-color="#FF6DBA"/>
</linearGradient>
<linearGradient id="paint36_linear_362_8104" x1="5294.44" y1="2728.51" x2="5537.49" y2="2728.51" gradientUnits="userSpaceOnUse">
<stop/>
<stop offset="1" stop-color="#D4E2FF"/>
</linearGradient>
<linearGradient id="paint37_linear_362_8104" x1="12922.9" y1="9725.91" x2="12922.9" y2="8400.16" gradientUnits="userSpaceOnUse">
<stop stop-color="#8DA4E5"/>
<stop offset="1" stop-color="#755CBB"/>
</linearGradient>
<linearGradient id="paint38_linear_362_8104" x1="2936.05" y1="3015.79" x2="3230.54" y2="3015.79" gradientUnits="userSpaceOnUse">
<stop stop-color="#D4E2FF"/>
<stop offset="1"/>
</linearGradient>
<linearGradient id="paint39_linear_362_8104" x1="2296.73" y1="4152.16" x2="2296.73" y2="3760.46" gradientUnits="userSpaceOnUse">
<stop stop-color="#CBC1F7"/>
<stop offset="1" stop-color="#E8DCF7"/>
</linearGradient>
<radialGradient id="paint40_radial_362_8104" cx="0" cy="0" r="1" gradientUnits="userSpaceOnUse" gradientTransform="translate(6448.78 1787.9) scale(608.03 181.449)">
<stop stop-color="#45FFCD"/>
<stop offset="1" stop-color="#22E0FF"/>
</radialGradient>
<linearGradient id="paint41_linear_362_8104" x1="24016.6" y1="23874.3" x2="24016.6" y2="14627.9" gradientUnits="userSpaceOnUse">
<stop stop-color="#0665BD"/>
<stop offset="1" stop-color="#1A1F77"/>
</linearGradient>
<linearGradient id="paint42_linear_362_8104" x1="13218.8" y1="19289.1" x2="14822" y2="13135" gradientUnits="userSpaceOnUse">
<stop stop-color="#CBC1F7"/>
<stop offset="1" stop-color="#E8DCF7"/>
</linearGradient>
<radialGradient id="paint43_radial_362_8104" cx="0" cy="0" r="1" gradientUnits="userSpaceOnUse" gradientTransform="translate(12696.4 8572.89) scale(1253.5 1256.13)">
<stop stop-color="#45FFCD"/>
<stop offset="1" stop-color="#22E0FF"/>
</radialGradient>
<linearGradient id="paint44_linear_362_8104" x1="30727.4" y1="26139.4" x2="33204.6" y2="15618.4" gradientUnits="userSpaceOnUse">
<stop stop-color="#FFBC3A"/>
<stop offset="1" stop-color="#FFC34E"/>
</linearGradient>
<linearGradient id="paint45_linear_362_8104" x1="25611.5" y1="14587.2" x2="25776.6" y2="12319.1" gradientUnits="userSpaceOnUse">
<stop stop-color="#CBC1F7"/>
<stop offset="1" stop-color="#E8DCF7"/>
</linearGradient>
<linearGradient id="paint46_linear_362_8104" x1="6719.67" y1="5465.51" x2="6719.67" y2="5132.17" gradientUnits="userSpaceOnUse">
<stop stop-color="#BE9DEA"/>
<stop offset="1" stop-color="#9E8CEF"/>
</linearGradient>
<linearGradient id="paint47_linear_362_8104" x1="426.723" y1="282.775" x2="432.281" y2="204.463" gradientUnits="userSpaceOnUse">
<stop stop-color="#EB7C16"/>
<stop offset="1" stop-color="#FFC34E"/>
</linearGradient>
<linearGradient id="paint48_linear_362_8104" x1="13404.4" y1="11894.1" x2="13404.4" y2="10127.2" gradientUnits="userSpaceOnUse">
<stop stop-color="#8DA4E5"/>
<stop offset="1" stop-color="#755CBB"/>
</linearGradient>
<linearGradient id="paint49_linear_362_8104" x1="4598.78" y1="3425.69" x2="4615.98" y2="3284.7" gradientUnits="userSpaceOnUse">
<stop stop-color="#CBC1F7"/>
<stop offset="1" stop-color="#E8DCF7"/>
</linearGradient>
<linearGradient id="paint50_linear_362_8104" x1="8164.42" y1="8456.03" x2="8337.58" y2="7514.8" gradientUnits="userSpaceOnUse">
<stop stop-color="#CBC1F7"/>
<stop offset="1" stop-color="#E8DCF7"/>
</linearGradient>
<linearGradient id="paint51_linear_362_8104" x1="25961.7" y1="14578" x2="25961.7" y2="12465.7" gradientUnits="userSpaceOnUse">
<stop stop-color="#9D68C2"/>
<stop offset="1" stop-color="#CCEDFF"/>
</linearGradient>
<linearGradient id="paint52_linear_362_8104" x1="4429.84" y1="3384.85" x2="4429.84" y2="3240.77" gradientUnits="userSpaceOnUse">
<stop stop-color="#9D68C2"/>
<stop offset="1" stop-color="#CCEDFF"/>
</linearGradient>
<linearGradient id="paint53_linear_362_8104" x1="8196.5" y1="6683.03" x2="8196.5" y2="6066.48" gradientUnits="userSpaceOnUse">
<stop stop-color="#9D68C2"/>
<stop offset="1" stop-color="#CCEDFF"/>
</linearGradient>
<radialGradient id="paint54_radial_362_8104" cx="0" cy="0" r="1" gradientUnits="userSpaceOnUse" gradientTransform="translate(344.768 144.467) scale(76.0045 73.024)">
<stop/>
<stop offset="0.23" stop-color="#010303"/>
<stop offset="0.37" stop-color="#050B0B"/>
<stop offset="0.48" stop-color="#0B1919"/>
<stop offset="0.58" stop-color="#132D2D"/>
<stop offset="0.67" stop-color="#1F4848"/>
<stop offset="0.75" stop-color="#2C6868"/>
<stop offset="0.83" stop-color="#3D8E8E"/>
<stop offset="0.91" stop-color="#50BABA"/>
<stop offset="0.97" stop-color="#65EBEB"/>
<stop offset="1" stop-color="#6DFFFF"/>
</radialGradient>
<linearGradient id="paint55_linear_362_8104" x1="277.139" y1="108.703" x2="411.87" y2="108.703" gradientUnits="userSpaceOnUse">
<stop stop-color="#6A9BFF"/>
<stop offset="1"/>
</linearGradient>
</defs>
</svg>
