<svg width="626" height="530" viewBox="0 0 626 530" fill="none" xmlns="http://www.w3.org/2000/svg">
<path d="M227.999 341.306L404.957 443.63C414.956 449.411 431.182 449.422 441.181 443.63L618.138 341.316C628.137 335.536 628.137 326.164 618.138 320.384L441.342 218.273C431.332 212.492 415.105 212.492 405.095 218.273L228.021 320.394C218.001 326.154 218.001 335.525 227.999 341.306Z" fill="url(#paint0_linear_471_892)"/>
<path d="M4.87196 408.005L100.876 463.569C106.303 466.711 115.106 466.711 120.532 463.569L216.548 408.005C221.974 404.863 221.974 399.777 216.548 396.646L120.629 341.242C115.191 338.111 106.389 338.111 100.962 341.242L4.88264 396.646C-0.554801 399.787 -0.554801 404.874 4.87196 408.005Z" fill="url(#paint1_linear_471_892)"/>
<path d="M195.492 475.996L255.187 510.51C259.023 512.46 263.56 512.46 267.397 510.51L327.091 475.986C330.467 474.041 330.467 470.878 327.091 468.922L267.45 434.483C263.61 432.534 259.07 432.534 255.229 434.483L195.492 468.933C192.085 470.889 192.085 474.041 195.492 475.996Z" fill="url(#paint2_linear_471_892)"/>
<path d="M397.393 501.15L396.816 500.808L159.171 363.82V336.722C159.171 336.078 159.693 335.557 160.336 335.557C160.979 335.557 161.5 336.078 161.5 336.722V362.474L397.393 498.414L533.244 419.94L370.687 326.068C370.129 325.747 369.938 325.034 370.259 324.476C370.581 323.918 371.294 323.727 371.851 324.049L537.859 419.919L397.393 501.15Z" fill="url(#paint3_linear_471_892)"/>
<path d="M206.389 429.333L181.285 414.833L130.841 443.673L156.191 458.312L206.389 429.333Z" fill="url(#paint4_linear_471_892)"/>
<path d="M223.117 438.993L249.525 454.241L164.555 501.791L139.451 487.302L223.117 438.993Z" fill="url(#paint5_linear_471_892)"/>
<path d="M164.555 405.173L130.841 424.354L105.993 410.003L139.462 390.673L164.555 405.173Z" fill="url(#paint6_linear_471_892)"/>
<path d="M506.505 402.748L499.743 412.087L499.423 412.525L495.299 418.188L478.944 415.164C476.014 417.201 472.894 418.95 469.629 420.389L476.039 427.869L476.776 428.724L472.759 429.728L448.189 435.819L440.968 427.452C436.549 427.845 432.112 427.97 427.678 427.826L421.269 436.61L394.391 431.63L393.323 431.427L392.105 431.203L392.298 430.936L398.472 422.387C395.132 421.144 391.914 419.595 388.858 417.761L372.642 421.789L367.674 416.04L359.929 407.043L366.467 405.419L376.017 403.047C375.353 400.764 375.207 398.362 375.59 396.016L365.976 394.231L359.267 392.981L370.484 377.54L386.647 380.543C387.266 380.084 387.907 379.656 388.559 379.229L389.232 378.791C390.086 378.267 390.962 377.722 391.881 377.241C393.195 376.525 394.573 375.831 396.015 375.179L395.171 374.207L388.997 367.047L417.562 359.952L424.506 368.02C426.258 367.859 428.02 367.731 429.794 367.646C432.208 367.528 434.633 367.507 437.09 367.56H438.329L440.049 365.188L440.166 365.006L440.754 364.205L444.439 359.129L450.304 360.198L473.614 364.472L467.503 372.903C469.453 373.626 471.364 374.45 473.229 375.371C474.746 376.084 476.17 376.871 477.502 377.733L493.131 373.854L505.843 388.6L497.692 390.62L490.086 392.511C490.721 394.838 490.819 397.278 490.375 399.649L498.921 401.241L506.505 402.748Z" fill="url(#paint7_linear_471_892)"/>
<path d="M507.146 385.181L500.374 394.509L500.053 394.958L495.93 400.621L479.575 397.587C476.649 399.631 473.529 401.381 470.259 402.812L476.669 410.292L477.406 411.146L473.389 412.151L448.819 418.252L441.598 409.886C437.18 410.28 432.742 410.402 428.309 410.249L421.899 419.043L395.022 414.064L393.954 413.861L392.736 413.625L392.928 413.369L399.103 404.821C395.76 403.578 392.541 402.026 389.488 400.183L373.272 404.212L368.305 398.463L360.56 389.466L367.098 387.852L376.648 385.469C375.983 383.19 375.837 380.792 376.221 378.449L366.606 376.654L359.908 375.414L371.114 359.974L387.277 362.966C387.897 362.517 388.538 362.079 389.189 361.662C389.414 361.502 389.638 361.363 389.862 361.224C390.717 360.69 391.593 360.155 392.511 359.674C393.825 358.948 395.203 358.264 396.646 357.612L395.802 356.629L389.627 349.47L418.192 342.375L425.136 350.442C426.888 350.282 428.651 350.164 430.477 350.079C432.892 349.961 435.317 349.929 437.774 349.993H439.013L440.733 347.621L440.85 347.45L441.438 346.638L445.123 341.562L450.988 342.631L474.297 346.905L468.187 355.336C470.217 356.105 472.125 356.932 473.913 357.815C475.379 358.524 476.806 359.312 478.186 360.177L493.815 356.287L506.527 371.044L498.387 373.063L490.77 374.955C491.405 377.281 491.504 379.722 491.058 382.093L499.604 383.674L507.146 385.181Z" fill="url(#paint8_linear_471_892)"/>
<path d="M433.732 392.413C446.485 392.137 456.706 386.504 456.561 379.831C456.417 373.158 445.962 367.972 433.209 368.249C420.457 368.525 410.236 374.158 410.381 380.831C410.525 387.504 420.98 392.69 433.732 392.413Z" fill="url(#paint9_linear_471_892)"/>
<path fill-rule="evenodd" clip-rule="evenodd" d="M476.679 410.259L479.179 408.603C478.378 409.169 477.512 409.725 476.679 410.259Z" stroke="black"/>
<path d="M396.613 357.612C395.182 358.264 393.804 358.948 392.49 359.674C391.571 360.177 390.695 360.743 389.84 361.224L389.167 361.662L389.605 349.48L396.613 357.612Z" fill="url(#paint10_linear_471_892)"/>
<path d="M474.233 346.991L473.838 357.901C472.05 357.01 470.142 356.184 468.112 355.422L474.233 346.991Z" fill="url(#paint11_linear_471_892)"/>
<path d="M506.441 371.118L506.046 382.135L499.508 383.759L490.962 382.178C491.418 379.808 491.319 377.365 490.674 375.04L498.291 373.148L506.441 371.118Z" fill="url(#paint12_linear_471_892)"/>
<path d="M507.135 385.181L506.74 396.197L495.534 411.638L495.929 400.621L500.042 394.958L507.135 385.181Z" fill="url(#paint13_linear_471_892)"/>
<path d="M495.93 400.621L495.534 411.638L479.179 408.603L479.574 397.586L495.93 400.621Z" fill="url(#paint14_linear_471_892)"/>
<path d="M479.575 397.586L479.179 408.603L476.68 410.259L470.27 402.78C473.535 401.359 476.651 399.619 479.575 397.586Z" fill="url(#paint15_linear_471_892)"/>
<path d="M477.417 411.125L477.021 422.131L448.467 429.237L448.862 418.22L473.411 412.119L477.417 411.125Z" fill="url(#paint16_linear_471_892)"/>
<path d="M448.862 418.22L448.467 429.237L441.245 420.859L441.64 409.843L448.862 418.22Z" fill="url(#paint17_linear_471_892)"/>
<path d="M441.64 409.843L441.245 420.859C436.827 421.258 432.389 421.383 427.956 421.233L428.351 410.217C432.785 410.366 437.223 410.241 441.64 409.843Z" fill="url(#paint18_linear_471_892)"/>
<path d="M428.351 410.217L427.956 421.234L421.589 430.017L421.985 419.011L428.351 410.217Z" fill="url(#paint19_linear_471_892)"/>
<path d="M399.167 404.82L392.992 413.369C391.625 412.695 390.332 411.98 389.114 411.232L389.51 400.215C392.576 402.051 395.81 403.593 399.167 404.82Z" fill="url(#paint20_linear_471_892)"/>
<path d="M421.984 419.011L421.589 430.017L392.394 424.61L392.799 413.604L394.007 413.828L395.107 414.031L421.984 419.011Z" fill="url(#paint21_linear_471_892)"/>
<path d="M389.509 400.183L389.114 411.2L372.898 415.239L373.293 404.222L389.509 400.183Z" fill="url(#paint22_linear_471_892)"/>
<path d="M373.293 404.222L372.898 415.239L360.186 400.482L360.581 389.465L368.336 398.462L373.293 404.222Z" fill="url(#paint23_linear_471_892)"/>
<path d="M376.669 385.469L367.119 387.841L359.491 386.431L359.886 375.414L366.584 376.654L376.199 378.449C375.829 380.795 375.99 383.194 376.669 385.469Z" fill="url(#paint24_linear_471_892)"/>
<path d="M507.146 385.181L500.373 394.509C467.033 364.515 427.732 356.715 395.78 356.629L389.605 349.47L418.171 342.375L425.114 350.442C426.866 350.282 428.629 350.164 430.456 350.079C432.87 349.961 435.295 349.929 437.752 349.993H438.991L440.711 347.621L440.829 347.45L441.416 346.638L445.102 341.562L450.966 342.631L474.276 346.905L468.165 355.336C470.195 356.105 472.104 356.932 473.891 357.815C475.357 358.524 476.784 359.312 478.164 360.177L493.793 356.287L506.505 371.044L498.365 373.063L490.748 374.955C491.383 377.281 491.482 379.722 491.037 382.093L499.583 383.674L507.146 385.181Z" fill="url(#paint25_linear_471_892)"/>
<path d="M42.8911 277.973C42.8911 277.973 44.3333 340.237 45.0276 398.719C45.0276 398.719 46.5125 304.495 47.1642 277.973H42.8911Z" fill="url(#paint26_linear_471_892)"/>
<path d="M57.4459 275.239C62.6765 268.386 61.3627 258.589 54.5114 253.357C47.6602 248.125 37.866 249.439 32.6354 256.292C27.4048 263.145 28.7186 272.942 35.5698 278.174C42.421 283.406 52.2153 282.092 57.4459 275.239Z" fill="url(#paint27_linear_471_892)"/>
<path d="M614.432 254.315C614.432 254.315 615.254 312.722 615.628 367.582C615.628 367.582 616.472 279.191 616.825 254.315H614.432Z" fill="url(#paint28_linear_471_892)"/>
<path d="M624.51 248.753C625.275 243.921 621.979 239.383 617.148 238.618C612.317 237.852 607.781 241.149 607.016 245.981C606.251 250.813 609.546 255.351 614.377 256.116C619.208 256.882 623.744 253.585 624.51 248.753Z" fill="url(#paint29_linear_471_892)"/>
<path d="M394.188 135.065C394.188 135.065 395.631 197.971 396.325 257.062C396.325 257.062 397.81 161.875 398.462 135.065H394.188Z" fill="url(#paint30_linear_471_892)"/>
<path d="M409.024 131.768C413.997 124.726 412.322 114.985 405.282 110.01C398.242 105.035 388.503 106.71 383.529 113.752C378.556 120.794 380.231 130.536 387.271 135.511C394.311 140.486 404.05 138.81 409.024 131.768Z" fill="url(#paint31_linear_471_892)"/>
<path d="M254.973 415.324C254.973 415.324 255.699 474.394 256.041 529.883C256.041 529.883 256.778 440.499 257.109 415.324H254.973Z" fill="url(#paint32_linear_471_892)"/>
<path d="M263.861 409.148C263.861 412.308 261.957 415.157 259.038 416.366C256.118 417.574 252.759 416.904 250.526 414.667C248.294 412.431 247.628 409.07 248.84 406.151C250.052 403.233 252.903 401.333 256.063 401.337C258.133 401.337 260.118 402.16 261.581 403.625C263.043 405.091 263.864 407.077 263.861 409.148Z" fill="url(#paint33_linear_471_892)"/>
<path d="M114.54 162.27L114.625 363.147L323.331 242.615L323.288 41.7275L114.54 162.27Z" fill="#F3F6FF"/>
<path d="M114.54 182.274L323.288 61.7308V41.7275L114.54 162.27V182.274Z" fill="url(#paint34_linear_471_892)"/>
<path d="M285.429 93.9261V214.48L355.026 174.281L354.951 53.7808L285.429 93.9261Z" fill="#D4DFFC"/>
<path d="M308.727 131.636C308.419 131.638 308.134 131.475 307.98 131.208C307.863 131.01 307.83 130.773 307.888 130.551C307.947 130.328 308.091 130.138 308.289 130.022L337.218 113.321C337.487 113.13 337.84 113.109 338.129 113.266C338.419 113.423 338.594 113.73 338.582 114.059C338.57 114.388 338.373 114.682 338.072 114.817L309.155 131.518C309.026 131.596 308.878 131.637 308.727 131.636Z" fill="#B4CBFC"/>
<path d="M301.538 144.159C301.229 144.155 300.945 143.988 300.79 143.721C300.557 143.307 300.7 142.783 301.111 142.545L344.482 117.488C344.895 117.254 345.42 117.397 345.657 117.808C345.774 118.007 345.807 118.243 345.749 118.466C345.69 118.688 345.546 118.878 345.347 118.994L301.976 144.041C301.842 144.116 301.692 144.156 301.538 144.159Z" fill="#B4CBFC"/>
<path d="M301.549 152.568C301.237 152.566 300.949 152.399 300.791 152.13C300.556 151.713 300.699 151.186 301.111 150.944L344.589 125.833C344.998 125.649 345.48 125.804 345.706 126.192C345.931 126.58 345.827 127.075 345.465 127.34L301.976 152.451C301.846 152.524 301.699 152.564 301.549 152.568Z" fill="#B4CBFC"/>
<path d="M301.549 160.935C301.158 160.936 300.814 160.674 300.711 160.296C300.609 159.918 300.773 159.518 301.111 159.321L344.6 134.2C345.016 133.961 345.547 134.104 345.786 134.52C346.025 134.936 345.881 135.467 345.465 135.706L301.976 160.817C301.848 160.895 301.7 160.936 301.549 160.935Z" fill="#B4CBFC"/>
<path d="M308.792 165.113C308.4 165.114 308.057 164.852 307.954 164.474C307.852 164.096 308.015 163.697 308.354 163.5L337.357 146.755C337.767 146.548 338.267 146.697 338.497 147.094C338.726 147.492 338.606 147.999 338.222 148.251L309.219 165.006C309.088 165.076 308.941 165.113 308.792 165.113Z" fill="#B4CBFC"/>
<path d="M79.7461 232.902V353.445L149.343 313.246L149.268 192.746L79.7461 232.902Z" fill="url(#paint35_linear_471_892)"/>
<path d="M103.109 270.611C102.718 270.612 102.374 270.35 102.272 269.972C102.169 269.594 102.333 269.194 102.671 268.997L131.674 252.243C132.09 252.004 132.621 252.147 132.86 252.563C133.099 252.979 132.956 253.51 132.54 253.749L103.537 270.493C103.409 270.574 103.26 270.615 103.109 270.611Z" fill="url(#paint36_linear_471_892)"/>
<path d="M95.8665 283.166C95.5542 283.164 95.266 282.998 95.108 282.728C94.8734 282.311 95.016 281.784 95.4285 281.542L138.875 256.452C139.143 256.276 139.486 256.263 139.767 256.418C140.048 256.573 140.22 256.871 140.215 257.192C140.209 257.512 140.026 257.804 139.74 257.948L96.2511 283.07C96.1314 283.13 96.0001 283.163 95.8665 283.166Z" fill="url(#paint37_linear_471_892)"/>
<path d="M95.8665 291.533C95.5542 291.531 95.266 291.364 95.108 291.095C94.8734 290.678 95.016 290.15 95.4285 289.909L138.907 264.798C139.316 264.614 139.798 264.769 140.023 265.157C140.249 265.544 140.145 266.04 139.783 266.305L96.2938 291.415C96.1631 291.489 96.0164 291.529 95.8665 291.533Z" fill="url(#paint38_linear_471_892)"/>
<path d="M95.8665 299.899C95.475 299.901 95.1314 299.639 95.0288 299.261C94.9263 298.883 95.0902 298.483 95.4285 298.286L138.917 273.164C139.186 273.01 139.518 273.01 139.786 273.166C140.054 273.322 140.219 273.609 140.219 273.92C140.218 274.23 140.052 274.516 139.783 274.671L96.2938 299.782C96.165 299.86 96.0171 299.901 95.8665 299.899Z" fill="url(#paint39_linear_471_892)"/>
<path d="M103.109 304.088C102.797 304.086 102.509 303.92 102.351 303.65C102.116 303.234 102.259 302.706 102.671 302.464L131.674 285.72C132.09 285.481 132.621 285.625 132.86 286.041C133.099 286.457 132.956 286.988 132.54 287.227L103.536 303.971C103.407 304.047 103.259 304.087 103.109 304.088Z" fill="url(#paint40_linear_471_892)"/>
<path d="M210.063 268.89V275.889C210.062 276.836 210.567 277.712 211.387 278.186C212.206 278.66 213.217 278.66 214.037 278.187L258.551 252.477C260.261 251.485 261.315 249.657 261.318 247.68V240.723C261.322 239.765 260.812 238.877 259.982 238.398C259.152 237.919 258.129 237.921 257.301 238.405L212.851 264.05C211.123 265.048 210.059 266.894 210.063 268.89Z" fill="url(#paint41_linear_471_892)"/>
<path d="M556.468 269.179C553.049 308.929 543.435 347.119 543.072 348.561L524.975 338.015L523.683 322.799L518.224 334.083L476.306 309.656L476.786 294.215L468.539 305.136L450.069 294.365L451.864 280.773L443.702 290.689L406.452 268.976C406.452 268.976 421.792 245.863 430.531 225.368C433.723 217.605 436.371 209.628 438.457 201.497L556.468 269.179Z" fill="url(#paint42_linear_471_892)"/>
<path d="M593.163 319.636C585.668 322.697 578.378 326.238 571.338 330.236L568.283 318.93L567.214 332.661C554.395 340.312 543.093 348.604 543.093 348.604C543.456 347.161 553.071 308.972 556.489 269.222L567.535 262.81L582.491 254.112C586.069 282.001 593.163 319.636 593.163 319.636Z" fill="url(#paint43_linear_471_892)"/>
<path d="M580.717 226.202L557.664 241.856L444.14 175.723L468.71 161.512L580.717 226.202Z" fill="url(#paint44_linear_471_892)"/>
<path d="M557.632 241.856C557.686 250.757 557.226 260.021 556.425 269.179L438.404 201.54C442.121 187.649 444.098 175.734 444.098 175.734L557.632 241.856Z" fill="#F3F6FF"/>
<path d="M582.448 254.059L556.479 269.179C557.28 260.011 557.739 250.757 557.686 241.856L580.728 226.202C579.863 230.305 580.792 241.14 582.448 254.059Z" fill="#D4DFFC"/>
<path d="M530.926 204.606L518.459 211.819L506.025 204.638C506.025 204.638 493.601 53.7594 518.459 68.0352C543.371 82.4179 530.926 204.606 530.926 204.606Z" fill="#F3F6FF"/>
<path d="M533.575 164.717C533.425 168.628 533.254 172.39 533.041 175.926C532.143 192.724 530.904 204.606 530.904 204.606L518.438 211.819V68.0352C533.97 76.9896 535.006 127.692 533.575 164.717Z" fill="url(#paint45_linear_471_892)"/>
<path d="M513.759 100.765C512.821 101.362 511.613 101.324 510.714 100.669C508.698 99.4867 507.474 97.3108 507.51 94.9734C507.702 93.018 509.358 92.2593 511.238 93.2103C510.702 93.6452 510.373 94.2846 510.33 94.9734C510.301 97.3091 511.523 99.4818 513.535 100.669C513.606 100.708 513.681 100.74 513.759 100.765Z" fill="url(#paint46_linear_471_892)"/>
<path d="M514.656 99.0127C514.628 99.7 514.3 100.34 513.759 100.765C513.685 100.74 513.613 100.707 513.545 100.669C511.534 99.482 510.311 97.3093 510.34 94.9735C510.383 94.2847 510.713 93.6453 511.248 93.2104L511.462 93.3173C513.474 94.5021 514.694 96.6775 514.656 99.0127Z" fill="#012860"/>
<path d="M505.779 225.058C505.74 225.992 505.295 226.863 504.561 227.441C503.493 228.221 502.04 228.221 500.427 227.302C497.767 225.774 495.823 222.312 496.154 219.566C496.485 216.82 498.654 215.89 501.207 217.173L501.495 217.322C504.134 218.839 506.067 222.259 505.779 225.058Z" fill="url(#paint47_linear_471_892)"/>
<path d="M196.71 62.671C196.833 65.3698 198.124 67.8816 200.246 69.5525C203.173 71.8178 207.553 71.8178 212.21 69.1678C219.934 64.744 225.553 54.7104 224.698 46.7283C223.929 39.0347 217.434 36.0428 210.053 39.8041C209.786 39.9216 209.476 40.0819 209.209 40.2315C201.474 44.6233 195.866 54.6676 196.71 62.671Z" fill="url(#paint48_linear_471_892)"/>
<path d="M209.529 63.5796L204.038 55.5655C203.812 55.212 203.901 54.7427 204.241 54.497C204.597 54.2809 205.058 54.3686 205.31 54.7L209.294 60.5236L217.146 44.6663C217.362 44.3255 217.8 44.2024 218.163 44.3808C218.525 44.5591 218.694 44.9816 218.556 45.3609L209.529 63.5796Z" fill="#F3F6FF"/>
<path d="M556.468 269.179C553.049 308.929 543.435 347.119 543.072 348.561C506.078 260.652 439.451 202.416 438.468 201.508L556.468 269.179Z" fill="url(#paint49_linear_471_892)"/>
<path d="M571.338 330.236C578.944 284.352 567.524 262.757 567.524 262.757L582.48 254.059C586.101 282.002 593.163 319.636 593.163 319.636C585.668 322.697 578.378 326.238 571.338 330.236Z" fill="url(#paint50_linear_471_892)"/>
<path d="M385.813 244.698C385.813 244.698 382.779 244.88 371.488 250.746C360.378 256.538 348.948 265.888 348.595 266.187L311.366 244.698C311.772 244.389 325.072 234.472 334.238 229.258C343.852 223.798 348.584 223.21 348.584 223.21L385.813 244.698Z" fill="url(#paint51_linear_471_892)"/>
<path d="M385.813 244.698L348.595 266.187C348.948 265.888 360.346 256.57 371.488 250.746C382.779 244.848 385.813 244.698 385.813 244.698Z" fill="#012860"/>
<path d="M385.813 244.667V251.826L348.595 273.357L348.606 266.155L385.813 244.667Z" fill="url(#paint52_linear_471_892)"/>
<path d="M348.595 273.357L311.366 251.794V244.667L348.606 266.155L348.595 273.357Z" fill="url(#paint53_linear_471_892)"/>
<path d="M311.366 251.793L317.573 319.892L348.595 337.812V273.357L311.366 251.793Z" fill="#D4DFFC"/>
<path d="M385.813 251.826L379.607 319.903L348.595 337.812V273.357L385.813 251.826Z" fill="#F3F6FF"/>
<path d="M336.599 304.601C336.074 304.597 335.591 304.317 335.327 303.864L321.696 279.8C321.501 279.465 321.449 279.066 321.551 278.692C321.654 278.318 321.902 278.001 322.241 277.813C322.578 277.62 322.978 277.569 323.353 277.671C323.728 277.773 324.046 278.02 324.239 278.358L337.87 302.421C338.065 302.756 338.117 303.156 338.015 303.53C337.912 303.904 337.664 304.221 337.325 304.409C337.104 304.535 336.853 304.601 336.599 304.601Z" fill="url(#paint54_linear_471_892)"/>
<path d="M322.967 296.747C322.301 296.753 321.716 296.308 321.542 295.664C321.369 295.021 321.652 294.342 322.23 294.012L336.257 285.934C336.71 285.645 337.286 285.628 337.755 285.89C338.225 286.152 338.513 286.651 338.506 287.189C338.499 287.727 338.197 288.217 337.72 288.466L323.694 296.544C323.475 296.677 323.223 296.747 322.967 296.747Z" fill="url(#paint55_linear_471_892)"/>
<path d="M360.004 304.601C359.749 304.599 359.5 304.533 359.278 304.409C358.582 304.008 358.338 303.121 358.733 302.421L372.374 278.358C372.793 277.701 373.653 277.488 374.33 277.872C375.007 278.257 375.265 279.104 374.917 279.8L361.275 303.864C361.013 304.318 360.529 304.599 360.004 304.601Z" fill="url(#paint56_linear_471_892)"/>
<path d="M373.635 296.747C373.379 296.747 373.128 296.677 372.908 296.544L358.936 288.509C358.459 288.26 358.157 287.769 358.15 287.231C358.142 286.693 358.43 286.195 358.9 285.932C359.37 285.67 359.945 285.687 360.399 285.976L374.425 294.054C375.004 294.384 375.287 295.064 375.113 295.707C374.94 296.35 374.354 296.795 373.688 296.79L373.635 296.747Z" fill="url(#paint57_linear_471_892)"/>
<path d="M247.655 179.517C247.2 177.846 246.478 176.258 245.519 174.816L250.507 165.947L241.299 161.031L236.353 169.825C234.568 169.774 232.787 170.009 231.076 170.52L231.012 162.41L218.096 170.306L218.161 178.417C216.275 180.196 214.525 182.114 212.926 184.155L207.884 181.473L198.846 197.501L203.921 200.215C203.046 202.596 202.35 205.039 201.838 207.524L194.691 211.905L194.808 226.747L202.051 222.323C202.528 223.953 203.268 225.494 204.241 226.886L199.156 235.936L208.365 240.863L213.492 231.737C215.217 231.763 216.935 231.525 218.588 231.032L218.652 239.473L231.557 231.577L231.492 223.135C232.561 222.184 233.501 221.158 234.462 220.101L225.478 215.271L224.944 215.602C217.883 219.876 212.125 216.842 212.029 208.699C211.933 200.557 217.637 190.47 224.709 186.142C231.781 181.815 237.528 184.913 237.635 193.034C237.638 193.652 237.609 194.269 237.549 194.883L246.491 199.05C246.987 197.513 247.401 195.951 247.73 194.37L254.973 189.946L254.855 175.104L247.655 179.517Z" fill="#D4DFFC"/>
<path d="M228.544 204.019C227.978 205.012 227.059 205.579 226.493 205.269C225.927 204.959 225.906 203.912 226.493 202.907C227.081 201.903 227.967 201.347 228.544 201.657C229.121 201.967 229.1 203.025 228.544 204.019Z" fill="#F3F6FF"/>
<path d="M232.486 200.076C233.896 195.438 233.245 191.271 230.542 189.828C228.819 189.054 226.827 189.165 225.201 190.127L226.547 198.216L222.744 204.991L215.383 206.519C215.383 209.073 216.323 211.103 218.043 212.022C220.458 213.304 223.876 212.086 226.899 209.201C228.374 207.762 229.634 206.117 230.638 204.318C231.409 202.976 232.029 201.554 232.486 200.076ZM226.493 205.269C225.916 204.97 225.906 203.912 226.493 202.907C227.081 201.903 227.967 201.347 228.544 201.657C229.121 201.967 229.121 203.014 228.544 204.019C227.967 205.023 227.059 205.579 226.472 205.269H226.493Z" fill="url(#paint58_linear_471_892)"/>
<path d="M259.588 217.525L256.96 222.206C256.244 223.488 255.069 224.204 254.332 223.808L226.963 209.201C228.438 207.762 229.697 206.118 230.702 204.318C231.468 202.966 232.08 201.532 232.529 200.044L259.566 214.48C260.261 214.897 260.271 216.254 259.588 217.525Z" fill="url(#paint59_linear_471_892)"/>
<path d="M248.691 216.232L234.099 208.443C233.746 208.261 233.736 207.598 234.099 206.979C234.452 206.359 235.018 206.006 235.381 206.199L249.973 213.988C250.326 214.181 250.337 214.832 249.973 215.452C249.621 216.083 249.055 216.425 248.691 216.232Z" fill="#F3F6FF"/>
<path d="M102.756 217.685C102.756 217.207 102.369 216.82 101.891 216.82C101.413 216.82 101.026 217.207 101.026 217.685V222.889C101.026 223.367 101.413 223.755 101.891 223.755C102.369 223.755 102.756 223.367 102.756 222.889V217.685Z" fill="#D4DFFC"/>
<path d="M101.891 208.368C101.413 208.368 101.026 207.98 101.026 207.502V197.329C101.032 196.85 101.422 196.464 101.902 196.464C102.38 196.464 102.767 196.851 102.767 197.329V207.502C102.767 207.733 102.675 207.955 102.51 208.118C102.345 208.28 102.122 208.37 101.891 208.368ZM101.891 188.065C101.413 188.065 101.026 187.678 101.026 187.2V177.016C101.032 176.541 101.416 176.157 101.891 176.151C102.371 176.157 102.756 176.547 102.756 177.027V187.2C102.756 187.673 102.376 188.059 101.902 188.065H101.891ZM101.891 167.763C101.412 167.757 101.026 167.366 101.026 166.886V156.714C101.026 156.236 101.413 155.848 101.891 155.848C102.369 155.848 102.756 156.236 102.756 156.714V166.886C102.719 167.329 102.356 167.673 101.913 167.688L101.891 167.763ZM101.891 147.46C101.413 147.46 101.026 147.073 101.026 146.595V136.422C101.026 135.944 101.413 135.557 101.891 135.557C102.369 135.557 102.756 135.944 102.756 136.422V146.595C102.69 147.012 102.335 147.322 101.913 147.332L101.891 147.46Z" fill="#D4DFFC"/>
<path d="M101.923 126.987C101.446 126.987 101.058 126.6 101.058 126.122V120.416L105.993 117.563C106.263 117.408 106.594 117.409 106.862 117.565C107.13 117.72 107.295 118.008 107.295 118.318C107.294 118.628 107.128 118.915 106.859 119.069L102.799 121.42V126.122C102.799 126.353 102.707 126.575 102.542 126.738C102.378 126.9 102.155 126.99 101.923 126.987Z" fill="#D4DFFC"/>
<path d="M115.234 114.09C114.926 114.093 114.64 113.929 114.486 113.663C114.371 113.463 114.339 113.225 114.4 113.003C114.46 112.78 114.606 112.591 114.807 112.476L123.609 107.39C123.877 107.214 124.221 107.201 124.502 107.356C124.783 107.511 124.955 107.808 124.949 108.129C124.943 108.45 124.761 108.741 124.474 108.886L115.672 113.983C115.537 114.055 115.387 114.091 115.234 114.09ZM132.85 103.917C132.46 103.914 132.121 103.65 132.021 103.274C131.921 102.897 132.086 102.5 132.422 102.304L141.225 97.2069C141.494 97.0523 141.825 97.053 142.093 97.2088C142.362 97.3645 142.527 97.6517 142.526 97.9621C142.525 98.2725 142.359 98.5589 142.09 98.7135L133.288 103.8C133.154 103.875 133.003 103.915 132.85 103.917ZM150.465 93.7341C150.157 93.7369 149.871 93.5736 149.717 93.3067C149.602 93.1071 149.571 92.8696 149.631 92.6469C149.691 92.4242 149.838 92.2347 150.038 92.1206L158.84 87.0343C159.109 86.8583 159.452 86.845 159.733 87C160.014 87.1549 160.186 87.4526 160.18 87.7734C160.175 88.0942 159.992 88.3855 159.706 88.5303L150.903 93.6166C150.771 93.696 150.619 93.7367 150.465 93.7341ZM168.081 83.5615C167.684 83.5665 167.334 83.3005 167.233 82.9163C167.132 82.5322 167.305 82.1285 167.654 81.9373L176.456 76.851C176.656 76.7354 176.893 76.7042 177.116 76.7644C177.338 76.8245 177.528 76.9711 177.642 77.1716C177.757 77.3696 177.788 77.6055 177.728 77.8264C177.667 78.0474 177.521 78.2349 177.321 78.347L168.519 83.444C168.385 83.5187 168.234 83.5591 168.081 83.5615Z" fill="#D4DFFC"/>
<path d="M185.696 73.3782C185.307 73.3746 184.968 73.1111 184.868 72.7344C184.768 72.3577 184.932 71.9608 185.269 71.7647L189.766 69.1575C190.035 69.0028 190.366 69.0036 190.635 69.1593C190.903 69.3151 191.068 69.6023 191.067 69.9127C191.067 70.223 190.901 70.5095 190.632 70.6641L186.134 73.2607C186.002 73.3401 185.85 73.3809 185.696 73.3782Z" fill="#D4DFFC"/>
<path d="M234.356 45.3071C234.046 45.3054 233.761 45.1383 233.608 44.869C233.492 44.6723 233.459 44.4374 233.517 44.2166C233.576 43.9958 233.72 43.8074 233.918 43.6936L238.426 41.0863C238.842 40.8473 239.373 40.9908 239.611 41.4069C239.85 41.8229 239.707 42.354 239.291 42.593L234.794 45.1895C234.66 45.2643 234.509 45.3047 234.356 45.3071Z" fill="#D4DFFC"/>
<path d="M247.677 37.6138C247.285 37.6149 246.942 37.353 246.839 36.975C246.736 36.5971 246.9 36.1973 247.239 36.0002L256.052 30.9139C256.32 30.7379 256.663 30.7247 256.944 30.8796C257.225 31.0345 257.397 31.3322 257.392 31.653C257.386 31.9738 257.203 32.2651 256.917 32.4099L248.104 37.4962C247.975 37.5743 247.827 37.615 247.677 37.6138ZM265.303 27.4412C264.991 27.4389 264.702 27.2725 264.544 27.0031C264.31 26.5864 264.452 26.0586 264.865 25.817L273.678 20.7307C274.094 20.4917 274.625 20.6352 274.864 21.0512C275.103 21.4673 274.959 21.9983 274.543 22.2373L265.73 27.3236C265.599 27.3971 265.453 27.4374 265.303 27.4412ZM282.929 17.2579C282.538 17.2591 282.194 16.9971 282.091 16.6192C281.989 16.2412 282.153 15.8414 282.491 15.6444L291.304 10.5474C291.573 10.3928 291.904 10.3935 292.173 10.5493C292.441 10.7051 292.606 10.9922 292.605 11.3026C292.605 11.613 292.439 11.8994 292.17 12.0541L283.356 17.1404C283.228 17.2184 283.08 17.2591 282.929 17.2579ZM300.555 7.07463C300.164 7.07581 299.82 6.81386 299.718 6.4359C299.615 6.05794 299.779 5.65817 300.117 5.46112L308.931 0.374827C309.199 0.198784 309.542 0.185573 309.823 0.340502C310.104 0.495431 310.276 0.793076 310.27 1.11388C310.265 1.43468 310.082 1.72599 309.796 1.8708L300.983 6.96777C300.851 7.03793 300.704 7.07463 300.555 7.07463Z" fill="#D4DFFC"/>
<path d="M322.679 58.2899C322.2 58.2841 321.814 57.8935 321.814 57.4137V47.6258C321.814 47.3166 321.979 47.0308 322.247 46.8762C322.514 46.7216 322.844 46.7216 323.112 46.8762C323.38 47.0308 323.545 47.3166 323.545 47.6258V57.4137C323.545 57.8935 323.159 58.2841 322.679 58.2899ZM322.679 38.6927C322.201 38.6927 321.814 38.3052 321.814 37.8272V28.0286C321.814 27.5506 322.201 27.1631 322.679 27.1631C323.157 27.1631 323.545 27.5506 323.545 28.0286V37.8272C323.545 38.3052 323.157 38.6927 322.679 38.6927ZM322.679 19.0956C322.201 19.0956 321.814 18.708 321.814 18.23V8.43144C321.814 7.95343 322.201 7.56592 322.679 7.56592C323.157 7.56592 323.545 7.95343 323.545 8.43144V18.23C323.545 18.708 323.157 19.0956 322.679 19.0956Z" fill="#D4DFFC"/>
<path d="M322.679 73.2821C322.201 73.2821 321.814 72.8945 321.814 72.4165V67.2127C321.814 66.7347 322.201 66.3472 322.679 66.3472C323.157 66.3472 323.545 66.7347 323.545 67.2127V72.4165C323.545 72.8945 323.157 73.2821 322.679 73.2821Z" fill="#D4DFFC"/>
<path d="M385.813 244.698C343.35 230.209 312.018 244.389 311.377 244.698C311.783 244.389 325.083 234.472 334.248 229.258C343.863 223.798 348.595 223.21 348.595 223.21L385.813 244.698Z" fill="url(#paint60_linear_471_892)"/>
<path d="M356.415 239.933V246.259L355.036 245.468V241.268C355.041 240.678 354.727 240.13 354.214 239.837L345.978 235.082C345.724 234.933 345.41 234.93 345.154 235.076C344.899 235.221 344.74 235.493 344.738 235.787V239.516L343.371 238.725V232.998C343.388 232.634 343.59 232.304 343.905 232.122C344.221 231.941 344.608 231.932 344.931 232.1L355.368 238.127C356.007 238.506 356.403 239.19 356.415 239.933Z" fill="#012860"/>
<path d="M257.09 373.999C276.005 373.621 291.178 365.296 290.98 355.405C290.783 345.514 275.289 337.803 256.374 338.182C237.459 338.56 222.286 346.885 222.484 356.776C222.681 366.666 238.175 374.378 257.09 373.999Z" fill="#F3F6FF"/>
<path d="M525.68 263.184C525.68 263.184 517.434 272.555 519.784 273.368C522.134 274.18 530.584 268.025 530.851 266.187C530.962 265.457 530.636 264.73 530.018 264.328L526.695 262.575L525.68 263.184Z" fill="#012860"/>
<path d="M517.903 257.115C517.903 257.115 509.774 266.326 512.092 267.127C514.41 267.929 522.775 261.849 522.988 260.064C523.099 259.349 522.782 258.634 522.177 258.237L518.897 256.506L517.903 257.115Z" fill="#012860"/>
<path d="M531.171 220.838C529.765 222.223 528.789 223.986 528.362 225.913C527.827 228.895 525.68 263.184 525.68 263.184C525.68 263.184 525.552 263.847 527.678 264.253C528.447 264.436 529.248 264.436 530.017 264.253C530.017 264.253 532.624 230.412 534.119 228.585C535.275 227.223 536.548 225.964 537.922 224.823C537.922 224.823 539.781 221.778 539.845 221.415C539.909 221.052 534.504 218.519 534.504 218.519L531.171 220.838Z" fill="url(#paint61_linear_471_892)"/>
<path d="M523.309 215.42C521.922 216.78 520.96 218.514 520.542 220.411C520.008 223.349 517.903 257.115 517.903 257.115C517.903 257.115 517.775 257.756 519.858 258.184C520.617 258.379 521.41 258.397 522.176 258.237C522.176 258.237 524.73 224.909 526.204 223.114C527.344 221.775 528.598 220.538 529.953 219.417C529.953 219.417 531.78 216.403 531.844 216.051C531.908 215.698 526.503 213.208 526.503 213.208L523.309 215.42Z" fill="url(#paint62_linear_471_892)"/>
<path d="M553.274 212.45C553.274 212.45 553.669 216.97 548.605 221.394C543.542 225.817 540.818 226.822 540.818 226.822C540.818 226.822 533.094 221.479 528.095 219.342C523.095 217.205 519.602 218.38 519.602 218.38C521.514 214.942 523.906 211.793 526.706 209.031C528.671 207.06 530.905 205.377 533.34 204.03C533.34 204.03 539.301 203.186 539.482 203.186C539.664 203.186 546.17 203.848 546.17 203.848L551.287 204.692L553.274 212.45Z" fill="url(#paint63_linear_471_892)"/>
<path d="M564.202 179.453C564.202 179.453 558.551 182.434 557.034 184.197C555.517 185.961 555.709 187.82 554.62 189.668C553.001 192.697 552.648 196.243 553.637 199.531C554.908 203.709 553.274 212.45 553.274 212.45C553.274 212.45 546.95 207.983 543.585 207.107C540.22 206.231 540.444 206.754 536.897 205.846C533.351 204.938 533.34 203.976 533.34 203.976C533.34 203.976 534.483 196.379 535.263 192.468C536.043 188.557 533.725 186.538 535.957 183.268C536.769 182.071 534.462 181.131 532.752 180.607C532.913 177.989 533.116 175.147 533.222 172.262C535.786 173.266 539.995 174.613 541.021 174.506C542.655 174.345 546.811 176.44 546.811 176.44L549.855 176.023C551.557 176.571 553.388 176.571 555.09 176.023C557.814 175.083 561.959 173.084 561.959 173.084C561.95 173.805 562.036 174.524 562.215 175.222C562.335 175.706 562.481 176.184 562.653 176.653C562.922 177.433 563.281 178.179 563.721 178.876C563.946 179.175 564.085 179.346 564.127 179.389L564.202 179.453Z" fill="url(#paint64_linear_471_892)"/>
<path d="M547.11 180.863C548.03 180.605 549.017 180.862 549.695 181.536C550.902 182.68 551.019 183.225 551.019 183.225L549.876 176.055L546.18 177.593L547.11 180.863Z" fill="#B4CBFC"/>
<path d="M545.881 180.585C545.351 180.433 544.794 180.393 544.247 180.468C543.719 180.571 543.228 180.815 542.826 181.173L545.443 176.536L546.512 177.145L547.089 178.641L545.881 180.585Z" fill="#B4CBFC"/>
<path d="M549.567 173.309L549.876 176.044C549.876 176.044 548.584 181.323 546.501 180.895C544.418 180.468 545.432 176.504 545.432 176.504C545.431 175.912 545.352 175.322 545.197 174.751C545.112 174.226 545.278 173.692 545.646 173.309C545.721 173.394 549.567 173.309 549.567 173.309Z" fill="url(#paint65_linear_471_892)"/>
<path d="M541.608 165.444C541.017 167.213 540.932 169.112 541.363 170.926C542.025 174.303 543.499 175.51 543.499 175.51C543.499 175.51 549.075 176.108 550.656 171.172C551.526 168.035 551.005 164.675 549.225 161.95L544.589 162.249L541.608 165.444Z" fill="url(#paint66_linear_471_892)"/>
<path d="M541.608 165.391C541.608 165.391 546.266 164.215 547.623 166.641C548.979 169.067 547.516 170.381 550.154 172.807C552.793 175.232 557.75 162.484 550.208 159.899C541.801 156.992 541.608 165.391 541.608 165.391Z" fill="#012860"/>
<path d="M550.282 159.877C550.282 159.877 552.173 157.537 553.487 158.627C554.801 159.717 554.748 167.015 556.083 166.961C557.418 166.908 557.771 166.224 557.771 166.224C557.771 166.224 556.168 170.359 553.978 168.735C551.788 167.111 551.618 162.773 551.618 162.773L550.282 159.877Z" fill="#012860"/>
<path d="M573.656 172.614C571.52 174.933 566.328 177.668 564.501 178.576L563.86 178.897H563.743C563.302 178.2 562.943 177.454 562.674 176.674C562.503 176.205 562.356 175.727 562.236 175.243C562.236 174.922 562.3 174.73 562.3 174.73C562.3 174.73 562.781 174.527 563.518 174.185C565.569 173.234 569.565 171.225 569.789 169.911C570.088 168.094 570.932 150.976 569.789 150.078C568.548 149.273 567.757 147.932 567.652 146.456C567.535 144.714 572.994 143.87 573.806 145.494C574.618 147.118 572.737 148.508 572.951 150.078C573.165 151.649 576.295 169.782 573.656 172.614Z" fill="url(#paint67_linear_471_892)"/>
<path d="M563.518 174.174C562.781 174.516 562.301 174.719 562.301 174.719C562.301 174.719 562.301 174.912 562.236 175.232C562.057 174.534 561.971 173.816 561.98 173.095C561.98 173.095 562.707 173.106 563.518 174.174Z" fill="#012860"/>
<path d="M564.544 178.577C564.476 178.885 564.36 179.18 564.202 179.453C564.202 179.453 564.02 179.239 563.796 178.94H563.913L564.544 178.577Z" fill="#012860"/>
<path d="M502.98 165.124C502.98 165.124 502.489 171.535 504.465 171.321C506.441 171.108 507.424 169.836 507.242 167.806C507.061 165.776 505.416 163.051 504.166 163.104C502.916 163.158 502.98 165.124 502.98 165.124Z" fill="url(#paint68_linear_471_892)"/>
<path d="M272.407 295.241C272.407 295.241 269.683 307.337 267.578 310.2C266.083 312.263 265.068 324.936 264.609 332.106L264.235 332.672V331.839C264.972 321.153 265.923 310.468 266.884 308.33C268.946 303.725 270.345 297.976 269.993 296.01C269.938 295.729 269.817 295.466 269.64 295.241H272.407Z" fill="url(#paint69_linear_471_892)"/>
<path d="M262.846 355.956C263.444 357.077 263.717 358.342 263.636 359.61C263.433 361.512 262.846 362.517 258.648 361.619C254.449 360.721 247.815 360.422 247.741 358.841C247.666 357.259 257.718 355.806 257.718 355.806L262.846 355.956Z" fill="url(#paint70_linear_471_892)"/>
<path d="M269.768 351.233C270.359 352.352 270.629 353.613 270.548 354.876C270.345 356.789 269.768 357.793 265.559 356.896C261.35 355.998 254.738 355.699 254.652 354.118C254.567 352.536 264.63 351.083 264.63 351.083L269.768 351.233Z" fill="url(#paint71_linear_471_892)"/>
<path d="M273.795 303.597C272.727 305.905 271.755 317.851 270.997 329.242C270.238 340.633 269.768 351.275 269.768 351.275C269.047 352.057 267.959 352.385 266.927 352.13C264.918 351.842 264.63 351.126 264.63 351.126L264.491 344.394L264.331 337.117L264.245 332.758L264.619 332.191C265.078 325.021 266.093 312.348 267.589 310.286C269.725 307.39 272.417 295.326 272.417 295.326H269.629C269.806 295.551 269.927 295.815 269.982 296.096C270.334 298.062 268.914 303.811 266.873 308.416C265.912 310.553 264.961 321.239 264.224 331.924L263.476 296.662V295.465L263.711 295.294L265.089 294.226L266.104 293.467H266.189L272.599 288.626C272.599 288.626 276.53 289.407 276.872 291.373C277.214 293.339 275.857 299.002 273.795 303.597Z" fill="url(#paint72_linear_471_892)"/>
<path d="M266.873 308.331C265.912 310.468 264.961 321.153 264.224 331.839L264.16 332.79C264.075 334.04 263.989 335.29 263.914 336.519C263.754 339.062 263.615 341.541 263.476 343.817C263.081 350.763 262.846 355.924 262.846 355.924C262.13 356.706 261.044 357.034 260.015 356.779C257.996 356.501 257.718 355.785 257.718 355.785L257.398 340.825L257.27 334.724L257.131 328.313L256.682 306.877L256.533 300.124L263.06 295.23L265.698 293.253C265.698 293.253 265.912 293.253 266.158 293.371C267.33 293.637 268.426 294.167 269.363 294.92L269.63 295.23C269.806 295.455 269.927 295.719 269.982 296C270.335 297.976 268.935 303.725 266.873 308.331Z" fill="url(#paint73_linear_471_892)"/>
<path d="M236.31 249.314C235.482 249.051 234.767 248.516 234.28 247.797C232.561 245.339 235.221 245.436 232.753 243.149C231.877 242.337 232.945 241.311 234.718 240.745C236.492 240.178 238.991 244.42 238.639 247.765C238.286 251.11 236.31 249.314 236.31 249.314Z" fill="url(#paint74_linear_471_892)"/>
<path d="M259.139 235.765C258.356 235.546 257.671 235.067 257.195 234.408C255.507 232.164 257.996 232.164 255.625 230.134C254.781 229.408 255.742 228.403 257.387 227.826C259.032 227.249 261.511 231.128 261.265 234.237C261.019 237.347 259.139 235.765 259.139 235.765Z" fill="url(#paint75_linear_471_892)"/>
<path d="M273.817 260.663C273.817 260.663 264.726 233.062 259.684 234.515C255.176 235.819 266.371 261.229 266.371 261.229L273.817 260.663Z" fill="url(#paint76_linear_471_892)"/>
<path d="M267.621 255.502L267.984 260.096C267.984 260.096 265.848 262.233 265.784 262.233C265.72 262.233 261.959 261.859 261.959 261.859C261.994 259.948 261.919 258.035 261.735 256.132L261.489 255.427L266.959 254.048L267.621 255.502Z" fill="url(#paint77_linear_471_892)"/>
<path d="M259.235 246.301C259.235 246.301 256.746 251.794 257.408 252.136C258.071 252.478 257.12 256.784 259.812 256.698C262.906 256.707 265.745 254.988 267.172 252.243C268.914 249.037 264.47 244.549 264.47 244.549L261.179 243.673L259.235 246.301Z" fill="url(#paint78_linear_471_892)"/>
<path d="M259.385 238.597C259.385 238.597 255.582 243.673 259.235 246.301C262.889 248.93 262.547 249.998 261.981 251.067C261.64 251.629 261.562 252.312 261.767 252.937C261.767 252.937 264.897 249.176 265.282 251.484C265.666 253.792 262.013 254.422 264.213 255.437C266.414 256.452 271.413 255.074 272.321 250.479C273.229 245.885 270.185 244.164 270.185 244.164C270.185 244.164 270.431 241.386 268.433 240.371C266.435 239.356 264.801 240.531 263.957 240.05C263.113 239.569 264.374 237.08 262.579 236.31C261.564 235.883 259.385 238.597 259.385 238.597Z" fill="#012860"/>
<path d="M278.4 293.852C277.879 294.434 277.283 294.944 276.627 295.369C276.282 295.567 275.926 295.742 275.558 295.893C275.265 296.018 274.966 296.129 274.661 296.224L273.764 292.548L273.347 296.608C273.347 296.608 272.054 297.527 266.297 298.885C262.424 299.679 258.435 299.723 254.546 299.013C254.078 296.861 254.049 294.637 254.46 292.473C255.091 288.349 255.785 288.285 256.351 280.142C256.917 272 249.942 267.555 243.852 260.908C237.763 254.262 234.238 250.223 237.379 247.765C239.248 246.291 246.908 253.888 252.687 258.216H252.751C255.411 260.192 257.654 261.421 258.755 260.812L262.162 258.857C264.881 257.292 268.137 256.961 271.114 257.948L271.552 258.098C274.949 259.412 275.291 263.259 274.757 268.783C274.757 268.944 274.757 269.115 274.757 269.286C274.17 275.045 275.825 278.903 277.065 283.551C277.864 286.929 278.311 290.381 278.4 293.852Z" fill="url(#paint79_linear_471_892)"/>
<path d="M258.733 260.94C257.665 261.87 256.597 265.129 255.09 266.208C253.584 267.287 255.09 264.573 255.389 262.618C255.678 260.876 253.253 258.75 252.729 258.344C255.389 260.321 257.633 261.581 258.733 260.94Z" fill="url(#paint80_linear_471_892)"/>
<path d="M278.4 293.851C277.879 294.434 277.283 294.944 276.627 295.369C276.283 295.567 275.926 295.742 275.558 295.892C275.228 295.122 275.131 294.271 275.281 293.445C275.74 289.599 272.076 291.169 269.362 289.898C266.649 288.626 273.23 284.555 273.753 281.702C274.383 278.903 272.776 276.086 270.046 275.205C267.076 273.976 274.746 268.794 274.746 268.794C274.746 268.954 274.746 269.125 274.746 269.296C274.159 275.056 275.815 278.913 277.054 283.561C277.856 286.936 278.307 290.384 278.4 293.851Z" fill="url(#paint81_linear_471_892)"/>
<path d="M318.523 435.509L310.127 430.647L305.929 433.083L314.336 437.934L318.523 435.509Z" fill="url(#paint82_linear_471_892)"/>
<path d="M305.929 433.083V437.935L314.336 442.786V437.935L305.929 433.083Z" fill="url(#paint83_linear_471_892)"/>
<path d="M301.88 445.211L293.483 440.35L289.285 442.786L297.692 447.637L301.88 445.211Z" fill="url(#paint84_linear_471_892)"/>
<path d="M289.285 442.786V447.637L297.692 452.489V447.637L289.285 442.786Z" fill="url(#paint85_linear_471_892)"/>
<path d="M284.607 454.914L276.21 450.052L272.012 452.489L280.419 457.34L284.607 454.914Z" fill="url(#paint86_linear_471_892)"/>
<path d="M272.012 452.488V457.34L280.419 462.191V457.34L272.012 452.488Z" fill="url(#paint87_linear_471_892)"/>
<path fill-rule="evenodd" clip-rule="evenodd" d="M331.642 435.509L331.631 440.36L335.83 442.786V437.935L331.642 435.509Z" stroke="black"/>
<path d="M331.642 435.509L340.038 430.647L344.236 433.083L335.829 437.934L331.642 435.509Z" fill="url(#paint88_linear_471_892)"/>
<path d="M344.237 433.083V437.935L335.83 442.786V437.935L344.237 433.083Z" fill="url(#paint89_linear_471_892)"/>
<path fill-rule="evenodd" clip-rule="evenodd" d="M348.285 445.211V450.063L352.473 452.488V447.637L348.285 445.211Z" stroke="black"/>
<path d="M348.285 445.211L356.692 440.35L360.891 442.786L352.473 447.637L348.285 445.211Z" fill="url(#paint90_linear_471_892)"/>
<path d="M360.891 442.786V447.637L352.473 452.489V447.637L360.891 442.786Z" fill="url(#paint91_linear_471_892)"/>
<path fill-rule="evenodd" clip-rule="evenodd" d="M365.559 454.914L365.548 459.765L369.747 462.191V457.34L365.559 454.914Z" stroke="black"/>
<path d="M365.559 454.914L373.956 450.052L378.154 452.489L369.747 457.34L365.559 454.914Z" fill="url(#paint92_linear_471_892)"/>
<path d="M378.154 452.488V457.34L369.747 462.191V457.34L378.154 452.488Z" fill="url(#paint93_linear_471_892)"/>
<path d="M274.34 453.621L324.987 483.155L375.889 454.027L325.243 424.492L274.34 453.621Z" fill="#F3F6FF"/>
<path d="M274.34 453.621L274.372 473.368L325.115 502.678L324.987 483.156L274.34 453.621Z" fill="#D4DFFC"/>
<path d="M273.005 469.382L272.994 474.233L277.192 476.659V471.807L273.005 469.382Z" fill="#D4DFFC"/>
<path d="M273.005 469.382L281.401 464.52L285.6 466.956L277.192 471.808L273.005 469.382Z" fill="url(#paint94_linear_471_892)"/>
<path d="M285.6 466.957V471.808L277.193 476.659V471.808L285.6 466.957Z" fill="url(#paint95_linear_471_892)"/>
<path d="M289.648 479.084L289.638 483.936L293.836 486.361V481.51L289.648 479.084Z" fill="#D4DFFC"/>
<path d="M289.648 479.085L298.045 474.223L302.243 476.659L293.836 481.51L289.648 479.085Z" fill="url(#paint96_linear_471_892)"/>
<path d="M302.243 476.659V481.51L293.836 486.361V481.51L302.243 476.659Z" fill="url(#paint97_linear_471_892)"/>
<path d="M306.922 488.787L306.912 493.638L311.11 496.064V491.213L306.922 488.787Z" fill="#D4DFFC"/>
<path d="M306.922 488.787L315.319 483.925L319.517 486.361L311.11 491.212L306.922 488.787Z" fill="url(#paint98_linear_471_892)"/>
<path d="M319.517 486.361V491.213L311.11 496.064V491.213L319.517 486.361Z" fill="url(#paint99_linear_471_892)"/>
<path d="M325.115 502.678L375.889 473.357V454.027L324.986 483.155L325.115 502.678Z" fill="#DEE7FC"/>
<path d="M377.086 469.393L377.096 474.244L372.898 476.669V471.818L377.086 469.393Z" fill="#D4DFFC"/>
<path d="M377.085 469.393L368.689 464.531L364.491 466.956L372.898 471.818L377.085 469.393Z" fill="url(#paint100_linear_471_892)"/>
<path d="M364.491 466.957V471.808L372.898 476.67V471.818L364.491 466.957Z" fill="url(#paint101_linear_471_892)"/>
<path d="M360.442 479.095L360.453 483.946L356.254 486.372V481.521L360.442 479.095Z" fill="#D4DFFC"/>
<path d="M360.442 479.095L352.045 474.233L347.847 476.67L356.254 481.521L360.442 479.095Z" fill="url(#paint102_linear_471_892)"/>
<path d="M347.847 476.669V481.51L356.254 486.372V481.521L347.847 476.669Z" fill="url(#paint103_linear_471_892)"/>
<path d="M343.179 488.798V493.649L338.981 496.075V491.223L343.179 488.798Z" fill="#D4DFFC"/>
<path d="M343.179 488.797L334.772 483.936L330.574 486.372L338.981 491.223L343.179 488.797Z" fill="url(#paint104_linear_471_892)"/>
<path d="M330.574 486.372V491.213L338.981 496.074V491.223L330.574 486.372Z" fill="url(#paint105_linear_471_892)"/>
<path d="M348.947 469.446L297.959 440.104L301.592 437.988L352.612 467.352L348.947 469.446Z" fill="url(#paint106_linear_471_892)"/>
<defs>
<linearGradient id="paint0_linear_471_892" x1="220.5" y1="330.952" x2="625.638" y2="330.952" gradientUnits="userSpaceOnUse">
<stop stop-color="white"/>
<stop offset="0.44" stop-color="#FDFEFF"/>
<stop offset="0.67" stop-color="#F5F9FF"/>
<stop offset="0.84" stop-color="#E8F2FF"/>
<stop offset="0.99" stop-color="#D5E8FF"/>
<stop offset="1" stop-color="#D4E7FF"/>
</linearGradient>
<linearGradient id="paint1_linear_471_892" x1="0.801888" y1="402.395" x2="220.618" y2="402.395" gradientUnits="userSpaceOnUse">
<stop stop-color="#D4E7FF"/>
<stop offset="0.01" stop-color="#D5E8FF"/>
<stop offset="0.16" stop-color="#E8F2FF"/>
<stop offset="0.33" stop-color="#F5F9FF"/>
<stop offset="0.56" stop-color="#FDFEFF"/>
<stop offset="1" stop-color="white"/>
</linearGradient>
<linearGradient id="paint2_linear_471_892" x1="192.929" y1="472.502" x2="329.591" y2="472.502" gradientUnits="userSpaceOnUse">
<stop stop-color="#D4E7FF"/>
<stop offset="0.01" stop-color="#D5E8FF"/>
<stop offset="0.16" stop-color="#E8F2FF"/>
<stop offset="0.33" stop-color="#F5F9FF"/>
<stop offset="0.56" stop-color="#FDFEFF"/>
<stop offset="1" stop-color="white"/>
</linearGradient>
<linearGradient id="paint3_linear_471_892" x1="159.203" y1="412.492" x2="537.891" y2="412.492" gradientUnits="userSpaceOnUse">
<stop stop-color="#E9F2FF"/>
<stop offset="0.28" stop-color="#C7DBFF"/>
<stop offset="0.56" stop-color="#ABC8FF"/>
<stop offset="0.81" stop-color="#9ABDFF"/>
<stop offset="1" stop-color="#94B9FF"/>
</linearGradient>
<linearGradient id="paint4_linear_471_892" x1="130.841" y1="436.577" x2="206.378" y2="436.577" gradientUnits="userSpaceOnUse">
<stop stop-color="#6AAEFF"/>
<stop offset="1" stop-color="#005EFF"/>
</linearGradient>
<linearGradient id="paint5_linear_471_892" x1="139.44" y1="470.387" x2="249.525" y2="470.387" gradientUnits="userSpaceOnUse">
<stop stop-color="#6AAEFF"/>
<stop offset="1" stop-color="#005EFF"/>
</linearGradient>
<linearGradient id="paint6_linear_471_892" x1="105.982" y1="407.513" x2="164.544" y2="407.513" gradientUnits="userSpaceOnUse">
<stop stop-color="#6AAEFF"/>
<stop offset="1" stop-color="#005EFF"/>
</linearGradient>
<linearGradient id="paint7_linear_471_892" x1="358.995" y1="397.143" x2="506.278" y2="402.439" gradientUnits="userSpaceOnUse">
<stop stop-color="#E9F2FF"/>
<stop offset="1" stop-color="#E9F1FF"/>
</linearGradient>
<linearGradient id="paint8_linear_471_892" x1="359.627" y1="379.576" x2="506.91" y2="384.872" gradientUnits="userSpaceOnUse">
<stop stop-color="#E9EFFF"/>
<stop offset="1" stop-color="#D4E3FF"/>
</linearGradient>
<linearGradient id="paint9_linear_471_892" x1="410.289" y1="380.731" x2="456.476" y2="380.731" gradientUnits="userSpaceOnUse">
<stop stop-color="#F22AFF"/>
<stop offset="1" stop-color="#6C00E9"/>
</linearGradient>
<linearGradient id="paint10_linear_471_892" x1="391.517" y1="355.603" x2="394.249" y2="355.702" gradientUnits="userSpaceOnUse">
<stop stop-color="#004DAA"/>
<stop offset="1" stop-color="#0029E9"/>
</linearGradient>
<linearGradient id="paint11_linear_471_892" x1="433.767" y1="308.373" x2="439.579" y2="308.373" gradientUnits="userSpaceOnUse">
<stop stop-color="#004DAA"/>
<stop offset="1" stop-color="#0029E9"/>
</linearGradient>
<linearGradient id="paint12_linear_471_892" x1="457.024" y1="332.319" x2="472.631" y2="332.319" gradientUnits="userSpaceOnUse">
<stop stop-color="#004DAA"/>
<stop offset="1" stop-color="#0029E9"/>
</linearGradient>
<linearGradient id="paint13_linear_471_892" x1="500.278" y1="398.253" x2="502.334" y2="398.327" gradientUnits="userSpaceOnUse">
<stop stop-color="#6AAEFF"/>
<stop offset="1" stop-color="#005EFF"/>
</linearGradient>
<linearGradient id="paint14_linear_471_892" x1="446.736" y1="360.027" x2="463.187" y2="360.027" gradientUnits="userSpaceOnUse">
<stop stop-color="#004DAA"/>
<stop offset="1" stop-color="#0029E9"/>
</linearGradient>
<linearGradient id="paint15_linear_471_892" x1="472.297" y1="403.676" x2="477.22" y2="403.853" gradientUnits="userSpaceOnUse">
<stop stop-color="#002255"/>
<stop offset="1" stop-color="#003A7F"/>
</linearGradient>
<linearGradient id="paint16_linear_471_892" x1="448.634" y1="419.994" x2="476.881" y2="421.01" gradientUnits="userSpaceOnUse">
<stop stop-color="#6AAEFF"/>
<stop offset="1" stop-color="#005EFF"/>
</linearGradient>
<linearGradient id="paint17_linear_471_892" x1="409.262" y1="376.461" x2="416.782" y2="376.461" gradientUnits="userSpaceOnUse">
<stop stop-color="#004DAA"/>
<stop offset="1" stop-color="#0029E9"/>
</linearGradient>
<linearGradient id="paint18_linear_471_892" x1="427.989" y1="415.406" x2="441.243" y2="415.882" gradientUnits="userSpaceOnUse">
<stop stop-color="#002255"/>
<stop offset="1" stop-color="#003A7F"/>
</linearGradient>
<linearGradient id="paint19_linear_471_892" x1="389.948" y1="377.765" x2="395.994" y2="377.765" gradientUnits="userSpaceOnUse">
<stop stop-color="#004DAA"/>
<stop offset="1" stop-color="#0029E9"/>
</linearGradient>
<linearGradient id="paint20_linear_471_892" x1="391.196" y1="406.719" x2="396.934" y2="406.926" gradientUnits="userSpaceOnUse">
<stop stop-color="#002255"/>
<stop offset="1" stop-color="#003A7F"/>
</linearGradient>
<linearGradient id="paint21_linear_471_892" x1="392.338" y1="421.658" x2="421.66" y2="422.712" gradientUnits="userSpaceOnUse">
<stop stop-color="#6AAEFF"/>
<stop offset="1" stop-color="#005EFF"/>
</linearGradient>
<linearGradient id="paint22_linear_471_892" x1="340.765" y1="366.941" x2="356.821" y2="366.941" gradientUnits="userSpaceOnUse">
<stop stop-color="#004DAA"/>
<stop offset="1" stop-color="#0029E9"/>
</linearGradient>
<linearGradient id="paint23_linear_471_892" x1="364.984" y1="402.142" x2="368.419" y2="402.266" gradientUnits="userSpaceOnUse">
<stop stop-color="#6AAEFF"/>
<stop offset="1" stop-color="#005EFF"/>
</linearGradient>
<linearGradient id="paint24_linear_471_892" x1="326.332" y1="341.509" x2="343.467" y2="341.509" gradientUnits="userSpaceOnUse">
<stop stop-color="#004DAA"/>
<stop offset="1" stop-color="#0029E9"/>
</linearGradient>
<linearGradient id="paint25_linear_471_892" x1="388.877" y1="367.435" x2="507.415" y2="371.698" gradientUnits="userSpaceOnUse">
<stop stop-color="#D4E3FF"/>
<stop offset="1" stop-color="#E9EFFF"/>
</linearGradient>
<linearGradient id="paint26_linear_471_892" x1="42.8911" y1="338.357" x2="47.1001" y2="338.357" gradientUnits="userSpaceOnUse">
<stop stop-color="#E9F2FF"/>
<stop offset="0.28" stop-color="#C7DBFF"/>
<stop offset="0.56" stop-color="#ABC8FF"/>
<stop offset="0.81" stop-color="#9ABDFF"/>
<stop offset="1" stop-color="#94B9FF"/>
</linearGradient>
<linearGradient id="paint27_linear_471_892" x1="60.7406" y1="265.65" x2="29.5261" y2="265.65" gradientUnits="userSpaceOnUse">
<stop stop-color="#E9F2FF"/>
<stop offset="0.28" stop-color="#C7DBFF"/>
<stop offset="0.56" stop-color="#ABC8FF"/>
<stop offset="0.81" stop-color="#9ABDFF"/>
<stop offset="1" stop-color="#94B9FF"/>
</linearGradient>
<linearGradient id="paint28_linear_471_892" x1="614.432" y1="310.906" x2="616.825" y2="310.906" gradientUnits="userSpaceOnUse">
<stop stop-color="#E9F2FF"/>
<stop offset="0.28" stop-color="#C7DBFF"/>
<stop offset="0.56" stop-color="#ABC8FF"/>
<stop offset="0.81" stop-color="#9ABDFF"/>
<stop offset="1" stop-color="#94B9FF"/>
</linearGradient>
<linearGradient id="paint29_linear_471_892" x1="624.714" y1="247.224" x2="606.992" y2="247.224" gradientUnits="userSpaceOnUse">
<stop stop-color="#E9F2FF"/>
<stop offset="0.28" stop-color="#C7DBFF"/>
<stop offset="0.56" stop-color="#ABC8FF"/>
<stop offset="0.81" stop-color="#9ABDFF"/>
<stop offset="1" stop-color="#94B9FF"/>
</linearGradient>
<linearGradient id="paint30_linear_471_892" x1="394.146" y1="196.058" x2="398.365" y2="196.058" gradientUnits="userSpaceOnUse">
<stop stop-color="#E9F2FF"/>
<stop offset="0.28" stop-color="#C7DBFF"/>
<stop offset="0.56" stop-color="#ABC8FF"/>
<stop offset="0.81" stop-color="#9ABDFF"/>
<stop offset="1" stop-color="#94B9FF"/>
</linearGradient>
<linearGradient id="paint31_linear_471_892" x1="411.917" y1="122.706" x2="380.703" y2="122.706" gradientUnits="userSpaceOnUse">
<stop stop-color="#E9F2FF"/>
<stop offset="0.28" stop-color="#C7DBFF"/>
<stop offset="0.56" stop-color="#ABC8FF"/>
<stop offset="0.81" stop-color="#9ABDFF"/>
<stop offset="1" stop-color="#94B9FF"/>
</linearGradient>
<linearGradient id="paint32_linear_471_892" x1="254.973" y1="472.609" x2="257.088" y2="472.609" gradientUnits="userSpaceOnUse">
<stop stop-color="#E9F2FF"/>
<stop offset="0.28" stop-color="#C7DBFF"/>
<stop offset="0.56" stop-color="#ABC8FF"/>
<stop offset="0.81" stop-color="#9ABDFF"/>
<stop offset="1" stop-color="#94B9FF"/>
</linearGradient>
<linearGradient id="paint33_linear_471_892" x1="263.829" y1="409.148" x2="248.222" y2="409.148" gradientUnits="userSpaceOnUse">
<stop stop-color="#E9F2FF"/>
<stop offset="0.28" stop-color="#C7DBFF"/>
<stop offset="0.56" stop-color="#ABC8FF"/>
<stop offset="0.81" stop-color="#9ABDFF"/>
<stop offset="1" stop-color="#94B9FF"/>
</linearGradient>
<linearGradient id="paint34_linear_471_892" x1="114.54" y1="111.995" x2="323.288" y2="111.995" gradientUnits="userSpaceOnUse">
<stop stop-color="#6AAEFF"/>
<stop offset="1" stop-color="#005EFF"/>
</linearGradient>
<linearGradient id="paint35_linear_471_892" x1="79.7461" y1="273.1" x2="149.343" y2="273.1" gradientUnits="userSpaceOnUse">
<stop stop-color="#6AAEFF"/>
<stop offset="1" stop-color="#005EFF"/>
</linearGradient>
<linearGradient id="paint36_linear_471_892" x1="102.244" y1="261.368" x2="132.967" y2="261.368" gradientUnits="userSpaceOnUse">
<stop stop-color="#3F81FF"/>
<stop offset="1" stop-color="#002BD4"/>
</linearGradient>
<linearGradient id="paint37_linear_471_892" x1="94.9905" y1="269.735" x2="140.21" y2="269.735" gradientUnits="userSpaceOnUse">
<stop stop-color="#3F81FF"/>
<stop offset="1" stop-color="#002BD4"/>
</linearGradient>
<linearGradient id="paint38_linear_471_892" x1="94.9905" y1="278.101" x2="140.21" y2="278.101" gradientUnits="userSpaceOnUse">
<stop stop-color="#3F81FF"/>
<stop offset="1" stop-color="#002BD4"/>
</linearGradient>
<linearGradient id="paint39_linear_471_892" x1="94.9906" y1="286.478" x2="140.21" y2="286.478" gradientUnits="userSpaceOnUse">
<stop stop-color="#3F81FF"/>
<stop offset="1" stop-color="#002BD4"/>
</linearGradient>
<linearGradient id="paint40_linear_471_892" x1="102.244" y1="294.845" x2="132.967" y2="294.845" gradientUnits="userSpaceOnUse">
<stop stop-color="#3F81FF"/>
<stop offset="1" stop-color="#002BD4"/>
</linearGradient>
<linearGradient id="paint41_linear_471_892" x1="210.063" y1="258.29" x2="261.318" y2="258.29" gradientUnits="userSpaceOnUse">
<stop stop-color="#FF0007"/>
<stop offset="1" stop-color="#FFAAAC"/>
</linearGradient>
<linearGradient id="paint42_linear_471_892" x1="406.441" y1="275.067" x2="556.468" y2="275.067" gradientUnits="userSpaceOnUse">
<stop stop-color="#FF0007"/>
<stop offset="1" stop-color="#FFAAAC"/>
</linearGradient>
<linearGradient id="paint43_linear_471_892" x1="543.061" y1="301.331" x2="593.163" y2="301.331" gradientUnits="userSpaceOnUse">
<stop stop-color="#FF0007"/>
<stop offset="1" stop-color="#FFAAAC"/>
</linearGradient>
<linearGradient id="paint44_linear_471_892" x1="444.14" y1="201.678" x2="580.717" y2="201.678" gradientUnits="userSpaceOnUse">
<stop stop-color="#6AAEFF"/>
<stop offset="1" stop-color="#005EFF"/>
</linearGradient>
<linearGradient id="paint45_linear_471_892" x1="518.47" y1="139.927" x2="534.045" y2="139.927" gradientUnits="userSpaceOnUse">
<stop stop-color="#E9EFFF"/>
<stop offset="1" stop-color="#D4E3FF"/>
</linearGradient>
<linearGradient id="paint46_linear_471_892" x1="507.52" y1="96.993" x2="513.759" y2="96.993" gradientUnits="userSpaceOnUse">
<stop stop-color="#E9EFFF"/>
<stop offset="1" stop-color="#D4E3FF"/>
</linearGradient>
<linearGradient id="paint47_linear_471_892" x1="496.09" y1="222.312" x2="505.811" y2="222.312" gradientUnits="userSpaceOnUse">
<stop stop-color="#6AAEFF"/>
<stop offset="1" stop-color="#005EFF"/>
</linearGradient>
<linearGradient id="paint48_linear_471_892" x1="196.625" y1="54.7104" x2="224.784" y2="54.7104" gradientUnits="userSpaceOnUse">
<stop stop-color="#6AAEFF"/>
<stop offset="1" stop-color="#005EFF"/>
</linearGradient>
<linearGradient id="paint49_linear_471_892" x1="438.457" y1="275.077" x2="556.468" y2="275.077" gradientUnits="userSpaceOnUse">
<stop stop-color="#FF0007"/>
<stop offset="1" stop-color="#FFAAAC"/>
</linearGradient>
<linearGradient id="paint50_linear_471_892" x1="567.524" y1="292.153" x2="593.163" y2="292.153" gradientUnits="userSpaceOnUse">
<stop stop-color="#FF0007"/>
<stop offset="1" stop-color="#FFAAAC"/>
</linearGradient>
<linearGradient id="paint51_linear_471_892" x1="311.366" y1="244.666" x2="385.813" y2="244.666" gradientUnits="userSpaceOnUse">
<stop stop-color="#E9F2FF"/>
<stop offset="1" stop-color="#D4E3FF"/>
</linearGradient>
<linearGradient id="paint52_linear_471_892" x1="348.595" y1="259.006" x2="385.813" y2="259.006" gradientUnits="userSpaceOnUse">
<stop stop-color="#6AAEFF"/>
<stop offset="1" stop-color="#005EFF"/>
</linearGradient>
<linearGradient id="paint53_linear_471_892" x1="311.366" y1="259.006" x2="348.595" y2="259.006" gradientUnits="userSpaceOnUse">
<stop stop-color="#6AAEFF"/>
<stop offset="1" stop-color="#005EFF"/>
</linearGradient>
<linearGradient id="paint54_linear_471_892" x1="321.504" y1="291.116" x2="338.062" y2="291.116" gradientUnits="userSpaceOnUse">
<stop stop-color="#FF0007"/>
<stop offset="1" stop-color="#FFAAAC"/>
</linearGradient>
<linearGradient id="paint55_linear_471_892" x1="321.504" y1="291.244" x2="338.447" y2="291.244" gradientUnits="userSpaceOnUse">
<stop stop-color="#FF0007"/>
<stop offset="1" stop-color="#FFAAAC"/>
</linearGradient>
<linearGradient id="paint56_linear_471_892" x1="358.54" y1="291.116" x2="375.098" y2="291.116" gradientUnits="userSpaceOnUse">
<stop stop-color="#FF0007"/>
<stop offset="1" stop-color="#FFAAAC"/>
</linearGradient>
<linearGradient id="paint57_linear_471_892" x1="358.156" y1="291.244" x2="375.098" y2="291.244" gradientUnits="userSpaceOnUse">
<stop stop-color="#FF0007"/>
<stop offset="1" stop-color="#FFAAAC"/>
</linearGradient>
<linearGradient id="paint58_linear_471_892" x1="215.405" y1="200.92" x2="233.213" y2="200.92" gradientUnits="userSpaceOnUse">
<stop stop-color="#6AAEFF"/>
<stop offset="1" stop-color="#005EFF"/>
</linearGradient>
<linearGradient id="paint59_linear_471_892" x1="226.92" y1="212.001" x2="260.079" y2="212.001" gradientUnits="userSpaceOnUse">
<stop stop-color="#6AAEFF"/>
<stop offset="1" stop-color="#005EFF"/>
</linearGradient>
<linearGradient id="paint60_linear_471_892" x1="311.377" y1="233.917" x2="385.813" y2="233.917" gradientUnits="userSpaceOnUse">
<stop stop-color="#E9F2FF"/>
<stop offset="1" stop-color="#AAC9FF"/>
</linearGradient>
<linearGradient id="paint61_linear_471_892" x1="525.68" y1="241.514" x2="539.845" y2="241.514" gradientUnits="userSpaceOnUse">
<stop stop-color="#FFD4D5"/>
<stop offset="1" stop-color="#FF7F83"/>
</linearGradient>
<linearGradient id="paint62_linear_471_892" x1="517.903" y1="235.766" x2="531.844" y2="235.766" gradientUnits="userSpaceOnUse">
<stop stop-color="#FFD4D5"/>
<stop offset="1" stop-color="#FF7F83"/>
</linearGradient>
<linearGradient id="paint63_linear_471_892" x1="519.602" y1="214.993" x2="553.284" y2="214.993" gradientUnits="userSpaceOnUse">
<stop stop-color="#F22AFF"/>
<stop offset="1" stop-color="#6C00E9"/>
</linearGradient>
<linearGradient id="paint64_linear_471_892" x1="532.774" y1="192.372" x2="564.202" y2="192.372" gradientUnits="userSpaceOnUse">
<stop stop-color="#E9EFFF"/>
<stop offset="1" stop-color="#D4E3FF"/>
</linearGradient>
<linearGradient id="paint65_linear_471_892" x1="545.133" y1="177.113" x2="549.876" y2="177.113" gradientUnits="userSpaceOnUse">
<stop stop-color="#FFD4D5"/>
<stop offset="1" stop-color="#FF7F83"/>
</linearGradient>
<linearGradient id="paint66_linear_471_892" x1="541.17" y1="168.735" x2="551.191" y2="168.735" gradientUnits="userSpaceOnUse">
<stop stop-color="#FFD4D5"/>
<stop offset="1" stop-color="#FF7F83"/>
</linearGradient>
<linearGradient id="paint67_linear_471_892" x1="562.236" y1="161.779" x2="574.724" y2="161.779" gradientUnits="userSpaceOnUse">
<stop stop-color="#FFD4D5"/>
<stop offset="1" stop-color="#FF7F83"/>
</linearGradient>
<linearGradient id="paint68_linear_471_892" x1="502.927" y1="167.218" x2="507.264" y2="167.218" gradientUnits="userSpaceOnUse">
<stop stop-color="#FFD4D5"/>
<stop offset="1" stop-color="#FF7F83"/>
</linearGradient>
<linearGradient id="paint69_linear_471_892" x1="264.224" y1="313.972" x2="272.418" y2="313.972" gradientUnits="userSpaceOnUse">
<stop stop-color="#002255"/>
<stop offset="1" stop-color="#003A7F"/>
</linearGradient>
<linearGradient id="paint70_linear_471_892" x1="247.73" y1="358.884" x2="263.658" y2="358.884" gradientUnits="userSpaceOnUse">
<stop stop-color="#6AAEFF"/>
<stop offset="1" stop-color="#005EFF"/>
</linearGradient>
<linearGradient id="paint71_linear_471_892" x1="254.652" y1="354.16" x2="270.58" y2="354.16" gradientUnits="userSpaceOnUse">
<stop stop-color="#6AAEFF"/>
<stop offset="1" stop-color="#005EFF"/>
</linearGradient>
<linearGradient id="paint72_linear_471_892" x1="263.455" y1="320.341" x2="276.958" y2="320.341" gradientUnits="userSpaceOnUse">
<stop stop-color="#002255"/>
<stop offset="1" stop-color="#003A7F"/>
</linearGradient>
<linearGradient id="paint73_linear_471_892" x1="256.533" y1="325.064" x2="270.036" y2="325.064" gradientUnits="userSpaceOnUse">
<stop stop-color="#002255"/>
<stop offset="1" stop-color="#003A7F"/>
</linearGradient>
<linearGradient id="paint74_linear_471_892" x1="232.443" y1="245.243" x2="238.671" y2="245.243" gradientUnits="userSpaceOnUse">
<stop stop-color="#FFD4D5"/>
<stop offset="1" stop-color="#FF7F83"/>
</linearGradient>
<linearGradient id="paint75_linear_471_892" x1="255.315" y1="231.961" x2="261.286" y2="231.961" gradientUnits="userSpaceOnUse">
<stop stop-color="#FFD4D5"/>
<stop offset="1" stop-color="#FF7F83"/>
</linearGradient>
<linearGradient id="paint76_linear_471_892" x1="258.615" y1="247.819" x2="273.817" y2="247.819" gradientUnits="userSpaceOnUse">
<stop stop-color="#6AAEFF"/>
<stop offset="1" stop-color="#002FE9"/>
</linearGradient>
<linearGradient id="paint77_linear_471_892" x1="261.489" y1="258.141" x2="267.984" y2="258.141" gradientUnits="userSpaceOnUse">
<stop stop-color="#FFD4D5"/>
<stop offset="1" stop-color="#FF7F83"/>
</linearGradient>
<linearGradient id="paint78_linear_471_892" x1="257.302" y1="250.18" x2="267.568" y2="250.18" gradientUnits="userSpaceOnUse">
<stop stop-color="#FFD4D5"/>
<stop offset="1" stop-color="#FF7F83"/>
</linearGradient>
<linearGradient id="paint79_linear_471_892" x1="236.204" y1="273.603" x2="278.4" y2="273.603" gradientUnits="userSpaceOnUse">
<stop stop-color="#6AAEFF"/>
<stop offset="1" stop-color="#005EFF"/>
</linearGradient>
<linearGradient id="paint80_linear_471_892" x1="252.729" y1="262.404" x2="258.733" y2="262.404" gradientUnits="userSpaceOnUse">
<stop stop-color="#6A8CFF"/>
<stop offset="1" stop-color="#0011BF"/>
</linearGradient>
<linearGradient id="paint81_linear_471_892" x1="268.689" y1="282.397" x2="278.4" y2="282.397" gradientUnits="userSpaceOnUse">
<stop stop-color="#6A8CFF"/>
<stop offset="1" stop-color="#0011BF"/>
</linearGradient>
<linearGradient id="paint82_linear_471_892" x1="305.929" y1="434.291" x2="318.523" y2="434.291" gradientUnits="userSpaceOnUse">
<stop stop-color="#6AAEFF"/>
<stop offset="1" stop-color="#005EFF"/>
</linearGradient>
<linearGradient id="paint83_linear_471_892" x1="305.929" y1="437.935" x2="314.336" y2="437.935" gradientUnits="userSpaceOnUse">
<stop stop-color="#6AAEFF"/>
<stop offset="1" stop-color="#005EFF"/>
</linearGradient>
<linearGradient id="paint84_linear_471_892" x1="289.285" y1="443.993" x2="301.88" y2="443.993" gradientUnits="userSpaceOnUse">
<stop stop-color="#6AAEFF"/>
<stop offset="1" stop-color="#005EFF"/>
</linearGradient>
<linearGradient id="paint85_linear_471_892" x1="289.285" y1="447.637" x2="297.692" y2="447.637" gradientUnits="userSpaceOnUse">
<stop stop-color="#6AAEFF"/>
<stop offset="1" stop-color="#005EFF"/>
</linearGradient>
<linearGradient id="paint86_linear_471_892" x1="272.012" y1="453.696" x2="284.607" y2="453.696" gradientUnits="userSpaceOnUse">
<stop stop-color="#6AAEFF"/>
<stop offset="1" stop-color="#005EFF"/>
</linearGradient>
<linearGradient id="paint87_linear_471_892" x1="272.012" y1="457.34" x2="280.419" y2="457.34" gradientUnits="userSpaceOnUse">
<stop stop-color="#6AAEFF"/>
<stop offset="1" stop-color="#005EFF"/>
</linearGradient>
<linearGradient id="paint88_linear_471_892" x1="331.642" y1="434.291" x2="344.236" y2="434.291" gradientUnits="userSpaceOnUse">
<stop stop-color="#6AAEFF"/>
<stop offset="1" stop-color="#005EFF"/>
</linearGradient>
<linearGradient id="paint89_linear_471_892" x1="335.83" y1="437.935" x2="344.237" y2="437.935" gradientUnits="userSpaceOnUse">
<stop stop-color="#6AAEFF"/>
<stop offset="1" stop-color="#005EFF"/>
</linearGradient>
<linearGradient id="paint90_linear_471_892" x1="348.285" y1="443.993" x2="360.891" y2="443.993" gradientUnits="userSpaceOnUse">
<stop stop-color="#6AAEFF"/>
<stop offset="1" stop-color="#005EFF"/>
</linearGradient>
<linearGradient id="paint91_linear_471_892" x1="352.483" y1="447.637" x2="360.891" y2="447.637" gradientUnits="userSpaceOnUse">
<stop stop-color="#6AAEFF"/>
<stop offset="1" stop-color="#005EFF"/>
</linearGradient>
<linearGradient id="paint92_linear_471_892" x1="365.559" y1="453.696" x2="378.154" y2="453.696" gradientUnits="userSpaceOnUse">
<stop stop-color="#6AAEFF"/>
<stop offset="1" stop-color="#005EFF"/>
</linearGradient>
<linearGradient id="paint93_linear_471_892" x1="369.747" y1="457.34" x2="378.154" y2="457.34" gradientUnits="userSpaceOnUse">
<stop stop-color="#6AAEFF"/>
<stop offset="1" stop-color="#005EFF"/>
</linearGradient>
<linearGradient id="paint94_linear_471_892" x1="273.005" y1="468.164" x2="285.6" y2="468.164" gradientUnits="userSpaceOnUse">
<stop stop-color="#6AAEFF"/>
<stop offset="1" stop-color="#005EFF"/>
</linearGradient>
<linearGradient id="paint95_linear_471_892" x1="277.193" y1="471.808" x2="285.6" y2="471.808" gradientUnits="userSpaceOnUse">
<stop stop-color="#6AAEFF"/>
<stop offset="1" stop-color="#005EFF"/>
</linearGradient>
<linearGradient id="paint96_linear_471_892" x1="289.648" y1="477.866" x2="302.243" y2="477.866" gradientUnits="userSpaceOnUse">
<stop stop-color="#6AAEFF"/>
<stop offset="1" stop-color="#005EFF"/>
</linearGradient>
<linearGradient id="paint97_linear_471_892" x1="293.836" y1="481.51" x2="302.243" y2="481.51" gradientUnits="userSpaceOnUse">
<stop stop-color="#6AAEFF"/>
<stop offset="1" stop-color="#005EFF"/>
</linearGradient>
<linearGradient id="paint98_linear_471_892" x1="306.922" y1="487.569" x2="319.517" y2="487.569" gradientUnits="userSpaceOnUse">
<stop stop-color="#6AAEFF"/>
<stop offset="1" stop-color="#005EFF"/>
</linearGradient>
<linearGradient id="paint99_linear_471_892" x1="311.11" y1="491.213" x2="319.517" y2="491.213" gradientUnits="userSpaceOnUse">
<stop stop-color="#6AAEFF"/>
<stop offset="1" stop-color="#005EFF"/>
</linearGradient>
<linearGradient id="paint100_linear_471_892" x1="364.491" y1="468.174" x2="377.085" y2="468.174" gradientUnits="userSpaceOnUse">
<stop stop-color="#6AAEFF"/>
<stop offset="1" stop-color="#005EFF"/>
</linearGradient>
<linearGradient id="paint101_linear_471_892" x1="364.491" y1="471.808" x2="372.898" y2="471.808" gradientUnits="userSpaceOnUse">
<stop stop-color="#6AAEFF"/>
<stop offset="1" stop-color="#005EFF"/>
</linearGradient>
<linearGradient id="paint102_linear_471_892" x1="347.847" y1="477.877" x2="360.442" y2="477.877" gradientUnits="userSpaceOnUse">
<stop stop-color="#6AAEFF"/>
<stop offset="1" stop-color="#005EFF"/>
</linearGradient>
<linearGradient id="paint103_linear_471_892" x1="347.847" y1="481.521" x2="356.254" y2="481.521" gradientUnits="userSpaceOnUse">
<stop stop-color="#6AAEFF"/>
<stop offset="1" stop-color="#005EFF"/>
</linearGradient>
<linearGradient id="paint104_linear_471_892" x1="330.574" y1="487.579" x2="343.179" y2="487.579" gradientUnits="userSpaceOnUse">
<stop stop-color="#6AAEFF"/>
<stop offset="1" stop-color="#005EFF"/>
</linearGradient>
<linearGradient id="paint105_linear_471_892" x1="330.574" y1="491.223" x2="338.981" y2="491.223" gradientUnits="userSpaceOnUse">
<stop stop-color="#6AAEFF"/>
<stop offset="1" stop-color="#005EFF"/>
</linearGradient>
<linearGradient id="paint106_linear_471_892" x1="297.959" y1="453.717" x2="352.601" y2="453.717" gradientUnits="userSpaceOnUse">
<stop stop-color="#6AAEFF"/>
<stop offset="1" stop-color="#005EFF"/>
</linearGradient>
</defs>
</svg>
