<svg width="181" height="95" viewBox="0 0 181 95" fill="none" xmlns="http://www.w3.org/2000/svg">
<path d="M160.025 21.4481C160.114 16.8692 156.8 11.8947 150.243 7.89927C150.005 7.75093 149.758 7.61247 149.521 7.46413C137.76 0.669923 120.54 -0.467398 110.649 4.98181C105.94 7.5729 103.745 11.1925 103.903 15.0495C103.893 14.911 103.873 14.7726 103.873 14.644L103.853 21.3493C103.843 23.1591 104.387 25.0183 105.426 26.8578L39.2248 65.3286L31.6482 60.9574C29.9865 59.9981 27.5236 59.7904 25.4959 60.3145L25.5058 57.7828C25.5058 57.8619 25.486 57.941 25.4662 58.0201C25.5849 57.3674 25.2387 56.6949 24.3782 56.2004C22.8748 55.3301 20.4218 55.3301 18.9381 56.2004L13.6266 59.286C12.8847 59.7212 12.5188 60.2848 12.5188 60.8584C12.5188 60.8584 12.5188 60.8584 12.5188 60.8485V60.8584L12.5089 63.0342C11.0054 62.2034 8.59198 62.2035 7.12809 63.0639L1.82644 66.1494C1.0846 66.5846 0.708766 67.1483 0.708766 67.7219C0.708766 67.7219 0.708766 67.7219 0.708766 67.712L0.688965 74.4172C0.688965 74.9908 1.06484 75.5644 1.81657 76.0094C1.98472 76.1083 2.17264 76.1973 2.37047 76.2765C2.38036 76.2765 2.39025 76.2864 2.40014 76.2864C2.42981 76.2962 2.46938 76.3061 2.49906 76.316C2.60786 76.3556 2.71666 76.3951 2.83535 76.4248C2.8947 76.4445 2.96392 76.4545 3.03315 76.4743C3.07272 76.4842 3.10241 76.494 3.14197 76.5039C3.17165 76.5138 3.20133 76.5237 3.24089 76.5237C3.36947 76.5534 3.49804 76.5732 3.62663 76.5929C3.67608 76.6028 3.71566 76.6028 3.76512 76.6127C3.79479 76.6127 3.82447 76.6226 3.86403 76.6226C3.91349 76.6226 3.95304 76.6325 4.00249 76.6424C4.13108 76.6523 4.25968 76.6622 4.38826 76.6622C4.42783 76.6622 4.46739 76.6622 4.50695 76.6622C4.54652 76.6622 4.5762 76.6622 4.60587 76.6622C4.66522 76.6622 4.72455 76.6622 4.7839 76.6622C4.93227 76.6622 5.07074 76.6523 5.20921 76.6325C5.22899 76.6325 5.23887 76.6325 5.25866 76.6226C5.29822 76.6226 5.32791 76.6127 5.36747 76.6028C5.47628 76.5929 5.59497 76.5731 5.70377 76.5533C5.75322 76.5434 5.7928 76.5336 5.84226 76.5237C5.97084 76.494 6.09941 76.4643 6.228 76.4248C6.29723 76.405 6.36646 76.3951 6.4357 76.3753C6.46537 76.3654 6.49504 76.3457 6.52472 76.3358C6.79178 76.2468 7.04896 76.138 7.27645 76.0094L8.31504 75.4062C8.51286 75.6336 8.75024 75.8512 9.11621 76.0787V77.5522C9.11621 78.373 9.65031 79.2038 10.7284 79.8268L12.7067 80.9741C12.2813 81.4389 12.044 81.9531 12.044 82.4674V82.4575L12.0242 89.1627C12.0242 89.9835 12.5583 90.8143 13.6463 91.4373L17.0983 93.4251C17.3456 93.5636 17.6127 93.6921 17.8896 93.8009C17.9094 93.8108 17.9193 93.8108 17.9391 93.8207C17.9885 93.8405 18.038 93.8504 18.0776 93.8702C18.2358 93.9295 18.3941 93.9889 18.5523 94.0284C18.6413 94.0581 18.7403 94.0779 18.8392 94.0977C18.8886 94.1076 18.9381 94.1273 18.9974 94.1372C19.0469 94.1471 19.0864 94.1569 19.1359 94.1668C19.3139 94.2064 19.5019 94.2361 19.6799 94.2658C19.7492 94.2757 19.8184 94.2757 19.8876 94.2856C19.9371 94.2955 19.9767 94.2954 20.0261 94.3053C20.0954 94.3152 20.1547 94.3251 20.2239 94.3251C20.402 94.3449 20.5899 94.3448 20.7679 94.3547C20.8273 94.3547 20.8866 94.3547 20.946 94.3547C20.9954 94.3547 21.0449 94.3547 21.0943 94.3547C21.1735 94.3547 21.2625 94.3547 21.3416 94.3547C21.5493 94.3448 21.757 94.335 21.9549 94.3152C21.9746 94.3152 21.9944 94.3053 22.0241 94.3053C22.0835 94.2954 22.1329 94.2856 22.1824 94.2856C22.3406 94.2658 22.4989 94.246 22.6572 94.2163C22.7264 94.2064 22.7857 94.1767 22.855 94.1668C23.0429 94.1273 23.2308 94.0779 23.4089 94.0284C23.5078 93.9988 23.6067 93.9889 23.7056 93.9592C23.7847 93.9394 23.854 93.8998 23.9232 93.8801C23.9925 93.8504 24.0617 93.8306 24.1309 93.8009C24.398 93.6921 24.6551 93.5735 24.8925 93.435L120.322 37.9836C120.975 38.2309 121.638 38.4584 122.31 38.6858C122.528 38.755 122.755 38.8243 122.973 38.8935C123.339 39.0023 123.695 39.1209 124.061 39.2297C124.16 39.2594 124.259 39.2792 124.367 39.3089C124.585 39.3682 124.813 39.4275 125.03 39.4869C125.485 39.6056 125.94 39.7243 126.395 39.8232C126.633 39.8825 126.87 39.9319 127.107 39.9814C127.266 40.0209 127.434 40.0605 127.592 40.0901C127.74 40.1198 127.889 40.1396 128.037 40.1693C128.799 40.3176 129.56 40.4561 130.322 40.5649C130.46 40.5847 130.609 40.6143 130.747 40.6439C130.807 40.6538 130.876 40.6539 130.935 40.6637C131.806 40.7824 132.686 40.8813 133.556 40.9604C133.586 40.9604 133.626 40.9703 133.655 40.9703C133.804 40.9802 133.952 40.9802 134.1 40.9901C134.763 41.0396 135.436 41.0791 136.088 41.0989C136.197 41.0989 136.316 41.1187 136.425 41.1187C136.593 41.1187 136.771 41.1187 136.939 41.1187C137.513 41.1286 138.077 41.1286 138.63 41.1088C138.799 41.1088 138.967 41.1088 139.135 41.1088C139.244 41.1088 139.353 41.089 139.461 41.089C140.164 41.0593 140.856 41.0099 141.538 40.9505C141.657 40.9406 141.776 40.9407 141.895 40.9308C141.934 40.9308 141.964 40.9209 142.003 40.9209C142.122 40.911 142.231 40.8912 142.34 40.8814C142.854 40.822 143.358 40.7528 143.863 40.6835C144.041 40.6539 144.229 40.6242 144.407 40.5945C144.565 40.5648 144.733 40.545 144.892 40.5154C145.079 40.4857 145.267 40.4363 145.455 40.3967C145.831 40.3176 146.207 40.2484 146.573 40.1594C146.88 40.0901 147.176 40.011 147.473 39.9319C147.829 39.833 148.185 39.7341 148.541 39.6253C148.69 39.5759 148.848 39.5462 148.996 39.4968C149.115 39.4572 149.224 39.4078 149.343 39.3682C149.827 39.21 150.292 39.0319 150.747 38.844C150.955 38.7649 151.163 38.6858 151.37 38.5968C152.013 38.3199 152.646 38.0232 153.24 37.6968C153.447 37.5881 153.645 37.4694 153.843 37.3507C153.863 37.3408 153.883 37.321 153.912 37.3111C154.367 37.0441 154.783 36.7573 155.188 36.4705C155.248 36.431 155.307 36.3815 155.366 36.342C155.752 36.0552 156.118 35.7486 156.454 35.442C156.484 35.4124 156.514 35.3926 156.543 35.3728C156.583 35.3332 156.613 35.3035 156.652 35.264C156.82 35.1057 156.979 34.9475 157.127 34.7893C157.186 34.7299 157.255 34.6607 157.315 34.6014C157.523 34.3739 157.71 34.1563 157.898 33.919L157.908 33.9091C157.948 33.8596 157.987 33.8003 158.027 33.7509C158.146 33.5926 158.254 33.4443 158.363 33.286C158.423 33.2069 158.472 33.1179 158.522 33.0388C158.611 32.9003 158.69 32.7718 158.769 32.6333C158.779 32.6136 158.798 32.5839 158.808 32.5641C158.848 32.4949 158.887 32.4158 158.917 32.3466C158.977 32.2279 159.046 32.1092 159.105 31.9905C159.155 31.8916 159.194 31.7927 159.244 31.6938C159.293 31.5751 159.352 31.4565 159.392 31.3279C159.402 31.2883 159.422 31.2587 159.432 31.2191C159.461 31.1499 159.471 31.0807 159.501 31.0114C159.54 30.8927 159.59 30.7642 159.619 30.6356C159.649 30.5367 159.679 30.4279 159.708 30.3191C159.738 30.1906 159.768 30.0719 159.797 29.9433C159.807 29.8939 159.827 29.8445 159.827 29.8049C159.837 29.7456 159.847 29.6961 159.857 29.6367C159.886 29.4983 159.906 29.3599 159.926 29.2214C159.936 29.1225 159.956 29.0137 159.966 28.9148C159.975 28.7764 159.985 28.628 159.995 28.4896C159.995 28.4203 160.005 28.361 160.005 28.2918C160.005 28.2126 160.005 28.1335 160.005 28.0544L160.025 21.3493C160.025 21.3394 160.025 21.3888 160.025 21.4481ZM144.397 32.2872C140.203 34.5915 132.923 34.1069 127.948 31.2389C127.839 31.1796 127.74 31.1202 127.641 31.051C126.395 30.2895 125.416 29.4489 124.733 28.5687C123.111 28.1533 121.549 27.5303 120.164 26.7391C120.055 26.6797 119.956 26.6204 119.847 26.5512C114.862 23.515 114.288 19.1537 118.571 16.7901C122.765 14.4858 130.055 14.9704 135.04 17.8483C135.139 17.9076 135.238 17.9669 135.337 18.0263C136.583 18.7878 137.552 19.6284 138.235 20.5086C139.867 20.9339 141.43 21.5372 142.814 22.3382C142.913 22.3976 143.022 22.4569 143.121 22.5162C148.116 25.5623 148.68 29.9335 144.397 32.2872Z" fill="#B7C0EB"/>
<g opacity="0.7">
<path opacity="0.0244" d="M164.08 32.2873C158.987 35.007 148.967 33.8895 144.417 28.5688C121.163 19.5 148.492 8.84883 157.928 20.5087C163.813 21.6065 170.965 28.3809 164.08 32.2873ZM179.699 21.4483C178.561 -0.308969 124.654 -6.66804 123.566 15.0496C123.557 14.9112 123.537 14.7727 123.537 14.6442C123.655 18.4913 122.834 23.0306 125.1 26.8579L58.8984 65.3286C55.1694 63.4397 49.9568 58.8509 45.1695 60.3146L45.1794 57.7828C45.1794 57.8619 45.1596 57.9411 45.1398 58.0202C43.9529 52.6402 33.7255 57.5949 32.1825 60.8486C32.1825 60.8486 32.1825 60.8486 32.1825 60.8388C32.1825 60.8684 32.1726 62.5397 32.1726 63.0243C28.7404 61.2442 22.3309 64.5573 20.3725 67.7022C20.3725 67.7022 20.3725 67.7022 20.3725 67.6923C20.145 73.6953 19.4823 79.2928 27.9689 75.3765C28.1667 75.604 28.4041 75.8216 28.77 76.049C28.1568 78.1852 30.0658 79.8565 32.3605 80.9444C31.9352 81.4092 31.6978 81.9235 31.6978 82.4377V82.4278C29.3833 96.1942 43.0528 94.7306 45.3673 92.9109C53.9034 86.2057 139.936 37.964 139.956 37.9442C149.778 41.3858 167.463 44.1054 177.562 33.84C180.193 31.1698 179.659 24.8701 179.699 21.2802C179.708 21.3395 179.699 21.3889 179.699 21.4483Z" fill="#FDFDFF"/>
<path opacity="0.0488" d="M163.586 32.2873C158.492 35.007 148.472 33.8895 143.922 28.5688C120.668 19.5 147.997 8.84883 157.433 20.5087C163.319 21.6065 170.47 28.3809 163.586 32.2873ZM179.214 21.4483C178.076 -0.308969 124.17 -6.66804 123.082 15.0496C123.072 14.9112 123.052 14.7727 123.052 14.6442C123.171 18.4913 122.35 23.0306 124.615 26.8579L58.4135 65.3286C54.6846 63.4397 49.4719 58.8509 44.6846 60.3146L44.6945 57.7828C44.6945 57.8619 44.6747 57.9411 44.655 58.0202C43.468 52.6402 33.2406 57.5949 31.6976 60.8486C31.6976 60.8486 31.6976 60.8486 31.6976 60.8388C31.6976 60.8684 31.6877 62.5397 31.6877 63.0243C28.2555 61.2442 21.846 64.5573 19.8876 67.7022C19.8876 67.7022 19.8876 67.7022 19.8876 67.6923C19.6601 73.6953 18.9974 79.2928 27.484 75.3765C27.6818 75.604 27.9192 75.8216 28.2851 76.049C27.6719 78.1852 29.5809 79.8565 31.8756 80.9444C31.4503 81.4092 31.2129 81.9235 31.2129 82.4377V82.4278C28.8984 96.1942 42.5679 94.7306 44.8824 92.9109C53.4185 86.2057 139.451 37.964 139.471 37.9442C149.293 41.3858 166.978 44.1054 177.077 33.84C179.708 31.1698 179.174 24.8701 179.214 21.2802C179.214 21.3395 179.214 21.3889 179.214 21.4483Z" fill="#FBFCFE"/>
<path opacity="0.0732" d="M163.091 32.2873C157.998 35.007 147.978 33.8895 143.428 28.5688C120.174 19.5 147.503 8.84883 156.939 20.5087C162.824 21.6065 169.976 28.3809 163.091 32.2873ZM178.719 21.4483C177.582 -0.308969 123.675 -6.66804 122.587 15.0496C122.578 14.9112 122.558 14.7727 122.558 14.6442C122.676 18.4913 121.855 23.0306 124.121 26.8579L57.9193 65.3286C54.1904 63.4397 48.9778 58.8509 44.1905 60.3146L44.2004 57.7828C44.2004 57.8619 44.1806 57.9411 44.1608 58.0202C42.9739 52.6402 32.7465 57.5949 31.2034 60.8486C31.2034 60.8486 31.2034 60.8486 31.2034 60.8388C31.2034 60.8684 31.1935 62.5397 31.1935 63.0243C27.7613 61.2442 21.3519 64.5573 19.3935 67.7022C19.3935 67.7022 19.3935 67.7022 19.3935 67.6923C19.166 73.6953 18.5033 79.2928 26.9898 75.3765C27.1876 75.604 27.425 75.8216 27.791 76.049C27.1778 78.1852 29.0867 79.8565 31.3815 80.9444C30.9562 81.4092 30.7188 81.9235 30.7188 82.4377V82.4278C28.4043 96.1942 42.0738 94.7306 44.3883 92.9109C52.9243 86.2057 138.957 37.964 138.977 37.9442C148.799 41.3858 166.484 44.1054 176.583 33.84C179.214 31.1698 178.68 24.8701 178.719 21.2802C178.719 21.3395 178.719 21.3889 178.719 21.4483Z" fill="#FAFAFE"/>
<path opacity="0.0976" d="M162.597 32.2873C157.503 35.007 147.483 33.8895 142.933 28.5688C119.679 19.5 147.008 8.84883 156.445 20.5087C162.33 21.6065 169.491 28.3809 162.597 32.2873ZM178.225 21.4483C177.087 -0.308969 123.181 -6.66804 122.093 15.0496C122.083 14.9112 122.063 14.7727 122.063 14.6442C122.182 18.4913 121.361 23.0306 123.626 26.8579L57.4247 65.3286C53.6958 63.4397 48.4832 58.8509 43.6959 60.3146L43.7058 57.7828C43.7058 57.8619 43.686 57.9411 43.6662 58.0202C42.4792 52.6402 32.2518 57.5949 30.7088 60.8486C30.7088 60.8486 30.7088 60.8486 30.7088 60.8388C30.7088 60.8684 30.6989 62.5397 30.6989 63.0243C27.2667 61.2442 20.8573 64.5573 18.8988 67.7022C18.8988 67.7022 18.8988 67.7022 18.8988 67.6923C18.6713 73.6953 18.0086 79.2928 26.4952 75.3765C26.693 75.604 26.9304 75.8216 27.2964 76.049C26.6831 78.1852 28.5921 79.8565 30.8869 80.9444C30.4615 81.4092 30.2242 81.9235 30.2242 82.4377V82.4278C27.9096 96.1942 41.5791 94.7306 43.8937 92.9109C52.4297 86.2057 138.463 37.964 138.482 37.9442C148.304 41.3858 165.99 44.1054 176.088 33.84C178.719 31.1698 178.185 24.8701 178.225 21.2802C178.235 21.3395 178.225 21.3889 178.225 21.4483Z" fill="#F8F9FD"/>
<path opacity="0.122" d="M162.112 32.2873C157.018 35.007 146.999 33.8895 142.449 28.5688C119.195 19.5 146.524 8.84883 155.96 20.5087C161.845 21.6065 168.996 28.3809 162.112 32.2873ZM177.73 21.4483C176.593 -0.308969 122.686 -6.66804 121.598 15.0496C121.588 14.9112 121.568 14.7727 121.568 14.6442C121.687 18.4913 120.866 23.0306 123.131 26.8579L56.9301 65.3286C53.2011 63.4397 47.9885 58.8509 43.2012 60.3146L43.2111 57.7828C43.2111 57.8619 43.1913 57.9411 43.1715 58.0202C41.9846 52.6402 31.7572 57.5949 30.2142 60.8486C30.2142 60.8486 30.2142 60.8486 30.2142 60.8388C30.2142 60.8684 30.2142 62.5397 30.2043 63.0243C26.7721 61.2442 20.3626 64.5573 18.4042 67.7022C18.4042 67.7022 18.4042 67.7022 18.4042 67.6923C18.1767 73.6953 17.514 79.2928 26.0006 75.3765C26.1984 75.604 26.4358 75.8216 26.8017 76.049C26.1885 78.1852 28.0975 79.8565 30.3922 80.9444C29.9669 81.4092 29.7295 81.9235 29.7295 82.4377V82.4278C27.415 96.1942 41.0845 94.7306 43.399 92.9109C51.9351 86.2057 137.968 37.964 137.988 37.9442C147.81 41.3858 165.495 44.1054 175.594 33.84C178.225 31.1698 177.691 24.8701 177.73 21.2802C177.74 21.3395 177.74 21.3889 177.73 21.4483Z" fill="#F6F7FD"/>
<path opacity="0.1463" d="M161.617 32.2873C156.523 35.007 146.504 33.8895 141.954 28.5688C118.7 19.5 146.029 8.84883 155.465 20.5087C161.35 21.6065 168.502 28.3809 161.617 32.2873ZM177.245 21.4483C176.108 -0.308969 122.201 -6.66804 121.113 15.0496C121.103 14.9112 121.084 14.7727 121.084 14.6442C121.202 18.4913 120.381 23.0306 122.646 26.8579L56.4452 65.3286C52.7163 63.4397 47.5037 58.8509 42.7164 60.3146L42.7262 57.7828C42.7262 57.8619 42.7065 57.9411 42.6867 58.0202C41.4998 52.6402 31.2723 57.5949 29.7293 60.8486C29.7293 60.8486 29.7293 60.8486 29.7293 60.8388C29.7293 60.8684 29.7194 62.5397 29.7194 63.0243C26.2872 61.2442 19.8778 64.5573 17.9193 67.7022C17.9193 67.7022 17.9193 67.7022 17.9193 67.6923C17.6918 73.6953 17.0291 79.2928 25.5157 75.3765C25.7135 75.604 25.9509 75.8216 26.3169 76.049C25.7036 78.1852 27.6126 79.8565 29.9074 80.9444C29.482 81.4092 29.2446 81.9235 29.2446 82.4377V82.4278C26.9301 96.1942 40.5996 94.7306 42.9142 92.9109C51.4502 86.2057 137.483 37.964 137.503 37.9442C147.325 41.3858 165.01 44.1054 175.109 33.84C177.74 31.1698 177.206 24.8701 177.245 21.2802C177.245 21.3395 177.245 21.3889 177.245 21.4483Z" fill="#F4F6FC"/>
<path opacity="0.1707" d="M161.123 32.2873C156.029 35.007 146.009 33.8895 141.459 28.5688C118.205 19.5 145.534 8.84883 154.971 20.5087C160.856 21.6065 168.007 28.3809 161.123 32.2873ZM176.751 21.4483C175.613 -0.308969 121.707 -6.66804 120.619 15.0496C120.609 14.9112 120.589 14.7727 120.589 14.6442C120.708 18.4913 119.887 23.0306 122.152 26.8579L55.9506 65.3286C52.2217 63.4397 47.0091 58.8509 42.2218 60.3146L42.2317 57.7828C42.2317 57.8619 42.2119 57.9411 42.1921 58.0202C41.0052 52.6402 30.7778 57.5949 29.2348 60.8486C29.2348 60.8486 29.2348 60.8486 29.2348 60.8388C29.2348 60.8684 29.2348 62.5397 29.2249 63.0243C25.7926 61.2442 19.3832 64.5573 17.4248 67.7022C17.4248 67.7022 17.4248 67.7022 17.4248 67.6923C17.2072 73.6953 16.5346 79.2928 25.0211 75.3765C25.219 75.604 25.4563 75.8216 25.8223 76.049C25.2091 78.1852 27.1181 79.8565 29.4128 80.9444C28.9875 81.4092 28.7501 81.9235 28.7501 82.4377V82.4278C26.4356 96.1942 40.1051 94.7306 42.4196 92.9109C50.9556 86.2057 136.989 37.964 137.008 37.9442C146.83 41.3858 164.515 44.1054 174.614 33.84C177.245 31.1698 176.711 24.8701 176.751 21.2802C176.751 21.3395 176.751 21.3889 176.751 21.4483Z" fill="#F3F4FC"/>
<path opacity="0.1951" d="M160.639 32.2873C155.545 35.007 145.525 33.8895 140.975 28.5688C117.721 19.5 145.05 8.84883 154.486 20.5087C160.362 21.6065 167.523 28.3809 160.639 32.2873ZM176.257 21.4483C175.119 -0.308969 121.213 -6.66804 120.125 15.0496C120.115 14.9112 120.095 14.7727 120.095 14.6442C120.214 18.4913 119.393 23.0306 121.658 26.8579L55.4564 65.3286C51.7275 63.4397 46.5149 58.8509 41.7276 60.3146L41.7375 57.7828C41.7375 57.8619 41.7177 57.9411 41.6979 58.0202C40.511 52.6402 30.2836 57.5949 28.7406 60.8486C28.7406 60.8486 28.7406 60.8486 28.7406 60.8388C28.7406 60.8684 28.7406 62.5397 28.7307 63.0243C25.2984 61.2442 18.889 64.5573 16.9306 67.7022C16.9306 67.7022 16.9306 67.7022 16.9306 67.6923C16.7031 73.6953 16.0404 79.2928 24.5269 75.3765C24.7248 75.604 24.9621 75.8216 25.3281 76.049C24.7149 78.1852 26.6239 79.8565 28.9186 80.9444C28.4933 81.4092 28.2559 81.9235 28.2559 82.4377V82.4278C25.9414 96.1942 39.6109 94.7306 41.9254 92.9109C50.4614 86.2057 136.494 37.964 136.514 37.9442C146.336 41.3858 164.021 44.1054 174.12 33.84C176.751 31.1698 176.217 24.8701 176.257 21.2802C176.266 21.3395 176.257 21.3889 176.257 21.4483Z" fill="#F1F3FB"/>
<path opacity="0.2195" d="M160.144 32.2873C155.05 35.007 145.03 33.8895 140.48 28.5688C117.226 19.5 144.556 8.84883 153.992 20.5087C159.877 21.6065 167.028 28.3809 160.144 32.2873ZM175.762 21.4483C174.624 -0.308969 120.718 -6.66804 119.63 15.0496C119.62 14.9112 119.6 14.7727 119.6 14.6442C119.719 18.4913 118.898 23.0306 121.163 26.8579L54.9618 65.3286C51.2329 63.4397 46.0203 58.8509 41.233 60.3146L41.2428 57.7828C41.2428 57.8619 41.2231 57.9411 41.2033 58.0202C40.0164 52.6402 29.7889 57.5949 28.2459 60.8486C28.2459 60.8486 28.2459 60.8486 28.2459 60.8388C28.2459 60.8684 28.2459 62.5397 28.236 63.0243C24.8038 61.2442 18.3944 64.5573 16.4359 67.7022C16.4359 67.7022 16.4359 67.7022 16.4359 67.6923C16.2084 73.6953 15.5457 79.2928 24.0323 75.3765C24.2301 75.604 24.4675 75.8216 24.8335 76.049C24.2202 78.1852 26.1292 79.8565 28.424 80.9444C27.9986 81.4092 27.7612 81.9235 27.7612 82.4377V82.4278C25.4467 96.1942 39.1163 94.7306 41.4308 92.9109C49.9668 86.2057 136 37.964 136.019 37.9442C145.841 41.3858 163.527 44.1054 173.625 33.84C176.257 31.1698 175.722 24.8701 175.762 21.2802C175.772 21.3395 175.772 21.3889 175.762 21.4483Z" fill="#EFF1FB"/>
<path opacity="0.2439" d="M159.649 32.2873C154.555 35.007 144.536 33.8895 139.986 28.5688C116.732 19.5 144.061 8.84883 153.497 20.5087C159.382 21.6065 166.533 28.3809 159.649 32.2873ZM175.277 21.4483C174.14 -0.308969 120.233 -6.66804 119.145 15.0496C119.135 14.9112 119.115 14.7727 119.115 14.6442C119.234 18.4913 118.413 23.0306 120.678 26.8579L54.477 65.3286C50.748 63.4397 45.5354 58.8509 40.7481 60.3146L40.758 57.7828C40.758 57.8619 40.7382 57.9411 40.7184 58.0202C39.5315 52.6402 29.3041 57.5949 27.7611 60.8486C27.7611 60.8486 27.7611 60.8486 27.7611 60.8388C27.7611 60.8684 27.7512 62.5397 27.7512 63.0243C24.319 61.2442 17.9095 64.5573 15.9511 67.7022C15.9511 67.7022 15.9511 67.7022 15.9511 67.6923C15.7236 73.6953 15.0609 79.2928 23.5475 75.3765C23.7453 75.604 23.9827 75.8216 24.3487 76.049C23.7354 78.1852 25.6444 79.8565 27.9391 80.9444C27.5138 81.4092 27.2764 81.9235 27.2764 82.4377V82.4278C24.9619 96.1942 38.6314 94.7306 40.9459 92.9109C49.482 86.2057 135.515 37.964 135.535 37.9442C145.357 41.3858 163.042 44.1054 173.141 33.84C175.772 31.1698 175.238 24.8701 175.277 21.2802C175.277 21.3395 175.277 21.3889 175.277 21.4483Z" fill="#EDF0FA"/>
<path opacity="0.2683" d="M159.155 32.2873C154.061 35.007 144.041 33.8895 139.491 28.5688C116.237 19.5 143.566 8.84883 153.002 20.5087C158.887 21.6065 166.039 28.3809 159.155 32.2873ZM174.782 21.4483C173.645 -0.308969 119.738 -6.66804 118.65 15.0496C118.641 14.9112 118.621 14.7727 118.621 14.6442C118.739 18.4913 117.918 23.0306 120.184 26.8579L53.9823 65.3286C50.2534 63.4397 45.0408 58.8509 40.2535 60.3146L40.2634 57.7828C40.2634 57.8619 40.2436 57.9411 40.2238 58.0202C39.0369 52.6402 28.8094 57.5949 27.2664 60.8486C27.2664 60.8486 27.2664 60.8486 27.2664 60.8388C27.2664 60.8684 27.2566 62.5397 27.2566 63.0243C23.8243 61.2442 17.4149 64.5573 15.4564 67.7022C15.4564 67.7022 15.4564 67.7022 15.4564 67.6923C15.229 73.6953 14.5663 79.2928 23.0528 75.3765C23.2507 75.604 23.488 75.8216 23.854 76.049C23.2408 78.1852 25.1498 79.8565 27.4445 80.9444C27.0192 81.4092 26.7818 81.9235 26.7818 82.4377V82.4278C24.4673 96.1942 38.1368 94.7306 40.4513 92.9109C48.9873 86.2057 135.02 37.964 135.04 37.9442C144.862 41.3858 162.547 44.1054 172.646 33.84C175.277 31.1698 174.743 24.8701 174.782 21.2802C174.792 21.3395 174.782 21.3889 174.782 21.4483Z" fill="#ECEEFA"/>
<path opacity="0.2927" d="M158.67 32.2873C153.576 35.007 143.556 33.8895 139.006 28.5688C115.752 19.5 143.081 8.84883 152.518 20.5087C158.393 21.6065 165.554 28.3809 158.67 32.2873ZM174.288 21.4483C173.15 -0.308969 119.244 -6.66804 118.156 15.0496C118.146 14.9112 118.126 14.7727 118.126 14.6442C118.245 18.4913 117.424 23.0306 119.689 26.8579L53.4877 65.3286C49.7588 63.4397 44.5462 58.8509 39.7589 60.3146L39.7688 57.7828C39.7688 57.8619 39.749 57.9411 39.7292 58.0202C38.5422 52.6402 28.3148 57.5949 26.7718 60.8486C26.7718 60.8486 26.7718 60.8486 26.7718 60.8388C26.7718 60.8684 26.7619 62.5397 26.7619 63.0243C23.3297 61.2442 16.9203 64.5573 14.9618 67.7022C14.9618 67.7022 14.9618 67.7022 14.9618 67.6923C14.7343 73.6953 14.0716 79.2928 22.5582 75.3765C22.756 75.604 22.9934 75.8216 23.3594 76.049C22.7461 78.1852 24.6551 79.8565 26.9499 80.9444C26.5246 81.4092 26.2872 81.9235 26.2872 82.4377V82.4278C23.9726 96.1942 37.6422 94.7306 39.9567 92.9109C48.4927 86.2057 134.526 37.964 134.545 37.9442C144.367 41.3858 162.053 44.1054 172.151 33.84C174.782 31.1698 174.248 24.8701 174.288 21.2802C174.298 21.3395 174.288 21.3889 174.288 21.4483Z" fill="#EAEDF9"/>
<path opacity="0.3171" d="M158.176 32.2873C153.082 35.007 143.062 33.8895 138.512 28.5688C115.258 19.5 142.587 8.84883 152.023 20.5087C157.909 21.6065 165.06 28.3809 158.176 32.2873ZM173.794 21.4483C172.656 -0.308969 118.75 -6.66804 117.662 15.0496C117.652 14.9112 117.632 14.7727 117.632 14.6442C117.751 18.4913 116.93 23.0306 119.195 26.8579L52.9936 65.3286C49.2646 63.4397 44.052 58.8509 39.2647 60.3146L39.2746 57.7828C39.2746 57.8619 39.2548 57.9411 39.235 58.0202C38.0481 52.6402 27.8207 57.5949 26.2777 60.8486C26.2777 60.8486 26.2777 60.8486 26.2777 60.8388C26.2777 60.8684 26.2678 62.5397 26.2678 63.0243C22.8356 61.2442 16.4261 64.5573 14.4677 67.7022C14.4677 67.7022 14.4677 67.7022 14.4677 67.6923C14.2402 73.6953 13.5775 79.2928 22.0641 75.3765C22.2619 75.604 22.4993 75.8216 22.8652 76.049C22.252 78.1852 24.161 79.8565 26.4557 80.9444C26.0304 81.4092 25.793 81.9235 25.793 82.4377V82.4278C23.4785 96.1942 37.148 94.7306 39.4625 92.9109C47.9986 86.2057 134.031 37.964 134.051 37.9442C143.873 41.3858 161.558 44.1054 171.657 33.84C174.288 31.1698 173.754 24.8701 173.794 21.2802C173.804 21.3395 173.804 21.3889 173.794 21.4483Z" fill="#E8EBF9"/>
<path opacity="0.3415" d="M157.681 32.2873C152.587 35.007 142.567 33.8895 138.017 28.5688C114.763 19.5 142.092 8.84883 151.529 20.5087C157.414 21.6065 164.565 28.3809 157.681 32.2873ZM173.309 21.4483C172.171 -0.308969 118.265 -6.66804 117.177 15.0496C117.167 14.9112 117.147 14.7727 117.147 14.6442C117.266 18.4913 116.445 23.0306 118.71 26.8579L52.5087 65.3286C48.7798 63.4397 43.5671 58.8509 38.7798 60.3146L38.7897 57.7828C38.7897 57.8619 38.77 57.9411 38.7502 58.0202C37.5632 52.6402 27.3358 57.5949 25.7928 60.8486C25.7928 60.8486 25.7928 60.8486 25.7928 60.8388C25.7928 60.8684 25.7928 62.5397 25.7829 63.0243C22.3507 61.2442 15.9413 64.5573 13.9828 67.7022C13.9828 67.7022 13.9828 67.7022 13.9828 67.6923C13.7553 73.6953 13.0926 79.2928 21.5792 75.3765C21.777 75.604 22.0144 75.8216 22.3804 76.049C21.7671 78.1852 23.6761 79.8565 25.9708 80.9444C25.5455 81.4092 25.3082 81.9235 25.3082 82.4377V82.4278C22.9936 96.1942 36.6632 94.7306 38.9777 92.9109C47.5137 86.2057 133.547 37.964 133.566 37.9442C143.388 41.3858 161.074 44.1054 171.172 33.84C173.803 31.1698 173.269 24.8701 173.309 21.2802C173.309 21.3395 173.309 21.3889 173.309 21.4483Z" fill="#E6E9F8"/>
<path opacity="0.3659" d="M157.186 32.2873C152.092 35.007 142.073 33.8895 137.523 28.5688C114.269 19.5 141.598 8.84883 151.034 20.5087C156.919 21.6065 164.07 28.3809 157.186 32.2873ZM172.814 21.4483C171.677 -0.308969 117.77 -6.66804 116.682 15.0496C116.672 14.9112 116.652 14.7727 116.652 14.6442C116.771 18.4913 115.95 23.0306 118.215 26.8579L52.0141 65.3286C48.2851 63.4397 43.0725 58.8509 38.2852 60.3146L38.2951 57.7828C38.2951 57.8619 38.2753 57.9411 38.2555 58.0202C37.0686 52.6402 26.8412 57.5949 25.2982 60.8486C25.2982 60.8486 25.2982 60.8486 25.2982 60.8388C25.2982 60.8684 25.2982 62.5397 25.2883 63.0243C21.8561 61.2442 15.4466 64.5573 13.4882 67.7022C13.4882 67.7022 13.4882 67.7022 13.4882 67.6923C13.2607 73.6953 12.598 79.2928 21.0846 75.3765C21.2824 75.604 21.5198 75.8216 21.8857 76.049C21.2725 78.1852 23.1815 79.8565 25.4762 80.9444C25.0509 81.4092 24.8135 81.9235 24.8135 82.4377V82.4278C22.499 96.1942 36.1685 94.7306 38.483 92.9109C47.0191 86.2057 133.052 37.964 133.072 37.9442C142.894 41.3858 160.579 44.1054 170.678 33.84C173.309 31.1698 172.775 24.8701 172.814 21.2802C172.824 21.3395 172.814 21.3889 172.814 21.4483Z" fill="#E5E8F8"/>
<path opacity="0.3902" d="M156.702 32.2873C151.608 35.007 141.588 33.8895 137.038 28.5688C113.784 19.5 141.113 8.84883 150.549 20.5087C156.425 21.6065 163.586 28.3809 156.702 32.2873ZM172.32 21.4483C171.182 -0.308969 117.276 -6.66804 116.188 15.0496C116.178 14.9112 116.158 14.7727 116.158 14.6442C116.277 18.4913 115.456 23.0306 117.721 26.8579L51.5195 65.3286C47.7906 63.4397 42.5779 58.8509 37.7906 60.3146L37.8005 57.7828C37.8005 57.8619 37.7808 57.9411 37.761 58.0202C36.574 52.6402 26.3466 57.5949 24.8036 60.8486C24.8036 60.8486 24.8036 60.8486 24.8036 60.8388C24.8036 60.8684 24.8036 62.5397 24.7937 63.0243C21.3615 61.2442 14.9521 64.5573 12.9936 67.7022C12.9936 67.7022 12.9936 67.7022 12.9936 67.6923C12.776 73.6953 12.1034 79.2928 20.59 75.3765C20.7878 75.604 21.0252 75.8216 21.3912 76.049C20.7779 78.1852 22.6869 79.8565 24.9816 80.9444C24.5563 81.4092 24.319 81.9235 24.319 82.4377V82.4278C22.0044 96.1942 35.674 94.7306 37.9885 92.9109C46.5245 86.2057 132.557 37.964 132.577 37.9442C142.399 41.3858 160.084 44.1054 170.183 33.84C172.814 31.1698 172.28 24.8701 172.32 21.2802C172.33 21.3395 172.32 21.3889 172.32 21.4483Z" fill="#E3E6F7"/>
<path opacity="0.4146" d="M156.207 32.2873C151.113 35.007 141.094 33.8895 136.544 28.5688C113.29 19.5 140.619 8.84883 150.055 20.5087C155.94 21.6065 163.092 28.3809 156.207 32.2873ZM171.825 21.4483C170.688 -0.308969 116.781 -6.66804 115.693 15.0496C115.683 14.9112 115.664 14.7727 115.664 14.6442C115.782 18.4913 114.961 23.0306 117.226 26.8579L51.0253 65.3286C47.2964 63.4397 42.0837 58.8509 37.2964 60.3146L37.3063 57.7828C37.3063 57.8619 37.2865 57.9411 37.2668 58.0202C36.0798 52.6402 25.8524 57.5949 24.3094 60.8486C24.3094 60.8486 24.3094 60.8486 24.3094 60.8388C24.3094 60.8684 24.3094 62.5397 24.2995 63.0243C20.8673 61.2442 14.4579 64.5573 12.4994 67.7022C12.4994 67.7022 12.4994 67.7022 12.4994 67.6923C12.2719 73.6953 11.6092 79.2928 20.0958 75.3765C20.2936 75.604 20.531 75.8216 20.897 76.049C20.2837 78.1852 22.1927 79.8565 24.4874 80.9444C24.0621 81.4092 23.8248 81.9235 23.8248 82.4377V82.4278C21.5102 96.1942 35.1798 94.7306 37.4943 92.9109C46.0303 86.2057 132.063 37.964 132.083 37.9442C141.905 41.3858 159.59 44.1054 169.689 33.84C172.32 31.1698 171.786 24.8701 171.825 21.2802C171.835 21.3395 171.835 21.3889 171.825 21.4483Z" fill="#E1E5F7"/>
<path opacity="0.439" d="M155.713 32.2873C150.619 35.007 140.599 33.8895 136.049 28.5688C112.795 19.5 140.124 8.84883 149.56 20.5087C155.446 21.6065 162.597 28.3809 155.713 32.2873ZM171.341 21.4483C170.203 -0.308969 116.297 -6.66804 115.209 15.0496C115.199 14.9112 115.179 14.7727 115.179 14.6442C115.298 18.4913 114.477 23.0306 116.742 26.8579L50.5404 65.3286C46.8115 63.4397 41.5989 58.8509 36.8116 60.3146L36.8214 57.7828C36.8214 57.8619 36.8017 57.9411 36.7819 58.0202C35.595 52.6402 25.3676 57.5949 23.8245 60.8486C23.8245 60.8486 23.8245 60.8486 23.8245 60.8388C23.8245 60.8684 23.8245 62.5397 23.8146 63.0243C20.3824 61.2442 13.973 64.5573 12.0146 67.7022C12.0146 67.7022 12.0146 67.7022 12.0146 67.6923C11.7871 73.6953 11.1243 79.2928 19.6109 75.3765C19.8087 75.604 20.0461 75.8216 20.4121 76.049C19.7989 78.1852 21.7078 79.8565 24.0026 80.9444C23.5773 81.4092 23.3399 81.9235 23.3399 82.4377V82.4278C21.0253 96.1942 34.6949 94.7306 37.0094 92.9109C45.5454 86.2057 131.578 37.964 131.598 37.9442C141.42 41.3858 159.105 44.1054 169.204 33.84C171.835 31.1698 171.301 24.8701 171.341 21.2802C171.341 21.3395 171.341 21.3889 171.341 21.4483Z" fill="#DFE3F6"/>
<path opacity="0.4634" d="M155.218 32.2873C150.124 35.007 140.104 33.8895 135.554 28.5688C112.3 19.5 139.63 8.84883 149.066 20.5087C154.951 21.6065 162.112 28.3809 155.218 32.2873ZM170.846 21.4483C169.708 -0.308969 115.802 -6.66804 114.714 15.0496C114.704 14.9112 114.684 14.7727 114.684 14.6442C114.803 18.4913 113.982 23.0306 116.247 26.8579L50.0458 65.3286C46.3168 63.4397 41.1042 58.8509 36.3169 60.3146L36.3268 57.7828C36.3268 57.8619 36.3071 57.9411 36.2873 58.0202C35.1003 52.6402 24.8729 57.5949 23.3299 60.8486C23.3299 60.8486 23.3299 60.8486 23.3299 60.8388C23.3299 60.8684 23.32 62.5397 23.32 63.0243C19.8878 61.2442 13.4784 64.5573 11.5199 67.7022C11.5199 67.7022 11.5199 67.7022 11.5199 67.6923C11.2924 73.6953 10.6297 79.2928 19.1163 75.3765C19.3141 75.604 19.5515 75.8216 19.9175 76.049C19.3042 78.1852 21.2132 79.8565 23.5079 80.9444C23.0826 81.4092 22.8452 81.9235 22.8452 82.4377V82.4278C20.5307 96.1942 34.2002 94.7306 36.5148 92.9109C45.0508 86.2057 131.084 37.964 131.103 37.9442C140.925 41.3858 158.611 44.1054 168.709 33.84C171.34 31.1698 170.806 24.8701 170.846 21.2802C170.856 21.3395 170.846 21.3889 170.846 21.4483Z" fill="#DEE2F6"/>
<path opacity="0.4878" d="M154.733 32.2873C149.639 35.007 139.62 33.8895 135.07 28.5688C111.816 19.5 139.145 8.84883 148.581 20.5087C154.466 21.6065 161.617 28.3809 154.733 32.2873ZM170.351 21.4483C169.214 -0.308969 115.307 -6.66804 114.219 15.0496C114.209 14.9112 114.19 14.7727 114.19 14.6442C114.308 18.4913 113.487 23.0306 115.752 26.8579L49.5512 65.3286C45.8222 63.4397 40.6096 58.8509 35.8223 60.3146L35.8322 57.7828C35.8322 57.8619 35.8124 57.9411 35.7927 58.0202C34.6057 52.6402 24.3783 57.5949 22.8353 60.8486C22.8353 60.8486 22.8353 60.8486 22.8353 60.8388C22.8353 60.8684 22.8254 62.5397 22.8254 63.0243C19.3932 61.2442 12.9837 64.5573 11.0253 67.7022C11.0253 67.7022 11.0253 67.7022 11.0253 67.6923C10.7978 73.6953 10.1351 79.2928 18.6217 75.3765C18.8195 75.604 19.0569 75.8216 19.4228 76.049C18.8096 78.1852 20.7186 79.8565 23.0133 80.9444C22.588 81.4092 22.3506 81.9235 22.3506 82.4377V82.4278C20.0361 96.1942 33.7056 94.7306 36.0201 92.9109C44.5562 86.2057 130.589 37.964 130.609 37.9442C140.431 41.3858 158.116 44.1054 168.215 33.84C170.846 31.1698 170.312 24.8701 170.351 21.2802C170.361 21.3395 170.351 21.3889 170.351 21.4483Z" fill="#DCE0F5"/>
<path opacity="0.5122" d="M154.239 32.2873C149.145 35.007 139.125 33.8895 134.575 28.5688C111.321 19.5 138.651 8.84883 148.087 20.5087C153.972 21.6065 161.123 28.3809 154.239 32.2873ZM169.867 21.4483C168.73 -0.308969 114.823 -6.66804 113.735 15.0496C113.725 14.9112 113.705 14.7727 113.705 14.6442C113.824 18.4913 113.003 23.0306 115.268 26.8579L49.0668 65.3286C45.3378 63.4397 40.1252 58.8509 35.3379 60.3146L35.3478 57.7828C35.3478 57.8619 35.328 57.9411 35.3083 58.0202C34.1213 52.6402 23.8939 57.5949 22.3509 60.8486C22.3509 60.8486 22.3509 60.8486 22.3509 60.8388C22.3509 60.8684 22.3509 62.5397 22.341 63.0243C18.9088 61.2442 12.4994 64.5573 10.5409 67.7022C10.5409 67.7022 10.5409 67.7022 10.5409 67.6923C10.3134 73.6953 9.65072 79.2928 18.1373 75.3765C18.3351 75.604 18.5725 75.8216 18.9385 76.049C18.3252 78.1852 20.2342 79.8565 22.5289 80.9444C22.1036 81.4092 21.8662 81.9235 21.8662 82.4377V82.4278C19.5517 96.1942 33.2212 94.7306 35.5358 92.9109C44.0718 86.2057 130.105 37.964 130.124 37.9442C139.946 41.3858 157.632 44.1054 167.73 33.84C170.362 31.1698 169.827 24.8701 169.867 21.2802C169.867 21.3395 169.867 21.3889 169.867 21.4483Z" fill="#DADFF5"/>
<path opacity="0.5366" d="M153.744 32.2873C148.65 35.007 138.631 33.8895 134.081 28.5688C110.827 19.5 138.156 8.84883 147.592 20.5087C153.477 21.6065 160.629 28.3809 153.744 32.2873ZM169.372 21.4483C168.235 -0.308969 114.328 -6.66804 113.24 15.0496C113.23 14.9112 113.211 14.7727 113.211 14.6442C113.329 18.4913 112.508 23.0306 114.773 26.8579L48.5722 65.3286C44.8432 63.4397 39.6306 58.8509 34.8433 60.3146L34.8532 57.7828C34.8532 57.8619 34.8334 57.9411 34.8136 58.0202C33.6267 52.6402 23.3993 57.5949 21.8563 60.8486C21.8563 60.8486 21.8563 60.8486 21.8563 60.8388C21.8563 60.8684 21.8563 62.5397 21.8464 63.0243C18.4142 61.2442 12.0047 64.5573 10.0463 67.7022C10.0463 67.7022 10.0463 67.7022 10.0463 67.6923C9.8188 73.6953 9.15609 79.2928 17.6427 75.3765C17.8405 75.604 18.0779 75.8216 18.4438 76.049C17.8306 78.1852 19.7396 79.8565 22.0343 80.9444C21.609 81.4092 21.3716 81.9235 21.3716 82.4377V82.4278C19.0571 96.1942 32.7266 94.7306 35.0411 92.9109C43.5772 86.2057 129.61 37.964 129.63 37.9442C139.452 41.3858 157.137 44.1054 167.236 33.84C169.867 31.1698 169.333 24.8701 169.372 21.2802C169.372 21.3395 169.372 21.3889 169.372 21.4483Z" fill="#D8DDF4"/>
<path opacity="0.561" d="M153.25 32.2873C148.156 35.007 138.136 33.8895 133.586 28.5688C110.332 19.5 137.661 8.84883 147.097 20.5087C152.983 21.6065 160.144 28.3809 153.25 32.2873ZM168.878 21.4483C167.74 -0.308969 113.834 -6.66804 112.746 15.0496C112.736 14.9112 112.716 14.7727 112.716 14.6442C112.835 18.4913 112.014 23.0306 114.279 26.8579L48.0775 65.3286C44.3486 63.4397 39.136 58.8509 34.3487 60.3146L34.3586 57.7828C34.3586 57.8619 34.3388 57.9411 34.319 58.0202C33.1321 52.6402 22.9046 57.5949 21.3616 60.8486C21.3616 60.8486 21.3616 60.8486 21.3616 60.8388C21.3616 60.8684 21.3616 62.5397 21.3518 63.0243C17.9195 61.2442 11.5101 64.5573 9.55167 67.7022C9.55167 67.7022 9.55167 67.7022 9.55167 67.6923C9.32417 73.6953 8.66146 79.2928 17.148 75.3765C17.3459 75.604 17.5832 75.8216 17.9492 76.049C17.336 78.1852 19.2449 79.8565 21.5397 80.9444C21.1144 81.4092 20.877 81.9235 20.877 82.4377V82.4278C18.5624 96.1942 32.232 94.7306 34.5465 92.9109C43.0825 86.2057 129.115 37.964 129.135 37.9442C138.957 41.3858 156.642 44.1054 166.741 33.84C169.372 31.1698 168.838 24.8701 168.878 21.2802C168.888 21.3395 168.878 21.3889 168.878 21.4483Z" fill="#D7DCF4"/>
<path opacity="0.5854" d="M152.765 32.2873C147.671 35.007 137.651 33.8895 133.101 28.5688C109.847 19.5 137.177 8.84883 146.613 20.5087C152.498 21.6065 159.649 28.3809 152.765 32.2873ZM168.383 21.4483C167.246 -0.308969 113.339 -6.66804 112.251 15.0496C112.241 14.9112 112.221 14.7727 112.221 14.6442C112.34 18.4913 111.519 23.0306 113.784 26.8579L47.5829 65.3286C43.8539 63.4397 38.6413 58.8509 33.854 60.3146L33.8639 57.7828C33.8639 57.8619 33.8441 57.9411 33.8244 58.0202C32.6374 52.6402 22.41 57.5949 20.867 60.8486C20.867 60.8486 20.867 60.8486 20.867 60.8388C20.867 60.8684 20.867 62.5397 20.8571 63.0243C17.4249 61.2442 11.0155 64.5573 9.05704 67.7022C9.05704 67.7022 9.05704 67.7022 9.05704 67.6923C8.82954 73.6953 8.16683 79.2928 16.6534 75.3765C16.8512 75.604 17.0886 75.8216 17.4546 76.049C16.8413 78.1852 18.7503 79.8565 21.0451 80.9444C20.6197 81.4092 20.3823 81.9235 20.3823 82.4377V82.4278C18.0678 96.1942 31.7373 94.7306 34.0519 92.9109C42.5879 86.2057 128.621 37.964 128.641 37.9442C138.462 41.3858 156.148 44.1054 166.247 33.84C168.878 31.1698 168.343 24.8701 168.383 21.2802C168.393 21.3395 168.393 21.3889 168.383 21.4483Z" fill="#D5DAF3"/>
<path opacity="0.6098" d="M152.27 32.2873C147.176 35.007 137.157 33.8895 132.607 28.5688C109.353 19.5 136.682 8.84883 146.118 20.5087C152.003 21.6065 159.154 28.3809 152.27 32.2873ZM167.898 21.4483C166.761 -0.308969 112.854 -6.66804 111.766 15.0496C111.756 14.9112 111.737 14.7727 111.737 14.6442C111.855 18.4913 111.034 23.0306 113.299 26.8579L47.0981 65.3286C43.3691 63.4397 38.1565 58.8509 33.3692 60.3146L33.3791 57.7828C33.3791 57.8619 33.3593 57.9411 33.3395 58.0202C32.1526 52.6402 21.9252 57.5949 20.3822 60.8486C20.3822 60.8486 20.3822 60.8486 20.3822 60.8388C20.3822 60.8684 20.3822 62.5397 20.3723 63.0243C16.94 61.2442 10.5306 64.5573 8.57217 67.7022C8.57217 67.7022 8.57217 67.7022 8.57217 67.6923C8.34468 73.6953 7.68197 79.2928 16.1685 75.3765C16.3664 75.604 16.6038 75.8216 16.9698 76.049C16.3565 78.1852 18.2655 79.8565 20.5602 80.9444C20.1349 81.4092 19.8975 81.9235 19.8975 82.4377V82.4278C17.583 96.1942 31.2525 94.7306 33.567 92.9109C42.1031 86.2057 128.136 37.964 128.156 37.9442C137.978 41.3858 155.663 44.1054 165.762 33.84C168.393 31.1698 167.859 24.8701 167.898 21.2802C167.898 21.3395 167.898 21.3889 167.898 21.4483Z" fill="#D3D9F3"/>
<path opacity="0.6341" d="M151.776 32.2873C146.682 35.007 136.662 33.8895 132.113 28.5688C108.859 19.5 136.188 8.84883 145.624 20.5087C151.509 21.6065 158.66 28.3809 151.776 32.2873ZM167.404 21.4483C166.267 -0.308969 112.36 -6.66804 111.272 15.0496C111.262 14.9112 111.242 14.7727 111.242 14.6442C111.361 18.4913 110.54 23.0306 112.805 26.8579L46.6039 65.3286C42.875 63.4397 37.6624 58.8509 32.8751 60.3146L32.885 57.7828C32.885 57.8619 32.8652 57.9411 32.8454 58.0202C31.6584 52.6402 21.431 57.5949 19.888 60.8486C19.888 60.8486 19.888 60.8486 19.888 60.8388C19.888 60.8684 19.888 62.5397 19.8781 63.0243C16.4459 61.2442 10.0365 64.5573 8.07803 67.7022C8.07803 67.7022 8.07803 67.7022 8.07803 67.6923C7.85054 73.6953 7.18783 79.2928 15.6744 75.3765C15.8722 75.604 16.1096 75.8216 16.4756 76.049C15.8624 78.1852 17.7713 79.8565 20.0661 80.9444C19.6407 81.4092 19.4034 81.9235 19.4034 82.4377V82.4278C17.0888 96.1942 30.7584 94.7306 33.0729 92.9109C41.6089 86.2057 127.642 37.964 127.662 37.9442C137.483 41.3858 155.169 44.1054 165.268 33.84C167.899 31.1698 167.365 24.8701 167.404 21.2802C167.404 21.3395 167.404 21.3889 167.404 21.4483Z" fill="#D1D7F2"/>
<path opacity="0.6585" d="M151.281 32.2873C146.188 35.007 136.168 33.8895 131.618 28.5688C108.364 19.5 135.693 8.84883 145.129 20.5087C151.014 21.6065 158.176 28.3809 151.281 32.2873ZM166.909 21.4483C165.772 -0.308969 111.865 -6.66804 110.777 15.0496C110.768 14.9112 110.748 14.7727 110.748 14.6442C110.866 18.4913 110.045 23.0306 112.311 26.8579L46.1093 65.3286C42.3804 63.4397 37.1677 58.8509 32.3804 60.3146L32.3903 57.7828C32.3903 57.8619 32.3705 57.9411 32.3508 58.0202C31.1638 52.6402 20.9364 57.5949 19.3934 60.8486C19.3934 60.8486 19.3934 60.8486 19.3934 60.8388C19.3934 60.8684 19.3934 62.5397 19.3835 63.0243C15.9513 61.2442 9.54184 64.5573 7.5834 67.7022C7.5834 67.7022 7.5834 67.7022 7.5834 67.6923C7.35591 73.6953 6.6932 79.2928 15.1798 75.3765C15.3776 75.604 15.615 75.8216 15.981 76.049C15.3677 78.1852 17.2767 79.8565 19.5714 80.9444C19.1461 81.4092 18.9087 81.9235 18.9087 82.4377V82.4278C16.5942 96.1942 30.2637 94.7306 32.5783 92.9109C41.1143 86.2057 127.147 37.964 127.167 37.9442C136.989 41.3858 154.674 44.1054 164.773 33.84C167.404 31.1698 166.87 24.8701 166.909 21.2802C166.919 21.3395 166.909 21.3889 166.909 21.4483Z" fill="#D0D6F2"/>
<path opacity="0.6829" d="M150.797 32.2873C145.703 35.007 135.683 33.8895 131.133 28.5688C107.879 19.5 135.208 8.84883 144.644 20.5087C150.53 21.6065 157.681 28.3809 150.797 32.2873ZM166.415 21.4483C165.277 -0.308969 111.371 -6.66804 110.283 15.0496C110.273 14.9112 110.253 14.7727 110.253 14.6442C110.372 18.4913 109.551 23.0306 111.816 26.8579L45.6147 65.3286C41.8857 63.4397 36.6731 58.8509 31.8858 60.3146L31.8957 57.7828C31.8957 57.8619 31.8759 57.9411 31.8561 58.0202C30.6692 52.6402 20.4418 57.5949 18.8988 60.8486C18.8988 60.8486 18.8988 60.8486 18.8988 60.8388C18.8988 60.8684 18.8988 62.5397 18.8889 63.0243C15.4566 61.2442 9.04722 64.5573 7.08878 67.7022C7.08878 67.7022 7.08878 67.7022 7.08878 67.6923C6.86128 73.6953 6.19857 79.2928 14.6851 75.3765C14.883 75.604 15.1204 75.8216 15.4864 76.049C14.8731 78.1852 16.7821 79.8565 19.0768 80.9444C18.6515 81.4092 18.4141 81.9235 18.4141 82.4377V82.4278C16.0996 96.1942 29.7691 94.7306 32.0836 92.9109C40.6197 86.2057 126.653 37.964 126.672 37.9442C136.494 41.3858 154.18 44.1054 164.278 33.84C166.909 31.1698 166.375 24.8701 166.415 21.2802C166.425 21.3395 166.425 21.3889 166.415 21.4483Z" fill="#CED4F1"/>
<path opacity="0.7073" d="M150.302 32.2873C145.208 35.007 135.188 33.8895 130.638 28.5688C107.384 19.5 134.714 8.84883 144.15 20.5087C150.035 21.6065 157.186 28.3809 150.302 32.2873ZM165.93 21.4483C164.792 -0.308969 110.886 -6.66804 109.798 15.0496C109.788 14.9112 109.768 14.7727 109.768 14.6442C109.887 18.4913 109.066 23.0306 111.331 26.8579L45.1298 65.3286C41.4008 63.4397 36.1882 58.8509 31.4009 60.3146L31.4108 57.7828C31.4108 57.8619 31.391 57.9411 31.3713 58.0202C30.1843 52.6402 19.9569 57.5949 18.4139 60.8486C18.4139 60.8486 18.4139 60.8486 18.4139 60.8388C18.4139 60.8684 18.4139 62.5397 18.404 63.0243C14.9718 61.2442 8.56235 64.5573 6.60391 67.7022C6.60391 67.7022 6.60391 67.7022 6.60391 67.6923C6.37642 73.6953 5.7137 79.2928 14.2003 75.3765C14.3981 75.604 14.6355 75.8216 15.0015 76.049C14.3882 78.1852 16.2972 79.8565 18.5919 80.9444C18.1666 81.4092 17.9292 81.9235 17.9292 82.4377V82.4278C15.6147 96.1942 29.2842 94.7306 31.5987 92.9109C40.1348 86.2057 126.168 37.964 126.187 37.9442C136.009 41.3858 153.695 44.1054 163.793 33.84C166.424 31.1698 165.89 24.8701 165.93 21.2802C165.93 21.3395 165.93 21.3889 165.93 21.4483Z" fill="#CCD2F1"/>
<path opacity="0.7317" d="M149.808 32.2873C144.714 35.007 134.694 33.8895 130.144 28.5688C106.89 19.5 134.219 8.84883 143.656 20.5087C149.541 21.6065 156.692 28.3809 149.808 32.2873ZM165.436 21.4483C164.298 -0.308969 110.392 -6.66804 109.304 15.0496C109.294 14.9112 109.274 14.7727 109.274 14.6442C109.393 18.4913 108.572 23.0306 110.837 26.8579L44.6356 65.3286C40.9067 63.4397 35.6941 58.8509 30.9068 60.3146L30.9167 57.7828C30.9167 57.8619 30.8969 57.9411 30.8771 58.0202C29.6902 52.6402 19.4628 57.5949 17.9198 60.8486C17.9198 60.8486 17.9198 60.8486 17.9198 60.8388C17.9198 60.8684 17.9198 62.5397 17.9099 63.0243C14.4776 61.2442 8.06821 64.5573 6.10977 67.7022C6.10977 67.7022 6.10977 67.7022 6.10977 67.6923C5.88228 73.6953 5.21956 79.2928 13.7061 75.3765C13.904 75.604 14.1413 75.8216 14.5073 76.049C13.8941 78.1852 15.8031 79.8565 18.0978 80.9444C17.6725 81.4092 17.4351 81.9235 17.4351 82.4377V82.4278C15.1206 96.1942 28.7901 94.7306 31.1046 92.9109C39.6406 86.2057 125.674 37.964 125.693 37.9442C135.515 41.3858 153.2 44.1054 163.299 33.84C165.93 31.1698 165.396 24.8701 165.436 21.2802C165.446 21.3395 165.436 21.3889 165.436 21.4483Z" fill="#CAD1F0"/>
<path opacity="0.7561" d="M149.323 32.2873C144.229 35.007 134.209 33.8895 129.66 28.5688C106.406 19.5 133.735 8.84883 143.171 20.5087C149.046 21.6065 156.207 28.3809 149.323 32.2873ZM164.941 21.4483C163.804 -0.308969 109.897 -6.66804 108.809 15.0496C108.799 14.9112 108.779 14.7727 108.779 14.6442C108.898 18.4913 108.077 23.0306 110.342 26.8579L44.141 65.3286C40.4121 63.4397 35.1995 58.8509 30.4122 60.3146L30.422 57.7828C30.422 57.8619 30.4023 57.9411 30.3825 58.0202C29.1956 52.6402 18.9681 57.5949 17.4251 60.8486C17.4251 60.8486 17.4251 60.8486 17.4251 60.8388C17.4251 60.8684 17.4251 62.5397 17.4152 63.0243C13.983 61.2442 7.57358 64.5573 5.61514 67.7022C5.61514 67.7022 5.61514 67.7022 5.61514 67.6923C5.38765 73.6953 4.72494 79.2928 13.2115 75.3765C13.4093 75.604 13.6467 75.8216 14.0127 76.049C13.3994 78.1852 15.3084 79.8565 17.6032 80.9444C17.1778 81.4092 16.9404 81.9235 16.9404 82.4377V82.4278C14.6259 96.1942 28.2954 94.7306 30.61 92.9109C39.146 86.2057 125.179 37.964 125.199 37.9442C135.021 41.3858 152.706 44.1054 162.805 33.84C165.436 31.1698 164.902 24.8701 164.941 21.2802C164.951 21.3395 164.941 21.3889 164.941 21.4483Z" fill="#C9CFF0"/>
<path opacity="0.7805" d="M148.828 32.2873C143.735 35.007 133.715 33.8895 129.165 28.5688C105.911 19.5 133.24 8.84883 142.676 20.5087C148.561 21.6065 155.713 28.3809 148.828 32.2873ZM164.447 21.4483C163.309 -0.308969 109.402 -6.66804 108.314 15.0496C108.305 14.9112 108.285 14.7727 108.285 14.6442C108.403 18.4913 107.583 23.0306 109.848 26.8579L43.6464 65.3286C39.9174 63.4397 34.7048 58.8509 29.9175 60.3146L29.9274 57.7828C29.9274 57.8619 29.9076 57.9411 29.8879 58.0202C28.7009 52.6402 18.4735 57.5949 16.9305 60.8486C16.9305 60.8486 16.9305 60.8486 16.9305 60.8388C16.9305 60.8684 16.9305 62.5397 16.9206 63.0243C13.4884 61.2442 7.07895 64.5573 5.12051 67.7022C5.12051 67.7022 5.12051 67.7022 5.12051 67.6923C4.89302 73.6953 4.23031 79.2928 12.7169 75.3765C12.9147 75.604 13.1521 75.8216 13.5181 76.049C12.9048 78.1852 14.8138 79.8565 17.1085 80.9444C16.6832 81.4092 16.4458 81.9235 16.4458 82.4377V82.4278C14.1313 96.1942 27.8008 94.7306 30.1153 92.9109C38.6514 86.2057 124.684 37.964 124.704 37.9442C134.526 41.3858 152.211 44.1054 162.31 33.84C164.941 31.1698 164.407 24.8701 164.447 21.2802C164.456 21.3395 164.456 21.3889 164.447 21.4483Z" fill="#C7CEEF"/>
<path opacity="0.8049" d="M148.334 32.2873C143.24 35.007 133.22 33.8895 128.67 28.5688C105.416 19.5 132.745 8.84883 142.181 20.5087C148.067 21.6065 155.218 28.3809 148.334 32.2873ZM163.962 21.4483C162.824 -0.308969 108.918 -6.66804 107.83 15.0496C107.82 14.9112 107.8 14.7727 107.8 14.6442C107.919 18.4913 107.098 23.0306 109.363 26.8579L43.1615 65.3286C39.4326 63.4397 34.2199 58.8509 29.4326 60.3146L29.4425 57.7828C29.4425 57.8619 29.4228 57.9411 29.403 58.0202C28.216 52.6402 17.9886 57.5949 16.4456 60.8486C16.4456 60.8486 16.4456 60.8486 16.4456 60.8388C16.4456 60.8684 16.4456 62.5397 16.4357 63.0243C13.0035 61.2442 6.59409 64.5573 4.63565 67.7022C4.63565 67.7022 4.63565 67.7022 4.63565 67.6923C4.40815 73.6953 3.74544 79.2928 12.232 75.3765C12.4298 75.604 12.6672 75.8216 13.0332 76.049C12.4199 78.1852 14.3289 79.8565 16.6237 80.9444C16.1984 81.4092 15.961 81.9235 15.961 82.4377V82.4278C13.6464 96.1942 27.316 94.7306 29.6305 92.9109C38.1665 86.2057 124.199 37.964 124.219 37.9442C134.041 41.3858 151.726 44.1054 161.825 33.84C164.456 31.1698 163.922 24.8701 163.962 21.2802C163.962 21.3395 163.962 21.3889 163.962 21.4483Z" fill="#C5CCEF"/>
<path opacity="0.8293" d="M147.839 32.2873C142.745 35.007 132.725 33.8895 128.176 28.5688C104.922 19.5 132.251 8.84883 141.687 20.5087C147.572 21.6065 154.723 28.3809 147.839 32.2873ZM163.467 21.4483C162.33 -0.308969 108.423 -6.66804 107.335 15.0496C107.325 14.9112 107.305 14.7727 107.305 14.6442C107.424 18.4913 106.603 23.0306 108.868 26.8579L42.6669 65.3286C38.9379 63.4397 33.7253 58.8509 28.938 60.3146L28.9479 57.7828C28.9479 57.8619 28.9281 57.9411 28.9083 58.0202C27.7214 52.6402 17.494 57.5949 15.951 60.8486C15.951 60.8486 15.951 60.8486 15.951 60.8388C15.951 60.8684 15.951 62.5397 15.9411 63.0243C12.5089 61.2442 6.09946 64.5573 4.14102 67.7022C4.14102 67.7022 4.14102 67.7022 4.14102 67.6923C3.91353 73.6953 3.25081 79.2928 11.7374 75.3765C11.9352 75.604 12.1726 75.8216 12.5386 76.049C11.9253 78.1852 13.8343 79.8565 16.129 80.9444C15.7037 81.4092 15.4663 81.9235 15.4663 82.4377V82.4278C13.1518 96.1942 26.8213 94.7306 29.1359 92.9109C37.6719 86.2057 123.705 37.964 123.725 37.9442C133.546 41.3858 151.232 44.1054 161.331 33.84C163.962 31.1698 163.428 24.8701 163.467 21.2802C163.477 21.3395 163.467 21.3889 163.467 21.4483Z" fill="#C3CBEE"/>
<path opacity="0.8537" d="M147.355 32.2873C142.261 35.007 132.241 33.8895 127.691 28.5688C104.437 19.5 131.766 8.84883 141.203 20.5087C147.078 21.6065 154.239 28.3809 147.355 32.2873ZM162.973 21.4483C161.835 -0.308969 107.929 -6.66804 106.841 15.0496C106.831 14.9112 106.811 14.7727 106.811 14.6442C106.93 18.4913 106.109 23.0306 108.374 26.8579L42.1727 65.3286C38.4438 63.4397 33.2312 58.8509 28.4439 60.3146L28.4538 57.7828C28.4538 57.8619 28.434 57.9411 28.4142 58.0202C27.2273 52.6402 16.9999 57.5949 15.4568 60.8486C15.4568 60.8486 15.4568 60.8486 15.4568 60.8388C15.4568 60.8684 15.4569 62.5397 15.447 63.0243C12.0148 61.2442 5.60532 64.5573 3.64688 67.7022C3.64688 67.7022 3.64688 67.7022 3.64688 67.6923C3.41939 73.6953 2.75667 79.2928 11.2432 75.3765C11.4411 75.604 11.6785 75.8216 12.0444 76.049C11.4312 78.1852 13.3402 79.8565 15.6349 80.9444C15.2096 81.4092 14.9722 81.9235 14.9722 82.4377V82.4278C12.6577 96.1942 26.3272 94.7306 28.6417 92.9109C37.1777 86.2057 123.211 37.964 123.23 37.9442C133.052 41.3858 150.738 44.1054 160.836 33.84C163.467 31.1698 162.933 24.8701 162.973 21.2802C162.983 21.3395 162.973 21.3889 162.973 21.4483Z" fill="#C2C9EE"/>
<path opacity="0.878" d="M146.86 32.2873C141.766 35.007 131.747 33.8895 127.197 28.5688C103.943 19.5 131.272 8.84883 140.708 20.5087C146.593 21.6065 153.744 28.3809 146.86 32.2873ZM162.478 21.4483C161.341 -0.308969 107.434 -6.66804 106.346 15.0496C106.336 14.9112 106.317 14.7727 106.317 14.6442C106.435 18.4913 105.614 23.0306 107.879 26.8579L41.6781 65.3286C37.9492 63.4397 32.7365 58.8509 27.9492 60.3146L27.9591 57.7828C27.9591 57.8619 27.9394 57.9411 27.9196 58.0202C26.7326 52.6402 16.5052 57.5949 14.9622 60.8486C14.9622 60.8486 14.9622 60.8486 14.9622 60.8388C14.9622 60.8684 14.9622 62.5397 14.9523 63.0243C11.5201 61.2442 5.11069 64.5573 3.15225 67.7022C3.15225 67.7022 3.15225 67.7022 3.15225 67.6923C2.92476 73.6953 2.26204 79.2928 10.7486 75.3765C10.9464 75.604 11.1838 75.8216 11.5498 76.049C10.9365 78.1852 12.8455 79.8565 15.1403 80.9444C14.715 81.4092 14.4776 81.9235 14.4776 82.4377V82.4278C12.163 96.1942 25.8326 94.7306 28.1471 92.9109C36.6831 86.2057 122.716 37.964 122.736 37.9442C132.558 41.3858 150.243 44.1054 160.342 33.84C162.973 31.1698 162.439 24.8701 162.478 21.2802C162.488 21.3395 162.488 21.3889 162.478 21.4483Z" fill="#C0C8ED"/>
<path opacity="0.9024" d="M146.365 32.2873C141.272 35.007 131.252 33.8895 126.702 28.5688C103.448 19.5 130.777 8.84883 140.213 20.5087C146.098 21.6065 153.25 28.3809 146.365 32.2873ZM161.993 21.4483C160.856 -0.308969 106.949 -6.66804 105.861 15.0496C105.851 14.9112 105.832 14.7727 105.832 14.6442C105.95 18.4913 105.129 23.0306 107.394 26.8579L41.1933 65.3286C37.4643 63.4397 32.2517 58.8509 27.4644 60.3146L27.4743 57.7828C27.4743 57.8619 27.4545 57.9411 27.4347 58.0202C26.2478 52.6402 16.0204 57.5949 14.4774 60.8486C14.4774 60.8486 14.4774 60.8486 14.4774 60.8388C14.4774 60.8684 14.4774 62.5397 14.4675 63.0243C11.0353 61.2442 4.62583 64.5573 2.66739 67.7022C2.66739 67.7022 2.66739 67.7022 2.66739 67.6923C2.43989 73.6953 1.77718 79.2928 10.2638 75.3765C10.4616 75.604 10.699 75.8216 11.065 76.049C10.4517 78.1852 12.3607 79.8565 14.6554 80.9444C14.2301 81.4092 13.9927 81.9235 13.9927 82.4377V82.4278C11.6782 96.1942 25.3477 94.7306 27.6622 92.9109C36.1983 86.2057 122.231 37.964 122.251 37.9442C132.073 41.3858 149.758 44.1054 159.857 33.84C162.488 31.1698 161.954 24.8701 161.993 21.2802C161.993 21.3395 161.993 21.3889 161.993 21.4483Z" fill="#BEC6ED"/>
<path opacity="0.9268" d="M145.871 32.2873C140.777 35.007 130.757 33.8895 126.207 28.5688C102.953 19.5 130.282 8.84883 139.719 20.5087C145.604 21.6065 152.755 28.3809 145.871 32.2873ZM161.499 21.4483C160.361 -0.308969 106.455 -6.66804 105.367 15.0496C105.357 14.9112 105.337 14.7727 105.337 14.6442C105.456 18.4913 104.635 23.0306 106.9 26.8579L40.6987 65.3286C36.9697 63.4397 31.7571 58.8509 26.9698 60.3146L26.9797 57.7828C26.9797 57.8619 26.9599 57.9411 26.9401 58.0202C25.7532 52.6402 15.5258 57.5949 13.9827 60.8486C13.9827 60.8486 13.9827 60.8486 13.9827 60.8388C13.9827 60.8684 13.9827 62.5397 13.9728 63.0243C10.5406 61.2442 4.1312 64.5573 2.17276 67.7022C2.17276 67.7022 2.17276 67.7022 2.17276 67.6923C1.94526 73.6953 1.28255 79.2928 9.76913 75.3765C9.96695 75.604 10.2044 75.8216 10.5703 76.049C9.95708 78.1852 11.866 79.8565 14.1608 80.9444C13.7355 81.4092 13.4981 81.9235 13.4981 82.4377V82.4278C11.1836 96.1942 24.8531 94.7306 27.1676 92.9109C35.7036 86.2057 121.737 37.964 121.756 37.9442C131.578 41.3858 149.263 44.1054 159.362 33.84C161.993 31.1698 161.459 24.8701 161.499 21.2802C161.509 21.3395 161.499 21.3889 161.499 21.4483Z" fill="#BCC5EC"/>
<path opacity="0.9512" d="M145.386 32.2873C140.292 35.007 130.273 33.8895 125.723 28.5688C102.469 19.5 129.798 8.84883 139.234 20.5087C145.109 21.6065 152.27 28.3809 145.386 32.2873ZM161.004 21.4483C159.867 -0.308969 105.96 -6.66804 104.872 15.0496C104.862 14.9112 104.842 14.7727 104.842 14.6442C104.961 18.4913 104.14 23.0306 106.405 26.8579L40.204 65.3286C36.4751 63.4397 31.2625 58.8509 26.4752 60.3146L26.4851 57.7828C26.4851 57.8619 26.4653 57.9411 26.4455 58.0202C25.2586 52.6402 15.0311 57.5949 13.4881 60.8486C13.4881 60.8486 13.4881 60.8486 13.4881 60.8388C13.4881 60.8684 13.4881 62.5397 13.4782 63.0243C10.046 61.2442 3.63657 64.5573 1.67813 67.7022C1.67813 67.7022 1.67813 67.7022 1.67813 67.6923C1.45064 73.6953 0.787923 79.2928 9.2745 75.3765C9.47232 75.604 9.70974 75.8216 10.0757 76.049C9.46246 78.1852 11.3714 79.8565 13.6662 80.9444C13.2408 81.4092 13.0035 81.9235 13.0035 82.4377V82.4278C10.6889 96.1942 24.3585 94.7306 26.673 92.9109C35.209 86.2057 121.242 37.964 121.262 37.9442C131.084 41.3858 148.769 44.1054 158.868 33.84C161.499 31.1698 160.965 24.8701 161.004 21.2802C161.014 21.3395 161.004 21.3889 161.004 21.4483Z" fill="#BBC3EC"/>
<path opacity="0.9756" d="M144.892 32.2873C139.798 35.007 129.778 33.8895 125.228 28.5688C101.974 19.5 129.304 8.84883 138.74 20.5087C144.625 21.6065 151.776 28.3809 144.892 32.2873ZM160.51 21.4483C159.372 -0.308969 105.466 -6.66804 104.378 15.0496C104.368 14.9112 104.348 14.7727 104.348 14.6442C104.467 18.4913 103.646 23.0306 105.911 26.8579L39.7099 65.3286C35.9809 63.4397 30.7683 58.8509 25.981 60.3146L25.9909 57.7828C25.9909 57.8619 25.9711 57.9411 25.9513 58.0202C24.7644 52.6402 14.537 57.5949 12.994 60.8486C12.994 60.8486 12.994 60.8486 12.994 60.8388C12.994 60.8684 12.994 62.5397 12.9841 63.0243C9.55186 61.2442 3.14243 64.5573 1.18399 67.7022C1.18399 67.7022 1.18399 67.7022 1.18399 67.6923C0.956495 73.6953 0.293783 79.2928 8.78035 75.3765C8.97818 75.604 9.21559 75.8216 9.58156 76.049C8.96831 78.1852 10.8773 79.8565 13.172 80.9444C12.7467 81.4092 12.5093 81.9235 12.5093 82.4377V82.4278C10.1948 96.1942 23.8643 94.7306 26.1788 92.9109C34.7149 86.2057 120.748 37.964 120.767 37.9442C130.589 41.3858 148.275 44.1054 158.374 33.84C161.005 31.1698 160.47 24.8701 160.51 21.2802C160.52 21.3395 160.52 21.3889 160.51 21.4483Z" fill="#B9C2EB"/>
<path opacity="0.7" d="M144.397 32.2873C139.303 35.007 129.284 33.8895 124.734 28.5688C101.48 19.5 128.809 8.84884 138.245 20.5087C144.13 21.6065 151.281 28.3809 144.397 32.2873ZM160.025 21.4483C158.888 -0.30897 104.981 -6.66805 103.893 15.0496C103.883 14.9112 103.863 14.7727 103.863 14.6442C103.982 18.4913 103.161 23.0306 105.426 26.8579L39.225 65.3286C35.4961 63.4397 30.2834 58.8509 25.4961 60.3146L25.506 57.7828C25.506 57.862 25.4863 57.9411 25.4665 58.0202C24.2795 52.6402 14.0521 57.5949 12.5091 60.8486C12.5091 60.8486 12.5091 60.8487 12.5091 60.8388C12.5091 60.8684 12.5091 62.5397 12.4992 63.0243C9.067 61.2442 2.65757 64.5573 0.699127 67.7022C0.699127 67.7022 0.699127 67.7022 0.699127 67.6923C0.471631 73.6953 -0.19108 79.2928 8.29549 75.3765C8.49331 75.604 8.7307 75.8216 9.09667 76.049C8.48342 78.1852 10.3924 79.8565 12.6871 80.9444C12.2618 81.4092 12.0245 81.9235 12.0245 82.4377V82.4278C9.70994 96.1942 23.6564 95.0273 25.6939 92.9109C35.0806 87.4617 120.263 37.964 120.283 37.9442C130.104 41.3858 148.057 44.3626 157.889 33.84C160.589 31.239 159.986 24.8701 160.025 21.2802C160.025 21.3395 160.025 21.3889 160.025 21.4483Z" fill="#B7C0EB"/>
</g>
<path d="M135.802 10.8465C135.703 10.7871 135.604 10.7278 135.505 10.6684C135.169 10.4707 134.823 10.2926 134.457 10.1146C134.338 10.0553 134.219 10.0059 134.101 9.95642C133.853 9.84763 133.606 9.73883 133.359 9.63004C133.309 9.61026 133.27 9.59049 133.22 9.57071C133.161 9.55093 133.102 9.53115 133.052 9.51137C132.518 9.30369 131.964 9.11579 131.41 8.95755C131.41 8.95755 131.41 8.95755 131.4 8.95755C131.391 8.95755 131.371 8.94765 131.361 8.94765C130.936 8.82898 130.5 8.72019 130.065 8.63118C130.016 8.62129 129.956 8.60153 129.907 8.59164C129.818 8.57186 129.719 8.56198 129.63 8.54221C129.363 8.49276 129.096 8.44329 128.829 8.40374C128.74 8.39385 128.661 8.37409 128.572 8.3642C128.502 8.35431 128.423 8.34439 128.354 8.3345C128.126 8.30483 127.889 8.27515 127.662 8.25537C127.553 8.24548 127.444 8.22572 127.335 8.21583C127.276 8.21583 127.216 8.20593 127.157 8.20593C126.94 8.18615 126.732 8.17629 126.514 8.17629C126.396 8.1664 126.267 8.15649 126.148 8.15649C126.099 8.15649 126.059 8.15649 126.01 8.15649C125.802 8.15649 125.594 8.15649 125.387 8.15649C125.258 8.15649 125.129 8.15649 125.001 8.15649C124.961 8.15649 124.932 8.16639 124.892 8.16639C124.645 8.17628 124.407 8.19605 124.16 8.21583C124.051 8.22572 123.933 8.22574 123.824 8.23563C123.804 8.23563 123.784 8.24553 123.774 8.24553C123.379 8.28509 122.993 8.3444 122.607 8.40374C122.587 8.40374 122.568 8.40375 122.558 8.41363C122.32 8.45319 122.103 8.5125 121.875 8.56194C121.806 8.58172 121.737 8.59165 121.668 8.60154C121.371 8.68066 121.074 8.75978 120.787 8.84878C120.777 8.84878 120.777 8.85868 120.767 8.85868C120.56 8.92791 120.362 9.00701 120.164 9.08612C120.065 9.12568 119.966 9.15534 119.867 9.1949C119.581 9.31357 119.304 9.45206 119.036 9.60041C118.947 9.64985 118.868 9.69927 118.779 9.74871C118.7 9.79816 118.631 9.84763 118.562 9.89708C118.463 9.95642 118.364 10.0257 118.275 10.085C118.166 10.1641 118.067 10.2432 117.958 10.3223C117.879 10.3916 117.79 10.4509 117.711 10.5201C117.691 10.5399 117.662 10.5597 117.642 10.5795C117.602 10.619 117.573 10.6586 117.533 10.6981C117.395 10.8267 117.276 10.9651 117.157 11.1036C117.128 11.1333 117.088 11.1729 117.068 11.2025C117.038 11.2421 117.019 11.2816 116.989 11.3212C116.91 11.4201 116.841 11.5289 116.781 11.6377C116.752 11.6871 116.712 11.7365 116.682 11.786C116.663 11.8156 116.653 11.8552 116.633 11.8849C116.584 11.9838 116.534 12.0827 116.494 12.1915C116.475 12.2508 116.435 12.3003 116.415 12.3596C116.405 12.3893 116.396 12.419 116.386 12.4486C116.346 12.5574 116.316 12.6662 116.297 12.7749C116.277 12.8343 116.257 12.8936 116.247 12.9629C116.237 12.9826 116.247 13.0123 116.237 13.042C116.218 13.1706 116.208 13.2991 116.198 13.4277C116.198 13.487 116.178 13.5464 116.178 13.6057C116.178 13.6354 116.178 13.6749 116.178 13.7046L116.158 20.4098C116.158 20.3109 116.178 20.2218 116.178 20.123C116.188 19.9944 116.198 19.8659 116.218 19.7373C116.237 19.6483 116.257 19.5692 116.277 19.4802C116.307 19.3714 116.336 19.2626 116.366 19.1538C116.396 19.0648 116.435 18.9857 116.475 18.8966C116.514 18.7977 116.564 18.689 116.613 18.5901C116.653 18.511 116.702 18.4318 116.752 18.3428C116.821 18.234 116.89 18.1351 116.959 18.0263C117.009 17.9571 117.068 17.878 117.128 17.8088C117.246 17.6704 117.365 17.5418 117.503 17.4033C117.563 17.344 117.622 17.2846 117.691 17.2154C117.77 17.1462 117.85 17.077 117.939 17.0176C118.038 16.9385 118.146 16.8594 118.255 16.7802C118.344 16.711 118.443 16.6517 118.542 16.5923C118.7 16.4934 118.849 16.3946 119.017 16.2957C119.284 16.1473 119.561 16.0188 119.848 15.8902C119.946 15.8507 120.045 15.821 120.144 15.7814C120.342 15.7023 120.54 15.6232 120.748 15.5539C121.044 15.455 121.341 15.366 121.658 15.2968C121.717 15.277 121.786 15.2671 121.855 15.2573C122.103 15.1979 122.35 15.1485 122.607 15.0991C122.983 15.0298 123.379 14.9803 123.774 14.9408C123.903 14.9309 124.041 14.921 124.17 14.9111C124.407 14.8914 124.655 14.8715 124.892 14.8616C125.05 14.8518 125.218 14.8518 125.387 14.8518C125.594 14.8518 125.802 14.8419 126.02 14.8518C126.188 14.8518 126.356 14.8617 126.524 14.8715C126.732 14.8814 126.949 14.8914 127.157 14.9012C127.325 14.9111 127.493 14.9309 127.662 14.9507C127.889 14.9705 128.117 15.0001 128.354 15.0298C128.512 15.0496 128.67 15.0793 128.829 15.0991C129.096 15.1386 129.363 15.188 129.63 15.2375C129.778 15.2671 129.917 15.2968 130.065 15.3265C130.5 15.4155 130.936 15.5243 131.361 15.643C131.381 15.643 131.391 15.6529 131.41 15.6529C131.974 15.8111 132.518 15.999 133.052 16.2067C133.161 16.2462 133.26 16.2858 133.369 16.3254C133.616 16.4243 133.863 16.5331 134.111 16.6517C134.229 16.7012 134.348 16.7605 134.467 16.8099C134.823 16.9781 135.169 17.166 135.505 17.3638C135.604 17.4231 135.703 17.4824 135.802 17.5418C137.048 18.3033 138.018 19.1439 138.7 20.0241L138.72 13.3189C138.018 12.4486 137.048 11.608 135.802 10.8465Z" fill="url(#paint0_linear_530_1993)"/>
<path d="M143.586 15.3365C143.487 15.2771 143.378 15.2178 143.28 15.1585C142.923 14.9508 142.567 14.7629 142.192 14.5848C142.063 14.5255 141.934 14.4761 141.806 14.4167C141.559 14.3079 141.301 14.1893 141.044 14.0904C141.034 14.0904 141.024 14.0805 141.014 14.0805C140.985 14.0706 140.945 14.0607 140.916 14.0508C140.421 13.8629 139.907 13.6948 139.392 13.5365C139.323 13.5168 139.254 13.4871 139.185 13.4673C139.026 13.4179 138.858 13.3783 138.7 13.3387L138.68 20.0439C138.918 20.1032 139.145 20.1724 139.373 20.2416C139.887 20.3999 140.401 20.568 140.896 20.7559C140.935 20.7757 140.985 20.7856 141.024 20.8053C141.282 20.9042 141.529 21.0229 141.776 21.1317C141.905 21.1911 142.043 21.2405 142.172 21.2998C142.548 21.4778 142.904 21.6658 143.26 21.8734C143.359 21.9328 143.467 21.9921 143.566 22.0514C146.306 23.7228 147.711 25.7996 147.711 27.7181L147.731 21.0131C147.731 19.0846 146.326 17.0078 143.586 15.3365Z" fill="url(#paint1_linear_530_1993)"/>
<path d="M104.19 16.5527C103.972 15.7022 103.864 14.8616 103.864 14.0309L103.844 20.7361C103.834 24.059 105.614 27.5897 109.116 30.7939L109.136 24.0887C106.514 21.6756 104.853 19.0944 104.19 16.5527Z" fill="#E4E7FB"/>
<path d="M160.016 21.1119C160.006 21.2504 159.996 21.3987 159.986 21.5372C159.976 21.636 159.966 21.7449 159.946 21.8438C159.927 21.9822 159.907 22.1207 159.877 22.2591C159.857 22.358 159.838 22.4668 159.818 22.5657C159.788 22.6943 159.759 22.813 159.729 22.9415C159.699 23.0503 159.669 23.1492 159.64 23.258C159.6 23.3866 159.561 23.5052 159.521 23.6338C159.482 23.7327 159.452 23.8415 159.412 23.9404C159.363 24.0591 159.313 24.1777 159.264 24.3063C159.214 24.4052 159.175 24.514 159.125 24.6129C159.066 24.7316 159.007 24.8502 158.938 24.9689C158.888 25.0678 158.839 25.1667 158.779 25.2557C158.7 25.3941 158.611 25.5326 158.522 25.6711C158.473 25.7502 158.423 25.8293 158.364 25.9183C158.255 26.0766 158.136 26.2348 158.018 26.3831C157.978 26.4424 157.939 26.4919 157.889 26.5512C157.711 26.7787 157.513 27.0061 157.306 27.2336C157.246 27.3028 157.187 27.3622 157.118 27.4215C156.969 27.5797 156.801 27.738 156.643 27.8962C156.574 27.9556 156.514 28.0149 156.445 28.0743C156.109 28.3808 155.743 28.6775 155.357 28.9742C155.298 29.0137 155.238 29.0632 155.179 29.1028C154.783 29.3896 154.358 29.6763 153.903 29.9433C153.685 30.0719 153.468 30.2005 153.24 30.3291C152.647 30.6554 152.014 30.9521 151.371 31.2291C151.173 31.3181 150.955 31.3972 150.748 31.4763C150.293 31.6642 149.818 31.8323 149.343 32.0004C149.076 32.0894 148.809 32.1784 148.542 32.2576C148.196 32.3663 147.84 32.4652 147.474 32.5542C147.177 32.6333 146.88 32.7125 146.574 32.7817C146.208 32.8707 145.832 32.9498 145.456 33.0191C145.11 33.0883 144.764 33.1575 144.408 33.2169C144.229 33.2465 144.051 33.2762 143.863 33.3059C143.359 33.385 142.845 33.4443 142.33 33.5037C142.222 33.5135 142.113 33.5333 141.994 33.5432C141.836 33.563 141.687 33.563 141.529 33.5828C140.847 33.6421 140.154 33.6915 139.452 33.7212C139.175 33.7311 138.888 33.741 138.611 33.741C138.048 33.7509 137.484 33.7509 136.92 33.7509C136.633 33.7509 136.356 33.741 136.069 33.7311C135.407 33.7113 134.744 33.6718 134.081 33.6223C133.893 33.6124 133.715 33.6026 133.527 33.5828C132.657 33.5136 131.786 33.4047 130.906 33.2861C130.698 33.2564 130.491 33.2168 130.283 33.1872C129.521 33.0685 128.76 32.9399 127.998 32.7916C127.692 32.7322 127.375 32.6729 127.068 32.6037C126.831 32.5542 126.594 32.4949 126.346 32.4455C125.891 32.3367 125.436 32.2279 124.981 32.1092C124.754 32.0498 124.536 31.9905 124.309 31.9312C123.844 31.8026 123.389 31.6642 122.924 31.5158C122.706 31.4466 122.479 31.3872 122.261 31.3081C121.589 31.0906 120.926 30.8631 120.273 30.606L120.253 37.3111C120.906 37.5584 121.569 37.7859 122.242 38.0133C122.459 38.0826 122.687 38.1518 122.904 38.221C123.27 38.3298 123.626 38.4485 123.992 38.5572C124.091 38.5869 124.19 38.6067 124.299 38.6364C124.516 38.6957 124.744 38.7551 124.962 38.8144C125.417 38.9331 125.872 39.0518 126.327 39.1507C126.564 39.21 126.801 39.2594 127.039 39.3089C127.197 39.3484 127.365 39.388 127.523 39.4176C127.672 39.4473 127.82 39.4671 127.968 39.4968C128.73 39.6451 129.492 39.7836 130.253 39.8924C130.392 39.9122 130.54 39.9418 130.679 39.9715C130.738 39.9814 130.807 39.9814 130.867 39.9913C131.737 40.1099 132.617 40.2088 133.488 40.2879C133.517 40.2879 133.557 40.2978 133.587 40.2978C133.735 40.3077 133.883 40.3077 134.032 40.3176C134.694 40.3671 135.367 40.4066 136.02 40.4264C136.129 40.4264 136.247 40.4462 136.356 40.4462C136.524 40.4462 136.702 40.4462 136.87 40.4462C137.444 40.4561 138.008 40.4561 138.562 40.4363C138.73 40.4363 138.898 40.4363 139.066 40.4363C139.175 40.4363 139.284 40.4165 139.393 40.4165C140.095 40.3868 140.787 40.3374 141.47 40.278C141.589 40.2681 141.707 40.2682 141.826 40.2583C141.865 40.2583 141.895 40.2484 141.935 40.2484C142.053 40.2385 142.162 40.2187 142.271 40.2088C142.785 40.1495 143.29 40.0803 143.794 40.0111C143.972 39.9814 144.16 39.9517 144.338 39.922C144.497 39.8924 144.665 39.8726 144.823 39.8429C145.011 39.8132 145.199 39.7638 145.387 39.7242C145.763 39.6451 146.138 39.5759 146.504 39.4869C146.811 39.4177 147.108 39.3386 147.405 39.2594C147.761 39.1605 148.117 39.0616 148.473 38.9529C148.621 38.9034 148.779 38.8737 148.928 38.8243C149.046 38.7847 149.155 38.7353 149.274 38.6957C149.759 38.5375 150.223 38.3594 150.678 38.1715C150.886 38.0924 151.094 38.0133 151.302 37.9243C151.945 37.6474 152.578 37.3507 153.171 37.0244C153.379 36.9156 153.577 36.7969 153.774 36.6783C153.794 36.6684 153.814 36.6485 153.844 36.6387C154.299 36.3716 154.714 36.0849 155.12 35.7981C155.179 35.7585 155.238 35.709 155.298 35.6695C155.683 35.3827 156.049 35.0761 156.386 34.7695C156.415 34.7398 156.445 34.7201 156.475 34.7003C156.514 34.6608 156.544 34.6311 156.583 34.5915C156.752 34.4333 156.91 34.275 157.058 34.1168C157.118 34.0575 157.187 33.9882 157.246 33.9289C157.454 33.7014 157.642 33.4839 157.83 33.2465L157.84 33.2366C157.879 33.1872 157.919 33.1279 157.958 33.0784C158.077 32.9202 158.186 32.7718 158.295 32.6136C158.354 32.5344 158.403 32.4454 158.453 32.3663C158.542 32.2279 158.621 32.0993 158.7 31.9609C158.71 31.9411 158.73 31.9114 158.74 31.8916C158.779 31.8224 158.819 31.7433 158.849 31.674C158.908 31.5554 158.977 31.4367 159.036 31.318C159.086 31.2191 159.125 31.1202 159.175 31.0213C159.224 30.9027 159.284 30.784 159.323 30.6554C159.333 30.6159 159.353 30.5862 159.363 30.5467C159.393 30.4774 159.402 30.4082 159.432 30.339C159.472 30.2203 159.521 30.0917 159.551 29.9631C159.58 29.8643 159.61 29.7555 159.64 29.6467C159.669 29.5181 159.699 29.3994 159.729 29.2709C159.739 29.2214 159.759 29.172 159.759 29.1325C159.768 29.0731 159.778 29.0236 159.788 28.9643C159.818 28.8258 159.838 28.6874 159.857 28.5489C159.867 28.45 159.887 28.3413 159.897 28.2424C159.907 28.1039 159.917 27.9556 159.927 27.8171C159.927 27.7479 159.937 27.6885 159.937 27.6193C159.937 27.5402 159.937 27.4611 159.937 27.382L159.956 20.6768C160.026 20.8251 160.016 20.9636 160.016 21.1119Z" fill="url(#paint2_linear_530_1993)"/>
<path d="M25.4368 57.5553C25.4368 57.5652 25.4269 57.585 25.4269 57.5948C25.3873 57.7135 25.3181 57.8322 25.2489 57.9509C25.239 57.9706 25.2192 57.9904 25.2093 58.0201C25.1203 58.1388 25.0214 58.2476 24.9027 58.3564C24.8235 58.4256 24.7345 58.4849 24.6455 58.5443C24.5664 58.6036 24.4971 58.6629 24.3982 58.7223L23.5476 59.2168L23.5278 65.9219L24.3785 65.4275C24.3982 65.4176 24.4081 65.4077 24.4279 65.3978C24.507 65.3484 24.5565 65.2989 24.6257 65.2494C24.7147 65.1901 24.8137 65.1308 24.8829 65.0615C24.8928 65.0516 24.9027 65.0517 24.9027 65.0418C24.9917 64.9627 25.0708 64.8737 25.14 64.7847C25.1598 64.7649 25.1697 64.7451 25.1796 64.7154C25.1994 64.6956 25.2093 64.6759 25.2192 64.6462C25.239 64.6165 25.2686 64.577 25.2884 64.5473C25.328 64.4781 25.3675 64.3989 25.3873 64.3297C25.3873 64.3198 25.3972 64.31 25.3972 64.2902C25.4071 64.2704 25.4071 64.2605 25.4071 64.2407C25.417 64.1913 25.4368 64.1517 25.4467 64.1023C25.4565 64.033 25.4664 63.9539 25.4763 63.8748C25.4763 63.8649 25.4763 63.855 25.4763 63.8451L25.4961 57.1399C25.506 57.2981 25.4764 57.4267 25.4368 57.5553Z" fill="url(#paint3_linear_530_1993)"/>
<path d="M12.5091 60.2256L12.4893 66.9308C12.4893 67.5044 12.8651 68.078 13.6168 68.5131L13.6366 61.8079C12.8849 61.3827 12.5091 60.7992 12.5091 60.2256Z" fill="url(#paint4_linear_530_1993)"/>
<path d="M8.3157 68.0681L8.2959 74.7732C8.56294 75.0798 8.90911 75.3666 9.51243 75.7028L9.5322 68.9977C8.92888 68.6615 8.58274 68.3747 8.3157 68.0681Z" fill="#EFF1FE"/>
<path d="M7.27704 68.6713C7.04955 68.7999 6.79237 68.9087 6.52531 68.9977C6.4264 69.0274 6.3374 69.057 6.23849 69.0867C6.10991 69.1262 5.98131 69.1559 5.85272 69.1856C5.69446 69.2153 5.53623 69.2449 5.37797 69.2647C5.3384 69.2647 5.30871 69.2746 5.26915 69.2845C5.05154 69.3042 4.83394 69.3141 4.61633 69.324C4.58666 69.324 4.54709 69.324 4.51742 69.324C4.29981 69.324 4.0921 69.3141 3.8745 69.2845C3.84483 69.2845 3.80525 69.2746 3.77558 69.2746C3.56787 69.2449 3.36018 69.2152 3.15247 69.1658C3.1129 69.1559 3.08321 69.146 3.04365 69.1361C2.86561 69.0866 2.68756 69.0372 2.50952 68.9779C2.47985 68.968 2.44031 68.9581 2.41063 68.9482C2.20292 68.8691 2.00507 68.7801 1.82703 68.6713C1.07531 68.2362 0.689568 67.6626 0.699459 67.0791L0.679688 73.7842C0.679688 74.3578 1.05553 74.9314 1.80726 75.3764C1.97541 75.4753 2.16334 75.5643 2.36116 75.6435C2.37105 75.6435 2.38094 75.6534 2.39083 75.6534C2.4205 75.6633 2.46008 75.6731 2.48975 75.683C2.59855 75.7226 2.70735 75.7622 2.82604 75.7918C2.88539 75.8116 2.95464 75.8215 3.02388 75.8413C3.06344 75.8512 3.0931 75.861 3.13266 75.8709C3.16234 75.8808 3.19202 75.8907 3.23158 75.8907C3.36017 75.9204 3.48877 75.9402 3.61735 75.9599C3.66681 75.9698 3.70635 75.9698 3.75581 75.9797C3.78548 75.9797 3.81516 75.9896 3.85473 75.9896C3.90418 75.9896 3.94373 75.9995 3.99319 76.0094C4.12177 76.0193 4.25037 76.0292 4.37896 76.0292C4.41852 76.0292 4.45808 76.0292 4.49764 76.0292C4.53721 76.0292 4.56689 76.0292 4.59656 76.0292C4.65591 76.0292 4.71525 76.0292 4.77459 76.0292C4.92296 76.0292 5.06143 76.0193 5.1999 75.9995C5.21969 75.9995 5.2296 75.9995 5.24938 75.9896C5.28894 75.9896 5.3186 75.9797 5.35817 75.9698C5.46697 75.96 5.58566 75.9402 5.69446 75.9204C5.74392 75.9105 5.78349 75.9006 5.83295 75.8907C5.96153 75.861 6.0901 75.8314 6.21869 75.7918C6.28793 75.7721 6.35719 75.7622 6.42642 75.7424C6.4561 75.7325 6.48577 75.7127 6.51544 75.7028C6.7825 75.6138 7.03965 75.505 7.26714 75.3764L8.30573 74.7732L8.3255 68.0681L7.27704 68.6713Z" fill="#EFF1FE"/>
<path d="M10.7191 72.4986C10.1751 72.192 9.77941 71.8261 9.50246 71.4404C9.2354 71.0547 9.09692 70.6394 9.09692 70.2339L9.07715 76.9391C9.07715 77.7599 9.61128 78.5906 10.6894 79.2137L18.2661 83.585L18.2858 76.8797L10.7191 72.4986Z" fill="#EFF1FE"/>
<path d="M120.313 30.6356L120.293 37.3408L24.8633 92.7921L24.8831 86.0868L120.313 30.6356Z" fill="#E4E7FB"/>
<path d="M24.8633 92.7921L24.8831 86.0869C24.6457 86.2254 24.3885 86.344 24.1215 86.4528C24.0522 86.4825 23.983 86.5023 23.9138 86.5319C23.7456 86.5913 23.5775 86.6407 23.3995 86.6902C23.2214 86.7396 23.0335 86.7891 22.8455 86.8286C22.6279 86.8781 22.4004 86.9176 22.1729 86.9473C22.1235 86.9572 22.0641 86.9671 22.0147 86.9671C21.708 86.9968 21.4014 87.0165 21.0849 87.0165C21.0355 87.0165 20.986 87.0165 20.9365 87.0165C20.6299 87.0165 20.3233 86.9968 20.0167 86.9671C19.9672 86.9671 19.9276 86.9572 19.8782 86.9473C19.5815 86.9077 19.2748 86.8583 18.988 86.799C18.9385 86.7891 18.8891 86.7693 18.8297 86.7594C18.5726 86.7001 18.3154 86.621 18.0681 86.5319C18.0187 86.5122 17.9692 86.5023 17.9296 86.4825C17.6329 86.3737 17.356 86.2352 17.0889 86.0869L13.6369 84.0991C12.8258 83.6343 12.3214 83.0508 12.1236 82.4376C12.0543 82.2299 12.0247 82.0321 12.0247 81.8245L12.0049 88.5297C12.0049 89.3505 12.539 90.1812 13.627 90.8043L17.079 92.7921C17.3263 92.9306 17.5933 93.0591 17.8703 93.1679C17.8901 93.1778 17.9 93.1778 17.9198 93.1877C17.9692 93.2074 18.0187 93.2173 18.0582 93.2371C18.2165 93.2964 18.3748 93.3558 18.533 93.3954C18.622 93.425 18.721 93.4448 18.8199 93.4646C18.8693 93.4745 18.9188 93.4942 18.9781 93.5041C19.0276 93.514 19.0671 93.5239 19.1166 93.5338C19.2946 93.5734 19.4825 93.603 19.6606 93.6327C19.7298 93.6426 19.7991 93.6426 19.8683 93.6525C19.9178 93.6624 19.9573 93.6624 20.0068 93.6722C20.076 93.6821 20.1354 93.692 20.2046 93.692C20.3827 93.7118 20.5706 93.7119 20.7486 93.7217C20.808 93.7217 20.8673 93.7217 20.9267 93.7217C20.9761 93.7217 21.0256 93.7217 21.075 93.7217C21.1542 93.7217 21.2432 93.7217 21.3223 93.7217C21.53 93.7119 21.7377 93.7019 21.9356 93.6821C21.9553 93.6821 21.9751 93.6722 22.0048 93.6722C22.0641 93.6624 22.1136 93.6525 22.1631 93.6525C22.3213 93.6327 22.4796 93.6129 22.6378 93.5833C22.7071 93.5734 22.7664 93.5437 22.8357 93.5338C23.0236 93.4943 23.2115 93.4448 23.3896 93.3954C23.4885 93.3657 23.5874 93.3558 23.6863 93.3261C23.7654 93.3064 23.8346 93.2668 23.9039 93.247C23.9731 93.2173 24.0423 93.1976 24.1116 93.1679C24.3688 93.0492 24.6259 92.9306 24.8633 92.7921Z" fill="#EFF1FE"/>
<path d="M150.243 7.28616C162.004 14.4562 163.359 24.7809 153.25 30.3389C144.912 34.9277 131.391 34.8387 120.303 30.6455L24.8732 86.0968C22.7367 87.333 19.2353 87.3429 17.079 86.0968L13.627 84.109C11.4806 82.8727 11.4708 80.8355 13.5973 79.5993L18.2758 76.8796L10.6992 72.5084C9.0672 71.5689 8.67156 70.1744 9.50241 69.0173C8.89906 68.6811 8.55286 68.3943 8.2858 68.0877L7.24724 68.691C5.75368 69.5613 3.30069 69.5613 1.80713 68.691C0.303682 67.8207 0.293801 66.4065 1.78736 65.5362L7.08898 62.4507C8.58254 61.5804 11.0355 61.5804 12.5291 62.4507L13.6072 61.8276C12.1038 60.9573 12.1038 59.5431 13.5874 58.6728L18.899 55.5872C20.3925 54.7169 22.8455 54.7169 24.3391 55.5872C25.8425 56.4575 25.8425 57.8717 24.3589 58.742L23.5082 59.2365C24.0424 59.3849 24.5369 59.5826 24.9721 59.8398C27.0789 59.1475 29.8188 59.3156 31.619 60.354L39.1955 64.7253L109.116 24.0986C101.717 17.334 101.994 9.13553 110.619 4.3885C120.52 -1.0607 137.731 0.0865105 149.491 6.87081C149.758 6.99938 150.006 7.13781 150.243 7.28616ZM144.852 25.0974C149.125 22.7437 148.562 18.3725 143.586 15.3363C143.487 15.277 143.388 15.2177 143.28 15.1583C141.895 14.3573 140.332 13.754 138.7 13.3287C138.018 12.4584 137.048 11.6079 135.802 10.8464C135.703 10.7871 135.604 10.7277 135.505 10.6684C130.52 7.79051 123.23 7.30591 119.037 9.6102C114.764 11.9639 115.327 16.3352 120.313 19.3713C120.411 19.4307 120.52 19.4998 120.629 19.5592C122.014 20.3602 123.577 20.9734 125.199 21.3888C125.881 22.2591 126.86 23.1096 128.107 23.8711C128.206 23.9305 128.314 23.9997 128.413 24.059C133.379 26.9171 140.668 27.4017 144.852 25.0974Z" fill="white"/>
<path d="M20.9956 86.5616C19.6009 86.5616 18.2953 86.2551 17.326 85.6914L13.874 83.7035C12.9838 83.1893 12.4892 82.5266 12.4892 81.8344C12.4892 81.152 12.9739 80.4894 13.8542 79.985L19.2152 76.8697L10.9561 72.1029C10.2044 71.6678 9.72963 71.114 9.60104 70.5404C9.51202 70.1152 9.61093 69.6701 9.90767 69.2745L10.2044 68.8592L9.75931 68.6119C9.24497 68.3152 8.90866 68.068 8.67128 67.7812L8.424 67.4944L7.05902 68.2855C6.40621 68.6613 5.52591 68.879 4.56647 68.879C3.62682 68.879 2.71682 68.6613 2.07389 68.2855C1.50021 67.9592 1.17383 67.524 1.17383 67.0988C1.17383 66.6735 1.49034 66.2581 2.06402 65.9219L7.36564 62.8363C8.00857 62.4605 8.91856 62.2529 9.84832 62.2529C10.788 62.2529 11.698 62.4704 12.3409 62.8363L12.5684 62.9649L14.5565 61.8078L13.874 61.4122C13.3003 61.0859 12.9739 60.6508 12.9739 60.2255C12.9739 59.8003 13.2904 59.3849 13.8542 59.0486L19.1657 55.9631C19.8087 55.5873 20.7186 55.3796 21.6484 55.3796C22.5881 55.3796 23.4981 55.5972 24.141 55.9631C24.7147 56.2894 25.0411 56.7245 25.0411 57.1498C25.0411 57.575 24.7246 57.9904 24.1608 58.3267L22.3902 59.3552L23.4189 59.6519C23.9333 59.8002 24.3883 59.9881 24.774 60.2057L24.952 60.3046L25.1499 60.2452C25.9412 59.9881 26.8413 59.8497 27.7512 59.8497C29.1459 59.8497 30.4515 60.1563 31.4208 60.72L39.2249 65.2198L109.907 24.148L109.452 23.7327C105.762 20.3603 103.962 16.5528 104.388 13.0123C104.783 9.72892 107.019 6.87083 110.866 4.75445C114.892 2.53917 120.233 1.3623 126.306 1.3623C134.457 1.3623 142.834 3.49847 149.293 7.23676C149.531 7.37521 149.778 7.51366 150.005 7.66201C156.187 11.43 159.669 16.2363 159.57 20.835C159.491 24.4151 157.167 27.649 153.032 29.9236C149.006 32.1389 143.665 33.3158 137.592 33.3158C131.855 33.3158 125.772 32.2081 120.461 30.2005L120.253 30.1214L24.6454 85.6814C23.686 86.2551 22.3902 86.5616 20.9956 86.5616ZM124.922 21.7844C125.653 22.6745 126.643 23.5052 127.859 24.247L128.176 24.4349C131.005 26.0667 134.664 27.0062 138.225 27.0062C140.906 27.0062 143.27 26.482 145.07 25.493C147.038 24.4051 148.136 22.8426 148.176 21.0823C148.225 18.8967 146.633 16.6616 143.814 14.9408C143.705 14.8814 143.606 14.8122 143.497 14.7529C142.152 13.9815 140.629 13.3584 138.957 12.9134C138.225 12.0134 137.236 11.1827 136.029 10.4509C135.93 10.3916 135.822 10.3322 135.723 10.263C132.884 8.62131 129.214 7.6818 125.653 7.6818C122.973 7.6818 120.609 8.20592 118.809 9.19489C116.84 10.2828 115.743 11.8453 115.703 13.6057C115.654 15.7913 117.246 18.0263 120.065 19.7471C120.164 19.8065 120.273 19.8757 120.382 19.935C121.746 20.7262 123.27 21.3492 124.922 21.7844Z" fill="url(#paint5_linear_530_1993)"/>
<defs>
<linearGradient id="paint0_linear_530_1993" x1="116.145" y1="14.2798" x2="138.701" y2="14.2798" gradientUnits="userSpaceOnUse">
<stop stop-color="#B7C0EB"/>
<stop offset="0.1792" stop-color="#CCD2F3"/>
<stop offset="0.3835" stop-color="#DEE2F9"/>
<stop offset="0.5326" stop-color="#E4E7FB"/>
</linearGradient>
<linearGradient id="paint1_linear_530_1993" x1="138.682" y1="20.5164" x2="147.727" y2="20.5164" gradientUnits="userSpaceOnUse">
<stop offset="0.5326" stop-color="#E4E7FB"/>
<stop offset="1" stop-color="#B7C0EB"/>
</linearGradient>
<linearGradient id="paint2_linear_530_1993" x1="120.29" y1="30.5758" x2="160.029" y2="30.5758" gradientUnits="userSpaceOnUse">
<stop stop-color="#E4E7FB"/>
<stop offset="0.528" stop-color="#E2E5FA"/>
<stop offset="0.7181" stop-color="#DBDFF8"/>
<stop offset="0.8537" stop-color="#D0D5F4"/>
<stop offset="0.9626" stop-color="#BFC7EE"/>
<stop offset="1" stop-color="#B7C0EB"/>
</linearGradient>
<linearGradient id="paint3_linear_530_1993" x1="23.5264" y1="61.5435" x2="25.5037" y2="61.5435" gradientUnits="userSpaceOnUse">
<stop stop-color="#B7C0EB"/>
<stop offset="0.1792" stop-color="#CCD2F3"/>
<stop offset="0.3835" stop-color="#DEE2F9"/>
<stop offset="0.5326" stop-color="#E4E7FB"/>
<stop offset="1" stop-color="#B7C0EB"/>
</linearGradient>
<linearGradient id="paint4_linear_530_1993" x1="12.4917" y1="64.3715" x2="13.6402" y2="64.3715" gradientUnits="userSpaceOnUse">
<stop stop-color="#B7C0EB"/>
<stop offset="0.1792" stop-color="#CCD2F3"/>
<stop offset="0.3835" stop-color="#DEE2F9"/>
<stop offset="0.5326" stop-color="#E4E7FB"/>
<stop offset="1" stop-color="#B7C0EB"/>
</linearGradient>
<linearGradient id="paint5_linear_530_1993" x1="85.9632" y1="75.2465" x2="74.436" y2="9.86217" gradientUnits="userSpaceOnUse">
<stop stop-color="#A068F8"/>
<stop offset="0.1934" stop-color="#9478F6"/>
<stop offset="0.5723" stop-color="#75A2F2"/>
<stop offset="1" stop-color="#4CD9ED"/>
</linearGradient>
</defs>
</svg>
