<svg width="628" height="505" viewBox="0 0 628 505" fill="none" xmlns="http://www.w3.org/2000/svg">
<path fill-rule="evenodd" clip-rule="evenodd" d="M316.301 171L498.749 289.104L316.301 407.208L133.854 289.104L316.301 171Z" stroke="#00EBFF" stroke-width="0.6"/>
<path fill-rule="evenodd" clip-rule="evenodd" d="M227.854 285.926V136.149L319.398 83.3657L410.943 136.149V285.926L319.398 345.102L227.854 285.926Z" fill="url(#paint0_linear_60_4311)"/>
<path fill-rule="evenodd" clip-rule="evenodd" d="M227.854 285.926V136.149L319.398 83.3657V345.102L227.854 285.926Z" fill="url(#paint1_linear_60_4311)"/>
<path fill-rule="evenodd" clip-rule="evenodd" d="M227.854 136.14L319.398 76.9653L410.943 136.14L319.398 195.316L227.854 136.14Z" fill="url(#paint2_linear_60_4311)"/>
<path fill-rule="evenodd" clip-rule="evenodd" d="M264.398 135.815L319.398 100.327L374.398 135.815L319.398 171.304L264.398 135.815Z" fill="#00EBFF"/>
<path fill-rule="evenodd" clip-rule="evenodd" d="M286.398 150.214V135.812L319.398 124.319L352.398 135.812V150.214L319.398 171.376L286.398 150.214Z" fill="url(#paint3_linear_60_4311)"/>
<path fill-rule="evenodd" clip-rule="evenodd" d="M286.398 150.214V135.812L319.398 124.319V171.376L286.398 150.214Z" fill="url(#paint4_linear_60_4311)"/>
<path fill-rule="evenodd" clip-rule="evenodd" d="M286.398 135.815L319.398 114.322L352.398 135.815L319.398 157.308L286.398 135.815Z" fill="url(#paint5_linear_60_4311)"/>
<path fill-rule="evenodd" clip-rule="evenodd" d="M299.398 136.315L319.398 123.319L339.398 136.315L319.398 149.311L299.398 136.315Z" fill="#00EBFF"/>
<path opacity="0.7" fill-rule="evenodd" clip-rule="evenodd" d="M286.398 135.815V0H352.398V135.815L319.398 157.308L286.398 135.815Z" fill="url(#paint6_linear_60_4311)"/>
<path opacity="0.7" fill-rule="evenodd" clip-rule="evenodd" d="M299.321 136.245V43.7793H339.317V136.245L319.319 149.367L299.321 136.245Z" fill="url(#paint7_linear_60_4311)"/>
<path fill-rule="evenodd" clip-rule="evenodd" d="M227.854 156.622V154.711L319.398 213.847V215.797L227.854 156.622Z" fill="url(#paint8_linear_60_4311)" fill-opacity="0.4"/>
<path fill-rule="evenodd" clip-rule="evenodd" d="M410.943 156.622V154.711L319.398 213.847V215.797L410.943 156.622Z" fill="url(#paint9_linear_60_4311)"/>
<path fill-rule="evenodd" clip-rule="evenodd" d="M410.943 195.025V193.114L319.398 252.25V254.2L410.943 195.025Z" fill="url(#paint10_linear_60_4311)"/>
<path fill-rule="evenodd" clip-rule="evenodd" d="M410.943 195.665V195.034L319.398 254.17V254.84L410.943 195.665Z" fill="url(#paint11_linear_60_4311)"/>
<path fill-rule="evenodd" clip-rule="evenodd" d="M410.943 233.428V231.517L319.398 290.652V292.603L410.943 233.428Z" fill="url(#paint12_linear_60_4311)"/>
<path fill-rule="evenodd" clip-rule="evenodd" d="M410.943 271.831V269.92L319.398 329.056V331.006L410.943 271.831Z" fill="url(#paint13_linear_60_4311)"/>
<path fill-rule="evenodd" clip-rule="evenodd" d="M227.854 195.025V193.114L319.398 252.25V254.2L227.854 195.025Z" fill="url(#paint14_linear_60_4311)" fill-opacity="0.4"/>
<path fill-rule="evenodd" clip-rule="evenodd" d="M227.854 233.428V231.517L319.398 290.652V292.603L227.854 233.428Z" fill="url(#paint15_linear_60_4311)" fill-opacity="0.4"/>
<path fill-rule="evenodd" clip-rule="evenodd" d="M227.854 271.831V269.92L319.398 329.056V331.006L227.854 271.831Z" fill="url(#paint16_linear_60_4311)" fill-opacity="0.4"/>
<path fill-rule="evenodd" clip-rule="evenodd" d="M0.853516 333.359V323.378H110.309V333.359L55.5813 368.776L0.853516 333.359Z" fill="#00EBFF"/>
<path fill-rule="evenodd" clip-rule="evenodd" d="M0.853516 323.362L55.5813 287.945L110.309 323.362L55.5813 358.779L0.853516 323.362Z" fill="url(#paint17_linear_60_4311)"/>
<path fill-rule="evenodd" clip-rule="evenodd" d="M0.853516 313.365V303.385H110.309V313.365L55.5813 348.782L0.853516 313.365Z" fill="#00EBFF"/>
<path fill-rule="evenodd" clip-rule="evenodd" d="M0.853516 303.369L55.5813 267.951L110.309 303.369L55.5813 338.786L0.853516 303.369Z" fill="url(#paint18_linear_60_4311)"/>
<path fill-rule="evenodd" clip-rule="evenodd" d="M0.853516 293.372V283.391H110.309V293.372L55.5813 328.789L0.853516 293.372Z" fill="#00EBFF"/>
<path fill-rule="evenodd" clip-rule="evenodd" d="M0.853516 283.375L55.5813 247.958L110.309 283.375L55.5813 318.792L0.853516 283.375Z" fill="url(#paint19_linear_60_4311)"/>
<path fill-rule="evenodd" clip-rule="evenodd" d="M39.0294 294.422C48.5972 300.448 64.1098 300.448 73.6776 294.422C83.2455 288.395 83.2455 278.623 73.6776 272.597C64.1098 266.57 48.5972 266.57 39.0294 272.597C29.4616 278.623 29.4616 288.395 39.0294 294.422Z" stroke="#80A6FF" stroke-width="0.5"/>
<path opacity="0.4" fill-rule="evenodd" clip-rule="evenodd" d="M40.2555 270.988C40.2555 278.262 40.2555 282.864 40.2555 284.792C40.5016 287.14 42.0064 289.443 44.7699 291.238C50.8373 295.178 60.6746 295.178 66.742 291.238C69.5233 289.431 71.0296 287.11 71.261 284.747C71.261 282.884 71.261 278.297 71.261 270.988C71.0858 272.742 70.605 274.22 69.8186 275.422C69.5579 275.821 68.8306 276.516 67.6367 277.507C66.8885 277.008 66.429 276.696 66.2583 276.572C63.763 275.428 61.3867 274.642 59.1295 274.214L55.7582 273.959L48.7989 274.985L46.0183 276.114C44.9292 277.043 44.156 277.459 43.6985 277.362C43.2411 277.266 42.2606 276.131 40.757 273.959L40.2555 270.988Z" fill="#00EBFF"/>
<path opacity="0.6" fill-rule="evenodd" clip-rule="evenodd" d="M44.7699 278.179C50.8373 282.12 60.6746 282.12 66.742 278.179C72.8094 274.239 72.8094 267.85 66.742 263.909C60.6746 259.969 50.8373 259.969 44.7699 263.909C38.7025 267.85 38.7025 274.239 44.7699 278.179Z" fill="#00EBFF"/>
<path fill-rule="evenodd" clip-rule="evenodd" d="M44.7699 278.179C50.8373 282.12 60.6746 282.12 66.742 278.179C72.8094 274.239 72.8094 267.85 66.742 263.909C60.6746 259.969 50.8373 259.969 44.7699 263.909C38.7025 267.85 38.7025 274.239 44.7699 278.179Z" stroke="#00EBFF" stroke-width="0.5"/>
<path fill-rule="evenodd" clip-rule="evenodd" d="M268.854 469.358V459.377H378.309V469.358L323.581 504.775L268.854 469.358Z" fill="#00EBFF"/>
<path fill-rule="evenodd" clip-rule="evenodd" d="M268.854 459.361L323.581 423.944L378.309 459.361L323.581 494.778L268.854 459.361Z" fill="url(#paint20_linear_60_4311)"/>
<path fill-rule="evenodd" clip-rule="evenodd" d="M268.854 449.364V439.384H378.309V449.364L323.581 484.781L268.854 449.364Z" fill="#00EBFF"/>
<path fill-rule="evenodd" clip-rule="evenodd" d="M268.854 439.368L323.581 403.95L378.309 439.368L323.581 474.785L268.854 439.368Z" fill="url(#paint21_linear_60_4311)"/>
<path fill-rule="evenodd" clip-rule="evenodd" d="M268.854 429.371V419.39H378.309V429.371L323.581 464.788L268.854 429.371Z" fill="#00EBFF"/>
<path fill-rule="evenodd" clip-rule="evenodd" d="M268.854 419.374L323.581 383.957L378.309 419.374L323.581 454.791L268.854 419.374Z" fill="url(#paint22_linear_60_4311)"/>
<path fill-rule="evenodd" clip-rule="evenodd" d="M307.029 430.421C316.597 436.447 332.11 436.447 341.678 430.421C351.245 424.394 351.245 414.623 341.678 408.596C332.11 402.569 316.597 402.569 307.029 408.596C297.462 414.623 297.462 424.394 307.029 430.421Z" stroke="#80A6FF" stroke-width="0.5"/>
<path opacity="0.4" fill-rule="evenodd" clip-rule="evenodd" d="M308.255 406.987C308.255 414.261 308.255 418.863 308.255 420.791C308.502 423.139 310.006 425.442 312.77 427.237C318.837 431.177 328.675 431.177 334.742 427.237C337.523 425.43 339.03 423.109 339.261 420.746C339.261 418.883 339.261 414.296 339.261 406.987C339.086 408.741 338.605 410.219 337.819 411.421C337.558 411.82 336.831 412.515 335.637 413.506C334.889 413.007 334.429 412.695 334.258 412.571C331.763 411.427 329.387 410.641 327.13 410.213L323.758 409.958L316.799 410.984L314.018 412.113C312.929 413.042 312.156 413.458 311.699 413.361C311.241 413.265 310.261 412.13 308.757 409.958L308.255 406.987Z" fill="#00EBFF"/>
<path opacity="0.6" fill-rule="evenodd" clip-rule="evenodd" d="M312.77 414.178C318.837 418.119 328.675 418.119 334.742 414.178C340.809 410.238 340.809 403.849 334.742 399.908C328.675 395.968 318.837 395.968 312.77 399.908C306.703 403.849 306.703 410.238 312.77 414.178Z" fill="#00EBFF"/>
<path fill-rule="evenodd" clip-rule="evenodd" d="M312.77 414.178C318.837 418.119 328.675 418.119 334.742 414.178C340.809 410.238 340.809 403.849 334.742 399.908C328.675 395.968 318.837 395.968 312.77 399.908C306.703 403.849 306.703 410.238 312.77 414.178Z" stroke="#00EBFF" stroke-width="0.5"/>
<path fill-rule="evenodd" clip-rule="evenodd" d="M517.854 333.4V323.419H627.309V333.4L572.581 368.817L517.854 333.4Z" fill="#00EBFF"/>
<path fill-rule="evenodd" clip-rule="evenodd" d="M517.854 323.403L572.581 287.986L627.309 323.403L572.581 358.82L517.854 323.403Z" fill="url(#paint23_linear_60_4311)"/>
<path fill-rule="evenodd" clip-rule="evenodd" d="M517.854 313.406V303.426H627.309V313.406L572.581 348.823L517.854 313.406Z" fill="#00EBFF"/>
<path fill-rule="evenodd" clip-rule="evenodd" d="M517.854 303.41L572.581 267.992L627.309 303.41L572.581 338.827L517.854 303.41Z" fill="url(#paint24_linear_60_4311)"/>
<path fill-rule="evenodd" clip-rule="evenodd" d="M517.854 293.413V283.432H627.309V293.413L572.581 328.83L517.854 293.413Z" fill="#00EBFF"/>
<path fill-rule="evenodd" clip-rule="evenodd" d="M517.854 283.416L572.581 247.999L627.309 283.416L572.581 318.833L517.854 283.416Z" fill="url(#paint25_linear_60_4311)"/>
<path fill-rule="evenodd" clip-rule="evenodd" d="M556.029 294.463C565.597 300.489 581.11 300.489 590.678 294.463C600.245 288.436 600.245 278.665 590.678 272.638C581.11 266.611 565.597 266.611 556.029 272.638C546.462 278.665 546.462 288.436 556.029 294.463Z" stroke="#80A6FF" stroke-width="0.5"/>
<path opacity="0.4" fill-rule="evenodd" clip-rule="evenodd" d="M557.255 271.029C557.255 278.303 557.255 282.905 557.255 284.833C557.502 287.181 559.006 289.484 561.77 291.279C567.837 295.219 577.675 295.219 583.742 291.279C586.523 289.472 588.03 287.151 588.261 284.788C588.261 282.925 588.261 278.338 588.261 271.029C588.086 272.783 587.605 274.261 586.819 275.463C586.558 275.862 585.831 276.557 584.637 277.548C583.889 277.049 583.429 276.737 583.258 276.613C580.763 275.469 578.387 274.683 576.13 274.255L572.758 274L565.799 275.026L563.018 276.155C561.929 277.084 561.156 277.5 560.699 277.403C560.241 277.307 559.261 276.172 557.757 274L557.255 271.029Z" fill="#00EBFF"/>
<path opacity="0.6" fill-rule="evenodd" clip-rule="evenodd" d="M561.77 278.22C567.837 282.161 577.675 282.161 583.742 278.22C589.809 274.28 589.809 267.891 583.742 263.95C577.675 260.01 567.837 260.01 561.77 263.95C555.703 267.891 555.703 274.28 561.77 278.22Z" fill="#00EBFF"/>
<path fill-rule="evenodd" clip-rule="evenodd" d="M561.77 278.22C567.837 282.161 577.675 282.161 583.742 278.22C589.809 274.28 589.809 267.891 583.742 263.95C577.675 260.01 567.837 260.01 561.77 263.95C555.703 267.891 555.703 274.28 561.77 278.22Z" stroke="#00EBFF" stroke-width="0.5"/>
<path d="M342.9 134.817L319.872 149.73L319.9 117.825L342.9 102.934V134.817Z" fill="url(#paint26_linear_60_4311)"/>
<path d="M296.854 134.817L319.872 149.73L319.9 117.825L296.863 102.892L296.854 134.817Z" fill="url(#paint27_linear_60_4311)"/>
<path d="M319.904 117.825L296.867 102.892L319.811 88L342.904 102.934L319.904 117.825Z" fill="url(#paint28_linear_60_4311)"/>
<defs>
<linearGradient id="paint0_linear_60_4311" x1="348.466" y1="234.074" x2="411.268" y2="198.719" gradientUnits="userSpaceOnUse">
<stop stop-color="#529AF5"/>
<stop offset="1" stop-color="#70B0FC"/>
</linearGradient>
<linearGradient id="paint1_linear_60_4311" x1="297.854" y1="305.999" x2="202.578" y2="269.618" gradientUnits="userSpaceOnUse">
<stop stop-color="#589EF7"/>
<stop offset="1" stop-color="#8FC4FD"/>
</linearGradient>
<linearGradient id="paint2_linear_60_4311" x1="373.871" y1="153.481" x2="266.268" y2="73.6223" gradientUnits="userSpaceOnUse">
<stop stop-color="#446DFF"/>
<stop offset="1" stop-color="#27A4FF"/>
</linearGradient>
<linearGradient id="paint3_linear_60_4311" x1="340.812" y1="149.661" x2="376.462" y2="139.651" gradientUnits="userSpaceOnUse">
<stop stop-color="#001C96"/>
<stop offset="1" stop-color="#157EFF"/>
</linearGradient>
<linearGradient id="paint4_linear_60_4311" x1="314.547" y1="169.595" x2="286.451" y2="153.504" gradientUnits="userSpaceOnUse">
<stop stop-color="#093CC3"/>
<stop offset="1" stop-color="#27A6FF"/>
</linearGradient>
<linearGradient id="paint5_linear_60_4311" x1="339.034" y1="142.209" x2="300.233" y2="113.194" gradientUnits="userSpaceOnUse">
<stop stop-color="#093CC3"/>
<stop offset="1" stop-color="#2787FF"/>
</linearGradient>
<linearGradient id="paint6_linear_60_4311" x1="319.398" y1="133.723" x2="319.398" y2="0" gradientUnits="userSpaceOnUse">
<stop stop-color="#00EBFF"/>
<stop offset="1" stop-color="#39F3FF" stop-opacity="0"/>
</linearGradient>
<linearGradient id="paint7_linear_60_4311" x1="319.319" y1="133.537" x2="319.319" y2="43.7793" gradientUnits="userSpaceOnUse">
<stop stop-color="#00EBFF"/>
<stop offset="1" stop-color="#00D0DD" stop-opacity="0"/>
</linearGradient>
<linearGradient id="paint8_linear_60_4311" x1="324.57" y1="200.47" x2="215.719" y2="128.408" gradientUnits="userSpaceOnUse">
<stop stop-color="#ABFFFF"/>
<stop offset="1" stop-color="#04FFF0"/>
</linearGradient>
<linearGradient id="paint9_linear_60_4311" x1="319.398" y1="198.854" x2="418.373" y2="135.845" gradientUnits="userSpaceOnUse">
<stop stop-color="#00F0FF"/>
<stop offset="1" stop-color="#C8D9ED"/>
</linearGradient>
<linearGradient id="paint10_linear_60_4311" x1="319.398" y1="237.257" x2="418.373" y2="174.248" gradientUnits="userSpaceOnUse">
<stop stop-color="#00F0FF"/>
<stop offset="1" stop-color="#C8D9ED"/>
</linearGradient>
<linearGradient id="paint11_linear_60_4311" x1="324.419" y1="237.7" x2="401.758" y2="186.618" gradientUnits="userSpaceOnUse">
<stop stop-color="#76E6FF"/>
<stop offset="1" stop-color="#A7FFFF"/>
</linearGradient>
<linearGradient id="paint12_linear_60_4311" x1="319.398" y1="275.66" x2="418.373" y2="212.651" gradientUnits="userSpaceOnUse">
<stop stop-color="#00F0FF"/>
<stop offset="1" stop-color="#C8D9ED"/>
</linearGradient>
<linearGradient id="paint13_linear_60_4311" x1="319.398" y1="314.063" x2="418.373" y2="251.054" gradientUnits="userSpaceOnUse">
<stop stop-color="#00F0FF"/>
<stop offset="1" stop-color="#ADF0FF"/>
</linearGradient>
<linearGradient id="paint14_linear_60_4311" x1="324.57" y1="238.873" x2="215.719" y2="166.811" gradientUnits="userSpaceOnUse">
<stop stop-color="#ABFFFF"/>
<stop offset="1" stop-color="#04FFF0"/>
</linearGradient>
<linearGradient id="paint15_linear_60_4311" x1="324.57" y1="277.275" x2="215.719" y2="205.214" gradientUnits="userSpaceOnUse">
<stop stop-color="#3CF3FF"/>
<stop offset="1" stop-color="#2BFFD9"/>
</linearGradient>
<linearGradient id="paint16_linear_60_4311" x1="324.57" y1="315.679" x2="215.719" y2="243.617" gradientUnits="userSpaceOnUse">
<stop stop-color="#3CF3FF"/>
<stop offset="1" stop-color="#2BFFD9"/>
</linearGradient>
<linearGradient id="paint17_linear_60_4311" x1="88.1465" y1="333.764" x2="23.816" y2="285.966" gradientUnits="userSpaceOnUse">
<stop stop-color="#2C9AFF"/>
<stop offset="1" stop-color="#2787FF"/>
</linearGradient>
<linearGradient id="paint18_linear_60_4311" x1="88.1465" y1="313.771" x2="23.816" y2="265.972" gradientUnits="userSpaceOnUse">
<stop stop-color="#2C9AFF"/>
<stop offset="1" stop-color="#2787FF"/>
</linearGradient>
<linearGradient id="paint19_linear_60_4311" x1="88.1465" y1="293.777" x2="23.816" y2="245.979" gradientUnits="userSpaceOnUse">
<stop stop-color="#2C9AFF"/>
<stop offset="1" stop-color="#2787FF"/>
</linearGradient>
<linearGradient id="paint20_linear_60_4311" x1="356.146" y1="469.763" x2="291.816" y2="421.965" gradientUnits="userSpaceOnUse">
<stop stop-color="#2C9AFF"/>
<stop offset="1" stop-color="#2787FF"/>
</linearGradient>
<linearGradient id="paint21_linear_60_4311" x1="356.146" y1="449.77" x2="291.816" y2="401.971" gradientUnits="userSpaceOnUse">
<stop stop-color="#2C9AFF"/>
<stop offset="1" stop-color="#2787FF"/>
</linearGradient>
<linearGradient id="paint22_linear_60_4311" x1="356.146" y1="429.776" x2="291.816" y2="381.978" gradientUnits="userSpaceOnUse">
<stop stop-color="#2C9AFF"/>
<stop offset="1" stop-color="#2787FF"/>
</linearGradient>
<linearGradient id="paint23_linear_60_4311" x1="605.146" y1="333.805" x2="540.816" y2="286.007" gradientUnits="userSpaceOnUse">
<stop stop-color="#4098FF"/>
<stop offset="1" stop-color="#2787FF"/>
</linearGradient>
<linearGradient id="paint24_linear_60_4311" x1="605.146" y1="313.812" x2="540.816" y2="266.013" gradientUnits="userSpaceOnUse">
<stop stop-color="#4098FF"/>
<stop offset="1" stop-color="#2787FF"/>
</linearGradient>
<linearGradient id="paint25_linear_60_4311" x1="605.146" y1="293.818" x2="540.816" y2="246.02" gradientUnits="userSpaceOnUse">
<stop stop-color="#4098FF"/>
<stop offset="1" stop-color="#2787FF"/>
</linearGradient>
<linearGradient id="paint26_linear_60_4311" x1="319.877" y1="126.332" x2="342.897" y2="126.332" gradientUnits="userSpaceOnUse">
<stop stop-color="#FF7C33"/>
<stop offset="1" stop-color="#FFE9CE"/>
</linearGradient>
<linearGradient id="paint27_linear_60_4311" x1="296.856" y1="126.308" x2="319.902" y2="126.308" gradientUnits="userSpaceOnUse">
<stop stop-color="#FF9A61"/>
<stop offset="1" stop-color="#FFB877"/>
</linearGradient>
<linearGradient id="paint28_linear_60_4311" x1="296.865" y1="102.913" x2="342.9" y2="102.913" gradientUnits="userSpaceOnUse">
<stop stop-color="#FFB69E"/>
<stop offset="1" stop-color="#FFE2D2"/>
</linearGradient>
</defs>
</svg>
