<svg width="29" height="27" viewBox="0 0 29 27" fill="none" xmlns="http://www.w3.org/2000/svg">
<path opacity="0.3" d="M0 22.3492L9.51509 17.3198L18.747 21.5109L9.08464 26.3818L0 22.3492Z" fill="url(#paint0_linear_25_4040)"/>
<path d="M27.7636 10.274L18.7582 21.5449L9.3904 17.433L9.28845 4.61026L27.7636 6.87576V10.274Z" fill="url(#paint1_linear_25_4040)"/>
<path d="M18.7582 21.5449V9.32253L27.3897 4.84818L27.9788 4.89348L28.0014 16.8893L18.7582 21.5449Z" fill="url(#paint2_linear_25_4040)"/>
<path d="M9.25452 4.59899L18.3958 3.05176e-05L27.9789 4.8935L18.7583 9.5491L9.25452 4.59899Z" fill="url(#paint3_linear_25_4040)"/>
<defs>
<linearGradient id="paint0_linear_25_4040" x1="14.584" y1="21.292" x2="5.91755" y2="25.2179" gradientUnits="userSpaceOnUse">
<stop offset="0.00502513" stop-color="#5298EF"/>
<stop offset="1" stop-color="#73B0F1" stop-opacity="0"/>
</linearGradient>
<linearGradient id="paint1_linear_25_4040" x1="9.29174" y1="13.0753" x2="27.7686" y2="13.0753" gradientUnits="userSpaceOnUse">
<stop stop-color="#6DACEF"/>
<stop offset="1" stop-color="#97C9FE"/>
</linearGradient>
<linearGradient id="paint2_linear_25_4040" x1="21.9406" y1="17.0113" x2="27.1433" y2="12.6854" gradientUnits="userSpaceOnUse">
<stop offset="0.00337838" stop-color="#8EBEF4"/>
<stop offset="1" stop-color="#B4D8FA"/>
</linearGradient>
<linearGradient id="paint3_linear_25_4040" x1="9.25361" y1="4.77366" x2="27.9815" y2="4.77366" gradientUnits="userSpaceOnUse">
<stop stop-color="#97C3F4"/>
<stop offset="1" stop-color="#E8F1FA"/>
</linearGradient>
</defs>
</svg>
