<svg width="32" height="145" viewBox="0 0 32 145" fill="none" xmlns="http://www.w3.org/2000/svg">
<path fill-rule="evenodd" clip-rule="evenodd" d="M4.68878 141.831C10.7969 145.79 20.7 145.79 26.8081 141.831C32.9161 137.872 32.9161 131.452 26.8081 127.493C20.7 123.534 10.7969 123.534 4.68878 127.493C-1.41929 131.452 -1.41929 137.872 4.68878 141.831Z" fill="#00EBFF"/>
<path opacity="0.6" fill-rule="evenodd" clip-rule="evenodd" d="M0.115118 10.2031C0.193614 91.3076 0.193614 132.69 0.115118 134.349C-0.0124808 137.047 1.51207 139.772 4.68878 141.831C10.7969 145.79 20.7 145.79 26.8081 141.831C29.9637 139.785 31.489 137.083 31.3841 134.403C31.3186 132.731 31.3186 91.5592 31.3841 10.8871L0.115118 10.2031Z" fill="url(#paint0_linear_47_795)"/>
<path fill-rule="evenodd" clip-rule="evenodd" d="M4.68878 18.2804C10.7969 22.2396 20.7 22.2396 26.8081 18.2804C32.9161 14.3211 32.9161 7.90186 26.8081 3.94259C20.7 -0.0166719 10.7969 -0.0166719 4.68878 3.94259C-1.41929 7.90186 -1.41929 14.3211 4.68878 18.2804Z" fill="#00EBFF"/>
<defs>
<linearGradient id="paint0_linear_47_795" x1="15.7484" y1="16.886" x2="15.7484" y2="121.771" gradientUnits="userSpaceOnUse">
<stop stop-color="#00EBFF" stop-opacity="0"/>
<stop offset="1" stop-color="#00EBFF"/>
</linearGradient>
</defs>
</svg>
