<svg width="139" height="83" viewBox="0 0 139 83" fill="none" xmlns="http://www.w3.org/2000/svg">
<path fill-rule="evenodd" clip-rule="evenodd" d="M54.7187 82.0144L2.57827 51.906C0.0862223 50.4674 -0.389532 45.7212 2.65756 43.9654L74.6551 6.23354C77.5322 4.5684 81.8933 4.38717 84.3967 5.82576L137.194 32.4907C139.686 33.9292 138.723 38.7321 135.846 40.3972L64.4603 81.6066C61.5718 83.2718 57.2107 83.453 54.7187 82.0144Z" fill="url(#paint0_linear_25_4084)"/>
<path fill-rule="evenodd" clip-rule="evenodd" d="M54.7194 79.2618L2.57902 49.1534C0.0869715 47.7148 0.392814 45.1774 3.28132 43.535L74.6671 2.32556C77.5443 0.660415 81.9054 0.479175 84.4088 1.91777L136.549 32.0262C139.041 33.4648 138.735 35.9795 135.847 37.6447L64.4611 78.8541C61.5726 80.5192 57.2115 80.7004 54.7194 79.2618Z" fill="url(#paint1_linear_25_4084)"/>
<path fill-rule="evenodd" clip-rule="evenodd" d="M133.15 36.8517L66.2388 75.4784C65.8876 75.6823 65.3439 75.705 65.0381 75.5237L63.7581 74.7875L15.435 46.8878L10.3603 43.954L10.349 43.9427L9.03497 43.1838C8.72913 43.0025 8.76311 42.6967 9.11426 42.4928L76.0257 3.86605C76.3769 3.66215 76.9093 3.6395 77.2264 3.82074L133.23 36.1494C133.535 36.342 133.501 36.6478 133.15 36.8517Z" fill="#EBF4FD"/>
<path fill-rule="evenodd" clip-rule="evenodd" d="M111.492 21.0839L103.336 16.3717C103.132 16.2584 103.166 16.0545 103.393 15.9299C103.619 15.7939 103.971 15.7826 104.163 15.8959L112.319 20.6081C112.523 20.7214 112.489 20.9253 112.262 21.0499C112.036 21.1858 111.696 21.1972 111.492 21.0839Z" fill="url(#paint2_linear_25_4084)"/>
<path fill-rule="evenodd" clip-rule="evenodd" d="M35.4279 63.0295C34.1252 63.7771 32.0183 63.7771 30.7156 63.0182C29.413 62.2593 29.4017 61.0472 30.7043 60.2996C32.007 59.552 34.1139 59.552 35.4166 60.3109C36.7192 61.0585 36.7305 62.2819 35.4279 63.0295Z" fill="url(#paint3_linear_25_4084)"/>
<path opacity="0.1" fill-rule="evenodd" clip-rule="evenodd" d="M62.3193 67.8663L22.3333 44.7809C20.7701 43.8747 20.9627 42.3002 22.7751 41.258L74.0093 11.682C75.8103 10.6398 78.5516 10.5266 80.1148 11.4328L120.101 34.5182C121.664 35.4244 121.471 36.9989 119.659 38.041L68.4248 67.6171C66.6124 68.6592 63.8825 68.7725 62.3193 67.8663Z" fill="#0C223D"/>
<path fill-rule="evenodd" clip-rule="evenodd" d="M62.9197 60.141L22.9336 37.0556C21.3704 36.1494 21.563 34.5749 23.3754 33.5327L74.6096 3.95666C76.4107 2.91453 79.1519 2.80126 80.7151 3.70746L120.701 26.7929C122.264 27.6991 122.072 29.2736 120.259 30.3157L69.0252 59.8918C67.2128 60.9339 64.4828 61.0472 62.9197 60.141Z" fill="white"/>
<path fill-rule="evenodd" clip-rule="evenodd" d="M96.0979 33.2269C93.3339 34.8241 88.8369 34.8128 86.0617 33.2043C84.4305 32.2641 78.7215 28.9678 76.6712 27.7784C75.3006 26.9855 70.7696 24.3688 69.5689 23.6778C66.0913 21.6729 66.0687 18.4219 69.5349 16.4169C72.9785 14.4233 78.5629 14.4346 82.0518 16.4169C85.9258 15.8619 90.2076 16.4622 93.2433 18.218C97.2986 20.5628 97.797 24.1762 94.7272 26.8155C95.2143 26.9855 95.6674 27.1894 96.0752 27.4272C98.8504 29.0357 98.8618 31.6297 96.0979 33.2269Z" fill="#CCE2F9"/>
<path fill-rule="evenodd" clip-rule="evenodd" d="M79.9337 41.2241L53.8238 26.1472C53.5066 25.966 53.5519 25.6488 53.9144 25.4449C54.2769 25.241 54.8206 25.2184 55.1378 25.3996L81.2476 40.4765C81.5648 40.6577 81.5195 40.9749 81.157 41.1788C80.7945 41.3827 80.2508 41.4054 79.9337 41.2241Z" fill="#CCE2F9"/>
<path fill-rule="evenodd" clip-rule="evenodd" d="M71.1549 36.1494L53.8238 26.1472C53.5066 25.966 53.5519 25.6488 53.9144 25.4449C54.2769 25.241 54.8206 25.2184 55.1378 25.3996L72.4688 35.4018C72.786 35.583 72.7407 35.9002 72.3782 36.1041C72.0157 36.308 71.472 36.3307 71.1549 36.1494Z" fill="url(#paint4_linear_25_4084)"/>
<path d="M86.0958 28.3787L86.0844 25.728C86.0844 25.6034 85.9938 25.4902 85.8466 25.3995C85.6993 25.3089 85.4954 25.2636 85.2802 25.2636L80.6925 25.2523C80.2508 25.2523 79.8996 25.4562 79.8996 25.7167C79.8996 25.8413 79.9902 25.9546 80.1375 26.0452C80.2848 26.1245 80.4773 26.1811 80.7039 26.1811H83.3432L74.3038 31.4031C73.998 31.5844 73.998 31.8789 74.3038 32.0601C74.621 32.2413 75.1194 32.2413 75.4366 32.0601L84.4873 26.8381L84.4986 28.3787C84.4986 28.6279 84.8611 28.8431 85.3028 28.8431C85.7446 28.8318 86.0958 28.6279 86.0958 28.3787Z" fill="#4B93EF"/>
<path d="M74.8475 28.6166H72.1742L81.2249 23.3947C81.5307 23.2134 81.5307 22.9189 81.2249 22.7377C80.919 22.5564 80.4093 22.5564 80.0921 22.7377L71.0528 27.9596V26.4191C71.0528 26.2945 70.9622 26.1812 70.8149 26.0906C70.6677 26.0113 70.4751 25.9547 70.2486 25.9547C69.8068 25.9547 69.4556 26.1586 69.4556 26.4191L69.467 29.0697C69.467 29.1943 69.5576 29.3076 69.7048 29.3982C69.8521 29.4889 70.056 29.5342 70.2712 29.5342L74.8588 29.5455C75.3006 29.5455 75.6518 29.3416 75.6518 29.0811C75.6518 28.8205 75.2893 28.6166 74.8475 28.6166Z" fill="#4B93EF"/>
<path d="M69.4443 47.8621L44.7957 33.6348C44.3312 33.3629 44.3879 32.8871 44.9316 32.5813C45.4753 32.2641 46.2909 32.2301 46.7666 32.502L71.4152 46.7293C71.8797 47.0012 71.823 47.4769 71.2793 47.7828C70.7356 48.1 69.92 48.1339 69.4443 47.8621Z" fill="url(#paint5_linear_25_4084)"/>
<path d="M65.1626 49.0514L42.7455 36.1041C42.485 35.9569 42.5189 35.685 42.8135 35.5151C43.1193 35.3452 43.5724 35.3225 43.8443 35.4698L66.2614 48.4171C66.5219 48.5644 66.4879 48.8362 66.1821 49.0061C65.8875 49.1874 65.4231 49.1987 65.1626 49.0514Z" fill="url(#paint6_linear_25_4084)"/>
<path d="M62.6818 50.4787L40.2647 37.5313C40.0042 37.3841 40.0382 37.1122 40.344 36.9423C40.6498 36.7724 41.1029 36.7497 41.3748 36.897L63.7919 49.8443C64.0524 49.9916 64.0184 50.2634 63.7239 50.4333C63.4068 50.6146 62.9537 50.6259 62.6818 50.4787Z" fill="url(#paint7_linear_25_4084)"/>
<defs>
<linearGradient id="paint0_linear_25_4084" x1="37.5355" y1="43.4812" x2="86.6706" y2="45.5914" gradientUnits="userSpaceOnUse">
<stop stop-color="#6DACEF"/>
<stop offset="1" stop-color="#97C9FE"/>
</linearGradient>
<linearGradient id="paint1_linear_25_4084" x1="0.892129" y1="40.5905" x2="138.225" y2="40.5905" gradientUnits="userSpaceOnUse">
<stop stop-color="#7AB4F4"/>
<stop offset="0.9514" stop-color="#DAEAFA"/>
<stop offset="1" stop-color="#DFEDFA"/>
</linearGradient>
<linearGradient id="paint2_linear_25_4084" x1="103.208" y1="18.4932" x2="112.458" y2="18.4932" gradientUnits="userSpaceOnUse">
<stop stop-color="#7AB4F4"/>
<stop offset="1" stop-color="#DFEDFA"/>
</linearGradient>
<linearGradient id="paint3_linear_25_4084" x1="29.7296" y1="61.6615" x2="36.3963" y2="61.6615" gradientUnits="userSpaceOnUse">
<stop stop-color="#7AB4F4"/>
<stop offset="1" stop-color="#DFEDFA"/>
</linearGradient>
<linearGradient id="paint4_linear_25_4084" x1="53.6972" y1="29.0089" x2="69.2226" y2="37.9728" gradientUnits="userSpaceOnUse">
<stop stop-color="#3282ED"/>
<stop offset="1" stop-color="#60A2F0"/>
</linearGradient>
<linearGradient id="paint5_linear_25_4084" x1="44.7157" y1="37.6431" x2="66.8899" y2="50.4457" gradientUnits="userSpaceOnUse">
<stop stop-color="#C9CFE7"/>
<stop offset="1" stop-color="#EBF0F6"/>
</linearGradient>
<linearGradient id="paint6_linear_25_4084" x1="42.6576" y1="40.0196" x2="62.2558" y2="51.335" gradientUnits="userSpaceOnUse">
<stop stop-color="#C9CFE7"/>
<stop offset="1" stop-color="#EBF0F6"/>
</linearGradient>
<linearGradient id="paint7_linear_25_4084" x1="40.1837" y1="41.4493" x2="59.7802" y2="52.7637" gradientUnits="userSpaceOnUse">
<stop stop-color="#C9CFE7"/>
<stop offset="1" stop-color="#EBF0F6"/>
</linearGradient>
</defs>
</svg>
