<svg width="106" height="82" viewBox="0 0 106 82" fill="none" xmlns="http://www.w3.org/2000/svg">
<g opacity="0.5">
<path opacity="0.0323" d="M13.6197 52.8481C9.68048 55.1137 5.68321 57.36 1.91822 59.8464C-0.569186 62.6785 3.62166 64.6752 5.7316 65.8848C12.9809 70.0416 20.2399 74.1889 27.4892 78.3457C29.8604 79.7089 31.7477 80.9761 34.4384 80.9761C36.7129 80.9761 38.5809 80.3617 40.565 79.2193C43.6234 77.4529 46.6916 75.6768 49.75 73.92C55.3249 70.704 61.1805 67.6705 66.5618 64.1857C66.1166 64.4641 66.8134 64.0129 66.9102 63.9361C67.0167 63.9361 67.2006 63.7248 67.3167 63.6C67.3361 63.5712 67.3554 63.5521 67.3748 63.5329C67.52 63.3793 67.8587 62.9185 67.8974 62.8705V62.8609C68.1297 62.4385 68.2362 61.968 68.2168 61.6416C68.0716 58.9728 64.055 57.5424 61.9451 56.4096C61.858 56.3616 61.7709 56.3137 61.6837 56.2657C57.8704 54.0865 54.0667 51.8977 50.2533 49.7281C47.3207 48.0481 44.388 46.3681 41.4554 44.6881C38.8809 43.2193 36.2193 41.6736 33.1415 42.3936C33.1802 42.384 33.2286 42.384 33.277 42.3744C32.7447 42.4416 31.68 42.6816 31.5058 42.7488C31.4477 42.768 31.3509 42.7969 31.3025 42.8257C30.5863 43.0081 28.8248 44.0736 27.8376 44.6496C26.2987 45.5424 24.7501 46.4353 23.2112 47.3185C20.0076 49.1713 16.8136 51.0049 13.6197 52.8481Z" fill="#FDFDFE"/>
<path opacity="0.0645" d="M14.7714 52.8481C10.8322 55.1137 6.83497 57.36 3.06998 59.8464C0.58257 62.6784 4.77342 64.6656 6.89304 65.8656C14.1423 70.0224 21.4013 74.1696 28.6506 78.3264C31.0219 79.6896 32.8995 80.9664 35.5902 80.9664C37.8647 80.9664 39.723 80.3328 41.7071 79.1904C44.7655 77.424 47.8336 75.648 50.8921 73.8912C56.467 70.6752 62.3226 67.6512 67.7039 64.1568C67.2683 64.4256 67.9459 63.984 68.0523 63.9072C68.1588 63.8976 68.3427 63.6864 68.4588 63.5712C68.4782 63.5424 68.4975 63.5232 68.5169 63.5136C68.6717 63.36 69.0008 62.8992 69.0395 62.8512V62.8416C69.2718 62.4192 69.3783 61.9488 69.3589 61.6224C69.2138 58.9536 65.1874 57.5328 63.0872 56.4C63.0001 56.352 62.913 56.304 62.8259 56.256C59.0222 54.0768 55.2184 51.8881 51.4051 49.7185C48.4724 48.0385 45.5398 46.3585 42.6072 44.6785C40.0327 43.2097 37.3711 41.6641 34.2932 42.3841C34.332 42.3745 34.3803 42.3744 34.4287 42.3648C33.8964 42.432 32.8318 42.6721 32.6576 42.7393C32.5995 42.7585 32.5027 42.7873 32.4543 42.8161C31.7381 42.9985 29.9766 44.064 28.9893 44.64C27.4504 45.5328 25.9019 46.4257 24.363 47.3089C21.169 49.1712 17.9751 51.0049 14.7714 52.8481Z" fill="#FAFBFE"/>
<path opacity="0.0968" d="M15.9334 52.848C11.9941 55.1136 7.99688 57.36 4.2319 59.8464C1.74449 62.6784 5.945 64.6464 8.06462 65.856C15.3139 70.0128 22.5729 74.16 29.8222 78.3168C32.1934 79.68 34.0711 80.9761 36.7617 80.9761C39.0362 80.9761 40.8945 80.3233 42.8689 79.1905C45.9274 77.4241 48.9859 75.648 52.054 73.8816C57.6289 70.6656 63.4844 67.6416 68.8658 64.1568C68.4302 64.4256 69.1077 63.984 69.2142 63.9072C69.3206 63.8976 69.5142 63.6864 69.6207 63.5712C69.64 63.552 69.6594 63.5232 69.6788 63.5136C69.8336 63.36 70.1627 62.8992 70.1917 62.8512V62.8416C70.424 62.4192 70.5305 61.9488 70.5111 61.6224C70.366 58.9536 66.3396 57.552 64.2394 56.4096C64.1523 56.3616 64.0652 56.3136 63.9781 56.2656C60.1744 54.0864 56.3707 51.9072 52.567 49.7376C49.6343 48.0576 46.7017 46.3776 43.7691 44.6976C41.1946 43.2288 38.5426 41.6832 35.4552 42.4032C35.4939 42.3936 35.5422 42.3935 35.5906 42.3839C35.0583 42.4511 33.9937 42.6912 33.8195 42.7584C33.7614 42.7776 33.6646 42.8064 33.6162 42.8352C32.9 43.0176 31.1385 44.0831 30.1513 44.6591C28.6124 45.552 27.0638 46.4448 25.5249 47.328C22.3212 49.1712 19.137 51.0048 15.9334 52.848Z" fill="#F8F9FD"/>
<path opacity="0.129" d="M17.0945 52.8481C13.1553 55.1137 9.15802 57.36 5.39303 59.8464C2.90562 62.6784 7.10615 64.6368 9.22577 65.8368C16.4751 69.9936 23.734 74.1408 30.9833 78.2976C33.3546 79.6608 35.2226 80.9664 37.9132 80.9664C40.1877 80.9664 42.0363 80.2944 44.0108 79.1616C47.0692 77.3952 50.1277 75.6096 53.1958 73.8528C58.7707 70.6368 64.6263 67.6128 70.0076 64.128C69.5817 64.3968 70.2399 63.9648 70.3657 63.8688C70.4721 63.8496 70.6657 63.648 70.7722 63.5328C70.7916 63.5136 70.8109 63.4848 70.8303 63.4752C70.9851 63.3216 71.3142 62.8608 71.3432 62.8128V62.8032C71.5755 62.3808 71.682 61.9104 71.6626 61.584C71.5174 58.9056 67.4911 57.5232 65.3909 56.3905C65.3038 56.3425 65.2167 56.2944 65.1295 56.2464C61.3258 54.0672 57.5318 51.8881 53.7185 49.7185C50.7858 48.0385 47.8532 46.3585 44.9206 44.6785C42.3461 43.2097 39.6941 41.6641 36.6066 42.3841C36.6453 42.3745 36.6937 42.3744 36.7421 42.3648C36.2098 42.432 35.1452 42.6721 34.9709 42.7393C34.9129 42.7585 34.8161 42.7873 34.7677 42.8161C34.0515 42.9985 32.29 44.064 31.3027 44.64C29.7638 45.5328 28.2153 46.4257 26.6763 47.3089C23.4824 49.1712 20.2884 51.0049 17.0945 52.8481Z" fill="#F6F7FC"/>
<path opacity="0.1613" d="M18.2559 52.8481C14.3167 55.1137 10.3195 57.36 6.55446 59.8464C4.06705 62.6785 8.27726 64.6176 10.3969 65.8272C17.6462 69.984 24.9052 74.1313 32.1545 78.2881C34.5258 79.6513 36.3841 80.9761 39.0747 80.9761C41.3492 80.9761 43.1881 80.2945 45.1723 79.1521C48.2307 77.3857 51.2892 75.6001 54.3476 73.8433C59.9225 70.6273 65.7781 67.6033 71.1691 64.1185C70.7433 64.3777 71.3917 63.9552 71.5273 63.8592C71.6434 63.84 71.8273 63.6385 71.9337 63.5233C71.9531 63.5041 71.9725 63.4753 71.9918 63.4657C72.1467 63.3025 72.4661 62.8513 72.5048 62.8033V62.7937C72.7371 62.3713 72.8435 61.9008 72.8242 61.5744C72.679 58.896 68.643 57.5329 66.5524 56.3905C66.4653 56.3425 66.3782 56.2944 66.2911 56.2464C62.4971 54.0672 58.6934 51.8881 54.8896 49.7281C51.957 48.0481 49.0244 46.3681 46.0918 44.6881C43.5172 43.2193 40.8653 41.6736 37.7778 42.3936C37.8165 42.384 37.8649 42.384 37.9133 42.3744C37.381 42.4416 36.3163 42.6816 36.1421 42.7488C36.084 42.768 35.9873 42.7969 35.9389 42.8257C35.2226 43.0081 33.4611 44.0736 32.4739 44.6496C30.935 45.5424 29.3864 46.4353 27.8475 47.3185C24.6439 49.1713 21.4499 51.0049 18.2559 52.8481Z" fill="#F3F5FC"/>
<path opacity="0.1935" d="M19.4076 52.8481C15.4684 55.1137 11.4711 57.36 7.70613 59.8464C5.21872 62.6784 9.4386 64.608 11.5582 65.808C18.8075 69.9648 26.0665 74.112 33.3158 78.2688C35.6871 79.632 37.5454 80.9664 40.236 80.9664C42.5105 80.9664 44.3398 80.2656 46.3239 79.1232C49.392 77.3568 52.4408 75.5712 55.4992 73.8048C61.0741 70.5888 66.9394 67.5744 72.3207 64.0896C71.9045 64.3488 72.5433 63.9264 72.6788 63.8304C72.795 63.8016 72.9789 63.6096 73.0757 63.4944C73.095 63.4752 73.1144 63.4464 73.1337 63.4368C73.2886 63.2736 73.608 62.8224 73.6467 62.7744V62.7648C73.8693 62.3424 73.9757 61.8816 73.9661 61.5456C73.8209 58.8673 69.7849 57.5136 67.6943 56.3713C67.6072 56.3233 67.5201 56.2752 67.433 56.2272C63.639 54.048 59.845 51.8689 56.0412 49.7089C53.1086 48.0289 50.176 46.3489 47.2434 44.6689C44.6688 43.2001 42.0169 41.6545 38.9294 42.3745C38.9681 42.3649 39.0165 42.3649 39.0649 42.3553C38.5326 42.4225 37.4679 42.6625 37.2937 42.7297C37.2357 42.7489 37.1389 42.7777 37.0905 42.8065C36.3742 42.9889 34.6127 44.0545 33.6255 44.6305C32.0866 45.5233 30.538 46.4065 28.9991 47.2993C25.8052 49.1713 22.6112 51.0049 19.4076 52.8481Z" fill="#F1F3FB"/>
<path opacity="0.2258" d="M20.5687 52.8481C16.6295 55.1137 12.6323 57.3601 8.86726 59.8465C6.37985 62.6785 10.5997 64.5889 12.7194 65.7985C19.9687 69.9553 27.2276 74.1025 34.4769 78.2593C36.8482 79.6225 38.6968 80.9761 41.3875 80.9761C43.6619 80.9761 45.4912 80.2561 47.4656 79.1137C50.5338 77.3473 53.5826 75.5521 56.641 73.7953C62.2159 70.5793 68.0812 67.5648 73.4625 64.08C73.0463 64.3392 73.6754 63.9265 73.8206 63.8113C73.9367 63.7825 74.1206 63.5809 74.2174 63.4753C74.2368 63.4561 74.2561 63.4273 74.2755 63.4177C74.4303 63.2545 74.7497 62.8033 74.7884 62.7553V62.7457C75.011 62.3233 75.1175 61.8625 75.1078 61.5265C74.9627 58.8385 70.9267 57.5041 68.8361 56.3713C68.749 56.3233 68.6619 56.2752 68.5748 56.2272C64.7808 54.048 60.9867 51.8785 57.1927 49.7185C54.2601 48.0385 51.3274 46.3585 48.3948 44.6785C45.8203 43.2097 43.1684 41.6641 40.0809 42.3841C40.1196 42.3745 40.168 42.3744 40.2164 42.3648C39.684 42.432 38.6194 42.6721 38.4452 42.7393C38.3871 42.7585 38.2903 42.7873 38.2419 42.8161C37.5257 42.9985 35.7642 44.064 34.777 44.64C33.2381 45.5328 31.6895 46.4161 30.1506 47.3089C26.9566 49.1713 23.7627 51.0049 20.5687 52.8481Z" fill="#EFF1FA"/>
<path opacity="0.2581" d="M21.7302 52.8481C17.791 55.1137 13.7937 57.36 10.0288 59.8464C7.55102 62.6785 11.7709 64.5792 13.8905 65.7792C21.1398 69.936 28.3988 74.0832 35.6481 78.24C38.0194 79.6032 39.8584 80.9761 42.5587 80.9761C44.8332 80.9761 46.6528 80.2369 48.6369 79.1041C51.705 77.3377 54.7441 75.5425 57.8122 73.7857C63.3871 70.5697 69.2524 67.5553 74.6337 64.0705C74.2272 64.3201 74.8466 63.9168 74.9918 63.8016C75.1176 63.7632 75.3015 63.5713 75.3886 63.4657C75.408 63.4465 75.4274 63.4177 75.4467 63.4081C75.6016 63.2449 75.921 62.8033 75.9597 62.7553V62.7457C76.1823 62.3233 76.2888 61.8624 76.2791 61.5264C76.1339 58.8384 72.0882 57.5233 70.0073 56.3809C69.9202 56.3329 69.8331 56.2848 69.746 56.2368C65.952 54.0672 62.1676 51.8881 58.3736 49.7281C55.441 48.0481 52.5083 46.3681 49.5757 44.6881C47.0012 43.2193 44.3492 41.6736 41.2618 42.3936C41.3005 42.384 41.3489 42.3744 41.3972 42.3744C40.8649 42.4416 39.8003 42.6816 39.6261 42.7488C39.568 42.768 39.4712 42.7969 39.4228 42.8257C38.7066 43.0081 36.9451 44.0736 35.9579 44.6496C34.4189 45.5424 32.8704 46.4257 31.3315 47.3185C28.1182 49.1713 24.9242 51.0049 21.7302 52.8481Z" fill="#ECEFFA"/>
<path opacity="0.2903" d="M22.8917 52.8481C18.9525 55.1137 14.9553 57.36 11.1903 59.8464C8.71257 62.6785 12.9421 64.56 15.0521 65.7696C22.3013 69.9264 29.5603 74.0737 36.8096 78.2305C39.1809 79.5937 41.0198 80.9761 43.7105 80.9761C45.9849 80.9761 47.7948 80.2176 49.7789 79.0848C52.8471 77.3184 55.8862 75.5233 58.9543 73.7569C64.5292 70.5408 70.3944 67.5361 75.7757 64.0513C75.3692 64.3009 75.979 63.8976 76.1435 63.7824C76.2693 63.744 76.4532 63.5521 76.5403 63.4561C76.5597 63.4369 76.579 63.4177 76.5984 63.3985C76.7533 63.2353 77.0727 62.7937 77.1017 62.7457V62.7361C77.3243 62.3137 77.4308 61.8528 77.4211 61.5168C77.2759 58.8192 73.2302 57.5233 71.1493 56.3809C71.0622 56.3329 70.9751 56.2848 70.888 56.2368C67.1037 54.0672 63.3193 51.8881 59.5253 49.7281C56.5927 48.0481 53.6601 46.3681 50.7275 44.6881C48.153 43.2193 45.501 41.6736 42.4135 42.3936C42.4522 42.384 42.5006 42.3744 42.549 42.3744C42.0167 42.4416 40.9521 42.6816 40.7778 42.7488C40.7198 42.768 40.623 42.7969 40.5746 42.8257C39.8584 43.0081 38.0969 44.0736 37.1096 44.6496C35.5707 45.5424 34.0222 46.4257 32.4833 47.3185C29.2796 49.1713 26.0857 51.0049 22.8917 52.8481Z" fill="#EAEDF9"/>
<path opacity="0.3226" d="M24.0435 52.8481C20.1043 55.1137 16.107 57.36 12.3421 59.8464C9.86433 62.6785 14.0939 64.5505 16.2135 65.7505C23.4628 69.9073 30.7218 74.0545 37.9711 78.2113C40.3423 79.5745 42.1716 80.9761 44.8623 80.9761C47.1368 80.9761 48.9467 80.2081 50.9211 79.0657C53.9892 77.2993 57.0283 75.4945 60.0868 73.7377C65.6617 70.5217 71.5269 67.5168 76.9082 64.032C76.5114 64.2816 77.1115 63.8785 77.276 63.7537C77.4019 63.7057 77.5858 63.5232 77.6729 63.4272C77.6922 63.408 77.7116 63.3888 77.7309 63.3696C77.8858 63.2064 78.2052 62.7648 78.2342 62.7168V62.7072C78.4568 62.2848 78.5633 61.8241 78.5536 61.4881C78.4084 58.7905 74.3628 57.5137 72.2722 56.3713C72.1851 56.3233 72.098 56.2752 72.0109 56.2272C68.2265 54.0576 64.4422 51.8881 60.6578 49.7281C57.7252 48.0481 54.7926 46.3681 51.8599 44.6881C49.2854 43.2193 46.6335 41.6736 43.546 42.3936C43.5944 42.384 43.6331 42.3744 43.6815 42.3744C43.1492 42.4416 42.0845 42.6816 41.9103 42.7488C41.8522 42.768 41.7554 42.7969 41.7071 42.8257C40.9908 43.0081 39.2293 44.0736 38.2421 44.6496C36.7032 45.5424 35.1546 46.4257 33.6157 47.3185C30.4411 49.1713 27.2472 51.0049 24.0435 52.8481Z" fill="#E8EBF9"/>
<path opacity="0.3548" d="M25.205 52.8481C21.2658 55.1137 17.2685 57.36 13.5035 59.8464C11.0258 62.6785 15.265 64.5313 17.3846 65.7409C24.6339 69.8977 31.8929 74.0449 39.1422 78.2017C41.5135 79.5649 43.3331 80.9761 46.0334 80.9761C48.3079 80.9761 50.1081 80.1889 52.0826 79.0465C55.1507 77.2801 58.1898 75.4753 61.2482 73.7185C66.8231 70.5025 72.6884 67.4977 78.0697 64.0129C77.6826 64.2529 78.2633 63.8688 78.4375 63.7344C78.5633 63.6864 78.7472 63.5041 78.8343 63.4081C78.8537 63.3889 78.873 63.3697 78.8924 63.3505C79.0472 63.1873 79.3666 62.7457 79.3957 62.6977V62.6881C79.6183 62.2657 79.7247 61.8049 79.7151 61.4785C79.5699 58.7809 75.5145 57.5137 73.4336 56.3713C73.3465 56.3233 73.2594 56.2752 73.1723 56.2272C69.388 54.0576 65.6133 51.8881 61.8193 49.7281C58.8866 48.0481 55.954 46.3681 53.0214 44.6881C50.4469 43.2193 47.7949 41.6736 44.7074 42.3936C44.7558 42.384 44.7945 42.3744 44.8429 42.3744C44.3106 42.4416 43.246 42.6816 43.0717 42.7488C43.0137 42.768 42.9169 42.7969 42.8685 42.8257C42.1523 43.0081 40.3908 44.0736 39.4035 44.6496C37.8646 45.5424 36.3161 46.4257 34.7771 47.3185C31.5929 49.1713 28.3989 51.0049 25.205 52.8481Z" fill="#E5E9F8"/>
<path opacity="0.3871" d="M26.3665 52.8481C22.4273 55.1137 18.43 57.3601 14.6651 59.8465C12.1873 62.6785 16.4362 64.5121 18.5462 65.7217C25.7955 69.8785 33.0544 74.0256 40.3037 78.1824C42.675 79.5456 44.4946 80.9761 47.1852 80.9761C49.4597 80.9761 51.2503 80.1696 53.2344 79.0272C56.3025 77.2608 59.3416 75.456 62.4001 73.6896C67.9749 70.4736 73.8402 67.4785 79.2215 63.9841C78.8344 64.2241 79.4054 63.8401 79.5893 63.7057C79.7248 63.6481 79.9087 63.4657 79.9861 63.3793C80.0055 63.3601 80.0248 63.3409 80.0442 63.3217C80.199 63.1585 80.5184 62.7169 80.5475 62.6689V62.6593C80.7701 62.2369 80.8765 61.776 80.8669 61.4496C80.7217 58.7424 76.6663 57.4944 74.5854 56.352C74.4983 56.304 74.4112 56.2561 74.3241 56.2081C70.5494 54.0385 66.7651 51.8689 62.9807 49.7185C60.0481 48.0385 57.1155 46.3585 54.1829 44.6785C51.6084 43.2097 48.9564 41.6641 45.8689 42.3841C45.9173 42.3745 45.9561 42.3648 46.0045 42.3648C45.4721 42.432 44.4075 42.6721 44.2332 42.7393C44.1752 42.7585 44.0784 42.7873 44.03 42.8161C43.3138 42.9985 41.5523 44.064 40.5651 44.64C39.0262 45.5328 37.4776 46.4161 35.9387 47.3089C32.7544 49.1713 29.5605 51.0049 26.3665 52.8481Z" fill="#E3E7F7"/>
<path opacity="0.4194" d="M27.5281 52.848C23.5889 55.1136 19.5916 57.36 15.8266 59.8464C13.3488 62.6784 17.5978 64.5024 19.7174 65.712C26.9667 69.8688 34.2257 74.0161 41.475 78.1729C43.8462 79.5361 45.6561 80.9761 48.3468 80.9761C50.6213 80.9761 52.4021 80.1505 54.3863 79.0177C57.4544 77.2513 60.4838 75.4368 63.5519 73.68C69.1268 70.464 74.9921 67.4688 80.3734 63.984C79.9959 64.224 80.5573 63.84 80.7509 63.696C80.8864 63.6384 81.0703 63.456 81.1477 63.3696C81.167 63.3504 81.1864 63.3312 81.2058 63.312C81.3606 63.1392 81.68 62.7072 81.709 62.6592V62.6496C81.9316 62.2272 82.0381 61.7664 82.0285 61.44C81.8833 58.7328 77.8279 57.504 75.747 56.3616C75.6599 56.3136 75.5728 56.2656 75.4857 56.2176C71.711 54.048 67.9364 51.888 64.152 49.728C61.2194 48.048 58.2868 46.368 55.3541 44.688C52.7796 43.2192 50.1277 41.6639 47.0402 42.3935C47.0886 42.3839 47.1273 42.3743 47.1757 42.3743C46.6434 42.4415 45.5787 42.6815 45.4045 42.7487C45.3464 42.7679 45.2496 42.7968 45.2012 42.8256C44.485 43.008 42.7235 44.0735 41.7363 44.6495C40.1974 45.5423 38.6488 46.4256 37.1099 47.3184C33.916 49.1712 30.722 51.0048 27.5281 52.848Z" fill="#E1E5F7"/>
<path opacity="0.4516" d="M28.689 52.848C24.7498 55.1136 20.7525 57.36 16.9875 59.8464C14.5098 62.6784 18.7684 64.4832 20.888 65.6928C28.1373 69.8497 35.3963 73.9968 42.6456 78.1537C45.0168 79.5169 46.8171 80.9761 49.5174 80.9761C51.7919 80.9761 53.5727 80.1313 55.5472 78.9985C58.6153 77.2321 61.6447 75.4177 64.7128 73.6512C70.2877 70.4352 76.153 67.44 81.544 63.9552C81.1665 64.1856 81.7182 63.8112 81.9214 63.6672C82.0569 63.6 82.2408 63.4272 82.3183 63.3408C82.3376 63.3216 82.357 63.3024 82.3763 63.2832C82.5312 63.1104 82.8506 62.6784 82.8796 62.64C82.8796 62.64 82.8796 62.64 82.8796 62.6304C83.1022 62.208 83.2087 61.7472 83.199 61.4208C83.0538 58.704 78.9888 57.4944 76.9176 56.352C76.8305 56.304 76.7434 56.256 76.6563 56.208C72.8816 54.048 69.1069 51.8784 65.3323 49.728C62.3997 48.0576 59.467 46.368 56.5344 44.688C53.9599 43.2192 51.3079 41.6639 48.2205 42.3935C48.2688 42.3839 48.3076 42.3743 48.356 42.3743C47.8236 42.4415 46.759 42.6815 46.5848 42.7487C46.5267 42.7679 46.4299 42.7968 46.3815 42.8256C45.6653 43.008 43.9038 44.0735 42.9166 44.6495C41.3777 45.5423 39.8291 46.4256 38.2902 47.3184C35.0769 49.1712 31.8829 51.0048 28.689 52.848Z" fill="#DEE3F6"/>
<path opacity="0.4839" d="M29.8413 52.848C25.9021 55.1136 21.9048 57.36 18.1398 59.8464C15.6621 62.6784 19.9304 64.4736 22.0403 65.6832C29.2896 69.84 36.5486 73.9872 43.7979 78.1441C46.1692 79.5073 47.9694 80.9761 50.6601 80.9761C52.9345 80.9761 54.7057 80.1217 56.6802 78.9793C59.7483 77.2128 62.7777 75.3984 65.8362 73.632C71.4111 70.416 77.286 67.4304 82.6674 63.936C82.2996 64.1664 82.8416 63.8016 83.0448 63.648C83.19 63.5808 83.3642 63.408 83.4416 63.3216C83.461 63.3024 83.4803 63.2832 83.4997 63.264C83.6642 63.0912 83.9739 62.6592 84.003 62.6208V62.6112C84.2256 62.1888 84.3321 61.728 84.3224 61.4016C84.1772 58.6848 80.1122 57.4944 78.041 56.3424C77.9538 56.2944 77.8667 56.2464 77.7796 56.1984C74.0146 54.0384 70.24 51.8688 66.4653 49.7184C63.5326 48.048 60.6 46.3584 57.6674 44.6784C55.0929 43.2096 52.4409 41.6544 49.3534 42.384C49.4018 42.3744 49.4406 42.3647 49.489 42.3647C48.9566 42.4319 47.892 42.672 47.7178 42.7392C47.6597 42.7584 47.5629 42.7872 47.5145 42.816C46.7983 42.9984 45.0368 44.0639 44.0495 44.6399C42.5106 45.5327 40.9621 46.416 39.4231 47.3088C36.2292 49.1712 33.0352 51.0048 29.8413 52.848Z" fill="#DCE1F5"/>
<path opacity="0.5161" d="M31.0023 52.848C27.0631 55.1136 23.0658 57.36 19.3009 59.8464C16.8231 62.6784 21.0914 64.4544 23.211 65.664C30.4603 69.8208 37.7193 73.968 44.9686 78.1248C47.3399 79.488 49.1304 80.9761 51.8211 80.9761C54.0956 80.9761 55.8571 80.1024 57.8412 78.96C60.9093 77.1936 63.9388 75.3793 66.9972 73.6129C72.5721 70.3969 78.447 67.4112 83.8283 63.9264C83.4605 64.1472 83.9929 63.792 84.2058 63.6288C84.351 63.552 84.5349 63.3888 84.6026 63.3024C84.622 63.2832 84.6414 63.264 84.6607 63.2448C84.8252 63.072 85.1349 62.64 85.1543 62.6016V62.592C85.3672 62.1696 85.4834 61.7088 85.4737 61.3824C85.3285 58.6656 81.2538 57.4848 79.1923 56.3424C79.1052 56.2944 79.0181 56.2464 78.9309 56.1984C75.166 54.0384 71.3913 51.8784 67.6263 49.728C64.6937 48.0576 61.7611 46.368 58.8284 44.688C56.2539 43.2192 53.602 41.6639 50.5145 42.3935C50.5629 42.3839 50.6016 42.3743 50.65 42.3743C50.1176 42.4415 49.053 42.6815 48.8788 42.7487C48.8207 42.7679 48.7239 42.7968 48.6755 42.8256C47.9593 43.008 46.1978 44.0735 45.2106 44.6495C43.6717 45.5423 42.1231 46.4256 40.5842 47.3184C37.3902 49.1712 34.1963 51.0048 31.0023 52.848Z" fill="#DADEF5"/>
<path opacity="0.5484" d="M32.1643 52.848C28.2251 55.1136 24.2278 57.36 20.4628 59.8464C17.9851 62.6784 22.2631 64.4448 24.3827 65.6544C31.632 69.8112 38.8909 73.9585 46.1402 78.1153C48.5115 79.4785 50.2924 80.9761 52.9927 80.9761C55.2672 80.9761 57.0287 80.0833 59.0031 78.9409C62.0713 77.1745 65.091 75.3504 68.1591 73.584C73.734 70.368 79.609 67.3825 84.9903 63.8977C84.6322 64.1185 85.1548 63.7632 85.3677 63.6C85.5129 63.5232 85.6968 63.3504 85.7646 63.2736C85.7839 63.2544 85.8033 63.2352 85.8226 63.216C85.9872 63.0432 86.2969 62.6113 86.3163 62.5729V62.5632C86.5292 62.1408 86.6453 61.68 86.6356 61.3536C86.4905 58.6272 82.4158 57.4656 80.3542 56.3232C80.2671 56.2752 80.18 56.2272 80.1026 56.1792C76.3376 54.0192 72.5726 51.8592 68.7979 49.7088C65.8653 48.0384 62.9327 46.3488 60 44.6688C57.4255 43.2 54.7736 41.6448 51.6861 42.3744C51.7345 42.3648 51.7732 42.3552 51.8216 42.3552C51.2893 42.4224 50.2246 42.6624 50.0504 42.7296C49.9923 42.7488 49.8956 42.7776 49.8472 42.8064C49.1309 42.9888 47.3694 44.0544 46.3822 44.6304C44.8433 45.5232 43.2947 46.4064 41.7558 47.2992C38.5522 49.1712 35.3582 51.0048 32.1643 52.848Z" fill="#D8DCF4"/>
<path opacity="0.5806" d="M33.3254 52.848C29.3861 55.1136 25.3889 57.36 21.6239 59.8464C19.1461 62.6784 23.4338 64.4256 25.5437 65.6352C32.793 69.7921 40.052 73.9393 47.3013 78.0961C49.6726 79.4593 51.4535 80.9761 54.1441 80.9761C56.4186 80.9761 58.1704 80.0641 60.1449 78.9313C63.213 77.1649 66.2328 75.3408 69.3009 73.5744C74.8758 70.3584 80.7507 67.3728 86.132 63.888C85.7739 64.1088 86.2869 63.7632 86.5192 63.5904C86.674 63.5136 86.8482 63.3408 86.916 63.2736C86.9353 63.2544 86.9547 63.2352 86.9741 63.216C87.1386 63.0432 87.4483 62.6112 87.4677 62.5728C87.4677 62.5728 87.4677 62.5728 87.4677 62.5632C87.6806 62.1408 87.7967 61.68 87.7871 61.3536C87.6419 58.6272 83.5672 57.4848 81.5056 56.3328C81.4185 56.2848 81.3314 56.2368 81.254 56.1888C77.489 54.0288 73.7337 51.8688 69.959 49.728C67.0264 48.0576 64.0938 46.368 61.1611 44.688C58.5866 43.2192 55.9347 41.6639 52.8472 42.3935C52.8956 42.3839 52.9343 42.3743 52.9827 42.3743C52.4504 42.4415 51.3857 42.6815 51.2115 42.7487C51.1534 42.7679 51.0566 42.7968 51.0082 42.8256C50.292 43.008 48.5305 44.0735 47.5433 44.6495C46.0044 45.5423 44.4558 46.4256 42.9169 47.3184C39.7133 49.1712 36.5193 51.0048 33.3254 52.848Z" fill="#D5DAF3"/>
<path opacity="0.6129" d="M34.4771 52.848C30.5379 55.1136 26.5406 57.36 22.7756 59.8464C20.2979 62.6784 24.5855 64.416 26.7052 65.6256C33.9545 69.7824 41.2134 73.9296 48.4627 78.0865C50.834 79.4497 52.6052 80.9761 55.2959 80.9761C57.5704 80.9761 59.3125 80.0448 61.2869 78.912C64.3551 77.1456 67.3748 75.3217 70.4333 73.5553C76.0082 70.3393 81.8831 67.3632 87.2644 63.8784C86.916 64.0896 87.4096 63.7536 87.6516 63.5712C87.8064 63.4848 87.9807 63.3216 88.0484 63.2544C88.0678 63.2352 88.0871 63.216 88.0968 63.1968C88.2613 63.024 88.571 62.592 88.5904 62.5536C88.5904 62.5536 88.5904 62.5536 88.5904 62.544C88.8033 62.1216 88.9195 61.6608 88.9098 61.3344C88.7646 58.608 84.6802 57.4752 82.6284 56.3328C82.5412 56.2848 82.4541 56.2368 82.3767 56.1888C78.6214 54.0288 74.8564 51.8784 71.0914 49.728C68.1588 48.0576 65.2261 46.368 62.2935 44.688C59.719 43.2192 57.0671 41.6639 53.9796 42.3935C54.028 42.3839 54.0667 42.3743 54.1151 42.3743C53.5828 42.4415 52.5181 42.6815 52.3439 42.7487C52.2858 42.7679 52.189 42.7968 52.1406 42.8256C51.4244 43.008 49.6629 44.0735 48.6757 44.6495C47.1368 45.5423 45.5882 46.4256 44.0493 47.3184C40.8747 49.1712 37.6711 51.0048 34.4771 52.848Z" fill="#D3D8F3"/>
<path opacity="0.6452" d="M35.6387 52.848C31.6995 55.1136 27.7022 57.36 23.9372 59.8464C21.4595 62.6784 25.7568 64.3968 27.8667 65.6064C35.116 69.7632 42.375 73.9104 49.6243 78.0672C51.9956 79.4304 53.7571 80.9761 56.4574 80.9761C58.7319 80.9761 60.4644 80.0353 62.4485 78.8929C65.5166 77.1265 68.5364 75.2928 71.5948 73.5264C77.1697 70.3104 83.0446 67.3344 88.426 63.8496C88.0872 64.0608 88.5711 63.7248 88.8131 63.5424C88.968 63.456 89.1519 63.2928 89.2099 63.2256C89.2293 63.2064 89.2487 63.1872 89.2583 63.168C89.4229 62.9856 89.7326 62.5632 89.7519 62.5344C89.7519 62.5344 89.7519 62.5344 89.7519 62.5248C89.9649 62.1024 90.081 61.6416 90.0713 61.3152C89.9262 58.5792 85.8418 57.4752 83.7899 56.3232C83.7028 56.2752 83.6157 56.2272 83.5383 56.1792C79.7829 54.0288 76.0276 51.8688 72.2627 49.728C69.33 48.0576 66.3974 46.368 63.4647 44.688C60.8902 43.2192 58.2383 41.6639 55.1508 42.3935C55.1992 42.3839 55.2379 42.3743 55.2863 42.3743C54.754 42.4415 53.6893 42.6815 53.5151 42.7487C53.457 42.7679 53.3603 42.7968 53.3119 42.8256C52.5956 43.008 50.8342 44.0735 49.8469 44.6495C48.308 45.5423 46.7594 46.4256 45.2205 47.3184C42.0266 49.1712 38.8326 51.0048 35.6387 52.848Z" fill="#D1D6F2"/>
<path opacity="0.6774" d="M36.8001 52.848C32.8609 55.1136 28.8637 57.36 25.0987 59.8464C22.6209 62.6784 26.9279 64.3872 29.0379 65.5968C36.2872 69.7536 43.5461 73.9009 50.7954 78.0577C53.1667 79.4209 54.9282 80.9761 57.6189 80.9761C59.8934 80.9761 61.6258 80.0161 63.6003 78.8737C66.6684 77.1073 69.6881 75.2736 72.7466 73.5072C78.3215 70.2912 84.1964 67.3152 89.5777 63.8304C89.2389 64.0416 89.7132 63.7056 89.9648 63.5232C90.1197 63.4272 90.3036 63.2736 90.3617 63.2064C90.381 63.1872 90.4004 63.168 90.4101 63.1488C90.5746 62.9664 90.8843 62.544 90.9037 62.5152C90.9037 62.5152 90.9037 62.5152 90.9037 62.5056C91.1166 62.0832 91.2327 61.6224 91.2231 61.296C91.0779 58.56 86.9935 57.4656 84.9416 56.3136C84.8545 56.2656 84.7674 56.2176 84.69 56.1696C80.9347 54.0192 77.1794 51.8592 73.4241 49.7184C70.4914 48.048 67.5588 46.3584 64.6262 44.6784C62.0517 43.2096 59.3997 41.6544 56.3123 42.384C56.3606 42.3744 56.3993 42.3647 56.4477 42.3647C55.9154 42.4319 54.8508 42.6624 54.6766 42.7392C54.6185 42.7584 54.5217 42.7872 54.4733 42.816C53.7571 42.9984 51.9956 44.0639 51.0084 44.6399C49.4694 45.5327 47.9209 46.416 46.382 47.3088C43.188 49.1712 39.9941 51.0048 36.8001 52.848Z" fill="#CED4F1"/>
<path opacity="0.7097" d="M37.9612 52.848C34.022 55.1136 30.0247 57.36 26.2597 59.8464C23.782 62.6784 28.089 64.368 30.2086 65.5776C37.4579 69.7345 44.7169 73.8817 51.9662 78.0385C54.3374 79.4017 56.0892 80.9761 58.7799 80.9761C61.0544 80.9761 62.7772 79.9968 64.7516 78.8544C67.8198 77.088 70.8298 75.2545 73.8979 73.4881C79.4728 70.272 85.3478 67.3056 90.7291 63.8208C90.4 64.0224 90.8646 63.7056 91.1259 63.504C91.2904 63.408 91.4647 63.2448 91.5227 63.1872C91.5421 63.168 91.5614 63.1488 91.5711 63.1296C91.7356 62.9472 92.0454 62.5248 92.0647 62.496C92.0647 62.496 92.0647 62.496 92.0647 62.4864C92.2777 62.064 92.3938 61.6032 92.3841 61.2768C92.2389 58.5312 88.1449 57.456 86.1027 56.3136C86.0156 56.2656 85.9285 56.2176 85.851 56.1696C82.1054 54.0192 78.3501 51.8688 74.5948 49.728C71.6622 48.0576 68.7295 46.368 65.7969 44.688C63.2224 43.2192 60.5704 41.6639 57.483 42.3935C57.5314 42.3839 57.5701 42.3743 57.6185 42.3743C57.0862 42.4415 56.0215 42.6719 55.8473 42.7487C55.7892 42.7679 55.6924 42.7968 55.644 42.8256C54.9278 43.008 53.1663 44.0735 52.1791 44.6495C50.6402 45.5423 49.0916 46.4256 47.5527 47.3184C44.3491 49.1712 41.1454 51.0048 37.9612 52.848Z" fill="#CCD2F1"/>
<path opacity="0.7419" d="M39.113 52.848C35.1738 55.1136 31.1765 57.36 27.4115 59.8464C24.9338 62.6784 29.2505 64.3584 31.3604 65.568C38.6097 69.7249 45.8687 73.872 53.118 78.0289C55.4893 79.3921 57.2314 80.9761 59.9317 80.9761C62.2062 80.9761 63.9193 79.9776 65.9035 78.8448C68.9716 77.0784 71.9816 75.2352 75.0497 73.4688C80.6246 70.2528 86.4996 67.2864 91.8906 63.8016C91.5615 64.0032 92.0164 63.6864 92.2874 63.4848C92.452 63.3792 92.6261 63.2256 92.6842 63.168C92.7036 63.1488 92.7229 63.1296 92.7326 63.1104C92.8972 62.928 93.2069 62.5056 93.2166 62.4768C93.2166 62.4768 93.2166 62.4768 93.2166 62.4672C93.4295 62.0448 93.5456 61.584 93.5359 61.2576C93.3811 58.512 89.2967 57.456 87.2545 56.304C87.1674 56.256 87.0803 56.208 87.0029 56.16C83.2572 54.0096 79.5019 51.8592 75.7466 49.7184C72.814 48.048 69.8814 46.3584 66.9487 44.6784C64.3742 43.2096 61.7223 41.6544 58.6348 42.384C58.6832 42.3744 58.7219 42.3647 58.7703 42.3647C58.238 42.4319 57.1733 42.6624 56.9991 42.7392C56.941 42.7584 56.8442 42.7872 56.7959 42.816C56.0796 42.9984 54.3181 44.0639 53.3309 44.6399C51.792 45.5327 50.2434 46.416 48.7045 47.3088C45.5106 49.1712 42.307 51.0048 39.113 52.848Z" fill="#CAD0F0"/>
<path opacity="0.7742" d="M40.2745 52.848C36.3353 55.1136 32.338 57.36 28.573 59.8464C26.0953 62.6784 30.412 64.3392 32.5316 65.5488C39.7809 69.7056 47.0399 73.8528 54.2892 78.0096C56.6604 79.3728 58.4026 80.9761 61.0932 80.9761C63.3677 80.9761 65.0712 79.9585 67.0553 78.8257C70.1234 77.0593 73.1335 75.216 76.1919 73.4496C81.7668 70.2336 87.6514 67.2672 93.0327 63.7824C92.7133 63.984 93.1585 63.6672 93.4295 63.4656C93.5941 63.36 93.778 63.2064 93.8264 63.1488C93.8457 63.1296 93.8651 63.1104 93.8747 63.0912C94.0393 62.9088 94.349 62.4864 94.3587 62.4576C94.3587 62.4576 94.3587 62.4576 94.3587 62.448C94.5716 62.0256 94.6877 61.5648 94.6781 61.2384C94.5232 58.4928 90.4388 57.4464 88.3966 56.2944C88.3095 56.2464 88.2224 56.1984 88.145 56.1504C84.3994 54 80.6537 51.8496 76.8984 49.7184C73.9658 48.048 71.0332 46.3584 68.1006 44.6784C65.526 43.2096 62.8741 41.6544 59.7866 42.384C59.835 42.3744 59.8737 42.3647 59.9221 42.3647C59.3898 42.4319 58.3251 42.6624 58.1509 42.7392C58.0929 42.7584 57.9961 42.7872 57.9477 42.816C57.2315 42.9984 55.4699 44.0639 54.4827 44.6399C52.9438 45.5327 51.3952 46.416 49.8563 47.3088C46.6624 49.1712 43.4684 51.0048 40.2745 52.848Z" fill="#C7CEF0"/>
<path opacity="0.8065" d="M41.436 52.848C37.4968 55.1136 33.4995 57.36 29.7345 59.8464C27.2568 62.6784 31.5831 64.3296 33.7027 65.5392C40.9617 69.696 48.211 73.8432 55.4604 78C57.8316 79.3632 59.5641 80.9761 62.2548 80.9761C64.5292 80.9761 66.2327 79.9489 68.2071 78.8065C71.2753 77.0401 74.2853 75.1969 77.3438 73.4305C82.9187 70.2145 88.8033 67.2577 94.1846 63.7728C93.8652 63.9648 94.3008 63.6576 94.5815 63.4464C94.7557 63.3312 94.9299 63.1872 94.9783 63.1296C94.9976 63.1104 95.0073 63.0912 95.0267 63.072C95.1912 62.8896 95.5009 62.4672 95.5106 62.4384C95.5106 62.4384 95.5106 62.4384 95.5106 62.4288C95.7235 62.0064 95.8397 61.5456 95.83 61.2192C95.6751 58.464 91.5811 57.4464 89.5485 56.2944C89.4614 56.2464 89.3743 56.1984 89.2969 56.1504C85.5513 54 81.8153 51.8592 78.06 49.7184C75.1274 48.048 72.1947 46.3584 69.2621 44.6784C66.6876 43.2096 64.0356 41.6544 60.9482 42.384C60.9966 42.3744 61.0353 42.3647 61.0836 42.3647C60.5513 42.4319 59.4867 42.6624 59.3125 42.7392C59.2544 42.7584 59.1576 42.7872 59.1092 42.816C58.393 42.9984 56.6315 44.0639 55.6442 44.6399C54.1053 45.5327 52.5568 46.416 51.0179 47.3088C47.8239 49.1712 44.63 51.0048 41.436 52.848Z" fill="#C5CCEF"/>
<path opacity="0.8387" d="M42.5976 52.848C38.6584 55.1136 34.6611 57.36 30.8961 59.8464C28.4184 62.6784 32.7544 64.3104 34.8643 65.52C42.1233 69.6768 49.3726 73.8241 56.6219 77.9809C58.9932 79.3441 60.716 80.9761 63.4163 80.9761C65.6908 80.9761 67.3846 79.9296 69.359 78.7872C72.4271 77.0208 75.4372 75.168 78.4956 73.4016C84.0705 70.1856 89.9551 67.2288 95.3364 63.744C95.0267 63.936 95.4429 63.6384 95.7333 63.4176C95.9075 63.3024 96.0817 63.1584 96.1301 63.1008C96.1494 63.0816 96.1591 63.0624 96.1785 63.0432C96.343 62.8608 96.6527 62.4384 96.6624 62.4192C96.6624 62.4192 96.6624 62.4192 96.6624 62.4096C96.8754 61.9872 96.9915 61.5264 96.9818 61.2C96.8269 58.4448 92.7329 57.4368 90.7004 56.2848C90.6133 56.2368 90.5262 56.1888 90.4487 56.1408C86.7128 54 82.9672 51.8496 79.2215 49.7184C76.2889 48.048 73.3563 46.3584 70.4236 44.6784C67.8491 43.2096 65.1972 41.6544 62.1097 42.384C62.1581 42.3744 62.1968 42.3647 62.2452 42.3647C61.7129 42.4319 60.6482 42.6624 60.474 42.7392C60.4159 42.7584 60.3191 42.7872 60.2708 42.816C59.5545 42.9984 57.793 44.0639 56.8058 44.6399C55.2669 45.5327 53.7183 46.416 52.1794 47.3088C48.9855 49.1712 45.7818 51.0048 42.5976 52.848Z" fill="#C3CAEE"/>
<path opacity="0.871" d="M43.7488 52.848C39.8096 55.1136 35.8124 57.36 32.0474 59.8464C29.5696 62.6784 33.9057 64.3008 36.0253 65.5104C43.2843 69.6673 50.5336 73.8144 57.7829 77.9713C60.1541 79.3345 61.877 80.9761 64.5676 80.9761C66.8421 80.9761 68.5262 79.9105 70.5103 78.7681C73.5784 77.0017 76.5788 75.1488 79.6469 73.3824C85.2218 70.1664 91.1065 67.2096 96.4878 63.7248C96.1781 63.9168 96.5942 63.6192 96.8943 63.3984C97.0685 63.2736 97.2427 63.1392 97.2911 63.0912C97.3105 63.072 97.3201 63.0528 97.3395 63.0336C97.5137 62.8416 97.8138 62.4288 97.8234 62.4096C97.8234 62.4096 97.8234 62.4096 97.8234 62.4C98.0364 61.9776 98.1525 61.5168 98.1428 61.1904C97.988 58.4256 93.8939 57.4368 91.8614 56.2848C91.7743 56.2368 91.6872 56.1888 91.6098 56.1408C87.8738 54 84.1378 51.8496 80.3922 49.7184C77.4596 48.048 74.527 46.3584 71.5943 44.6784C69.0198 43.2096 66.3679 41.6544 63.2804 42.384C63.3288 42.3744 63.3675 42.3647 63.4159 42.3647C62.8835 42.4319 61.8189 42.6624 61.6447 42.7392C61.5866 42.7584 61.4898 42.7872 61.4414 42.816C60.7252 42.9984 58.9637 44.0639 57.9765 44.6399C56.4376 45.5327 54.889 46.416 53.3501 47.3088C50.1464 49.1712 46.9428 51.0048 43.7488 52.848Z" fill="#C0C8EE"/>
<path opacity="0.9032" d="M44.9109 52.848C40.9717 55.1136 36.9744 57.36 33.2094 59.8464C30.7317 62.6784 35.0774 64.2816 37.1873 65.4912C44.4463 69.648 51.6956 73.7952 58.9449 77.952C61.3162 79.3152 63.0293 80.9761 65.7296 80.9761C68.0041 80.9761 69.6882 79.8913 71.6626 78.7585C74.7307 76.9921 77.7311 75.1393 80.7992 73.3729C86.3741 70.1569 92.2587 67.2096 97.6401 63.7152C97.34 63.8976 97.7368 63.6096 98.0465 63.3792C98.2208 63.2544 98.4047 63.1104 98.4434 63.072C98.4627 63.0528 98.4724 63.0336 98.4918 63.0144C98.666 62.8224 98.966 62.4096 98.9757 62.3904C98.9757 62.3904 98.9757 62.3904 98.9757 62.3808C99.1886 61.9584 99.3048 61.4976 99.2951 61.1712C99.1402 58.4064 95.0365 57.4368 93.0137 56.2848C92.9266 56.2368 92.8394 56.1888 92.762 56.1408C89.0261 54 85.2901 51.8592 81.5541 49.728C78.6215 48.0576 75.6889 46.368 72.7563 44.688C70.1818 43.2192 67.5298 41.6639 64.4423 42.3935C64.4907 42.3839 64.5295 42.3743 64.5779 42.3743C64.0455 42.4415 62.9809 42.6719 62.8067 42.7487C62.7486 42.7679 62.6518 42.7968 62.6034 42.8256C61.8872 43.008 60.1257 44.0735 59.1385 44.6495C57.5996 45.5423 56.051 46.4256 54.5121 47.3184C51.2988 49.1712 48.1048 51.0048 44.9109 52.848Z" fill="#BEC6ED"/>
<path opacity="0.9355" d="M46.0719 52.848C42.1327 55.1136 38.1354 57.36 34.3704 59.8464C31.8927 62.6784 36.2481 64.272 38.3581 65.4816C45.617 69.6384 52.8663 73.7856 60.1156 77.9424C62.4869 79.3056 64.1903 80.9761 66.8907 80.9761C69.1651 80.9761 70.8395 79.8721 72.814 78.7393C75.8821 76.9728 78.8825 75.1104 81.941 73.344C87.5158 70.128 93.4005 67.1808 98.7818 63.696C98.4817 63.8784 98.8785 63.6 99.1883 63.36C99.3722 63.2256 99.5464 63.0912 99.5851 63.0528C99.6045 63.0336 99.6141 63.0144 99.6335 62.9952C99.8077 62.8032 100.098 62.3904 100.117 62.3712C100.117 62.3712 100.117 62.3712 100.117 62.3616C100.33 61.9392 100.446 61.4784 100.437 61.152C100.282 58.3872 96.1782 57.4272 94.1457 56.2752C94.0586 56.2272 93.9812 56.1792 93.894 56.1312C90.1678 53.9904 86.4318 51.8496 82.6959 49.7184C79.7633 48.048 76.8306 46.3584 73.898 44.6784C71.3235 43.2096 68.6715 41.6544 65.584 42.384C65.6324 42.3744 65.6712 42.3647 65.7195 42.3647C65.1872 42.4319 64.1226 42.6624 63.9483 42.7392C63.8903 42.7584 63.7935 42.7872 63.7451 42.816C63.0289 42.9984 61.2674 44.0639 60.2802 44.6399C58.7413 45.5327 57.1927 46.416 55.6538 47.3088C52.4598 49.1712 49.2659 51.0048 46.0719 52.848Z" fill="#BCC4EC"/>
<path opacity="0.9677" d="M47.2334 52.848C43.2942 55.1136 39.2969 57.36 35.532 59.8464C33.0542 62.6784 37.4096 64.2528 39.5292 65.4624C46.7882 69.6192 54.0375 73.7665 61.2965 77.9233C63.6677 79.2865 65.3712 80.9761 68.0618 80.9761C70.3363 80.9761 72.0011 79.8624 73.9755 78.72C77.0436 76.9536 80.044 75.0912 83.1024 73.3248C88.6773 70.1088 94.5619 67.1616 99.9433 63.6768C99.6529 63.8592 100.03 63.5808 100.35 63.3408C100.534 63.2064 100.708 63.072 100.747 63.0336C100.766 63.0144 100.776 63.0048 100.795 62.976C100.969 62.784 101.26 62.3712 101.269 62.352C101.269 62.352 101.269 62.352 101.269 62.3424C101.482 61.92 101.598 61.4592 101.589 61.1328C101.434 58.3584 97.33 57.4272 95.2975 56.2656C95.2104 56.2176 95.133 56.1696 95.0459 56.1216C91.3196 53.9808 87.5837 51.84 83.8477 49.7088C80.9151 48.0384 77.9824 46.3488 75.0498 44.6688C72.4753 43.2 69.8234 41.6448 66.7456 42.3744C66.7939 42.3648 66.8327 42.3552 66.8811 42.3552C66.3487 42.4224 65.2841 42.6528 65.1099 42.7296C65.0518 42.7488 64.955 42.7776 64.9066 42.8064C64.1904 42.9888 62.4289 44.0544 61.4417 44.6304C59.9028 45.5232 58.3542 46.4064 56.8153 47.2992C53.6213 49.1712 50.4177 51.0048 47.2334 52.848Z" fill="#B9C2EC"/>
<path opacity="0.5" d="M102.75 61.1328C102.595 58.3584 98.4821 57.4368 96.4592 56.2848C92.6555 54.096 88.8324 51.9168 85.0191 49.7376C82.0864 48.0672 79.1538 46.3776 76.2212 44.6976C73.6467 43.2288 70.9947 41.6736 67.9169 42.4032C67.9653 42.3936 68.004 42.384 68.0524 42.384C67.5201 42.4512 66.4554 42.6816 66.2812 42.7584C66.2231 42.7776 66.1264 42.8064 66.078 42.8352C65.3618 43.0176 63.6003 44.0832 62.613 44.6592C61.0741 45.552 59.5255 46.4352 57.9866 47.328C54.7927 49.1712 51.5987 51.0144 48.4048 52.8576C44.4656 55.1232 40.4683 57.3696 36.7033 59.856C34.2256 62.688 38.5906 64.2528 40.7006 65.4624C47.9596 69.6192 55.2089 73.7664 62.4678 77.9232C64.8391 79.2864 66.5329 80.9857 69.2332 80.9857C71.5077 80.9857 73.1627 79.8529 75.1468 78.7105C78.215 76.9441 81.2057 75.0817 84.2738 73.3153C89.8487 70.0992 95.7333 67.152 101.115 63.6672C100.669 63.9456 101.831 63.12 101.918 63.0144C102.073 62.8608 102.431 62.352 102.441 62.3424C102.634 61.92 102.76 61.4592 102.75 61.1328Z" fill="#B7C0EB"/>
</g>
<path d="M104.928 61.4496C106.244 60.6144 104.018 42.2496 104.018 42.2496L72.3301 23.9904C70.6751 23.0304 67.9457 23.0304 66.2713 23.9904L34.3802 42.2496C34.3802 42.2496 32.1348 60.6529 33.7995 61.6129L66.039 80.2848C67.7037 81.2448 70.4331 81.2448 72.0978 80.2848L104.928 61.4496Z" fill="#B7C0EB"/>
<path d="M33.1318 20.8512C33.1318 20.8992 33.1415 20.9472 33.1512 20.9856C33.1609 21.0144 33.1705 21.0528 33.1802 21.0912C33.1899 21.1392 33.1996 21.1776 33.2189 21.2256C33.2286 21.2544 33.248 21.2928 33.2576 21.3216C33.277 21.3696 33.2964 21.408 33.3254 21.456C33.3544 21.5136 33.3931 21.5712 33.4318 21.6384C33.4415 21.648 33.4415 21.6576 33.4512 21.6672C33.4899 21.7248 33.5383 21.7824 33.5867 21.8304C33.5964 21.8496 33.6061 21.8592 33.6157 21.8688C33.6738 21.9264 33.7319 21.9936 33.79 22.0416C33.8287 22.08 33.8771 22.1184 33.9255 22.1568C33.9642 22.1856 34.0029 22.2144 34.0416 22.2432C34.09 22.272 34.1481 22.3104 34.1965 22.3488C34.2449 22.3872 34.3029 22.416 34.3513 22.4544L66.0296 40.7232L66.0973 79.5264L34.4191 61.2672C34.3997 61.2576 34.3804 61.248 34.3707 61.2384C34.332 61.2192 34.2933 61.1904 34.2642 61.1712C34.2158 61.1328 34.1578 61.104 34.1094 61.0656C34.0706 61.0368 34.0319 61.008 33.9932 60.9696C33.9545 60.9312 33.9061 60.8928 33.8674 60.864C33.8577 60.8544 33.848 60.8544 33.8384 60.8448C33.7803 60.7968 33.7319 60.7488 33.6835 60.6912C33.6738 60.6816 33.6641 60.672 33.6545 60.6528C33.6254 60.624 33.5964 60.5952 33.577 60.5568C33.5577 60.528 33.5383 60.5088 33.519 60.4704C33.5093 60.4608 33.5093 60.4512 33.4996 60.4416C33.4706 60.3936 33.4319 60.3456 33.4125 60.2976C33.4028 60.288 33.4028 60.2688 33.3932 60.2688C33.3738 60.2208 33.3544 60.1824 33.3351 60.1344C33.3254 60.1056 33.306 60.0864 33.2964 60.0576C33.2867 60.048 33.2867 60.0384 33.2867 60.0288C33.277 59.9904 33.2577 59.9424 33.248 59.904C33.2383 59.8752 33.2286 59.8464 33.2286 59.8176C33.2286 59.808 33.2286 59.808 33.2286 59.7888C33.2189 59.7504 33.2189 59.7024 33.2093 59.664C33.2093 59.6352 33.1996 59.5968 33.1996 59.568C33.1996 59.5584 33.1996 59.5392 33.1996 59.5296L33.1415 20.7264C33.1221 20.7744 33.1318 20.8128 33.1318 20.8512Z" fill="#E4E7FB"/>
<path d="M103.989 22.4544C104.831 21.9744 105.257 21.3408 105.247 20.6976L105.315 59.5009C105.315 60.1345 104.899 60.7681 104.057 61.2481L72.1659 79.5168L72.0981 40.7136L103.989 22.4544Z" fill="#EFF1FE"/>
<path d="M34.3805 18.9792C32.7061 19.9296 32.6965 21.504 34.3612 22.464L66.0393 40.7328C67.6944 41.6928 70.4238 41.6928 72.0982 40.7328L103.989 22.4736C105.664 21.5136 105.673 19.9488 104.009 18.9888L72.3304 0.719999C70.6657 -0.24 67.9364 -0.24 66.2716 0.719999L34.3805 18.9792Z" fill="white"/>
<path d="M69.0685 41.1264C70.1622 41.1264 71.1881 40.8864 71.943 40.4544L103.834 22.1952C104.55 21.7824 104.938 21.264 104.938 20.7168C104.938 20.1792 104.55 19.6608 103.854 19.2576L72.1753 0.988785C71.4204 0.556784 70.4041 0.316772 69.3104 0.316772C68.2168 0.316772 67.2005 0.556784 66.4359 0.988785L34.5448 19.2576C33.8382 19.6608 33.4414 20.1888 33.4414 20.7264C33.4414 21.264 33.8285 21.792 34.5254 22.1952L66.2036 40.4544C66.9585 40.8864 67.9748 41.1264 69.0685 41.1264Z" fill="#FDFCFF"/>
<path d="M66.5038 79.7281C66.3683 79.6705 65.8553 79.3825 65.7295 79.3057V40.5409C65.8553 40.6177 66.3005 40.8576 66.4457 40.9248C66.4844 40.944 66.5328 40.9632 66.5715 40.9824C66.678 41.0304 66.7845 41.0688 66.9006 41.1072C66.9393 41.1264 66.9877 41.1361 67.0264 41.1553C67.1039 41.1745 67.1716 41.1937 67.2394 41.2129C67.2974 41.2321 67.3555 41.2417 67.4136 41.2609C67.491 41.2801 67.5684 41.2992 67.6555 41.3088C67.7136 41.3184 67.762 41.3281 67.8201 41.3377C67.9749 41.3665 68.1395 41.3856 68.304 41.4048C68.3524 41.4144 68.4105 41.4144 68.4589 41.4144C68.5556 41.424 68.6525 41.4337 68.7492 41.4337C68.817 41.4337 68.875 41.4337 68.9428 41.4337C69.0202 41.4337 69.0977 41.4337 69.1751 41.4337C69.2429 41.4337 69.3106 41.4336 69.3783 41.424C69.4461 41.424 69.5235 41.4144 69.5913 41.4144C69.659 41.4144 69.7268 41.4049 69.7945 41.3953C69.8623 41.3857 69.9397 41.3761 70.0075 41.3761C70.0752 41.3665 70.1333 41.3568 70.201 41.3472C70.2785 41.3376 70.3559 41.3184 70.4333 41.3088C70.4914 41.2992 70.5495 41.2896 70.6075 41.28C70.6946 41.2608 70.7817 41.2417 70.8785 41.2129C70.9269 41.2033 70.9753 41.1936 71.0237 41.1744C71.1786 41.1264 71.3335 41.0785 71.4786 41.0209C71.5464 40.9921 71.6238 40.9632 71.6915 40.9344C71.7303 40.9152 71.769 40.896 71.8077 40.8864C71.9142 40.8384 72.5046 40.5024 72.611 40.4448V79.2865C72.5142 79.3441 71.9819 79.6417 71.8754 79.6897C71.8367 79.7089 71.8077 79.7185 71.769 79.7377C71.7109 79.7665 71.6431 79.7953 71.5754 79.8241C71.5657 79.8241 71.556 79.8241 71.5464 79.8337C71.4012 79.8913 71.2463 79.9393 71.0915 79.9873C71.0818 79.9969 71.0721 79.9969 71.0528 79.9969C71.0141 80.0065 70.9753 80.0161 70.9366 80.0257C70.8495 80.0545 70.7721 80.0737 70.685 80.0833C70.6656 80.0929 70.6366 80.1025 70.6172 80.1025C70.5785 80.1121 70.5398 80.1217 70.5011 80.1217C70.4333 80.1409 70.3559 80.1409 70.2881 80.1601C70.2591 80.1601 70.2204 80.1697 70.1914 80.1793C70.1526 80.1889 70.1139 80.1889 70.0752 80.1889C70.0075 80.1985 69.9397 80.2081 69.8816 80.2081C69.8429 80.2081 69.8139 80.2177 69.7752 80.2177C69.7365 80.2177 69.7074 80.2177 69.6687 80.2273C69.6009 80.2369 69.5332 80.2369 69.4655 80.2369C69.4267 80.2369 69.388 80.2369 69.3493 80.2369C69.3203 80.2369 69.2912 80.2369 69.2622 80.2369C69.1848 80.2369 69.1073 80.2369 69.0299 80.2369C68.9815 80.2369 68.9525 80.2369 68.9138 80.2369C68.8944 80.2369 68.8654 80.2369 68.846 80.2273C68.7492 80.2273 68.6524 80.2177 68.5557 80.2081C68.5169 80.1985 68.4685 80.1985 68.4395 80.1985C68.4202 80.1985 68.4105 80.1985 68.4008 80.1985C68.2363 80.1793 68.0717 80.1601 67.9169 80.1313C67.9072 80.1313 67.8975 80.1313 67.8878 80.1313C67.8394 80.1121 67.791 80.1025 67.7426 80.0929C67.6652 80.0833 67.5878 80.0641 67.5104 80.0449C67.4523 80.0353 67.3942 80.0161 67.3361 80.0065C67.2587 79.9873 67.191 79.9585 67.1232 79.9393C67.1039 79.9393 67.0845 79.9297 67.0748 79.9297C67.0458 79.9201 67.0264 79.9105 66.9974 79.9009C66.8813 79.8625 66.7748 79.8241 66.6683 79.7761C66.5909 79.7569 66.5425 79.7377 66.5038 79.7281Z" fill="url(#paint0_linear_535_19428)"/>
<defs>
<linearGradient id="paint0_linear_535_19428" x1="72.5923" y1="60.3388" x2="65.7295" y2="60.3388" gradientUnits="userSpaceOnUse">
<stop stop-color="#EFF1FE"/>
<stop offset="1" stop-color="#E4E7FB"/>
</linearGradient>
</defs>
</svg>
