<svg width="1080" height="1099" viewBox="0 0 1080 1099" fill="none" xmlns="http://www.w3.org/2000/svg">
<g filter="url(#filter0_f_664_2)">
<circle cx="472.5" cy="531.5" r="307.5" fill="#A279F8"/>
</g>
<g clip-path="url(#clip0_664_2)">
<path d="M129.257 930.842C114.28 933.544 95.3285 941.523 97.0821 956.581C98.8356 971.316 118.269 975.032 133.102 974.952L389.07 973.649C405.496 973.552 422.372 973.391 437.59 967.214C452.809 961.037 466.226 947.475 467.111 931.083C469.83 880.055 347.211 904.797 318.559 906.953C255.08 911.556 191.89 919.53 129.257 930.842Z" fill="#AC6CFF"/>
<path d="M442.367 254.452C443.767 255.434 453.339 261.531 456.717 268.126C458.97 272.502 446.534 277.087 446.534 277.087L442.367 254.452Z" fill="#FF8178"/>
<path d="M383.84 307.427L376.488 323.095C382.934 329.716 389.865 335.847 397.225 341.434C400.125 343.326 402.646 345.743 404.658 348.561C410.734 338.895 416.251 328.889 421.179 318.591L383.84 307.427Z" fill="#FFB6AD"/>
<path d="M383.84 307.427C381.395 312.639 378.944 317.862 376.488 323.095C379.304 325.991 382.232 328.758 385.224 331.46C386.833 330.64 388.071 329.98 388.522 329.852C393.198 328.191 398.061 327.111 403.001 326.634C407.623 326.277 412.27 326.396 416.868 326.988C418.316 324.205 419.715 321.39 421.131 318.527L383.84 307.427Z" fill="#FF9C90"/>
<path d="M448.528 293.472C455.413 272.168 445.944 250.033 427.379 244.034C408.813 238.034 388.181 250.44 381.295 271.744C374.41 293.048 383.879 315.183 402.444 321.182C421.01 327.182 441.642 314.776 448.528 293.472Z" fill="#FFB6AD"/>
<path d="M421.022 306.864C430.298 306.864 437.817 299.344 437.817 290.069C437.817 280.793 430.298 273.274 421.022 273.274C411.746 273.274 404.227 280.793 404.227 290.069C404.227 299.344 411.746 306.864 421.022 306.864Z" fill="#FF8178"/>
<path d="M424.511 275.768C426.75 275.768 428.565 273.953 428.565 271.714C428.565 269.475 426.75 267.66 424.511 267.66C422.272 267.66 420.457 269.475 420.457 271.714C420.457 273.953 422.272 275.768 424.511 275.768Z" fill="#211E21"/>
<path d="M394.765 272.261C395.361 275.06 395.956 277.859 396.792 280.594C397.062 281.704 397.573 282.742 398.289 283.634C398.655 284.07 399.143 284.388 399.69 284.545C400.237 284.703 400.819 284.694 401.361 284.519C402.857 283.908 403.163 281.929 403.179 280.32C403.214 276.016 402.934 271.714 402.343 267.451C402.246 266.839 414.473 260.807 415.744 260.035C419.948 257.588 424.009 254.902 427.906 251.991C430.469 250.246 432.382 247.7 433.343 244.752C433.759 242.631 433.808 240.455 433.488 238.317C433.458 237.313 433.234 236.324 432.828 235.406C431.541 232.896 428.485 233.797 427.584 236.097C427.141 237.703 427.141 239.398 427.584 241.004C420.267 237.729 411.986 237.327 404.386 239.878C398.245 241.952 392.319 244.613 386.689 247.825C380.721 251.042 375.123 253.198 371.583 259.375C368.044 265.552 365.695 274.497 367.771 281.575C370.682 291.436 380.641 297.147 382.378 307.571C382.492 308.625 382.729 309.662 383.086 310.66C384.148 313.186 386.931 313.298 388.861 311.561C390.03 310.337 390.933 308.886 391.516 307.298C392.851 304.37 394.331 301.491 395.94 298.707C396.832 297.355 397.525 295.881 397.999 294.332C398.231 293.552 398.279 292.73 398.139 291.929C398 291.128 397.676 290.37 397.195 289.715C396.56 289.109 395.864 288.57 395.119 288.106C393.822 287.132 392.751 285.888 391.979 284.461C391.207 283.034 390.753 281.457 390.647 279.838C390.438 276.636 392.401 274.529 394.765 272.261Z" fill="#6A3445"/>
<path d="M477.634 672.904C481.398 691.774 477.424 711.947 449.03 722.549C445.783 717.759 443.902 712.176 443.59 706.398C443.277 700.62 444.544 694.866 447.254 689.754C449.965 684.642 454.017 680.365 458.976 677.383C463.934 674.4 469.611 672.824 475.397 672.824C476.154 672.824 476.894 672.824 477.618 672.904H477.634Z" fill="#008897"/>
<path d="M477.631 672.904C476.908 672.904 476.167 672.824 475.411 672.824C469.625 672.824 463.948 674.4 458.989 677.383C454.031 680.365 449.979 684.642 447.268 689.754C444.558 694.866 443.291 700.62 443.603 706.398C443.916 712.176 445.797 717.759 449.044 722.549C447.902 722.967 446.711 723.385 445.505 723.787C435.852 726.892 422.902 728.967 407.377 729.772C409.292 728.517 414.037 723.063 415.904 699.367C418.252 669.832 394.137 631.802 393.381 630.741C388.297 609.586 384.919 594.98 382.844 585.81C382.844 585.81 409.083 578.346 402.631 558.623C420.537 580.55 458.938 628.328 467.641 645.621C472.159 654.236 475.518 663.409 477.631 672.904Z" fill="#00A1B3"/>
<path d="M427.439 645.573C412.156 623.791 387.735 608.493 377.857 583.011C376.795 580.26 372.323 581.402 373.401 584.25C381.444 605.05 398.529 619.206 413.153 635.277C420.939 643.835 428.34 653.327 432.281 664.33C434.469 670.443 437.011 677.875 431.831 682.991C427.004 687.817 418.961 690.278 412.526 691.903C411.933 692.067 411.429 692.46 411.126 692.996C410.823 693.531 410.745 694.165 410.909 694.759C411.073 695.352 411.466 695.855 412.002 696.158C412.537 696.461 413.171 696.54 413.764 696.375C422.693 694.091 439.231 688.911 439.665 677.65C440.1 666.389 433.648 654.421 427.439 645.573Z" fill="#008897"/>
<path d="M393.383 630.741C394.123 631.867 418.238 669.832 415.905 699.367C414.039 723.063 409.293 728.517 407.379 729.772C403.089 729.997 398.536 730.115 393.721 730.125C400.372 719.015 404.009 706.362 404.274 693.415C404.567 681.927 403.256 670.454 400.381 659.327C397.71 648.694 395.41 639.202 393.383 630.741Z" fill="#008897"/>
<path d="M400.315 659.327C397.708 648.71 395.488 639.202 393.381 630.741C388.297 609.586 384.919 594.98 382.844 585.81C382.844 585.81 374.687 588.609 359.211 587.177C339.005 585.327 306.331 576.287 262.992 544.499C262.992 544.499 236.769 545.85 225.234 529.667C224.478 542.681 226.682 560.232 240.405 573.101C265.051 596.218 273.786 587.483 294.314 623.936L297.628 629.743C316.595 662.544 331.09 680.916 327.197 689.168C323.078 697.887 300.186 695.844 285.707 704.049C280.912 706.69 276.31 709.668 271.936 712.961C256.38 724.817 234.034 748.915 205.479 808.308L191 835.382L210.836 871.658C242.351 848.573 363.957 759.468 372.885 752.309C374.301 751.183 376.103 749.784 378.194 748.014C373.037 743.04 369.71 736.47 368.751 729.369C368.556 727.951 368.46 726.522 368.461 725.09C368.466 716.644 371.823 708.545 377.796 702.572C383.768 696.6 391.868 693.243 400.315 693.238C401.389 693.241 402.463 693.3 403.532 693.415H404.16C404.468 681.929 403.174 670.456 400.315 659.327Z" fill="#00B2C6"/>
<path d="M356.637 673.098C353.42 661.177 344.7 650.576 338.346 640.152C322.676 614.413 308.246 587.821 300.476 558.559C300.311 557.966 299.918 557.462 299.383 557.159C298.847 556.856 298.213 556.778 297.62 556.942C297.027 557.106 296.523 557.5 296.22 558.035C295.917 558.571 295.839 559.205 296.003 559.798C302.438 583.928 313.362 606.61 325.862 628.231C332.425 639.605 339.6 650.592 346.341 661.853C353.629 673.982 355.173 686.08 349.156 699.142C339.311 720.522 318.011 736.045 299.285 749.14C280.897 762.01 261.624 773.608 244.587 788.167C222.998 806.345 208.342 829.542 195.392 854.284C194.008 856.922 198.014 859.271 199.398 856.617C211.688 833.114 225.475 810.849 245.633 793.234C263.651 777.485 284.356 765.291 303.838 751.537C322.129 738.668 342.062 723.626 352.342 703.164C356.991 693.898 359.388 683.297 356.637 673.098Z" fill="#00A1B3"/>
<path d="M336.288 674.98C336.046 672.02 331.461 672.004 331.654 674.98C331.836 676.908 331.584 678.852 330.916 680.67C330.248 682.488 329.181 684.133 327.793 685.484C327.885 686.728 327.676 687.975 327.182 689.12C326.296 690.806 324.884 692.156 323.16 692.965C327.149 692.053 330.673 689.731 333.086 686.426C335.498 683.121 336.635 679.056 336.288 674.98Z" fill="#00A1B3"/>
<path d="M403.58 693.383H404.207C403.957 706.325 400.337 718.978 393.702 730.093C385.868 730.093 377.534 729.868 368.751 729.305C368.556 727.887 368.459 726.457 368.461 725.026C368.465 716.58 371.823 708.48 377.795 702.508C383.768 696.535 391.868 693.178 400.314 693.174C401.406 693.186 402.496 693.256 403.58 693.383Z" fill="#00A1B3"/>
<path d="M402.664 558.607C409.099 578.33 382.876 585.794 382.876 585.794C380.962 577.364 380.173 573.568 380.173 573.568L373.738 570.19L393.365 547.346C393.365 547.346 396.969 551.706 402.664 558.607Z" fill="#008897"/>
<path d="M368.75 729.337C377.534 729.9 385.867 730.158 393.702 730.125C389.534 736.878 384.296 742.909 378.193 747.982C373.036 743.007 369.709 736.438 368.75 729.337Z" fill="#00A1B3"/>
<path d="M380.141 573.568C380.141 573.568 380.929 577.364 382.843 585.794C382.843 585.794 374.687 588.593 359.211 587.161L373.706 570.19L380.141 573.568Z" fill="#00A1B3"/>
<path d="M373.706 570.19L359.227 587.161C339.021 585.311 306.347 576.271 263.007 544.483C263.007 544.483 236.785 545.834 225.25 529.651C225.566 523.61 226.592 517.627 228.307 511.827L247.451 503.188L373.706 570.19Z" fill="#00A1B3"/>
<path d="M297.612 629.695C316.579 662.496 331.074 680.867 327.18 689.12C323.062 697.839 300.17 695.796 285.691 704C280.896 706.642 276.294 709.62 271.92 712.913C264.648 710.982 257.312 708.864 249.912 706.558C249.14 691.807 294.281 689.458 298.963 667.66C303.596 646.2 289.133 627.443 288.699 626.928C291.715 627.7 294.689 628.623 297.612 629.695Z" fill="#008897"/>
<path d="M288.701 626.928C289.135 627.475 303.598 646.232 298.965 667.66C294.283 689.458 249.094 691.79 249.914 706.558C219.972 697.287 190.881 685.463 162.961 671.215L172.436 621.652C183.312 624.065 200.01 627.202 208.376 625.963C218.431 624.483 256.639 618.547 288.814 626.928H288.701Z" fill="#00A1B3"/>
<path d="M191.002 835.302L210.838 871.577L203.406 877.127L185.484 845.758L191.002 835.302Z" fill="#00A1B3"/>
<path d="M208.697 935.973C209.033 939.746 208.761 943.548 207.892 947.234C198.98 951.175 193.832 927.624 182.152 902.738C170.473 877.851 171.004 870.693 171.004 870.693C173.464 865.45 176.241 860.363 179.321 855.458L201.65 880.136C197.21 892.104 207.699 916.685 208.697 935.973Z" fill="#DA9C80"/>
<path d="M214.618 922.814C212.545 919.896 209.846 917.478 206.719 915.736C205.245 914.912 203.664 914.295 202.021 913.902C201.381 913.752 200.73 913.65 200.075 913.596C199.571 913.556 199.066 913.556 198.563 913.596H197.919C197.599 913.477 197.253 913.448 196.918 913.514C196.583 913.579 196.272 913.736 196.021 913.966L195.908 914.079C195.747 914.239 195.618 914.429 195.531 914.639C195.443 914.849 195.398 915.074 195.398 915.302C195.398 915.529 195.443 915.754 195.531 915.964C195.618 916.174 195.747 916.364 195.908 916.524C196.355 916.915 196.924 917.137 197.517 917.152C199.301 917.191 201.075 917.423 202.81 917.843C206.324 919.216 209.369 921.573 211.577 924.632C212.945 926.369 215.937 924.616 214.618 922.814Z" fill="#232644"/>
<path d="M212.831 912.149C210.513 909.816 207.787 907.93 204.787 906.582C208.713 904.765 213.748 904.556 216.531 900.856C218.349 898.442 218.14 895.209 215.083 893.89C213.321 893.175 211.372 893.066 209.54 893.578C207.709 894.09 206.1 895.196 204.964 896.721C204.626 897.123 204.128 897.702 203.613 898.33C203.098 892.973 200.942 887.198 195.473 888.983C189.038 891.107 193.607 899.681 197.451 904.427C196.695 904.314 195.923 904.218 195.135 904.169C192.899 904.025 192.931 907.499 195.135 907.644C200.883 907.99 206.291 910.482 210.289 914.626C211.946 916.251 214.44 913.741 212.831 912.149ZM211.721 896.721L213.33 896.914C214.456 897.896 214.472 898.684 213.33 899.263C211.625 901.386 208.101 902.014 205.093 902.915C205.727 901.531 206.574 900.256 207.603 899.134C208.055 898.451 208.656 897.878 209.361 897.46C210.066 897.042 210.856 896.79 211.673 896.721H211.721ZM196.02 892.909C196.776 891.3 198.433 892.909 198.932 893.793C199.477 894.802 199.868 895.886 200.09 897.011C200.523 898.85 200.621 900.751 200.379 902.625C199.501 901.681 198.735 900.64 198.095 899.52C197.323 898.233 195.28 894.437 195.971 892.909H196.02Z" fill="#232644"/>
<path d="M207.876 947.202C205.608 955.068 199.575 951.899 196.502 948.408C192.448 943.808 179.739 908.111 179.739 908.111L174.591 910.556C163.233 889.45 168.912 878.897 170.264 872.945C170.448 872.175 170.696 871.422 171.004 870.693C171.004 870.693 170.489 877.851 182.12 902.738C193.751 927.624 198.964 951.127 207.876 947.202Z" fill="#232644"/>
<path d="M185.484 845.758L203.405 877.127C202.724 878.051 202.182 879.07 201.797 880.152L179.387 855.426C182.604 850.118 185.484 845.758 185.484 845.758Z" fill="#B57A60"/>
<path d="M291.837 691.356C280.833 692.788 272.13 683.538 262.88 678.921C253.227 674.095 242.867 671.151 232.635 668.046C210.885 661.44 188.958 655.482 166.853 650.174L172.307 621.636C166.242 620.284 161.979 619.158 161.979 619.158L150.895 664.781C154.884 666.968 158.938 669.076 162.912 671.135L166.129 654.678C188.834 660.148 211.357 666.287 233.697 673.098C244.717 676.46 255.962 679.709 265.872 685.726C273.916 690.648 281.815 697.228 291.902 695.925C294.749 695.603 294.781 690.97 291.837 691.356Z" fill="#008897"/>
<path d="M162.06 619.158L150.895 664.781C149.54 665.12 148.217 665.572 146.938 666.132L150.895 616.6C156.992 617.871 162.06 619.158 162.06 619.158Z" fill="#B57A60"/>
<path d="M150.893 616.665L146.871 666.196C142.126 668.271 137.412 671.987 132.2 677.94C125.555 685.517 117.206 710.934 109.677 712.253C103.982 706.285 106.701 695.233 112.895 681.688C119.088 668.143 141.53 615.056 141.53 615.056C144.619 615.49 147.885 616.07 150.893 616.665Z" fill="#DA9C80"/>
<path d="M126.087 702.488C127.021 699.037 127.18 695.423 126.554 691.903C126.232 690.231 125.691 688.608 124.945 687.077C124.644 686.496 124.311 685.932 123.948 685.388C123.675 684.957 123.368 684.548 123.031 684.165C122.87 683.94 122.741 683.779 122.628 683.651C122.522 683.328 122.327 683.042 122.065 682.826C121.803 682.609 121.485 682.471 121.148 682.428L121.132 682.476C120.669 682.441 120.211 682.59 119.859 682.892C119.506 683.193 119.287 683.622 119.25 684.085C119.258 684.663 119.443 685.225 119.781 685.694C120.886 687.09 121.831 688.606 122.596 690.214C123.761 693.803 123.861 697.653 122.886 701.298C122.274 703.389 125.524 704.644 126.087 702.488Z" fill="#232644"/>
<path d="M133.182 694.332C133.545 691.099 133.305 687.826 132.474 684.68C136.383 686.562 139.729 690.343 144.346 690.15C147.371 690.037 149.703 687.801 148.835 684.632C148.277 682.814 147.13 681.233 145.574 680.138C144.019 679.043 142.144 678.496 140.244 678.583C139.713 678.583 138.957 678.583 138.12 678.583C141.933 674.787 145.054 669.478 140.196 666.373C134.469 662.689 130.752 671.682 129.498 677.634C129.111 676.974 128.693 676.315 128.227 675.671C126.924 673.854 124.253 676.074 125.556 677.875C128.909 682.558 130.395 688.323 129.723 694.043C129.707 694.489 129.863 694.924 130.16 695.258C130.456 695.592 130.869 695.799 131.314 695.836C131.759 695.873 132.201 695.738 132.549 695.458C132.897 695.178 133.123 694.775 133.182 694.332ZM144.443 683.715L145.263 685.018C145.263 686.514 144.604 687.029 143.478 686.546C140.743 686.546 138.04 684.23 135.434 682.476C136.909 682.096 138.433 681.944 139.954 682.026C140.782 681.947 141.616 682.058 142.394 682.35C143.172 682.643 143.873 683.11 144.443 683.715ZM137.461 669.14C139.247 668.657 138.941 671.038 138.619 671.955C138.183 673.008 137.592 673.989 136.866 674.867C135.72 676.366 134.314 677.646 132.715 678.647C132.879 677.37 133.198 676.116 133.664 674.915C134.195 673.548 135.836 669.607 137.461 669.14Z" fill="#232644"/>
<path d="M130.529 615.442C132.058 614.284 136.498 614.429 141.582 615.088C141.582 615.088 119.156 668.175 112.946 681.72C106.736 695.265 104.001 706.285 109.728 712.285C102.151 713.604 101.894 705.287 102.955 695.812C104.017 686.337 118.93 646.442 118.93 646.442L116.759 643.61C116.759 643.61 126.186 618.708 130.529 615.442Z" fill="#232644"/>
<path d="M225.896 544.724C228.749 545.605 231.539 546.68 234.245 547.942C238.525 550.065 240.68 555.535 243.238 559.524C245.491 563.16 250.558 568.34 248.676 572.812C247.839 574.807 246.649 576.126 245.845 577.911C247.196 579.038 248.483 580.067 249.738 581.016C249.834 580.694 249.915 580.389 250.011 580.083C251.314 576.866 254.58 574.292 254.516 570.688C254.516 565.862 249.062 560.184 246.649 556.291C244.236 552.398 242.386 547.33 238.702 544.917C235.018 542.504 229.773 541.153 225.301 539.689C225.429 541.298 225.703 543.003 225.896 544.724Z" fill="#00A1B3"/>
<path d="M520.103 450.584C520.103 450.584 510.885 441.495 561.11 426.019C611.336 410.543 588.057 380.043 607.201 362.669C626.345 345.295 647.05 358.229 660.499 346.872C673.948 335.514 685.033 295.571 698.08 282.621C711.127 269.671 745.039 277.457 758.729 265.729C772.42 254.002 791.982 224 808.955 224C825.927 224 808.955 261.547 808.955 290.069C808.955 318.591 822.002 333.713 822.002 362.669C822.002 391.625 805.705 407.278 805.705 439.886C805.705 472.494 819.331 469.711 819.331 500.791C819.331 531.871 806.284 539.818 806.284 563.53C806.284 587.242 821.937 609.586 821.937 630.709C821.937 651.831 804.338 678.969 804.338 703.598C804.338 728.227 821.937 742.512 821.937 764.037C821.937 785.561 808.89 819.826 808.89 835.318C808.89 850.809 816.081 880.795 776.281 850.134C736.48 819.472 735.193 841.012 713.009 818.829C690.824 796.645 701.265 769.908 688.218 756.862C675.171 743.815 647.79 737.944 634.743 718.382C621.696 698.82 646.004 674.03 626.989 647.938C607.973 621.845 585.161 625.754 572.114 606.852C559.067 587.95 575.332 568.243 555.818 545.142C536.303 522.042 529.177 524.905 515.422 484.994L520.103 450.584Z" fill="#FFAF03"/>
<path d="M626.28 345.376L631.107 376.101C622.904 381.064 614.405 385.517 605.656 389.437L607.088 350.652C613.7 348.995 620.103 347.242 626.28 345.376Z" fill="#232644"/>
<path d="M479.531 404.044C484.963 404.049 490.251 405.798 494.615 409.032C498.98 412.267 502.19 416.817 503.775 422.013C479.724 426.727 465.519 426.84 454.676 424.507C455.803 418.743 458.898 413.55 463.432 409.817C467.967 406.084 473.658 404.043 479.531 404.044Z" fill="#232644"/>
<path d="M456.992 356.025L435.081 416.56C431.863 414.774 428.372 412.812 424.527 410.769L417.594 341.016C417.594 341.016 436.851 348.786 456.992 356.025Z" fill="#232644"/>
<path d="M607.203 350.652L605.771 389.437C579.614 401.384 552.357 410.759 524.384 417.429C516.791 419.263 509.906 420.775 503.776 421.997C502.131 416.592 498.726 411.892 494.102 408.644C489.479 405.396 483.903 403.786 478.26 404.071C472.616 404.356 467.23 406.518 462.957 410.215C458.685 413.912 455.77 418.931 454.677 424.475C447.784 422.809 441.175 420.131 435.066 416.528L456.978 355.993C474.223 362.186 492.081 367.994 498.95 368.203C512.061 368.605 561.466 362.347 607.203 350.652Z" fill="#2E3257"/>
<path d="M628.645 359.902C663.007 339.761 680.221 347.032 680.221 347.032C676.489 348.641 671.309 349.462 669.426 350.7C666.289 352.743 659.372 364.278 657.731 366.594C656.09 368.911 656.508 375.442 630.832 373.737L628.645 359.902Z" fill="#FFB6AD"/>
<path d="M684.419 341.981C684.564 344.346 682.698 345.874 680.221 346.984C680.221 346.984 663.007 339.761 628.644 359.854L627.035 349.815C627.035 349.815 633.663 344.475 646.501 343.622C659.339 342.769 684.098 336.061 684.419 341.981Z" fill="#FF9C90"/>
<path d="M420.456 343.67C420.456 343.67 425.926 413.6 433.696 431.826C441.467 450.053 459.935 476.242 434.774 501.418C409.613 526.594 391.402 529.651 391.402 529.651L412.944 343.67H420.456Z" fill="#444A72"/>
<path d="M414.909 348.545C414.909 348.545 411.402 414.372 413.461 427.467C415.52 440.562 423.483 497.027 392.402 520.771L378.277 401.728L398.837 351.859L414.909 348.545Z" fill="#FF3D0A"/>
<path d="M413.252 331.525L420.957 337.043C421.36 337.332 421.659 337.743 421.813 338.214C421.966 338.686 421.965 339.194 421.81 339.665L414.587 361.092C414.452 361.488 414.213 361.84 413.894 362.111C413.576 362.382 413.19 362.561 412.777 362.631C412.365 362.7 411.942 362.656 411.552 362.504C411.163 362.353 410.822 362.098 410.565 361.768L401.282 349.783C401 349.417 400.834 348.975 400.805 348.513C400.777 348.051 400.887 347.592 401.122 347.193L409.905 332.233C410.069 331.955 410.288 331.715 410.549 331.527C410.81 331.339 411.108 331.208 411.422 331.141C411.737 331.075 412.062 331.074 412.377 331.14C412.692 331.206 412.99 331.337 413.252 331.525Z" fill="#2E3257"/>
<path d="M493.801 454.702H456.977V477.61H493.801V454.702Z" fill="#211E21"/>
<path d="M465.277 466.912C467.272 469.245 468.495 471.979 466.886 474.698C462.993 481.647 452.214 496.753 445.972 491.139C443.929 489.305 441.725 487.23 439.328 485.315L465.261 466.912H465.277Z" fill="#FF9C90"/>
<path d="M431.62 451.581L425.635 478.929C424.267 478.777 422.886 478.777 421.517 478.929L418.75 457.26C422.778 454.821 427.103 452.912 431.62 451.581Z" fill="#FF9C90"/>
<path d="M465.278 466.912L439.409 485.299C435.56 481.898 430.802 479.695 425.719 478.961L431.703 451.613C434.005 450.916 436.362 450.421 438.75 450.133C449.593 448.846 463.251 447.543 463.042 453.737C463.025 455.409 462.406 457.02 461.298 458.273C460.19 459.526 458.667 460.337 457.009 460.558C460.091 462.214 462.884 464.36 465.278 466.912Z" fill="#FFB6AD"/>
<path d="M515.487 485.026L493.801 477.626V454.702L515.487 447.302C516.004 447.125 516.557 447.072 517.098 447.148C517.64 447.225 518.156 447.428 518.605 447.741C519.053 448.055 519.421 448.47 519.679 448.953C519.937 449.436 520.077 449.972 520.088 450.519V481.68C520.097 482.238 519.972 482.79 519.723 483.289C519.474 483.789 519.109 484.221 518.657 484.549C518.206 484.877 517.682 485.092 517.13 485.175C516.578 485.258 516.015 485.207 515.487 485.026Z" fill="#211E21"/>
<path d="M486.913 459.062H475.395V465.239H486.913V459.062Z" fill="#FFF1ED"/>
<path d="M513.812 455.04V477.079" stroke="#9344FE" stroke-width="4" stroke-miterlimit="10" stroke-linecap="round"/>
<path d="M400.797 357.618L402.405 373.705L394.362 378.917C393.407 379.538 392.257 379.785 391.131 379.61C390.006 379.435 388.985 378.85 388.264 377.968L357.875 340.968C361.929 337.075 364.069 334.726 364.069 334.726L400.797 357.618Z" fill="#232644"/>
<path d="M376.282 397.529C374.673 403.964 364.023 444.294 335.42 461.265L309.68 464.177C354.709 434.738 372.518 412.345 376.282 397.529Z" fill="#232644"/>
<path d="M395.715 491.042C389.119 493.278 382.475 495.418 375.831 497.477C346.439 506.759 316.307 515.173 285.741 519.114C278.202 520.15 270.603 520.687 262.993 520.723C255.761 520.807 248.55 519.931 241.549 518.116C244.772 513.711 246.801 508.546 247.437 503.123C247.585 501.869 247.66 500.607 247.662 499.343C247.652 492.433 245.395 485.714 241.23 480.2C237.066 474.687 231.22 470.677 224.576 468.778C223.793 468.539 222.999 468.34 222.195 468.183L223.241 466.285C226.134 461.328 229.455 456.634 233.167 452.257C246.487 435.977 262.125 421.595 277.166 406.924C291.645 392.719 305.287 382.086 317.514 374.975C347.662 357.505 369.477 361.607 376.507 387.137C377.283 390.264 377.283 393.534 376.507 396.661C376.507 396.661 376.507 396.966 376.298 397.529C372.694 411.75 356.124 433.017 314.843 460.702C314.688 460.535 314.494 460.409 314.277 460.336C314.061 460.263 313.83 460.245 313.605 460.284C297.088 461.957 280.604 464.032 264.152 466.51C261.931 466.848 262.881 470.194 265.069 469.856C280.191 467.582 295.356 465.657 310.564 464.081L335.435 461.265L393.35 454.702L395.715 491.042Z" fill="#444A72"/>
<path d="M314.825 460.702C313.12 461.861 311.383 463.003 309.597 464.177L310.546 464.081C295.327 465.668 280.162 467.593 265.051 469.856C262.863 470.194 261.914 466.848 264.134 466.51C280.554 464.043 297.038 461.968 313.587 460.284C313.812 460.245 314.043 460.263 314.259 460.336C314.476 460.409 314.67 460.535 314.825 460.702Z" fill="#2E3257"/>
<path d="M395.715 491.042L398.594 490.061C398.498 493.648 398.385 497.204 398.224 500.775C398.224 500.775 334.196 544.338 285.692 540.847C277.653 534.703 270.062 527.994 262.977 520.771C270.586 520.735 278.185 520.198 285.724 519.162C316.291 515.189 346.439 506.807 375.814 497.525C382.475 495.434 389.119 493.294 395.715 491.042Z" fill="#232644"/>
<path d="M398.224 500.791C397.789 510.893 397.13 520.98 396.502 531.018C395.891 540.397 396.261 549.92 395.231 559.251C394.041 570.174 389.198 580.823 376.489 579.729C343.475 574.509 312.275 561.171 285.691 540.912C334.195 544.354 398.224 500.791 398.224 500.791Z" fill="#2E3257"/>
<path d="M384.855 415.643L404.16 392.027L402.406 373.769L394.362 378.981C393.408 379.603 392.257 379.85 391.132 379.675C390.006 379.499 388.985 378.914 388.265 378.032L357.876 341.032C345.119 353.079 331.218 363.855 316.37 373.206C292.046 388.633 259.324 404.077 220.392 409.787C200.347 413.906 211.399 439.838 211.399 439.838C214.644 448.969 218.608 457.829 223.255 466.333C226.148 461.376 229.469 456.682 233.181 452.305C246.502 436.025 262.139 421.643 277.181 406.972C291.66 392.767 305.302 382.134 317.528 375.024C347.676 357.553 369.491 361.655 376.521 387.185C377.298 390.312 377.298 393.582 376.521 396.709C376.521 396.709 376.521 397.014 376.312 397.577C374.703 404.012 364.053 444.342 335.45 461.314L393.365 454.75L397.934 454.235C397.776 450.415 397.128 446.63 396.003 442.975C392.958 433.605 389.232 424.47 384.855 415.643Z" fill="#2E3257"/>
<path d="M418.062 451.919L397.936 454.187L393.367 454.702L395.716 491.058L398.596 490.077C406.43 487.407 414.217 484.607 421.923 481.615L418.062 451.919Z" fill="#2E3257"/>
<path d="M224.56 468.778C223.772 468.553 222.952 468.344 222.179 468.183C219.301 473.463 217.651 479.325 217.353 485.331C216.742 504.861 227.392 514.191 241.581 518.181C244.805 513.775 246.833 508.61 247.469 503.188C247.618 501.933 247.693 500.671 247.694 499.407C247.696 492.48 245.438 485.742 241.263 480.214C237.088 474.687 231.224 470.672 224.56 468.778Z" fill="#2E3257"/>
<path d="M378.531 323.16C385.658 328.275 405.349 343.332 406.475 354.77C406.515 355.268 406.445 355.768 406.27 356.235C406.095 356.702 405.819 357.125 405.462 357.473L395.777 367.173C395.452 367.503 395.066 367.764 394.639 367.942C394.212 368.121 393.754 368.213 393.292 368.213C392.829 368.213 392.371 368.121 391.945 367.942C391.518 367.764 391.131 367.503 390.806 367.173L364.053 339.504C363.427 338.856 363.078 337.991 363.078 337.091C363.078 336.191 363.427 335.325 364.053 334.678L373.979 323.739C374.537 323.105 375.308 322.697 376.146 322.591C376.984 322.484 377.832 322.686 378.531 323.16Z" fill="#444A72"/>
<circle cx="118.5" cy="535.5" r="4.5" fill="#C49CFF" fill-opacity="0.39"/>
<circle cx="598.5" cy="254.5" r="7.5" fill="#AF89FF" fill-opacity="0.51"/>
<circle cx="598.5" cy="857.5" r="7.5" fill="#AF89FF" fill-opacity="0.51"/>
</g>
<defs>
<filter id="filter0_f_664_2" x="-135" y="-76" width="1215" height="1215" filterUnits="userSpaceOnUse" color-interpolation-filters="sRGB">
<feFlood flood-opacity="0" result="BackgroundImageFix"/>
<feBlend mode="normal" in="SourceGraphic" in2="BackgroundImageFix" result="shape"/>
<feGaussianBlur stdDeviation="150" result="effect1_foregroundBlur_664_2"/>
</filter>
<clipPath id="clip0_664_2">
<rect width="725" height="751" fill="white" transform="translate(97 224)"/>
</clipPath>
</defs>
</svg>
