<svg width="800" height="522" viewBox="0 0 800 522" fill="none" xmlns="http://www.w3.org/2000/svg">
<path d="M179.261 40.283C181.955 34.36 183.302 29.6696 183.302 26.2118C183.302 11.8842 171.976 0.26947 158.005 0.26947C144.034 0.26947 132.708 11.8842 132.708 26.2118C132.708 26.0971 132.71 25.9838 132.713 25.8719C132.425 36.7165 128.701 47.1897 122.078 55.7814C114.346 65.8111 110.479 75.0415 110.479 83.4724C110.479 87.0543 111.226 91.0635 112.719 95.5002V95.5002C117.481 109.654 115.829 125.181 108.194 138.016C101.898 148.599 98.7496 158.083 98.7496 166.469C98.7496 171.684 100.022 177.707 102.567 184.537V184.537C107.894 198.831 106.57 214.756 98.9574 227.975C91.4226 241.059 87.6552 252.567 87.6552 262.5C87.6552 302.344 119.152 334.645 158.005 334.645C196.859 334.645 228.355 302.344 228.355 262.5C228.355 252.567 224.588 241.059 217.053 227.975H217.053C209.44 214.756 208.117 198.831 213.444 184.537C215.989 177.707 217.261 171.684 217.261 166.469C217.261 157.992 214.048 148.414 207.622 137.734V137.734C199.927 124.944 198.195 109.433 202.879 95.2609C204.316 90.9138 205.035 86.9843 205.035 83.4724C205.035 70.9157 196.443 56.5192 179.261 40.283Z" fill="#BFEAFF"/>
<path d="M157.802 218.358V181.98L183.345 148.617C183.594 148.291 183.533 147.825 183.207 147.576C182.882 147.327 182.416 147.389 182.167 147.714L156.47 181.277C156.371 181.407 156.317 181.565 156.317 181.729V216.419L132.29 185.037C132.041 184.712 131.575 184.65 131.25 184.899C130.924 185.148 130.863 185.614 131.112 185.939L156.317 218.861V222.286C156.317 222.547 156.452 222.776 156.655 222.909V255.156L156.47 255.398C156.371 255.528 156.317 255.686 156.317 255.849V282.937L132.29 251.555C132.041 251.23 131.575 251.168 131.25 251.417C130.924 251.666 130.863 252.132 131.112 252.458L156.317 285.379V296.407C156.317 296.668 156.452 296.897 156.655 297.03V316.477C156.583 316.594 156.543 316.73 156.543 316.87V376.58C156.543 376.99 156.875 377.323 157.285 377.323C157.695 377.323 158.027 376.99 158.027 376.58V326.52C158.099 326.406 158.14 326.271 158.14 326.127V317.056L184.84 289.675C185.126 289.382 185.12 288.912 184.827 288.625C184.533 288.339 184.063 288.345 183.777 288.639L158.14 314.93V285.57C158.14 285.406 158.086 285.248 157.987 285.118L157.802 284.876V260.232C158.005 260.099 158.14 259.87 158.14 259.609V255.659L183.345 222.737C183.594 222.412 183.533 221.946 183.207 221.697C182.882 221.448 182.416 221.509 182.167 221.835L158.14 253.217V219.051C158.14 218.888 158.086 218.73 157.987 218.6L157.802 218.358Z" fill="#0070AD"/>
<path d="M678.711 40.3289C681.405 34.4059 682.752 29.7155 682.752 26.2577C682.752 11.9301 671.426 0.315361 657.455 0.315361C643.483 0.315361 632.158 11.9301 632.158 26.2577C632.158 26.143 632.159 26.0297 632.162 25.9178C631.874 36.7624 628.15 47.2355 621.527 55.8272C613.795 65.857 609.929 75.0874 609.929 83.5183C609.929 87.1002 610.675 91.1094 612.168 95.546V95.546C616.931 109.7 615.278 125.227 607.643 138.062C601.347 148.645 598.199 158.129 598.199 166.515C598.199 171.73 599.471 177.753 602.016 184.583V184.583C607.343 198.877 606.019 214.802 598.407 228.021C590.872 241.105 587.104 252.613 587.104 262.546C587.104 302.39 618.601 334.691 657.455 334.691C696.308 334.691 727.805 302.39 727.805 262.546C727.805 252.613 724.037 241.105 716.502 228.021H716.502C708.89 214.802 707.566 198.877 712.893 184.583C715.438 177.753 716.71 171.73 716.71 166.515C716.71 158.038 713.497 148.46 707.072 137.78V137.78C699.376 124.99 697.644 109.479 702.329 95.3068C703.765 90.9597 704.484 87.0302 704.484 83.5183C704.484 70.9616 695.893 56.5651 678.711 40.3289Z" fill="#8FD8FC"/>
<path d="M657.251 218.404V182.026L682.795 148.662C683.044 148.337 682.982 147.871 682.656 147.622C682.331 147.373 681.865 147.435 681.616 147.76L655.919 181.323C655.82 181.453 655.766 181.611 655.766 181.774V216.465L631.74 185.083C631.49 184.757 631.025 184.696 630.699 184.945C630.374 185.194 630.312 185.66 630.561 185.985L655.766 218.907V222.332C655.766 222.593 655.901 222.822 656.105 222.955V255.202L655.919 255.444C655.82 255.573 655.766 255.732 655.766 255.895V282.983L631.74 251.601C631.49 251.276 631.025 251.214 630.699 251.463C630.374 251.712 630.312 252.178 630.561 252.504L655.766 285.425V296.453C655.766 296.714 655.901 296.943 656.105 297.075V316.523C656.032 316.64 655.992 316.776 655.992 316.916V376.626C655.992 377.036 656.325 377.368 656.734 377.368C657.144 377.368 657.477 377.036 657.477 376.626V326.566C657.548 326.452 657.589 326.317 657.589 326.173V317.102L684.289 289.721C684.575 289.427 684.569 288.958 684.276 288.671C683.982 288.385 683.513 288.391 683.226 288.685L657.589 314.976V285.615C657.589 285.452 657.535 285.294 657.436 285.164L657.251 284.922V260.278C657.454 260.145 657.589 259.916 657.589 259.655V255.705L682.795 222.783C683.044 222.458 682.982 221.992 682.656 221.743C682.331 221.493 681.865 221.555 681.616 221.881L657.589 253.263V219.097C657.589 218.934 657.535 218.776 657.436 218.646L657.251 218.404Z" fill="#0070AD"/>
<path d="M562.942 349.274C526.579 349.274 497.102 319.045 497.102 281.755C497.102 244.465 526.579 46.9898 562.942 46.9898C599.304 46.9898 628.781 244.465 628.781 281.755C628.781 319.045 599.304 349.274 562.942 349.274Z" fill="#BFEAFF"/>
<path d="M562.735 260.722V231.947L588.279 198.583C588.528 198.258 588.466 197.792 588.141 197.543C587.815 197.294 587.349 197.355 587.1 197.681L561.404 231.244C561.305 231.373 561.251 231.532 561.251 231.695V258.783L537.224 227.401C536.975 227.076 536.509 227.014 536.184 227.263C535.858 227.512 535.796 227.978 536.045 228.304L561.251 261.225V272.253C561.251 272.514 561.385 272.743 561.589 272.875V293.337L537.224 261.513C536.975 261.187 536.509 261.125 536.184 261.375C535.858 261.624 535.796 262.09 536.045 262.415L561.589 295.779V326.434C561.516 326.551 561.477 326.687 561.477 326.827V386.538C561.477 386.948 561.809 387.28 562.219 387.28C562.629 387.28 562.961 386.948 562.961 386.538V336.478C563.032 336.364 563.073 336.229 563.073 336.085V327.014L589.774 299.633C590.06 299.339 590.054 298.869 589.76 298.583C589.467 298.297 588.997 298.303 588.711 298.596L563.073 324.888V295.527V261.416C563.073 261.252 563.02 261.094 562.921 260.964L562.735 260.722Z" fill="#0070AD"/>
<path d="M551.747 406.609C557.288 391.702 565.401 384.248 576.087 384.248C592.116 384.248 584.389 360.778 601.012 360.778C611.833 360.778 611.833 373.841 627.331 365.728C643.31 357.363 627.331 333.667 657.607 330.897C687.884 328.127 680.335 365.728 692.802 365.728C701.781 365.728 702.359 351.452 710.018 350.293C717.677 349.133 718.725 358.604 724.464 357.417C731.456 355.97 728.818 343.958 745.865 343.958C762.913 343.958 757.116 367.162 761.271 369.71C765.427 372.258 770.77 363.749 776.508 373.841C782.247 383.934 772.306 388.683 780.664 388.683C790.848 388.683 796.468 394.658 797.523 406.609C796.773 410.268 789.768 412.315 776.508 412.75C756.619 413.403 755.724 407.792 731.044 408.792C706.365 409.793 698.216 423.04 662.773 423.04C627.331 423.04 637.59 416.751 610.531 414.333C583.472 411.916 562.737 416.915 547.207 415.916C538.7 415.369 540.214 412.267 551.747 406.609Z" fill="#BFEAFF"/>
<path d="M483.302 429.039C486.399 423.066 493.466 420.079 504.503 420.079C521.058 420.079 518.104 409.242 535.272 409.242C552.44 409.242 542.125 368.288 583.867 366.121C625.61 363.954 616.16 389.959 629.036 389.959C641.912 389.959 648.835 377.217 664.599 378.117C680.362 379.016 686.72 407.625 693.056 409.242C699.392 410.86 694.691 403.581 712.064 403.581C723.646 403.581 731.821 409.08 736.59 420.079C743.234 426.052 736.337 429.039 715.899 429.039C708.375 429.039 687.65 426.128 664.599 425.319C651.59 424.862 627.84 433.568 597.97 433.568C583.867 433.568 571.782 429.679 544.217 429.039C525.84 428.612 505.535 428.612 483.302 429.039Z" fill="#8FD8FC"/>
<path d="M21.0478 406.609C26.5887 391.702 34.7021 384.248 45.388 384.248C61.4169 384.248 53.6899 360.778 70.3124 360.778C81.1335 360.778 81.1335 373.841 96.6315 365.728C112.611 357.363 96.6315 333.667 126.908 330.897C157.185 328.127 149.636 365.728 162.103 365.728C171.082 365.728 171.66 351.452 179.319 350.293C186.978 349.133 188.026 358.604 193.765 357.417C200.757 355.97 198.118 343.958 215.166 343.958C232.214 343.958 226.416 367.162 230.572 369.71C234.728 372.258 240.071 363.749 245.809 373.841C251.548 383.934 241.607 388.683 249.965 388.683C260.149 388.683 265.769 394.658 266.824 406.609C266.074 410.268 259.069 412.315 245.809 412.75C225.92 413.403 225.024 407.792 200.345 408.792C175.666 409.793 167.517 423.04 132.074 423.04C96.6315 423.04 106.891 416.751 79.8317 414.333C52.7728 411.916 32.038 416.915 16.5077 415.916C8.00107 415.369 9.51447 412.267 21.0478 406.609Z" fill="#BFEAFF"/>
<path d="M365.525 522C467.973 522 551.023 517.32 551.023 511.546C551.023 505.772 467.973 501.092 365.525 501.092C263.078 501.092 180.027 505.772 180.027 511.546C180.027 517.32 263.078 522 365.525 522Z" fill="#BFEAFF"/>
<path d="M9.71875 452.452H790.282" stroke="#0070AD" stroke-width="2" stroke-linecap="round" stroke-linejoin="round"/>
<path d="M1 467.296H799" stroke="#0070AD" stroke-width="2" stroke-linecap="round" stroke-linejoin="round"/>
<path d="M367.46 317.65C375.456 311.133 387.211 301.699 390.45 318.123C393.689 334.547 361.462 397.534 362.558 419.08C361.936 426.404 348.95 428.3 347.827 418.434C349.774 407.233 360.218 372.191 357.72 356.263C354.022 332.689 362.941 321.332 367.46 317.65Z" fill="#FFC0BF"/>
<path d="M394.446 316.14C394.446 330.669 384.684 371.287 374.406 391.844C372.18 396.297 368.629 392.245 368.469 393.328C368.126 395.65 368.469 394.441 367.355 400.379C366.242 406.317 352.893 408.389 351.769 398.524C352.275 395.615 353.163 392.677 353.996 389.246C354.295 388.014 349.914 387.762 349.914 384.051C349.914 374.825 355.612 365.783 353.996 355.476C351.649 340.511 358.098 331.256 361.566 324.976C337.632 324.397 301.947 320.777 286.658 308.551C269.027 294.452 280.836 277.662 303.409 277.407C325.982 277.151 361.681 283.105 378.859 296.842C387.601 303.833 394.446 309.664 394.446 316.14Z" fill="#1D5EF8"/>
<path d="M307.464 310.559C307.062 310.478 306.801 310.087 306.882 309.685C306.962 309.283 307.353 309.023 307.755 309.103C336.134 314.779 352.833 317.624 357.708 317.624C362.264 317.624 365.912 318.664 367.878 320.996C370.342 323.919 369.878 328.471 366.137 334.705C363.713 338.747 362.041 344.111 360.94 350.688C360.426 353.754 360.05 356.987 359.751 360.619C359.635 362.019 359.535 363.425 359.426 365.111C359.39 365.68 359.224 368.351 359.179 369.029C358.95 372.51 358.76 374.141 358.397 375.049C356.844 378.93 355.554 386.8 356.195 389.042C356.308 389.436 356.079 389.847 355.685 389.96C355.291 390.072 354.88 389.844 354.768 389.45C354.017 386.821 355.355 378.656 357.019 374.498C357.296 373.805 357.483 372.198 357.698 368.931C357.742 368.257 357.908 365.587 357.945 365.016C358.054 363.322 358.155 361.908 358.271 360.497C358.574 356.827 358.955 353.554 359.476 350.443C360.605 343.699 362.328 338.169 364.865 333.941C368.315 328.19 368.713 324.289 366.743 321.952C365.129 320.038 361.868 319.108 357.708 319.108C352.686 319.108 335.987 316.263 307.464 310.559Z" fill="#5296FC"/>
<path d="M353.393 394.082C352.977 393.749 352.91 393.141 353.243 392.725C353.576 392.309 354.183 392.242 354.599 392.575C359.323 396.354 363.117 397.734 365.959 396.859C366.468 396.702 367.008 396.988 367.165 397.498C367.321 398.007 367.035 398.547 366.526 398.703C362.936 399.808 358.565 398.219 353.393 394.082Z" fill="#C3CBFF"/>
<path d="M352.608 398.495C352.214 398.136 352.186 397.526 352.544 397.132C352.903 396.738 353.513 396.709 353.907 397.068C358.021 400.813 361.293 402.167 363.701 401.324C364.204 401.148 364.754 401.413 364.93 401.916C365.106 402.419 364.841 402.969 364.339 403.145C361.093 404.281 357.191 402.667 352.608 398.495Z" fill="#C3CBFF"/>
<path d="M352.134 428.195C346.187 427.212 344.676 420.334 349.03 412.382C350.13 410.373 353.102 414.942 356.536 414.807C358.648 414.724 361.832 410.319 364.387 410.704C374.12 412.168 384.739 415.514 389.196 417.328C396.725 420.393 397.413 422.557 393.214 425.89C389.014 429.223 358.081 429.179 352.134 428.195Z" fill="#253238"/>
<path d="M368.079 415.408C367.829 415.879 367.244 416.058 366.774 415.807C366.303 415.557 366.125 414.973 366.375 414.503L369.137 409.307C369.387 408.836 369.971 408.658 370.442 408.908C370.912 409.158 371.091 409.742 370.841 410.213L368.079 415.408Z" fill="#6F787C"/>
<path d="M371.934 416.789C371.684 417.26 371.1 417.439 370.629 417.188C370.159 416.938 369.98 416.354 370.23 415.884L372.992 410.688C373.243 410.217 373.827 410.039 374.297 410.289C374.768 410.539 374.946 411.123 374.696 411.594L371.934 416.789Z" fill="#6F787C"/>
<path d="M375.754 418.224C375.504 418.694 374.92 418.873 374.45 418.623C373.979 418.373 373.8 417.788 374.051 417.318L376.813 412.122C377.063 411.652 377.647 411.473 378.118 411.723C378.588 411.973 378.767 412.558 378.517 413.028L375.754 418.224Z" fill="#6F787C"/>
<path d="M347.534 422.965C347.148 422.598 347.133 421.987 347.5 421.601C347.867 421.215 348.478 421.2 348.864 421.567C351.204 423.793 353.395 424.907 355.431 424.964C361.266 425.128 382.738 424.875 386.294 424.411C388.609 424.109 390.454 423.643 391.626 423.035C392.725 422.465 393.049 421.929 392.813 421.249C392.638 420.746 392.905 420.196 393.408 420.021C393.911 419.847 394.461 420.113 394.636 420.617C395.238 422.353 394.373 423.784 392.514 424.748C391.102 425.481 389.063 425.996 386.544 426.324C382.853 426.806 361.312 427.06 355.376 426.893C352.803 426.82 350.191 425.492 347.534 422.965Z" fill="#6F787C"/>
<path fill-rule="evenodd" clip-rule="evenodd" d="M297.231 317.367L299.649 332.216L294.824 333.7L291.199 318.294C282.803 318.809 274.069 316.444 269.561 313.439C262.882 308.985 252.862 313.068 251.007 310.099C233.133 281.501 314.836 291.622 318.175 299.708C321.515 307.794 312.98 309.65 302.589 315.294C300.926 316.198 299.119 316.879 297.231 317.367Z" fill="#EC961F"/>
<path fill-rule="evenodd" clip-rule="evenodd" d="M440.052 283.008H501.598C505.697 283.008 509.02 286.331 509.02 290.43C509.02 291.228 508.891 292.021 508.639 292.778L498.304 323.783C497.327 326.714 494.637 328.733 491.55 328.853L451.183 330.417C449.795 330.471 448.555 329.555 448.199 328.213L437.182 286.739C436.761 285.155 437.705 283.529 439.289 283.108C439.538 283.042 439.794 283.008 440.052 283.008V283.008Z" fill="#EC961F"/>
<path fill-rule="evenodd" clip-rule="evenodd" d="M461.42 343.869C466.245 339.415 473.526 335.662 477.749 338.302C481.971 340.942 483.065 348.37 479.604 351.662C476.143 354.954 467.729 352.033 462.534 352.775C457.338 353.517 456.596 348.322 461.42 343.869Z" fill="#F6BC57"/>
<path fill-rule="evenodd" clip-rule="evenodd" d="M456.837 367.39L454.871 363.395C461.882 359.945 464.726 356.187 464.047 352.02L468.443 351.304C469.496 357.775 465.413 363.171 456.837 367.39Z" fill="#EC961F"/>
<path d="M332.551 413.745V407.807C357.805 407.807 382.542 394.552 401.518 372.082C417.734 352.879 428.164 328.7 430.37 305.2C430.66 302.108 436.605 302.133 436.329 305.233C434.112 330.136 423.154 355.664 406.054 375.913C386.019 399.638 359.692 413.745 332.551 413.745Z" fill="#F95B03"/>
<path d="M494.796 509.099C458.523 509.099 429.117 479.693 429.117 443.42C429.117 407.146 458.523 377.74 494.796 377.74C531.07 377.74 560.476 407.146 560.476 443.42C560.476 479.693 531.07 509.099 494.796 509.099ZM494.796 497.966C524.922 497.966 549.343 473.545 549.343 443.42C549.343 413.295 524.922 388.873 494.796 388.873C464.671 388.873 440.25 413.295 440.25 443.42C440.25 473.545 464.671 497.966 494.796 497.966Z" fill="#253238"/>
<path d="M253.652 509.099C217.378 509.099 187.973 479.693 187.973 443.42C187.973 407.146 217.378 377.74 253.652 377.74C289.926 377.74 319.331 407.146 319.331 443.42C319.331 479.693 289.926 509.099 253.652 509.099ZM253.652 497.966C283.777 497.966 308.198 473.545 308.198 443.42C308.198 413.295 283.777 388.873 253.652 388.873C223.527 388.873 199.106 413.295 199.106 443.42C199.106 473.545 223.527 497.966 253.652 497.966Z" fill="#253238"/>
<path d="M325.761 443.42H315.37C315.37 408.745 287.261 380.636 252.586 380.636C223.534 380.636 198.471 400.534 191.621 428.351L181.531 425.866C189.519 393.433 218.725 370.245 252.586 370.245C292.999 370.245 325.761 403.006 325.761 443.42Z" fill="#F95B03"/>
<path d="M400.078 388.306L395.591 383.819L399.265 380.145L403.935 384.815L444.834 347.794C439.953 333.696 435.012 319.153 430.01 304.165L428.477 304.815L427.027 301.4L436.591 297.34L438.041 300.755L436.905 301.238C447.473 337.138 459.111 370.769 471.819 402.131C484.065 431.213 496.683 441.097 494.456 442.952C492.229 444.808 477.256 431.213 465.51 405.842C459.594 389.731 453.583 372.915 447.475 355.395L353.438 440.355L353.216 440.151C352.919 441.211 352.341 442.155 351.569 442.897V444.437L348.608 444.466C348.2 444.552 347.778 444.597 347.344 444.597C346.953 444.597 346.571 444.56 346.201 444.49L255.83 445.392C254.923 446.167 253.745 446.635 252.458 446.635C249.682 446.635 247.414 444.457 247.27 441.717L193.641 407.113L194.979 402.873L248.917 437.638C249.512 437.083 250.239 436.666 251.044 436.439L294.278 336.839L293.296 337.255L291.846 333.839L301.411 329.779L302.861 333.195L301.439 333.799L349.501 432.793C349.827 432.916 350.14 433.067 350.437 433.242L400.078 388.306ZM341.492 440.218C341.332 439.673 341.246 439.096 341.246 438.499C341.246 437.158 341.679 435.918 342.412 434.912L297.652 343.086L256.37 438.021C257.103 438.858 257.571 439.934 257.644 441.116L341.492 440.218Z" fill="#F95B03"/>
<path d="M494.793 448.986C497.867 448.986 500.36 446.494 500.36 443.42C500.36 440.345 497.867 437.853 494.793 437.853C491.719 437.853 489.227 440.345 489.227 443.42C489.227 446.494 491.719 448.986 494.793 448.986Z" fill="#F95B03"/>
<path d="M259.734 446.668L303.487 447.343C303.51 447.343 303.533 447.344 303.556 447.344C306.034 447.344 308.043 445.335 308.043 442.857C308.043 442.845 308.043 442.833 308.043 442.822C308.024 440.325 305.984 438.316 303.486 438.335L260.691 438.665C262.815 433.689 267.675 430.148 273.413 429.959L352.927 427.344C363.311 427.002 372.007 435.144 372.348 445.528C372.355 445.734 372.358 445.941 372.358 446.147C372.358 456.201 364.208 464.352 354.153 464.352C353.754 464.352 353.356 464.339 352.958 464.313L273.39 459.078C266.407 458.619 260.817 453.374 259.734 446.668Z" fill="#F95B03"/>
<path d="M354.501 457.824C361.118 457.824 366.483 452.46 366.483 445.843C366.483 439.226 361.118 433.861 354.501 433.861C347.884 433.861 342.52 439.226 342.52 445.843C342.52 452.46 347.884 457.824 354.501 457.824Z" stroke="white" stroke-width="2"/>
<path d="M356.774 448.89C356.774 447.455 355.61 446.292 354.176 446.292C352.741 446.292 351.578 447.455 351.578 448.89V475.609C351.578 477.044 352.741 478.207 354.176 478.207C355.61 478.207 356.774 477.044 356.774 475.609V448.89Z" fill="#253238"/>
<path d="M361.969 475.238H345.641V481.918H361.969V475.238Z" fill="#F95B03"/>
<path d="M539.21 385.323L532.886 393.568C522.01 385.227 508.718 380.636 494.714 380.636C460.039 380.636 431.93 408.745 431.93 443.42C431.93 450.362 433.055 457.144 435.234 463.577L425.393 466.911C422.851 459.407 421.539 451.499 421.539 443.42C421.539 403.006 454.301 370.245 494.714 370.245C511.024 370.245 526.535 375.602 539.21 385.323Z" fill="#F95B03"/>
<path d="M423.733 271.166C424.171 271.469 424.279 272.07 423.976 272.508C423.672 272.946 423.071 273.055 422.633 272.752L402.654 258.899C402.216 258.595 402.107 257.994 402.411 257.556C402.714 257.118 403.316 257.009 403.754 257.313L423.733 271.166Z" fill="#DF4C32"/>
<path d="M430.848 267.854C431.008 268.363 430.725 268.904 430.216 269.064C429.708 269.223 429.166 268.94 429.007 268.432L423.192 249.898C423.033 249.389 423.316 248.848 423.824 248.688C424.332 248.529 424.874 248.811 425.033 249.32L430.848 267.854Z" fill="#DF4C32"/>
<path d="M440.104 268.314C439.94 268.821 439.395 269.098 438.888 268.933C438.382 268.768 438.104 268.224 438.269 267.717L443.093 252.873C443.258 252.367 443.802 252.089 444.309 252.254C444.816 252.419 445.093 252.963 444.929 253.47L440.104 268.314Z" fill="#DF4C32"/>
<path d="M447.094 272.557C446.635 272.828 446.044 272.677 445.772 272.218C445.501 271.759 445.653 271.168 446.111 270.896L468.573 257.604C469.032 257.332 469.624 257.484 469.895 257.943C470.166 258.401 470.015 258.993 469.556 259.264L447.094 272.557Z" fill="#DF4C32"/>
<path d="M275.957 393.536C283.1 386.094 293.617 375.297 298.834 391.204C304.051 407.111 279.74 473.556 283.453 494.808C283.729 502.153 271.071 505.618 268.753 495.962C269.321 484.607 275.417 448.554 270.996 433.049C264.453 410.101 271.921 397.742 275.957 393.536Z" fill="#FFC0BF"/>
<path d="M264.95 505.66C259.861 502.431 261.157 495.509 268.272 489.891C270.069 488.471 271.02 493.838 274.234 495.056C276.21 495.805 280.862 492.994 283.064 494.346C291.451 499.498 299.918 506.726 303.312 510.138C309.045 515.9 308.833 518.161 303.665 519.589C298.497 521.016 270.04 508.889 264.95 505.66Z" fill="#253238"/>
<path d="M284.631 500.122C284.217 500.457 283.609 500.394 283.274 499.979C282.938 499.565 283.002 498.958 283.416 498.622L287.989 494.919C288.403 494.584 289.01 494.648 289.346 495.062C289.681 495.476 289.617 496.083 289.203 496.419L284.631 500.122Z" fill="#6F787C"/>
<path d="M287.631 502.898C287.217 503.233 286.609 503.169 286.274 502.755C285.938 502.341 286.002 501.733 286.416 501.398L290.989 497.695C291.403 497.359 292.01 497.423 292.346 497.837C292.681 498.251 292.617 498.859 292.203 499.194L287.631 502.898Z" fill="#6F787C"/>
<path d="M290.592 505.711C290.178 506.046 289.57 505.982 289.235 505.568C288.899 505.154 288.963 504.547 289.377 504.211L293.95 500.508C294.364 500.173 294.971 500.236 295.307 500.651C295.642 501.065 295.578 501.672 295.164 502.008L290.592 505.711Z" fill="#6F787C"/>
<path d="M262.759 499.049C262.548 498.56 262.772 497.992 263.261 497.78C263.75 497.568 264.318 497.793 264.53 498.282C265.814 501.245 267.395 503.126 269.247 503.975C274.554 506.406 294.418 514.562 297.873 515.525C300.122 516.152 302.003 516.443 303.319 516.342C304.553 516.246 305.06 515.88 305.109 515.161C305.145 514.63 305.605 514.228 306.137 514.264C306.668 514.3 307.07 514.76 307.034 515.292C306.91 517.125 305.555 518.104 303.467 518.266C301.881 518.388 299.802 518.066 297.355 517.384C293.77 516.385 273.842 508.202 268.444 505.729C266.103 504.657 264.217 502.414 262.759 499.049Z" fill="#6F787C"/>
<path d="M292.312 306.879C299.903 328.14 302.195 371.555 305.164 385.657C308.132 399.759 296.999 458.313 295.144 461.281C293.288 464.25 285.973 466.335 285.866 468.412C285.715 471.361 285.451 473.459 285.866 475.834C286.142 483.179 271.792 482.521 269.474 472.865C269.658 469.183 270.347 465.333 271.044 461.281C271.312 459.724 269.474 461.281 266.94 456.908C264.407 452.535 267.907 440.028 266.94 428.704C265.04 406.439 267.089 396.591 271.044 390.852C267.175 386.548 253.581 342.238 249.32 315.519C246.683 298.984 234.655 291.398 249.32 266.107C254.166 257.75 296.325 251.824 303.709 261.617C311.093 271.409 321.103 283.284 319.999 283.284C319.6 283.284 309.883 290.596 299.645 296.961C296.374 298.995 293.023 299.983 289.94 301.839C290.952 303.686 291.531 304.69 292.312 306.879Z" fill="#1D5EF8"/>
<path d="M291.08 302.722C290.593 302.939 290.022 302.719 289.806 302.232C289.59 301.745 289.809 301.175 290.296 300.959C296.833 298.053 301.041 295.288 302.896 292.738C303.209 292.307 303.813 292.211 304.244 292.525C304.675 292.838 304.77 293.442 304.457 293.873C302.353 296.765 297.902 299.69 291.08 302.722Z" fill="#5296FC"/>
<path d="M254.689 286.672C254.663 286.263 254.974 285.911 255.383 285.885C255.792 285.859 256.145 286.17 256.17 286.579C258.392 321.881 262.34 346.433 267.991 360.192C277.068 382.292 281.204 414.802 276.559 433.022C275.987 435.268 272.002 450.003 271.512 452.51C270.753 456.395 271.043 458.109 272.593 459.349C272.913 459.605 272.965 460.072 272.709 460.392C272.453 460.713 271.986 460.764 271.666 460.508C269.582 458.841 269.202 456.595 270.056 452.225C270.557 449.657 274.562 434.848 275.121 432.655C279.678 414.777 275.583 382.583 266.618 360.756C260.889 346.807 256.92 322.126 254.689 286.672Z" fill="#5296FC"/>
<path d="M270.437 467.008C270.01 466.688 269.924 466.084 270.244 465.657C270.564 465.231 271.168 465.145 271.595 465.464C276.803 469.37 281.069 470.639 284.414 469.412C284.915 469.229 285.469 469.486 285.652 469.986C285.836 470.486 285.579 471.041 285.079 471.224C281.001 472.719 276.114 471.266 270.437 467.008Z" fill="#C3CBFF"/>
<path d="M270.437 472.203C270.01 471.884 269.924 471.279 270.244 470.853C270.564 470.426 271.168 470.34 271.595 470.66C276.803 474.566 281.069 475.834 284.414 474.608C284.915 474.424 285.469 474.681 285.652 475.181C285.836 475.682 285.579 476.236 285.079 476.42C281.001 477.914 276.114 476.462 270.437 472.203Z" fill="#C3CBFF"/>
<path d="M287.931 297.382C287.73 296.888 287.966 296.325 288.459 296.123C288.952 295.921 289.516 296.158 289.718 296.651C291.956 302.122 293.698 306.977 294.946 311.217C295.096 311.728 294.803 312.264 294.292 312.415C293.781 312.565 293.245 312.273 293.094 311.761C291.867 307.59 290.146 302.796 287.931 297.382Z" fill="#5296FC"/>
<path d="M398.425 178.776C380.835 202.2 369.386 215.739 364.076 219.391C362.268 220.635 360.613 221.482 359.134 221.943C357.841 222.81 355.936 223.516 353.365 224.038C342.845 226.173 303.638 204.696 298.895 200.133C294.153 195.57 291.929 188.484 302.446 186.349C312.026 184.404 341.224 200.144 352.446 207.986C358.844 196.582 387.283 174.943 395.589 168.66C396.237 166.153 397.672 163.861 399.653 162.525C401.085 161.559 401.738 164.511 403.14 163.708C404.973 162.657 409.38 161.235 411.319 164.11C414.268 168.481 413.766 176.786 409.584 179.607C406.122 181.942 401.565 181.483 398.425 178.776Z" fill="#FFC0BF"/>
<path d="M298.895 200.133C294.153 195.57 291.929 188.484 302.446 186.349C308.718 185.076 323.399 191.383 335.939 198.09C344.423 202.629 336.065 224.297 325.57 219.455C312.519 213.434 301.524 202.662 298.895 200.133Z" fill="#5296FB"/>
<path d="M348.578 212.775C348.578 211.463 349.436 210.089 351.151 208.655" stroke="#FF7371" stroke-width="2" stroke-linecap="round" stroke-linejoin="round"/>
<path d="M264.681 175.831C275.318 166.548 305.16 180.99 313.662 193.144C316.733 197.534 312.118 201.54 311.399 210.443C310.833 217.454 315.615 228.74 308.424 237.187C301.408 245.428 300.825 263.405 304.39 274.692C304.562 275.237 262.667 281.875 250.684 265.83C246.339 260.013 265.753 256.622 258.457 231.802C251.782 209.089 250.749 187.99 264.681 175.831Z" fill="#FFC0BF"/>
<path d="M263.962 174.923C266.75 172.49 271.51 172.338 276.208 172.697C281.591 173.108 279.26 198.899 296.998 201.08C316.394 203.464 296.55 179.335 300.632 181.561C304.714 183.788 312.895 190.019 314.802 192.365C317.476 195.654 312.163 204.547 313.153 207.123C316.61 216.128 320.719 222.568 308.027 237.477C302.261 244.25 303.985 258.421 311.091 265.1C312.294 266.231 312.294 272.894 302.185 278.089C292.076 283.284 262.271 282.165 250.288 266.12C245.943 260.303 262.122 250.615 254.826 225.794C248.151 203.081 250.029 187.082 263.962 174.923Z" fill="#5296FB"/>
<path d="M300.223 212.56C299.698 212.472 299.344 211.974 299.432 211.448C299.521 210.923 300.018 210.569 300.544 210.657C306.78 211.707 310.071 210.275 311.287 206.982C312.216 204.462 311.928 201.027 310.854 197.164C310.711 196.651 311.012 196.119 311.525 195.976C312.039 195.834 312.571 196.134 312.713 196.648C313.887 200.871 314.204 204.648 313.097 207.65C311.524 211.912 307.298 213.751 300.223 212.56Z" fill="#1D5EF8"/>
<path d="M288.859 155.721L305.86 160.276C300.827 172.98 298.319 182.338 298.338 188.35C298.366 197.367 283.558 191.441 281.337 183.794C279.856 178.697 282.364 169.339 288.859 155.721Z" fill="#FFC0BF"/>
<path d="M308.632 180.615C302.508 178.975 281.694 148.392 285.121 135.604C288.547 122.816 301.447 115.161 313.932 118.507C326.418 121.852 333.762 134.931 330.336 147.719C326.909 160.507 314.755 182.256 308.632 180.615Z" fill="#FFC0BF"/>
<path d="M290.486 146.264C290.544 145.859 290.92 145.577 291.326 145.635C291.732 145.694 292.013 146.07 291.955 146.476C291.378 150.491 292.356 152.276 294.909 152.329C295.445 152.34 295.792 152.897 295.567 153.383C294.734 155.18 294.268 156.597 294.162 157.613C294.12 158.02 293.755 158.317 293.347 158.274C292.939 158.232 292.643 157.867 292.686 157.459C292.79 156.453 293.163 155.205 293.801 153.702C290.979 153.145 289.87 150.548 290.486 146.264Z" fill="#FF7371"/>
<path fill-rule="evenodd" clip-rule="evenodd" d="M310.743 147.099L316.86 145.31C317.391 145.154 317.947 145.459 318.103 145.99C318.119 146.048 318.131 146.107 318.137 146.166C318.207 146.826 317.728 147.416 317.069 147.485L310.86 148.138C310.596 148.166 310.36 147.974 310.332 147.711C310.303 147.434 310.476 147.177 310.743 147.099Z" fill="#253238"/>
<path fill-rule="evenodd" clip-rule="evenodd" d="M331.485 151.438L326.766 148.843C326.292 148.582 325.695 148.755 325.434 149.229C325.402 149.289 325.376 149.351 325.356 149.415C325.161 150.053 325.52 150.727 326.157 150.922L331.164 152.453C331.419 152.531 331.689 152.388 331.767 152.133C331.849 151.864 331.732 151.574 331.485 151.438Z" fill="#253238"/>
<path d="M315.999 152.38C316.187 151.675 315.769 150.951 315.065 150.762C314.36 150.574 313.636 150.992 313.447 151.696L312.988 153.412C312.799 154.116 313.217 154.84 313.921 155.029C314.626 155.218 315.35 154.8 315.539 154.095L315.999 152.38Z" fill="#1C2229"/>
<path d="M325.319 155.415C325.508 154.711 325.09 153.987 324.385 153.798C323.681 153.609 322.956 154.027 322.768 154.732L322.308 156.447C322.119 157.152 322.537 157.876 323.242 158.065C323.946 158.253 324.67 157.835 324.859 157.131L325.319 155.415Z" fill="#1C2229"/>
<path d="M317.062 162.218C315.559 160.435 316.11 156.923 318.504 151.563C318.671 151.189 319.11 151.021 319.484 151.188C319.858 151.355 320.026 151.794 319.859 152.169C317.693 157.02 317.21 160.091 318.197 161.261C319.352 162.632 320.451 163.443 321.475 163.717C322.054 163.872 322.22 164.614 321.762 165.001C319.774 166.678 317.955 167.623 316.283 167.811C315.876 167.857 315.508 167.563 315.463 167.156C315.417 166.749 315.71 166.382 316.118 166.336C317.205 166.214 318.447 165.651 319.833 164.634C318.904 164.118 317.983 163.31 317.062 162.218Z" fill="#FF7371"/>
<path d="M301.85 173.678C302.132 173.976 302.119 174.446 301.821 174.727C301.523 175.009 301.054 174.996 300.772 174.698C298.307 172.093 296.65 169.887 295.801 168.06C295.628 167.689 295.789 167.247 296.161 167.074C296.533 166.902 296.974 167.063 297.147 167.435C297.917 169.09 299.485 171.179 301.85 173.678Z" fill="#FF7371"/>
<path d="M307.186 168.068C306.777 168.09 306.427 167.777 306.404 167.368C306.381 166.958 306.695 166.608 307.104 166.585C311.993 166.314 314.307 168.166 313.435 171.947C313.343 172.346 312.944 172.595 312.545 172.503C312.145 172.411 311.896 172.012 311.988 171.613C312.6 168.961 311.204 167.844 307.186 168.068Z" fill="#FF7371"/>
<path d="M258.319 105.612C268.314 98.536 284.082 113.69 294.454 118.084C299.644 114.112 307.502 113.647 319.885 121.274C331.387 128.357 343.45 124.158 339.377 139.359C335.304 154.559 326.803 143.421 326.385 139.879C324.013 143.94 316.472 146.995 304.585 147.757C303.929 147.799 302.319 153.152 300.789 152.742C299.258 152.332 299.73 149.029 299.962 147.662C300.194 146.295 298.146 141.173 295.237 141.823C292.329 142.472 290.265 145.152 290.387 147.757C291.144 154.976 289.413 160.556 287.868 160.141C282.765 158.774 283.311 142.364 285.063 135.827C285.717 133.383 286.491 130.787 287.488 128.292C280.568 130.067 276.983 132.657 276.735 136.062C276.327 141.669 267.044 165.079 253.617 171.312C239.564 177.836 214.02 164.989 226.573 164.065C239.126 163.141 243.883 139.264 252.386 114.674C253.444 111.616 254.712 109.309 256.146 107.623C254.156 108.697 251.452 112.906 248.206 120.588C247.998 121.079 247.432 121.309 246.942 121.102C246.451 120.894 246.221 120.328 246.428 119.837C250.991 109.039 254.842 104.074 258.319 105.612Z" fill="#253238"/>
<path d="M356.275 181.902C335.596 202.65 322.374 214.463 316.607 217.341C315.874 217.707 315.17 218.021 314.496 218.284C313.415 219.778 311.043 220.922 307.205 221.631C296.65 223.583 257.823 201.424 253.161 196.779C248.499 192.135 251.573 179.05 262.125 177.099C271.601 175.347 295.662 195.915 306.232 205.043C313.347 194.729 345.593 176.657 354.874 171.489C355.865 169.097 357.605 167.027 359.752 165.979C361.305 165.222 361.54 168.237 363.041 167.636C365.003 166.851 369.564 166.056 371.084 169.173C373.396 173.912 371.744 182.066 367.209 184.277C363.456 186.108 359.007 185.019 356.275 181.902Z" fill="#FFC0BF"/>
<path d="M252.834 197.931C245.833 187.101 254.69 174.552 264.71 174.552C274.729 174.552 294.026 194.425 294.026 196.076C294.026 197.727 289.997 213.882 279.925 215.744C269.37 217.696 259.836 208.762 252.834 197.931Z" fill="#5296FB"/>
<path d="M295.323 198.241C294.938 198.099 294.741 197.673 294.883 197.288C295.024 196.903 295.451 196.706 295.835 196.847C298.422 197.798 302.048 200.32 306.761 204.422C307.335 204.922 306.875 205.859 306.128 205.71C305.4 205.564 304.819 206.228 304.401 208.112C304.312 208.512 303.915 208.764 303.515 208.675C303.115 208.586 302.863 208.19 302.952 207.79C303.302 206.215 303.87 205.111 304.659 204.573C300.622 201.153 297.497 199.04 295.323 198.241Z" fill="#FF7371"/>
<path d="M285.753 210.095C286.004 209.625 286.588 209.447 287.059 209.698C287.529 209.948 287.707 210.533 287.456 211.003C285.327 214.995 282.964 217.08 280.296 217.08C275.994 217.08 265.252 211.707 262.423 207.464C261.99 206.815 261.603 206.381 261.287 206.164C261.101 206.036 261.028 206.022 260.983 206.04C260.637 206.177 260.136 207.136 259.711 208.917C259.587 209.436 259.066 209.756 258.548 209.632C258.03 209.508 257.71 208.988 257.834 208.469C258.995 203.603 261.505 202.609 264.028 206.393C266.488 210.082 276.62 215.15 280.296 215.15C282.081 215.15 283.924 213.525 285.753 210.095Z" fill="#1D5EF8"/>
<path d="M421.71 170.373L426.215 173.702C427.204 174.433 427.413 175.827 426.683 176.816C425.952 177.805 424.557 178.014 423.568 177.283L416.216 171.849C408.167 173.893 399.891 175.493 395.946 175.493C392.604 175.493 388.736 173.608 383.467 169.973C382.468 169.284 381.428 168.539 380.202 167.639C371.619 161.34 370.592 160.649 369.598 160.649C368.04 160.649 366.525 162.877 365.473 168.136C365.232 169.342 364.059 170.124 362.853 169.883C361.647 169.642 360.865 168.469 361.106 167.263C362.528 160.153 365.219 156.196 369.598 156.196C371.235 156.196 373.055 157.089 375.74 158.894C376.702 159.54 377.751 160.29 379.158 161.326C379.583 161.64 382.096 163.505 382.837 164.049C384.03 164.925 385.037 165.646 385.996 166.308C390.531 169.436 393.821 171.04 395.946 171.04C399.419 171.04 407.207 169.503 414.778 167.614C415.362 167.025 416.219 166.819 416.993 167.05C423.293 165.411 429.125 163.606 431.785 162.34C431.647 162.243 431.495 162.141 431.331 162.035C429.648 160.954 426.954 159.678 423.808 158.457C417.854 156.146 411.341 154.553 410.581 154.891C409.085 155.555 407.402 158.183 405.851 162.826C405.462 163.993 404.201 164.623 403.034 164.233C401.868 163.844 401.238 162.583 401.627 161.416C403.541 155.685 405.815 152.135 408.773 150.821C411.164 149.758 418.035 151.44 425.419 154.306C428.819 155.625 431.761 157.019 433.738 158.289C434.949 159.067 435.835 159.813 436.393 160.611C437.366 162.003 437.362 163.718 436.02 164.911C434.427 166.327 428.579 168.42 421.71 170.373Z" fill="#253238"/>
</svg>
