<svg width="62" height="39" viewBox="0 0 62 39" fill="none" xmlns="http://www.w3.org/2000/svg">
<g opacity="0.7">
<path opacity="0.0323" d="M25.7777 21.3145C31.6255 21.3145 37.1973 21.8868 41.4605 22.9396C49.0974 24.8202 50.2425 27.6717 50.2425 29.2048C50.2425 30.7481 49.0872 33.5997 41.4605 35.4701C37.1973 36.5126 31.6357 37.0952 25.7777 37.0952C19.9299 37.0952 14.3581 36.5228 10.095 35.4701C2.45804 33.5895 1.31299 30.7379 1.31299 29.2048C1.31299 27.6717 2.46827 24.81 10.095 22.9396C14.3581 21.8868 19.9197 21.3145 25.7777 21.3145Z" fill="#FDFDFE"/>
<path opacity="0.0645" d="M26.3506 21.7847C32.0348 21.7847 37.4532 22.3468 41.5937 23.3586C49.0057 25.1779 50.1405 27.9477 50.1405 29.4399C50.1405 30.9322 49.0057 33.702 41.5937 35.5213C37.4532 36.5331 32.045 37.0952 26.3506 37.0952C20.6663 37.0952 15.2478 36.5331 11.1073 35.5213C3.69534 33.702 2.56055 30.9322 2.56055 29.4399C2.56055 27.9477 3.69534 25.1779 11.1073 23.3586C15.2478 22.3366 20.6561 21.7847 26.3506 21.7847Z" fill="#FAFBFE"/>
<path opacity="0.0968" d="M26.9229 22.2548C32.4436 22.2548 37.6984 22.7965 41.7265 23.7777C48.9136 25.5356 50.0381 28.2237 50.0381 29.675C50.0381 31.1263 48.9136 33.8042 41.7265 35.5723C37.7086 36.5535 32.4538 37.0952 26.9229 37.0952C21.4022 37.0952 16.1473 36.5535 12.1193 35.5723C4.9322 33.8144 3.80762 31.1263 3.80762 29.675C3.80762 28.2237 4.9322 25.5459 12.1193 23.7777C16.1371 22.7965 21.392 22.2548 26.9229 22.2548Z" fill="#F8F9FD"/>
<path opacity="0.129" d="M27.4957 22.725C32.863 22.725 37.9543 23.2462 41.8596 24.207C48.8218 25.9138 49.926 28.4996 49.926 29.9203C49.926 31.3307 48.8218 33.9268 41.8596 35.6337C37.9543 36.5842 32.863 37.1157 27.4957 37.1157C22.1284 37.1157 17.0371 36.5944 13.1317 35.6337C6.16952 33.9268 5.06543 31.341 5.06543 29.9203C5.06543 28.5098 6.16952 25.9138 13.1317 24.207C17.0371 23.2462 22.1284 22.725 27.4957 22.725Z" fill="#F6F7FC"/>
<path opacity="0.1613" d="M28.0681 23.1951C33.2718 23.1951 38.2097 23.7061 41.9924 24.626C48.7399 26.2715 49.8235 28.7756 49.8235 30.1452C49.8235 31.5147 48.7399 34.0188 41.9924 35.6643C38.2097 36.5842 33.2616 37.0952 28.0681 37.0952C22.8643 37.0952 17.9264 36.5842 14.1437 35.6643C7.39622 34.0188 6.3125 31.5147 6.3125 30.1452C6.3125 28.7756 7.39622 26.2715 14.1437 24.626C17.9264 23.7061 22.8643 23.1951 28.0681 23.1951Z" fill="#F3F5FC"/>
<path opacity="0.1935" d="M28.6404 23.6652C33.6806 23.6652 38.4652 24.1559 42.1252 25.0451C48.6477 26.6395 49.7109 29.0515 49.7109 30.3802C49.7109 31.7089 48.6477 34.121 42.1252 35.7154C38.4549 36.6046 33.6704 37.0952 28.6404 37.0952C23.6003 37.0952 18.8157 36.6046 15.1557 35.7154C8.63311 34.121 7.56982 31.7089 7.56982 30.3802C7.56982 29.0515 8.63311 26.6395 15.1557 25.0451C18.8157 24.1559 23.6003 23.6652 28.6404 23.6652Z" fill="#F1F3FB"/>
<path opacity="0.2258" d="M29.2132 24.1354C34.0898 24.1354 38.7108 24.6056 42.2583 25.4743C48.556 27.0074 49.609 29.3377 49.609 30.6255C49.609 31.9133 48.556 34.2437 42.2583 35.7768C38.7108 36.6353 34.0796 37.1157 29.2132 37.1157C24.3366 37.1157 19.7156 36.6455 16.1681 35.7768C9.8704 34.2437 8.81738 31.9133 8.81738 30.6255C8.81738 29.3377 9.8704 27.0074 16.1681 25.4743C19.7054 24.6056 24.3366 24.1354 29.2132 24.1354Z" fill="#EFF1FA"/>
<path opacity="0.2581" d="M29.7856 24.6055C34.4986 24.6055 38.9662 25.0655 42.4013 25.8933C48.4843 27.3651 49.5067 29.6137 49.5067 30.8504C49.5067 32.0871 48.4741 34.3356 42.3911 35.8074C38.9662 36.6353 34.4884 37.0952 29.7856 37.0952C25.0726 37.0952 20.6049 36.6353 17.18 35.8074C11.0971 34.3356 10.0747 32.0871 10.0747 30.8504C10.0747 29.6137 11.1073 27.3651 17.18 25.8933C20.6049 25.0655 25.0726 24.6055 29.7856 24.6055Z" fill="#ECEFFA"/>
<path opacity="0.2903" d="M30.3578 25.0757C34.9073 25.0757 39.2215 25.5152 42.5339 26.3124C48.392 27.7331 49.4041 29.8896 49.4041 31.0854C49.4041 32.2813 48.392 34.4378 42.5339 35.8585C39.2215 36.6557 34.9073 37.0952 30.3578 37.0952C25.8084 37.0952 21.4941 36.6557 18.1817 35.8585C12.3236 34.4378 11.3115 32.2813 11.3115 31.0854C11.3115 29.8896 12.3236 27.7331 18.1817 26.3124C21.4941 25.5152 25.8084 25.0757 30.3578 25.0757Z" fill="#EAEDF9"/>
<path opacity="0.3226" d="M30.9307 25.5458C35.3166 25.5458 39.4775 25.9649 42.6672 26.7314C48.3004 28.0908 49.3022 30.1656 49.3022 31.3205C49.3022 32.4754 48.3106 34.5503 42.6672 35.9096C39.4775 36.6762 35.3166 37.0952 30.9307 37.0952C26.5448 37.0952 22.3839 36.6762 19.1942 35.9096C13.561 34.5503 12.5591 32.4754 12.5591 31.3205C12.5591 30.1656 13.5508 28.0908 19.1942 26.7314C22.3839 25.9751 26.5448 25.5458 30.9307 25.5458Z" fill="#E8EBF9"/>
<path opacity="0.3548" d="M31.503 26.016C35.7253 26.016 39.7226 26.4248 42.7999 27.1607C48.2081 28.4587 49.1896 30.4416 49.1896 31.5556C49.1896 32.6697 48.2081 34.6525 42.7999 35.9505C39.7329 36.6864 35.7253 37.0952 31.503 37.0952C27.2807 37.0952 23.2833 36.6864 20.2061 35.9505C14.7979 34.6525 13.8164 32.6697 13.8164 31.5556C13.8164 30.4416 14.7979 28.4587 20.2061 27.1607C23.2833 26.4248 27.2807 26.016 31.503 26.016Z" fill="#E5E9F8"/>
<path opacity="0.3871" d="M32.0753 26.4861C36.134 26.4861 39.978 26.8745 42.9326 27.5798C48.1261 28.8267 49.0872 30.7175 49.0872 31.7907C49.0872 32.8639 48.1261 34.7547 42.9326 36.0016C39.978 36.7068 36.134 37.0952 32.0753 37.0952C28.0166 37.0952 24.1726 36.7068 21.218 36.0016C16.0245 34.7547 15.0635 32.8639 15.0635 31.7907C15.0635 30.7175 16.0245 28.8267 21.218 27.5798C24.1726 26.8745 28.0166 26.4861 32.0753 26.4861Z" fill="#E3E7F7"/>
<path opacity="0.4194" d="M32.6482 26.9564C36.5433 26.9564 40.234 27.3243 43.0659 27.9988C48.0345 29.1844 48.975 30.9935 48.975 32.0258C48.975 33.058 48.0345 34.8671 43.0659 36.0527C40.234 36.7273 36.5433 37.0952 32.6482 37.0952C28.7531 37.0952 25.0624 36.7273 22.2305 36.0527C17.2619 34.8671 16.3213 33.058 16.3213 32.0258C16.3213 30.9935 17.2619 29.1844 22.2305 27.9988C25.0624 27.3345 28.7531 26.9564 32.6482 26.9564Z" fill="#E1E5F7"/>
<path opacity="0.4516" d="M33.2205 27.4265C36.9521 27.4265 40.4894 27.7842 43.1986 28.4179C47.9423 29.5524 48.8726 31.2695 48.8726 32.2609C48.8726 33.2523 47.9423 34.9693 43.1986 36.1038C40.4792 36.7477 36.9521 37.0952 33.2205 37.0952C29.4889 37.0952 25.9516 36.7375 23.2424 36.1038C18.4987 34.9693 17.5684 33.2523 17.5684 32.2609C17.5684 31.2695 18.4987 29.5524 23.2424 28.4179C25.9516 27.7842 29.4889 27.4265 33.2205 27.4265Z" fill="#DEE3F6"/>
<path opacity="0.4839" d="M33.7929 27.8966C37.3609 27.8966 40.7346 28.2339 43.3314 28.8471C47.8604 29.9203 48.7601 31.5556 48.7601 32.4959C48.7601 33.4362 47.8502 35.0715 43.3212 36.1447C40.7244 36.7579 37.3404 37.0952 33.7826 37.0952C30.2146 37.0952 26.8409 36.7579 24.2441 36.1447C19.7151 35.0715 18.8154 33.4362 18.8154 32.4959C18.8154 31.5556 19.7253 29.9203 24.2543 28.8471C26.8511 28.2339 30.2249 27.8966 33.7929 27.8966Z" fill="#DCE1F5"/>
<path opacity="0.5161" d="M34.3656 28.3668C37.77 28.3668 40.9904 28.6837 43.4747 29.2662C47.7788 30.2781 48.6682 31.8316 48.6682 32.731C48.6682 33.6304 47.7788 35.184 43.4747 36.1958C41.0007 36.7784 37.77 37.0952 34.3656 37.0952C30.9612 37.0952 27.7408 36.7784 25.2565 36.1958C20.9524 35.184 20.063 33.6304 20.063 32.731C20.063 31.8316 20.9524 30.2781 25.2565 29.2662C27.7408 28.6939 30.9612 28.3668 34.3656 28.3668Z" fill="#DADEF5"/>
<path opacity="0.5484" d="M34.938 28.8369C38.1788 28.8369 41.2458 29.1436 43.6074 29.6852C47.6866 30.646 48.5659 32.0973 48.5659 32.9661C48.5659 33.8246 47.6968 35.2861 43.6074 36.2469C41.2458 36.7988 38.1788 37.0952 34.938 37.0952C31.6971 37.0952 28.6301 36.7886 26.2685 36.2469C22.1893 35.2861 21.3101 33.8349 21.3101 32.9661C21.3101 32.1076 22.1791 30.646 26.2685 29.6852C28.6301 29.1436 31.6971 28.8369 34.938 28.8369Z" fill="#D8DCF4"/>
<path opacity="0.5806" d="M35.5108 29.3173C38.588 29.3173 41.5017 29.6035 43.7407 30.1247C47.5949 31.0242 48.4537 32.3937 48.4537 33.2114C48.4537 34.029 47.5949 35.3986 43.7407 36.298C41.5017 36.809 38.588 37.1055 35.5108 37.1055C32.4335 37.1055 29.5198 36.8193 27.2809 36.298C23.4266 35.3986 22.5679 34.029 22.5679 33.2114C22.5679 32.3937 23.4266 31.0242 27.2809 30.1247C29.53 29.6035 32.4335 29.3173 35.5108 29.3173Z" fill="#D5DAF3"/>
<path opacity="0.6129" d="M36.0831 29.7874C38.9968 29.7874 41.7469 30.0532 43.8734 30.5438C47.5129 31.3819 48.3513 32.6697 48.3513 33.4464C48.3513 34.2232 47.5129 35.511 43.8734 36.3491C41.7469 36.8295 38.9968 37.1055 36.0831 37.1055C33.1694 37.1055 30.4193 36.8397 28.2928 36.3491C24.6533 35.511 23.8149 34.2232 23.8149 33.4464C23.8149 32.6697 24.6533 31.3819 28.2928 30.5438C30.4193 30.0532 33.1694 29.7874 36.0831 29.7874Z" fill="#D3D8F3"/>
<path opacity="0.6452" d="M36.6554 30.2576C39.4055 30.2576 42.0023 30.5131 44.0061 30.9628C47.4207 31.7498 48.2386 32.9456 48.2386 33.6815C48.2386 34.4174 47.4207 35.6132 44.0061 36.4002C42.0023 36.8499 39.4055 37.1055 36.6554 37.1055C33.9053 37.1055 31.3085 36.8499 29.3047 36.4002C25.8901 35.6132 25.0723 34.4174 25.0723 33.6815C25.0723 32.9456 25.8901 31.7498 29.3047 30.9628C31.3085 30.5029 33.9053 30.2576 36.6554 30.2576Z" fill="#D1D6F2"/>
<path opacity="0.6774" d="M37.2282 30.7278C39.8147 30.7278 42.2581 30.9628 44.1393 31.3819C47.329 32.1075 48.1367 33.2216 48.1367 33.9064C48.1367 34.6014 47.329 35.7052 44.1393 36.4309C42.2581 36.8499 39.8147 37.085 37.2282 37.085C34.6417 37.085 32.1983 36.8499 30.3172 36.4309C27.1274 35.7052 26.3198 34.5912 26.3198 33.9064C26.3198 33.2114 27.1274 32.1075 30.3172 31.3819C32.1983 30.9628 34.6417 30.7278 37.2282 30.7278Z" fill="#CED4F1"/>
<path opacity="0.7097" d="M37.8006 31.1979C40.2236 31.1979 42.5137 31.4125 44.2721 31.8112C47.2471 32.4755 48.0241 33.5078 48.0241 34.1517C48.0241 34.8058 47.2369 35.8278 44.2619 36.4922C42.4932 36.8908 40.2134 37.1055 37.7904 37.1055C35.3674 37.1055 33.0774 36.8908 31.319 36.4922C28.3439 35.8278 27.5669 34.7956 27.5669 34.1517C27.5669 33.5078 28.3542 32.4755 31.3292 31.8112C33.0979 31.4125 35.3777 31.1979 37.8006 31.1979Z" fill="#CCD2F1"/>
<path opacity="0.7419" d="M38.3734 31.6681C40.6328 31.6681 42.7593 31.8623 44.4155 32.2302C47.1656 32.8332 47.9324 33.7735 47.9324 34.3867C47.9324 34.9898 47.1656 35.9403 44.4155 36.5433C42.7695 36.9113 40.643 37.1055 38.3836 37.1055C36.1242 37.1055 33.9978 36.9113 32.3416 36.5433C29.5915 35.9403 28.8247 35 28.8247 34.3867C28.8247 33.7735 29.5915 32.8332 32.3416 32.2302C33.9876 31.8623 36.114 31.6681 38.3734 31.6681Z" fill="#CAD0F0"/>
<path opacity="0.7742" d="M38.9457 32.1382C41.0415 32.1382 43.0147 32.3222 44.5482 32.6493C47.0734 33.2012 47.8299 34.0495 47.8299 34.6219C47.8299 35.184 47.0836 36.0425 44.5482 36.5944C43.0147 36.9215 41.0415 37.1055 38.9457 37.1055C36.8499 37.1055 34.8768 36.9215 33.3433 36.5944C30.8181 36.0425 30.0615 35.1942 30.0615 34.6219C30.0615 34.0597 30.8079 33.2012 33.3433 32.6493C34.8768 32.3222 36.8499 32.1382 38.9457 32.1382Z" fill="#C7CEF0"/>
<path opacity="0.8065" d="M39.518 32.6083C41.4503 32.6083 43.2701 32.7719 44.6809 33.0683C46.9914 33.5589 47.7173 34.3254 47.7173 34.8467C47.7173 35.3679 46.9812 36.1345 44.6809 36.6251C43.2701 36.9215 41.4503 37.085 39.518 37.085C37.5858 37.085 35.766 36.9215 34.3552 36.6251C32.0447 36.1345 31.3188 35.3679 31.3188 34.8467C31.3188 34.3254 32.0549 33.5589 34.3552 33.0683C35.7763 32.7719 37.5858 32.6083 39.518 32.6083Z" fill="#C5CCEF"/>
<path opacity="0.8387" d="M40.0908 33.0785C41.8595 33.0785 43.526 33.2216 44.8141 33.4975C46.8997 33.937 47.6154 34.6116 47.6154 35.0919C47.6154 35.5723 46.8997 36.2469 44.8141 36.6864C43.526 36.9521 41.8595 37.1055 40.0908 37.1055C38.3222 37.1055 36.6558 36.9623 35.3676 36.6864C33.282 36.2469 32.5664 35.5723 32.5664 35.0919C32.5664 34.6116 33.282 33.937 35.3676 33.4975C36.666 33.2216 38.3222 33.0785 40.0908 33.0785Z" fill="#C3CAEE"/>
<path opacity="0.871" d="M40.6632 33.5486C42.2683 33.5486 43.7711 33.6816 44.9468 33.9166C46.8074 34.2948 47.5026 34.8876 47.5026 35.3271C47.5026 35.7666 46.8074 36.3594 44.9468 36.7375C43.7711 36.9726 42.2683 37.1055 40.6632 37.1055C39.0581 37.1055 37.5553 36.9726 36.3796 36.7375C34.5189 36.3594 33.8237 35.7666 33.8237 35.3271C33.8237 34.8876 34.5189 34.2948 36.3796 33.9166C37.5553 33.6816 39.0581 33.5486 40.6632 33.5486Z" fill="#C0C8EE"/>
<path opacity="0.9032" d="M41.2361 34.0188C42.6776 34.0188 44.027 34.1312 45.08 34.3356C46.7158 34.6525 47.4008 35.1635 47.4008 35.5519C47.4008 35.9505 46.726 36.4513 45.08 36.7682C44.027 36.9726 42.6776 37.085 41.2361 37.085C39.7945 37.085 38.445 36.9726 37.392 36.7682C35.7563 36.4513 35.0713 35.9403 35.0713 35.5519C35.0713 35.1635 35.7461 34.6525 37.392 34.3356C38.445 34.1312 39.7945 34.0188 41.2361 34.0188Z" fill="#BEC6ED"/>
<path opacity="0.9355" d="M41.8083 34.489C43.0863 34.489 44.2824 34.5809 45.2127 34.7649C46.6338 35.0306 47.2881 35.4497 47.2881 35.7972C47.2881 36.1447 46.6235 36.5637 45.2025 36.8295C44.2619 37.0032 43.076 37.1055 41.7981 37.1055C40.5202 37.1055 39.324 37.0135 38.3937 36.8295C36.9726 36.5637 36.3184 36.1447 36.3184 35.7972C36.3184 35.4497 36.9829 35.0306 38.4039 34.7649C39.3445 34.5911 40.5304 34.489 41.8083 34.489Z" fill="#BCC4EC"/>
<path opacity="0.9677" d="M42.3807 34.9591C43.4951 34.9591 44.5277 35.0409 45.3558 35.184C46.5519 35.3986 47.196 35.7155 47.196 36.0323C47.196 36.3389 46.5519 36.666 45.3558 36.8806C44.5379 37.0237 43.5053 37.1055 42.3909 37.1055C41.2766 37.1055 40.244 37.0237 39.4159 36.8806C38.2198 36.666 37.5757 36.3492 37.5757 36.0323C37.5757 35.7257 38.2198 35.3986 39.4159 35.184C40.2338 35.0409 41.2664 34.9591 42.3807 34.9591Z" fill="#B9C2EC"/>
<path opacity="0.7" d="M47.0936 36.2674C47.0936 36.7273 45.2431 37.1055 42.9633 37.1055C40.6835 37.1055 38.833 36.7375 38.833 36.2674C38.833 35.8074 40.6835 35.4293 42.9633 35.4293C45.2431 35.4293 47.0936 35.8074 47.0936 36.2674Z" fill="#B7C0EB"/>
</g>
<path d="M44.2422 37.0604C53.9352 36.3717 61.2343 27.9578 60.5454 18.2675C59.8564 8.57717 51.4402 1.28003 41.7473 1.9688C32.0544 2.65756 24.7553 11.0714 25.4442 20.7617C26.1332 30.452 34.5493 37.7492 44.2422 37.0604Z" fill="#B7C0EB"/>
<path d="M42.9739 37.0032C52.6912 37.0032 60.5685 29.128 60.5685 19.4135C60.5685 9.69886 52.6912 1.82361 42.9739 1.82361C33.2567 1.82361 25.3794 9.69886 25.3794 19.4135C25.3794 29.128 33.2567 37.0032 42.9739 37.0032Z" fill="url(#paint0_linear_535_17750)"/>
<defs>
<linearGradient id="paint0_linear_535_17750" x1="34.1775" y1="34.6513" x2="51.7651" y2="4.18006" gradientUnits="userSpaceOnUse">
<stop offset="0.072" stop-color="#E4E7FB"/>
<stop offset="0.6872" stop-color="#F5F6FD"/>
<stop offset="1" stop-color="white"/>
</linearGradient>
</defs>
</svg>
