<svg width="68" height="52" viewBox="0 0 68 52" fill="none" xmlns="http://www.w3.org/2000/svg">
<g style="mix-blend-mode:multiply" opacity="0.1">
<g style="mix-blend-mode:multiply" opacity="0.03">
<path d="M33.0956 33.3417C30.6455 34.7785 28.1544 36.1879 25.8001 37.7479C24.2534 39.5268 26.8541 40.7856 28.1818 41.5519L41.7461 49.3791C43.0089 50.3262 44.5122 50.8998 46.085 51.0348C47.437 51.0325 48.7609 50.6483 49.9039 49.9264L55.639 46.6013C59.1156 44.5761 62.7701 42.674 66.1236 40.4846C65.8498 40.6488 66.2878 40.3752 66.3425 40.3204C66.3973 40.2657 66.5752 40.1288 66.63 40.0741C66.7497 39.9409 66.8595 39.7991 66.9585 39.6499C67.0896 39.4155 67.1602 39.1521 67.1638 38.8836C67.068 37.2005 64.5358 36.2974 63.2218 35.5721H63.085L55.9537 31.467L50.4787 28.2923C48.8636 27.3755 47.2075 26.404 45.2912 26.924H45.3733C45.0039 26.9787 44.6381 27.0564 44.2783 27.1566H44.1414C43.3861 27.4712 42.662 27.856 41.9788 28.306L39.077 29.8523L33.0956 33.3417Z" fill="#FDFDFE"/>
</g>
<g style="mix-blend-mode:multiply" opacity="0.06">
<path d="M32.3155 33.3417C29.8655 34.7785 27.3743 36.1879 25.02 37.7479C23.4734 39.5268 26.0877 40.7719 27.4017 41.5382L40.9797 49.3791C42.2383 50.3245 43.7367 50.8981 45.305 51.0348C46.656 51.026 47.9781 50.6423 49.1238 49.9264L54.8589 46.5876C58.3355 44.5624 61.9901 42.6604 65.3435 40.4709C65.0698 40.6351 65.4941 40.3615 65.5626 40.3204C65.631 40.2794 65.7952 40.1152 65.85 40.0604C65.9047 40.0057 66.1648 39.6499 66.1784 39.6363C66.3059 39.401 66.3718 39.1375 66.3701 38.87C66.288 37.1869 63.7421 36.2974 62.4418 35.5721H62.3049L55.1737 31.467L49.6987 28.2923C48.0836 27.3755 46.4274 26.404 44.5112 26.924H44.5933C44.2238 26.9787 43.858 27.0564 43.4982 27.1566H43.3614C42.6061 27.4712 41.882 27.856 41.1987 28.306L38.297 29.8523L32.3155 33.3417Z" fill="#FAFBFE"/>
</g>
<g style="mix-blend-mode:multiply" opacity="0.1">
<path d="M31.5354 33.3418C29.0853 34.7785 26.5943 36.188 24.24 37.748C22.6933 39.5268 25.3076 40.7721 26.6216 41.5247L40.1996 49.3654C41.4541 50.3203 42.954 50.8992 44.5249 51.0348C45.8769 51.0197 47.1985 50.6314 48.3437 49.9127L54.0651 46.5739C57.5417 44.5487 61.1963 42.6467 64.5634 40.4573C64.2897 40.6215 64.7003 40.3479 64.7687 40.3068C64.8372 40.2658 65.0014 40.1152 65.0561 40.0468C65.1759 39.9136 65.2858 39.7719 65.3847 39.6226C65.5175 39.3889 65.5881 39.1251 65.59 38.8563C65.4942 37.1732 62.962 36.2974 61.648 35.5722L61.5111 35.4901L54.3936 31.385L48.9186 28.2104C47.3035 27.2935 45.6473 26.322 43.731 26.842H43.8132C43.4437 26.8967 43.078 26.9744 42.7182 27.0746H42.5813C41.8259 27.3891 41.1019 27.774 40.4186 28.2241L37.5169 29.8524L31.5354 33.3418Z" fill="#F8F9FD"/>
</g>
<g style="mix-blend-mode:multiply" opacity="0.13">
<path d="M30.755 33.3418C28.3049 34.7785 25.8139 36.188 23.4596 37.748C21.9129 39.5268 24.5272 40.7584 25.8549 41.5247L39.4192 49.3517C40.6725 50.3108 42.1725 50.8944 43.7445 51.0348C45.0938 51.0167 46.4113 50.6235 47.5496 49.8991L53.2847 46.5603C56.7613 44.5351 60.4159 42.633 63.7694 40.4436C63.5093 40.6078 63.9062 40.3478 63.9883 40.2931C64.0705 40.2384 64.2211 40.1015 64.2758 40.0468C64.3306 39.9921 64.5906 39.6226 64.6043 39.6226C64.7338 39.3876 64.8043 39.1246 64.8096 38.8563C64.7138 37.1596 62.1679 36.2838 60.8676 35.5722L60.7307 35.4901L53.6132 31.385L48.1382 28.2104C46.523 27.2935 44.8669 26.322 42.9506 26.842H43.0328C42.6633 26.8967 42.2976 26.9744 41.9378 27.0746H41.8008C41.0455 27.3891 40.3215 27.774 39.6383 28.2241L36.7365 29.8524L30.755 33.3418Z" fill="#F6F7FC"/>
</g>
<g style="mix-blend-mode:multiply" opacity="0.16">
<path d="M29.9748 33.3418C27.5247 34.7785 25.0336 36.188 22.6793 37.748C21.1327 39.5268 23.747 40.7447 25.0747 41.511L38.6526 49.3517C39.9043 50.3045 41.398 50.8876 42.9642 51.0348C44.3157 51.0184 45.6349 50.62 46.7693 49.8854L52.436 46.5466C55.9263 44.5214 59.5671 42.633 62.9343 40.4299C62.6742 40.5941 63.0712 40.3341 63.1396 40.2794C63.208 40.2247 63.3859 40.0878 63.4407 40.0331C63.4954 39.9784 63.7556 39.6089 63.7556 39.6089C63.8932 39.3772 63.9642 39.1121 63.9608 38.8426C63.865 37.1459 61.3328 36.2838 60.0325 35.5722L59.8957 35.4901L52.7782 31.385L47.3032 28.2104C45.688 27.2935 44.0319 26.322 42.1156 26.842H42.1977C41.8241 26.8985 41.4539 26.9761 41.0891 27.0746H40.9658C40.2105 27.3891 39.4864 27.774 38.8032 28.2241L36.011 29.8524L29.9748 33.3418Z" fill="#F3F5FC"/>
</g>
<g style="mix-blend-mode:multiply" opacity="0.19">
<path d="M29.1674 33.3418C26.7173 34.7785 24.2262 36.188 21.8719 37.748C20.3252 39.5268 22.9532 40.7447 24.2672 41.4973L37.8453 49.338C39.0958 50.2951 40.5893 50.8828 42.1568 51.0348C43.5092 51.0114 44.8278 50.6084 45.962 49.8717L51.6834 46.5329C55.16 44.5077 58.8145 42.6193 62.168 40.4299C61.9216 40.5804 62.3049 40.3341 62.387 40.2657C62.4692 40.1973 62.6197 40.0741 62.6744 40.0194C62.7942 39.8863 62.904 39.7445 63.0029 39.5952C63.134 39.3608 63.2046 39.0975 63.2083 38.8289C63.1124 37.1322 60.5666 36.2838 59.2662 35.5722L59.1294 35.4901L52.0256 31.385C50.2006 30.3359 48.3756 29.2777 46.5506 28.2104C44.9354 27.2935 43.2792 26.322 41.3629 26.842H41.4862C41.1125 26.8985 40.7423 26.9761 40.3775 27.0746H40.2543C39.4989 27.3891 38.7749 27.774 38.0917 28.2241L35.1762 29.8524L29.1674 33.3418Z" fill="#F1F3FB"/>
</g>
<g style="mix-blend-mode:multiply" opacity="0.23">
<path d="M28.4145 33.3417C25.9644 34.7785 23.4732 36.188 21.119 37.7479C19.5723 39.5268 22.2003 40.731 23.5143 41.4973L37.0923 49.3243C38.3387 50.2908 39.8338 50.8839 41.4039 51.0348C42.7512 51.0067 44.0641 50.604 45.1954 49.8717L50.9167 46.5192C54.407 44.494 58.0616 42.6056 61.415 40.4162C61.1549 40.5667 61.5382 40.3204 61.634 40.252C61.7298 40.1836 61.8667 40.0604 61.9214 40.0057C61.9762 39.951 62.2362 39.5952 62.2499 39.5815C62.3842 39.349 62.4506 39.0835 62.4416 38.8152C62.3595 37.1184 59.8136 36.2837 58.5133 35.5585H58.3764L51.2726 31.4534C49.4476 30.4043 47.6226 29.3461 45.7976 28.2787C44.1825 27.3619 42.5262 26.3904 40.61 26.9103H40.6921C40.3184 26.9668 39.9483 27.0446 39.5834 27.143H39.4603C38.705 27.4576 37.9809 27.8424 37.2976 28.2924L34.3959 29.8524L28.4145 33.3417Z" fill="#EFF1FA"/>
</g>
<g style="mix-blend-mode:multiply" opacity="0.26">
<path d="M27.6343 33.3417C25.1842 34.7785 22.6931 36.188 20.3388 37.7479C18.7921 39.5268 21.4202 40.7173 22.7478 41.4836L36.3121 49.3243C37.5618 50.285 39.0552 50.8774 40.6237 51.0348C41.9723 51.0019 43.2851 50.5944 44.4152 49.858C46.3315 48.7496 48.2203 47.6139 50.1366 46.5055C53.6132 44.4803 57.2678 42.592 60.6349 40.4026C60.3748 40.5531 60.7581 40.3068 60.8402 40.2384C60.9224 40.17 61.0866 40.0467 61.1276 39.992C61.2517 39.8625 61.3619 39.7203 61.4562 39.5678C61.5952 39.3367 61.6663 39.0712 61.6615 38.8015C61.5656 37.1047 59.0198 36.2837 57.7331 35.5585H57.5963L50.4925 31.4534C48.6675 30.4043 46.8425 29.3461 45.0175 28.2787C43.4023 27.3619 41.7461 26.3904 39.8298 26.9103H39.912C39.538 26.9653 39.1678 27.0431 38.8033 27.143H38.6801C37.9248 27.4576 37.2007 27.8424 36.5175 28.2924L33.6157 29.8524L27.6343 33.3417Z" fill="#ECEFFA"/>
</g>
<g style="mix-blend-mode:multiply" opacity="0.29">
<path d="M26.8543 33.3418C24.4042 34.7786 21.913 36.188 19.5588 37.748C18.0121 39.5268 20.6538 40.7173 21.9678 41.4699L35.5458 49.3106C36.7894 50.2751 38.2782 50.8724 39.8437 51.0348C41.1931 50.9949 42.5053 50.5829 43.6352 49.8443C45.5378 48.7359 47.4403 47.6002 49.3566 46.4918C52.8332 44.4666 56.4878 42.5783 59.8412 40.3889C59.5948 40.5394 59.9644 40.3068 60.0603 40.2384C60.1616 40.163 60.2577 40.0807 60.3477 39.992C60.4435 39.8826 60.6762 39.5678 60.6762 39.5678C60.8073 39.3335 60.8778 39.0701 60.8815 38.8016C60.7857 37.0911 58.2398 36.2838 56.9395 35.5585L56.8026 35.4764L49.7125 31.3713C47.8875 30.3222 46.0625 29.264 44.2375 28.1967C42.6223 27.2799 40.9661 26.3083 39.0498 26.8283H39.132C38.7581 26.8833 38.3878 26.9611 38.0233 27.061H37.9001C37.1448 27.3756 36.4207 27.7603 35.7375 28.2104L32.8357 29.8524L26.8543 33.3418Z" fill="#EAEDF9"/>
</g>
<g style="mix-blend-mode:multiply" opacity="0.32">
<path d="M26.074 33.3418C23.6239 34.7786 21.1327 36.188 18.7785 37.748C17.2318 39.5268 19.8735 40.7036 21.1875 41.4699L34.7656 49.297C36.005 50.2709 37.4952 50.8735 39.0634 51.0348C40.4112 50.9985 41.7211 50.581 42.8412 49.8306C44.7574 48.7222 46.66 47.5866 48.5626 46.4782C52.0392 44.453 55.7075 42.5783 59.0609 40.3752C58.8146 40.5257 59.1704 40.2931 59.2662 40.2247C59.3746 40.1529 59.4755 40.0704 59.5674 39.9784C59.6632 39.8689 59.8822 39.5542 59.8959 39.5542C60.0301 39.3217 60.0965 39.0563 60.0875 38.7879C59.9917 37.0775 57.4457 36.2701 56.1591 35.5585L56.0223 35.4764L48.9321 31.3713C47.1071 30.3222 45.2821 29.264 43.4571 28.1967C41.842 27.2799 40.1859 26.3083 38.2696 26.8283H38.3517C37.9778 26.8833 37.6075 26.9611 37.243 27.061H37.1198C36.3645 27.3756 35.6404 27.7603 34.9572 28.2104L32.0554 29.8524L26.074 33.3418Z" fill="#E8EBF9"/>
</g>
<g style="mix-blend-mode:multiply" opacity="0.35">
<path d="M25.2937 33.3418C22.8437 34.7786 20.3526 36.188 17.9983 37.748C16.4516 39.5268 19.0933 40.6899 20.421 41.4562L33.9854 49.297C35.2282 50.2651 36.7166 50.867 38.2832 51.0348C39.6322 50.9937 40.942 50.5715 42.061 49.817C43.9772 48.7086 45.8661 47.5729 47.7823 46.4645C51.259 44.453 54.9136 42.5646 58.267 40.3752C58.0344 40.5121 58.3765 40.2794 58.486 40.211C58.5928 40.1426 58.6895 40.0597 58.7735 39.9647C58.8932 39.8316 59.003 39.6898 59.102 39.5405C59.2331 39.3061 59.3037 39.0428 59.3073 38.7742C59.2115 37.0638 56.6656 36.2701 55.379 35.5585L55.2421 35.4764L48.1519 31.3713C46.3269 30.3222 44.5019 29.264 42.6769 28.1967C41.0618 27.2799 39.4056 26.3083 37.4894 26.8283H37.5715C37.1976 26.8833 36.8273 26.9611 36.4628 27.061H36.3396C35.5843 27.3756 34.8602 27.7603 34.1769 28.2104L31.2752 29.8524L25.2937 33.3418Z" fill="#E5E9F8"/>
</g>
<g style="mix-blend-mode:multiply" opacity="0.39">
<path d="M24.5134 33.3417C22.0634 34.7785 19.5723 36.188 17.2181 37.7479C15.6714 39.5268 18.313 40.6899 19.6407 41.4425L33.2735 49.2833C34.7654 50.1317 35.8878 51.0348 37.5714 51.0348C38.9189 50.985 40.2264 50.5636 41.3491 49.817L47.0568 46.4645C50.5471 44.4393 54.2017 42.5509 57.5551 40.3615C57.3224 40.4983 57.6646 40.2794 57.7741 40.1973C57.8816 40.1298 57.9784 40.0468 58.0615 39.951C58.1573 39.8552 58.3763 39.5405 58.39 39.5268C58.5242 39.2943 58.5906 39.0288 58.5816 38.7605C58.4995 37.05 55.94 36.27 54.6533 35.5448H54.5165L47.44 31.4397C45.615 30.3906 43.79 29.3324 41.965 28.2651C40.3499 27.3483 38.6937 26.3768 36.7775 26.8967H36.8596C36.4857 26.9517 36.1154 27.0294 35.7509 27.1293H35.6277C34.8724 27.4439 34.1484 27.8287 33.4651 28.2787L30.536 29.8524L24.5134 33.3417Z" fill="#E3E7F7"/>
</g>
<g style="mix-blend-mode:multiply" opacity="0.42">
<path d="M23.6924 33.3417C21.2424 34.7785 18.7512 36.188 16.397 37.7479C14.8503 39.5268 17.5057 40.6762 18.8197 41.4425L32.3977 49.2696C33.8759 50.1317 34.9983 51.0348 36.6819 51.0348C38.0266 50.982 39.3301 50.5556 40.4459 49.8033C42.3622 48.6949 44.251 47.5592 46.1673 46.4508C49.6439 44.4256 53.2985 42.5372 56.6656 40.3478C56.433 40.4983 56.7614 40.2657 56.8709 40.1836C56.981 40.1198 57.0784 40.0363 57.1584 39.9373C57.2824 39.8078 57.3925 39.6656 57.4869 39.5131C57.6245 39.2814 57.6956 39.0163 57.6922 38.7468C57.5964 37.0364 55.0504 36.27 53.7638 35.5448H53.627L46.5506 31.4397C44.7256 30.3906 42.9006 29.3324 41.0756 28.2651C39.4604 27.3483 37.8042 26.3768 35.888 26.8967H36.0112C35.6372 26.9517 35.267 27.0294 34.9025 27.1293H34.7793C34.024 27.4439 33.3 27.8287 32.6167 28.2787L29.715 29.8524L23.6924 33.3417Z" fill="#E1E5F7"/>
</g>
<g style="mix-blend-mode:multiply" opacity="0.45">
<path d="M22.9532 33.3417C20.5031 34.7785 18.012 36.188 15.6577 37.7479C14.111 39.5268 16.7664 40.6625 18.0804 41.4288L31.6584 49.2696C33.1367 50.118 34.2591 51.0348 35.9426 51.0348C37.2886 50.9772 38.592 50.5461 39.7067 49.7896C41.623 48.6812 43.5118 47.5455 45.4144 46.4371C48.9047 44.4119 52.5592 42.5235 55.9127 40.3341L56.1317 40.1699C56.2418 40.106 56.3392 40.0226 56.4191 39.9236C56.5149 39.8278 56.7477 39.5131 56.7477 39.5131C56.8788 39.2787 56.9493 39.0153 56.9529 38.7468C56.8571 37.0363 54.3112 36.27 53.0109 35.5448L52.8878 35.4627L45.8113 31.3575C43.9863 30.3084 42.1613 29.2503 40.3363 28.183C38.7211 27.2661 37.065 26.2946 35.1487 26.8146H35.2309C34.8569 26.8696 34.4867 26.9472 34.1222 27.0472H33.999C33.2437 27.3617 32.5196 27.7465 31.8364 28.1966L28.9346 29.8523L22.9532 33.3417Z" fill="#DEE3F6"/>
</g>
<g style="mix-blend-mode:multiply" opacity="0.48">
<path d="M22.173 33.3417C19.723 34.7785 17.2318 36.188 14.8776 37.7479C13.3309 39.5268 15.9863 40.6625 17.314 41.4151L30.8782 49.2559C32.3565 50.1043 33.4789 51.0348 35.1624 51.0348C36.5103 50.976 37.8146 50.5398 38.9265 49.7759C40.829 48.6675 42.7179 47.5318 44.6341 46.4234C48.1108 44.3982 51.779 42.5235 55.1324 40.3205C54.9134 40.471 55.2283 40.3205 55.3378 40.1563C55.4504 40.096 55.5522 40.0173 55.6389 39.9236C55.7347 39.8141 55.9537 39.4994 55.9674 39.4994C56.1017 39.2669 56.168 39.0014 56.159 38.7331C56.0769 37.0226 53.5173 36.27 52.2307 35.5448L52.0938 35.4627L45.0311 31.3575C43.2061 30.3084 41.3811 29.2503 39.5561 28.183C37.941 27.2661 36.2848 26.2946 34.3685 26.8146H34.4507C34.0767 26.8696 33.7065 26.9472 33.342 27.0472H33.2188C32.4635 27.3617 31.7394 27.7465 31.0562 28.1966L28.1544 29.8523L22.173 33.3417Z" fill="#DCE1F5"/>
</g>
<g style="mix-blend-mode:multiply" opacity="0.52">
<path d="M21.3928 33.3417C18.9427 34.7785 16.4515 36.188 14.0973 37.7479C12.5506 39.5268 15.206 40.6489 16.5337 41.4152L30.1117 49.2422C31.59 50.1043 32.6986 51.0348 34.3822 51.0348C35.7251 50.9721 37.0239 50.5361 38.1326 49.7759C40.0488 48.6538 41.9377 47.5181 43.854 46.4097C47.3306 44.3845 50.9852 42.5099 54.3523 40.3205C54.1197 40.4573 54.4344 40.2384 54.5576 40.1563C54.6644 40.0879 54.7611 40.0049 54.8451 39.9099C54.9671 39.7592 55.0769 39.5991 55.1736 39.431C55.3112 39.1993 55.3823 38.9342 55.3789 38.6647C55.2831 36.9542 52.7372 36.2016 51.4506 35.4901L51.3137 35.408L44.2509 31.3028C42.4259 30.2538 40.6009 29.1955 38.7759 28.1282C37.1608 27.2114 35.5046 26.2399 33.5883 26.7598H33.6704C33.2965 26.8148 32.9263 26.8925 32.5617 26.9924H32.4386C31.6833 27.307 30.9592 27.6919 30.276 28.1419L27.3742 29.8524L21.3928 33.3417Z" fill="#DADEF5"/>
</g>
<g style="mix-blend-mode:multiply" opacity="0.55">
<path d="M20.6127 33.3417C18.1627 34.7785 15.6578 36.188 13.3173 37.7479C11.7706 39.5268 14.4397 40.6352 15.7537 41.4014L29.3317 49.2422C30.8099 50.0906 31.9186 51.0348 33.6022 51.0348C34.9463 50.9673 36.245 50.5266 37.3525 49.7622L43.0603 46.3961C46.5369 44.3709 50.2052 42.4962 53.5586 40.3068C53.3396 40.4436 53.6407 40.3068 53.7776 40.1426C53.8815 40.0704 53.9778 39.9879 54.065 39.8963C54.1848 39.7631 54.2946 39.6213 54.3935 39.4721C54.5246 39.2377 54.5952 38.9742 54.5989 38.7057C54.5031 36.9952 51.9435 36.2563 50.6569 35.5448L50.5336 35.4627L43.4709 31.3575C41.6459 30.3084 39.8209 29.2503 37.9959 28.183C36.3808 27.2661 34.7245 26.2946 32.8083 26.8146H32.8904C32.5165 26.8696 32.1462 26.9472 31.7817 27.0472H31.6586C30.9033 27.3617 30.1792 27.7465 29.4959 28.1966L26.5942 29.8523L20.6127 33.3417Z" fill="#D8DCF4"/>
</g>
<g style="mix-blend-mode:multiply" opacity="0.58">
<path d="M19.8325 33.3417C17.3824 34.7785 14.8775 36.188 12.537 37.7479C10.9903 39.5268 13.6594 40.6351 14.9734 41.3878L28.5514 49.2285C30.0297 50.0769 31.1383 51.0348 32.8219 51.0348C34.1667 50.9597 35.4646 50.5145 36.5723 49.7485C38.4748 48.6401 40.3638 47.4907 42.28 46.3824C45.7567 44.3572 49.4112 42.4825 52.7784 40.2931C52.5594 40.4299 52.7784 40.2931 52.9837 40.1289C53.0942 40.06 53.1954 39.9772 53.2848 39.8826C53.3806 39.7868 53.5996 39.4721 53.6133 39.4584C53.7475 39.2259 53.8139 38.9604 53.8049 38.6921C53.7091 36.9816 51.1632 36.2564 49.8766 35.5311H49.7398C47.4038 34.1628 45.054 32.7944 42.6906 31.426C40.8656 30.3769 39.0406 29.3187 37.2156 28.2514C35.6005 27.3346 33.9443 26.363 32.0281 26.883H32.1102C31.7363 26.938 31.366 27.0157 31.0015 27.1156H30.8783C30.123 27.4302 29.3989 27.815 28.7157 28.2651L25.8139 29.8524L19.8325 33.3417Z" fill="#D5DAF3"/>
</g>
<g style="mix-blend-mode:multiply" opacity="0.61">
<path d="M19.0523 33.3417C16.5885 34.7785 14.0974 36.188 11.7569 37.7479C10.1965 39.5268 12.8792 40.6215 14.2069 41.3877L27.7712 49.2149C29.2495 50.077 30.3582 51.0348 32.0417 51.0348C33.3921 50.9431 34.6884 50.4685 35.7785 49.6664C37.6947 48.558 39.5836 47.4086 41.4861 46.3003C44.9765 44.2751 48.631 42.4004 51.9845 40.211C51.7791 40.3478 52.0666 40.211 52.2035 40.0468C52.307 39.9741 52.4032 39.8916 52.4909 39.8005C52.6106 39.6673 52.7205 39.5255 52.8195 39.3763C52.9517 39.1473 53.0224 38.888 53.0247 38.6236C52.9289 36.8994 50.3693 36.1879 49.0964 35.4627H48.9596L41.9105 31.3575C40.0855 30.3084 38.2604 29.2503 36.4354 28.183C34.8203 27.2661 33.1642 26.2946 31.2479 26.8146H31.33C30.9561 26.8696 30.5858 26.9472 30.2213 27.0472H30.0981C29.3428 27.3617 28.6187 27.7465 27.9355 28.1966L25.0611 29.8523L19.0523 33.3417Z" fill="#D3D8F3"/>
</g>
<g style="mix-blend-mode:multiply" opacity="0.65">
<path d="M18.2173 33.3417C15.7536 34.7785 13.2625 36.188 10.9219 37.7479C9.36153 39.5268 12.0443 40.6078 13.372 41.3741L26.95 49.2149C28.4282 50.0633 29.5232 51.0348 31.2067 51.0348C32.5569 50.9424 33.853 50.4678 34.9434 49.6664C36.8596 48.558 38.7349 47.4087 40.6511 46.3003C44.1277 44.2751 47.796 42.4141 51.1494 40.211C50.9441 40.3478 51.1494 40.211 51.3547 40.0468C51.4606 39.9766 51.5612 39.8989 51.6558 39.8142C51.7516 39.7047 51.9706 39.3899 51.9843 39.3899C52.1185 39.1574 52.1849 38.8919 52.176 38.6236C52.0938 36.8995 49.5343 36.2016 48.2477 35.4764L48.1244 35.3943L41.0754 31.2892C39.2504 30.2401 37.4254 29.1819 35.6004 28.1145C33.9853 27.1977 32.3291 26.2262 30.4128 26.7462H30.5361C30.1621 26.8012 29.7919 26.8789 29.4274 26.9788H29.3042C28.5489 27.2934 27.8249 27.6782 27.1416 28.1282L24.2535 29.8524L18.2173 33.3417Z" fill="#D1D6F2"/>
</g>
<g style="mix-blend-mode:multiply" opacity="0.68">
<path d="M17.4917 33.3417C15.028 34.7785 12.5369 36.188 10.1963 37.7479C8.63594 39.5268 11.3324 40.6078 12.6464 41.3604L26.2244 49.2012C27.7027 50.0496 28.7977 51.0348 30.4813 51.0348C31.8296 50.9337 33.1233 50.4599 34.218 49.6664C36.1205 48.5443 38.0094 47.395 39.912 46.2866C43.4023 44.2614 47.0569 42.4004 50.4241 40.211C50.2188 40.3341 50.424 40.1426 50.6293 40.0331C50.7346 39.968 50.8312 39.8899 50.9168 39.8005C51.0366 39.6673 51.1463 39.5256 51.2453 39.3763C51.3879 39.1467 51.4594 38.8801 51.4506 38.61C51.3548 36.8859 48.7952 36.2016 47.5222 35.4764L47.3854 35.3943L40.35 31.2892C38.525 30.2401 36.7 29.1819 34.8749 28.1145C33.2598 27.1977 31.6036 26.2262 29.6874 26.7462H29.7695C29.3956 26.8012 29.0253 26.8789 28.6608 26.9788H28.5376C27.7823 27.2934 27.0583 27.6782 26.375 28.1282L23.4733 29.8524L17.4917 33.3417Z" fill="#CED4F1"/>
</g>
<g style="mix-blend-mode:multiply" opacity="0.71">
<path d="M16.7118 33.3417C14.248 34.7785 11.7569 36.188 9.41629 37.7479C7.85591 39.5268 10.5523 40.5941 11.8663 41.3604L25.4444 49.1875C26.9227 50.0496 28.0177 51.0348 29.7013 51.0348C31.0456 50.9347 32.3352 50.4608 33.4242 49.6664C35.3405 48.558 37.2157 47.395 39.132 46.2866C42.6086 44.2614 46.2769 42.4004 49.6303 40.211C49.4387 40.3341 49.6303 40.211 49.8493 40.0331C49.9519 39.9643 50.0481 39.8865 50.1368 39.8005C50.2565 39.6673 50.3663 39.5255 50.4652 39.3763C50.5964 39.1419 50.667 38.8785 50.6706 38.61C50.5748 36.8859 48.0152 36.2153 46.7423 35.4901L46.6053 35.408L39.5563 31.3028L34.0813 28.1282C32.4798 27.2114 30.8236 26.2399 28.9074 26.7598H28.9895C28.6155 26.8148 28.2453 26.8925 27.8808 26.9924H27.7576C27.0023 27.307 26.2782 27.6919 25.595 28.1419L22.6932 29.8524L16.7118 33.3417Z" fill="#CCD2F1"/>
</g>
<g style="mix-blend-mode:multiply" opacity="0.74">
<path d="M15.9314 33.3418C13.4676 34.7785 10.9765 36.188 8.63588 37.748C7.0755 39.5268 9.77193 40.5805 11.0996 41.3468L24.664 49.1875C26.156 50.0359 27.2373 51.0348 28.9208 51.0348C30.265 50.934 31.5544 50.4601 32.6438 49.6664C34.5601 48.558 36.4353 47.395 38.3516 46.2866C41.8282 44.2614 45.4964 42.4004 48.8499 40.211C48.6583 40.3342 48.8499 40.211 49.0552 40.0468C49.1621 39.9729 49.2627 39.8906 49.3563 39.8005C49.4521 39.7047 49.6711 39.39 49.6848 39.3763C49.819 39.1438 49.8854 38.8783 49.8765 38.61C49.7806 36.8859 47.2211 36.2153 45.9481 35.4901H45.8249L38.7759 31.385L33.3009 28.2104C31.6994 27.2935 30.0432 26.322 28.1269 26.842H28.2091C27.8351 26.897 27.4649 26.9746 27.1004 27.0746H26.9772C26.2219 27.3891 25.4978 27.774 24.8146 28.2241L21.9128 29.8524L15.9314 33.3418Z" fill="#CAD0F0"/>
</g>
<g style="mix-blend-mode:multiply" opacity="0.77">
<path d="M15.1513 33.3417C12.6876 34.7785 10.1964 36.188 7.85585 37.7479C6.29547 39.5268 9.00559 40.5804 10.3196 41.333L23.8977 49.1738C25.3759 50.0222 26.4572 51.0348 28.1408 51.0348C29.482 50.9395 30.7685 50.4649 31.8501 49.6664C33.7664 48.558 35.6416 47.3949 37.5578 46.2866C41.0344 44.2614 44.7027 42.4004 48.0561 40.211L48.2752 40.0468C48.3811 39.9773 48.4777 39.8946 48.5625 39.8005C48.6823 39.6673 48.7921 39.5255 48.891 39.3763C49.0311 39.1506 49.1024 38.8891 49.0964 38.6236C49.0006 36.8858 46.441 36.229 45.1681 35.5037H45.0312L37.9958 31.3986L32.5208 28.224C30.9194 27.3072 29.2631 26.3356 27.3469 26.8556H27.429C27.0551 26.9106 26.6848 26.9883 26.3203 27.0882H26.1972C25.4419 27.4028 24.7178 27.7876 24.0345 28.2377L21.1328 29.8523L15.1513 33.3417Z" fill="#C7CEF0"/>
</g>
<g style="mix-blend-mode:multiply" opacity="0.81">
<path d="M14.3711 33.3417C11.9073 34.7785 9.41615 36.188 7.07558 37.7479C5.5152 39.5268 8.22531 40.5668 9.53932 41.3331L23.1174 49.1601C24.5957 50.0222 25.6769 51.0348 27.3605 51.0348C28.7014 50.938 29.9875 50.4636 31.0699 49.6664C32.9861 48.558 34.8613 47.395 36.7775 46.2866C40.2542 44.2614 43.9224 42.4141 47.2759 40.211C47.0842 40.3341 47.2759 40.211 47.4812 40.0468L47.7823 39.8142C47.8781 39.7047 48.0972 39.3899 48.1109 39.3899C48.2451 39.1574 48.3114 38.8919 48.3024 38.6236C48.2203 36.8858 45.6607 36.2427 44.3878 35.5175L44.251 35.4354L37.2155 31.3303L31.7405 28.1556C30.1391 27.2388 28.4829 26.2673 26.5666 26.7872H26.6487C26.2748 26.8422 25.9046 26.9199 25.54 27.0198H25.4169C24.6616 27.3344 23.9375 27.7193 23.2543 28.1693L20.3525 29.8524L14.3711 33.3417Z" fill="#C5CCEF"/>
</g>
<g style="mix-blend-mode:multiply" opacity="0.84">
<path d="M13.591 33.3417C11.1273 34.7785 8.63611 36.188 6.29554 37.7479C4.73516 39.5268 7.44536 40.5531 8.75936 41.3194L22.3374 49.1601C23.8156 50.0085 24.8969 51.0348 26.5805 51.0348C27.9195 50.9294 29.2033 50.4558 30.2898 49.6664C32.2061 48.5443 34.0813 47.3813 35.9838 46.2729C39.4605 44.2477 43.1287 42.4004 46.4958 40.211C46.3042 40.3205 46.4959 40.211 46.7012 40.0331C46.8027 39.9629 46.8988 39.8852 46.9887 39.8005C47.1127 39.671 47.2228 39.5288 47.3172 39.3763C47.4598 39.1467 47.5312 38.8801 47.5224 38.61C47.4266 36.8722 44.867 36.2427 43.5941 35.5175L43.471 35.4354L36.4355 31.3303L30.9605 28.1556C29.3591 27.2388 27.7029 26.2673 25.7867 26.7872H25.8688C25.4949 26.8422 25.1246 26.9199 24.7601 27.0198H24.6369C23.8816 27.3344 23.1575 27.7193 22.4742 28.1693L19.5862 29.8524L13.591 33.3417Z" fill="#C3CAEE"/>
</g>
<g style="mix-blend-mode:multiply" opacity="0.87">
<path d="M12.8107 33.3417C10.3469 34.7785 7.85582 36.188 5.50156 37.7479C3.95487 39.5268 6.66501 40.5531 7.9927 41.3057L21.5707 49.1464C23.049 49.9948 24.1166 51.0348 25.8001 51.0348C27.1347 50.9283 28.4138 50.4547 29.4958 49.6664C31.412 48.558 33.2872 47.3949 35.2035 46.2729C38.6801 44.2614 42.3484 42.4004 45.7019 40.211C45.5239 40.3204 45.7018 40.211 45.9071 40.0331C46.0149 39.9656 46.1158 39.8877 46.2083 39.8005C46.328 39.6673 46.4378 39.5255 46.5368 39.3763C46.6679 39.1419 46.7385 38.8785 46.7421 38.61C46.6463 36.8722 44.0867 36.2564 42.8137 35.5312L42.6769 35.4491C40.3363 34.0807 38.0094 32.7123 35.6552 31.3439L30.1802 28.1693C28.5787 27.2525 26.9226 26.2809 25.0063 26.8009H25.061C24.6871 26.8559 24.3168 26.9336 23.9523 27.0335H23.8291C23.0738 27.3481 22.3498 27.7329 21.6665 28.183L18.7921 29.8524L12.8107 33.3417Z" fill="#C0C8EE"/>
</g>
<g style="mix-blend-mode:multiply" opacity="0.9">
<path d="M12.0306 33.3417C9.56689 34.7785 7.07581 36.188 4.72156 37.7479C3.17487 39.5268 5.89869 40.4846 7.21269 41.3057L20.7907 49.1328C22.2689 49.9949 23.3365 51.0348 25.0201 51.0348C26.3545 50.9276 27.6334 50.4541 28.7157 49.6664C30.632 48.558 32.5072 47.3949 34.4098 46.2729C37.9001 44.2614 41.5683 42.4004 44.9218 40.211C44.7439 40.3204 44.9217 40.211 45.1271 40.0331L45.4282 39.8005C45.524 39.7047 45.743 39.39 45.7567 39.3763C45.8909 39.1438 45.9573 38.8783 45.9484 38.61C45.8525 36.8721 43.293 36.27 42.0337 35.5448L41.8968 35.4627L34.8751 31.3575L29.4001 28.183C27.7987 27.2661 26.1425 26.2946 24.2263 26.8146H24.3084C23.9345 26.8696 23.5642 26.9472 23.1997 27.0472H23.0765C22.3212 27.3617 21.5971 27.7465 20.9138 28.1966L18.0121 29.8523L12.0306 33.3417Z" fill="#BEC6ED"/>
</g>
<g style="mix-blend-mode:multiply" opacity="0.94">
<path d="M11.2504 33.3417C8.78661 34.7785 6.29553 36.188 3.94128 37.7479C2.39459 39.5268 5.11842 40.4846 6.43242 41.292L20.0104 49.1328C21.4887 49.9812 22.5563 51.0348 24.2399 51.0348C25.5754 50.9326 26.8555 50.4586 27.9354 49.6664C29.8517 48.558 31.7132 47.395 33.6295 46.2866C37.1061 44.2614 40.7744 42.4004 44.1415 40.211C43.9636 40.3205 44.1415 40.211 44.3468 40.0331L44.6342 39.8005C44.754 39.6673 44.8638 39.5256 44.9627 39.3763C45.1074 39.1527 45.1792 38.8897 45.1681 38.6236C45.0723 36.8721 42.5127 36.27 41.2398 35.5448H41.1165L34.0948 31.4397L28.6198 28.2651C27.0184 27.3483 25.3622 26.3768 23.446 26.8967H23.5281C23.1542 26.9517 22.7839 27.0294 22.4194 27.1293H22.2962C21.5409 27.4439 20.8169 27.8287 20.1336 28.2787L17.2319 29.8524L11.2504 33.3417Z" fill="#BCC4EC"/>
</g>
<g style="mix-blend-mode:multiply" opacity="0.97">
<path d="M10.4699 33.3417C8.00619 34.7785 5.51502 36.188 3.16077 37.7479C1.61407 39.5268 4.3379 40.4846 5.65191 41.2783L19.2299 49.1191C20.7082 49.9675 21.7758 51.0348 23.4594 51.0348C24.7905 50.9315 26.066 50.4575 27.1414 49.6664C29.0576 48.558 30.9328 47.395 32.8353 46.2866C36.3257 44.2614 39.9939 42.4141 43.3474 40.211C43.1831 40.3205 43.3474 40.211 43.5527 40.0331L43.8538 39.8142C43.9496 39.7047 44.1823 39.3899 44.1823 39.3899C44.3134 39.1555 44.384 38.8922 44.3876 38.6236C44.2918 36.8721 41.6501 36.2837 40.4593 35.5585H40.3225L33.3145 31.4534L27.8394 28.2787C26.238 27.3619 24.5818 26.3904 22.6655 26.9103H22.7476C22.3737 26.9653 22.0035 27.0431 21.6389 27.143H21.5157C20.7604 27.4576 20.0364 27.8424 19.3532 28.2924L16.4514 29.8524L10.4699 33.3417Z" fill="#B9C2EC"/>
</g>
<g style="mix-blend-mode:multiply" opacity="0.5">
<path d="M43.594 38.5554C43.4982 36.8039 40.9386 36.2292 39.6794 35.5039L32.5345 31.3988L27.0595 28.2242C25.4581 27.3073 23.8018 26.3358 21.8856 26.8558H21.9677C21.5938 26.9108 21.2235 26.9884 20.859 27.0884H20.7359C19.9806 27.4029 19.2565 27.7878 18.5732 28.2379L15.6715 29.8525L9.69003 33.3282C7.22627 34.765 4.73511 36.1745 2.38085 37.7344C0.834159 39.5133 3.558 40.4712 4.88569 41.2648L18.4637 49.0919C19.942 49.954 20.9959 51.0213 22.6795 51.0213C24.0092 50.9117 25.283 50.4383 26.3614 49.6529C28.2777 48.5309 30.1392 47.3678 32.0554 46.2594C35.532 44.2342 39.2003 42.3869 42.5674 40.1975C42.28 40.3617 43.0054 39.8417 43.0739 39.787C43.1423 39.7322 43.3887 39.3628 43.4024 39.3628C43.5286 39.1123 43.5942 38.8358 43.594 38.5554Z" fill="#B7C0EB"/>
</g>
</g>
<path d="M0.42356 38.7468C-0.397692 38.2268 0.998413 26.6777 0.998413 26.6777L20.7632 15.197C21.3486 14.9 21.9957 14.7454 22.6521 14.7454C23.3085 14.7454 23.9556 14.9 24.541 15.197L44.429 26.6777C44.429 26.6777 45.7977 38.2405 44.7985 38.8426L24.6778 50.5833C24.0925 50.8802 23.4454 51.0349 22.789 51.0349C22.1326 51.0349 21.4855 50.8802 20.9001 50.5833L0.42356 38.7468Z" fill="#B7C0EB"/>
<path d="M45.209 13.2264C45.2154 13.2534 45.2154 13.2815 45.209 13.3085C45.2174 13.3306 45.2174 13.355 45.209 13.377C45.2149 13.4041 45.2149 13.4321 45.209 13.4591C45.209 13.4591 45.209 13.4591 45.209 13.5275C45.2149 13.5546 45.2149 13.5826 45.209 13.6096V13.7191L45.1133 13.8149C45.0803 13.8548 45.0436 13.8914 45.0037 13.9243L44.9216 13.9927H44.8395C44.8079 13.999 44.7753 13.999 44.7437 13.9927L44.6479 14.0612L24.6777 25.7472V50.1455L44.4425 38.6647H44.511H44.6068H44.689H44.7711L44.8668 38.5689V38.4868C44.8728 38.4598 44.8728 38.4318 44.8668 38.4047C44.8728 38.3777 44.8728 38.3497 44.8668 38.3226C44.8732 38.2957 44.8732 38.2675 44.8668 38.2405V38.1584V13.7601L45.209 13.2264Z" fill="#E4E7FB"/>
<path d="M1.01192 14.2392C0.794234 14.1399 0.606351 13.9853 0.467056 13.7909C0.327762 13.5964 0.2419 13.3688 0.218018 13.1308V37.5289C0.240593 37.7655 0.324406 37.9921 0.461208 38.1865C0.598011 38.3808 0.783094 38.5362 0.998217 38.6373L20.8999 50.118L20.9547 25.7472L1.01192 14.2392Z" fill="#EFF1FE"/>
<path d="M44.4288 12.0635C44.6544 12.1444 44.8494 12.293 44.9872 12.4889C45.1251 12.6849 45.1991 12.9186 45.1991 13.1582C45.1991 13.3977 45.1251 13.6315 44.9872 13.8274C44.8494 14.0233 44.6544 14.1719 44.4288 14.2528L24.6777 25.7472C24.0924 26.0441 23.4453 26.1989 22.7889 26.1989C22.1325 26.1989 21.4854 26.0441 20.9 25.7472L1.01205 14.2665C0.780004 14.1923 0.577582 14.0462 0.433942 13.8494C0.290303 13.6527 0.212891 13.4154 0.212891 13.1719C0.212891 12.9283 0.290303 12.691 0.433942 12.4943C0.577582 12.2975 0.780004 12.1514 1.01205 12.0772L20.7631 0.596469C21.3509 0.299434 22.0002 0.144714 22.6588 0.144714C23.3174 0.144714 23.9668 0.299434 24.5546 0.596469L44.4288 12.0635Z" fill="white"/>
<path d="M22.7891 25.9798C22.1631 25.996 21.5441 25.8449 20.996 25.542L1.10799 14.0613C0.918543 13.9835 0.753681 13.856 0.630797 13.6922C0.507914 13.5284 0.431567 13.3344 0.409912 13.1308C0.435304 12.932 0.511641 12.7431 0.631549 12.5824C0.751457 12.4218 0.910867 12.2949 1.09429 12.214L20.8591 0.733236C21.4058 0.441023 22.0187 0.294909 22.6385 0.309041C23.2669 0.2951 23.8887 0.441064 24.4452 0.733236L44.3333 12.214C44.5185 12.296 44.6791 12.4251 44.7991 12.5883C44.9191 12.7515 44.9945 12.9432 45.0176 13.1444C44.999 13.3435 44.9268 13.5339 44.8087 13.6953C44.6906 13.8567 44.5311 13.9832 44.347 14.0613L24.5822 25.5556C24.0305 25.8478 23.4132 25.9939 22.7891 25.9798Z" fill="url(#paint0_linear_156_20263)"/>
<path d="M24.3906 50.2414L24.8696 49.9814V25.6103L24.4316 25.8429H24.3495H24.1442H24.0621H23.9252H23.8293H23.6788H23.5693H23.2682H22.0911H21.9541H21.8447H21.6667H21.5846L21.2971 25.7471H21.1603L20.6675 25.4734V49.9677L21.1192 50.214H21.2424L21.5298 50.3098H21.6256H21.7899H21.8994H22.0363H23.2135H23.5283H23.6104H23.7609H23.8705H23.9936C24.0663 50.2944 24.1358 50.2667 24.1989 50.2277L24.3906 50.2414Z" fill="url(#paint1_linear_156_20263)"/>
<defs>
<linearGradient id="paint0_linear_156_20263" x1="31207.1" y1="15732.4" x2="29753.3" y2="15732.4" gradientUnits="userSpaceOnUse">
<stop stop-color="#F1F4FE"/>
<stop offset="0.58" stop-color="#F7F9FE"/>
<stop offset="1" stop-color="white"/>
</linearGradient>
<linearGradient id="paint1_linear_156_20263" x1="2519.6" y1="52006.4" x2="2529.48" y2="52006.4" gradientUnits="userSpaceOnUse">
<stop stop-color="#EFF1FE"/>
<stop offset="1" stop-color="#E4E7FB"/>
</linearGradient>
</defs>
</svg>
