<svg width="944" height="892" viewBox="0 0 944 892" fill="none" xmlns="http://www.w3.org/2000/svg">
<path d="M478.694 57.8725L-372.498 597.852M629.964 61.2619L-304.091 669.395" stroke="#0194FF"/>
<path d="M161.945 33.0136L-546.146 475.05" stroke="#0194FF"/>
<path d="M307.418 36.0925L-485.146 553.832" stroke="#0194FF"/>
<path d="M378.516 369.591L714.07 130.792" stroke="#0595FF"/>
<path d="M456.744 422.085L713.04 237.84" stroke="#0595FF"/>
<path d="M539.088 475.609L713.041 351.063" stroke="black" stroke-opacity="0.51"/>
<path d="M43.11 443.638L-587.853 39.1216" stroke="#0096B7"/>
<path d="M127.092 392.968L-408.146 46.0923" stroke="#0096B7"/>
<path d="M205.747 339.415L-247.146 47.0923" stroke="#0096B7"/>
<path d="M7.39111 3L653.865 409.526" stroke="#2F9BFF" stroke-opacity="0.78"/>
<path d="M-29.3665 80.4767L612.623 494.049" stroke="#227AFF" stroke-opacity="0.67"/>
<path d="M260.884 56.123L806.648 411.732" stroke="#2F9BFF" stroke-opacity="0.78"/>
<path d="M416.318 59.1549L797.608 306.623" stroke="#2F9BFF" stroke-opacity="0.78"/>
<path d="M588.388 68.0925L828.726 219.123" stroke="#20D7FF"/>
<g clip-path="url(#clip0_47_710)">
<g opacity="0.2">
<path opacity="0.4" d="M289.575 180.262L370.618 233.031L451.661 180.262L370.618 127.494L289.575 180.262ZM370.927 126.085L453.206 179.659C453.618 179.927 453.618 180.598 453.206 180.866L370.927 234.44C370.736 234.565 370.5 234.565 370.309 234.44L288.03 180.866C287.618 180.598 287.618 179.927 288.03 179.659L370.309 126.085C370.5 125.96 370.736 125.96 370.927 126.085Z" fill="#85CCFF"/>
<path opacity="0.4" d="M371.174 233.247L452.217 286.016L533.26 233.247L452.217 180.478L371.174 233.247ZM452.526 179.069L534.805 232.643C535.217 232.911 535.217 233.582 534.805 233.851L452.526 287.425C452.335 287.549 452.099 287.549 451.908 287.425L369.629 233.851C369.217 233.582 369.217 232.911 369.629 232.643L451.908 179.069C452.099 178.945 452.335 178.945 452.526 179.069Z" fill="#85CCFF"/>
<path opacity="0.4" d="M533.816 233.463L452.773 286.232L533.816 339.001L614.859 286.232L533.816 233.463ZM534.125 232.054L616.404 285.628C616.816 285.896 616.816 286.567 616.404 286.835L534.125 340.409C533.934 340.534 533.698 340.534 533.507 340.409L451.228 286.835C450.816 286.567 450.816 285.896 451.228 285.628L533.507 232.054C533.698 231.929 533.934 231.929 534.125 232.054Z" fill="#85CCFF"/>
<path opacity="0.4" d="M615.415 286.447L534.372 339.216L615.415 391.985L696.458 339.216L615.415 286.447ZM615.724 285.038L698.003 338.612C698.415 338.881 698.415 339.552 698.003 339.82L615.724 393.394C615.533 393.518 615.297 393.518 615.106 393.394L532.827 339.82C532.415 339.552 532.415 338.881 532.827 338.612L615.106 285.038C615.297 284.914 615.533 284.914 615.724 285.038Z" fill="#85CCFF"/>
<path opacity="0.4" d="M615.972 392.201L697.014 444.97L778.057 392.201L697.014 339.432L615.972 392.201ZM697.323 338.023L779.602 391.597C780.015 391.865 780.015 392.536 779.602 392.805L697.323 446.378C697.132 446.503 696.896 446.503 696.705 446.378L614.426 392.805C614.014 392.536 614.014 391.865 614.426 391.597L696.705 338.023C696.896 337.899 697.132 337.899 697.323 338.023Z" fill="#85CCFF"/>
<path opacity="0.4" d="M697.571 445.185L778.613 497.954L859.656 445.185L778.613 392.417L697.571 445.185ZM778.923 391.008L861.202 444.582C861.614 444.85 861.614 445.521 861.202 445.789L778.923 499.363C778.731 499.488 778.496 499.488 778.304 499.363L696.025 445.789C695.613 445.521 695.613 444.85 696.025 444.582L778.304 391.008C778.496 390.883 778.731 390.883 778.923 391.008Z" fill="#85CCFF"/>
<path opacity="0.4" d="M207.976 233.247L289.019 286.016L370.061 233.247L289.019 180.478L207.976 233.247ZM289.328 179.069L371.607 232.643C372.019 232.911 372.019 233.582 371.607 233.851L289.328 287.425C289.137 287.549 288.901 287.549 288.71 287.425L206.431 233.851C206.018 233.582 206.018 232.911 206.431 232.643L288.71 179.069C288.901 178.945 289.137 178.945 289.328 179.069Z" fill="#85CCFF"/>
<path opacity="0.4" d="M289.575 286.232L370.618 339.001L451.661 286.232L370.618 233.463L289.575 286.232ZM370.927 232.054L453.206 285.628C453.618 285.896 453.618 286.567 453.206 286.835L370.927 340.409C370.736 340.534 370.5 340.534 370.309 340.409L288.03 286.835C287.618 286.567 287.618 285.896 288.03 285.628L370.309 232.054C370.5 231.929 370.736 231.929 370.927 232.054Z" fill="#85CCFF"/>
<path opacity="0.4" d="M371.174 339.216L452.217 391.985L533.26 339.216L452.217 286.447L371.174 339.216ZM452.526 285.038L534.805 338.612C535.217 338.881 535.217 339.552 534.805 339.82L452.526 393.394C452.335 393.518 452.099 393.518 451.908 393.394L369.629 339.82C369.217 339.552 369.217 338.881 369.629 338.612L451.908 285.038C452.099 284.914 452.335 284.914 452.526 285.038Z" fill="#85CCFF"/>
<path opacity="0.4" d="M452.773 392.201L533.816 444.97L614.859 392.201L533.816 339.432L452.773 392.201ZM534.125 338.023L616.404 391.597C616.816 391.865 616.816 392.536 616.404 392.805L534.125 446.378C533.934 446.503 533.698 446.503 533.507 446.378L451.228 392.805C450.816 392.536 450.816 391.865 451.228 391.597L533.507 338.023C533.698 337.899 533.934 337.899 534.125 338.023Z" fill="#85CCFF"/>
<path opacity="0.4" d="M534.372 445.185L615.415 497.954L696.458 445.185L615.415 392.417L534.372 445.185ZM615.724 391.008L698.003 444.582C698.415 444.85 698.415 445.521 698.003 445.789L615.724 499.363C615.533 499.488 615.297 499.488 615.106 499.363L532.827 445.789C532.415 445.521 532.415 444.85 532.827 444.582L615.106 391.008C615.297 390.883 615.533 390.883 615.724 391.008Z" fill="#85CCFF"/>
<path opacity="0.4" d="M615.972 498.17L697.014 550.939L778.057 498.17L697.014 445.401L615.972 498.17ZM697.323 443.992L779.602 497.566C780.015 497.834 780.015 498.505 779.602 498.774L697.323 552.348C697.132 552.472 696.896 552.472 696.705 552.348L614.426 498.774C614.014 498.505 614.014 497.834 614.426 497.566L696.705 443.992C696.896 443.868 697.132 443.868 697.323 443.992Z" fill="#85CCFF"/>
<path opacity="0.4" d="M697.571 551.155L778.613 603.923L859.656 551.155L778.613 498.386L697.571 551.155ZM778.923 496.977L861.202 550.551C861.614 550.819 861.614 551.49 861.202 551.758L778.923 605.332C778.731 605.457 778.496 605.457 778.304 605.332L696.025 551.758C695.613 551.49 695.613 550.819 696.025 550.551L778.304 496.977C778.496 496.852 778.731 496.852 778.923 496.977Z" fill="#85CCFF"/>
<path opacity="0.4" d="M126.377 286.232L207.42 339.001L288.462 286.232L207.42 233.463L126.377 286.232ZM207.729 232.054L290.008 285.628C290.42 285.896 290.42 286.567 290.008 286.835L207.729 340.409C207.538 340.534 207.302 340.534 207.111 340.409L124.832 286.835C124.419 286.567 124.419 285.896 124.832 285.628L207.111 232.054C207.302 231.929 207.538 231.929 207.729 232.054Z" fill="#85CCFF"/>
<path opacity="0.4" d="M289.019 286.447L207.976 339.216L289.019 391.985L370.061 339.216L289.019 286.447ZM289.328 285.038L371.607 338.612C372.019 338.881 372.019 339.552 371.607 339.82L289.328 393.394C289.137 393.518 288.901 393.518 288.71 393.394L206.431 339.82C206.018 339.552 206.018 338.881 206.431 338.612L288.71 285.038C288.901 284.914 289.137 284.914 289.328 285.038Z" fill="#85CCFF"/>
<path opacity="0.4" d="M289.575 392.201L370.618 444.97L451.661 392.201L370.618 339.432L289.575 392.201ZM370.927 338.023L453.206 391.597C453.618 391.865 453.618 392.536 453.206 392.805L370.927 446.378C370.736 446.503 370.5 446.503 370.309 446.378L288.03 392.805C287.618 392.536 287.618 391.865 288.03 391.597L370.309 338.023C370.5 337.899 370.736 337.899 370.927 338.023Z" fill="#85CCFF"/>
<path opacity="0.4" d="M371.174 445.185L452.217 497.954L533.26 445.185L452.217 392.417L371.174 445.185ZM452.526 391.008L534.805 444.582C535.217 444.85 535.217 445.521 534.805 445.789L452.526 499.363C452.335 499.488 452.099 499.488 451.908 499.363L369.629 445.789C369.217 445.521 369.217 444.85 369.629 444.582L451.908 391.008C452.099 390.883 452.335 390.883 452.526 391.008Z" fill="#85CCFF"/>
<path opacity="0.4" d="M452.773 498.17L533.816 550.939L614.859 498.17L533.816 445.401L452.773 498.17ZM534.125 443.992L616.404 497.566C616.816 497.834 616.816 498.505 616.404 498.774L534.125 552.348C533.934 552.472 533.698 552.472 533.507 552.348L451.228 498.774C450.816 498.505 450.816 497.834 451.228 497.566L533.507 443.992C533.698 443.868 533.934 443.868 534.125 443.992Z" fill="#85CCFF"/>
<path opacity="0.4" d="M534.372 551.155L615.415 603.923L696.458 551.155L615.415 498.386L534.372 551.155ZM615.724 496.977L698.003 550.551C698.415 550.819 698.415 551.49 698.003 551.758L615.724 605.332C615.533 605.457 615.297 605.457 615.106 605.332L532.827 551.758C532.415 551.49 532.415 550.819 532.827 550.551L615.106 496.977C615.297 496.852 615.533 496.852 615.724 496.977Z" fill="#85CCFF"/>
<path opacity="0.4" d="M615.972 604.139L697.014 656.908L778.057 604.139L697.014 551.37L615.972 604.139ZM697.323 549.961L779.602 603.535C780.015 603.804 780.015 604.474 779.602 604.743L697.323 658.317C697.132 658.441 696.896 658.441 696.705 658.317L614.426 604.743C614.014 604.474 614.014 603.804 614.426 603.535L696.705 549.961C696.896 549.837 697.132 549.837 697.323 549.961Z" fill="#85CCFF"/>
<path opacity="0.4" d="M125.821 286.447L44.7778 339.216L125.821 391.985L206.863 339.216L125.821 286.447ZM126.13 285.038L208.409 338.612C208.821 338.881 208.821 339.552 208.409 339.82L126.13 393.394C125.938 393.518 125.703 393.518 125.511 393.394L43.2324 339.82C42.8202 339.552 42.8202 338.881 43.2324 338.612L125.511 285.038C125.703 284.914 125.938 284.914 126.13 285.038Z" fill="#85CCFF"/>
<path opacity="0.4" d="M126.377 392.201L207.42 444.97L288.462 392.201L207.42 339.432L126.377 392.201ZM207.729 338.023L290.008 391.597C290.42 391.865 290.42 392.536 290.008 392.805L207.729 446.378C207.538 446.503 207.302 446.503 207.111 446.378L124.832 392.805C124.419 392.536 124.419 391.865 124.832 391.597L207.111 338.023C207.302 337.899 207.538 337.899 207.729 338.023Z" fill="#85CCFF"/>
<path opacity="0.4" d="M207.976 445.185L289.019 497.954L370.061 445.185L289.019 392.417L207.976 445.185ZM289.328 391.008L371.607 444.582C372.019 444.85 372.019 445.521 371.607 445.789L289.328 499.363C289.137 499.488 288.901 499.488 288.71 499.363L206.431 445.789C206.018 445.521 206.018 444.85 206.431 444.582L288.71 391.008C288.901 390.883 289.137 390.883 289.328 391.008Z" fill="#85CCFF"/>
<path opacity="0.4" d="M289.575 498.17L370.618 550.939L451.661 498.17L370.618 445.401L289.575 498.17ZM370.927 443.992L453.206 497.566C453.618 497.834 453.618 498.505 453.206 498.774L370.927 552.348C370.736 552.472 370.5 552.472 370.309 552.348L288.03 498.774C287.618 498.505 287.618 497.834 288.03 497.566L370.309 443.992C370.5 443.868 370.736 443.868 370.927 443.992Z" fill="#85CCFF"/>
<path opacity="0.4" d="M371.174 551.155L452.217 603.923L533.26 551.155L452.217 498.386L371.174 551.155ZM452.526 496.977L534.805 550.551C535.217 550.819 535.217 551.49 534.805 551.758L452.526 605.332C452.335 605.457 452.099 605.457 451.908 605.332L369.629 551.758C369.217 551.49 369.217 550.819 369.629 550.551L451.908 496.977C452.099 496.852 452.335 496.852 452.526 496.977Z" fill="#85CCFF"/>
<path opacity="0.4" d="M452.773 604.139L533.816 656.908L614.859 604.139L533.816 551.37L452.773 604.139ZM534.125 549.961L616.404 603.535C616.816 603.804 616.816 604.474 616.404 604.743L534.125 658.317C533.934 658.441 533.698 658.441 533.507 658.317L451.228 604.743C450.816 604.474 450.816 603.804 451.228 603.535L533.507 549.961C533.698 549.837 533.934 549.837 534.125 549.961Z" fill="#85CCFF"/>
<path opacity="0.4" d="M534.372 657.124L615.415 709.893L696.458 657.124L615.415 604.355L534.372 657.124ZM615.724 602.946L698.003 656.52C698.415 656.788 698.415 657.459 698.003 657.727L615.724 711.301C615.533 711.426 615.297 711.426 615.106 711.301L532.827 657.727C532.415 657.459 532.415 656.788 532.827 656.52L615.106 602.946C615.297 602.822 615.533 602.822 615.724 602.946Z" fill="#85CCFF"/>
<path opacity="0.4" d="M-36.8213 392.201L44.2214 444.97L125.264 392.201L44.2214 339.432L-36.8213 392.201ZM44.5305 338.023L126.81 391.597C127.222 391.865 127.222 392.536 126.81 392.805L44.5305 446.378C44.3392 446.503 44.1036 446.503 43.9123 446.378L-38.3668 392.805C-38.7789 392.536 -38.7789 391.865 -38.3668 391.597L43.9123 338.023C44.1036 337.899 44.3392 337.899 44.5305 338.023Z" fill="#85CCFF"/>
<path opacity="0.4" d="M44.7778 445.185L125.821 497.954L206.863 445.185L125.821 392.417L44.7778 445.185ZM126.13 391.008L208.409 444.582C208.821 444.85 208.821 445.521 208.409 445.789L126.13 499.363C125.938 499.488 125.703 499.488 125.511 499.363L43.2324 445.789C42.8202 445.521 42.8202 444.85 43.2324 444.582L125.511 391.008C125.703 390.883 125.938 390.883 126.13 391.008Z" fill="#85CCFF"/>
<path opacity="0.4" d="M126.377 498.17L207.42 550.939L288.462 498.17L207.42 445.401L126.377 498.17ZM207.729 443.992L290.008 497.566C290.42 497.834 290.42 498.505 290.008 498.774L207.729 552.348C207.538 552.472 207.302 552.472 207.111 552.348L124.832 498.774C124.419 498.505 124.419 497.834 124.832 497.566L207.111 443.992C207.302 443.868 207.538 443.868 207.729 443.992Z" fill="#85CCFF"/>
<path opacity="0.4" d="M207.976 551.155L289.019 603.923L370.061 551.155L289.019 498.386L207.976 551.155ZM289.328 496.977L371.607 550.551C372.019 550.819 372.019 551.49 371.607 551.758L289.328 605.332C289.137 605.457 288.901 605.457 288.71 605.332L206.431 551.758C206.018 551.49 206.018 550.819 206.431 550.551L288.71 496.977C288.901 496.852 289.137 496.852 289.328 496.977Z" fill="#85CCFF"/>
<path opacity="0.4" d="M289.575 604.139L370.618 656.908L451.661 604.139L370.618 551.37L289.575 604.139ZM370.927 549.961L453.206 603.535C453.618 603.804 453.618 604.474 453.206 604.743L370.927 658.317C370.736 658.441 370.5 658.441 370.309 658.317L288.03 604.743C287.618 604.474 287.618 603.804 288.03 603.535L370.309 549.961C370.5 549.837 370.736 549.837 370.927 549.961Z" fill="#85CCFF"/>
<path opacity="0.4" d="M371.174 657.124L452.217 709.893L533.26 657.124L452.217 604.355L371.174 657.124ZM452.526 602.946L534.805 656.52C535.217 656.788 535.217 657.459 534.805 657.727L452.526 711.301C452.335 711.426 452.099 711.426 451.908 711.301L369.629 657.727C369.217 657.459 369.217 656.788 369.629 656.52L451.908 602.946C452.099 602.822 452.335 602.822 452.526 602.946Z" fill="#85CCFF"/>
<path opacity="0.4" d="M452.773 710.108L533.816 762.877L614.859 710.108L533.816 657.339L452.773 710.108ZM534.125 655.931L616.404 709.504C616.816 709.773 616.816 710.444 616.404 710.712L534.125 764.286C533.934 764.41 533.698 764.41 533.507 764.286L451.228 710.712C450.816 710.444 450.816 709.773 451.228 709.504L533.507 655.931C533.698 655.806 533.934 655.806 534.125 655.931Z" fill="#85CCFF"/>
<path opacity="0.4" d="M-118.42 445.185L-37.3777 497.954L43.6651 445.185L-37.3777 392.417L-118.42 445.185ZM-37.0686 391.008L45.2105 444.582C45.6226 444.85 45.6226 445.521 45.2105 445.789L-37.0686 499.363C-37.2598 499.488 -37.4955 499.488 -37.6867 499.363L-119.966 445.789C-120.378 445.521 -120.378 444.85 -119.966 444.582L-37.6867 391.008C-37.4955 390.883 -37.2598 390.883 -37.0686 391.008Z" fill="#85CCFF"/>
<path opacity="0.4" d="M-36.8213 498.17L44.2214 550.939L125.264 498.17L44.2214 445.401L-36.8213 498.17ZM44.5305 443.992L126.81 497.566C127.222 497.834 127.222 498.505 126.81 498.774L44.5305 552.348C44.3392 552.472 44.1036 552.472 43.9123 552.348L-38.3668 498.774C-38.7789 498.505 -38.7789 497.834 -38.3668 497.566L43.9123 443.992C44.1036 443.868 44.3392 443.868 44.5305 443.992Z" fill="#85CCFF"/>
<path opacity="0.4" d="M44.7778 551.155L125.821 603.923L206.863 551.155L125.821 498.386L44.7778 551.155ZM126.13 496.977L208.409 550.551C208.821 550.819 208.821 551.49 208.409 551.758L126.13 605.332C125.938 605.457 125.703 605.457 125.511 605.332L43.2324 551.758C42.8202 551.49 42.8202 550.819 43.2324 550.551L125.511 496.977C125.703 496.852 125.938 496.852 126.13 496.977Z" fill="#85CCFF"/>
<path opacity="0.4" d="M126.377 604.139L207.42 656.908L288.462 604.139L207.42 551.37L126.377 604.139ZM207.729 549.961L290.008 603.535C290.42 603.804 290.42 604.474 290.008 604.743L207.729 658.317C207.538 658.441 207.302 658.441 207.111 658.317L124.832 604.743C124.419 604.474 124.419 603.804 124.832 603.535L207.111 549.961C207.302 549.837 207.538 549.837 207.729 549.961Z" fill="#85CCFF"/>
<path opacity="0.4" d="M207.976 657.124L289.019 709.893L370.061 657.124L289.019 604.355L207.976 657.124ZM289.328 602.946L371.607 656.52C372.019 656.788 372.019 657.459 371.607 657.727L289.328 711.301C289.137 711.426 288.901 711.426 288.71 711.301L206.431 657.727C206.018 657.459 206.018 656.788 206.431 656.52L288.71 602.946C288.901 602.822 289.137 602.822 289.328 602.946Z" fill="#85CCFF"/>
<path opacity="0.4" d="M289.575 710.108L370.618 762.877L451.661 710.108L370.618 657.339L289.575 710.108ZM370.927 655.931L453.206 709.504C453.618 709.773 453.618 710.444 453.206 710.712L370.927 764.286C370.736 764.41 370.5 764.41 370.309 764.286L288.03 710.712C287.618 710.444 287.618 709.773 288.03 709.504L370.309 655.931C370.5 655.806 370.736 655.806 370.927 655.931Z" fill="#85CCFF"/>
<path opacity="0.4" d="M371.174 763.093L452.217 815.862L533.26 763.093L452.217 710.324L371.174 763.093ZM452.526 708.915L534.805 762.489C535.217 762.757 535.217 763.428 534.805 763.697L452.526 817.271C452.335 817.395 452.099 817.395 451.908 817.271L369.629 763.697C369.217 763.428 369.217 762.757 369.629 762.489L451.908 708.915C452.099 708.791 452.335 708.791 452.526 708.915Z" fill="#85CCFF"/>
<path opacity="0.4" d="M-118.42 551.155L-37.3777 603.923L43.6651 551.155L-37.3777 498.386L-118.42 551.155ZM-37.0686 496.977L45.2105 550.551C45.6226 550.819 45.6226 551.49 45.2105 551.758L-37.0686 605.332C-37.2598 605.457 -37.4955 605.457 -37.6867 605.332L-119.966 551.758C-120.378 551.49 -120.378 550.819 -119.966 550.551L-37.6867 496.977C-37.4955 496.852 -37.2598 496.852 -37.0686 496.977Z" fill="#85CCFF"/>
<path opacity="0.4" d="M-36.8213 604.139L44.2214 656.908L125.264 604.139L44.2214 551.37L-36.8213 604.139ZM44.5305 549.961L126.81 603.535C127.222 603.804 127.222 604.474 126.81 604.743L44.5305 658.317C44.3392 658.441 44.1036 658.441 43.9123 658.317L-38.3668 604.743C-38.7789 604.474 -38.7789 603.804 -38.3668 603.535L43.9123 549.961C44.1036 549.837 44.3392 549.837 44.5305 549.961Z" fill="#85CCFF"/>
<path opacity="0.4" d="M44.7778 657.124L125.821 709.893L206.863 657.124L125.821 604.355L44.7778 657.124ZM126.13 602.946L208.409 656.52C208.821 656.788 208.821 657.459 208.409 657.727L126.13 711.301C125.938 711.426 125.703 711.426 125.511 711.301L43.2324 657.727C42.8202 657.459 42.8202 656.788 43.2324 656.52L125.511 602.946C125.703 602.822 125.938 602.822 126.13 602.946Z" fill="#85CCFF"/>
<path opacity="0.4" d="M126.377 710.108L207.42 762.877L288.462 710.108L207.42 657.339L126.377 710.108ZM207.729 655.931L290.008 709.504C290.42 709.773 290.42 710.444 290.008 710.712L207.729 764.286C207.538 764.41 207.302 764.41 207.111 764.286L124.832 710.712C124.419 710.444 124.419 709.773 124.832 709.504L207.111 655.931C207.302 655.806 207.538 655.806 207.729 655.931Z" fill="#85CCFF"/>
<path opacity="0.4" d="M207.976 763.093L289.019 815.862L370.061 763.093L289.019 710.324L207.976 763.093ZM289.328 708.915L371.607 762.489C372.019 762.757 372.019 763.428 371.607 763.697L289.328 817.271C289.137 817.395 288.901 817.395 288.71 817.271L206.431 763.697C206.018 763.428 206.018 762.757 206.431 762.489L288.71 708.915C288.901 708.791 289.137 708.791 289.328 708.915Z" fill="#85CCFF"/>
<path opacity="0.4" d="M289.575 816.077L370.618 868.846L451.661 816.077L370.618 763.308L289.575 816.077ZM370.927 761.9L453.206 815.473C453.618 815.742 453.618 816.413 453.206 816.681L370.927 870.255C370.736 870.379 370.5 870.379 370.309 870.255L288.03 816.681C287.618 816.413 287.618 815.742 288.03 815.473L370.309 761.9C370.5 761.775 370.736 761.775 370.927 761.9Z" fill="#85CCFF"/>
</g>
</g>
<path d="M-94.1465 17.5925V410.093V576.093V742.093L-38.1465 513.093L268.854 298.093L682.015 597.389L801.414 424.466L870.377 276.246L856.996 136.261L716.854 17.5925H-94.1465Z" fill="url(#paint0_linear_47_710)"/>
<path d="M254.354 521.093L208.854 551.093L126.854 496.093L-1.14648 576.093" stroke="#00EBFF" stroke-width="1.188"/>
<path d="M859.354 553.055L776.625 605.035L696.854 553.055" stroke="#00EBFF" stroke-width="1.188"/>
<path fill-rule="evenodd" clip-rule="evenodd" d="M380.988 554.989V234.601H538.559V554.989L459.774 606.072L380.988 554.989Z" fill="url(#paint1_linear_47_710)"/>
<path fill-rule="evenodd" clip-rule="evenodd" d="M380.988 554.989V234.601L459.774 252.758V606.072L380.988 554.989Z" fill="url(#paint2_linear_47_710)"/>
<path fill-rule="evenodd" clip-rule="evenodd" d="M380.982 355.517V353.62L459.773 404.702L538.557 353.705V355.603L459.773 406.638L380.982 355.517Z" fill="url(#paint3_linear_47_710)"/>
<path fill-rule="evenodd" clip-rule="evenodd" d="M380.982 315.84V313.944L459.773 365.026L538.557 314.029V315.927L459.773 366.961L380.982 315.84Z" fill="url(#paint4_linear_47_710)"/>
<path fill-rule="evenodd" clip-rule="evenodd" d="M380.982 276.164V274.268L459.773 325.35L538.557 274.352V276.25L459.773 327.285L380.982 276.164Z" fill="url(#paint5_linear_47_710)"/>
<path fill-rule="evenodd" clip-rule="evenodd" d="M380.982 395.193V393.297L459.773 444.379L538.557 393.382V395.28L459.773 446.314L380.982 395.193Z" fill="url(#paint6_linear_47_710)"/>
<path fill-rule="evenodd" clip-rule="evenodd" d="M380.982 434.87V432.973L459.773 484.055L538.557 433.058V434.956L459.773 485.991L380.982 434.87Z" fill="url(#paint7_linear_47_710)"/>
<path fill-rule="evenodd" clip-rule="evenodd" d="M380.982 474.546V472.65L459.773 523.732L538.557 472.735V474.633L459.773 525.667L380.982 474.546Z" fill="url(#paint8_linear_47_710)"/>
<path fill-rule="evenodd" clip-rule="evenodd" d="M380.982 475.181V474.555L459.774 525.637L538.559 474.636V475.274L459.774 526.302L380.982 475.181Z" fill="url(#paint9_linear_47_710)"/>
<path fill-rule="evenodd" clip-rule="evenodd" d="M380.982 514.223V512.326L459.773 563.408L538.557 512.411V514.309L459.773 565.344L380.982 514.223Z" fill="url(#paint10_linear_47_710)"/>
<path fill-rule="evenodd" clip-rule="evenodd" d="M380.988 234.601L459.774 183.518L538.559 234.601L459.774 285.685L380.988 234.601Z" fill="#66DAFF"/>
<path fill-rule="evenodd" clip-rule="evenodd" d="M422.611 235.098L460.269 210.3L497.927 235.098L460.269 259.895L422.611 235.098Z" fill="url(#paint11_linear_47_710)"/>
<path opacity="0.5" fill-rule="evenodd" clip-rule="evenodd" d="M422.611 235.098V130.947H497.927V235.098L460.269 210.314L422.611 235.098Z" fill="url(#paint12_linear_47_710)"/>
<path opacity="0.5" fill-rule="evenodd" clip-rule="evenodd" d="M436.485 226.17V113.093H485.044V226.17L460.286 210.298L436.485 226.17Z" fill="url(#paint13_linear_47_710)"/>
<path fill-rule="evenodd" clip-rule="evenodd" d="M538.421 553.989V332.792H695.991V553.989L617.206 605.072L538.421 553.989Z" fill="url(#paint14_linear_47_710)"/>
<path fill-rule="evenodd" clip-rule="evenodd" d="M538.421 553.989V332.792L617.206 350.949V605.072L538.421 553.989Z" fill="url(#paint15_linear_47_710)"/>
<path fill-rule="evenodd" clip-rule="evenodd" d="M538.421 332.793L617.206 281.709L695.991 332.793L617.206 383.876L538.421 332.793Z" fill="#66DAFF"/>
<mask id="mask0_47_710" style="mask-type:alpha" maskUnits="userSpaceOnUse" x="567" y="299" width="102" height="67">
<path d="M567.16 332.297L617.701 299.564L668.243 332.297L617.701 365.03L567.16 332.297Z" fill="white"/>
</mask>
<g mask="url(#mask0_47_710)">
<path d="M567.16 332.297L617.701 299.564L668.243 332.297L617.701 365.03L567.16 332.297Z" fill="url(#paint16_linear_47_710)"/>
<path fill-rule="evenodd" clip-rule="evenodd" d="M567.16 338.248L617.701 305.515L668.243 338.248L617.701 370.981L567.16 338.248Z" fill="url(#paint17_linear_47_710)"/>
</g>
<path d="M596.89 559.832C596.89 560.106 597.112 560.472 597.386 560.649C597.659 560.826 597.881 560.747 597.881 560.473V371.116C597.881 370.842 597.659 370.477 597.386 370.3C597.112 370.122 596.89 370.201 596.89 370.475V559.832Z" fill="url(#paint18_linear_47_710)"/>
<path d="M577.07 547.011C577.07 547.285 577.292 547.651 577.566 547.828C577.839 548.005 578.061 547.926 578.061 547.652V358.295C578.061 358.021 577.839 357.656 577.566 357.479C577.292 357.302 577.07 357.38 577.07 357.654V547.011Z" fill="url(#paint19_linear_47_710)"/>
<path d="M557.25 534.19C557.25 534.464 557.472 534.829 557.745 535.006C558.019 535.183 558.241 535.105 558.241 534.831V345.474C558.241 345.2 558.019 344.834 557.745 344.657C557.472 344.48 557.25 344.559 557.25 344.833V534.19Z" fill="url(#paint20_linear_47_710)"/>
<path d="M538.414 522.498C538.414 522.772 538.636 523.137 538.909 523.314C539.183 523.491 539.405 523.413 539.405 523.139V333.184L538.909 332.965L538.414 332.803V522.498Z" fill="url(#paint21_linear_47_710)"/>
<path fill-rule="evenodd" clip-rule="evenodd" d="M302.495 605.175V398.856H460.065V605.175L381.28 656.258L302.495 605.175Z" fill="url(#paint22_linear_47_710)"/>
<path fill-rule="evenodd" clip-rule="evenodd" d="M302.495 605.175V398.856L381.28 417.014V656.258L302.495 605.175Z" fill="url(#paint23_linear_47_710)"/>
<path fill-rule="evenodd" clip-rule="evenodd" d="M302.495 398.857L381.28 347.774L460.065 398.857L381.28 449.941L302.495 398.857Z" fill="url(#paint24_linear_47_710)"/>
<path fill-rule="evenodd" clip-rule="evenodd" d="M332.225 398.857V393.936H431.326V398.857L381.775 431.094L332.225 398.857Z" fill="#00EBFF"/>
<path fill-rule="evenodd" clip-rule="evenodd" d="M332.225 398.857V393.936L381.775 413.736V431.094L332.225 398.857Z" fill="#00EBFF"/>
<path fill-rule="evenodd" clip-rule="evenodd" d="M332.225 393.898L381.775 361.661L431.326 393.898L381.775 426.135L332.225 393.898Z" fill="url(#paint25_linear_47_710)"/>
<path fill-rule="evenodd" clip-rule="evenodd" d="M381.28 348.955L458.243 398.857L381.28 448.759L304.316 398.857L381.28 348.955Z" stroke="#00EBFF" stroke-width="2"/>
<path d="M381.502 448.941V558.097" stroke="#00EBFF" stroke-width="2"/>
<path d="M483.358 233.876L461.101 247.822L461.128 217.985L483.358 204.058V233.876Z" fill="url(#paint26_linear_47_710)"/>
<path d="M438.854 233.876L461.101 247.823L461.128 217.985L438.863 204.019L438.854 233.876Z" fill="url(#paint27_linear_47_710)"/>
<path d="M461.133 217.985L438.867 204.019L461.042 190.093L483.363 204.059L461.133 217.985Z" fill="url(#paint28_linear_47_710)"/>
<rect width="33" height="18" fill="white"/>
<defs>
<linearGradient id="paint0_linear_47_710" x1="316.612" y1="73.4735" x2="348.52" y2="527.397" gradientUnits="userSpaceOnUse">
<stop stop-color="white"/>
<stop offset="0.52339" stop-color="white" stop-opacity="0.92"/>
<stop offset="1" stop-color="white" stop-opacity="0.92"/>
</linearGradient>
<linearGradient id="paint1_linear_47_710" x1="481.173" y1="515.503" x2="386.96" y2="463.63" gradientUnits="userSpaceOnUse">
<stop stop-color="#3C89F0"/>
<stop offset="1" stop-color="#A7CEFF"/>
</linearGradient>
<linearGradient id="paint2_linear_47_710" x1="423.056" y1="515.503" x2="350.83" y2="435.968" gradientUnits="userSpaceOnUse">
<stop stop-color="#6FB0FF"/>
<stop offset="1" stop-color="#3484EE"/>
</linearGradient>
<linearGradient id="paint3_linear_47_710" x1="547.459" y1="383.486" x2="342.027" y2="314.912" gradientUnits="userSpaceOnUse">
<stop stop-color="#4A92FF"/>
<stop offset="1" stop-color="#27A6FF"/>
</linearGradient>
<linearGradient id="paint4_linear_47_710" x1="547.459" y1="343.81" x2="342.027" y2="275.236" gradientUnits="userSpaceOnUse">
<stop stop-color="#5EA4FB"/>
<stop offset="1" stop-color="#27A6FF"/>
</linearGradient>
<linearGradient id="paint5_linear_47_710" x1="547.459" y1="304.134" x2="342.027" y2="235.559" gradientUnits="userSpaceOnUse">
<stop stop-color="#678FFA"/>
<stop offset="1" stop-color="#3DE8FF"/>
</linearGradient>
<linearGradient id="paint6_linear_47_710" x1="547.459" y1="423.163" x2="342.027" y2="354.589" gradientUnits="userSpaceOnUse">
<stop stop-color="#1A7CFF"/>
<stop offset="1" stop-color="#27A6FF"/>
</linearGradient>
<linearGradient id="paint7_linear_47_710" x1="547.459" y1="462.839" x2="342.027" y2="394.265" gradientUnits="userSpaceOnUse">
<stop stop-color="#006CED"/>
<stop offset="1" stop-color="#27A6FF"/>
</linearGradient>
<linearGradient id="paint8_linear_47_710" x1="547.459" y1="502.516" x2="342.027" y2="433.942" gradientUnits="userSpaceOnUse">
<stop stop-color="#1E5AF8"/>
<stop offset="1" stop-color="#27A6FF"/>
</linearGradient>
<linearGradient id="paint9_linear_47_710" x1="581.671" y1="504.95" x2="391.233" y2="442.946" gradientUnits="userSpaceOnUse">
<stop stop-color="#0050FF"/>
<stop offset="1" stop-color="#7DD7FF"/>
</linearGradient>
<linearGradient id="paint10_linear_47_710" x1="547.459" y1="542.192" x2="342.027" y2="473.618" gradientUnits="userSpaceOnUse">
<stop stop-color="#006AEA"/>
<stop offset="1" stop-color="#27A6FF"/>
</linearGradient>
<linearGradient id="paint11_linear_47_710" x1="477.818" y1="240.897" x2="418.032" y2="197.893" gradientUnits="userSpaceOnUse">
<stop stop-color="#3887EE"/>
<stop offset="1" stop-color="#65A8FA"/>
</linearGradient>
<linearGradient id="paint12_linear_47_710" x1="460.269" y1="217.182" x2="460.269" y2="150.734" gradientUnits="userSpaceOnUse">
<stop stop-color="#02C9F4"/>
<stop offset="1" stop-color="#00EBFF" stop-opacity="0"/>
</linearGradient>
<linearGradient id="paint13_linear_47_710" x1="460.765" y1="206.719" x2="460.765" y2="134.576" gradientUnits="userSpaceOnUse">
<stop stop-color="#02C9F4"/>
<stop offset="1" stop-color="#00EBFF" stop-opacity="0"/>
</linearGradient>
<linearGradient id="paint14_linear_47_710" x1="609.482" y1="528.122" x2="720.839" y2="449.87" gradientUnits="userSpaceOnUse">
<stop stop-color="#3584EE"/>
<stop offset="1" stop-color="#6FAFFC"/>
</linearGradient>
<linearGradient id="paint15_linear_47_710" x1="585.912" y1="527.056" x2="495.966" y2="457.905" gradientUnits="userSpaceOnUse">
<stop stop-color="#8FC4FC"/>
<stop offset="1" stop-color="#D6E8FA"/>
</linearGradient>
<linearGradient id="paint16_linear_47_710" x1="641.253" y1="339.701" x2="561.067" y2="282.973" gradientUnits="userSpaceOnUse">
<stop stop-color="#093CC3"/>
<stop offset="1" stop-color="#2787FF"/>
</linearGradient>
<linearGradient id="paint17_linear_47_710" x1="647.776" y1="347.877" x2="588.364" y2="303.7" gradientUnits="userSpaceOnUse">
<stop stop-color="#428DEF"/>
<stop offset="1" stop-color="#5FA6FF"/>
</linearGradient>
<linearGradient id="paint18_linear_47_710" x1="597.386" y1="560.743" x2="597.386" y2="370.205" gradientUnits="userSpaceOnUse">
<stop stop-color="#81BCFF"/>
<stop offset="1" stop-color="#61B0FF"/>
</linearGradient>
<linearGradient id="paint19_linear_47_710" x1="577.566" y1="547.922" x2="577.566" y2="357.384" gradientUnits="userSpaceOnUse">
<stop stop-color="#81BCFF"/>
<stop offset="1" stop-color="#61B0FF"/>
</linearGradient>
<linearGradient id="paint20_linear_47_710" x1="557.745" y1="535.101" x2="557.745" y2="344.563" gradientUnits="userSpaceOnUse">
<stop stop-color="#81BCFF"/>
<stop offset="1" stop-color="#61B0FF"/>
</linearGradient>
<linearGradient id="paint21_linear_47_710" x1="538.909" y1="523.409" x2="538.909" y2="332.803" gradientUnits="userSpaceOnUse">
<stop stop-color="#81BCFF"/>
<stop offset="1" stop-color="#61B0FF"/>
</linearGradient>
<linearGradient id="paint22_linear_47_710" x1="372.637" y1="583.513" x2="486.287" y2="508.013" gradientUnits="userSpaceOnUse">
<stop stop-color="#66A4F6"/>
<stop offset="1" stop-color="#3584EF"/>
</linearGradient>
<linearGradient id="paint23_linear_47_710" x1="350.949" y1="582.504" x2="264.642" y2="519.778" gradientUnits="userSpaceOnUse">
<stop stop-color="#63A6FA"/>
<stop offset="1" stop-color="#3584EF"/>
</linearGradient>
<linearGradient id="paint24_linear_47_710" x1="428.16" y1="413.918" x2="335.544" y2="344.971" gradientUnits="userSpaceOnUse">
<stop stop-color="#96CAFF"/>
<stop offset="1" stop-color="#2787FF"/>
</linearGradient>
<linearGradient id="paint25_linear_47_710" x1="427.089" y1="407.543" x2="362.005" y2="361.323" gradientUnits="userSpaceOnUse">
<stop stop-color="#5A9EF3"/>
<stop offset="1" stop-color="#B4D5FF"/>
</linearGradient>
<linearGradient id="paint26_linear_47_710" x1="461.106" y1="225.94" x2="483.355" y2="225.94" gradientUnits="userSpaceOnUse">
<stop stop-color="#FF7C33"/>
<stop offset="1" stop-color="#FFE9CE"/>
</linearGradient>
<linearGradient id="paint27_linear_47_710" x1="438.856" y1="225.919" x2="461.13" y2="225.919" gradientUnits="userSpaceOnUse">
<stop stop-color="#FF9A61"/>
<stop offset="1" stop-color="#FFB877"/>
</linearGradient>
<linearGradient id="paint28_linear_47_710" x1="438.865" y1="204.039" x2="483.359" y2="204.039" gradientUnits="userSpaceOnUse">
<stop stop-color="#FFB69E"/>
<stop offset="1" stop-color="#FFE2D2"/>
</linearGradient>
<clipPath id="clip0_47_710">
<rect width="1145.62" height="765.802" fill="white" transform="translate(-202.011 125.29)"/>
</clipPath>
</defs>
</svg>
