<svg width="29" height="35" viewBox="0 0 29 35" fill="none" xmlns="http://www.w3.org/2000/svg">
<path d="M20.9393 1.10478L1.25232 0.834961C1.25232 0.834961 -0.547688 9.25167 1.46101 19.7747C3.4697 30.2978 7.93058 34.8151 7.93058 34.8151L28.4001 32.3693C28.4001 32.3693 22.261 24.6141 21.3306 17.0243C20.4001 9.43445 20.9393 1.10478 20.9393 1.10478Z" fill="url(#paint0_linear_740_8)"/>
<path d="M16.6246 7.99478L5.29688 8.50439L5.33943 9.45217L16.6672 8.94256L16.6246 7.99478Z" fill="#2968E5"/>
<path d="M16.9986 14.07L5.6709 14.5796L5.71346 15.5274L17.0412 15.0178L16.9986 14.07Z" fill="#2968E5"/>
<path d="M18.2672 19.746L6.93945 20.2556L6.98201 21.2034L18.3098 20.6938L18.2672 19.746Z" fill="#2968E5"/>
<path d="M20.1715 25.9601L8.84375 26.4697L8.88631 27.4175L20.2141 26.9079L20.1715 25.9601Z" fill="#2968E5"/>
<defs>
<linearGradient id="paint0_linear_740_8" x1="0.513358" y1="17.8316" x2="28.4053" y2="17.8316" gradientUnits="userSpaceOnUse">
<stop stop-color="#3F81FF"/>
<stop offset="1" stop-color="#6AAEFF"/>
</linearGradient>
</defs>
</svg>
