<svg width="49" height="66" viewBox="0 0 49 66" fill="none" xmlns="http://www.w3.org/2000/svg">
<path d="M27.9243 54.2913C27.9243 54.2913 37.0835 65.2985 42.1478 65.2985L48.9825 61.3526L34.7591 50.3453L27.9243 54.2913Z" fill="white"/>
<path d="M27.3013 54.5187C27.3013 54.5187 36.3912 65.2985 41.2774 65.2985C41.3862 65.2985 48.1122 61.3525 48.1122 61.3525L34.1262 50.5728L27.3013 54.5187Z" fill="url(#paint0_linear_530_1941)"/>
<path d="M26.6782 54.7463C26.6782 54.7463 35.689 65.2986 40.4169 65.2986C40.6247 65.2986 47.2516 61.3526 47.2516 61.3526L33.513 50.8003L26.6782 54.7463Z" fill="url(#paint1_linear_530_1941)"/>
<path d="M26.0454 54.9737C26.0454 54.9737 34.977 65.2985 39.5467 65.2985C39.8633 65.2985 46.3815 61.3525 46.3815 61.3525L32.8801 51.0277L26.0454 54.9737Z" fill="url(#paint2_linear_530_1941)"/>
<path d="M25.4224 55.2011C25.4224 55.2011 34.2749 65.2985 38.6863 65.2985C39.1116 65.2985 45.5211 61.3525 45.5211 61.3525L32.2571 51.2551L25.4224 55.2011Z" fill="url(#paint3_linear_530_1941)"/>
<path d="M24.7988 55.4287C24.7988 55.4287 33.5821 65.2986 37.8254 65.2986C38.3595 65.2986 44.6602 61.3526 44.6602 61.3526L31.6336 51.4827L24.7988 55.4287Z" fill="url(#paint4_linear_530_1941)"/>
<path d="M24.166 55.6562C24.166 55.6562 32.8702 65.2986 36.9453 65.2986C37.5783 65.2986 43.7801 61.3526 43.7801 61.3526L31.0007 51.7102L24.166 55.6562Z" fill="url(#paint5_linear_530_1941)"/>
<path d="M23.543 55.8835C23.543 55.8835 32.168 65.2985 36.0849 65.2985C36.8267 65.2985 42.9197 61.3525 42.9197 61.3525L30.3777 51.9375L23.543 55.8835Z" fill="url(#paint6_linear_530_1941)"/>
<path d="M22.9097 56.1109C22.9097 56.1109 31.4556 65.2985 35.2142 65.2985C36.0649 65.2985 42.049 61.3525 42.049 61.3525L29.7445 52.1748L22.9097 56.1109Z" fill="url(#paint7_linear_530_1941)"/>
<path d="M22.2866 56.3385C22.2866 56.3385 30.7634 65.2985 34.3538 65.2985C35.3034 65.2985 41.1887 61.3526 41.1887 61.3526L29.1214 52.4023L22.2866 56.3385Z" fill="url(#paint8_linear_530_1941)"/>
<path d="M21.6636 56.5659C21.6636 56.5659 30.0611 65.2985 33.4835 65.2985C34.5418 65.2985 40.3182 61.3525 40.3182 61.3525L28.4984 52.6298L21.6636 56.5659Z" fill="url(#paint9_linear_530_1941)"/>
<path d="M21.0303 56.7933C21.0303 56.7933 29.3487 65.2985 32.6128 65.2985C33.78 65.2985 39.4476 61.3525 39.4476 61.3525L27.865 52.8572L21.0303 56.7933Z" fill="url(#paint10_linear_530_1941)"/>
<path d="M20.4072 57.0209C20.4072 57.0209 28.6465 65.2985 31.7523 65.2985C33.0283 65.2985 38.5871 61.3525 38.5871 61.3525L27.242 53.0847L20.4072 57.0209Z" fill="url(#paint11_linear_530_1941)"/>
<path d="M19.7842 57.2483C19.7842 57.2483 27.9542 65.2986 30.8919 65.2986C32.2668 65.2986 37.7267 61.3526 37.7267 61.3526L26.6189 53.3123L19.7842 57.2483Z" fill="url(#paint12_linear_530_1941)"/>
<path d="M19.1514 57.4757C19.1514 57.4757 27.2423 65.2886 30.0118 65.2985C31.4954 65.2985 36.8466 61.3525 36.8466 61.3525L25.9762 53.5397L19.1514 57.4757Z" fill="url(#paint13_linear_530_1941)"/>
<path d="M18.5283 57.713C18.5283 57.713 26.5401 65.2985 29.1514 65.3083C30.7438 65.3083 35.9861 61.3623 35.9861 61.3623L25.3631 53.7769L18.5283 57.713Z" fill="url(#paint14_linear_530_1941)"/>
<path d="M17.9048 57.9406C17.9048 57.9406 25.8474 65.2986 28.2905 65.2986C29.9819 65.2986 35.1253 61.3526 35.1253 61.3526L24.7396 53.9946L17.9048 57.9406Z" fill="url(#paint15_linear_530_1941)"/>
<path d="M17.272 58.168C17.272 58.168 25.1354 65.2985 27.4202 65.2985C29.2204 65.2985 34.255 61.3525 34.255 61.3525L24.1067 54.222L17.272 58.168Z" fill="url(#paint16_linear_530_1941)"/>
<path d="M16.6489 58.3955C16.6489 58.3955 24.4332 65.2985 26.5598 65.2985C28.4687 65.2985 33.3945 61.3525 33.3945 61.3525L23.4836 54.4495L16.6489 58.3955Z" fill="url(#paint17_linear_530_1941)"/>
<path d="M16.0254 58.623C16.0254 58.623 23.7305 65.2985 25.689 65.2985C27.7067 65.2985 32.5237 61.3525 32.5237 61.3525L22.8601 54.677L16.0254 58.623Z" fill="url(#paint18_linear_530_1941)"/>
<path d="M15.3926 58.8504C15.3926 58.8504 23.0285 65.2985 24.8188 65.2985C26.9355 65.2985 31.6536 61.3525 31.6536 61.3525L22.2273 54.9044L15.3926 58.8504Z" fill="url(#paint19_linear_530_1941)"/>
<path d="M14.7695 59.0778C14.7695 59.0778 22.3263 65.2985 23.9584 65.2985C26.1839 65.2985 30.7932 61.3525 30.7932 61.3525L21.6043 55.1318L14.7695 59.0778Z" fill="url(#paint20_linear_530_1941)"/>
<path d="M14.1465 59.3054C14.1465 59.3054 21.624 65.2985 23.0978 65.2985C25.4321 65.2985 29.9325 61.3525 29.9325 61.3525L20.9811 55.3594L14.1465 59.3054Z" fill="url(#paint21_linear_530_1941)"/>
<path d="M13.5132 59.5329C13.5132 59.5329 20.9117 65.2986 22.2173 65.2986C24.6505 65.2986 29.0521 61.3526 29.0521 61.3526L20.3479 55.5869L13.5132 59.5329Z" fill="url(#paint22_linear_530_1941)"/>
<path d="M12.8901 59.7602C12.8901 59.7602 20.2194 65.2985 21.3569 65.2985C23.8989 65.2985 28.1917 61.3525 28.1917 61.3525L19.7249 55.8142L12.8901 59.7602Z" fill="url(#paint23_linear_530_1941)"/>
<path d="M12.2671 59.9877C12.2671 59.9877 19.5173 65.2985 20.4965 65.2985C23.1473 65.2985 27.3313 61.3525 27.3313 61.3525L19.1019 56.0417L12.2671 59.9877Z" fill="url(#paint24_linear_530_1941)"/>
<path d="M11.6338 60.2153C11.6338 60.2153 18.8048 65.2986 19.6258 65.2986C22.3854 65.2986 26.4606 61.3526 26.4606 61.3526L18.4685 56.2693L11.6338 60.2153Z" fill="url(#paint25_linear_530_1941)"/>
<path d="M11.0107 60.4426C11.0107 60.4426 18.1125 65.2985 18.7653 65.2985C21.6238 65.2985 25.6001 61.3525 25.6001 61.3525L17.8455 56.4966L11.0107 60.4426Z" fill="url(#paint26_linear_530_1941)"/>
<path d="M10.3877 60.6701C10.3877 60.6701 17.4104 65.2985 17.895 65.2985C20.8624 65.2985 24.7299 61.3525 24.7299 61.3525L17.2225 56.7241L10.3877 60.6701Z" fill="url(#paint27_linear_530_1941)"/>
<path d="M9.75439 60.8976C9.75439 60.8976 16.698 65.2986 17.0244 65.2986C20.1005 65.2986 23.8592 61.3526 23.8592 61.3526L16.5892 56.9517L9.75439 60.8976Z" fill="url(#paint28_linear_530_1941)"/>
<path d="M9.13135 61.125C9.13135 61.125 15.9958 65.2985 16.1639 65.2985C19.339 65.2985 22.9987 61.3525 22.9987 61.3525L15.9661 57.179L9.13135 61.125Z" fill="url(#paint29_linear_530_1941)"/>
<path d="M8.5083 61.3525L15.3035 65.2985C18.5874 65.2985 22.1383 61.3525 22.1383 61.3525L15.3431 57.4065L8.5083 61.3525Z" fill="url(#paint30_linear_530_1941)"/>
<path d="M30.3873 39.882L15.2935 48.664L0.0908203 39.882L15.1946 31.1099L30.3873 39.882Z" fill="#FDFCFF"/>
<path d="M26.6187 39.882L15.2835 46.4685L3.86914 39.882L15.2044 33.2954L26.6187 39.882Z" fill="url(#paint31_linear_530_1941)"/>
<path d="M22.5833 42.2159L15.2639 46.4685L7.89502 42.2159L15.2144 37.9634L22.5833 42.2159Z" fill="url(#paint32_linear_530_1941)"/>
<path d="M30.3871 39.882L24.2151 59.5921L15.1152 65.3676L15.2933 48.664L30.3871 39.882Z" fill="#E4E7FB"/>
<path d="M15.2934 48.664L15.1154 65.3676L5.91668 59.5921L0.0908203 39.882L15.2934 48.664Z" fill="#EFF1FE"/>
<path d="M13.889 44.5598C13.9583 43.6302 13.0384 43.9665 12.7516 43.0665C12.4351 42.0281 12.801 41.0292 12.3065 39.9908C11.446 38.1612 9.62599 37.7953 8.10276 36.6085C6.15421 35.0855 8.10277 35.0756 8.23135 33.0581C8.37972 30.7736 6.88614 31.0703 5.30356 29.5572C2.49449 26.8573 1.22843 23.0498 3.51328 23.6531C3.77044 23.7223 4.00783 23.7618 4.25511 23.6531C4.55184 23.5245 2.94951 20.7851 2.91983 20.4686C2.79125 19.0643 3.80998 19.173 4.10672 17.9072C4.56171 15.9886 2.03949 13.981 4.42324 12.5074C6.96525 10.935 9.94251 14.8908 10.0216 17.1457C10.0315 17.3632 9.8238 20.9927 10.0711 20.8642C16.3124 17.6797 10.6052 28.7858 12.9791 30.7736C14.1957 30.2198 14.5715 28.4397 15.7387 30.1209C16.6783 31.4758 15.353 33.2856 15.165 34.5812C14.8485 36.9151 14.8584 34.7987 16.1442 35.9558C19.2401 38.7645 16.7871 44.5202 14.4726 45.7268L13.889 44.5598Z" fill="url(#paint33_linear_530_1941)"/>
<path d="M15.1849 34.5911C15.363 33.3054 16.6884 31.4956 15.7586 30.1309C14.5915 28.4595 14.2156 30.2396 12.999 30.7836C10.6152 28.7957 16.3323 17.6896 10.091 20.8741C9.84374 21.0027 10.0514 17.3633 10.0415 17.1556C10.0019 16.1172 9.34917 14.7227 8.40951 13.6744C8.05342 14.9601 9.4085 16.4633 9.0722 17.9171C8.77546 19.183 7.74676 19.0742 7.87534 20.4785C7.90502 20.795 9.51731 23.5344 9.21069 23.663C8.96341 23.7718 8.73591 23.7322 8.46885 23.663C6.18399 23.0597 7.45006 26.8673 10.2591 29.5671C11.8417 31.0803 13.3353 30.7836 13.187 33.0681C13.0584 35.0757 11.1098 35.0955 13.0584 36.6185C14.5717 37.8052 16.4115 38.1711 17.2621 40.0007C17.3907 40.2677 17.4599 40.5348 17.4995 40.8018C17.816 39.0513 17.539 37.2217 16.1641 35.9756C14.8684 34.8086 14.8585 36.925 15.1849 34.5911Z" fill="url(#paint34_linear_530_1941)"/>
<path d="M15.7387 46.2015C15.8179 44.8862 16.985 44.1742 17.4895 42.9775C18.0731 41.6028 17.7862 40.1194 18.5775 38.7942C19.9721 36.4701 22.3065 36.4602 24.4034 35.2141C27.0938 33.6219 24.6705 33.0681 24.8584 30.2099C25.076 26.9661 28.528 26.8376 30.7634 25.1464C34.7297 22.14 30.1204 22.9114 29.9721 19.539C29.8831 17.4819 33.8197 15.6029 33.0878 13.4865C32.3657 11.3602 29.3291 12.9327 28.5972 10.302C27.4103 6.04949 34.6506 3.7353 33.3351 0.718955C26.9652 -1.72379 26.4212 9.26364 24.7199 12.636C17.5093 6.45498 22.6724 23.5839 19.3589 25.72C17.9445 24.6223 17.7763 22.0114 16.0454 24.0388C14.6408 25.6805 15.9762 28.5881 15.9663 30.4374C15.9564 33.7999 14.5122 32.0989 12.7121 33.3845C8.35997 36.4701 12.1977 43.9467 14.8683 46.2609L15.2739 46.4784L15.7387 46.2015Z" fill="url(#paint35_linear_530_1941)"/>
<path d="M29.9815 19.5291C29.942 18.639 30.6541 17.7885 31.4157 16.9281C31.4652 15.6721 32.207 14.5843 33.1269 13.5953C33.117 13.5558 33.117 13.5162 33.0972 13.4766C32.6719 12.2107 31.4157 12.2602 30.3178 11.9437C29.1012 14.8414 28.5275 18.5896 27.6472 20.3302C20.4366 14.1491 25.5997 31.278 22.2862 33.4141C20.8718 32.3164 20.7135 29.7055 18.9727 31.7329C17.5682 33.3746 18.9035 36.2821 18.8936 38.1315C18.8936 38.2007 18.8837 38.2699 18.8837 38.3293C20.2981 36.4601 22.4445 36.3711 24.393 35.2141C27.0834 33.6218 24.6601 33.068 24.848 30.2099C25.0656 26.9661 28.5176 26.8375 30.753 25.1464C34.749 22.1301 30.1398 22.9015 29.9815 19.5291Z" fill="url(#paint36_linear_530_1941)"/>
<path d="M15.6495 41.0687C14.2845 42.0379 13.7306 43.4324 13.6812 44.9653C14.0867 45.4795 14.4922 45.9147 14.868 46.2509L15.2736 46.4685L15.7286 46.2015C15.8077 44.8862 16.9749 44.1741 17.4793 42.9774C17.8354 42.117 17.8651 41.227 18.0332 40.3468C17.4496 40.5446 16.599 40.3962 15.6495 41.0687Z" fill="url(#paint37_linear_530_1941)"/>
<defs>
<linearGradient id="paint0_linear_530_1941" x1="27.3001" y1="57.9369" x2="48.119" y2="57.9369" gradientUnits="userSpaceOnUse">
<stop stop-color="#FDFDFE"/>
<stop offset="1" stop-color="#FEFEFF"/>
</linearGradient>
<linearGradient id="paint1_linear_530_1941" x1="26.6737" y1="58.0508" x2="47.2529" y2="58.0508" gradientUnits="userSpaceOnUse">
<stop stop-color="#FAFBFE"/>
<stop offset="1" stop-color="#FDFDFF"/>
</linearGradient>
<linearGradient id="paint2_linear_530_1941" x1="26.0474" y1="58.1647" x2="46.387" y2="58.1647" gradientUnits="userSpaceOnUse">
<stop stop-color="#F8F9FD"/>
<stop offset="1" stop-color="#FCFDFF"/>
</linearGradient>
<linearGradient id="paint3_linear_530_1941" x1="25.421" y1="58.2786" x2="45.5208" y2="58.2786" gradientUnits="userSpaceOnUse">
<stop stop-color="#F6F7FC"/>
<stop offset="1" stop-color="#FCFCFE"/>
</linearGradient>
<linearGradient id="paint4_linear_530_1941" x1="24.794" y1="58.3925" x2="44.6543" y2="58.3925" gradientUnits="userSpaceOnUse">
<stop stop-color="#F3F5FC"/>
<stop offset="1" stop-color="#FBFBFE"/>
</linearGradient>
<linearGradient id="paint5_linear_530_1941" x1="24.1678" y1="58.5064" x2="43.7885" y2="58.5064" gradientUnits="userSpaceOnUse">
<stop stop-color="#F1F3FB"/>
<stop offset="1" stop-color="#FAFAFE"/>
</linearGradient>
<linearGradient id="paint6_linear_530_1941" x1="23.5413" y1="58.6202" x2="42.9223" y2="58.6202" gradientUnits="userSpaceOnUse">
<stop stop-color="#EFF1FA"/>
<stop offset="1" stop-color="#F9FAFE"/>
</linearGradient>
<linearGradient id="paint7_linear_530_1941" x1="22.9146" y1="58.7341" x2="42.0558" y2="58.7341" gradientUnits="userSpaceOnUse">
<stop stop-color="#ECEFFA"/>
<stop offset="1" stop-color="#F8F9FE"/>
</linearGradient>
<linearGradient id="paint8_linear_530_1941" x1="22.2881" y1="58.8481" x2="41.1898" y2="58.8481" gradientUnits="userSpaceOnUse">
<stop stop-color="#EAEDF9"/>
<stop offset="1" stop-color="#F7F8FE"/>
</linearGradient>
<linearGradient id="paint9_linear_530_1941" x1="21.6618" y1="58.962" x2="40.3237" y2="58.962" gradientUnits="userSpaceOnUse">
<stop stop-color="#E8EBF9"/>
<stop offset="1" stop-color="#F6F7FE"/>
</linearGradient>
<linearGradient id="paint10_linear_530_1941" x1="21.0351" y1="59.0757" x2="39.4572" y2="59.0757" gradientUnits="userSpaceOnUse">
<stop stop-color="#E5E9F8"/>
<stop offset="1" stop-color="#F5F6FE"/>
</linearGradient>
<linearGradient id="paint11_linear_530_1941" x1="20.4087" y1="59.1898" x2="38.5911" y2="59.1898" gradientUnits="userSpaceOnUse">
<stop stop-color="#E3E7F7"/>
<stop offset="1" stop-color="#F5F6FD"/>
</linearGradient>
<linearGradient id="paint12_linear_530_1941" x1="19.7824" y1="59.3038" x2="37.7251" y2="59.3038" gradientUnits="userSpaceOnUse">
<stop stop-color="#E1E5F7"/>
<stop offset="1" stop-color="#F4F5FD"/>
</linearGradient>
<linearGradient id="paint13_linear_530_1941" x1="19.156" y1="59.4175" x2="36.8591" y2="59.4175" gradientUnits="userSpaceOnUse">
<stop stop-color="#DEE3F6"/>
<stop offset="1" stop-color="#F3F4FD"/>
</linearGradient>
<linearGradient id="paint14_linear_530_1941" x1="18.5296" y1="59.5314" x2="35.9929" y2="59.5314" gradientUnits="userSpaceOnUse">
<stop stop-color="#DCE1F5"/>
<stop offset="1" stop-color="#F2F3FD"/>
</linearGradient>
<linearGradient id="paint15_linear_530_1941" x1="17.9028" y1="59.6454" x2="35.1266" y2="59.6454" gradientUnits="userSpaceOnUse">
<stop stop-color="#DADEF5"/>
<stop offset="1" stop-color="#F1F3FD"/>
</linearGradient>
<linearGradient id="paint16_linear_530_1941" x1="17.2764" y1="59.7592" x2="34.2605" y2="59.7592" gradientUnits="userSpaceOnUse">
<stop stop-color="#D8DCF4"/>
<stop offset="1" stop-color="#F0F2FD"/>
</linearGradient>
<linearGradient id="paint17_linear_530_1941" x1="16.65" y1="59.8732" x2="33.3943" y2="59.8732" gradientUnits="userSpaceOnUse">
<stop stop-color="#D5DAF3"/>
<stop offset="1" stop-color="#EFF1FD"/>
</linearGradient>
<linearGradient id="paint18_linear_530_1941" x1="16.0232" y1="59.987" x2="32.5278" y2="59.987" gradientUnits="userSpaceOnUse">
<stop stop-color="#D3D8F3"/>
<stop offset="1" stop-color="#EEF0FD"/>
</linearGradient>
<linearGradient id="paint19_linear_530_1941" x1="15.3969" y1="60.1008" x2="31.662" y2="60.1008" gradientUnits="userSpaceOnUse">
<stop stop-color="#D1D6F2"/>
<stop offset="1" stop-color="#EEF0FC"/>
</linearGradient>
<linearGradient id="paint20_linear_530_1941" x1="14.7705" y1="60.2146" x2="30.7958" y2="60.2146" gradientUnits="userSpaceOnUse">
<stop stop-color="#CED4F1"/>
<stop offset="1" stop-color="#EDEFFC"/>
</linearGradient>
<linearGradient id="paint21_linear_530_1941" x1="14.1441" y1="60.3287" x2="29.9296" y2="60.3287" gradientUnits="userSpaceOnUse">
<stop stop-color="#CCD2F1"/>
<stop offset="1" stop-color="#ECEEFC"/>
</linearGradient>
<linearGradient id="paint22_linear_530_1941" x1="13.5175" y1="60.4427" x2="29.0634" y2="60.4427" gradientUnits="userSpaceOnUse">
<stop stop-color="#CAD0F0"/>
<stop offset="1" stop-color="#EBEDFC"/>
</linearGradient>
<linearGradient id="paint23_linear_530_1941" x1="12.891" y1="60.5565" x2="28.1973" y2="60.5565" gradientUnits="userSpaceOnUse">
<stop stop-color="#C7CEF0"/>
<stop offset="1" stop-color="#EAECFC"/>
</linearGradient>
<linearGradient id="paint24_linear_530_1941" x1="12.2646" y1="60.6704" x2="27.3313" y2="60.6704" gradientUnits="userSpaceOnUse">
<stop stop-color="#C5CCEF"/>
<stop offset="1" stop-color="#E9ECFC"/>
</linearGradient>
<linearGradient id="paint25_linear_530_1941" x1="11.6377" y1="60.7843" x2="26.4647" y2="60.7843" gradientUnits="userSpaceOnUse">
<stop stop-color="#C3CAEE"/>
<stop offset="1" stop-color="#E8EBFC"/>
</linearGradient>
<linearGradient id="paint26_linear_530_1941" x1="11.0115" y1="60.898" x2="25.5984" y2="60.898" gradientUnits="userSpaceOnUse">
<stop stop-color="#C0C8EE"/>
<stop offset="1" stop-color="#E7EAFC"/>
</linearGradient>
<linearGradient id="paint27_linear_530_1941" x1="10.385" y1="61.0121" x2="24.7326" y2="61.0121" gradientUnits="userSpaceOnUse">
<stop stop-color="#BEC6ED"/>
<stop offset="1" stop-color="#E7E9FB"/>
</linearGradient>
<linearGradient id="paint28_linear_530_1941" x1="9.75821" y1="61.126" x2="23.8662" y2="61.126" gradientUnits="userSpaceOnUse">
<stop stop-color="#BCC4EC"/>
<stop offset="1" stop-color="#E6E9FB"/>
</linearGradient>
<linearGradient id="paint29_linear_530_1941" x1="9.13168" y1="61.2396" x2="22.9999" y2="61.2396" gradientUnits="userSpaceOnUse">
<stop stop-color="#B9C2EC"/>
<stop offset="1" stop-color="#E5E8FB"/>
</linearGradient>
<linearGradient id="paint30_linear_530_1941" x1="8.50551" y1="61.3537" x2="22.134" y2="61.3537" gradientUnits="userSpaceOnUse">
<stop stop-color="#B7C0EB"/>
<stop offset="1" stop-color="#E4E7FB"/>
</linearGradient>
<linearGradient id="paint31_linear_530_1941" x1="3.87015" y1="39.8845" x2="26.6156" y2="39.8845" gradientUnits="userSpaceOnUse">
<stop stop-color="#B7C0EB"/>
<stop offset="0.2785" stop-color="#E4E7FB"/>
<stop offset="1" stop-color="#E4E7FB"/>
</linearGradient>
<linearGradient id="paint32_linear_530_1941" x1="7.89898" y1="42.2175" x2="22.5878" y2="42.2175" gradientUnits="userSpaceOnUse">
<stop stop-color="#4CD9ED"/>
<stop offset="0.0383" stop-color="#4BD3ED"/>
<stop offset="0.32" stop-color="#48AFED"/>
<stop offset="0.5827" stop-color="#4595EC"/>
<stop offset="0.8173" stop-color="#4485EC"/>
<stop offset="1" stop-color="#437FEC"/>
</linearGradient>
<linearGradient id="paint33_linear_530_1941" x1="9.97733" y1="45.7381" x2="9.97733" y2="12.1614" gradientUnits="userSpaceOnUse">
<stop stop-color="#4CD9ED"/>
<stop offset="0.1713" stop-color="#7BE3F2"/>
<stop offset="0.3665" stop-color="#AAEDF6"/>
<stop offset="0.5531" stop-color="#CFF5FA"/>
<stop offset="0.7259" stop-color="#E9FAFD"/>
<stop offset="0.8801" stop-color="#F9FEFE"/>
<stop offset="1" stop-color="white"/>
</linearGradient>
<linearGradient id="paint34_linear_530_1941" x1="7.28768" y1="27.2342" x2="17.611" y2="27.2342" gradientUnits="userSpaceOnUse">
<stop stop-color="#5FEFC0"/>
<stop offset="0.1335" stop-color="#5CECC6"/>
<stop offset="1" stop-color="#4CD9ED"/>
</linearGradient>
<linearGradient id="paint35_linear_530_1941" x1="22.1262" y1="46.4709" x2="22.1262" y2="0.350978" gradientUnits="userSpaceOnUse">
<stop stop-color="#4CD9ED"/>
<stop offset="0.1713" stop-color="#7BE3F2"/>
<stop offset="0.3665" stop-color="#AAEDF6"/>
<stop offset="0.5531" stop-color="#CFF5FA"/>
<stop offset="0.7259" stop-color="#E9FAFD"/>
<stop offset="0.8801" stop-color="#F9FEFE"/>
<stop offset="1" stop-color="white"/>
</linearGradient>
<linearGradient id="paint36_linear_530_1941" x1="18.3387" y1="25.1313" x2="33.1295" y2="25.1313" gradientUnits="userSpaceOnUse">
<stop stop-color="#5FEFC0"/>
<stop offset="0.1335" stop-color="#5CECC6"/>
<stop offset="1" stop-color="#4CD9ED"/>
</linearGradient>
<linearGradient id="paint37_linear_530_1941" x1="13.6865" y1="43.4098" x2="18.0429" y2="43.4098" gradientUnits="userSpaceOnUse">
<stop stop-color="#5FEFC0"/>
<stop offset="0.1335" stop-color="#5CECC6"/>
<stop offset="1" stop-color="#4CD9ED"/>
</linearGradient>
</defs>
</svg>
