<svg width="207" height="209" viewBox="0 0 207 209" fill="none" xmlns="http://www.w3.org/2000/svg">
<g opacity="0.7">
<path opacity="0.0196" d="M188.854 109.108C183.146 99.1984 137.123 103.233 118.854 103.243C110.318 103.243 112.514 169.316 119.547 170.256C130.763 171.759 192.652 170.345 201.94 169.969C210.228 169.623 188.863 109.137 188.854 109.108Z" fill="#FDFEFE"/>
<path opacity="0.0392" d="M186.925 110.393C181.356 100.623 135.214 104.034 116.925 104.034C108.033 104.044 110.249 169.405 117.35 170.434C128.814 172.105 190.03 171.146 199.447 170.71C207.666 170.335 186.944 110.423 186.925 110.393Z" fill="#FCFCFE"/>
<path opacity="0.0588" d="M185.006 111.689C179.566 102.047 133.325 104.836 114.997 104.845C105.749 104.855 107.994 169.524 115.155 170.641C126.856 172.471 187.41 171.966 196.945 171.482C205.115 171.047 185.016 111.709 185.006 111.689Z" fill="#FAFBFD"/>
<path opacity="0.0784" d="M183.077 112.975C177.766 103.471 131.416 105.627 113.058 105.637C103.454 105.656 105.729 169.613 112.939 170.819C124.888 172.817 184.759 172.767 194.432 172.224C202.563 171.769 183.097 113.004 183.077 112.975Z" fill="#F9F9FD"/>
<path opacity="0.098" d="M181.158 114.26C175.985 104.895 129.527 106.418 111.129 106.438C101.169 106.457 103.464 169.721 110.744 171.007C122.939 173.173 182.138 173.568 191.93 172.975C200.011 172.481 181.168 114.29 181.158 114.26Z" fill="#F7F8FC"/>
<path opacity="0.1176" d="M179.23 115.546C174.185 106.309 127.618 107.219 109.191 107.229C98.8841 107.249 101.199 169.82 108.528 171.195C120.971 173.529 179.497 174.38 189.417 173.727C197.459 173.193 179.249 115.576 179.23 115.546Z" fill="#F6F7FC"/>
<path opacity="0.1373" d="M177.31 116.841C172.395 107.743 125.728 108.02 107.262 108.04C96.5989 108.069 98.9431 169.939 106.332 171.393C119.012 173.895 176.865 175.2 186.915 174.488C194.897 173.915 177.32 116.861 177.31 116.841Z" fill="#F4F5FB"/>
<path opacity="0.1569" d="M175.382 118.127C170.594 109.167 123.819 108.811 105.333 108.841C94.3141 108.87 96.6781 170.048 104.136 171.581C117.064 174.251 174.244 176.011 184.422 175.24C192.345 174.627 175.401 118.147 175.382 118.127Z" fill="#F3F4FB"/>
<path opacity="0.1765" d="M173.463 119.413C168.814 110.591 121.93 109.602 103.404 109.632C92.0296 109.672 94.4233 170.147 101.931 171.769C115.106 174.617 171.604 176.822 181.91 175.992C189.793 175.349 173.473 119.443 173.463 119.413Z" fill="#F1F2FA"/>
<path opacity="0.1961" d="M171.544 120.698C167.024 112.015 120.031 110.394 101.476 110.433C89.7546 110.473 92.1681 170.256 99.7348 171.957C113.157 174.973 168.982 177.633 179.418 176.743C187.241 176.071 171.554 120.728 171.544 120.698Z" fill="#F0F1FA"/>
<path opacity="0.2157" d="M169.615 121.984C165.224 113.439 118.132 111.194 99.5368 111.224C87.4598 111.264 89.893 170.354 97.529 172.135C111.198 175.329 166.351 178.434 176.905 177.485C184.68 176.793 169.625 122.014 169.615 121.984Z" fill="#EEF0F9"/>
<path opacity="0.2353" d="M167.696 123.28C163.433 114.874 116.233 111.996 97.6079 112.035C85.1748 112.085 87.6377 170.473 95.3231 172.342C109.23 175.715 163.71 179.265 174.403 178.256C182.128 177.515 167.706 123.3 167.696 123.28Z" fill="#EDEEF9"/>
<path opacity="0.2549" d="M165.768 124.565C161.633 116.298 114.334 112.787 95.6696 112.826C82.8804 112.876 85.3729 170.582 93.1176 172.52C107.272 176.061 161.079 180.066 171.9 178.998C179.576 178.237 165.778 124.585 165.768 124.565Z" fill="#EBEDF8"/>
<path opacity="0.2745" d="M163.849 125.851C159.843 117.722 112.435 113.578 93.7504 113.627C80.6051 113.687 83.1174 170.691 90.9215 172.708C105.323 176.427 158.448 180.887 169.398 179.75C177.024 178.959 163.859 125.881 163.849 125.851Z" fill="#EAECF8"/>
<path opacity="0.2941" d="M161.92 127.137C158.033 119.146 110.536 114.379 91.8118 114.419C78.3204 114.478 80.8525 170.8 88.7159 172.886C103.355 176.783 155.817 181.688 166.895 180.492C174.472 179.681 161.93 127.166 161.92 127.137Z" fill="#E8EAF7"/>
<path opacity="0.3137" d="M160.001 128.422C156.243 120.57 108.637 115.17 89.8832 115.22C76.0356 115.289 78.5875 170.908 86.5202 173.084C101.406 177.168 153.186 182.509 164.393 181.253C171.91 180.402 160.011 128.452 160.001 128.422Z" fill="#E7E9F7"/>
<path opacity="0.3333" d="M158.072 129.718C154.442 122.014 106.727 115.971 87.9442 116.021C73.7405 116.09 76.3221 171.027 84.3043 173.272C99.4376 177.534 150.545 183.33 161.88 182.004C169.358 181.124 158.082 129.738 158.072 129.718Z" fill="#E5E7F6"/>
<path opacity="0.3529" d="M156.153 131.003C152.652 123.438 104.838 116.762 86.0155 116.822C71.4558 116.891 74.0671 171.136 82.1085 173.46C97.4793 177.9 147.914 184.141 159.378 182.756C166.806 181.856 156.163 131.023 156.153 131.003Z" fill="#E3E6F5"/>
<path opacity="0.3725" d="M154.225 132.289C150.842 124.862 102.93 117.554 84.0771 117.623C69.1712 117.702 71.7924 171.254 79.8932 173.658C95.5113 178.286 145.273 184.971 156.866 183.518C164.254 182.578 154.235 132.319 154.225 132.289Z" fill="#E2E5F5"/>
<path opacity="0.3922" d="M152.306 133.575C149.052 126.296 101.04 118.355 82.1581 118.414C66.8961 118.493 69.5469 171.363 77.7071 173.836C93.5625 178.642 142.662 185.782 154.373 184.259C161.702 183.31 152.316 133.605 152.306 133.575Z" fill="#E0E3F4"/>
<path opacity="0.4118" d="M150.377 134.87C147.242 127.73 99.1312 119.156 80.2193 119.225C64.6013 119.314 67.2718 171.492 75.5013 174.034C91.604 179.028 140.021 186.613 151.871 185.021C159.141 184.032 150.387 134.89 150.377 134.87Z" fill="#DFE2F4"/>
<path opacity="0.4314" d="M148.458 136.156C145.441 129.164 97.242 119.947 78.2907 120.016C62.3165 120.105 65.0168 171.591 73.2956 174.221C89.6457 179.394 137.39 187.434 149.358 185.773C156.589 184.764 148.468 136.176 148.458 136.156Z" fill="#DDE0F3"/>
<path opacity="0.451" d="M146.529 137.442C143.641 130.588 95.3331 120.738 76.3521 120.817C60.0219 120.906 62.7419 171.709 71.09 174.409C87.6774 179.769 134.749 188.255 146.856 186.524C154.037 185.495 146.539 137.461 146.529 137.442Z" fill="#DCDFF3"/>
<path opacity="0.4706" d="M144.611 138.727C141.841 132.022 93.4441 121.529 74.4235 121.608C57.7471 121.707 60.487 171.818 68.8944 174.587C85.7192 180.135 132.128 189.066 144.354 187.266C151.485 186.217 144.621 138.757 144.611 138.727Z" fill="#DADEF2"/>
<path opacity="0.4902" d="M142.682 140.013C140.031 133.456 91.5349 122.33 72.4846 122.409C55.4521 122.508 58.2118 171.937 66.6786 174.775C83.7506 180.511 129.487 189.887 141.841 188.017C148.933 186.949 142.692 140.043 142.682 140.013Z" fill="#D9DCF2"/>
<path opacity="0.5098" d="M140.763 141.309C138.231 134.89 89.6456 123.131 70.5558 123.21C53.1672 123.319 55.9565 172.056 64.4826 174.973C81.7921 180.897 126.856 190.717 139.339 188.779C146.381 187.681 140.773 141.328 140.763 141.309Z" fill="#D7DBF1"/>
<path opacity="0.5294" d="M138.834 142.594C136.421 136.324 87.7369 123.922 68.6273 124.011C50.8826 124.12 53.6917 172.174 62.2772 175.161C79.8339 181.273 124.225 191.548 136.836 189.53C143.819 188.413 138.844 142.614 138.834 142.594Z" fill="#D6D9F1"/>
<path opacity="0.549" d="M136.916 143.88C134.621 137.758 85.8477 124.714 66.6985 124.803C48.6076 124.911 51.4365 172.283 60.0813 175.339C77.8754 181.639 121.604 192.359 134.344 190.272C141.268 189.145 136.925 143.9 136.916 143.88Z" fill="#D4D8F0"/>
<path opacity="0.5686" d="M134.987 145.166C132.801 139.192 83.9386 125.515 64.7597 125.604C46.3128 125.723 49.1614 172.402 57.8755 175.537C75.907 182.024 118.963 193.2 131.831 191.034C138.716 189.877 134.997 145.195 134.987 145.166Z" fill="#D3D7F0"/>
<path opacity="0.5882" d="M133.068 146.451C131.001 140.626 82.0495 126.306 62.831 126.405C44.028 126.523 46.8965 172.52 55.6699 175.724C73.9486 182.4 116.332 194.02 129.329 191.785C136.164 190.608 133.078 146.481 133.068 146.451Z" fill="#D1D5EF"/>
<path opacity="0.6078" d="M131.139 147.747C129.18 142.07 80.1403 127.107 60.8922 127.206C41.7331 127.335 44.6313 172.639 53.464 175.913C71.9802 182.776 113.701 194.851 126.816 192.537C133.612 191.34 131.149 147.767 131.139 147.747Z" fill="#D0D4EF"/>
<path opacity="0.6275" d="M129.22 149.032C127.38 143.504 78.2513 127.898 58.9637 128.007C39.4584 128.135 42.3663 172.758 51.2584 176.11C70.012 183.171 111.07 195.692 124.314 193.298C131.06 192.072 129.23 149.052 129.22 149.032Z" fill="#CED2EE"/>
<path opacity="0.6471" d="M127.291 150.318C125.561 144.938 76.3424 128.699 57.035 128.798C37.1737 128.927 40.1113 172.867 49.0628 176.288C68.0537 183.537 108.439 196.513 121.812 194.04C128.508 192.804 127.301 150.338 127.291 150.318Z" fill="#CDD1EE"/>
<path opacity="0.6667" d="M125.372 151.604C123.75 146.372 74.4527 129.49 55.1057 129.599C34.8883 129.738 37.8457 172.985 46.8664 176.476C66.0947 183.923 105.817 197.343 119.319 194.792C125.956 193.536 125.382 151.633 125.372 151.604Z" fill="#CBD0ED"/>
<path opacity="0.6863" d="M123.444 152.899C121.931 147.826 72.5442 130.291 53.1675 130.4C32.594 130.539 35.5712 173.104 44.6512 176.664C64.1169 184.299 103.177 198.174 116.797 195.544C123.404 194.268 123.454 152.919 123.444 152.899Z" fill="#C9CEEC"/>
<path opacity="0.7059" d="M121.525 154.185C120.12 149.26 70.6448 131.083 51.2385 131.201C30.3089 131.35 33.3158 173.232 42.4552 176.862C62.1681 184.695 100.556 199.025 114.304 196.305C120.852 195 121.535 154.205 121.525 154.185Z" fill="#C8CDEC"/>
<path opacity="0.7255" d="M119.606 155.471C118.31 150.694 68.7558 131.874 49.3099 131.993C28.0341 132.141 31.0509 173.341 40.2595 177.04C60.2098 185.06 97.9345 199.845 111.802 197.047C118.3 195.741 119.606 155.49 119.606 155.471Z" fill="#C6CBEB"/>
<path opacity="0.7451" d="M117.677 156.756C116.48 152.138 66.8464 132.675 47.3708 132.794C25.7389 132.952 28.7755 173.46 38.0435 177.228C58.2313 185.446 95.2933 200.676 109.289 197.798C115.748 196.473 117.687 156.776 117.677 156.756Z" fill="#C5CAEB"/>
<path opacity="0.7647" d="M115.758 158.042C114.67 153.572 64.9573 133.466 45.4521 133.585C23.4641 133.743 26.5303 173.569 35.8577 177.416C56.2828 185.832 92.6821 201.517 106.797 198.55C113.196 197.205 115.758 158.072 115.758 158.042Z" fill="#C3C9EA"/>
<path opacity="0.7843" d="M113.829 159.337C112.84 155.015 63.0483 134.267 43.5133 134.396C21.1693 134.554 24.2553 173.697 33.642 177.613C54.3045 186.217 90.0411 202.367 104.284 199.311C110.644 197.946 113.839 159.357 113.829 159.337Z" fill="#C2C7EA"/>
<path opacity="0.8039" d="M111.91 160.623C111.02 156.46 61.159 135.058 41.5845 135.187C18.8943 135.355 21.9902 173.816 31.4461 177.791C52.346 186.593 87.4199 203.198 101.782 200.053C108.092 198.678 111.91 160.643 111.91 160.623Z" fill="#C0C6E9"/>
<path opacity="0.8235" d="M109.982 161.909C109.19 157.894 59.2501 135.859 39.6459 135.988C16.5996 136.156 19.7153 173.935 29.2404 177.989C50.3678 186.989 84.7889 204.049 99.2794 200.815C105.54 199.42 109.992 161.928 109.982 161.909Z" fill="#BFC5E9"/>
<path opacity="0.8431" d="M108.063 163.194C107.361 159.337 57.361 136.651 37.7173 136.789C14.3149 136.967 17.4603 174.053 27.0349 178.177C48.3997 187.375 82.1581 204.889 96.7672 201.566C102.989 200.152 108.063 163.214 108.063 163.194Z" fill="#BDC3E8"/>
<path opacity="0.8627" d="M106.134 164.48C105.531 160.771 55.4519 137.442 35.7785 137.58C12.02 137.758 15.1852 174.162 24.829 178.355C46.4312 187.741 79.5269 205.72 94.2646 202.308C100.437 200.894 106.134 164.51 106.134 164.48Z" fill="#BCC2E8"/>
<path opacity="0.8824" d="M104.215 165.776C103.701 162.225 53.5629 138.243 33.8598 138.391C9.74529 138.569 12.9302 174.3 22.6433 178.563C44.4828 188.146 76.9158 206.58 91.7821 203.079C97.885 201.626 104.215 165.795 104.215 165.776Z" fill="#BAC0E7"/>
<path opacity="0.902" d="M102.287 167.061C101.861 163.659 51.654 139.034 31.9213 139.182C7.46057 139.37 10.6554 174.409 20.4278 178.741C42.5048 188.522 74.275 207.421 89.26 203.821C95.3331 202.367 102.287 167.081 102.287 167.061Z" fill="#B9BFE7"/>
<path opacity="0.9216" d="M100.368 168.347C100.031 165.093 49.7648 139.835 29.9925 139.983C5.17566 140.171 8.40015 174.528 18.2319 178.929C40.5463 188.907 71.6637 208.261 86.7675 204.573C92.7812 203.099 100.368 168.367 100.368 168.347Z" fill="#B7BEE6"/>
<path opacity="0.9412" d="M98.4389 169.633C98.1916 166.527 47.8558 140.626 28.0538 140.775C2.88087 140.972 6.11523 174.656 16.0162 179.107C38.5482 189.333 69.0228 209.102 84.2452 205.314C90.2293 203.841 98.4389 169.652 98.4389 169.633Z" fill="#B6BCE6"/>
<path opacity="0.9608" d="M96.5199 170.928C96.3518 167.981 45.9664 141.427 26.1249 141.586C0.595898 141.783 3.85007 174.785 13.8203 179.314C36.5897 189.718 66.4015 209.972 81.7525 206.086C87.6773 204.573 96.5199 170.948 96.5199 170.928Z" fill="#B4BBE5"/>
<path opacity="0.9804" d="M94.5914 172.214C94.5123 169.405 44.0577 142.218 24.1864 142.377C-1.68877 142.574 1.58517 174.894 11.6148 179.492C34.6215 190.084 63.7905 210.833 79.2404 206.827C85.1356 205.324 94.5914 172.233 94.5914 172.214Z" fill="#B3B9E5"/>
<path opacity="0.7" d="M92.6724 173.499C92.6625 170.839 42.1684 143.01 22.2576 143.178C-3.97364 143.385 -0.67989 175.013 9.40904 179.68C32.663 190.46 61.1494 211.664 76.7378 207.579C82.5736 206.056 92.6724 173.519 92.6724 173.499Z" fill="#B1B8E4"/>
</g>
<path d="M132.83 47.8513C132.81 47.4261 132.79 46.981 132.751 46.5459C132.741 46.447 132.741 46.3481 132.731 46.2492C132.721 46.1009 132.682 45.9525 132.662 45.8042C132.612 45.4383 132.563 45.0723 132.503 44.7064C132.454 44.4493 132.414 44.202 132.365 43.9548C132.286 43.5988 132.207 43.2428 132.108 42.8867C132.068 42.7285 132.039 42.5702 131.999 42.4318C131.969 42.3527 131.94 42.2835 131.92 42.2043C131.742 41.6011 131.554 41.0275 131.326 40.4539C131.307 40.4044 131.297 40.355 131.277 40.3055C131.03 39.6825 130.753 39.0891 130.456 38.5056C130.426 38.4463 130.407 38.377 130.377 38.3276C130.327 38.2287 130.258 38.1397 130.209 38.0507C129.942 37.5562 129.655 37.0914 129.348 36.6365C129.259 36.498 129.17 36.3595 129.071 36.2211C128.686 35.6673 128.26 35.1431 127.825 34.6486C127.746 34.5695 127.667 34.4904 127.588 34.4113C127.202 34.0058 126.796 33.6201 126.371 33.2542C126.242 33.1454 126.104 33.0267 125.965 32.9179C125.451 32.5125 124.917 32.1268 124.353 31.8004L76.5792 4.22807C76.0946 3.95116 75.6098 3.7138 75.1153 3.50612C74.9471 3.43689 74.779 3.39734 74.6108 3.32811C74.3339 3.22922 74.057 3.11052 73.7701 3.0314C73.7305 3.02151 73.6811 3.02153 73.6415 3.01164C73.2854 2.91274 72.9195 2.8633 72.5634 2.80396C72.3854 2.77429 72.2073 2.72484 72.0293 2.70506C71.4853 2.64572 70.9511 2.62594 70.417 2.64572L60.8128 3.0413C60.9117 3.03141 61.0106 3.06109 61.1194 3.0512C55.8672 3.12043 50.9316 7.0565 48.7456 13.7024L1.99036 155.807C-0.996751 164.895 2.30691 175.576 9.37905 179.661L57.1432 207.243C59.2203 208.44 61.3964 208.924 63.513 208.796C63.4438 208.796 63.3844 208.815 63.3152 208.815L72.9096 208.42C78.053 208.212 82.8304 204.276 84.9669 197.779L131.722 55.6741C131.969 54.9027 132.167 54.1214 132.325 53.3401C132.365 53.1522 132.405 52.9544 132.434 52.7764C132.573 51.9852 132.691 51.2039 132.751 50.4226V50.4128V50.3732C132.8 49.7402 132.81 49.1073 132.81 48.4744C132.86 48.2766 132.84 48.0689 132.83 47.8513Z" fill="#B1B8E4"/>
<path d="M65.0164 1.36993C64.6998 1.25125 64.3833 1.14246 64.0569 1.05345C63.681 0.954552 63.3052 0.885324 62.9293 0.835875C62.7611 0.806206 62.6029 0.756752 62.4249 0.736973C61.8809 0.677635 61.3369 0.657858 60.8027 0.677637L70.4466 0.272188C70.9807 0.252409 71.5247 0.272186 72.0687 0.331524C72.2468 0.351303 72.4248 0.400727 72.6028 0.430396C72.9688 0.489734 73.3249 0.539204 73.6908 0.6381C73.7403 0.64799 73.7799 0.647979 73.8194 0.657869C74.0964 0.736986 74.3832 0.85565 74.6602 0.954546C74.8283 1.01388 74.9964 1.06336 75.1646 1.13258C75.6592 1.33038 76.1439 1.5776 76.6285 1.85451L124.66 29.5752L115.016 29.9807L66.9847 2.25012C66.5 1.96332 66.0055 1.72596 65.5109 1.52816C65.3625 1.47871 65.1845 1.43915 65.0164 1.36993Z" fill="#F9FAFF"/>
<path d="M75.4616 196.879L122.464 54.0026C122.721 53.2313 122.909 52.45 123.077 51.6588C123.117 51.461 123.157 51.2731 123.186 51.0753C123.325 50.294 123.443 49.5127 123.503 48.7216C123.503 48.6721 123.503 48.6326 123.513 48.5831C123.552 47.9798 123.572 47.3667 123.572 46.7634C123.562 46.5458 123.552 46.3382 123.552 46.1206C123.532 45.6854 123.513 45.2404 123.473 44.8053C123.453 44.558 123.424 44.3009 123.394 44.0537C123.344 43.6778 123.295 43.3218 123.226 42.9559C123.186 42.6988 123.137 42.4515 123.087 42.2043C123.008 41.8384 122.929 41.4922 122.83 41.1362C122.771 40.8988 122.711 40.6714 122.642 40.4439C122.474 39.8407 122.276 39.2572 122.049 38.6836C122.029 38.6341 122.009 38.5748 121.999 38.5253C121.752 37.9122 121.475 37.3188 121.178 36.7353C121.089 36.5771 121 36.4188 120.921 36.2606C120.654 35.776 120.377 35.3112 120.071 34.8563C119.972 34.7178 119.883 34.5596 119.784 34.4211C119.388 33.8673 118.973 33.3431 118.537 32.8487C118.458 32.7597 118.369 32.6805 118.28 32.5816C117.894 32.1762 117.499 31.8004 117.074 31.4443C116.935 31.3257 116.797 31.207 116.658 31.0982C116.144 30.6927 115.61 30.3169 115.046 29.9906L124.69 29.5851C125.263 29.9114 125.797 30.2972 126.312 30.7125C126.45 30.8213 126.589 30.94 126.717 31.0488C127.143 31.4147 127.548 31.8004 127.944 32.2058C128.023 32.2948 128.102 32.3641 128.181 32.4531C128.626 32.9476 129.042 33.4717 129.437 34.0354C129.536 34.1739 129.625 34.3124 129.724 34.4508C130.031 34.9156 130.318 35.3903 130.585 35.8749C130.634 35.9738 130.703 36.0628 130.753 36.1617C130.783 36.221 130.802 36.2804 130.832 36.3397C131.129 36.9232 131.416 37.5265 131.653 38.1396C131.673 38.1891 131.693 38.2385 131.712 38.288C131.94 38.8616 132.128 39.4549 132.306 40.0483C132.326 40.1274 132.355 40.1967 132.385 40.2758C132.434 40.4241 132.454 40.5824 132.494 40.7307C132.583 41.0966 132.672 41.4428 132.741 41.8087C132.79 42.056 132.84 42.3131 132.889 42.5603C132.949 42.9262 132.998 43.2922 133.048 43.6581C133.067 43.8064 133.097 43.9548 133.117 44.113C133.127 44.2119 133.127 44.3108 133.137 44.4097C133.176 44.8448 133.206 45.28 133.216 45.7151C133.226 45.9228 133.236 46.1404 133.236 46.3579C133.236 46.9909 133.226 47.6238 133.176 48.2667C133.176 48.2765 133.176 48.2864 133.176 48.3062C133.117 49.0974 132.998 49.8886 132.86 50.6698C132.82 50.8676 132.781 51.0555 132.741 51.2434C132.573 52.0346 132.385 52.8159 132.138 53.5873L85.1351 196.463C82.9887 203 78.1717 206.946 73.0086 207.164L63.3647 207.569C68.4982 207.371 73.3054 203.416 75.4616 196.879Z" fill="url(#paint0_linear_663_5)"/>
<path d="M64.2747 10.5575C58.3598 7.14552 51.5053 10.5574 49.0028 18.1527L3.81033 155.53C1.31777 163.125 4.09713 172.105 10.012 175.517L58.0432 203.238C63.9581 206.65 70.8127 203.238 73.3151 195.642L118.508 58.2651C121 50.6699 118.231 41.6901 112.316 38.288L64.2747 10.5575Z" fill="url(#paint1_linear_663_5)"/>
<path d="M115.026 30.0005C122.138 34.1047 125.471 44.8449 122.464 54.0027L75.4616 196.878C72.4548 206.016 64.255 210.101 57.1334 205.987L9.10211 178.256C1.9904 174.152 -1.33302 163.412 1.67388 154.274L48.6864 11.3882C51.6933 2.23037 59.9029 -1.84416 67.0047 2.25016L115.026 30.0005ZM3.81039 155.52C1.31783 163.115 4.09719 172.095 10.0121 175.507L58.0433 203.228C63.9582 206.64 70.8128 203.228 73.3152 195.632L118.508 58.2552C121 50.66 118.231 41.6901 112.316 38.2781L64.2846 10.5476C58.3697 7.13563 51.5153 10.5476 49.0128 18.1428L3.81039 155.52Z" fill="white"/>
<path d="M84.126 15.8978C83.7205 15.6605 83.2555 15.878 83.0874 16.4022C82.9192 16.9165 83.1072 17.5197 83.5127 17.7571L95.2239 24.5216C95.6295 24.7589 96.0844 24.5117 96.2526 24.0073C96.4208 23.4733 96.2427 22.8898 95.8372 22.6524L84.126 15.8978Z" fill="url(#paint2_linear_663_5)"/>
<path opacity="0.4" d="M112.326 38.2782L64.3046 10.5575C60.9219 8.59934 57.2325 8.89601 54.2256 10.9135L90.5952 143.178L118.528 58.2652C121.02 50.6699 118.251 41.6901 112.326 38.2782Z" fill="white"/>
<path d="M76.985 41.4032L59.6953 31.4245C58.4886 30.7224 57.084 31.4245 56.5697 32.9772L49.2602 55.1993C48.7458 56.7519 49.3195 58.5914 50.5262 59.2936L67.8159 69.2722C69.0226 69.9744 70.4272 69.2722 70.9415 67.7196L76.9751 49.3743L76.4113 49.6512L70.5458 67.4921C70.1304 68.758 68.9831 69.3415 67.9841 68.7679L50.6943 58.7892C49.7052 58.2156 49.2403 56.7025 49.6558 55.4366L56.9653 33.2146C57.3906 31.9289 58.538 31.3652 59.5271 31.9388L76.8168 41.9174C77.8158 42.491 78.2807 43.9943 77.8554 45.2701V45.2799L78.3796 45.0228C78.6466 43.5789 78.073 42.0262 76.985 41.4032Z" fill="white"/>
<path d="M40.002 91.2767C39.0129 90.7031 38.548 89.19 38.9634 87.9242L46.273 65.712C46.6884 64.4461 47.8456 63.8626 48.8347 64.4362L66.1244 74.4149C67.1234 74.9885 67.5784 76.5016 67.163 77.7675L59.8534 99.9797C59.438 101.246 58.2907 101.829 57.2917 101.255L40.002 91.2767ZM66.2926 73.8908L49.0029 63.9121C47.7962 63.2099 46.3916 63.9121 45.8773 65.4648L38.5678 87.6769C38.0534 89.2296 38.6271 91.069 39.8339 91.7712L57.1235 101.75C58.3302 102.452 59.7348 101.75 60.2491 100.197L67.5586 77.985C68.073 76.4324 67.4993 74.5929 66.2926 73.8908Z" fill="white"/>
<path d="M54.6012 138.361C53.6121 137.788 53.1374 136.285 53.5627 135.009L60.8722 112.797C61.2877 111.531 62.4449 110.947 63.434 111.521L80.7237 121.499C81.7227 122.073 82.1777 123.586 81.7622 124.852L74.4527 147.064C74.0274 148.35 72.8899 148.914 71.8909 148.34L54.6012 138.361ZM80.8819 120.985L63.5923 111.007C62.3856 110.304 60.981 111.007 60.4667 112.559L53.1571 134.781C52.6428 136.334 53.2165 138.173 54.4232 138.876L71.7128 148.854C72.9196 149.557 74.3241 148.854 74.8385 147.302L82.148 125.089C82.6623 123.527 82.0985 121.687 80.8819 120.985Z" fill="white"/>
<path d="M80.7431 44.3701C80.4364 44.1921 80.0803 44.1624 79.744 44.3306L78.3692 45.013L77.845 45.2701L62.583 52.8654L59.6552 43.4306C59.5168 42.9955 59.2596 42.6691 58.953 42.4911C58.6464 42.3131 58.2903 42.2834 57.954 42.4515C57.2913 42.7878 56.9649 43.7669 57.232 44.6371L60.6543 55.6543C60.7828 56.0697 61.0301 56.4158 61.3466 56.6037C61.6632 56.7817 62.0291 56.8015 62.3556 56.6433L76.4009 49.6611L76.9647 49.3842L80.7134 47.5151C81.3761 47.1788 81.7025 46.1997 81.4354 45.3294C81.3168 44.8745 81.0497 44.5482 80.7431 44.3701Z" fill="#FD7B88"/>
<path d="M102.266 56.0004L84.9864 46.0217C83.7796 45.3195 82.3751 46.0217 81.8607 47.5744L74.5512 69.7964C74.0368 71.3491 74.6105 73.1886 75.8173 73.8908L93.1069 83.8694C94.3137 84.5715 95.7182 83.8694 96.2326 82.3167L102.266 63.9714L101.702 64.2483L95.8369 82.0893C95.4215 83.3551 94.2741 83.9386 93.2751 83.365L75.9854 73.3864C74.9963 72.8128 74.5314 71.2996 74.9468 70.0338L82.2564 47.8117C82.6817 46.5261 83.8291 45.9624 84.8182 46.536L102.098 56.5047C103.097 57.0783 103.562 58.5816 103.137 59.8573V59.8672L103.661 59.6101C103.928 58.1761 103.354 56.6234 102.266 56.0004Z" fill="white"/>
<path d="M106.025 58.9673C105.718 58.7893 105.362 58.7596 105.026 58.9278L103.651 59.6101L103.127 59.8673L87.8648 67.4625L84.937 58.0278C84.7985 57.5926 84.5414 57.2663 84.2348 57.0883C83.9281 56.9102 83.572 56.8806 83.2357 57.0487C82.573 57.3849 82.2467 58.364 82.5137 59.2343L85.936 70.2514C86.0646 70.6668 86.3119 71.0129 86.6284 71.2008C86.9449 71.3788 87.3109 71.3986 87.6373 71.2404L101.683 64.2583L102.246 63.9814L105.995 62.1122C106.658 61.7859 106.984 60.7969 106.717 59.9266C106.599 59.4717 106.341 59.1453 106.025 58.9673Z" fill="#FD7B88"/>
<path d="M91.5742 88.4879L74.2846 78.5092C73.0779 77.8071 71.6733 78.5093 71.159 80.0619L63.8495 102.274C63.3352 103.827 63.9088 105.666 65.1155 106.368L82.4052 116.347C83.6119 117.049 85.0164 116.347 85.5308 114.794L91.5643 96.4491L91.0005 96.726L85.1351 114.557C84.7197 115.823 83.5724 116.406 82.5734 115.833L65.2837 105.854C64.2946 105.281 63.8297 103.767 64.2451 102.502L71.5547 80.2795C71.9701 79.0136 73.1273 78.4301 74.1164 79.0037L91.4061 88.9824C92.4051 89.556 92.8601 91.0691 92.4447 92.335L92.4348 92.3548L92.959 92.0976C93.236 90.6834 92.6721 89.1209 91.5742 88.4879Z" fill="white"/>
<path d="M95.3329 91.4646C95.0263 91.2866 94.6702 91.2668 94.3339 91.4349L92.959 92.1173L92.4348 92.3745L77.1827 99.9598L74.2549 90.5251C74.1164 90.09 73.8593 89.7636 73.5527 89.5856C73.2461 89.4076 72.89 89.3779 72.5537 89.546C71.891 89.8822 71.5645 90.8613 71.8316 91.7316L75.2539 102.759C75.3825 103.174 75.6397 103.51 75.9562 103.688C76.2826 103.876 76.6288 103.886 76.9552 103.738L91.0006 96.7457L91.5644 96.4687L95.3131 94.5996C95.9758 94.2634 96.2923 93.3041 96.0253 92.4338C95.9066 91.9789 95.6494 91.6426 95.3329 91.4646Z" fill="#FD7B88"/>
<path d="M55.6001 106.388L38.3105 96.4094C37.1038 95.7072 35.6992 96.4094 35.1849 97.9621L27.8754 120.184C27.361 121.737 27.9348 123.576 29.1415 124.279L46.4311 134.257C47.6378 134.959 49.0423 134.257 49.5567 132.704L55.5902 114.359L55.0264 114.636L49.161 132.467C48.7357 133.753 47.5983 134.316 46.5993 133.743L29.3096 123.764C28.3205 123.191 27.8457 121.687 28.271 120.412L35.5806 98.1994C35.996 96.9335 37.1532 96.3501 38.1423 96.9237L55.432 106.902C56.431 107.476 56.886 108.989 56.4705 110.255L56.4606 110.285L56.9849 110.027C57.2618 108.584 56.698 107.021 55.6001 106.388Z" fill="white"/>
<path d="M59.3587 109.375C59.0521 109.197 58.696 109.167 58.3597 109.335L56.9849 110.018L56.4606 110.275L41.1987 117.87L38.2808 108.416C38.1423 107.98 37.8851 107.654 37.5785 107.476C37.2719 107.298 36.9158 107.268 36.5795 107.437C35.9168 107.773 35.5904 108.752 35.8575 109.622L39.2699 120.649C39.3985 121.064 39.6557 121.401 39.9722 121.579C40.2887 121.757 40.6547 121.786 40.9712 121.628L55.0165 114.636L55.5803 114.359L59.3291 112.49C59.9918 112.154 60.3182 111.195 60.0412 110.314C59.9225 109.879 59.6654 109.553 59.3587 109.375Z" fill="#FD7B88"/>
<defs>
<linearGradient id="paint0_linear_663_5" x1="98.2735" y1="207.582" x2="98.2735" y2="29.5925" gradientUnits="userSpaceOnUse">
<stop stop-color="#B1B8E4"/>
<stop offset="0.0353" stop-color="#C7CDEF"/>
<stop offset="0.0807" stop-color="#DEE2FA"/>
<stop offset="0.1095" stop-color="#E6EAFE"/>
<stop offset="0.7186" stop-color="#E6EAFE"/>
<stop offset="1" stop-color="#F9FAFF"/>
</linearGradient>
<linearGradient id="paint1_linear_663_5" x1="77.9345" y1="202.034" x2="44.3883" y2="11.7568" gradientUnits="userSpaceOnUse">
<stop stop-color="#437FEC"/>
<stop offset="0.0373" stop-color="#477EED"/>
<stop offset="0.4753" stop-color="#7772F3"/>
<stop offset="0.8102" stop-color="#956BF7"/>
<stop offset="1" stop-color="#A068F8"/>
</linearGradient>
<linearGradient id="paint2_linear_663_5" x1="96.3255" y1="20.2113" x2="83.0238" y2="20.2113" gradientUnits="userSpaceOnUse">
<stop stop-color="#A068F8"/>
<stop offset="0.1934" stop-color="#9478F6"/>
<stop offset="0.5723" stop-color="#75A2F2"/>
<stop offset="1" stop-color="#4CD9ED"/>
</linearGradient>
</defs>
</svg>
