<svg width="127" height="96" viewBox="0 0 127 96" fill="none" xmlns="http://www.w3.org/2000/svg">
<g style="mix-blend-mode:multiply" opacity="0.15">
<g style="mix-blend-mode:multiply" opacity="0.03">
<path d="M61.9925 62.1933C57.4209 64.8479 52.7808 67.4752 48.4008 70.4036C45.5128 73.7287 50.3718 76.055 52.8356 77.4781L78.1028 92.065C80.8403 93.6523 83.0439 95.1439 86.1647 95.1439C88.6836 95.1326 91.1491 94.4169 93.2822 93.0776L103.945 86.8789C110.433 83.1158 117.222 79.5717 123.477 75.4802C122.957 75.8087 123.764 75.2887 123.874 75.1929C123.983 75.0971 124.216 74.9466 124.339 74.8097L124.408 74.7276C124.625 74.4808 124.826 74.2203 125.01 73.9477C125.255 73.5086 125.382 73.0137 125.379 72.5109C125.202 69.3773 120.479 67.6942 118.043 66.3668L117.797 66.2163L104.52 58.5671L94.2951 52.6557C91.3112 50.9315 88.2315 49.1252 84.7138 49.9189H84.878C84.179 50.0189 83.4883 50.1698 82.8113 50.3705L82.5785 50.4526C81.1776 51.0456 79.8311 51.7599 78.5544 52.5872L73.1752 55.7071L61.9925 62.1933Z" fill="#FDFDFE"/>
</g>
<g style="mix-blend-mode:multiply" opacity="0.06">
<path d="M60.5418 62.1932C55.9565 64.8479 51.3301 67.4752 46.9501 70.4035C44.0621 73.7287 48.9211 76.0413 51.3849 77.4507L76.652 92.0377C79.3895 93.6387 81.5931 95.1439 84.7139 95.1439C87.2287 95.1209 89.6878 94.4009 91.8177 93.0639L102.48 86.8515C108.968 83.0884 115.757 79.5443 122.012 75.4665C121.506 75.7813 122.3 75.2613 122.423 75.1792C122.546 75.0971 122.751 74.9192 122.888 74.7823V74.7139C123.053 74.5224 123.436 73.9887 123.491 73.9339C123.725 73.5154 123.852 73.0452 123.86 72.5656C123.696 69.4183 118.96 67.7626 116.537 66.4215L116.277 66.2847C111.852 63.7304 107.431 61.1806 103.014 58.6354L92.7895 52.724C89.8056 50.9999 86.7123 49.1936 83.2083 49.9873H83.3588C82.6645 50.0885 81.9784 50.2395 81.3057 50.4389L81.073 50.521C79.6453 51.1129 78.2715 51.8271 76.9668 52.6556L71.6013 55.7755L60.5418 62.1932Z" fill="#FAFBFE"/>
</g>
<g style="mix-blend-mode:multiply" opacity="0.1">
<path d="M59.0771 62.1933C54.4918 64.8479 49.8654 67.4752 45.4854 70.4036C42.5973 73.7287 47.4701 76.0276 49.9338 77.437L75.1874 92.024C77.9249 93.625 80.1285 95.1439 83.2493 95.1439C85.7633 95.1182 88.2198 94.3881 90.3395 93.0366L101.002 86.8378C107.49 83.0611 114.279 79.5306 120.534 75.4392C120.028 75.7539 120.808 75.2476 120.945 75.1518C121.082 75.0561 121.287 74.8918 121.41 74.755H121.479C121.696 74.5081 121.897 74.2476 122.081 73.975C122.315 73.5562 122.442 73.0862 122.45 72.6066C122.286 69.473 117.55 67.831 115.128 66.49L114.868 66.3532C110.46 63.7989 106.044 61.2491 101.618 58.7039L91.3934 52.7925C88.3958 51.0683 85.3161 49.2621 81.8121 50.0557H81.9626C81.2681 50.1554 80.5818 50.3063 79.9095 50.5073L79.6084 50.4252C78.1807 51.0172 76.8068 51.7314 75.5022 52.5599L70.1367 55.6798L59.0771 62.1933Z" fill="#F8F9FD"/>
</g>
<g style="mix-blend-mode:multiply" opacity="0.13">
<path d="M57.6263 62.1932C53.0547 64.8479 48.4146 67.4752 44.0346 70.4035C41.1603 73.7287 46.033 76.0002 48.4968 77.4233L73.7638 92.0103C76.5013 93.5976 78.6776 95.1439 81.8121 95.1439C84.3273 95.1133 86.7836 94.3786 88.9022 93.0229C92.4472 90.9566 96.006 88.9177 99.5648 86.8104C106.039 83.0337 112.842 79.5033 119.083 75.4255C118.59 75.7402 119.357 75.2339 119.494 75.1244C119.631 75.015 119.85 74.8645 119.959 74.7276C120.069 74.5908 119.959 74.7276 119.959 74.6592C119.959 74.5908 120.52 73.9476 120.561 73.8929C120.803 73.4771 120.93 73.0052 120.931 72.5245C120.767 69.3772 116.031 67.7489 113.608 66.4215L113.362 66.271C108.941 63.7258 104.533 61.167 100.099 58.6354L89.8877 52.724C86.8902 50.9999 83.8105 49.1936 80.3065 49.9873H80.457C79.7624 50.0869 79.0762 50.2379 78.4039 50.4389L78.1575 50.521C76.7592 51.1195 75.4131 51.8335 74.1334 52.6556L68.7679 55.7755L57.6263 62.1932Z" fill="#F6F7FC"/>
</g>
<g style="mix-blend-mode:multiply" opacity="0.16">
<path d="M56.1754 62.1933C51.6037 64.8479 46.9637 67.4752 42.5837 70.4036C39.7093 73.7287 44.5958 75.9865 47.0458 77.4097L72.3129 91.9966C75.0504 93.5839 77.2267 95.1439 80.3612 95.1439C82.8723 95.1016 85.3222 94.3626 87.4376 93.0092L98.1002 86.7831C104.574 83.02 111.377 79.4896 117.619 75.3981C117.126 75.7129 117.892 75.2203 118.043 75.0971C118.193 74.9739 118.385 74.8371 118.508 74.714V74.6456C118.686 74.454 119.069 73.9203 119.11 73.8656C119.341 73.4448 119.473 72.9766 119.494 72.4972C119.316 69.3362 114.58 67.7352 112.157 66.3942L111.911 66.2574C107.503 63.7122 103.082 61.1533 98.6614 58.6218L88.4505 52.7104C85.453 50.9863 82.3733 49.18 78.8693 49.9737H79.0198C78.3252 50.0733 77.639 50.2242 76.9667 50.4252L76.7203 50.5073C75.3193 51.1004 73.9728 51.8146 72.6962 52.642L67.2896 55.7208L56.1754 62.1933Z" fill="#F3F5FC"/>
</g>
<g style="mix-blend-mode:multiply" opacity="0.19">
<path d="M54.7246 62.1932C50.1529 64.8479 45.5129 67.4752 41.1329 70.4035C38.2585 73.7287 43.1449 75.9729 45.6086 77.3823L70.8758 91.9692C73.6133 93.5702 75.776 95.1439 78.9104 95.1439C81.4207 95.0982 83.8677 94.3491 85.9732 92.9818L96.6358 86.7557C103.11 82.9926 109.913 79.4622 116.168 75.3844C115.675 75.6855 116.414 75.1929 116.578 75.0834C116.758 74.9831 116.916 74.8483 117.044 74.6866V74.6181C117.222 74.4266 117.591 73.9066 117.632 73.8518C117.861 73.431 117.988 72.9623 118.002 72.4835C117.824 69.3225 113.088 67.7489 110.679 66.4078L110.419 66.271C106.012 63.7076 101.6 61.1624 97.1833 58.6354L86.9724 52.724C83.9748 50.9999 80.8951 49.1936 77.309 49.9873H77.4732C76.7786 50.0869 76.0924 50.2379 75.4201 50.4389L75.1737 50.521C73.7727 51.114 72.4263 51.8283 71.1496 52.6556L65.921 55.7208L54.7246 62.1932Z" fill="#F1F3FB"/>
</g>
<g style="mix-blend-mode:multiply" opacity="0.23">
<path d="M53.2735 62.1933C48.7019 64.8479 44.0618 67.4752 39.6818 70.4036C36.7937 73.7287 41.6938 75.9592 44.1575 77.3686L69.4248 91.9556C72.1623 93.5566 74.3249 95.1439 77.4456 95.1439C79.9561 95.0869 82.4013 94.3336 84.5084 92.9681C88.0672 90.8882 91.6122 88.7946 95.171 86.742C101.645 82.9653 108.448 79.4486 114.703 75.3571C114.224 75.6581 114.949 75.1792 115.114 75.056C115.297 74.9606 115.456 74.8249 115.579 74.6592C115.579 74.6592 115.579 74.6592 115.648 74.5908C115.858 74.3468 116.055 74.091 116.236 73.8245C116.464 73.4031 116.59 72.9347 116.606 72.4561C116.428 69.2952 111.706 67.7352 109.283 66.3942L109.023 66.2437L95.8007 58.6218L85.5897 52.7104C82.5922 50.9863 79.5125 49.18 75.9263 49.9737H76.0906C75.396 50.0733 74.7097 50.2242 74.0374 50.4252L73.7911 50.5073C72.3901 51.1004 71.0436 51.8146 69.7669 52.642L64.3878 55.7619L53.2735 62.1933Z" fill="#EFF1FA"/>
</g>
<g style="mix-blend-mode:multiply" opacity="0.26">
<path d="M51.8228 62.1933C47.2511 64.8479 42.6111 67.4752 38.2311 70.4036C35.343 73.7287 40.2568 75.8771 42.7068 77.3549L67.974 91.9419C70.7115 93.5292 72.8741 95.1439 75.9949 95.1439C78.5088 95.0837 80.9556 94.3205 83.0577 92.9408C86.6164 90.8745 90.1478 88.8356 93.7065 86.7146C100.181 82.9379 106.983 79.4212 113.239 75.3434C112.76 75.6444 113.485 75.1655 113.663 75.0287C113.842 74.9337 114.001 74.8033 114.128 74.6456V74.5771C114.343 74.3284 114.544 74.068 114.731 73.7971C114.959 73.3763 115.086 72.9075 115.1 72.4287C114.936 69.2678 110.2 67.7215 107.777 66.3805L107.531 66.2437L94.3088 58.6218L84.0842 52.7104C81.1004 50.9863 78.0207 49.18 74.503 49.9737H74.6672C73.9682 50.0736 73.2774 50.2246 72.6004 50.4252L72.3677 50.5073C70.9667 51.1004 69.6202 51.8146 68.3436 52.642L62.9644 55.7619L51.8228 62.1933Z" fill="#ECEFFA"/>
</g>
<g style="mix-blend-mode:multiply" opacity="0.29">
<path d="M50.3719 62.1933C45.8003 64.8479 41.1602 67.4752 36.7802 70.4036C33.8922 73.7287 38.8059 75.8771 41.2697 77.3413L66.5368 91.9282C69.2743 93.5155 71.4233 95.1439 74.544 95.1439C77.0537 95.0721 79.4942 94.3046 81.5931 92.9271C85.1519 90.8472 88.6832 88.7535 92.2419 86.6873C98.7161 82.9242 105.519 79.4075 111.774 75.316C111.309 75.6171 112.007 75.1381 112.198 75.0013C112.38 74.9098 112.539 74.7789 112.664 74.6182L112.732 74.5498C112.91 74.3582 113.28 73.8382 113.321 73.7835C113.557 73.3658 113.685 72.8951 113.69 72.4151C113.526 69.2404 108.79 67.7215 106.367 66.3805L106.121 66.2437L92.9126 58.6218L82.6881 52.7104C79.7042 50.9863 76.6245 49.18 73.1068 49.9737H73.2711C72.5721 50.0736 71.8813 50.2246 71.2043 50.4252L70.9716 50.5073C69.5706 51.1004 68.2241 51.8146 66.9475 52.642L61.5683 55.7619L50.3719 62.1933Z" fill="#EAEDF9"/>
</g>
<g style="mix-blend-mode:multiply" opacity="0.32">
<path d="M48.921 62.1933C44.3357 64.848 39.7093 67.4752 35.3293 70.4036C32.4412 73.7287 37.3687 75.8771 39.8187 77.3139L65.0859 91.9145C67.8234 93.5018 69.9586 95.1439 73.0931 95.1439C75.602 95.0686 78.0396 94.2911 80.1285 92.8997C83.6872 90.8335 87.2186 88.7946 90.7773 86.6599C97.2515 82.8969 104.068 79.3801 110.309 75.3024C109.858 75.5897 110.542 75.1245 110.734 74.9877C110.916 74.8903 111.074 74.7549 111.199 74.5908C111.41 74.3468 111.606 74.091 111.788 73.8245C112.02 73.4043 112.151 72.9358 112.171 72.4561C111.993 69.2815 107.257 67.7899 104.848 66.4489L104.588 66.2984C100.199 63.7532 95.8006 61.2172 91.3933 58.6902L81.1687 52.7788C78.1712 51.0547 75.0915 49.2484 71.5191 50.0421H71.6696C70.975 50.1418 70.2888 50.2927 69.6165 50.4936L69.3838 50.5757C67.9561 51.1677 66.5822 51.8819 65.2776 52.7104L59.912 55.8303L48.921 62.1933Z" fill="#E8EBF9"/>
</g>
<g style="mix-blend-mode:multiply" opacity="0.35">
<path d="M47.4702 62.1933C42.8849 64.848 38.2448 67.4753 33.8648 70.4036C30.9904 73.7288 35.9179 75.8771 38.3817 77.2455L63.6489 91.8325C66.3864 93.4335 68.5079 95.0892 71.6424 95.0892C74.1471 95.0023 76.5783 94.2206 78.6641 92.8314C82.2228 90.7514 85.7542 88.6441 89.313 86.5915C95.7872 82.8148 102.604 79.3118 108.845 75.234C108.393 75.5077 109.078 75.0561 109.283 74.9056C109.459 74.8053 109.616 74.6757 109.748 74.5224V74.454C109.96 74.2109 110.157 73.955 110.337 73.6877C110.562 73.2653 110.688 72.7975 110.707 72.3193C110.529 69.1447 105.793 67.6531 103.384 66.3121L103.124 66.1753C98.7254 63.6301 94.3271 61.094 89.9289 58.5671L79.718 52.6557C76.7205 50.9315 73.6408 49.1252 70.1368 49.9189H70.2873C69.5927 50.0186 68.9065 50.1695 68.2342 50.3705L68.0015 50.4526C66.5973 51.0481 65.2465 51.7622 63.9637 52.5872L58.5982 55.7071L47.4702 62.1933Z" fill="#E5E9F8"/>
</g>
<g style="mix-blend-mode:multiply" opacity="0.39">
<path d="M46.0058 62.1933C41.4342 64.8479 36.7941 67.4752 32.4141 70.4035C29.5397 73.7287 34.4672 75.8771 36.931 77.2454L62.1981 91.8324C64.9356 93.4197 67.0572 95.1028 70.1916 95.1028C72.6999 95.0128 75.1327 94.2211 77.2133 92.8176C80.772 90.7514 84.2898 88.6441 87.8485 86.5778C94.3364 82.8011 101.139 79.298 107.394 75.2202C106.943 75.4939 107.613 75.056 107.819 74.8918C107.994 74.7906 108.151 74.6612 108.284 74.5087V74.4402C108.491 74.1968 108.683 73.9409 108.859 73.6739C109.082 73.2508 109.208 72.7834 109.228 72.3056C109.05 69.1309 104.315 67.6668 101.906 66.3257L101.659 66.1889C97.27 63.6437 92.8718 61.1077 88.4644 58.5807L78.2536 52.6693C75.256 50.9452 72.1763 49.1389 68.6039 49.9326H68.7544C68.0598 50.0323 67.3736 50.1832 66.7013 50.3841L66.4549 50.4662C65.0553 51.0621 63.709 51.7763 62.4308 52.6009L57.0653 55.7208L46.0058 62.1933Z" fill="#E3E7F7"/>
</g>
<g style="mix-blend-mode:multiply" opacity="0.42">
<path d="M44.5546 62.1933C39.983 64.8479 35.3429 67.4752 30.9629 70.4036C28.0885 73.7287 33.0297 75.8771 35.4798 77.2455L60.7469 91.8325C63.4844 93.4198 65.606 95.1166 68.7405 95.1166C71.2446 95.015 73.671 94.219 75.7485 92.8177C79.3072 90.7378 82.825 88.6304 86.3837 86.5642C92.8716 82.8011 99.6743 79.2981 105.929 75.2203C105.491 75.4939 106.135 75.0424 106.354 74.8782C106.534 74.7844 106.693 74.6539 106.819 74.495V74.4266C107.011 74.2351 107.367 73.715 107.408 73.674C107.638 73.2538 107.765 72.7846 107.777 72.3056C107.599 69.1173 102.863 67.6805 100.454 66.3395L100.208 66.1889L87.027 58.5944L76.8709 52.6419C73.8733 50.9178 70.7936 49.1115 67.2896 49.9052H67.4401C66.7456 50.0049 66.0593 50.1558 65.387 50.3568L65.1407 50.4389C63.7397 51.0319 62.3932 51.7462 61.1165 52.5735L55.7373 55.6935L44.5546 62.1933Z" fill="#E1E5F7"/>
</g>
<g style="mix-blend-mode:multiply" opacity="0.45">
<path d="M43.1038 62.1933C38.5322 64.848 33.8922 67.4752 29.5122 70.4036C26.6241 73.7287 31.579 75.8771 34.0427 77.2455L59.3098 91.8461C62.0473 93.4334 64.1552 95.1439 67.2759 95.1439C69.7836 95.0392 72.2116 94.2332 74.2839 92.8176C77.8427 90.7514 81.3741 88.6304 84.9191 86.5641C91.407 82.8011 98.2097 79.298 104.465 75.2203C104.027 75.4939 104.67 75.0561 104.903 74.8919C105.075 74.7856 105.231 74.6568 105.368 74.5087C105.58 74.2656 105.777 74.0097 105.957 73.7424C106.186 73.3216 106.312 72.8528 106.326 72.374C106.162 69.1857 101.413 67.7626 99.0173 66.4216L98.7572 66.2847C94.3772 63.7532 89.9835 61.2081 85.5898 58.6902L75.3653 52.7788C72.3814 51.0547 69.3017 49.2484 65.7155 50.0421H65.8798C65.1852 50.1418 64.499 50.2927 63.8267 50.4936L63.5803 50.5757C62.1793 51.1688 60.8328 51.8831 59.5562 52.7104L54.177 55.8303L43.1038 62.1933Z" fill="#DEE3F6"/>
</g>
<g style="mix-blend-mode:multiply" opacity="0.48">
<path d="M41.6527 62.1933C37.0811 64.8479 32.441 67.4752 28.061 70.4036C25.1729 73.7287 30.1415 75.8771 32.5916 77.2455L57.8587 91.8324C60.5962 93.4334 62.7041 95.1575 65.8248 95.1575C68.3071 95.0415 70.7089 94.2411 72.7644 92.845C76.3232 90.7787 79.8546 88.644 83.3997 86.5915C89.8875 82.8147 96.7039 79.3254 102.945 75.2476C102.521 75.5076 103.151 75.0834 103.383 74.9055C103.558 74.803 103.715 74.6737 103.849 74.5224V74.454C104.027 74.2487 104.396 73.7424 104.424 73.7014C104.658 73.2819 104.789 72.813 104.807 72.333C104.629 69.131 99.8794 67.7352 97.4841 66.3942L97.2377 66.2574C92.8395 63.7122 88.4503 61.1807 84.0703 58.6629L73.8457 52.7515C70.8618 51.0273 67.7821 49.2211 64.2644 50.0147H64.4287C63.7296 50.1147 63.0389 50.2656 62.3619 50.4663L62.1292 50.5484C60.7282 51.1415 59.3817 51.8557 58.105 52.683L52.7259 55.8029L41.6527 62.1933Z" fill="#DCE1F5"/>
</g>
<g style="mix-blend-mode:multiply" opacity="0.52">
<path d="M40.202 62.1933C35.6304 64.848 30.9903 67.4753 26.6103 70.4036C23.7222 73.7288 28.6908 75.8771 31.1409 77.2455L56.4217 91.8324C59.1593 93.4334 61.2534 95.1713 64.3742 95.1713C66.8811 95.0512 69.3042 94.231 71.3685 92.804C74.9273 90.7377 78.445 88.6167 82.0038 86.5505C88.478 82.7737 95.2944 79.2843 101.536 75.2066C101.112 75.4666 101.728 75.0561 101.988 74.8645C102.158 74.7619 102.31 74.6325 102.439 74.4813L102.508 74.4129C102.715 74.1746 102.907 73.9232 103.083 73.6603C103.306 73.2372 103.432 72.7698 103.452 72.292C103.274 69.1036 98.5247 67.7216 96.1293 66.3806L95.883 66.23L82.7293 58.6492L72.5046 52.7378C69.5207 51.0137 66.441 49.2074 62.8549 50.0011H63.0191C62.3201 50.1011 61.6293 50.252 60.9523 50.4526L60.7197 50.5347C59.3187 51.1278 57.9722 51.8421 56.6955 52.6694L51.3163 55.7893L40.202 62.1933Z" fill="#DADEF5"/>
</g>
<g style="mix-blend-mode:multiply" opacity="0.55">
<path d="M38.7513 62.1932C34.166 64.8479 29.5395 67.4752 25.1595 70.4035C22.2714 73.7287 27.24 75.7812 29.7038 77.2454L54.971 91.7776C57.7085 93.3649 59.789 95.1301 62.9235 95.1301C65.4261 94.9984 67.8428 94.1741 69.9041 92.7491C73.4628 90.6829 76.9806 88.5482 80.5393 86.482C87.0135 82.7189 93.83 79.2296 100.085 75.1518C99.6609 75.4118 100.263 74.9876 100.523 74.796C100.694 74.6935 100.85 74.5693 100.989 74.4265V74.3581C101.197 74.1207 101.389 73.8692 101.563 73.6055C101.788 73.1831 101.915 72.7153 101.933 72.2371C101.755 69.0351 97.0055 67.6804 94.6102 66.3257L94.3638 66.1889L81.2237 58.6081L70.9992 52.6967C68.0016 50.9725 64.9219 49.1663 61.4179 49.9599H61.5684C60.8738 50.0596 60.1876 50.2105 59.5153 50.4115L59.2826 50.4936C57.8784 51.0891 56.5276 51.8032 55.2448 52.6282L49.8793 55.7482L38.7513 62.1932Z" fill="#D8DCF4"/>
</g>
<g style="mix-blend-mode:multiply" opacity="0.58">
<path d="M37.3001 62.1933C32.7148 64.8479 28.0746 67.4752 23.7083 70.4035C20.8202 73.7287 25.8025 75.7676 28.2526 77.2454L53.5199 91.8324C56.2574 93.4197 58.3379 95.1986 61.4723 95.1986C63.9743 95.0635 66.3882 94.2291 68.4393 92.7902C71.9981 90.724 75.5158 88.5893 79.0745 86.5231C85.5487 82.76 92.3652 79.2707 98.6204 75.1929C98.2098 75.4529 98.7984 75.0423 99.0584 74.8371C99.2313 74.7382 99.3882 74.6136 99.5238 74.4676H99.5922C99.7701 74.2624 100.14 73.7561 100.167 73.715C100.39 73.2919 100.516 72.8245 100.537 72.3466C100.359 69.1446 95.6091 67.8036 93.2275 66.4626L92.9674 66.3257C88.6057 63.7897 84.2256 61.2627 79.8273 58.7449L69.6165 52.8335C66.6189 51.1094 63.5392 49.3031 59.9667 50.0968H60.1173C59.4227 50.1964 58.7364 50.3474 58.0641 50.5483L57.8315 50.6304C56.4038 51.2224 55.0299 51.9366 53.7252 52.7651L48.3596 55.885L37.3001 62.1933Z" fill="#D5DAF3"/>
</g>
<g style="mix-blend-mode:multiply" opacity="0.61">
<path d="M35.8085 62.1933C31.2368 64.8479 26.5968 67.4752 22.2168 70.4036C19.3424 73.7287 24.3246 75.7539 26.7884 77.1634L52.0555 91.7503C54.793 93.3513 56.8598 95.1439 59.9943 95.1439C62.4923 94.9993 64.9005 94.1605 66.9475 92.7218C70.5063 90.6556 74.024 88.5072 77.5827 86.4546C84.0569 82.6779 90.8733 79.2022 97.1285 75.1245C96.7178 75.3708 97.3064 74.974 97.5802 74.7687C97.7465 74.6609 97.8984 74.5321 98.0319 74.3856V74.3171C98.2235 74.1119 98.5794 73.6056 98.6067 73.5782C98.8315 73.1558 98.9579 72.688 98.9763 72.2098C98.8121 68.9941 94.0488 67.6805 91.6672 66.3395L91.4208 66.1889C87.0408 63.6529 82.6608 61.1305 78.2808 58.6218L68.0699 52.7104C65.0723 50.9863 61.9927 49.18 58.4887 49.9737H58.6392C57.9446 50.0733 57.2584 50.2242 56.5861 50.4252H56.3397C54.9401 51.0211 53.5938 51.7353 52.3156 52.5599L46.9501 55.6798L35.8085 62.1933Z" fill="#D3D8F3"/>
</g>
<g style="mix-blend-mode:multiply" opacity="0.65">
<path d="M34.4398 62.1933C29.8682 64.8479 25.2281 67.4752 20.8481 70.4036C17.9738 73.7287 22.9696 75.7402 25.4197 77.1497L50.6868 91.7366C53.4243 93.3376 55.4911 95.1439 58.6255 95.1439C61.1267 94.9934 63.5357 94.1448 65.5788 92.6945C69.1375 90.6282 72.6415 88.4935 76.2003 86.4273C82.6744 82.6642 89.4907 79.1749 95.7459 75.0971C95.349 75.3434 95.9102 74.9466 96.1976 74.7413C96.3612 74.6292 96.5168 74.5058 96.663 74.3719V74.3035C96.8547 74.0845 97.2105 73.5919 97.2379 73.5508C97.4713 73.1318 97.5982 72.6619 97.6075 72.1824C97.4432 68.9804 92.68 67.6805 90.2983 66.3258L90.052 66.1889C85.6902 63.6529 81.3148 61.1305 76.9256 58.6218L66.7148 52.7104C63.7173 50.9863 60.6376 49.18 57.0652 49.9737H57.2157C56.5212 50.0733 55.8349 50.2242 55.1626 50.4252H54.971C53.57 51.0183 52.2235 51.7325 50.9469 52.5599L45.5677 55.6798L34.4398 62.1933Z" fill="#D1D6F2"/>
</g>
<g style="mix-blend-mode:multiply" opacity="0.68">
<path d="M32.9338 62.1933C28.3622 64.8479 23.722 67.4752 19.342 70.4036C16.4676 73.7287 21.4636 75.7129 23.9137 77.136L49.1946 91.7229C51.9322 93.3102 53.9852 95.1439 57.106 95.1439C59.6076 94.9843 62.0153 94.1315 64.0593 92.6808C67.6181 90.6145 71.1221 88.4662 74.6809 86.3999C81.1551 82.6369 87.9851 79.1612 94.2267 75.0834C93.8434 75.316 94.3909 74.9329 94.6784 74.714C94.8503 74.6135 95.0069 74.4892 95.1437 74.3445V74.2761C95.3448 74.0407 95.5322 73.794 95.7049 73.5372C95.9297 73.1147 96.0561 72.6469 96.0745 72.1688C95.8966 68.9531 91.1333 67.6668 88.7516 66.3258L88.5053 66.1889C84.1435 63.6529 79.7726 61.1305 75.3926 58.6218L65.168 52.7104C62.1841 50.9863 59.1044 49.18 55.5867 49.9737H55.751C55.0561 50.0718 54.3697 50.2228 53.6978 50.4252L53.4515 50.5073C52.0505 51.1004 50.704 51.8146 49.4273 52.642L44.0207 55.7208L32.9338 62.1933Z" fill="#CED4F1"/>
</g>
<g style="mix-blend-mode:multiply" opacity="0.71">
<path d="M31.4832 62.1933C26.9116 64.8479 22.2715 67.4752 17.8915 70.4036C15.0034 73.7287 20.0131 75.6992 22.4768 77.1223L47.7439 91.7093C50.4814 93.2966 52.5346 95.1439 55.6553 95.1439C58.297 95.1439 60.2954 93.9944 62.5949 92.6534C66.1537 90.5871 69.6577 88.4388 73.2164 86.3725C79.6906 82.6095 86.5206 79.1338 92.7621 75.056C92.3789 75.3024 92.9264 74.9192 93.2275 74.6866C93.3956 74.5865 93.5479 74.462 93.6792 74.3171L93.7477 74.2487C93.952 74.016 94.1395 73.7691 94.3088 73.5098C94.5302 73.086 94.6563 72.619 94.6784 72.1414C94.5005 68.9257 89.7372 67.6668 87.3692 66.3258L87.1092 66.1753C82.7566 63.6575 78.3765 61.1259 74.0102 58.6218L63.7857 52.7104C60.8018 50.9863 57.7222 49.18 54.136 49.9737H54.3003C53.6054 50.0718 52.9191 50.2228 52.2472 50.4252L52.0008 50.5073C50.5998 51.1004 49.2533 51.8146 47.9767 52.642L42.6522 55.7208L31.4832 62.1933Z" fill="#CCD2F1"/>
</g>
<g style="mix-blend-mode:multiply" opacity="0.74">
<path d="M30.0321 62.1932C25.4605 64.8479 20.8203 67.4752 16.4403 70.4035C13.5522 73.7287 18.5756 75.6855 21.0257 77.0949L46.2928 91.6819C49.0303 93.2829 51.0834 95.1439 54.2042 95.1439C56.8459 95.1439 58.8443 93.9671 61.1438 92.6397C64.7025 90.5735 68.1928 88.4114 71.7516 86.3589C78.2395 82.5685 85.0832 79.1612 91.311 75.056C90.9278 75.2887 91.4479 74.9192 91.7627 74.6866C91.9283 74.5772 92.084 74.4536 92.228 74.3171V74.2487C92.4197 74.0297 92.7756 73.5371 92.803 73.5098C93.0277 73.0873 93.154 72.6195 93.1725 72.1414C92.9946 68.912 88.2313 67.6804 85.8634 66.3257L85.617 66.1889L72.5181 58.6354L62.2935 52.724C59.3096 50.9999 56.2299 49.1936 52.7122 49.9873H52.8765C52.1962 50.0854 51.5239 50.2317 50.8644 50.4252L50.6318 50.5073C49.2308 51.1003 47.8843 51.8146 46.6076 52.6419L41.2285 55.7618L30.0321 62.1932Z" fill="#CAD0F0"/>
</g>
<g style="mix-blend-mode:multiply" opacity="0.77">
<path d="M28.5814 62.1933C23.9961 64.8479 19.3697 67.4752 14.9897 70.4036C12.1017 73.7287 17.1251 75.6718 19.5888 77.0813L44.8559 91.6682C47.5934 93.2692 49.6192 95.1439 52.7536 95.1439C55.3953 95.1439 57.38 93.9534 59.6795 92.626C63.2383 90.5461 66.7286 88.3977 70.2873 86.3315C76.7752 82.5684 83.5916 79.0928 89.8468 75.015C89.4635 75.2476 89.9837 74.8782 90.2985 74.6456C90.4693 74.5436 90.6258 74.4193 90.7639 74.2761L90.8323 74.2077C91.0239 73.9887 91.3798 73.4961 91.3935 73.4687C91.6148 73.0449 91.741 72.5779 91.7631 72.1003C91.5851 68.8846 86.8218 67.6668 84.4539 66.3121L84.2075 66.1616C79.8412 63.6438 75.4886 61.1259 71.1086 58.6218L60.8977 52.7104C57.9002 50.9863 54.8342 49.18 51.248 49.9737H51.3986C50.704 50.0733 50.0178 50.2242 49.3455 50.4252L49.1127 50.5073C47.685 51.0993 46.3111 51.8135 45.0065 52.642L39.641 55.7619L28.5814 62.1933Z" fill="#C7CEF0"/>
</g>
<g style="mix-blend-mode:multiply" opacity="0.81">
<path d="M27.1305 62.1933C22.5452 64.8479 17.9051 67.4752 13.5388 70.4036C10.6508 73.7287 15.6878 75.6581 18.1379 77.0676L43.405 91.6545C46.1425 93.2418 48.1683 95.1439 51.3028 95.1439C53.9445 95.1439 55.9155 93.926 58.1465 92.5987C61.7053 90.5324 65.2093 88.3704 68.7544 86.3041C75.2422 82.5411 82.0586 79.0791 88.3138 75.0013C87.9443 75.2202 88.4507 74.8645 88.7792 74.6181C88.9405 74.5088 89.0917 74.3851 89.2309 74.2487C89.4226 74.0298 89.7784 73.5371 89.7921 73.5098C90.0169 73.0873 90.1432 72.6195 90.1617 72.1414C89.9974 68.912 85.2204 67.7078 82.8525 66.3668L82.6061 66.2163L69.5209 58.6628L59.3099 52.7651C56.3124 51.0409 53.2327 49.2347 49.7287 50.0283H49.8793C49.1847 50.128 48.4985 50.279 47.8262 50.4799L47.5934 50.562C46.1892 51.1575 44.8384 51.8717 43.5556 52.6967L38.1901 55.8166L27.1305 62.1933Z" fill="#C5CCEF"/>
</g>
<g style="mix-blend-mode:multiply" opacity="0.84">
<path d="M25.6661 62.1933C21.0945 64.8479 16.4543 67.4752 12.0743 70.4036C9.19994 73.7287 14.237 75.6308 16.6871 77.0539L41.9679 91.6408C44.7055 93.2281 46.7175 95.1439 49.852 95.1439C52.4937 95.1439 54.451 93.9123 56.6958 92.585C60.2545 90.5051 63.7585 88.343 67.3036 86.2768C73.7915 82.5137 80.6215 79.0517 86.8631 74.9739C86.5072 75.2066 87 74.8508 87.3285 74.5908C87.4919 74.4834 87.6473 74.3645 87.7938 74.235V74.1666C87.9854 73.9477 88.3414 73.455 88.355 73.4277C88.5706 73.0016 88.6963 72.5359 88.7245 72.0593C88.5466 68.8299 83.7697 67.6531 81.4154 66.2984L81.1691 66.1616L68.0838 58.6081L57.8729 52.7104C54.8753 50.9863 51.7956 49.18 48.2232 49.9737H48.3737C47.6791 50.0733 46.9929 50.2242 46.3206 50.4252L46.0742 50.5073C44.6746 51.1032 43.3283 51.8174 42.0501 52.642L36.6846 55.7619L25.6661 62.1933Z" fill="#C3CAEE"/>
</g>
<g style="mix-blend-mode:multiply" opacity="0.87">
<path d="M24.215 62.1933C19.6434 64.8479 15.0033 67.4752 10.6233 70.4036C7.74889 73.7287 12.7859 75.6171 15.2496 77.0265L40.5168 91.6271C43.2543 93.2144 45.2664 95.1439 48.4008 95.1439C51.0425 95.1439 52.9998 93.8987 55.2446 92.5576C58.8033 90.4914 62.2936 88.3157 65.8524 86.2631C72.3266 82.4864 79.1566 79.038 85.3981 74.9603C85.0422 75.1792 85.5213 74.8371 85.8772 74.5771L86.3288 74.2077V74.1392C86.5341 73.9203 86.8764 73.4277 86.8901 73.414C87.1148 72.9915 87.2412 72.5237 87.2596 72.0456C87.0817 68.8025 82.3047 67.6531 79.9505 66.2984L79.7041 66.1479L66.6326 58.6081L56.4217 52.7104C53.4241 50.9863 50.3444 49.18 46.8404 49.9737H46.991C46.2964 50.0733 45.6101 50.2242 44.9378 50.4252L44.6915 50.5073C43.2905 51.1004 41.944 51.8146 40.6673 52.642L35.2882 55.7619L24.215 62.1933Z" fill="#C0C8EE"/>
</g>
<g style="mix-blend-mode:multiply" opacity="0.9">
<path d="M22.7641 62.1933C18.1924 64.8479 13.5524 67.4752 9.17236 70.4036C6.29798 73.7287 11.3487 75.6034 13.7988 77.0128L39.066 91.5998C41.8035 93.2008 43.8156 95.1439 46.95 95.1439C49.5917 95.1439 51.5353 93.8713 53.7938 92.5439C57.3525 90.464 60.8429 88.302 64.4016 86.2357C70.8758 82.4727 77.7059 79.0107 83.9474 74.9329C83.6052 75.1518 84.0706 74.8097 84.4265 74.5497L84.8918 74.1803C85.0835 73.9476 85.4394 73.4687 85.4531 73.4414C85.6778 73.0189 85.8041 72.5511 85.8226 72.073C85.6446 68.8436 80.8677 67.6942 78.5135 66.3532L78.2671 66.2026L65.2091 58.6628L54.9846 52.7651C52.0007 51.0409 48.921 49.2347 45.3349 50.0283H45.4991C44.8043 50.1265 44.1179 50.2775 43.446 50.4799L43.1996 50.562C41.7987 51.1551 40.4522 51.8694 39.1755 52.6967L33.7963 55.8166L22.7641 62.1933Z" fill="#BEC6ED"/>
</g>
<g style="mix-blend-mode:multiply" opacity="0.94">
<path d="M21.3134 62.1933C16.7417 64.8479 12.1017 67.4752 7.7217 70.4035C4.83364 73.7287 9.89802 75.5897 12.3481 76.9992L37.6289 91.5861C40.3664 93.1734 42.3648 95.1439 45.4855 95.1439C48.1272 95.1439 50.0708 93.8576 52.3292 92.5166C55.888 90.4503 59.3783 88.2746 62.937 86.2083C69.4112 82.4453 76.2412 78.997 82.4964 74.9192C82.1542 75.1244 82.606 74.796 82.9618 74.5223C83.3177 74.2487 83.3724 74.2076 83.4272 74.1666C83.6325 73.9477 83.9747 73.455 83.9884 73.4414C84.2132 73.0189 84.3394 72.5511 84.3579 72.073C84.18 68.8299 79.4031 67.7078 77.0488 66.3531L76.8025 66.2163L63.7583 58.6765L53.6022 52.6419C50.6183 50.9178 47.5386 49.1115 44.0209 49.9052H44.1852C43.4903 50.0033 42.804 50.1543 42.1321 50.3568L41.8857 50.4389C40.4847 51.0319 39.1382 51.7462 37.8616 52.5735L32.4824 55.6934L21.3134 62.1933Z" fill="#BCC4EC"/>
</g>
<g style="mix-blend-mode:multiply" opacity="0.97">
<path d="M19.8624 62.1933C15.2907 64.8479 10.6507 67.4752 6.27067 70.4035C3.3826 73.7287 8.46069 75.5623 10.9108 76.9855L36.1779 91.5724C38.9154 93.1597 40.9138 95.1439 44.0346 95.1439C46.6762 95.1439 48.6199 93.7755 50.8783 92.5029C54.4371 90.423 57.9274 88.2472 61.4861 86.181C67.9603 82.4179 74.7904 78.9696 81.0456 74.8918C80.7034 75.0971 81.1414 74.7824 81.5247 74.495L81.9763 74.1392V74.0708C82.1816 73.8519 82.5238 73.3592 82.5375 73.3456C82.7623 72.9231 82.8886 72.4553 82.907 71.9772C82.7291 68.7341 77.9522 67.6394 75.6117 66.2847L75.3653 66.1342L62.3211 58.6081L52.2334 52.6419C49.2495 50.9178 46.1698 49.1115 42.5837 49.9052H42.7479C42.0489 50.0052 41.3581 50.1561 40.6811 50.3568L40.4484 50.4389C39.0475 51.0319 37.701 51.7462 36.4243 52.5735L31.0451 55.6934L19.8624 62.1933Z" fill="#B9C2EC"/>
</g>
<g style="mix-blend-mode:multiply" opacity="0.5">
<path d="M81.5248 71.8951C81.3606 68.6384 76.5699 67.5573 74.2293 66.2163L60.9387 58.5397L50.7279 52.6419C47.744 50.9178 44.6643 49.1115 41.1466 49.9052H41.2972C40.6026 50.0049 39.9164 50.1558 39.2441 50.3568L39.0114 50.4389C37.6104 51.0319 36.2639 51.7462 34.9873 52.5735L29.608 55.6935L18.4801 62.1659C13.8948 64.8205 9.26835 67.4478 4.88834 70.3762C2.00028 73.7014 7.07836 75.5213 9.52843 76.9444L34.8093 91.5314C37.5468 93.1187 39.5178 95.1166 42.6522 95.1166C45.2939 95.1166 47.2239 93.7482 49.496 92.4482C53.0547 90.382 56.5314 88.2062 60.0901 86.14C66.5643 82.3632 73.3944 78.9286 79.6496 74.8508C79.1295 75.1656 80.4708 74.2077 80.594 74.0845C80.7172 73.9614 81.1826 73.3182 81.1962 73.3045C81.4157 72.8673 81.5284 72.3843 81.5248 71.8951Z" fill="#B7C0EB"/>
</g>
</g>
<path d="M1.15199 72.3193C-0.367319 71.3477 2.21966 49.8505 2.21966 49.8505L39.0116 28.4763C40.1017 27.9234 41.3069 27.6353 42.5292 27.6353C43.7516 27.6353 44.9568 27.9234 46.0469 28.4763L83.0853 49.8505C83.0853 49.8505 85.686 71.3888 83.756 72.4972L46.3207 94.3913C45.2282 94.9444 44.0208 95.2325 42.7962 95.2325C41.5716 95.2325 40.3642 94.9444 39.2717 94.3913L1.15199 72.3193Z" fill="#B7C0EB"/>
<path d="M84.5361 24.7407C84.5361 24.7407 84.5361 24.8502 84.5361 24.9049C84.5425 24.9457 84.5425 24.9872 84.5361 25.028V25.1785C84.5412 25.2194 84.5412 25.2608 84.5361 25.3017C84.5412 25.3518 84.5412 25.4022 84.5361 25.4522L84.4129 25.6712C84.3698 25.7441 84.3142 25.809 84.2487 25.8627L84.0434 26.068L83.8791 26.1912L83.7423 26.3006L83.5643 26.4238L83.3727 26.5333L46.5943 47.921L46.5122 93.3239L83.3043 71.9498L83.4411 71.8677C83.4971 71.822 83.5566 71.7808 83.619 71.7445L83.756 71.635L83.9065 71.5119L84.0845 71.334L84.1803 71.2245V71.1287C84.2245 71.0796 84.2613 71.0243 84.2897 70.9645C84.3068 70.912 84.3298 70.8615 84.3581 70.814V70.7182V70.5677C84.35 70.5363 84.35 70.5033 84.3581 70.4719C84.3643 70.4219 84.3643 70.3714 84.3581 70.3214C84.364 70.2852 84.364 70.2482 84.3581 70.2119L84.4403 24.7954C84.4403 24.7954 84.5361 24.6996 84.5361 24.7407Z" fill="#E4E7FB"/>
<path d="M2.24689 26.6154C1.84045 26.4369 1.48982 26.1519 1.23202 25.7906C0.974225 25.4293 0.818822 25.0051 0.782317 24.5628L0.700195 69.9794C0.739538 70.4209 0.896039 70.8438 1.15349 71.2047C1.41095 71.5655 1.76004 71.8511 2.16477 72.032L39.2032 93.4061V47.9895L2.24689 26.6154Z" fill="#EFF1FE"/>
<path d="M83.0852 22.5513C85.0288 23.6597 85.0288 25.4933 83.0852 26.6564L46.3068 48.0443C45.2133 48.5942 44.0063 48.8806 42.7823 48.8806C41.5582 48.8806 40.3513 48.5942 39.2578 48.0443L2.30148 26.6701C0.357853 25.5481 0.344166 23.7144 2.30148 22.565L39.0114 1.16345C40.1015 0.610507 41.3066 0.322327 42.529 0.322327C43.7514 0.322327 44.9566 0.610507 46.0467 1.16345L83.0852 22.5513Z" fill="url(#paint0_linear_165_2843)"/>
<path d="M45.7731 93.6523L46.6764 93.1597V47.7842L45.8552 48.2358H45.7046L45.3214 48.3863H45.1708L44.9244 48.4684H44.7191L44.4454 48.5368H44.2537L43.6926 48.6052H43.5147H43.1862H41.968H41.7216H41.5026C41.4115 48.6119 41.3201 48.6119 41.2289 48.6052H41.0373C40.9304 48.586 40.8252 48.5585 40.7225 48.5231C40.6634 48.5294 40.6037 48.5294 40.5446 48.5231L40.0107 48.3452L39.7644 48.2358H39.6412C39.518 48.2358 38.8199 47.7842 38.7104 47.7158V93.1871C38.8199 93.1871 39.4359 93.5976 39.5727 93.6523H39.6823L39.9149 93.7481L40.4487 93.926H40.5856L40.8867 93.9944H40.9689C41.0133 94.009 41.0613 94.009 41.1057 93.9944H41.3521H41.4616H41.5847H41.8175H43.5557L44.1169 93.9123H44.2811L44.5549 93.8439C44.6186 93.8503 44.6828 93.8503 44.7465 93.8439L45.0065 93.7618H45.1023L45.4856 93.6113L45.7731 93.6523Z" fill="url(#paint1_linear_165_2843)"/>
<defs>
<linearGradient id="paint0_linear_165_2843" x1="27.8835" y1="12.365" x2="74.4161" y2="35.6376" gradientUnits="userSpaceOnUse">
<stop stop-color="#FBFCFF"/>
<stop offset="1" stop-color="#F2F5FE"/>
</linearGradient>
<linearGradient id="paint1_linear_165_2843" x1="5700.42" y1="87116.2" x2="5735.32" y2="87116.2" gradientUnits="userSpaceOnUse">
<stop stop-color="#EFF1FE"/>
<stop offset="1" stop-color="#E4E7FB"/>
</linearGradient>
</defs>
</svg>
