<svg width="552" height="573" viewBox="0 0 552 573" fill="none" xmlns="http://www.w3.org/2000/svg">
<path d="M41.6587 524.42C74.4228 593.129 390.421 583.093 470.062 529.762C549.702 476.432 372.82 27.7715 158.819 37.1283C2.71863 43.9837 -42.3667 348.032 41.6587 524.42Z" fill="#E5F6FF"/>
<path d="M508.168 492.737C494.642 490.544 486.212 418.624 502.208 404.821C518.204 391.017 551.123 422.639 551.123 446.725C551.123 470.812 531.668 496.566 508.168 492.737Z" fill="#E5F6FF"/>
<path d="M124.974 17.581C128.309 27.6789 95.3593 49.2951 84.0262 40.8957C72.6931 32.4962 79.2706 6.92729 89.6155 1.77027C99.9604 -3.38674 120.064 2.9746 124.974 17.581Z" fill="#E5F6FF"/>
</svg>
