<svg width="156" height="95" viewBox="0 0 156 95" fill="none" xmlns="http://www.w3.org/2000/svg">
<g style="mix-blend-mode:multiply" opacity="0.3">
<g style="mix-blend-mode:multiply" opacity="0.06">
<path d="M96.2979 15.0467C96.3651 15.0277 96.4295 15.0002 96.4896 14.9646L96.7085 14.8825L96.9413 14.7867L97.2013 14.7046H97.4066C103.511 13.131 123.495 13.5552 133.939 14.1436C136.39 14.2539 138.831 14.5236 141.248 14.951C142.001 15.1152 142.712 15.3067 143.383 15.4709C144.054 15.6351 144.861 15.8951 145.532 16.0867C146.203 16.2783 147.038 16.593 147.708 16.8393C148.46 17.1217 149.196 17.4461 149.912 17.8109C150.68 18.1769 151.413 18.6119 152.102 19.1108C152.834 19.6246 153.466 20.2695 153.963 21.0129C154.252 21.3999 154.443 21.8503 154.522 22.3264C154.6 22.8025 154.564 23.2905 154.415 23.7497V23.8591L153.922 24.7896L153.334 25.378L152.951 25.5969L127.683 39.9924L127.232 40.266L126.753 40.526L126.164 40.6628L125.576 40.786L125.069 40.8954H124.453H123.892H123.262H122.715L122.072 40.786L121.415 40.6765H121.018H120.894L120.278 40.567L119.663 40.4439L119.074 40.3344L118.732 40.266L118.198 40.1566L94.6691 25.6654L94.2585 25.4054L93.8889 25.118L93.6289 24.858L93.492 24.7075L93.3688 24.557L93.1498 24.2423L92.9992 23.9139V23.8181L92.9171 23.5718V23.2434C92.9171 23.2434 92.835 23.0928 92.7392 22.8739C92.6434 22.6549 92.6434 22.6276 92.5886 22.4908C92.5339 22.3539 92.5065 22.2444 92.4654 22.1076C92.1047 20.9022 92.1816 19.6082 92.6824 18.4539C93.1833 17.2997 94.0761 16.3595 95.203 15.7994L95.5725 15.5804C95.7004 15.5039 95.833 15.4353 95.9694 15.3752L96.2979 15.0467Z" fill="#FAFBFE"/>
</g>
<g style="mix-blend-mode:multiply" opacity="0.13">
<path d="M96.3805 15.0886C96.4369 15.0514 96.4964 15.0194 96.5585 14.9928C96.6288 14.9552 96.7021 14.9231 96.7775 14.897L97.0101 14.7875L97.2702 14.6918L97.4755 14.6233C103.17 13.1592 124.166 13.7339 134.322 14.3223C136.78 14.459 139.223 14.7838 141.631 15.2939L143.63 15.8002C144.342 15.9917 144.999 16.2107 145.628 16.4022C146.258 16.5938 146.997 16.8812 147.64 17.1138C148.284 17.3464 149.091 17.7433 149.693 18.0306C150.406 18.3888 151.089 18.8052 151.733 19.2758C152.415 19.7557 152.996 20.3648 153.444 21.0684C153.718 21.4278 153.9 21.8497 153.971 22.2962C154.043 22.7427 154.003 23.2 153.854 23.6272V23.723L153.389 24.6125L152.828 25.1462L152.445 25.3651L127.547 39.6647L127.095 39.9247L126.63 40.1847L126.041 40.3078L125.466 40.4447L124.974 40.5541H124.372H123.824H122.606L121.962 40.4447L121.333 40.3352H120.936H120.813L120.197 40.2257L119.595 40.1026L119.02 39.9794L118.691 39.911L118.157 39.7878L94.8886 25.4746L94.478 25.2283L94.1084 24.9409L93.8347 24.6946L93.7115 24.5441L93.5883 24.3935L93.383 24.0925L93.2187 23.7641V23.682L93.1366 23.4493V23.1346C93.0675 23.0117 93.008 22.8836 92.9586 22.7515C92.9586 22.6694 92.8628 22.5189 92.8081 22.3957C92.7533 22.2726 92.726 22.1357 92.6849 21.9989C92.3855 20.8124 92.4924 19.5597 92.9886 18.441C93.4848 17.3224 94.3417 16.4022 95.4224 15.8275C95.5319 15.8275 95.6551 15.6633 95.7646 15.6086C95.8741 15.5538 96.0247 15.4443 96.1479 15.3896C96.221 15.2859 96.2986 15.1855 96.3805 15.0886Z" fill="#F6F7FC"/>
</g>
<g style="mix-blend-mode:multiply" opacity="0.19">
<path d="M96.4502 15.1301C96.5043 15.0858 96.5641 15.049 96.6281 15.0206L96.8471 14.8975L97.0798 14.788C97.1688 14.7573 97.2557 14.7208 97.3398 14.6785L97.5452 14.6101C102.829 13.2417 124.852 13.9533 134.693 14.6101C137.162 14.744 139.611 15.1292 142.002 15.7595C142.659 15.8964 143.275 16.1016 143.864 16.2385C144.452 16.3753 145.137 16.6353 145.712 16.8132C146.286 16.9911 147.012 17.2921 147.587 17.5111C148.233 17.7614 148.863 18.0493 149.476 18.3732C150.13 18.6845 150.758 19.0507 151.351 19.4678C151.982 19.9177 152.521 20.4845 152.939 21.1373C153.18 21.484 153.337 21.8819 153.399 22.2997C153.461 22.7176 153.425 23.1439 153.294 23.5456V23.6277L152.843 24.4625L152.323 24.9688L151.953 25.1877L127.315 39.3094L126.85 39.5694L126.385 39.8157L125.824 39.9525L125.249 40.0757L124.756 40.1852H124.167H123.62H122.456L121.827 40.0757L121.197 39.9799H120.8H120.677L120.088 39.8704L119.486 39.7473L118.925 39.6241L118.597 39.542L118.076 39.4189L94.9719 25.2835L94.5749 25.0235L94.2191 24.7635L93.959 24.5309L93.8358 24.3804L93.7127 24.2435L93.5073 23.9425L93.3431 23.6277V23.5456L93.261 23.313V23.012L93.083 22.6425C93.0448 22.5212 92.9991 22.4024 92.9461 22.2867C92.9461 22.1909 92.8777 22.0267 92.8366 21.9036C92.5759 20.7441 92.6929 19.5317 93.1706 18.4434C93.6484 17.3552 94.4618 16.4483 95.492 15.8553C95.5913 15.7703 95.6965 15.6926 95.8069 15.6227C95.9164 15.6227 96.0395 15.4585 96.1627 15.4037C96.2859 15.349 96.3133 15.1848 96.4502 15.1301Z" fill="#F1F3FB"/>
</g>
<g style="mix-blend-mode:multiply" opacity="0.25">
<path d="M96.5185 15.1711L96.6964 15.0343C96.7678 14.9983 96.8364 14.9572 96.9017 14.9112C96.9865 14.8756 97.0688 14.8345 97.1481 14.788C97.2165 14.788 97.3397 14.6922 97.4082 14.6785L97.6135 14.5964C102.5 13.3375 125.536 14.1722 135.076 14.788C137.558 14.955 140.011 15.4143 142.385 16.1563C142.988 16.2795 143.562 16.4848 144.096 16.6216C144.63 16.7585 145.273 17.0184 145.807 17.1826C146.341 17.3468 146.998 17.6342 147.518 17.8395C148.114 18.0782 148.694 18.3523 149.256 18.6605C149.864 18.976 150.442 19.347 150.981 19.7689C151.533 20.1969 151.997 20.7263 152.35 21.3288C152.592 21.6435 152.752 22.013 152.816 22.4046C152.881 22.7961 152.848 23.1974 152.719 23.573V23.6551L152.295 24.4351L151.802 24.914L151.433 25.133L127.192 39.0768L126.74 39.3368L126.275 39.583L125.714 39.7199L125.153 39.843L124.66 39.9525H124.071H123.524H122.374L121.758 39.8567L121.142 39.7609L120.745 39.6925H120.622L120.034 39.5694L119.459 39.4462L118.898 39.3231L118.569 39.241L118.063 39.1178L95.1771 25.1467L94.7802 24.9003L94.4243 24.6404L94.1779 24.394L94.0547 24.2572L93.9315 24.1204L93.7262 23.833L93.562 23.5319V23.4362L93.4798 23.2309V22.9299C93.4798 22.9299 93.384 22.752 93.3019 22.5741L93.1787 22.2183C93.1341 22.0977 93.0975 21.9742 93.0692 21.8488C92.8585 20.7124 92.9936 19.5389 93.4572 18.4801C93.9209 17.4214 94.6917 16.5261 95.6699 15.9101C95.7657 15.9101 95.8615 15.7322 95.971 15.6775C96.0805 15.6227 96.19 15.5132 96.2995 15.4585C96.409 15.4038 96.3953 15.2122 96.5185 15.1711Z" fill="#EDEFFA"/>
</g>
<g style="mix-blend-mode:multiply" opacity="0.31">
<path d="M96.6005 15.1985C96.6005 15.1985 96.7374 15.0753 96.7785 15.0617C96.8196 15.048 96.9427 14.9385 96.9838 14.9248C97.0687 14.8845 97.151 14.8388 97.2302 14.788L97.4902 14.6648C97.5572 14.6339 97.6257 14.6065 97.6955 14.5827C102.171 13.4196 126.234 14.4048 135.459 15.0069C137.957 15.1642 140.422 15.6661 142.782 16.4984C143.343 16.6216 143.864 16.8269 144.356 16.9637C144.849 17.1006 145.424 17.3332 145.917 17.4837C146.409 17.6342 146.998 17.9353 147.477 18.1132C148.016 18.3429 148.542 18.6033 149.051 18.8931C149.6 19.1888 150.122 19.5322 150.611 19.9194C151.136 20.3182 151.578 20.8156 151.912 21.3836C152.122 21.6798 152.256 22.0235 152.301 22.384C152.347 22.7445 152.302 23.1106 152.172 23.4498V23.5319L151.775 24.2435L151.323 24.6814L150.94 24.9003L126.987 38.6935L126.535 38.9398L126.083 39.1861L125.536 39.323L124.975 39.4461L124.496 39.5419H123.907H123.373H122.237L121.635 39.4461L121.019 39.3504L120.636 39.2819H120.513L119.938 39.1588L119.363 39.0356L118.815 38.9125L118.501 38.8304L117.994 38.6935L95.3002 24.9414L94.917 24.6951L94.5611 24.4351L94.3011 24.2025L94.1779 24.0656L94.0683 23.9425L93.863 23.6551L93.6988 23.3677V23.272L93.6167 23.0667V22.793L93.4387 22.4372C93.4387 22.3551 93.3429 22.1909 93.3156 22.0814C93.2882 21.972 93.2471 21.8214 93.206 21.7257C93.0479 20.6141 93.2037 19.4805 93.656 18.4528C94.1083 17.4252 94.839 16.5444 95.7656 15.91C95.8614 15.91 95.9572 15.7185 96.0394 15.6774C96.1215 15.6364 96.2584 15.4859 96.3542 15.4448C96.45 15.4038 96.4774 15.2532 96.6005 15.1985Z" fill="#E8EBF9"/>
</g>
<g style="mix-blend-mode:multiply" opacity="0.38">
<path d="M96.6005 15.2395C96.6005 15.2395 96.7373 15.1027 96.7784 15.089C96.8195 15.0753 96.9426 14.9522 96.9837 14.9385C97.0688 14.8933 97.1511 14.843 97.2301 14.7879C97.2301 14.7879 97.4354 14.6648 97.4901 14.6511L97.6954 14.5553C101.802 13.5154 126.836 14.6374 135.774 15.2395C138.288 15.3932 140.761 15.9523 143.097 16.8953C143.603 17.0047 144.069 17.2237 144.466 17.3468C144.863 17.47 145.438 17.7163 145.834 17.8394C146.231 17.9626 146.806 18.2773 147.203 18.4415C147.673 18.6617 148.13 18.9084 148.572 19.1805C149.058 19.4556 149.516 19.7763 149.941 20.1383C150.416 20.5088 150.807 20.9751 151.091 21.5067C151.281 21.7811 151.401 22.0984 151.439 22.4303C151.477 22.7621 151.433 23.0983 151.31 23.4088L150.926 24.0656L150.516 24.4761L150.132 24.6951L126.549 38.3105L126.111 38.5568L125.659 38.7894L125.112 38.9262L124.564 39.0631L124.085 39.1589H123.51H122.976H121.854L121.265 39.0768L120.663 38.981L120.28 38.9126H120.157L119.582 38.7894L119.021 38.6663L118.487 38.5294L118.172 38.4473L117.679 38.3105L95.218 24.6267L94.8347 24.394L94.4926 24.134L94.2462 23.9151L94.123 23.7783L94.0135 23.6551L93.8082 23.3814L93.6439 23.0941V23.012L93.5755 22.8067V22.5467L93.4113 22.2046L93.2881 21.8625C93.2881 21.7804 93.2196 21.5888 93.1923 21.493C93.0849 20.4096 93.2606 19.3167 93.702 18.3214C94.1434 17.326 94.8356 16.4622 95.7108 15.8142C95.7929 15.8142 95.875 15.6227 95.9571 15.5679C96.0393 15.5132 96.1488 15.3764 96.2446 15.3353C96.3404 15.2943 96.6005 15.2806 96.6005 15.2395Z" fill="#E4E7F7"/>
</g>
<g style="mix-blend-mode:multiply" opacity="0.44">
<path d="M96.7374 15.2806C96.7374 15.2806 96.8605 15.1301 96.9016 15.1164C96.9427 15.1027 97.0658 14.9659 97.1069 14.9522C97.148 14.9385 97.2985 14.8016 97.3533 14.7879L97.6133 14.6374C97.6854 14.6138 97.7543 14.5817 97.8187 14.5416C101.487 13.5974 127.575 14.87 136.212 15.4721C138.744 15.6244 141.226 16.2413 143.535 17.2921C143.987 17.3879 144.411 17.6205 144.808 17.73C145.205 17.8395 145.684 18.0857 146.081 18.2089C146.51 18.3748 146.93 18.562 147.34 18.7699C147.847 18.9615 148.216 19.2762 148.613 19.4541C149.054 19.7117 149.467 20.0144 149.845 20.3573C150.268 20.6982 150.618 21.1219 150.872 21.6025C151.038 21.8571 151.14 22.1484 151.168 22.4511C151.197 22.7539 151.151 23.0591 151.036 23.3404L150.68 23.9424L150.297 24.3119L149.927 24.5445L126.658 37.9821L126.22 38.2284L125.769 38.461L125.235 38.5978L124.701 38.721L124.222 38.8304H123.661H123.127H122.018L121.43 38.7483L120.855 38.6662H120.472H120.335L119.787 38.5568L119.226 38.4336L118.706 38.2968L118.391 38.201L117.912 38.0642L95.656 24.5992L95.2865 24.3666L94.9443 24.134L94.6979 23.9287L94.5884 23.8056L94.4789 23.6688L94.2736 23.4088L94.1093 23.1351V23.053L94.0409 22.8614V22.6014L93.8767 22.2593C93.8767 22.2593 93.7809 22.013 93.7535 21.9309C93.7261 21.8488 93.7535 21.6572 93.6713 21.5751C93.4113 20.6857 94.1915 17.1279 96.1351 16.0195C96.2035 16.0195 96.2856 15.8142 96.3678 15.7732C96.4499 15.7321 96.5457 15.5679 96.6278 15.5269C96.71 15.4858 96.6005 15.3627 96.7374 15.2806Z" fill="#DFE3F6"/>
</g>
<g style="mix-blend-mode:multiply" opacity="0.5">
<path d="M96.8059 15.3627C96.8059 15.3627 96.9428 15.1985 96.9702 15.1985C96.9976 15.1985 97.1345 15.0343 97.1755 15.0206C97.2166 15.0069 97.3671 14.8564 97.4082 14.8564C97.4493 14.8564 97.6409 14.7059 97.682 14.6922C97.723 14.6785 97.8599 14.5827 97.8873 14.5827C101.145 13.7343 128.26 15.1574 136.582 15.7595C139.14 15.8959 141.64 16.572 143.918 17.7436C144.315 17.8394 144.685 18.0721 145.054 18.1678C145.424 18.2636 145.807 18.51 146.163 18.6194C146.519 18.7289 146.93 19.0299 147.286 19.1531C147.667 19.3465 148.037 19.5612 148.394 19.7962C148.782 20.0372 149.144 20.3169 149.476 20.631C149.84 20.9419 150.138 21.3236 150.352 21.753C150.499 21.9855 150.587 22.2512 150.606 22.526C150.625 22.8008 150.575 23.076 150.461 23.3267L150.133 23.874L149.777 24.2161L149.407 24.4351L126.467 37.7084L126.043 37.9547L125.591 38.1736L125.071 38.3242L124.537 38.4473L124.072 38.5431H123.51H122.99H121.895H121.307L120.732 38.461H120.348H120.225L119.678 38.3515L119.144 38.2147L118.624 38.0778L118.309 37.9821L117.844 37.8315L95.8068 24.5582L95.4372 24.3256L95.1087 24.093L94.8623 23.874L94.7528 23.7646L94.6433 23.6414L94.438 23.3814L94.2737 23.1214V23.0393V22.8477L94.2053 22.6014L93.8631 22.2046C93.8185 22.098 93.7819 21.9882 93.7536 21.8762C93.7536 21.8762 93.6852 21.6025 93.6578 21.5341C93.4251 20.7404 94.3559 17.0869 96.0942 16.0606C96.0942 16.0606 96.2174 15.8416 96.2858 15.8006C96.3542 15.7595 96.4501 15.5953 96.5322 15.5543C96.6143 15.5132 96.7238 15.3627 96.8059 15.3627Z" fill="#DBDFF5"/>
</g>
<g style="mix-blend-mode:multiply" opacity="0.56">
<path d="M96.8742 15.3627C96.8742 15.3627 97.0111 15.1848 97.0385 15.1711L97.2438 14.9932C97.318 14.9297 97.3957 14.8703 97.4765 14.8154L97.7502 14.6375L97.9692 14.5143C100.816 13.7891 128.93 15.3627 136.965 15.9511C139.547 16.0549 142.063 16.7979 144.288 18.1132C144.644 18.1816 144.972 18.4279 145.287 18.51C145.602 18.5921 145.944 18.8521 146.259 18.9478C146.574 19.0436 146.916 19.331 147.217 19.4405C147.55 19.6193 147.87 19.8205 148.175 20.0426C148.504 20.2632 148.811 20.5153 149.092 20.7952C149.412 21.0775 149.665 21.4283 149.831 21.8215C149.951 22.0275 150.02 22.2592 150.032 22.4973C150.044 22.7354 149.998 22.9728 149.9 23.1898L149.599 23.6688L149.284 23.9835L148.914 24.2025L126.302 37.3115L125.878 37.5442L125.44 37.7631L124.92 37.8999L124.414 38.0368L123.934 38.1326H123.387H122.867H121.785H121.211L120.649 38.0505H120.266H120.143L119.609 37.941L119.075 37.8042L118.569 37.6673L118.268 37.5715L117.802 37.4073L95.9709 24.2983L95.615 24.0793L95.2865 23.8467L95.0538 23.6414L94.9306 23.5319L94.8348 23.4088L94.6295 23.1762L94.4652 22.9025L94.3831 22.7109V22.492C94.3831 22.492 94.2736 22.273 94.2325 22.1635C94.1915 22.0541 94.1367 21.9036 94.123 21.8352C94.0892 21.7274 94.0618 21.6177 94.0409 21.5067C93.8356 20.8088 94.9032 17.0458 96.4225 16.1837C96.4225 16.1837 96.5457 15.9648 96.6005 15.9374C96.6552 15.9101 96.751 15.7048 96.8195 15.6774C96.8879 15.6501 96.8058 15.3627 96.8742 15.3627Z" fill="#D6DCF4"/>
</g>
<g style="mix-blend-mode:multiply" opacity="0.63">
<path d="M96.9427 15.3627C96.9427 15.3627 97.0796 15.1711 97.1069 15.1575C97.1343 15.1438 97.2849 14.9659 97.3122 14.9659C97.3864 14.898 97.4641 14.834 97.545 14.7743C97.545 14.7743 97.7913 14.5964 97.8187 14.5827C97.8946 14.5469 97.9677 14.5058 98.0377 14.4596C100.474 13.8301 129.615 15.5543 137.335 16.129C139.95 16.2132 142.49 17.0234 144.671 18.4689C144.972 18.4689 145.26 18.7836 145.52 18.8521C145.78 18.9205 146.081 19.1805 146.355 19.2626C146.628 19.3447 146.902 19.6321 147.162 19.7415C147.422 19.851 147.696 20.1657 147.956 20.2889C148.216 20.412 148.476 20.8089 148.723 20.9731C148.987 21.2319 149.192 21.5445 149.325 21.8899C149.423 22.0826 149.475 22.296 149.475 22.5125C149.475 22.7289 149.423 22.9423 149.325 23.1351L149.051 23.573L148.764 23.833L148.408 24.0519L126.111 36.9968L125.7 37.2294L125.262 37.4347L124.756 37.5852L124.249 37.7084L123.77 37.8178H123.236H122.716H121.649H121.088L120.526 37.7357H120.157H120.034L119.5 37.6263L118.98 37.4894L118.487 37.3526L118.186 37.2431L117.734 37.0789L96.1214 24.134L95.7656 23.9288L95.4371 23.6962L95.2044 23.5046L95.0949 23.3951L94.999 23.2856L94.7937 23.053L94.6295 22.793L94.5474 22.6151L94.479 22.3962L94.3284 22.0815L94.2189 21.7531C94.2189 21.7531 94.2189 21.4794 94.1504 21.4246C93.9725 20.8362 95.1907 16.9774 96.4773 16.2385C96.4773 16.2385 96.5868 16.0059 96.6416 15.9785C96.6963 15.9511 96.7785 15.7459 96.8332 15.7185C96.888 15.6911 96.8879 15.3627 96.9427 15.3627Z" fill="#D2D8F2"/>
</g>
<g style="mix-blend-mode:multiply" opacity="0.69">
<path d="M97.0249 15.4311C97.0249 15.4311 97.1618 15.2122 97.1755 15.2122C97.1892 15.2122 97.3535 15.0069 97.3808 15.0069C97.4519 14.9314 97.5297 14.8627 97.6135 14.8016L97.8873 14.5964C97.8873 14.5964 98.0789 14.4732 98.1063 14.4732C100.132 13.9533 130.299 15.8416 137.718 16.389C140.362 16.4524 142.923 17.3265 145.054 18.8931C145.301 18.8931 145.534 19.1942 145.766 19.2626C145.999 19.331 146.218 19.591 146.437 19.6594C146.656 19.7278 146.875 20.0152 147.094 20.0973C147.313 20.1794 147.518 20.4941 147.737 20.6036C147.956 20.713 148.148 21.0825 148.339 21.2194C148.531 21.3562 148.682 21.8351 148.805 22.0267C148.894 22.1931 148.94 22.3787 148.94 22.5672C148.94 22.7557 148.894 22.9413 148.805 23.1077L148.558 23.4909L148.298 23.7235L147.943 23.9425L125.974 36.7094L125.563 36.9421L125.125 37.1473L124.633 37.2979L124.14 37.421L123.675 37.5168H123.154H122.634H121.58H121.033H120.485L120.116 37.4484H119.869L119.349 37.3252L118.829 37.2021L118.35 37.0515L118.049 36.9421L117.611 36.7779L96.2174 24.0109L95.8615 23.7919L95.5467 23.573L95.314 23.3677L95.2045 23.272L95.1087 23.1625L94.9171 22.9435L94.7392 22.6972V22.6288L94.657 22.4509L94.5886 22.2457L94.438 21.9446L94.3285 21.6299C94.3285 21.6299 94.3285 21.3425 94.2601 21.3015C94.1232 20.8088 95.4783 16.8542 96.5596 16.2385C96.5596 16.2385 96.6417 15.9922 96.6828 15.9785C96.7238 15.9648 96.806 15.7322 96.8607 15.7185C96.9155 15.7048 96.9702 15.4448 97.0249 15.4311Z" fill="#CDD4F1"/>
</g>
<g style="mix-blend-mode:multiply" opacity="0.75">
<path d="M97.0933 15.4585C97.0933 15.4585 97.2302 15.2395 97.2439 15.2395C97.2576 15.2395 97.4218 15.0206 97.4492 15.0069C97.4766 14.9932 97.6545 14.8017 97.6819 14.8017L97.9556 14.5964L98.1746 14.4596C99.8034 14.0354 131.025 16.0606 138.101 16.6216C143.439 17.0458 145.205 19.2352 145.438 19.2899C145.67 19.3447 145.821 19.591 145.999 19.6457C146.177 19.7005 146.355 19.9605 146.533 20.0152C146.711 20.0699 146.861 20.3573 147.039 20.4257C147.217 20.4941 147.354 20.7952 147.518 20.891C147.682 20.9868 147.806 21.3152 147.97 21.4383C148.134 21.5615 148.189 21.972 148.285 22.1362C148.381 22.3004 148.285 22.9572 148.203 23.0393C148.12 23.1214 148.203 23.0393 148.203 23.0393L147.984 23.3677L147.751 23.573L147.395 23.7919L125.769 36.3947L125.358 36.6137L124.92 36.8189L124.441 36.9558L123.948 37.0926L123.483 37.1884H122.949H122.443H121.402H120.855H120.321L119.951 37.12H119.828L119.322 37.0105L118.829 36.8873L118.35 36.7368L118.049 36.6137L117.625 36.4494L96.4363 23.8467L96.0941 23.6414L95.7793 23.4362L95.5603 23.2446L95.4508 23.1488L95.355 23.053L95.1634 22.8341L94.9855 22.6014L94.9033 22.4372L94.8212 22.2457L94.6843 21.9309L94.5748 21.6299C94.5813 21.5251 94.5813 21.42 94.5748 21.3152C94.4516 20.9183 95.9436 16.8679 96.8196 16.3753C96.8196 16.3753 96.888 16.1153 96.9291 16.1016C96.9701 16.0879 97.0386 15.8553 97.0796 15.8416C97.0768 15.7138 97.0814 15.5858 97.0933 15.4585Z" fill="#C9D0F0"/>
</g>
<g style="mix-blend-mode:multiply" opacity="0.81">
<path d="M97.1618 15.4996C97.1618 15.4996 97.2986 15.267 97.3123 15.2533C97.326 15.2396 97.504 15.0343 97.5176 15.0206L97.7503 14.8017L98.0241 14.5827L98.2431 14.4322C99.4613 14.1175 131.654 16.2932 138.471 16.8542C143.946 17.3058 145.643 19.591 145.821 19.6868C145.999 19.7826 146.108 19.9878 146.231 20.0289C146.355 20.0699 146.492 20.3436 146.628 20.371C146.765 20.3984 146.847 20.6994 146.984 20.7541C147.121 20.8089 147.176 21.1099 147.299 21.1646C147.422 21.2194 147.477 21.5615 147.587 21.6436C147.696 21.7257 147.696 22.1225 147.778 22.232C147.86 22.3415 147.669 22.9162 147.641 22.9846L147.436 23.2583L147.258 23.4225L146.902 23.6414L125.591 36.08L125.18 36.2989L124.756 36.4905L124.277 36.641L123.798 36.7642L123.332 36.8736H122.812H122.306H121.238H120.704H120.184H119.815H119.691L119.199 36.7642L118.706 36.6273L118.241 36.4768L117.953 36.3673L117.529 36.1758L96.6006 23.6962L96.2584 23.4909L95.9573 23.2856H95.8888L95.6698 23.1077L95.5603 23.012L95.4782 22.9162L95.2866 22.7109L95.1086 22.4783L95.0265 22.3278L94.9444 22.1499C94.9444 22.1499 94.8212 21.9036 94.8075 21.8488C94.7674 21.7512 94.7354 21.6506 94.7117 21.5478C94.7052 21.443 94.7052 21.3379 94.7117 21.2331C95.1435 19.5099 95.8907 17.8814 96.9154 16.4301C96.9154 16.4301 96.9154 16.1564 96.9975 16.1564C97.0328 16.0627 97.074 15.9713 97.1207 15.8827C97.1207 15.8827 97.1344 15.5132 97.1618 15.4996Z" fill="#C4CCEF"/>
</g>
<g style="mix-blend-mode:multiply" opacity="0.88">
<path d="M97.2302 15.5406C97.2854 15.457 97.3357 15.3702 97.3807 15.2806C97.4488 15.2019 97.5128 15.1197 97.5723 15.0343L97.8188 14.8017L98.0925 14.5691L98.3115 14.4185C99.119 14.2133 132.339 16.5395 138.854 17.0869C144.48 17.5521 146.081 20.0699 146.19 20.0836C146.3 20.0973 146.382 20.3847 146.478 20.412C146.574 20.4394 146.628 20.7131 146.711 20.7404C146.793 20.7678 146.834 21.0552 146.916 21.0825C146.998 21.1099 146.998 21.411 147.094 21.452C147.19 21.4931 147.094 21.8078 147.217 21.8625C147.34 21.9172 147.217 22.273 147.217 22.3414C147.217 22.4098 147.053 22.8888 147.039 22.9299L146.861 23.1351L146.711 23.272L146.355 23.4909L125.372 35.8063L124.975 36.0252L124.55 36.2168L124.085 36.3673L123.606 36.4905L123.154 36.5863H122.648H122.155H121.129H120.608H120.102H119.732H119.609L119.117 36.4768L118.637 36.34L118.186 36.1894L117.898 36.0663L117.488 35.8747L96.7237 23.573L96.3952 23.3814L96.0941 23.1762L95.8751 23.012L95.7656 22.9162L95.6835 22.8341L95.4919 22.6288L95.3276 22.4099V22.3414L95.2455 22.1909L95.1634 22.0267L95.0265 21.7394C94.9864 21.6418 94.9544 21.5411 94.9307 21.4383C94.936 21.338 94.936 21.2375 94.9307 21.1373C95.4557 19.4898 96.182 17.9134 97.0933 16.4437C97.0933 16.4437 97.0933 16.1837 97.0933 16.17C97.0933 16.1564 97.1754 15.8964 97.1891 15.8964C97.2028 15.8964 97.2165 15.5406 97.2302 15.5406Z" fill="#C0C8ED"/>
</g>
<g style="mix-blend-mode:multiply" opacity="0.94">
<path d="M97.2986 15.5679L97.4492 15.3079L97.6408 15.0479L97.8872 14.8016L98.1609 14.5554L98.3799 14.4048C98.7905 14.2953 133.009 16.7858 139.223 17.3058C145 17.8121 146.519 20.4804 146.574 20.4941C146.628 20.5078 146.669 20.7815 146.71 20.7952C146.752 20.8088 146.71 21.0825 146.806 21.0962C146.902 21.1099 146.806 21.3973 146.806 21.4109C146.806 21.4246 146.806 21.712 146.806 21.7393C146.806 21.7667 146.724 22.0541 146.806 22.0814C146.888 22.1088 146.683 22.4098 146.71 22.4509C146.738 22.4919 146.491 22.8477 146.478 22.8614L146.327 23.012L146.204 23.1077L145.848 23.3404L125.194 35.4368L124.797 35.6421L124.372 35.82L123.921 35.9705L123.455 36.1073L123.004 36.2031L122.511 36.2852H122.018H121.512H121.005H120.499H119.992H119.637H119.513L119.034 36.1757L118.569 36.0389L118.117 35.8747L117.83 35.7516L117.433 35.56L96.9017 23.4772L96.5732 23.2856L96.2721 23.0941L96.0667 22.9162L95.9572 22.8341L95.8751 22.752L95.6835 22.5604L95.5192 22.3551V22.2867L95.4371 22.1498L95.3413 21.9993L95.2181 21.712C95.18 21.6137 95.148 21.5132 95.1223 21.4109V21.1235C95.7335 19.5596 96.4374 18.0334 97.2302 16.5532C97.2302 16.5532 97.2302 16.2795 97.2302 16.2658L97.2986 15.9921C97.3152 15.8512 97.3152 15.7089 97.2986 15.5679Z" fill="#BBC4EC"/>
</g>
<g style="mix-blend-mode:multiply">
<path d="M139.607 17.5384C145.52 18.0721 146.957 20.891 146.957 20.891V21.1783V21.4657L146.847 21.753L146.71 22.0267L146.519 22.3004L146.273 22.5604L145.999 22.8067L145.78 22.9709L145.438 23.1898L125.098 35.1221L124.715 35.3274L124.29 35.5052L123.852 35.6558L123.387 35.7789L122.908 35.8884H122.429H121.936H121.43H120.937H120.444H119.951L119.459 35.8063L118.993 35.6968L118.542 35.56L118.104 35.3958L117.83 35.2726L117.447 35.0674L96.7784 22.9709L96.4362 22.752L96.1214 22.5056L95.8476 22.2457L95.6286 21.9856L95.4507 21.712L95.3138 21.4383L95.2317 21.151V20.8636L97.2985 16.4163V16.129V15.8416L97.408 15.5543L97.5449 15.2806L97.7365 15.0069L97.9829 14.7469L98.2566 14.5006L98.4756 14.3364C98.4756 14.3364 133.694 17.0184 139.607 17.5384Z" fill="#B7C0EB"/>
</g>
</g>
<path d="M146.355 14.1585L146.67 14.4048L146.943 14.6648L147.162 14.9248L147.34 15.1985L147.463 15.4858L147.546 15.7732L147.587 16.0606V20.7268V21.0141L147.532 21.3015L147.422 21.5752L147.286 21.8625L147.094 22.1225L146.848 22.3962L146.574 22.6425L146.355 22.8067L145.999 23.0256L125.057 35.1221L124.674 35.3274L124.249 35.5053L123.811 35.6558L123.346 35.779L122.867 35.8884L122.388 35.9569L121.895 36.0116L121.389 36.0253H120.896L120.403 35.9979L119.91 35.9432L119.418 35.8611L118.952 35.7516L118.501 35.6011L118.063 35.4506L117.775 35.3137L117.392 35.1221L96.4501 23.0256L96.0942 22.8067L95.7794 22.5604L95.5193 22.3004L95.3003 22.0404L95.1224 21.7667L94.9855 21.4794L94.9034 21.2057L94.8623 20.9047V16.2522L94.876 15.9648L94.9308 15.6774L95.0266 15.3901L95.1771 15.1164L95.3688 14.8427L95.6014 14.5827L95.8752 14.3227L96.0942 14.1585H146.355Z" fill="#B7C0EB"/>
<path d="M94.8623 16.2522L94.9034 16.5395L94.9855 16.8269L95.1224 17.1006L95.3003 17.3742L95.5193 17.6479L95.7794 17.8942L96.0942 18.1405L96.4501 18.3594L117.392 30.4559L117.775 30.6612L118.063 30.7844L118.501 30.9486L118.952 31.0854L119.418 31.1949L119.91 31.277L120.403 31.3317L120.896 31.3591L121.389 31.3728L121.895 31.3454L122.388 31.3044L122.867 31.2222L123.346 31.1265L123.811 30.9896L124.249 30.8391L124.674 30.6612L125.057 30.4559L145.999 18.3594L146.355 18.1405L146.574 17.9763L146.848 17.73L147.094 17.47L147.286 17.1963L147.422 16.909L147.532 16.6353L147.587 16.3479V16.0606" fill="url(#paint0_linear_230_1864)"/>
<path d="M145.999 13.748L146.355 13.9669L146.67 14.2132L146.943 14.4732L147.162 14.7332L147.34 15.0069L147.463 15.2943L147.546 15.5816L147.587 15.869V20.5215V20.8088L147.532 21.0962L147.422 21.3836L147.286 21.6709L147.094 21.9309L146.848 22.2046L146.574 22.4509L146.355 22.6151L145.999 22.8341L125.057 34.9305L124.674 35.1221L124.249 35.3137L123.811 35.4642L123.346 35.5873L122.867 35.6968L122.388 35.7652L121.895 35.82L121.389 35.8337H120.896L120.403 35.8063L119.91 35.7516L119.418 35.6558L118.952 35.5463L118.501 35.4095L118.063 35.2589L117.775 35.1221L117.392 34.9305L96.4501 22.8341L96.0942 22.6151L95.7794 22.3688L95.5193 22.1088L95.3003 21.8488L95.1224 21.5751L94.9855 21.2878L94.9034 21.0004L94.8623 20.7267V16.0606L94.876 15.7732L94.9308 15.4858L95.0266 15.1985L95.1771 14.9248L95.3688 14.6511L95.6014 14.3911L95.8752 14.1311L96.0942 13.9669L96.5596 13.6932L145.999 13.748Z" fill="url(#paint1_linear_230_1864)"/>
<path d="M95.6699 17.0595L95.9026 17.2921L96.19 17.5111L96.5185 17.73L117.734 29.9497L118.104 30.1276L118.35 30.237L118.747 30.3876L119.158 30.5107L119.582 30.6202L120.02 30.6886L120.472 30.7433L120.923 30.7707L121.375 30.7844L121.827 30.757L122.278 30.716L122.716 30.6475L123.154 30.5518L123.579 30.4423L123.976 30.2918L124.359 30.1276L124.715 29.9497L145.944 17.73L146.273 17.5111L146.478 17.3742L146.724 17.1416L146.943 16.909L147.121 16.649L147.244 16.4027L147.34 16.1427L147.381 15.8827L147.395 15.6227L147.368 15.3627L147.286 15.1027L147.162 14.8428L147.012 14.5964L146.806 14.3501L146.56 14.1312L146.273 13.8986L145.944 13.6933L124.715 1.74733L124.359 1.56944L124.099 1.44629L123.702 1.29574L123.291 1.17259L122.867 1.0768L122.429 0.994697L121.977 0.953647L121.526 0.926295L121.074 0.912598L120.622 0.939992L120.171 0.981042L119.733 1.04944L119.295 1.14524L118.884 1.25469L118.473 1.39154L118.104 1.56944L117.734 1.74733L96.5185 13.6933L96.19 13.8986L95.9984 14.0491L95.7383 14.2817L95.5193 14.5143L95.3551 14.7606L95.2182 15.0206L95.1361 15.267L95.0813 15.5406V15.8006L95.1087 16.0606L95.1908 16.3206L95.3003 16.5669L95.4645 16.8269L95.6699 17.0595Z" fill="#D2D7F6"/>
<path d="M95.9435 16.909L96.1899 17.1416L96.4774 17.3605L96.8059 17.5658L117.734 29.6486L118.104 29.8402L118.35 29.9496L118.747 30.1002L119.158 30.2233L119.582 30.3328L120.02 30.4012L120.472 30.4559L120.923 30.4833H121.375L121.827 30.4696L122.278 30.4286L122.716 30.3602L123.154 30.2644L123.579 30.1412L123.976 30.0044L124.359 29.8402L124.715 29.6486L145.643 17.5658L145.971 17.3605L146.163 17.2237L146.423 16.9911L146.642 16.7448L146.82 16.4985L146.943 16.2522L147.039 15.9922L147.094 15.7322V15.4722L147.053 15.2122L146.984 14.9522L146.861 14.6922L146.71 14.4459L146.505 14.1996L146.259 13.9669L145.971 13.748L145.643 13.5428L124.715 1.45994L124.359 1.26838L124.099 1.15893L123.702 1.00839L123.291 0.88524L122.867 0.789443L122.429 0.707344L121.977 0.652597L121.525 0.625244H121.074L120.622 0.652597L120.17 0.693646L119.732 0.762091L119.294 0.857887L118.884 0.967339L118.473 1.10419L118.104 1.26838L117.734 1.45994L96.8059 13.5428L96.4774 13.748L96.2857 13.8985L96.0257 14.1311L95.8066 14.3638L95.6424 14.6101L95.5055 14.8701L95.4097 15.1164L95.3687 15.3901L95.355 15.6501L95.396 15.9101L95.4645 16.17L95.5876 16.4164L95.7519 16.6764L95.9435 16.909Z" fill="#FDFCFF"/>
<path d="M120.389 27.2128V27.6234L121.087 28.0339H121.786L122.484 27.6234V27.1855L121.786 26.7886H121.238L120.54 27.1855V27.2949L120.389 27.2128Z" fill="#B7C0EB"/>
<path d="M120.389 27.1718V27.5823L121.087 27.9928H121.703L122.402 27.5823V27.0486L121.703 26.6381H121.238L120.54 27.0486V27.1581L120.389 27.1718Z" fill="url(#paint2_linear_230_1864)"/>
<path d="M120.403 27.2266L120.417 27.2539L120.43 27.2813L120.458 27.3087L120.485 27.3224L120.526 27.3497L121.224 27.7465L121.252 27.7739L121.279 27.7876L121.32 27.8013H121.361L121.402 27.8149L121.443 27.8286H121.498H121.539H121.58H121.635H121.676L121.717 27.8149H121.758L121.799 27.8013L121.84 27.7876L121.881 27.7739L121.922 27.7465L122.62 27.3497L122.648 27.3224L122.662 27.3087L122.689 27.295L122.716 27.2676L122.73 27.2403L122.744 27.2129L122.757 27.1855V27.1582V27.1308V27.1171L122.744 27.0897V27.0624L122.716 27.035L122.703 27.0076L122.675 26.9803L122.648 26.9666L122.62 26.9392L121.922 26.5424L121.881 26.5287L121.854 26.515L121.813 26.5013L121.772 26.4876L121.731 26.474L121.69 26.4603H121.649H121.594H121.553H121.512H121.457L121.416 26.474H121.375L121.334 26.4876L121.293 26.5013L121.252 26.5287L121.224 26.5424L120.526 26.9392L120.485 26.9666L120.472 26.9803L120.444 27.0076L120.417 27.0213L120.403 27.0487L120.389 27.076V27.1034L120.376 27.1308V27.1582V27.1855L120.389 27.2129L120.403 27.2266Z" fill="#EFF1FE"/>
<path d="M140.688 15.4448V15.8553L141.4 16.2658H142.084L142.782 15.8553V15.3627V15.2806L142.084 14.8838H141.454L140.743 15.2806V15.4174L140.688 15.4448Z" fill="#B7C0EB"/>
<path d="M140.688 15.3627V15.8006L141.4 16.1974H142.016L142.714 15.8006V15.2395L142.016 14.829H141.441H141.372L140.661 15.2395V15.3627H140.688Z" fill="url(#paint3_linear_230_1864)"/>
<path d="M140.702 15.4585L140.715 15.4858L140.743 15.5132L140.77 15.5406L140.797 15.5543L140.825 15.5816L141.523 15.9785L141.564 16.0058L141.591 16.0195L141.632 16.0332H141.674L141.715 16.0469L141.756 16.0606H141.797H141.851H141.893H141.934H141.975L142.029 16.0469H142.07L142.112 16.0332L142.153 16.0195L142.194 16.0058L142.221 15.9785L142.919 15.5816L142.96 15.5543L142.974 15.5406L143.001 15.5132L143.015 15.4995L143.042 15.4722L143.056 15.4448V15.4174L143.07 15.3901V15.3627V15.349L143.056 15.3216L143.042 15.2943L143.029 15.2669L143.001 15.2395L142.988 15.2259L142.96 15.1985L142.919 15.1711L142.221 14.7743L142.194 14.7606L142.166 14.7469L142.125 14.7332L142.084 14.7196L142.043 14.7059H141.988L141.947 14.6922H141.906H141.865H141.81H141.769L141.728 14.7059L141.687 14.7196H141.646L141.605 14.7332L141.564 14.7606L141.523 14.7743L140.825 15.1711L140.797 15.1985L140.77 15.2122L140.756 15.2395L140.729 15.2532L140.715 15.2806L140.702 15.308L140.688 15.3353V15.3627V15.3901V15.4174V15.4448L140.702 15.4585Z" fill="#EFF1FE"/>
<path d="M119.869 3.45774V3.84089L120.568 4.23773H121.197L121.895 3.84089V3.73144V3.32094L121.197 2.9104H120.499L119.801 3.32094V3.40304L119.869 3.45774Z" fill="#B7C0EB"/>
<path d="M119.869 3.41672V3.79986L120.567 4.21039H121.266L121.964 3.79986V3.33463L121.266 2.93784H120.704L120.006 3.33463V3.47147L119.869 3.41672Z" fill="url(#paint4_linear_230_1864)"/>
<path d="M119.91 3.47143L119.924 3.49883L119.951 3.52618L119.979 3.53988L120.006 3.56723L120.034 3.59462L120.732 3.99142L120.773 4.00512L120.8 4.01881L120.827 4.03247L120.869 4.04616L120.923 4.05986H120.964L121.005 4.07352H121.046H121.101H121.142H121.183L121.224 4.05986L121.279 4.04616H121.32L121.361 4.03247L121.389 4.00512L121.43 3.99142L122.128 3.59462L122.155 3.56723L122.183 3.55357L122.21 3.52618L122.224 3.51248L122.251 3.48513L122.265 3.45778V3.43038L122.278 3.40303V3.37568L122.265 3.34829V3.32093L122.251 3.29358L122.237 3.27988L122.21 3.25253L122.196 3.22514L122.155 3.21148L122.128 3.18409L121.43 2.78725L121.389 2.7599L121.361 2.7462L121.334 2.73255L121.293 2.71885H121.252L121.197 2.70515H121.156L121.115 2.6915H121.06L121.019 2.70515H120.978H120.937L120.896 2.71885L120.841 2.73255L120.814 2.7462L120.773 2.7599L120.732 2.78725L120.034 3.18409L120.006 3.21148L119.979 3.22514L119.951 3.23883L119.938 3.26619L119.91 3.29358V3.32093L119.897 3.34829V3.36198V3.38933V3.41673V3.44408L119.91 3.47143Z" fill="#EFF1FE"/>
<path d="M99.5844 15.1985V15.5269L100.282 15.9237H100.844L101.542 15.5269V14.9658L100.844 14.5553H100.146L99.4475 14.9658V15.0753L99.5844 15.1985Z" fill="#B7C0EB"/>
<path d="M99.5845 15.1574V15.5406L100.283 15.9511H100.981L101.679 15.5406V15.4585V14.9932L100.981 14.5964H100.365L99.6666 14.9932V15.0753L99.5845 15.1574Z" fill="url(#paint5_linear_230_1864)"/>
<path d="M99.6118 15.2122L99.6255 15.2395L99.6392 15.2532L99.6666 15.2806L99.694 15.308L99.7214 15.3216L100.433 15.7322L100.46 15.7458L100.488 15.7595L100.529 15.7732L100.57 15.7869L100.611 15.8006H100.652L100.707 15.8143H100.748H100.789H100.83H100.885L100.926 15.8006L100.967 15.7869L101.008 15.7732L101.049 15.7595L101.09 15.7458L101.117 15.7322L101.829 15.3216L101.857 15.308L101.87 15.2943L101.898 15.2669L101.925 15.2395L101.939 15.2259L101.952 15.1985L101.966 15.1711V15.1437V15.1164V15.089L101.952 15.0617L101.939 15.0343L101.925 15.0069L101.911 14.9933L101.884 14.9659L101.857 14.9385L101.829 14.9248L101.117 14.5143L101.09 14.5007L101.063 14.487L101.022 14.4733L100.981 14.4596H100.94L100.898 14.4459H100.844L100.803 14.4322H100.762L100.721 14.4459H100.666H100.625L100.584 14.4596L100.543 14.4733L100.502 14.487L100.46 14.5007L100.433 14.5143L99.7214 14.9248L99.694 14.9385L99.6803 14.9659L99.6529 14.9796L99.6255 15.0069L99.6118 15.0343L99.5982 15.0617L99.5845 15.0753V15.1027V15.1301V15.1574L99.5982 15.1848L99.6118 15.2122Z" fill="#EFF1FE"/>
<g style="mix-blend-mode:multiply" opacity="0.3">
<g style="mix-blend-mode:multiply" opacity="0.06">
<path d="M4.74321 67.8945C4.80326 67.859 4.86765 67.8314 4.93481 67.8124L5.14011 67.7166L5.37282 67.6345L5.64654 67.5524H5.83819C11.9428 65.9788 31.9266 66.4167 42.3702 67.0051C44.8215 67.1153 47.263 67.3851 49.6793 67.8124C50.4321 67.9767 51.1439 68.1682 51.8283 68.3324C52.5126 68.4966 53.3065 68.7429 53.9635 68.9481C54.6205 69.1534 55.4828 69.4545 56.1398 69.7008C56.7968 69.9471 57.7002 70.3439 58.3435 70.6586C59.1113 71.0512 59.8441 71.509 60.5335 72.027C61.2525 72.4972 61.8788 73.0956 62.3813 73.7923C62.6688 74.1796 62.8608 74.6294 62.9417 75.1049C63.0225 75.5805 62.99 76.0684 62.8467 76.529C62.8518 76.5607 62.8518 76.5931 62.8467 76.6248L62.354 77.569L61.7654 78.1437L61.3821 78.3763L36.1697 92.8264L35.7044 93.0864L35.2253 93.3601L34.6367 93.4969L34.0481 93.6201L33.5554 93.7296H32.9395H32.392H31.7487H31.2149L30.5715 93.6201L29.9145 93.5106H29.5176H29.3944L28.7785 93.4012L28.1625 93.278L27.574 93.1548H27.2454L26.698 93.0454L3.10069 78.4447L2.69008 78.1847L2.32049 77.8974L2.04676 77.6374L1.90988 77.4869L1.7867 77.3363L1.58135 77.0079L1.41711 76.6795V76.5974L1.34869 76.3511V76.0227C1.34869 76.0227 1.26655 75.8722 1.17074 75.6395L1.0202 75.2701C1.0202 75.1607 0.938037 75.0101 0.896974 74.8732C0.537047 73.6698 0.614424 72.3779 1.11539 71.226C1.61637 70.074 2.50865 69.1364 3.63448 68.5787L4.00407 68.3597L4.41468 68.1408L4.74321 67.8945Z" fill="#FAFBFE"/>
</g>
<g style="mix-blend-mode:multiply" opacity="0.13">
<path d="M4.81222 67.9358C4.87172 67.8958 4.9361 67.8636 5.00382 67.84L5.20917 67.7306C5.28903 67.7046 5.36679 67.6726 5.44184 67.6348L5.7156 67.539H5.90721C11.6012 66.0749 32.6116 66.6495 42.754 67.2379C45.2124 67.3672 47.6565 67.6921 50.0632 68.2095C50.7612 68.36 51.4319 68.5653 52.0615 68.7158C52.6912 68.8663 53.4303 69.1263 54.06 69.3179C54.6896 69.5095 55.4287 69.7969 56.0857 70.0295C56.7427 70.2621 57.5229 70.6589 58.1252 70.9463C58.84 71.3011 59.5224 71.7178 60.1646 72.1916C60.8426 72.6706 61.4233 73.2743 61.8755 73.9705C62.1449 74.3351 62.3227 74.7591 62.3942 75.2067C62.4656 75.6544 62.4286 76.1127 62.2861 76.543C62.2906 76.5748 62.2906 76.607 62.2861 76.6388L61.8208 77.5145L61.2596 78.0619L60.89 78.2808L35.9924 92.5668L35.527 92.8268L35.0617 93.1004L34.4731 93.2236L33.8982 93.3604L33.4054 93.4562H32.8032H32.2557H31.6261H31.0923L30.449 93.3604L29.8057 93.2509H29.4087H29.2855L28.6833 93.1278L28.0673 93.0183L27.4925 92.8952L27.1639 92.8268L26.6301 92.7036L3.36135 78.3903L2.9507 78.1303L2.58115 77.8566L2.32108 77.6103L2.1842 77.4598L2.06101 77.3093L1.85571 76.9945L1.69147 76.6798V76.584L1.623 76.3651V76.0367C1.623 76.0367 1.54091 75.8862 1.4451 75.6672L1.29452 75.2977C1.29452 75.202 1.21241 75.0378 1.18503 74.9146C0.882222 73.7261 0.98746 72.4703 1.48386 71.3488C1.98027 70.2272 2.83908 69.3048 3.92254 68.7295C4.04573 68.7295 4.1552 68.579 4.27839 68.5106L4.66164 68.2916C4.51107 68.0864 4.66166 67.9906 4.81222 67.9358Z" fill="#F6F7FC"/>
</g>
<g style="mix-blend-mode:multiply" opacity="0.19">
<path d="M4.89412 67.977L5.07206 67.8538C5.14771 67.8229 5.22092 67.7864 5.29107 67.7444L5.52373 67.6349L5.7975 67.5254H5.9891C11.2862 66.1571 33.2957 66.8549 43.1371 67.5254C45.609 67.6667 48.0614 68.047 50.4599 68.6612C51.1169 68.8117 51.7328 69.0033 52.3077 69.1538C52.8826 69.3043 53.5806 69.5506 54.1692 69.7285C54.7578 69.9064 55.4558 70.2074 56.0307 70.4127C56.6055 70.6179 57.3994 71.0148 57.9196 71.2885C58.582 71.6178 59.2102 72.0119 59.7947 72.4653C60.4288 72.9117 60.9684 73.4791 61.3825 74.1347C61.6318 74.4777 61.7943 74.8758 61.8563 75.2952C61.9183 75.7146 61.8778 76.1427 61.7384 76.5431V76.6252L61.3004 77.4462L60.7802 77.9662L60.397 78.1851L35.8279 92.3067L35.3762 92.553L34.9108 92.813L34.336 92.9499L33.7611 93.073L33.2684 93.1825H32.6661H32.1186H31.5027H30.9688L30.3392 93.0867L29.6959 92.9909H29.3126H29.1895L28.5872 92.8678L27.9987 92.7446L27.4238 92.6215L27.0953 92.553L26.5751 92.4299L3.4706 78.2809L3.0737 78.0346L2.71781 77.7609L2.45774 77.5146L2.33456 77.3778L2.21138 77.2273L2.00607 76.9399L1.84179 76.6252V76.5294L1.75966 76.3104V76.0094C1.69231 75.8903 1.63286 75.7668 1.58172 75.6399C1.58172 75.5578 1.48594 75.3936 1.44488 75.2841C1.40382 75.1746 1.36276 75.0105 1.32169 74.901C1.06651 73.7397 1.18604 72.5274 1.66313 71.4382C2.14022 70.3491 2.95029 69.4392 3.97704 68.8391C4.07285 68.8391 4.18236 68.6749 4.29186 68.6201C4.40136 68.5654 4.53825 68.456 4.64775 68.4012C4.75725 68.3465 4.74356 68.0318 4.89412 67.977Z" fill="#F1F3FB"/>
</g>
<g style="mix-blend-mode:multiply" opacity="0.25">
<path d="M4.89426 68.0042C4.89426 68.0042 5.03114 67.8948 5.07221 67.8811C5.11327 67.8674 5.23646 67.7716 5.29121 67.7579C5.34596 67.7442 5.46913 67.6485 5.52388 67.6348C5.6176 67.5995 5.70904 67.5583 5.79764 67.5116C5.85919 67.4828 5.92334 67.4599 5.98925 67.4432C10.8757 66.1843 33.9118 67.019 43.452 67.6211C45.9385 67.7859 48.3966 68.2452 50.7748 68.9895C51.3771 69.1126 51.9382 69.3179 52.4857 69.4548C53.0333 69.5916 53.6492 69.8516 54.183 70.0021C54.7168 70.1526 55.3738 70.4673 55.9076 70.6726C56.5018 70.914 57.0821 71.1881 57.646 71.4937C58.2443 71.8129 58.8163 72.1789 59.3569 72.5884C59.9317 73.0168 60.4194 73.5508 60.7941 74.1619C61.0223 74.4809 61.1701 74.8504 61.2249 75.2387C61.2797 75.627 61.2399 76.0228 61.1089 76.3924V76.4745L60.6846 77.2545L60.2055 77.7198L59.8223 77.9387L35.5817 91.8962L35.13 92.1425L34.6646 92.4025L34.1034 92.5394L33.5422 92.6625L33.0632 92.772H32.4746H31.9271H30.7911L30.1614 92.6762L29.5455 92.5667L29.1622 92.4983H29.0254L28.4505 92.3752L27.8619 92.252L27.3007 92.1289L26.9859 92.0468L26.4658 91.9236L3.52551 77.9661L3.12856 77.7198L2.77271 77.4598L2.51265 77.2272L2.38946 77.0903L2.26624 76.9535L2.06093 76.6661L1.89669 76.3651V76.2693L1.81457 76.0503V75.763C1.75335 75.6475 1.69852 75.5287 1.65033 75.4072C1.65033 75.3251 1.55451 75.1609 1.51344 75.0514C1.46883 74.9308 1.43227 74.8074 1.40396 74.6819C1.19127 73.5454 1.32553 72.3713 1.78934 71.3122C2.25315 70.253 3.02504 69.3579 4.00458 68.7432C4.10039 68.7432 4.2099 68.5653 4.30571 68.5106C4.40152 68.4559 4.52469 68.3327 4.6342 68.2916C4.7437 68.2505 4.89426 68.0589 4.89426 68.0042Z" fill="#EDEFFA"/>
</g>
<g style="mix-blend-mode:multiply" opacity="0.31">
<path d="M5.01743 68.0453C5.01743 68.0453 5.15431 67.9222 5.19537 67.9085C5.23643 67.8949 5.35963 67.7853 5.41438 67.7716C5.46913 67.758 5.59229 67.6485 5.64704 67.6348C5.70179 67.6212 5.85237 67.5253 5.92081 67.5117L6.12611 67.4159C10.5882 66.2664 34.6509 67.2517 43.89 67.8537C46.3844 68.0044 48.8451 68.5066 51.1991 69.3453C51.7603 69.4685 52.2804 69.6737 52.7732 69.7969C53.2659 69.9201 53.8408 70.18 54.3335 70.3305C54.8263 70.481 55.4149 70.7684 55.8939 70.96C56.4387 71.1871 56.969 71.4476 57.4817 71.74C58.0297 72.0305 58.5477 72.3743 59.0283 72.7663C59.5591 73.1584 60.002 73.6571 60.3287 74.2304C60.5391 74.5267 60.673 74.8704 60.7184 75.2309C60.7637 75.5914 60.7192 75.9576 60.5887 76.2967C60.5935 76.3192 60.5935 76.3425 60.5887 76.3651L60.1918 77.0903L59.7401 77.5282L59.3569 77.7472L35.4174 91.5266L34.9794 91.773L34.514 92.0193L33.9665 92.1561L33.4053 92.2929L32.9263 92.3887H32.3514H31.8039H30.6815L30.0656 92.2929L29.4633 92.1972L29.0664 92.1287H28.9432L28.3683 92.0193L27.7935 91.8961L27.2459 91.773L26.9311 91.6772L26.4247 91.554L3.7445 77.7472L3.36125 77.5145L3.01906 77.2545L2.75899 77.0219L2.63581 76.8851L2.52629 76.7482L2.32098 76.4745L2.15674 76.1735V76.0914L2.07462 75.8861V75.5988C2.07462 75.5988 1.97881 75.4209 1.91038 75.2567C1.84194 75.0925 1.81455 74.9967 1.77349 74.9009C1.73243 74.8051 1.70504 74.6409 1.67767 74.5314C1.51731 73.4217 1.67228 72.2893 2.12487 71.2634C2.57745 70.2375 3.3094 69.3595 4.23723 68.7295C4.31935 68.7295 4.41518 68.538 4.51099 68.4969C4.60681 68.4559 4.71631 68.3053 4.81212 68.2642C4.90793 68.2232 4.89424 68.0864 5.01743 68.0453Z" fill="#E8EBF9"/>
</g>
<g style="mix-blend-mode:multiply" opacity="0.38">
<path d="M5.09951 68.0864C5.09951 68.0864 5.22269 67.9495 5.26375 67.9359C5.30481 67.9222 5.428 67.799 5.48275 67.7853C5.5375 67.7717 5.66071 67.6485 5.71546 67.6348C5.77021 67.6212 5.92075 67.5116 5.98919 67.498L6.26295 67.3612C10.3692 66.3075 35.4037 67.4433 44.3279 68.0453C46.8422 68.199 49.3151 68.7582 51.6508 69.7011C52.1572 69.8106 52.6363 70.0295 53.0195 70.139C53.4028 70.2485 53.9913 70.5085 54.3883 70.6453C54.7852 70.7822 55.3738 71.0832 55.757 71.2474C56.1403 71.4116 56.7425 71.7674 57.1258 71.9726C57.609 72.2567 58.0669 72.5817 58.4945 72.9442C58.9666 73.3214 59.3616 73.786 59.658 74.3126C59.8442 74.5917 59.9601 74.9117 59.9958 75.2452C60.0316 75.5788 59.9861 75.9161 59.8633 76.2283L59.6443 76.9399L59.22 77.3504L58.8504 77.5693L35.2531 91.1847L34.8151 91.4174L34.3634 91.6637L33.8159 91.8005L33.2821 91.9237L32.7894 92.0332H32.2282H31.6943H30.572L29.9697 91.951L29.3675 91.8553L28.9842 91.7868H28.8611L28.2999 91.6774L27.725 91.5542L27.1912 91.4174L26.8763 91.3353L26.3836 91.1847L3.9224 77.5009L3.53915 77.2546L3.19696 77.0083L2.95056 76.7894L2.82737 76.6525L2.71789 76.5294L2.51259 76.2557L2.34834 75.9683V75.8862L2.26618 75.681V75.421C2.2018 75.3071 2.14687 75.1881 2.10194 75.0652C2.10194 74.9968 2.00612 74.8189 1.96505 74.7231C1.92399 74.6273 1.89665 74.4631 1.86927 74.3673C1.76195 73.2838 1.93758 72.191 2.379 71.1956C2.82043 70.2003 3.51255 69.3364 4.38777 68.6884C4.4699 68.6884 4.55201 68.4832 4.63414 68.4421C4.71626 68.4011 4.83944 68.2506 4.92156 68.2095C5.00369 68.1685 4.99001 68.1275 5.09951 68.0864Z" fill="#E4E7F7"/>
</g>
<g style="mix-blend-mode:multiply" opacity="0.44">
<path d="M5.1679 68.1138L5.33214 67.9496C5.33214 67.9496 5.49639 67.8128 5.53745 67.7991C5.57851 67.7854 5.72906 67.6486 5.78381 67.6349C5.83856 67.6212 6.00283 67.4981 6.05758 67.4844C6.12052 67.4348 6.1895 67.3934 6.26289 67.3612C9.91745 66.417 36.0058 67.6896 44.5879 68.2917C47.1211 68.4361 49.6048 69.0534 51.9107 70.1116C52.3624 70.2074 52.7867 70.44 53.1973 70.5358C53.608 70.6316 54.0596 70.9053 54.4566 71.0284C54.8535 71.1516 55.3189 71.439 55.7295 71.5895C56.1615 71.7944 56.5819 72.0228 56.9888 72.2737C57.4318 72.5278 57.845 72.8307 58.2206 73.1768C58.6405 73.5159 58.9893 73.9344 59.2472 74.4084C59.4135 74.663 59.5154 74.9542 59.544 75.257C59.5726 75.5598 59.5271 75.8649 59.4114 76.1462L59.0556 76.7482L58.6724 77.1177L58.3028 77.3366L35.034 90.7878L34.6097 91.0204L34.158 91.2531L33.6242 91.4036L33.0904 91.5267L32.6113 91.6362H32.0364H31.5163H30.4077L29.8191 91.5541L29.2305 91.472H28.8473H28.7241L28.1629 91.3625L27.6154 91.2257L27.0816 91.1025L26.7668 91.0068L26.2877 90.8562L4.04552 77.4051L3.66227 77.1724L3.32008 76.9261L3.07372 76.7072L2.95049 76.584L2.84101 76.4609L2.63571 76.2009L2.47146 75.9273V75.8452L2.38934 75.6399L2.32088 75.3936L2.15663 75.0515L2.04715 74.7231C2.04715 74.641 1.9787 74.4494 1.95133 74.3673C1.69127 73.4778 2.47145 69.92 4.42876 68.8117C4.4972 68.8117 4.56564 68.5927 4.64777 68.5654C4.72989 68.538 4.82571 68.3601 4.90784 68.3191C4.98996 68.278 5.07209 68.1548 5.1679 68.1138Z" fill="#DFE3F6"/>
</g>
<g style="mix-blend-mode:multiply" opacity="0.5">
<path d="M5.2364 68.1549C5.2364 68.1549 5.37327 67.9907 5.40065 67.977C5.42802 67.9633 5.57857 67.8265 5.60595 67.8128C5.63332 67.7991 5.81129 67.6486 5.85236 67.6349C5.89342 67.6212 6.07133 67.4844 6.12608 67.4707C6.18083 67.457 6.29032 67.3749 6.33139 67.3612C9.57532 66.5265 36.6903 67.9496 45.0123 68.5517C47.5704 68.688 50.0708 69.3642 52.3488 70.5358C52.7457 70.6316 53.1289 70.8642 53.4848 70.9463C53.8407 71.0284 54.2513 71.3022 54.6072 71.4116C54.9857 71.5705 55.3557 71.7485 55.7159 71.9452C56.0989 72.1356 56.4692 72.3504 56.8246 72.5884C57.211 72.826 57.5732 73.101 57.9059 73.4094C58.2758 73.721 58.5745 74.1083 58.7819 74.5452C58.9296 74.7777 59.017 75.0434 59.0361 75.3182C59.0553 75.593 59.0055 75.8682 58.8914 76.1189L58.5629 76.6662L58.207 77.0083L57.8374 77.2273L34.8835 90.6237L34.4592 90.8563L34.0075 91.089L33.4874 91.2258L32.9673 91.3626L32.4882 91.4584L31.927 91.5268H31.4069H30.3119H29.7234L29.1485 91.4311H28.7789H28.642L28.1082 91.3216L27.5607 91.1847L27.0406 91.0479L26.7394 90.9521L26.2604 90.8016L4.22354 77.5146L3.85395 77.2957L3.52547 77.0494L3.2791 76.8304L3.16958 76.7073L3.0601 76.5978L2.85479 76.3378L2.70421 76.0778V75.9957L2.62209 75.8041L2.55366 75.5578L2.38942 75.2294C2.38942 75.2294 2.30727 74.9694 2.2799 74.901C2.24608 74.7886 2.21866 74.6744 2.19778 74.5589C1.96509 73.7652 2.88214 70.098 4.62045 69.0854C4.62045 69.0854 4.75736 68.8801 4.82579 68.8391C4.89423 68.798 4.99002 68.6201 5.05846 68.5928C5.1269 68.5654 5.15428 68.1959 5.2364 68.1549Z" fill="#DBDFF5"/>
</g>
<g style="mix-blend-mode:multiply" opacity="0.56">
<path d="M5.30477 68.1959C5.30477 68.1959 5.44168 68.018 5.46905 68.0043C5.49643 67.9906 5.64698 67.8265 5.67436 67.8265C5.70173 67.8265 5.87966 67.6486 5.92072 67.6349C6.00427 67.5753 6.09109 67.5205 6.18079 67.4707L6.3998 67.3475C9.2468 66.6223 37.3747 68.1822 45.3955 68.7159C47.9788 68.84 50.4946 69.5814 52.7321 70.8779C53.0743 70.96 53.4028 71.2063 53.7176 71.2747C54.0324 71.3432 54.3883 71.6305 54.6894 71.7263C54.9905 71.8221 55.3464 72.1095 55.6612 72.2189C55.9876 72.4008 56.303 72.6018 56.6056 72.821C56.9349 73.0417 57.2421 73.2937 57.5227 73.5736C57.8421 73.8598 58.0985 74.2093 58.2755 74.5999C58.3826 74.8121 58.4384 75.0464 58.4384 75.2841C58.4384 75.5218 58.3826 75.7561 58.2755 75.9683L57.9744 76.461L57.6459 76.762L57.29 76.9946L34.6645 90.1037L34.2539 90.3227L33.8022 90.5553L33.2958 90.6921L32.7756 90.8153L32.2966 90.9247H31.7491H31.2289H30.1477H29.5728L29.0116 90.8426H28.6283H28.5051L27.9713 90.7195L27.4375 90.5963L26.9311 90.4595L26.63 90.3637L26.1646 90.1995L4.34667 77.0904L3.97708 76.8715L3.64859 76.6389L3.41593 76.4336L3.3064 76.3104L3.19692 76.201L3.00527 75.9547L2.84103 75.6947L2.75891 75.5031L2.69049 75.2841L2.5262 74.9557L2.41672 74.6273C2.41672 74.6273 2.41672 74.3536 2.3346 74.2852C2.12929 73.601 3.21059 69.838 4.71622 68.9759C4.71622 68.9759 4.83941 68.7569 4.89416 68.7159C4.94891 68.6748 5.04473 68.4969 5.11317 68.4696C5.1816 68.4422 5.23633 68.2233 5.30477 68.1959Z" fill="#D6DCF4"/>
</g>
<g style="mix-blend-mode:multiply" opacity="0.63">
<path d="M5.38716 68.237L5.53775 68.0317L5.74305 67.8265C5.82393 67.7667 5.90162 67.7028 5.97576 67.6349C6.07201 67.5836 6.16358 67.5241 6.24948 67.457C6.31946 67.4108 6.39265 67.3696 6.46849 67.3338C8.90486 66.7043 38.0456 68.4285 45.779 69.0032C48.3905 69.0849 50.9271 69.8954 53.1018 71.3431C53.4166 71.3431 53.6904 71.6442 53.9641 71.7126C54.2379 71.781 54.5253 72.0547 54.7854 72.1368C55.0455 72.2189 55.3329 72.5063 55.593 72.6021C55.853 72.6979 56.1268 73.0263 56.3868 73.1631C56.6469 73.2999 56.9206 73.6694 57.1533 73.8473C57.4177 74.1061 57.6231 74.4187 57.7556 74.7641C57.8541 74.9568 57.9055 75.1702 57.9055 75.3867C57.9055 75.6032 57.8541 75.8166 57.7556 76.0093L57.4681 76.4335L57.1807 76.7072L56.8248 76.9261L34.5416 89.871L34.1173 90.09L33.6793 90.3089L33.1728 90.4594L32.6664 90.5825L32.201 90.6783H31.6672H31.1471H30.0794H29.5182L28.9708 90.5962H28.5875H28.4643L27.9305 90.4731L27.4104 90.3499L26.9176 90.1994L26.6165 90.1036L26.1648 89.9394L4.55224 76.9945L4.19636 76.7756L3.88157 76.5566L3.64886 76.3651L3.52568 76.2419L3.42986 76.1462L3.23825 75.8999L3.07401 75.6536L2.99185 75.4757L2.92343 75.2568L2.77288 74.942C2.77288 74.942 2.69074 74.6683 2.66336 74.6136C2.63599 74.5588 2.66336 74.3399 2.66336 74.2852C2.48542 73.6968 3.7036 69.838 5.00391 69.099C5.00391 69.099 5.09975 68.8664 5.1545 68.839C5.20925 68.8117 5.29135 68.6064 5.3461 68.5791C5.40085 68.5517 5.31872 68.2506 5.38716 68.237Z" fill="#D2D8F2"/>
</g>
<g style="mix-blend-mode:multiply" opacity="0.69">
<path d="M5.45547 68.2643C5.45547 68.2643 5.59233 68.0591 5.60601 68.0591C5.6197 68.0591 5.78398 67.8537 5.81136 67.8401C5.83873 67.8264 6.01665 67.6485 6.04402 67.6349C6.13843 67.5756 6.22981 67.5117 6.31779 67.4433C6.31779 67.4433 6.50942 67.3201 6.5368 67.3201C8.56255 66.7864 38.7298 68.6885 46.1485 69.2358C48.7956 69.284 51.3611 70.1597 53.485 71.74C53.745 71.74 53.9777 72.0411 54.1967 72.0958C54.4157 72.1505 54.6484 72.4242 54.8811 72.4926C55.1138 72.561 55.3191 72.8484 55.5381 72.9442C55.7571 73.04 55.9624 73.341 56.1677 73.4505C56.373 73.5599 56.5783 73.9157 56.77 74.0663C56.9616 74.2168 57.1122 74.6683 57.2353 74.8736C57.3228 75.0378 57.3686 75.2211 57.3686 75.4072C57.3686 75.5934 57.3228 75.7766 57.2353 75.9409L56.989 76.3103L56.7426 76.5566L56.373 76.7756L34.473 89.5426L34.0624 89.7615L33.6244 89.9805L33.1316 90.1173L32.6252 90.2541L32.1598 90.3499H31.626H31.1059H30.0519H29.5045H28.9569L28.5874 90.2815H28.4642L27.9441 90.172L27.4376 90.0489L26.9449 89.8983L26.6438 89.7889L26.2194 89.6247L4.81216 76.8577L4.45627 76.6388L4.14148 76.4198L3.90877 76.2282L3.79929 76.1324L3.70347 76.023L3.51182 75.804L3.34758 75.5577V75.4756L3.26546 75.3114L3.19704 75.1062L3.04645 74.7915C3.04645 74.7915 2.96435 74.5315 2.93697 74.4768C2.9096 74.422 2.93697 74.203 2.93697 74.162C2.78641 73.6694 4.14145 69.7148 5.22276 69.099C5.22276 69.099 5.30488 68.8527 5.34595 68.8253C5.38701 68.798 5.48283 68.5927 5.52389 68.5653C5.56495 68.538 5.40072 68.2916 5.45547 68.2643Z" fill="#CDD4F1"/>
</g>
<g style="mix-blend-mode:multiply" opacity="0.75">
<path d="M5.52394 68.3054C5.52394 68.3054 5.66083 68.0865 5.67452 68.0728C5.68821 68.0591 5.86614 67.8675 5.87983 67.8538L6.11253 67.6349C6.20937 67.5742 6.30092 67.5056 6.38626 67.4296C6.46406 67.3921 6.5375 67.3463 6.60526 67.2928C8.23408 66.8823 39.4553 68.8937 46.5318 69.4685C51.8836 69.8927 53.6356 72.0821 53.8683 72.2052C54.101 72.3284 54.2515 72.5063 54.4295 72.5473C54.6074 72.5884 54.7853 72.8758 54.9633 72.9305C55.1412 72.9852 55.2918 73.2726 55.4697 73.341C55.6477 73.4094 55.7845 73.7105 55.9625 73.7926C56.1404 73.8747 56.2362 74.2304 56.4005 74.3399C56.5647 74.4494 56.6195 74.8873 56.7153 75.0378C56.7785 75.1855 56.804 75.3466 56.7897 75.5066C56.7754 75.6666 56.7216 75.8205 56.6331 75.9547L56.4142 76.2831L56.1952 76.4746L55.8393 76.7073L34.1856 89.2553L33.775 89.4742L33.337 89.6795L32.8579 89.83L32.3652 89.9532L31.8998 90.0627H31.3797H30.8596H29.8193H29.2855L28.7517 89.9806H28.3821H28.2589L27.7388 89.8711L27.246 89.7342L26.767 89.5837L26.4795 89.4742L26.0552 89.2964L4.89432 76.6936L4.55213 76.4883L4.23731 76.2694L4.0183 76.0778L3.90882 75.982L3.813 75.8862L3.62139 75.6673L3.45715 75.421L3.37503 75.2568V75.0789L3.22444 74.7641C3.22444 74.7641 3.14231 74.4905 3.12862 74.4631C3.11493 74.4357 3.12864 74.1758 3.0602 74.1484C2.9507 73.7516 4.42894 69.7011 5.31863 69.2085C5.31863 69.2085 5.38708 68.9485 5.41446 68.9349C5.44183 68.9212 5.52394 68.6885 5.565 68.6612C5.60606 68.6338 5.48287 68.3191 5.52394 68.3054Z" fill="#C9D0F0"/>
</g>
<g style="mix-blend-mode:multiply" opacity="0.81">
<path d="M5.59233 68.3464L5.74287 68.1001C5.74287 68.1001 5.93449 67.8675 5.94818 67.8675L6.18088 67.6349L6.45465 67.4296L6.67361 67.2791C7.8918 66.9643 40.0848 69.1401 46.9012 69.7011C52.3762 70.139 54.0734 72.4379 54.2514 72.5337C54.4293 72.6295 54.5388 72.8347 54.6757 72.8621C54.8126 72.8894 54.9221 73.1768 55.0589 73.2179C55.1958 73.2589 55.278 73.5462 55.4148 73.601C55.5517 73.6557 55.6064 73.9567 55.7433 74.0115C55.8802 74.0662 55.9076 74.4084 56.0171 74.4905C56.1266 74.5726 56.1266 74.9694 56.2087 75.0789C56.2908 75.1883 56.0992 75.763 56.0718 75.8314L55.8802 76.1051L55.6886 76.2693L55.3327 76.4882L34.0213 88.9269L33.6243 89.1321L33.1863 89.3374L32.7209 89.4879L32.2282 89.6111L31.7765 89.7068H31.2701H30.7636H29.7234H29.1896H28.6694H28.3136H28.1767L27.6839 89.5974L27.1912 89.4606L26.7258 89.31L26.4384 89.2006L26.0278 89.009L5.0448 76.584L4.70261 76.3924L4.40153 76.1872L4.18252 76.0093L4.073 75.9135L3.97718 75.8177L3.78557 75.6125L3.62133 75.3799L3.53921 75.2294L3.45709 75.0515L3.3202 74.7505C3.3202 74.7505 3.23807 74.4767 3.22438 74.4494C3.21785 74.3446 3.21785 74.2395 3.22438 74.1347C3.65612 72.4072 4.40322 70.7742 5.42809 69.3179C5.42809 69.3179 5.42809 69.0579 5.51021 69.0442C5.59234 69.0306 5.60602 68.7843 5.63339 68.7706C5.66077 68.757 5.56496 68.36 5.59233 68.3464Z" fill="#C4CCEF"/>
</g>
<g style="mix-blend-mode:multiply" opacity="0.88">
<path d="M5.66064 68.3874L5.81122 68.1274C5.81122 68.1274 6.00284 67.8811 6.01653 67.8811L6.24919 67.6485L6.52296 67.4158L6.74196 67.2653C7.56321 67.06 40.7691 69.3726 47.2844 69.92C52.91 70.3989 54.5114 72.9031 54.6346 72.9304C54.7578 72.9578 54.8262 73.2314 54.9084 73.2588C54.9905 73.2862 55.0589 73.5598 55.1547 73.5872C55.2505 73.6146 55.2642 73.9019 55.3463 73.9293C55.4285 73.9567 55.4285 74.2577 55.5243 74.2988C55.6201 74.3399 55.5243 74.6546 55.6475 74.7093C55.7706 74.764 55.6475 75.1061 55.6475 75.1882C55.6475 75.2703 55.4832 75.7219 55.4696 75.763L55.2916 75.9819L55.141 76.1188L54.7852 76.3377L33.8022 88.6531L33.4052 88.8584L32.9809 89.0499L32.5156 89.2141L32.0365 89.3373L31.5848 89.4331L31.0784 89.5152H30.5856H29.5317H29.0115H28.5051H28.1356H28.0124L27.5196 89.4057L27.0542 89.2689L26.5889 89.1047L26.3014 88.9952L25.9045 88.8036L5.1405 76.5566L4.79832 76.3514L4.49719 76.1598L4.27818 75.9819L4.1687 75.8998L4.08658 75.804L3.89493 75.6125L3.73069 75.3935V75.3251L3.64857 75.1746L3.56645 75.0104L3.42956 74.723C3.42956 74.723 3.34743 74.4356 3.33374 74.4219C3.34024 74.3217 3.34024 74.2211 3.33374 74.1209C3.86197 72.4747 4.58818 70.8986 5.49639 69.4274V69.1537C5.49639 69.1537 5.5785 68.88 5.60587 68.88C5.63325 68.88 5.64695 68.3874 5.66064 68.3874Z" fill="#C0C8ED"/>
</g>
<g style="mix-blend-mode:multiply" opacity="0.94">
<path d="M5.74276 68.4148L5.87964 68.1548L6.08495 67.8948L6.31765 67.6485L6.59138 67.4022L6.81038 67.2516C7.22101 67.1422 41.4535 69.6189 47.6676 70.1526C53.43 70.6589 54.9493 73.3136 55.0178 73.3273C55.0862 73.341 55.0999 73.6284 55.1409 73.6421C55.182 73.6557 55.141 73.9294 55.2368 73.9431C55.3326 73.9567 55.2368 74.2441 55.2368 74.2578C55.2368 74.2714 55.2368 74.5589 55.2368 74.5862C55.2368 74.6136 55.1683 74.901 55.2368 74.9283C55.3052 74.9557 55.1136 75.2567 55.1273 75.2978C55.141 75.3388 54.9083 75.6946 54.8946 75.7083L54.744 75.8588L54.6208 75.9546L54.265 76.1735L33.6379 88.2837L33.2546 88.489L32.8303 88.6806L32.3786 88.8311L31.8996 88.9679L31.4479 89.0637H30.9552H30.4624H29.4495H28.9431H28.4367H28.0808H27.9576L27.4785 88.9543L27.0131 88.8174L26.5614 88.6532L26.274 88.53L25.8908 88.3385L5.35951 76.2556L5.03102 76.064L4.7436 75.8724H4.67514L4.46983 75.7083L4.36031 75.6262L4.27819 75.5441L4.08658 75.3525L3.92234 75.1472L3.84022 74.9967L3.7581 74.8462C3.70717 74.753 3.66147 74.6571 3.62121 74.5589C3.62121 74.5589 3.53908 74.2851 3.52539 74.2715V73.9842C4.13305 72.4165 4.84171 70.8897 5.64694 69.4137C5.64083 69.318 5.64083 69.222 5.64694 69.1263C5.64694 69.1263 5.64693 68.8527 5.72906 68.8527C5.72122 68.7066 5.72582 68.5601 5.74276 68.4148Z" fill="#BBC4EC"/>
</g>
<g style="mix-blend-mode:multiply">
<path d="M48.0373 70.3853C53.9503 70.9053 55.3875 73.7241 55.3875 73.7241V74.0251V74.3125L55.2917 74.5862L55.1411 74.8735L54.9495 75.1335L54.7168 75.4072L54.4294 75.6535L54.2104 75.8177L53.8682 76.0367L33.5286 87.9691L33.1453 88.1607L32.721 88.3522L32.283 88.5027L31.8176 88.6259L31.3522 88.7354H30.8595H30.3667H29.3675H28.8748H28.382L27.903 88.6396L27.4239 88.5301L26.9722 88.3933L26.5479 88.2428L26.2604 88.1059L25.8772 87.9143L5.20906 75.8177L4.86688 75.5988L4.55205 75.3525L4.27828 75.0925L4.05932 74.8325L3.88137 74.5588L3.75819 74.2714L3.67603 73.9841V73.6967L5.74286 69.2632V68.9758V68.6884L5.83868 68.4011L5.97556 68.1274L6.16717 67.8537L6.41353 67.5937L6.6873 67.3337L6.9063 67.1695C6.9063 67.1695 42.1243 69.8653 48.0373 70.3853Z" fill="#B7C0EB"/>
</g>
</g>
<path d="M54.7852 67.0054L55.1 67.2517L55.3738 67.5117L55.5927 67.7717L55.7707 68.0453L55.8939 68.3327L55.9897 68.6201L56.0171 68.8937V73.5599V73.8473L55.9623 74.1346L55.8665 74.422L55.716 74.6957L55.5243 74.9693L55.2916 75.2293L55.0042 75.4893L54.7852 75.6535L54.443 75.8725L33.4874 87.9553L33.1041 88.1605L32.6798 88.3521L32.2418 88.5026L31.7764 88.6258L31.3111 88.7353L30.8183 88.8037L30.3256 88.8584L29.8328 88.8721H29.3264L28.8336 88.8447L28.3409 88.7763L27.8618 88.6942L27.3828 88.5847L26.9311 88.4479L26.4931 88.2837L26.2193 88.1605L25.8361 87.9553L4.88045 75.8725L4.52459 75.6399L4.20976 75.4072L3.94971 75.1472L3.73071 74.8872L3.55276 74.6136L3.4159 74.3262L3.33376 74.0388L3.3064 73.7515V69.099V68.7979L3.36114 68.5243L3.45696 68.2369L3.60752 67.9496L3.79915 67.6896L4.03183 67.4159L4.31926 67.1696L4.53827 67.0054H54.7852Z" fill="#B7C0EB"/>
<path d="M3.3064 69.099L3.33376 69.3863L3.4159 69.66L3.55276 69.9474L3.73071 70.221L3.94971 70.481L4.20976 70.741L4.52459 70.9874L4.88045 71.2063L25.8361 83.3029L26.2193 83.4945L26.4931 83.6314L26.9311 83.7819L27.3828 83.9324L27.8618 84.0419L28.3409 84.124L28.8336 84.1787L29.3264 84.2061H29.8328L30.3256 84.1924L30.8183 84.1377L31.3111 84.0692L31.7764 83.9598L32.2418 83.8366L32.6798 83.6861L33.1041 83.4945L33.4874 83.3029L54.443 71.2063L54.7852 70.9874L55.0042 70.8231L55.2916 70.5768L55.5243 70.3168L55.716 70.0432L55.8665 69.7558L55.9623 69.4684L56.0171 69.1947V68.8937" fill="url(#paint6_linear_230_1864)"/>
<path d="M54.443 66.5949L54.7852 66.8138L55.1 67.0601L55.3738 67.3201L55.5927 67.5801L55.7707 67.8538L55.8939 68.1411L55.9897 68.4148L56.0171 68.7022V73.3684V73.6557L55.9623 73.9431L55.8665 74.2305L55.716 74.5041L55.5243 74.7778L55.2916 75.0378L55.0042 75.2978L54.7852 75.462L54.443 75.6809L33.4874 87.7637L33.1041 87.969L32.6798 88.1469L32.2418 88.3111L31.7764 88.4342L31.3111 88.5437L30.8183 88.6121L30.3256 88.6531L29.8328 88.6805H29.3264L28.8336 88.6395L28.3409 88.5847L27.8618 88.5026L27.3828 88.3932L26.9311 88.2563L26.4931 88.0921L26.2193 87.969L25.8361 87.7637L4.88045 75.6809L4.52459 75.4483L4.20976 75.2157L3.94971 74.9557L3.73071 74.6957L3.55276 74.422L3.4159 74.1347L3.33376 73.8473L3.3064 73.5599V68.8938V68.6064L3.36114 68.319L3.45696 68.0453L3.60752 67.758L3.79915 67.498L4.03183 67.2244L4.31926 66.978L4.53827 66.8138L5.00364 66.5402L54.443 66.5949Z" fill="url(#paint7_linear_230_1864)"/>
<path d="M4.10029 69.9064L4.34666 70.139L4.6204 70.3579L4.94891 70.5632L26.1782 82.7829L26.5341 82.9744L26.7805 83.0839L27.1774 83.2344L27.588 83.3576L28.0261 83.4671L28.464 83.5355L28.9021 83.5902L29.3537 83.6176H29.8191L30.2708 83.6039L30.7088 83.5628L31.1605 83.4944L31.5848 83.3986L32.0091 83.2755L32.406 83.1386L32.7893 82.9744L33.1452 82.7829L54.3882 70.5632L54.7167 70.3579L54.9083 70.2211L55.1684 69.9885L55.3737 69.7422L55.5516 69.4958L55.6885 69.2495L55.7706 68.9896L55.8254 68.7296V68.4696L55.798 68.2096L55.7159 67.9496L55.6064 67.6896L55.4421 67.4433L55.2368 67.197L54.9905 66.9644L54.7167 66.7454L54.3882 66.5402L33.1452 54.5942L32.7893 54.4026L32.5429 54.2931L32.146 54.1426L31.7354 54.0195L31.2974 53.9237L30.8594 53.8416L30.4214 53.7869L29.956 53.7595H29.5043L29.0526 53.7869L28.6009 53.8279L28.1629 53.8963L27.7386 53.9921L27.3143 54.1016L26.9174 54.2384L26.5341 54.4026L26.1782 54.5942L4.94891 66.5402L4.6204 66.7454L4.42878 66.8959L4.16871 67.1286L3.96341 67.3612L3.78546 67.6075L3.6486 67.8538L3.56648 68.1138L3.51172 68.3738V68.6338L3.5391 68.9075L3.62122 69.1674L3.73072 69.4137L3.89497 69.6601L4.10029 69.9064Z" fill="#D2D7F6"/>
<path d="M4.38763 69.7558L4.62031 69.9884L4.90776 70.2074L5.23625 70.4126L26.1782 82.4954L26.5341 82.687L26.7804 82.7965L27.1774 82.947L27.588 83.0701L28.026 83.1659L28.464 83.248L28.902 83.3028L29.3537 83.3301H29.8191L30.2707 83.3164L30.7087 83.2617L31.1604 83.1933L31.5847 83.1112L32.0091 82.988L32.406 82.8512L32.7892 82.687L33.1451 82.4954L54.0871 70.4126L54.4018 70.2074L54.6072 70.0568L54.8672 69.8379L55.0726 69.5916L55.2505 69.3453L55.3873 69.099L55.4695 68.839L55.5242 68.579V68.319L55.4969 68.0453L55.4147 67.799L55.3052 67.539L55.141 67.2927L54.9357 67.0464L54.6893 66.8138L54.4018 66.5948L54.0871 66.3896L33.1451 54.3068L32.7892 54.1152L32.5429 54.0057L32.1459 53.8552L31.7353 53.732L31.2973 53.6362L30.8593 53.5541L30.4213 53.4994L29.9559 53.472H29.5042L29.0526 53.4857L28.6009 53.5405L28.1629 53.6089L27.7385 53.691L27.3142 53.8141L26.9173 53.951L26.5341 54.1152L26.1782 54.3068L5.23625 66.3896L4.90776 66.5948L4.71613 66.7454L4.45607 66.9643L4.25076 67.2106L4.07282 67.4569L3.93594 67.7032L3.85381 67.9632L3.79907 68.2232V68.4832L3.82643 68.7569L3.90857 69.0169L4.01806 69.2632L4.18232 69.5095L4.38763 69.7558Z" fill="#FDFCFF"/>
<path d="M64.1885 49.7091C62.9497 49.0815 61.5805 48.7545 60.1917 48.7545C58.803 48.7545 57.4338 49.0815 56.195 49.7091C53.9913 50.9953 54.005 53.0616 56.195 54.3479C57.4338 54.9754 58.803 55.3025 60.1917 55.3025C61.5805 55.3025 62.9497 54.9754 64.1885 54.3479C66.3922 53.0616 66.3785 50.9953 64.1885 49.7091Z" fill="#4CD9ED"/>
<g style="mix-blend-mode:multiply">
<g style="mix-blend-mode:multiply">
<path d="M56.195 50.5165C57.4318 49.8825 58.8018 49.5518 60.1917 49.5518C61.5816 49.5518 62.9516 49.8825 64.1885 50.5165C64.5785 50.7047 64.9249 50.9723 65.2054 51.3022C65.4859 51.6321 65.6943 52.0171 65.8173 52.4323C65.8653 51.8632 65.7341 51.2934 65.442 50.8026C65.1499 50.3118 64.7116 49.9247 64.1885 49.6955C62.9497 49.0679 61.5805 48.7408 60.1917 48.7408C58.803 48.7408 57.4338 49.0679 56.195 49.6955C55.6649 49.9131 55.2211 50.2989 54.9318 50.7933C54.6424 51.2878 54.5236 51.8637 54.5935 52.4323C54.7087 52.0174 54.9111 51.6318 55.1873 51.3014C55.4634 50.971 55.807 50.7034 56.195 50.5165Z" fill="#4CD9ED"/>
</g>
</g>
<path d="M76.3703 42.7303C75.1325 42.0996 73.7629 41.7708 72.3736 41.7708C70.9843 41.7708 69.6147 42.0996 68.3769 42.7303C66.1732 44.0029 66.1869 46.0692 68.3769 47.3555C69.6181 47.9832 70.9895 48.3102 72.3804 48.3102C73.7714 48.3102 75.1429 47.9832 76.384 47.3555C78.5877 46.0692 78.574 44.0029 76.384 42.7166" fill="#5FEFC0"/>
<g style="mix-blend-mode:multiply">
<g style="mix-blend-mode:multiply">
<path d="M68.3769 43.524C69.6137 42.89 70.9837 42.5593 72.3736 42.5593C73.7635 42.5593 75.1335 42.89 76.3704 43.524C76.7623 43.7145 77.109 43.9864 77.3875 44.3215C77.666 44.6565 77.8699 45.0471 77.9855 45.4671C78.0499 44.8975 77.9271 44.3224 77.6357 43.8287C77.3443 43.335 76.9002 42.9495 76.3704 42.7303C75.1326 42.0996 73.7629 41.7708 72.3736 41.7708C70.9843 41.7708 69.6147 42.0996 68.3769 42.7303C67.8454 42.9461 67.4002 43.3315 67.1105 43.8264C66.8209 44.3214 66.7031 44.8982 66.7754 45.4671C66.8871 45.0472 67.0879 44.6563 67.3643 44.321C67.6406 43.9857 67.986 43.7139 68.3769 43.524Z" fill="#5FEFC0"/>
</g>
</g>
<path d="M88.5523 35.7379C87.313 35.1038 85.9408 34.7731 84.5487 34.7731C83.1566 34.7731 81.7843 35.1038 80.5451 35.7379C78.3551 37.0105 78.3551 39.0904 80.5451 40.363C81.7819 40.997 83.1519 41.3277 84.5419 41.3277C85.9318 41.3277 87.3017 40.997 88.5386 40.363C90.7423 39.0904 90.7286 37.0105 88.5386 35.7379" fill="#4CD9ED"/>
<g style="mix-blend-mode:multiply">
<g style="mix-blend-mode:multiply">
<path d="M80.545 36.5315C81.7862 35.9038 83.1577 35.5768 84.5486 35.5768C85.9396 35.5768 87.311 35.9038 88.5522 36.5315C88.9426 36.7206 89.2885 36.9903 89.5669 37.3229C89.8453 37.6555 90.0499 38.0434 90.1673 38.4609C90.2363 37.8907 90.1155 37.3136 89.8236 36.819C89.5316 36.3243 89.0848 35.9396 88.5522 35.7242C87.3129 35.0901 85.9407 34.7595 84.5486 34.7595C83.1565 34.7595 81.7843 35.0901 80.545 35.7242C80.0147 35.9403 79.5711 36.3263 79.2838 36.8216C78.9964 37.3168 78.8816 37.8934 78.9573 38.4609C79.0708 38.0455 79.271 37.6589 79.5446 37.3263C79.8183 36.9938 80.1592 36.7229 80.545 36.5315Z" fill="#4CD9ED"/>
</g>
</g>
<defs>
<linearGradient id="paint0_linear_230_1864" x1="-245013" y1="7671.28" x2="-247044" y2="7671.28" gradientUnits="userSpaceOnUse">
<stop stop-color="#363636"/>
<stop offset="0.52" stop-color="#3B3B3B"/>
<stop offset="1" stop-color="#494949"/>
</linearGradient>
<linearGradient id="paint1_linear_230_1864" x1="-247044" y1="11189.5" x2="-245013" y2="11189.5" gradientUnits="userSpaceOnUse">
<stop stop-color="#E4E7FB"/>
<stop offset="0.53" stop-color="#D2D7F6"/>
<stop offset="1" stop-color="#E4E7FB"/>
</linearGradient>
<linearGradient id="paint2_linear_230_1864" x1="-3433.16" y1="725.301" x2="-3436.66" y2="725.301" gradientUnits="userSpaceOnUse">
<stop stop-color="#E4E7FB"/>
<stop offset="0.53" stop-color="#D2D7F6"/>
<stop offset="1" stop-color="#E4E7FB"/>
</linearGradient>
<linearGradient id="paint3_linear_230_1864" x1="-3619.4" y1="708.79" x2="-3622.97" y2="708.79" gradientUnits="userSpaceOnUse">
<stop stop-color="#E4E7FB"/>
<stop offset="0.53" stop-color="#D2D7F6"/>
<stop offset="1" stop-color="#E4E7FB"/>
</linearGradient>
<linearGradient id="paint4_linear_230_1864" x1="-3826.22" y1="637.14" x2="-3829.87" y2="637.14" gradientUnits="userSpaceOnUse">
<stop stop-color="#E4E7FB"/>
<stop offset="0.53" stop-color="#D2D7F6"/>
<stop offset="1" stop-color="#E4E7FB"/>
</linearGradient>
<linearGradient id="paint5_linear_230_1864" x1="-3836.99" y1="701.349" x2="-3840.66" y2="701.349" gradientUnits="userSpaceOnUse">
<stop stop-color="#E4E7FB"/>
<stop offset="0.53" stop-color="#D2D7F6"/>
<stop offset="1" stop-color="#E4E7FB"/>
</linearGradient>
<linearGradient id="paint6_linear_230_1864" x1="-248383" y1="8315.54" x2="-250413" y2="8315.54" gradientUnits="userSpaceOnUse">
<stop stop-color="#363636"/>
<stop offset="0.52" stop-color="#3B3B3B"/>
<stop offset="1" stop-color="#494949"/>
</linearGradient>
<linearGradient id="paint7_linear_230_1864" x1="-250413" y1="12097.4" x2="-248383" y2="12097.4" gradientUnits="userSpaceOnUse">
<stop stop-color="#E4E7FB"/>
<stop offset="0.53" stop-color="#D2D7F6"/>
<stop offset="1" stop-color="#E4E7FB"/>
</linearGradient>
</defs>
</svg>
