<svg width="30" height="42" viewBox="0 0 30 42" fill="none" xmlns="http://www.w3.org/2000/svg">
<path d="M0.652344 11.3066L17.148 0.539795C17.148 0.539795 23.1654 6.68477 27.0871 16.6508C31.0088 26.6168 29.661 32.8227 29.661 32.8227L11.061 41.7181C11.061 41.7181 12.1132 31.874 8.83495 24.9718C5.55669 18.0695 0.652344 11.3066 0.652344 11.3066Z" fill="url(#paint0_linear_739_6)"/>
<path d="M17.6846 9.35808L7.83887 14.9888L8.30908 15.8126L18.1548 10.1819L17.6846 9.35808Z" fill="#B4C9FC"/>
<path d="M20.5018 14.4044L10.6572 20.0352L11.1274 20.8588L20.972 15.2281L20.5018 14.4044Z" fill="#B4C9FC"/>
<path d="M22.536 19.8732L12.6914 25.5039L13.1616 26.3276L23.0062 20.6969L22.536 19.8732Z" fill="#B4C9FC"/>
<path d="M24.1385 26.182L14.2939 31.8127L14.7642 32.6364L24.6088 27.0057L24.1385 26.182Z" fill="#B4C9FC"/>
<defs>
<linearGradient id="paint0_linear_739_6" x1="0.654692" y1="21.1365" x2="29.8836" y2="21.1365" gradientUnits="userSpaceOnUse">
<stop stop-color="#D4E0FF"/>
<stop offset="1" stop-color="#E9F1FF"/>
</linearGradient>
</defs>
</svg>
