<svg width="77" height="58" viewBox="0 0 77 58" fill="none" xmlns="http://www.w3.org/2000/svg">
<g style="mix-blend-mode:multiply" opacity="0.15">
<g style="mix-blend-mode:multiply" opacity="0.03">
<path d="M37.4141 37.7513C34.6247 39.3711 31.7935 40.9742 29.121 42.7609C27.3588 44.7898 30.3236 46.2092 31.8269 47.0775L47.2439 55.9778C48.9142 56.9463 50.2588 57.8564 52.1629 57.8564C53.6999 57.8496 55.2042 57.4129 56.5057 56.5957L63.0116 52.8135C66.9703 50.5174 71.1126 48.3549 74.9293 45.8585C74.6119 46.0589 75.1047 45.7416 75.1715 45.6832C75.2383 45.6247 75.3803 45.5329 75.4554 45.4494L75.4972 45.3993C75.6297 45.2487 75.7525 45.0897 75.8646 44.9234C76.0142 44.6555 76.0919 44.3535 76.0901 44.0467C75.9816 42.1347 73.1003 41.1077 71.6137 40.2979L71.4634 40.206L63.3624 35.5388L57.1238 31.9319C55.3031 30.8799 53.424 29.7778 51.2777 30.262H51.3779C50.9514 30.3231 50.5299 30.4151 50.1168 30.5376L49.9748 30.5876C49.12 30.9495 48.2984 31.3853 47.5195 31.8901L44.2373 33.7938L37.4141 37.7513Z" fill="#FDFDFE"/>
</g>
<g style="mix-blend-mode:multiply" opacity="0.06">
<path d="M36.5288 37.7506C33.7311 39.3704 30.9083 40.9735 28.2358 42.7602C26.4736 44.7891 29.4384 46.2001 30.9416 47.0601L46.3586 55.9604C48.0289 56.9373 49.3734 57.8557 51.2776 57.8557C52.812 57.8417 54.3125 57.4024 55.612 56.5866L62.1179 52.796C66.0765 50.5 70.2189 48.3375 74.0355 45.8494C73.7265 46.0415 74.2109 45.7242 74.2861 45.6741C74.3613 45.624 74.4865 45.5155 74.57 45.432V45.3902C74.6702 45.2733 74.9041 44.9477 74.9375 44.9143C75.0805 44.6589 75.158 44.3721 75.163 44.0794C75.0628 42.159 72.1731 41.1488 70.6949 40.3306L70.5362 40.2471C67.8359 38.6885 65.1383 37.1328 62.4436 35.5798L56.205 31.9729C54.3844 30.9209 52.4969 29.8188 50.3589 30.3031H50.4508C50.0272 30.3648 49.6085 30.4569 49.1981 30.5786L49.0561 30.6287C48.185 30.9899 47.3467 31.4257 46.5507 31.9312L43.2769 33.8348L36.5288 37.7506Z" fill="#FAFBFE"/>
</g>
<g style="mix-blend-mode:multiply" opacity="0.1">
<path d="M35.6353 37.7509C32.8375 39.3706 30.0147 40.9737 27.3422 42.7604C25.58 44.7893 28.5532 46.192 30.0564 47.0519L45.4651 55.9523C47.1354 56.9292 48.48 57.8559 50.3841 57.8559C51.9181 57.8402 53.4169 57.3948 54.7103 56.5702L61.2161 52.7879C65.1748 50.4835 69.3172 48.3294 73.1338 45.833C72.8248 46.025 73.3009 45.7161 73.3844 45.6576C73.4679 45.5992 73.5931 45.499 73.6683 45.4155H73.7101C73.8426 45.2649 73.9654 45.1059 74.0776 44.9396C74.2203 44.6841 74.2977 44.3973 74.303 44.1047C74.2028 42.1927 71.3132 41.1908 69.835 40.3725L69.6763 40.289C66.9871 38.7305 64.2923 37.1747 61.592 35.6218L55.3533 32.0149C53.5243 30.9629 51.6452 29.8608 49.5072 30.345H49.5991C49.1753 30.4059 48.7565 30.4979 48.3463 30.6206L48.1626 30.5705C47.2915 30.9317 46.4532 31.3674 45.6572 31.873L42.3834 33.7766L35.6353 37.7509Z" fill="#F8F9FD"/>
</g>
<g style="mix-blend-mode:multiply" opacity="0.13">
<path d="M34.75 37.7506C31.9606 39.3704 29.1295 40.9735 26.457 42.7602C24.7032 44.7891 27.6763 46.1751 29.1796 47.0434L44.5965 55.9437C46.2668 56.9123 47.5947 57.8557 49.5072 57.8557C51.0419 57.8371 52.5406 57.3888 53.8333 56.5616C55.9963 55.3008 58.1677 54.0568 60.3391 52.771C64.2894 50.4666 68.4401 48.3125 72.2484 45.8244C71.9478 46.0164 72.4154 45.7075 72.4989 45.6407C72.5825 45.5739 72.7161 45.4821 72.7829 45.3986C72.8497 45.3151 72.7829 45.3986 72.7829 45.3568C72.7829 45.3151 73.1253 44.9227 73.1503 44.8893C73.2975 44.6356 73.3753 44.3476 73.3758 44.0543C73.2756 42.134 70.386 41.1404 68.9078 40.3306L68.7574 40.2387C66.0599 38.6857 63.3707 37.1244 60.6648 35.5798L54.4346 31.9729C52.6056 30.9209 50.7265 29.8188 48.5885 30.3031H48.6804C48.2566 30.3639 47.8379 30.456 47.4276 30.5786L47.2773 30.6287C46.4241 30.9939 45.6028 31.4296 44.822 31.9312L41.5482 33.8348L34.75 37.7506Z" fill="#F6F7FC"/>
</g>
<g style="mix-blend-mode:multiply" opacity="0.16">
<path d="M33.8646 37.7511C31.0752 39.3709 28.244 40.974 25.5715 42.7607C23.8177 44.7896 26.7992 46.1672 28.2942 47.0355L43.7111 55.9359C45.3814 56.9044 46.7093 57.8562 48.6218 57.8562C50.1539 57.8304 51.6488 57.3795 52.9395 56.5537L59.4454 52.7548C63.3957 50.4588 67.5464 48.3046 71.3547 45.8082C71.054 46.0002 71.5217 45.6997 71.6136 45.6245C71.7055 45.5494 71.8223 45.4659 71.8975 45.3907V45.349C72.0061 45.2321 72.2399 44.9065 72.265 44.8731C72.4058 44.6163 72.4859 44.3307 72.4988 44.0382C72.3903 42.1095 69.5007 41.1326 68.0224 40.3144L67.8721 40.2309C65.1829 38.6779 62.4853 37.1166 59.7878 35.572L53.5576 31.9651C51.7286 30.9131 49.8495 29.811 47.7115 30.2952H47.8033C47.3795 30.3561 46.9608 30.4481 46.5506 30.5708L46.4003 30.6209C45.5455 30.9827 44.7239 31.4185 43.9449 31.9233L40.6461 33.8019L33.8646 37.7511Z" fill="#F3F5FC"/>
</g>
<g style="mix-blend-mode:multiply" opacity="0.19">
<path d="M32.9795 37.7506C30.1901 39.3704 27.359 40.9735 24.6865 42.7602C22.9326 44.7891 25.9141 46.1584 27.4174 47.0184L42.8344 55.9187C44.5047 56.8955 45.8242 57.8557 47.7367 57.8557C49.2684 57.8278 50.7615 57.3708 52.0461 56.5365L58.552 52.7376C62.5023 50.4415 66.653 48.2874 70.4697 45.7993C70.169 45.983 70.62 45.6824 70.7202 45.6157C70.8299 45.5545 70.9264 45.4722 71.0041 45.3735V45.3318C71.1127 45.2149 71.3382 44.8976 71.3633 44.8642C71.503 44.6075 71.5802 44.3214 71.5887 44.0293C71.4802 42.1006 68.5906 41.1404 67.1207 40.3222L66.962 40.2387C64.2728 38.6746 61.5808 37.1216 58.8861 35.5798L52.6558 31.9729C50.8268 30.9209 48.9477 29.8188 46.7596 30.3031H46.8598C46.436 30.3639 46.0173 30.456 45.6071 30.5786L45.4568 30.6287C44.6019 30.9906 43.7804 31.4264 43.0014 31.9312L39.8111 33.8014L32.9795 37.7506Z" fill="#F1F3FB"/>
</g>
<g style="mix-blend-mode:multiply" opacity="0.23">
<path d="M32.094 37.7511C29.3045 39.3709 26.4734 40.974 23.8009 42.7607C22.0387 44.7896 25.0285 46.1505 26.5318 47.0105L41.9488 55.9108C43.6191 56.8877 44.9386 57.8562 46.8428 57.8562C48.3745 57.8214 49.8665 57.3618 51.1522 56.5287C53.3236 55.2596 55.4866 53.9822 57.6581 52.7298C61.6083 50.4254 65.7591 48.2796 69.5757 45.7832C69.2834 45.9668 69.7261 45.6746 69.8263 45.5995C69.938 45.5412 70.0351 45.4584 70.1102 45.3573C70.1102 45.3573 70.1102 45.3573 70.152 45.3156C70.2805 45.1667 70.4004 45.0106 70.5111 44.848C70.6499 44.5909 70.7271 44.3051 70.7366 44.0131C70.628 42.0844 67.7467 41.1326 66.2685 40.3144L66.1098 40.2225L58.0422 35.572L51.812 31.9651C49.983 30.9131 48.1039 29.811 45.9158 30.2952H46.016C45.5922 30.3561 45.1735 30.4481 44.7632 30.5708L44.6129 30.6209C43.7581 30.9827 42.9365 31.4185 42.1576 31.9233L38.8754 33.827L32.094 37.7511Z" fill="#EFF1FA"/>
</g>
<g style="mix-blend-mode:multiply" opacity="0.26">
<path d="M31.2087 37.7511C28.4193 39.3709 25.5882 40.974 22.9157 42.7607C21.1535 44.7896 24.1517 46.1004 25.6466 47.0021L41.0636 55.9025C42.7339 56.871 44.0534 57.8562 45.9576 57.8562C47.4914 57.8195 48.9844 57.3539 50.267 56.512C52.4384 55.2512 54.5931 54.0072 56.7645 52.713C60.7147 50.4086 64.8655 48.2629 68.6821 45.7748C68.3898 45.9585 68.8325 45.6663 68.941 45.5828C69.0505 45.5248 69.147 45.4453 69.225 45.349V45.3072C69.3561 45.1555 69.4788 44.9966 69.5924 44.8313C69.7321 44.5746 69.8094 44.2885 69.8179 43.9964C69.7177 42.0677 66.8281 41.1243 65.3499 40.306L65.1996 40.2225L57.1319 35.572L50.8933 31.9651C49.0727 30.9131 47.1936 29.811 45.0473 30.2952H45.1475C44.721 30.3563 44.2995 30.4483 43.8864 30.5708L43.7444 30.6209C42.8896 30.9827 42.068 31.4185 41.2891 31.9233L38.0069 33.827L31.2087 37.7511Z" fill="#ECEFFA"/>
</g>
<g style="mix-blend-mode:multiply" opacity="0.29">
<path d="M30.3236 37.7511C27.5342 39.3709 24.7031 40.974 22.0306 42.7607C20.2684 44.7896 23.2666 46.1004 24.7699 46.9938L40.1868 55.8941C41.8571 56.8626 43.1683 57.8562 45.0724 57.8562C46.6038 57.8124 48.0929 57.3441 49.3735 56.5036C51.5449 55.2345 53.6996 53.9571 55.871 52.6964C59.8213 50.4003 63.972 48.2545 67.7886 45.7581C67.5047 45.9418 67.9306 45.6496 68.0475 45.5661C68.1584 45.5102 68.2554 45.4303 68.3315 45.3323L68.3732 45.2905C68.4818 45.1737 68.7073 44.8564 68.7324 44.823C68.8767 44.5681 68.9543 44.2809 68.9579 43.9881C68.8577 42.051 65.968 41.1243 64.4898 40.306L64.3394 40.2225L56.2802 35.572L50.0416 31.9651C48.221 30.9131 46.3419 29.811 44.1955 30.2952H44.2958C43.8692 30.3563 43.4477 30.4483 43.0347 30.5708L42.8927 30.6209C42.0379 30.9827 41.2163 31.4185 40.4373 31.9233L37.1552 33.827L30.3236 37.7511Z" fill="#EAEDF9"/>
</g>
<g style="mix-blend-mode:multiply" opacity="0.32">
<path d="M29.4385 37.7509C26.6407 39.3707 23.8179 40.9737 21.1454 42.7605C19.3832 44.7894 22.3897 46.1002 23.8847 46.9769L39.3016 55.8855C40.9719 56.8541 42.2748 57.856 44.1873 57.856C45.7181 57.8101 47.2054 57.3357 48.48 56.4867C50.6514 55.226 52.806 53.9819 54.9774 52.6794C58.9277 50.3834 63.0868 48.2376 66.8951 45.7495C66.6195 45.9248 67.0371 45.641 67.154 45.5575C67.2649 45.4981 67.3618 45.4155 67.438 45.3154C67.5665 45.1665 67.6864 45.0104 67.7971 44.8478C67.9388 44.5914 68.0188 44.3056 68.0309 44.0129C67.9223 42.0758 65.0327 41.1658 63.5629 40.3475L63.4042 40.2557C60.7261 38.7027 58.0425 37.1553 55.3533 35.6135L49.1147 32.0066C47.2857 30.9546 45.4066 29.8525 43.2269 30.3367H43.3187C42.8949 30.3976 42.4762 30.4896 42.066 30.6123L41.924 30.6624C41.0529 31.0236 40.2146 31.4594 39.4186 31.9649L36.1447 33.8685L29.4385 37.7509Z" fill="#E8EBF9"/>
</g>
<g style="mix-blend-mode:multiply" opacity="0.35">
<path d="M28.5533 37.7514C25.7555 39.3711 22.9243 40.9742 20.2518 42.7609C18.498 44.7898 21.5046 46.1007 23.0078 46.9356L38.4248 55.8359C40.0951 56.8128 41.3896 57.8231 43.3021 57.8231C44.8304 57.7701 46.3138 57.293 47.5865 56.4454C49.7579 55.1763 51.9126 53.8905 54.084 52.6381C58.0343 50.3337 62.1933 48.1963 66.0016 45.7082C65.726 45.8752 66.1436 45.5997 66.2689 45.5079C66.3762 45.4467 66.4722 45.3676 66.5529 45.2741V45.2323C66.6821 45.084 66.802 44.9278 66.912 44.7648C67.0491 44.507 67.1262 44.2216 67.1374 43.9298C67.0289 41.9928 64.1392 41.0827 62.6694 40.2645L62.5107 40.181C59.8271 38.628 57.1434 37.0806 54.4598 35.5388L48.2295 31.9319C46.4006 30.8799 44.5215 29.7778 42.3835 30.262H42.4753C42.0515 30.3229 41.6328 30.4149 41.2226 30.5376L41.0806 30.5876C40.2238 30.951 39.3996 31.3867 38.6169 31.8901L35.3431 33.7938L28.5533 37.7514Z" fill="#E5E9F8"/>
</g>
<g style="mix-blend-mode:multiply" opacity="0.39">
<path d="M27.6597 37.7508C24.8702 39.3706 22.0391 40.9736 19.3666 42.7604C17.6128 44.7892 20.6193 46.1001 22.1226 46.935L37.5395 55.8353C39.2098 56.8039 40.5043 57.8308 42.4168 57.8308C43.9473 57.7759 45.4317 57.2928 46.7012 56.4365C48.8726 55.1758 51.0189 53.89 53.1903 52.6292C57.1489 50.3248 61.2996 48.1874 65.1163 45.6993C64.8407 45.8663 65.2499 45.5991 65.3752 45.4989C65.4821 45.4372 65.5781 45.3582 65.6592 45.2652V45.2234C65.7856 45.0749 65.9027 44.9187 66.0099 44.7558C66.146 44.4977 66.223 44.2125 66.2354 43.9209C66.1269 41.9839 63.2372 41.0905 61.7673 40.2723L61.617 40.1888C58.9389 38.6358 56.2553 37.0884 53.5661 35.5466L47.3359 31.9397C45.5069 30.8877 43.6278 29.7856 41.4481 30.2699H41.5399C41.1161 30.3307 40.6974 30.4228 40.2872 30.5454L40.1369 30.5955C39.2829 30.9591 38.4614 31.3948 37.6815 31.8979L34.4077 33.8016L27.6597 37.7508Z" fill="#E3E7F7"/>
</g>
<g style="mix-blend-mode:multiply" opacity="0.42">
<path d="M26.7742 37.7509C23.9848 39.3707 21.1537 40.9738 18.4812 42.7605C16.7273 44.7894 19.7422 46.1002 21.2372 46.9352L36.6541 55.8355C38.3244 56.804 39.6189 57.8393 41.5314 57.8393C43.0593 57.7773 44.5398 57.2917 45.8074 56.4367C47.9788 55.1676 50.1252 53.8818 52.2966 52.621C56.2552 50.325 60.4059 48.1875 64.2226 45.6995C63.9553 45.8664 64.3479 45.5909 64.4815 45.4907C64.5915 45.4335 64.6882 45.3539 64.7655 45.2569V45.2152C64.8824 45.0983 65.0995 44.781 65.1246 44.756C65.2651 44.4996 65.3425 44.2133 65.3501 43.9211C65.2415 41.9757 62.3518 41.099 60.882 40.2808L60.7316 40.1889L52.6891 35.5551L46.4923 31.9231C44.6633 30.8711 42.7842 29.769 40.6462 30.2533H40.738C40.3142 30.3141 39.8955 30.4062 39.4853 30.5288L39.335 30.5789C38.4801 30.9408 37.6586 31.3766 36.8796 31.8814L33.5974 33.785L26.7742 37.7509Z" fill="#E1E5F7"/>
</g>
<g style="mix-blend-mode:multiply" opacity="0.45">
<path d="M25.889 37.7509C23.0996 39.3707 20.2684 40.9737 17.596 42.7605C15.8338 44.7894 18.857 46.1002 20.3603 46.9351L35.7772 55.8438C37.4475 56.8123 38.7337 57.856 40.6378 57.856C42.1679 57.7921 43.6494 57.3003 44.9138 56.4366C47.0852 55.1759 49.2399 53.8817 51.403 52.621C55.3616 50.3249 59.5123 48.1875 63.3289 45.6994C63.0617 45.8664 63.4542 45.5992 63.5962 45.499C63.7009 45.4342 63.7965 45.3556 63.8802 45.2653C64.0094 45.1169 64.1293 44.9608 64.2393 44.7977C64.3789 44.5409 64.4562 44.2549 64.4648 43.9628C64.3646 42.0174 61.4666 41.1491 60.005 40.3308L59.8464 40.2473C57.1739 38.7027 54.493 37.1498 51.8122 35.6135L45.5736 32.0066C43.753 30.9546 41.8738 29.8525 39.6857 30.3367H39.7859C39.3621 30.3976 38.9434 30.4896 38.5332 30.6123L38.3829 30.6624C37.5281 31.0242 36.7065 31.4601 35.9275 31.9649L32.6454 33.8685L25.889 37.7509Z" fill="#DEE3F6"/>
</g>
<g style="mix-blend-mode:multiply" opacity="0.48">
<path d="M25.0036 37.751C22.2142 39.3708 19.383 40.9738 16.7105 42.7606C14.9484 44.7894 17.98 46.1003 19.4749 46.9352L34.8918 55.8355C36.5621 56.8124 37.8483 57.8644 39.7524 57.8644C41.267 57.7936 42.7325 57.3052 43.9867 56.4534C46.1581 55.1926 48.3128 53.8901 50.4759 52.6377C54.4345 50.3333 58.5935 48.2043 62.4019 45.7162C62.143 45.8748 62.5271 45.616 62.6691 45.5075C62.7754 45.4449 62.8713 45.366 62.9531 45.2737V45.2319C63.0617 45.1067 63.2871 44.7978 63.3038 44.7727C63.4467 44.5168 63.5268 44.2307 63.5377 43.9378C63.4291 41.9841 60.5311 41.1325 59.0696 40.3142L58.9193 40.2307C56.2356 38.6778 53.5576 37.1331 50.8851 35.5969L44.6464 31.99C42.8258 30.938 40.9467 29.8359 38.8004 30.3201H38.9006C38.4741 30.3812 38.0526 30.4732 37.6395 30.5957L37.4975 30.6458C36.6427 31.0076 35.8211 31.4434 35.0422 31.9482L31.76 33.8519L25.0036 37.751Z" fill="#DCE1F5"/>
</g>
<g style="mix-blend-mode:multiply" opacity="0.52">
<path d="M24.1184 37.7511C21.329 39.3708 18.4978 40.9739 15.8253 42.7606C14.0631 44.7895 17.0947 46.1003 18.5896 46.9353L34.015 55.8356C35.6853 56.8124 36.9631 57.8728 38.8672 57.8728C40.3968 57.7995 41.8753 57.2991 43.1349 56.4284C45.3063 55.1676 47.4526 53.8735 49.6241 52.6127C53.5743 50.3083 57.7334 48.1793 61.5418 45.6912C61.2829 45.8498 61.6586 45.5994 61.8173 45.4825C61.9212 45.4199 62.0142 45.3409 62.0929 45.2487L62.1347 45.2069C62.2613 45.0615 62.3785 44.9081 62.4855 44.7477C62.6216 44.4896 62.6986 44.2044 62.7109 43.9128C62.6024 41.9674 59.7044 41.1242 58.2429 40.3059L58.0926 40.2141L50.0667 35.5886L43.8281 31.9817C42.0074 30.9297 40.1283 29.8276 37.9402 30.3118H38.0404C37.6139 30.3729 37.1924 30.4649 36.7793 30.5874L36.6374 30.6375C35.7825 30.9993 34.961 31.4352 34.182 31.94L30.8998 33.8436L24.1184 37.7511Z" fill="#DADEF5"/>
</g>
<g style="mix-blend-mode:multiply" opacity="0.55">
<path d="M23.2333 37.7512C20.4356 39.371 17.6127 40.974 14.9402 42.7608C13.178 44.7896 16.2096 46.042 17.7129 46.9354L33.1299 55.8023C34.8002 56.7708 36.0697 57.8479 37.9822 57.8479C39.5092 57.7675 40.9838 57.2646 42.2415 56.3951C44.4129 55.1344 46.5592 53.8319 48.7306 52.5712C52.6809 50.2751 56.84 48.146 60.6567 45.658C60.3978 45.8166 60.7653 45.5578 60.924 45.4409C61.028 45.3783 61.1234 45.3026 61.2079 45.2154V45.1737C61.3352 45.0288 61.4524 44.8754 61.5586 44.7145C61.6958 44.4567 61.7729 44.1713 61.7841 43.8796C61.6756 41.9258 58.7776 41.0992 57.3161 40.2727L57.1658 40.1892L49.1482 35.5637L42.9096 31.9568C41.0806 30.9048 39.2015 29.8027 37.0635 30.2869H37.1554C36.7316 30.3478 36.3129 30.4398 35.9026 30.5625L35.7607 30.6126C34.9039 30.9759 34.0797 31.4116 33.297 31.915L30.0232 33.8187L23.2333 37.7512Z" fill="#D8DCF4"/>
</g>
<g style="mix-blend-mode:multiply" opacity="0.58">
<path d="M22.3479 37.7507C19.5501 39.3705 16.7189 40.9735 14.0548 42.7603C12.2926 44.7892 15.3326 46.0332 16.8275 46.9349L32.2445 55.8353C33.9148 56.8038 35.1843 57.8892 37.0968 57.8892C38.6234 57.8068 40.0963 57.2976 41.3478 56.4197C43.5192 55.159 45.6655 53.8565 47.8369 52.5958C51.7872 50.2997 55.9463 48.1706 59.763 45.6825C59.5124 45.8412 59.8716 45.5907 60.0302 45.4655C60.1357 45.4051 60.2315 45.3291 60.3142 45.24H60.3559C60.4645 45.1148 60.69 44.8059 60.7067 44.7808C60.8428 44.5226 60.9198 44.2374 60.9322 43.9459C60.8236 41.9921 57.9256 41.1739 56.4725 40.3557L56.3138 40.2722C53.6524 38.7248 50.9799 37.183 48.2962 35.6467L42.066 32.0398C40.237 30.9878 38.3579 29.8857 36.1781 30.37H36.27C35.8462 30.4308 35.4275 30.5229 35.0173 30.6455L34.8753 30.6956C34.0042 31.0568 33.1659 31.4925 32.3698 31.998L29.096 33.9017L22.3479 37.7507Z" fill="#D5DAF3"/>
</g>
<g style="mix-blend-mode:multiply" opacity="0.61">
<path d="M21.4377 37.7511C18.6483 39.3709 15.8171 40.974 13.1446 42.7607C11.3908 44.7896 14.4307 46.0253 15.934 46.8853L31.351 55.7856C33.0213 56.7625 34.2824 57.8562 36.1949 57.8562C37.7191 57.768 39.1884 57.2562 40.4375 56.3784C42.6089 55.1176 44.7552 53.8068 46.9266 52.5544C50.8769 50.25 55.0359 48.1293 58.8526 45.6412C58.6021 45.7915 58.9612 45.5494 59.1282 45.4241C59.2297 45.3583 59.3224 45.2798 59.4038 45.1904V45.1486C59.5208 45.0234 59.7379 44.7145 59.7546 44.6978C59.8917 44.44 59.9688 44.1546 59.9801 43.8628C59.8799 41.9007 56.9735 41.0992 55.5203 40.281L55.37 40.1891C52.6975 38.6417 50.0251 37.1027 47.3526 35.572L41.1223 31.9651C39.2933 30.9131 37.4142 29.811 35.2762 30.2952H35.3681C34.9443 30.3561 34.5255 30.4481 34.1153 30.5708H33.965C33.111 30.9344 32.2896 31.3701 31.5097 31.8732L28.2359 33.7769L21.4377 37.7511Z" fill="#D3D8F3"/>
</g>
<g style="mix-blend-mode:multiply" opacity="0.65">
<path d="M20.6026 37.7511C17.8132 39.3709 14.982 40.974 12.3095 42.7607C10.5557 44.7896 13.604 46.0169 15.0989 46.8769L30.5158 55.7772C32.1861 56.7541 33.4472 57.8562 35.3597 57.8562C36.8858 57.7644 38.3557 57.2466 39.6023 56.3617C41.7737 55.101 43.9117 53.7985 46.0831 52.5377C50.0333 50.2417 54.1924 48.1126 58.009 45.6245C57.7668 45.7748 58.1092 45.5327 58.2846 45.4074C58.3844 45.339 58.4794 45.2637 58.5686 45.182V45.1403C58.6855 45.0067 58.9026 44.7061 58.9193 44.681C59.0618 44.4254 59.1392 44.1387 59.1449 43.8461C59.0446 41.8924 56.1383 41.0992 54.6851 40.2726L54.5348 40.1891C51.8734 38.6417 49.2037 37.1027 46.5257 35.572L40.2955 31.9651C38.4665 30.9131 36.5874 29.811 34.4077 30.2952H34.4995C34.0757 30.3561 33.657 30.4481 33.2468 30.5708H33.1298C32.275 30.9326 31.4535 31.3684 30.6745 31.8732L27.3924 33.7769L20.6026 37.7511Z" fill="#D1D6F2"/>
</g>
<g style="mix-blend-mode:multiply" opacity="0.68">
<path d="M19.6837 37.7511C16.8943 39.3709 14.0631 40.974 11.3906 42.7607C9.63674 44.7896 12.6851 46.0002 14.18 46.8685L29.6054 55.7689C31.2757 56.7374 32.5284 57.8562 34.4326 57.8562C35.9589 57.7589 37.428 57.2385 38.6752 56.3533C40.8466 55.0926 42.9846 53.7818 45.156 52.521C49.1063 50.225 53.2737 48.1042 57.082 45.6162C56.8482 45.7581 57.1823 45.5243 57.3576 45.3907C57.4625 45.3295 57.5581 45.2536 57.6416 45.1653V45.1236C57.7643 44.9799 57.8786 44.8294 57.984 44.6727C58.1212 44.4149 58.1983 44.1295 58.2095 43.8378C58.1009 41.8757 55.1946 41.0908 53.7414 40.2726L53.5911 40.1891C50.9297 38.6417 48.2628 37.1027 45.5903 35.572L39.3517 31.9651C37.531 30.9131 35.6519 29.811 33.5056 30.2952H33.6058C33.1818 30.3551 32.763 30.4472 32.353 30.5708L32.2027 30.6209C31.3479 30.9827 30.5263 31.4185 29.7474 31.9233L26.4485 33.8019L19.6837 37.7511Z" fill="#CED4F1"/>
</g>
<g style="mix-blend-mode:multiply" opacity="0.71">
<path d="M18.7987 37.7511C16.0093 39.3709 13.1781 40.974 10.5056 42.7607C8.74343 44.7896 11.8001 45.9919 13.3034 46.8602L28.7203 55.7606C30.3906 56.7291 31.6434 57.8562 33.5475 57.8562C35.1594 57.8562 36.3787 57.1549 37.7818 56.3366C39.9532 55.0759 42.0912 53.7651 44.2626 52.5043C48.2128 50.2083 52.3802 48.0876 56.1885 45.5995C55.9547 45.7498 56.2888 45.516 56.4725 45.374C56.5751 45.313 56.6679 45.237 56.7481 45.1486L56.7899 45.1069C56.9146 44.9649 57.029 44.8142 57.1323 44.656C57.2673 44.3974 57.3443 44.1125 57.3578 43.8211C57.2492 41.859 54.3428 41.0908 52.898 40.2726L52.7393 40.1808C50.0835 38.6445 47.411 37.0999 44.7469 35.572L38.5083 31.9651C36.6877 30.9131 34.8086 29.811 32.6205 30.2952H32.7207C32.2968 30.3551 31.878 30.4472 31.468 30.5708L31.3177 30.6209C30.4629 30.9827 29.6413 31.4185 28.8623 31.9233L25.6136 33.8019L18.7987 37.7511Z" fill="#CCD2F1"/>
</g>
<g style="mix-blend-mode:multiply" opacity="0.74">
<path d="M17.9131 37.7506C15.1237 39.3704 12.2924 40.9735 9.61995 42.7602C7.85777 44.7891 10.9228 45.983 12.4177 46.843L27.8347 55.7433C29.505 56.7202 30.7577 57.8557 32.6619 57.8557C34.2737 57.8557 35.4931 57.1377 36.8961 56.3278C39.0675 55.0671 41.1972 53.7479 43.3686 52.4955C47.3272 50.1827 51.5029 48.1037 55.3029 45.599C55.0691 45.7409 55.3864 45.5155 55.5785 45.3735C55.6795 45.3068 55.7745 45.2314 55.8624 45.1481V45.1064C55.9794 44.9728 56.1965 44.6722 56.2132 44.6555C56.3504 44.3977 56.4274 44.1123 56.4387 43.8206C56.3301 41.8501 53.4238 41.0987 51.979 40.2721L51.8287 40.1886L43.8362 35.5798L37.5976 31.9729C35.777 30.9209 33.8979 29.8188 31.7515 30.3031H31.8517C31.4367 30.3629 31.0265 30.4522 30.6241 30.5702L30.4821 30.6203C29.6273 30.9822 28.8057 31.418 28.0268 31.9228L24.7446 33.8265L17.9131 37.7506Z" fill="#CAD0F0"/>
</g>
<g style="mix-blend-mode:multiply" opacity="0.77">
<path d="M17.0279 37.7511C14.2302 39.3709 11.4074 40.974 8.73486 42.7607C6.97268 44.7896 10.0377 45.9752 11.541 46.8352L26.9579 55.7355C28.6283 56.7124 29.8643 57.8562 31.7768 57.8562C33.3886 57.8562 34.5996 57.1298 36.0027 56.3199C38.1741 55.0508 40.3037 53.74 42.4751 52.4793C46.4338 50.1832 50.5928 48.0625 54.4095 45.5744C54.1756 45.7164 54.493 45.4909 54.6851 45.349C54.7893 45.2868 54.8848 45.2109 54.9691 45.1236L55.0108 45.0818C55.1277 44.9482 55.3449 44.6476 55.3532 44.6309C55.4883 44.3724 55.5652 44.0874 55.5787 43.796C55.4701 41.8339 52.5638 41.0908 51.119 40.2643L50.9686 40.1724C48.3045 38.6362 45.6487 37.0999 42.9762 35.572L36.746 31.9651C34.917 30.9131 33.0463 29.811 30.8581 30.2952H30.95C30.5262 30.3561 30.1075 30.4481 29.6973 30.5708L29.5553 30.6209C28.6841 30.982 27.8459 31.4178 27.0498 31.9233L23.776 33.827L17.0279 37.7511Z" fill="#C7CEF0"/>
</g>
<g style="mix-blend-mode:multiply" opacity="0.81">
<path d="M16.1428 37.751C13.345 39.3707 10.5138 40.9738 7.84969 42.7605C6.08751 44.7894 9.16092 45.9667 10.6559 46.8266L26.0728 55.727C27.7431 56.6955 28.9792 57.856 30.8917 57.856C32.5035 57.856 33.7061 57.113 35.0674 56.3031C37.2388 55.0423 39.3768 53.7232 41.5399 52.4624C45.4985 50.1664 49.6576 48.054 53.4743 45.5659C53.2488 45.6995 53.5578 45.4824 53.7582 45.3321C53.8567 45.2654 53.9489 45.1899 54.0338 45.1067C54.1508 44.9731 54.3679 44.6725 54.3762 44.6558C54.5134 44.3981 54.5905 44.1126 54.6017 43.8209C54.5015 41.8505 51.5868 41.1157 50.142 40.2975L49.9917 40.2057L42.0076 35.5968L35.7773 31.9983C33.9483 30.9463 32.0692 29.8442 29.9312 30.3284H30.0231C29.5993 30.3893 29.1806 30.4814 28.7704 30.604L28.6284 30.6541C27.7716 31.0174 26.9474 31.4532 26.1646 31.9566L22.8909 33.8602L16.1428 37.751Z" fill="#C5CCEF"/>
</g>
<g style="mix-blend-mode:multiply" opacity="0.84">
<path d="M15.2494 37.7511C12.46 39.3709 9.62877 40.974 6.95627 42.7607C5.20244 44.7896 8.27586 45.9501 9.77079 46.8185L25.1961 55.7188C26.8664 56.6873 28.0941 57.8562 30.0066 57.8562C31.6185 57.8562 32.8127 57.1048 34.1824 56.2949C36.3538 55.0258 38.4918 53.7066 40.6549 52.4459C44.6135 50.1498 48.7809 48.0375 52.5892 45.5494C52.3721 45.6913 52.6728 45.4742 52.8732 45.3156C52.9729 45.2501 53.0678 45.1775 53.1571 45.0985V45.0568C53.274 44.9232 53.4912 44.6226 53.4996 44.6059C53.6311 44.3459 53.7078 44.0618 53.725 43.771C53.6164 41.8005 50.7018 41.0825 49.2653 40.2559L49.115 40.1724L41.1309 35.5636L34.9006 31.9651C33.0716 30.9131 31.1925 29.811 29.0128 30.2952H29.1046C28.6808 30.3561 28.2621 30.4481 27.8519 30.5708L27.7016 30.6209C26.8476 30.9844 26.0261 31.4202 25.2462 31.9233L21.9724 33.827L15.2494 37.7511Z" fill="#C3CAEE"/>
</g>
<g style="mix-blend-mode:multiply" opacity="0.87">
<path d="M14.3638 37.7511C11.5744 39.3709 8.74319 40.974 6.0707 42.7607C4.31688 44.7896 7.39024 45.9418 8.89352 46.8018L24.3105 55.7104C25.9808 56.6789 27.2085 57.8562 29.121 57.8562C30.7328 57.8562 31.9271 57.0964 33.2967 56.2782C35.4681 55.0175 37.5978 53.6899 39.7692 52.4375C43.7195 50.1331 47.8868 48.0291 51.6951 45.541C51.478 45.6746 51.7703 45.4659 51.9875 45.3072L52.263 45.0818V45.0401C52.3883 44.9065 52.5971 44.6059 52.6055 44.5975C52.7426 44.3398 52.8197 44.0544 52.831 43.7626C52.7224 41.7838 49.8077 41.0825 48.3712 40.2559L48.2209 40.1641L40.2452 35.5636L34.015 31.9651C32.186 30.9131 30.3069 29.811 28.1689 30.2952H28.2607C27.8369 30.3561 27.4182 30.4481 27.008 30.5708L26.8577 30.6209C26.0029 30.9827 25.1813 31.4185 24.4023 31.9233L21.1202 33.827L14.3638 37.7511Z" fill="#C0C8EE"/>
</g>
<g style="mix-blend-mode:multiply" opacity="0.9">
<path d="M13.4786 37.751C10.6892 39.3707 7.85804 40.9738 5.18554 42.7605C3.43171 44.7894 6.51344 45.9333 8.00837 46.7932L23.4254 55.6936C25.0957 56.6704 26.3234 57.856 28.2359 57.856C29.8477 57.856 31.0336 57.0796 32.4117 56.2697C34.5831 55.0006 36.7127 53.6814 38.8841 52.4207C42.8344 50.1246 47.0018 48.0122 50.8101 45.5242C50.6013 45.6577 50.8853 45.449 51.1025 45.2904L51.3864 45.0649C51.5033 44.923 51.7205 44.6308 51.7288 44.6141C51.866 44.3563 51.943 44.0709 51.9543 43.7792C51.8457 41.8087 48.931 41.1074 47.4946 40.2892L47.3442 40.1973L39.3768 35.5968L33.1382 31.9983C31.3176 30.9463 29.4385 29.8442 27.2504 30.3284H27.3506C26.9266 30.3883 26.5078 30.4805 26.0979 30.604L25.9476 30.6541C25.0927 31.016 24.2712 31.4518 23.4922 31.9566L20.21 33.8602L13.4786 37.751Z" fill="#BEC6ED"/>
</g>
<g style="mix-blend-mode:multiply" opacity="0.94">
<path d="M12.5935 37.7509C9.80405 39.3707 6.97289 40.9737 4.3004 42.7605C2.53823 44.7894 5.6283 45.9249 7.12322 46.7849L22.5485 55.6852C24.2188 56.6537 25.4381 57.856 27.3423 57.856C28.9541 57.856 30.14 57.0712 31.518 56.2529C33.6894 54.9922 35.8191 53.6647 37.9905 52.4039C41.9408 50.1079 46.1082 48.0038 49.9248 45.5157C49.716 45.641 49.9916 45.4406 50.2088 45.2736C50.4259 45.1066 50.4593 45.0816 50.4927 45.0565C50.618 44.923 50.8268 44.6224 50.8351 44.614C50.9723 44.3563 51.0493 44.0709 51.0606 43.7791C50.952 41.8003 48.0374 41.1157 46.6009 40.2891L46.4506 40.2056L38.4916 35.6051L32.2947 31.9231C30.4741 30.8711 28.595 29.769 26.4487 30.2533H26.5489C26.1249 30.3131 25.7061 30.4053 25.2962 30.5288L25.1458 30.5789C24.291 30.9408 23.4694 31.3766 22.6905 31.8814L19.4083 33.785L12.5935 37.7509Z" fill="#BCC4EC"/>
</g>
<g style="mix-blend-mode:multiply" opacity="0.97">
<path d="M11.7082 37.7509C8.91883 39.3707 6.08766 40.9737 3.41517 42.7605C1.65299 44.7894 4.75143 45.9082 6.24635 46.7765L21.6633 55.6768C23.3336 56.6454 24.5529 57.856 26.4571 57.856C28.069 57.856 29.2549 57.0211 30.6329 56.2446C32.8043 54.9755 34.9339 53.648 37.1053 52.3872C41.0556 50.0912 45.223 47.9871 49.0397 45.4991C48.8309 45.6243 49.0982 45.4323 49.332 45.2569L49.6076 45.0398V44.9981C49.7328 44.8645 49.9417 44.5639 49.95 44.5556C50.0871 44.2978 50.1642 44.0124 50.1755 43.7207C50.0669 41.7419 47.1522 41.0739 45.7241 40.2473L45.5738 40.1555L37.6148 35.5634L31.4597 31.9231C29.639 30.8711 27.7599 29.769 25.5718 30.2533H25.6721C25.2455 30.3143 24.8241 30.4064 24.411 30.5288L24.269 30.5789C23.4142 30.9408 22.5926 31.3766 21.8136 31.8814L18.5315 33.785L11.7082 37.7509Z" fill="#B9C2EC"/>
</g>
<g style="mix-blend-mode:multiply" opacity="0.5">
<path d="M49.3318 43.6706C49.2316 41.6835 46.3085 41.0239 44.8804 40.2056L36.771 35.5217L30.5408 31.9231C28.7202 30.8711 26.8411 29.769 24.6947 30.2533H24.7866C24.3628 30.3141 23.944 30.4062 23.5338 30.5288L23.3919 30.5789C22.5371 30.9408 21.7155 31.3766 20.9365 31.8814L17.6543 33.785L10.8645 37.7342C8.06678 39.354 5.24391 40.957 2.57142 42.7438C0.809241 44.7727 3.90768 45.8832 5.4026 46.7515L20.8279 55.6518C22.4982 56.6204 23.7009 57.8393 25.6134 57.8393C27.2252 57.8393 28.4028 57.0044 29.7891 56.2112C31.9605 54.9505 34.0818 53.623 36.2532 52.3622C40.2035 50.0578 44.371 47.9621 48.1876 45.474C47.8703 45.6661 48.6887 45.0816 48.7638 45.0065C48.839 44.9313 49.1229 44.5389 49.1313 44.5306C49.2652 44.2638 49.3339 43.9691 49.3318 43.6706Z" fill="#B7C0EB"/>
</g>
</g>
<path d="M0.291756 43.9298C-0.635264 43.337 0.943199 30.2203 0.943199 30.2203L23.3921 17.1787C24.0573 16.8413 24.7926 16.6655 25.5384 16.6655C26.2843 16.6655 27.0196 16.8413 27.6848 17.1787L50.284 30.2203C50.284 30.2203 51.8708 43.3621 50.6933 44.0384L27.8518 57.3973C27.1852 57.7347 26.4485 57.9105 25.7013 57.9105C24.9541 57.9105 24.2174 57.7347 23.5508 57.3973L0.291756 43.9298Z" fill="#B7C0EB"/>
<path d="M51.1693 14.8993C51.1693 14.8993 51.1693 14.9661 51.1693 14.9995C51.1732 15.0244 51.1732 15.0497 51.1693 15.0746V15.1665C51.1725 15.1914 51.1725 15.2167 51.1693 15.2416C51.1725 15.2722 51.1725 15.3029 51.1693 15.3335L51.0942 15.4671C51.0679 15.5116 51.034 15.5511 50.994 15.5839L50.8687 15.7092L50.7685 15.7843L50.685 15.8511L50.5764 15.9263L50.4595 15.9931L28.0189 29.043L27.9688 56.7459L50.4177 43.7043L50.5012 43.6542C50.5354 43.6263 50.5717 43.6012 50.6098 43.579L50.6933 43.5123L50.7852 43.4371L50.8938 43.3286L50.9522 43.2618V43.2033C50.9792 43.1733 51.0017 43.1396 51.019 43.1032C51.0294 43.0711 51.0434 43.0403 51.0607 43.0113V42.9528V42.861C51.0558 42.8419 51.0558 42.8217 51.0607 42.8026C51.0645 42.7721 51.0645 42.7412 51.0607 42.7107C51.0643 42.6886 51.0643 42.666 51.0607 42.6439L51.1109 14.9327C51.1109 14.9327 51.1693 14.8743 51.1693 14.8993Z" fill="#E4E7FB"/>
<path d="M0.959842 16.0424C0.711848 15.9335 0.49791 15.7597 0.340612 15.5392C0.183315 15.3188 0.0884943 15.0599 0.0662205 14.79L0.0161133 42.5014C0.0401185 42.7707 0.135609 43.0288 0.292697 43.2489C0.449786 43.4691 0.662787 43.6434 0.909735 43.7537L23.509 56.7953V29.084L0.959842 16.0424Z" fill="#EFF1FE"/>
<path d="M50.284 13.5632C51.4699 14.2395 51.4699 15.3583 50.284 16.068L27.8434 29.1179C27.1762 29.4535 26.4397 29.6282 25.6928 29.6282C24.946 29.6282 24.2095 29.4535 23.5424 29.1179L0.993161 16.0763C-0.19276 15.3917 -0.201111 14.2729 0.993161 13.5715L23.392 0.513219C24.0572 0.175836 24.7925 0 25.5383 0C26.2842 0 27.0195 0.175836 27.6847 0.513219L50.284 13.5632Z" fill="url(#paint0_linear_230_1822)"/>
<path d="M27.5176 56.946L28.0687 56.6455V28.9592L27.5677 29.2348H27.4758L27.242 29.3266H27.1501L26.9997 29.3767H26.8745L26.7075 29.4184H26.5905L26.2482 29.4602H26.1396H25.9392H25.1959H25.0456H24.9119C24.8563 29.4642 24.8005 29.4642 24.7449 29.4602H24.628C24.5628 29.4484 24.4986 29.4317 24.4359 29.4101C24.3998 29.414 24.3634 29.414 24.3274 29.4101L24.0016 29.3016L23.8513 29.2348H23.7761C23.701 29.2348 23.2751 28.9592 23.2083 28.9175V56.6622C23.2751 56.6622 23.6509 56.9126 23.7344 56.946H23.8012L23.9432 57.0045L24.2689 57.113H24.3524L24.5361 57.1548H24.5862C24.6134 57.1637 24.6426 57.1637 24.6697 57.1548H24.8201H24.8869H24.962H25.104H26.1646L26.507 57.1047H26.6073L26.7743 57.0629C26.8132 57.0668 26.8523 57.0668 26.8912 57.0629L27.0498 57.0128H27.1083L27.3422 56.921L27.5176 56.946Z" fill="url(#paint1_linear_230_1822)"/>
<defs>
<linearGradient id="paint0_linear_230_1822" x1="16.6022" y1="7.34794" x2="44.9945" y2="21.5479" gradientUnits="userSpaceOnUse">
<stop stop-color="#FBFCFF"/>
<stop offset="1" stop-color="#F2F5FE"/>
</linearGradient>
<linearGradient id="paint1_linear_230_1822" x1="3477.75" y1="53154.4" x2="3499.04" y2="53154.4" gradientUnits="userSpaceOnUse">
<stop stop-color="#EFF1FE"/>
<stop offset="1" stop-color="#E4E7FB"/>
</linearGradient>
</defs>
</svg>
