<svg width="131" height="86" viewBox="0 0 131 86" fill="none" xmlns="http://www.w3.org/2000/svg">
<path opacity="0.0244" d="M129.554 64.5832C129.386 61.557 124.678 59.9647 122.492 58.7088C118.367 56.3254 114.252 53.942 110.128 51.5783C106.953 49.7488 103.787 47.9093 100.622 46.0797C97.833 44.4776 94.9646 42.7865 91.6412 43.5875C91.6906 43.5776 91.7401 43.5677 91.7895 43.5677C91.2158 43.637 90.0685 43.8941 89.8805 43.9732C89.8212 43.993 89.7124 44.0226 89.6531 44.0523C88.8816 44.2501 86.9824 45.4072 85.9043 46.0401C84.2426 47.0192 82.571 47.9785 80.8994 48.9477C77.4474 50.9553 73.9954 52.9629 70.5434 54.9705C66.2804 57.4429 61.9678 59.8856 57.8927 62.5954C55.2122 65.6809 59.7226 67.8764 62.0173 69.1918C69.8511 73.7212 77.6947 78.2408 85.5284 82.7703C88.0902 84.2537 90.1377 85.6185 93.0457 85.6185C95.5086 85.6185 97.5264 84.9657 99.6728 83.7196C102.986 81.7912 106.3 79.8627 109.603 77.9441C115.637 74.4333 121.957 71.1301 127.773 67.3325C127.289 67.6391 128.05 67.1446 128.149 67.0655C128.278 67.0655 128.545 66.7293 128.644 66.6304C128.812 66.4523 129.198 65.9084 129.208 65.8985C129.465 65.4535 129.564 64.9392 129.554 64.5832Z" fill="#FDFDFF"/>
<path opacity="0.0488" d="M128.129 64.5832C127.961 61.557 123.253 59.9647 121.067 58.7088C116.943 56.3254 112.828 53.942 108.703 51.5783C105.528 49.7488 102.363 47.9093 99.1979 46.0797C96.4086 44.4776 93.5403 42.7865 90.2168 43.5875C90.2663 43.5776 90.3157 43.5677 90.3652 43.5677C89.7915 43.637 88.6441 43.8941 88.4562 43.9732C88.3968 43.993 88.2881 44.0226 88.2287 44.0523C87.4572 44.2501 85.5581 45.4072 84.4799 46.0401C82.8182 47.0192 81.1466 47.9785 79.475 48.9477C76.023 50.9553 72.5711 52.9629 69.1191 54.9705C64.856 57.4429 60.5435 59.8856 56.4684 62.5954C53.7879 65.6809 58.2982 67.8764 60.5929 69.1918C68.4267 73.7212 76.2703 78.2408 84.1041 82.7703C86.6659 84.2537 88.7134 85.6185 91.6214 85.6185C94.0842 85.6185 96.102 84.9657 98.2484 83.7196C101.562 81.7912 104.875 79.8627 108.179 77.9441C114.213 74.4333 120.533 71.1301 126.349 67.3325C125.864 67.6391 126.626 67.1446 126.725 67.0655C126.854 67.0655 127.121 66.7293 127.219 66.6304C127.388 66.4523 127.773 65.9084 127.783 65.8985C128.04 65.4535 128.149 64.9392 128.129 64.5832Z" fill="#FBFCFE"/>
<path opacity="0.0732" d="M126.705 64.5832C126.537 61.557 121.829 59.9647 119.643 58.7088C115.518 56.3254 111.404 53.942 107.279 51.5783C104.104 49.7488 100.939 47.9093 97.7737 46.0797C94.9844 44.4776 92.1161 42.7865 88.7926 43.5875C88.8421 43.5776 88.8915 43.5677 88.941 43.5677C88.3673 43.637 87.2199 43.8941 87.032 43.9732C86.9726 43.993 86.8639 44.0226 86.8045 44.0523C86.033 44.2501 84.1339 45.4072 83.0557 46.0401C81.394 47.0192 79.7224 47.9785 78.0508 48.9477C74.5988 50.9553 71.1469 52.9629 67.6949 54.9705C63.4318 57.4429 59.1193 59.8856 55.0441 62.5954C52.3637 65.6809 56.874 67.8764 59.1588 69.1918C66.9926 73.7212 74.8363 78.2408 82.67 82.7703C85.2318 84.2537 87.2793 85.6185 90.1873 85.6185C92.6501 85.6185 94.6679 84.9657 96.8143 83.7196C100.128 81.7912 103.441 79.8627 106.745 77.9441C112.779 74.4333 119.099 71.1301 124.915 67.3325C124.43 67.6391 125.192 67.1446 125.291 67.0655C125.419 67.0655 125.686 66.7293 125.785 66.6304C125.954 66.4523 126.339 65.9084 126.349 65.8985C126.616 65.4535 126.725 64.9392 126.705 64.5832Z" fill="#FAFAFE"/>
<path opacity="0.0976" d="M125.291 64.5832C125.123 61.557 120.414 59.9647 118.228 58.7088C114.104 56.3254 109.989 53.942 105.865 51.5783C102.689 49.7488 99.5244 47.9093 96.3592 46.0797C93.5699 44.4776 90.7015 42.7865 87.3781 43.5875C87.4276 43.5776 87.477 43.5677 87.5264 43.5677C86.9528 43.637 85.8054 43.8941 85.6175 43.9732C85.5581 43.993 85.4493 44.0226 85.39 44.0523C84.6185 44.2501 82.7194 45.4072 81.6412 46.0401C79.9795 47.0192 78.3079 47.9785 76.6363 48.9477C73.1843 50.9553 69.7324 52.9629 66.2804 54.9705C62.0173 57.4429 57.7047 59.8856 53.6296 62.5954C50.9491 65.6809 55.4595 67.8764 57.7443 69.1918C65.5781 73.7212 73.4218 78.2408 81.2555 82.7703C83.8173 84.2537 85.8647 85.6185 88.7727 85.6185C91.2356 85.6185 93.2534 84.9657 95.3998 83.7196C98.7133 81.7912 102.027 79.8627 105.33 77.9441C111.364 74.4333 117.684 71.1301 123.5 67.3325C123.016 67.6391 123.777 67.1446 123.876 67.0655C124.005 67.0655 124.272 66.7293 124.371 66.6304C124.539 66.4523 124.925 65.9084 124.935 65.8985C125.192 65.4535 125.301 64.9392 125.291 64.5832Z" fill="#F8F9FD"/>
<path opacity="0.122" d="M123.866 64.5832C123.698 61.557 118.99 59.9647 116.804 58.7088C112.689 56.3254 108.565 53.942 104.44 51.5783C101.265 49.7488 98.1 47.9093 94.9349 46.0797C92.1456 44.4776 89.2772 42.7865 85.9538 43.5875C86.0033 43.5776 86.0527 43.5677 86.1021 43.5677C85.5285 43.637 84.3811 43.8941 84.1932 43.9732C84.1338 43.993 84.025 44.0226 83.9657 44.0523C83.1942 44.2501 81.295 45.4072 80.2169 46.0401C78.5552 47.0192 76.8836 47.9785 75.212 48.9477C71.76 50.9553 68.308 52.9629 64.856 54.9705C60.593 57.4429 56.2804 59.8856 52.2053 62.5954C49.5248 65.6809 54.0352 67.8764 56.32 69.1918C64.1538 73.7212 71.9974 78.2408 79.8312 82.7703C82.393 84.2537 84.4404 85.6185 87.3484 85.6185C89.8113 85.6185 91.8291 84.9657 93.9755 83.7196C97.289 81.7912 100.603 79.8627 103.906 77.9441C109.94 74.4333 116.26 71.1301 122.076 67.3325C121.591 67.6391 122.353 67.1446 122.452 67.0655C122.581 67.0655 122.848 66.7293 122.947 66.6304C123.115 66.4523 123.5 65.9084 123.51 65.8985C123.777 65.4535 123.876 64.9392 123.866 64.5832Z" fill="#F6F7FD"/>
<path opacity="0.1463" d="M122.442 64.5832C122.274 61.557 117.566 59.9647 115.38 58.7088C111.265 56.3254 107.14 53.942 103.016 51.5783C99.8408 49.7488 96.6756 47.9093 93.5105 46.0797C90.7212 44.4776 87.8528 42.7865 84.5294 43.5875C84.5789 43.5776 84.6283 43.5677 84.6777 43.5677C84.104 43.637 82.9567 43.8941 82.7688 43.9732C82.7094 43.993 82.6006 44.0226 82.5413 44.0523C81.7698 44.2501 79.8706 45.4072 78.7925 46.0401C77.1308 47.0192 75.4592 47.9785 73.7876 48.9477C70.3356 50.9553 66.8837 52.9629 63.4317 54.9705C59.1686 57.4429 54.8561 59.8856 50.781 62.5954C48.1005 65.6809 52.6108 67.8764 54.8956 69.1918C62.7294 73.7212 70.5731 78.2408 78.4068 82.7703C80.9686 84.2537 83.016 85.6185 85.924 85.6185C88.3869 85.6185 90.4047 84.9657 92.5511 83.7196C95.8646 81.7912 99.1781 79.8627 102.482 77.9441C108.515 74.4333 114.836 71.1301 120.652 67.3325C120.167 67.6391 120.929 67.1446 121.028 67.0655C121.156 67.0655 121.423 66.7293 121.522 66.6304C121.69 66.4523 122.076 65.9084 122.086 65.8985C122.353 65.4535 122.452 64.9392 122.442 64.5832Z" fill="#F4F6FC"/>
<path opacity="0.1707" d="M121.018 64.5832C120.849 61.557 116.141 59.9647 113.955 58.7088C109.841 56.3254 105.716 53.942 101.592 51.5783C98.4165 49.7488 95.2513 47.9093 92.0861 46.0797C89.2968 44.4776 86.4285 42.7865 83.1051 43.5875C83.1545 43.5776 83.2039 43.5677 83.2534 43.5677C82.6797 43.637 81.5323 43.8941 81.3444 43.9732C81.2851 43.993 81.1763 44.0226 81.1169 44.0523C80.3454 44.2501 78.4463 45.4072 77.3682 46.0401C75.7065 47.0192 74.0349 47.9785 72.3633 48.9477C68.9113 50.9553 65.4593 52.9629 62.0073 54.9705C57.7443 57.4429 53.4318 59.8856 49.3566 62.5954C46.6762 65.6809 51.1865 67.8764 53.4713 69.1918C61.3051 73.7212 69.1487 78.2408 76.9825 82.7703C79.5443 84.2537 81.5917 85.6185 84.4997 85.6185C86.9626 85.6185 88.9804 84.9657 91.1267 83.7196C94.4402 81.7912 97.7537 79.8627 101.057 77.9441C107.091 74.4333 113.411 71.1301 119.227 67.3325C118.743 67.6391 119.504 67.1446 119.603 67.0655C119.732 67.0655 119.999 66.7293 120.098 66.6304C120.266 66.4523 120.662 65.9084 120.662 65.8985C120.929 65.4535 121.027 64.9392 121.018 64.5832Z" fill="#F3F4FC"/>
<path opacity="0.1951" d="M119.593 64.5832C119.425 61.557 114.717 59.9647 112.531 58.7088C108.417 56.3254 104.292 53.942 100.167 51.5783C96.9923 49.7488 93.8271 47.9093 90.6619 46.0797C87.8726 44.4776 85.0042 42.7865 81.6808 43.5875C81.7303 43.5776 81.7797 43.5677 81.8292 43.5677C81.2555 43.637 80.1081 43.8941 79.9202 43.9732C79.8608 43.993 79.752 44.0226 79.6927 44.0523C78.9212 44.2501 77.0221 45.4072 75.9439 46.0401C74.2822 47.0192 72.6106 47.9785 70.939 48.9477C67.487 50.9553 64.035 52.9629 60.583 54.9705C56.32 57.4429 52.0075 59.8856 47.9323 62.5954C45.2518 65.6809 49.7622 67.8764 52.047 69.1918C59.8808 73.7212 67.7245 78.2408 75.5582 82.7703C78.12 84.2537 80.1674 85.6185 83.0754 85.6185C85.5383 85.6185 87.5561 84.9657 89.7025 83.7196C93.016 81.7912 96.3295 79.8627 99.6332 77.9441C105.667 74.4333 111.987 71.1301 117.803 67.3325C117.318 67.6391 118.08 67.1446 118.179 67.0655C118.308 67.0655 118.575 66.7293 118.674 66.6304C118.842 66.4523 119.227 65.9084 119.237 65.8985C119.504 65.4535 119.613 64.9392 119.593 64.5832Z" fill="#F1F3FB"/>
<path opacity="0.2195" d="M118.169 64.5832C118.001 61.557 113.293 59.9647 111.107 58.7088C106.992 56.3254 102.868 53.942 98.743 51.5783C95.5679 49.7488 92.4027 47.9093 89.2376 46.0797C86.4483 44.4776 83.5799 42.7865 80.2565 43.5875C80.3059 43.5776 80.3553 43.5677 80.4048 43.5677C79.8311 43.637 78.6838 43.8941 78.4958 43.9732C78.4365 43.993 78.3277 44.0226 78.2684 44.0523C77.4968 44.2501 75.5978 45.4072 74.5196 46.0401C72.8579 47.0192 71.1863 47.9785 69.5147 48.9477C66.0627 50.9553 62.6107 52.9629 59.1587 54.9705C54.8957 57.4429 50.5831 59.8856 46.508 62.5954C43.8275 65.6809 48.3378 67.8764 50.6227 69.1918C58.4564 73.7212 66.3001 78.2408 74.1339 82.7703C76.6957 84.2537 78.7431 85.6185 81.6511 85.6185C84.114 85.6185 86.1318 84.9657 88.2781 83.7196C91.5917 81.7912 94.9052 79.8627 98.2088 77.9441C104.242 74.4333 110.563 71.14 116.379 67.3325C115.894 67.6391 116.656 67.1446 116.755 67.0655C116.883 67.0655 117.15 66.7293 117.249 66.6304C117.417 66.4523 117.813 65.9084 117.813 65.8985C118.08 65.4535 118.189 64.9392 118.169 64.5832Z" fill="#EFF1FB"/>
<path opacity="0.2439" d="M116.755 64.5832C116.586 61.557 111.878 59.9647 109.692 58.7088C105.578 56.3254 101.453 53.942 97.3284 51.5783C94.1534 49.7488 90.9882 47.9093 87.823 46.0797C85.0337 44.4776 82.1653 42.7865 78.8419 43.5875C78.8914 43.5776 78.9408 43.5677 78.9903 43.5677C78.4166 43.637 77.2692 43.8941 77.0813 43.9732C77.0219 43.993 76.9132 44.0226 76.8538 44.0523C76.0823 44.2501 74.1832 45.4072 73.105 46.0401C71.4433 47.0192 69.7717 47.9785 68.1001 48.9477C64.6481 50.9553 61.1962 52.9629 57.7442 54.9705C53.4811 57.4429 49.1686 59.8856 45.0935 62.5954C42.413 65.6809 46.9233 67.8764 49.2081 69.1918C57.0419 73.7212 64.8856 78.2408 72.7193 82.7703C75.2811 84.2537 77.3286 85.6185 80.2365 85.6185C82.6994 85.6185 84.7172 84.9657 86.8636 83.7196C90.1771 81.7912 93.4906 79.8627 96.7943 77.9441C102.828 74.4333 109.148 71.14 114.964 67.3325C114.48 67.6391 115.241 67.1446 115.34 67.0655C115.469 67.0655 115.736 66.7293 115.835 66.6304C116.003 66.4523 116.398 65.9084 116.398 65.8985C116.666 65.4535 116.764 64.9392 116.755 64.5832Z" fill="#EDF0FA"/>
<path opacity="0.2683" d="M115.33 64.5832C115.162 61.557 110.454 59.9647 108.268 58.7088C104.153 56.3254 100.029 53.942 95.904 51.5783C92.729 49.7488 89.5638 47.9093 86.3986 46.0797C83.6093 44.4776 80.741 42.7865 77.4176 43.5875C77.467 43.5776 77.5164 43.5677 77.5659 43.5677C76.9922 43.637 75.8448 43.8941 75.6569 43.9732C75.5976 43.993 75.4888 44.0226 75.4294 44.0523C74.6579 44.2501 72.7588 45.4072 71.6807 46.0401C70.019 47.0192 68.3474 47.9785 66.6758 48.9477C63.2238 50.9553 59.7718 52.9629 56.3198 54.9705C52.0568 57.4429 47.7443 59.8856 43.6691 62.5954C40.9887 65.6809 45.499 67.8764 47.7838 69.1918C55.6176 73.7212 63.4612 78.2408 71.3049 82.7703C73.8667 84.2537 75.9141 85.6185 78.8221 85.6185C81.285 85.6185 83.3027 84.9657 85.4491 83.7196C88.7626 81.7912 92.0761 79.8627 95.3798 77.9441C101.413 74.4333 107.734 71.14 113.55 67.3325C113.065 67.6391 113.827 67.1446 113.926 67.0655C114.054 67.0655 114.321 66.7293 114.42 66.6304C114.588 66.4523 114.984 65.9084 114.984 65.8985C115.241 65.4535 115.34 64.9392 115.33 64.5832Z" fill="#ECEEFA"/>
<path opacity="0.2927" d="M113.906 64.5832C113.738 61.557 109.03 59.9647 106.844 58.7088C102.729 56.3254 98.6044 53.942 94.4798 51.5783C91.3048 49.7488 88.1396 47.9093 84.9744 46.0797C82.1851 44.4776 79.3266 42.7865 75.9933 43.5875C76.0428 43.5776 76.0922 43.5677 76.1417 43.5677C75.568 43.637 74.4206 43.8941 74.2327 43.9732C74.1733 43.993 74.0645 44.0226 74.0052 44.0523C73.2337 44.2501 71.3346 45.4072 70.2564 46.0401C68.5947 47.0192 66.9231 47.9785 65.2515 48.9477C61.7995 50.9553 58.3476 52.9629 54.8956 54.9705C50.6325 57.4429 46.32 59.8856 42.2448 62.5954C39.5643 65.6809 44.0747 67.8764 46.3595 69.1918C54.1933 73.7212 62.037 78.2408 69.8806 82.7703C72.4424 84.2537 74.4899 85.6185 77.3978 85.6185C79.8607 85.6185 81.8785 84.9657 84.0249 83.7196C87.3384 81.7912 90.6519 79.8627 93.9556 77.9441C99.9892 74.4333 106.31 71.14 112.126 67.3325C111.641 67.6391 112.403 67.1446 112.501 67.0655C112.63 67.0655 112.897 66.7293 112.996 66.6304C113.164 66.4523 113.56 65.9084 113.56 65.8985C113.817 65.4535 113.916 64.9392 113.906 64.5832Z" fill="#EAEDF9"/>
<path opacity="0.3171" d="M112.482 64.5832C112.313 61.557 107.605 59.9647 105.419 58.7088C101.305 56.3254 97.18 53.942 93.0555 51.5783C89.8804 49.7488 86.7152 47.9093 83.5501 46.0797C80.7608 44.4776 77.9023 42.7865 74.569 43.5875C74.6184 43.5776 74.6678 43.5677 74.7173 43.5677C74.1436 43.637 72.9963 43.8941 72.8083 43.9732C72.749 43.993 72.6402 44.0226 72.5808 44.0523C71.8093 44.2501 69.9103 45.4072 68.8321 46.0401C67.1704 47.0192 65.4988 47.9785 63.8272 48.9477C60.3752 50.9553 56.9232 52.9629 53.4712 54.9705C49.2082 57.4429 44.8956 59.8856 40.8205 62.5954C38.14 65.6809 42.6503 67.8764 44.9352 69.1918C52.7689 73.7212 60.6126 78.2408 68.4563 82.7703C71.0181 84.2537 73.0655 85.6185 75.9735 85.6185C78.4364 85.6185 80.4542 84.9657 82.6005 83.7196C85.9141 81.7912 89.2276 79.8627 92.5312 77.9441C98.5648 74.4333 104.885 71.14 110.701 67.3325C110.216 67.6391 110.978 67.1446 111.077 67.0655C111.206 67.0655 111.473 66.7293 111.572 66.6304C111.74 66.4523 112.135 65.9084 112.135 65.8985C112.393 65.4535 112.501 64.9392 112.482 64.5832Z" fill="#E8EBF9"/>
<path opacity="0.3415" d="M111.057 64.5832C110.889 61.557 106.181 59.9647 103.995 58.7088C99.8803 56.3254 95.7557 53.942 91.6311 51.5783C88.4561 49.7488 85.2909 47.9093 82.1257 46.0797C79.3364 44.4776 76.4779 42.7865 73.1446 43.5875C73.1941 43.5776 73.2435 43.5677 73.293 43.5677C72.7193 43.637 71.5719 43.8941 71.384 43.9732C71.3246 43.993 71.2159 44.0226 71.1565 44.0523C70.385 44.2501 68.4859 45.4072 67.4078 46.0401C65.7461 47.0192 64.0745 47.9785 62.4029 48.9477C58.9509 50.9553 55.4989 52.9629 52.0469 54.9705C47.7838 57.4429 43.4713 59.8856 39.3962 62.5954C36.7157 65.6809 41.226 67.8764 43.5109 69.1918C51.3446 73.7212 59.1883 78.2408 67.0319 82.7703C69.5937 84.2537 71.6412 85.6185 74.5492 85.6185C77.012 85.6185 79.0298 84.9657 81.1762 83.7196C84.4897 81.7912 87.8032 79.8627 91.1068 77.9441C97.1404 74.4333 103.461 71.14 109.277 67.3325C108.792 67.6391 109.554 67.1446 109.653 67.0655C109.781 67.0655 110.048 66.7293 110.147 66.6304C110.315 66.4523 110.711 65.9084 110.711 65.8985C110.978 65.4535 111.077 64.9392 111.057 64.5832Z" fill="#E6E9F8"/>
<path opacity="0.3659" d="M109.643 64.5832C109.474 61.557 104.766 59.9648 102.58 58.7088C98.4657 56.3254 94.3411 53.942 90.2166 51.5783C87.0415 49.7488 83.8763 47.9192 80.7112 46.0797C77.9219 44.4776 75.0634 42.7865 71.7301 43.5875C71.7795 43.5776 71.829 43.5677 71.8784 43.5677C71.3047 43.637 70.1574 43.8941 69.9694 43.9831C69.9101 44.0029 69.8013 44.0325 69.742 44.0622C68.9705 44.26 67.0713 45.4171 65.9932 46.05C64.3315 47.0291 62.6599 47.9884 60.9883 48.9576C57.5363 50.9652 54.0843 52.9728 50.6323 54.9804C46.3693 57.4528 42.0568 59.8955 37.9816 62.6053C35.3012 65.6909 39.8115 67.8864 42.0963 69.2017C49.9301 73.7312 57.7737 78.2507 65.6174 82.7802C68.1792 84.2636 70.2266 85.6284 73.1346 85.6284C75.5975 85.6284 77.6153 84.9757 79.7617 83.7296C83.0752 81.8011 86.3887 79.8726 89.6923 77.954C95.7259 74.4432 102.046 71.15 107.862 67.3424C107.378 67.649 108.139 67.1546 108.238 67.0754C108.367 67.0754 108.634 66.7392 108.733 66.6403C108.901 66.4623 109.296 65.9183 109.296 65.9084C109.554 65.4535 109.653 64.9393 109.643 64.5832Z" fill="#E5E8F8"/>
<path opacity="0.3902" d="M108.218 64.5832C108.05 61.557 103.342 59.9648 101.156 58.7088C97.0415 56.3254 92.9169 53.942 88.7923 51.5783C85.6172 49.7488 82.452 47.9192 79.2869 46.0797C76.4976 44.4776 73.6391 42.7865 70.3058 43.5875C70.3553 43.5776 70.4047 43.5677 70.4541 43.5677C69.8804 43.637 68.7331 43.8941 68.5452 43.9831C68.4858 44.0029 68.377 44.0325 68.3177 44.0622C67.5363 44.26 65.647 45.4171 64.5689 46.05C62.9072 47.0291 61.2356 47.9884 59.564 48.9576C56.112 50.9652 52.66 52.9728 49.208 54.9804C44.945 57.4528 40.6325 59.8955 36.5573 62.6053C33.8768 65.6909 38.3872 67.8864 40.672 69.2017C48.5058 73.7312 56.3494 78.2507 64.1931 82.7802C66.7549 84.2636 68.8023 85.6284 71.7103 85.6284C74.1732 85.6284 76.191 84.9757 78.3374 83.7296C81.6509 81.8011 84.9644 79.8726 88.268 77.954C94.3016 74.4432 100.622 71.15 106.438 67.3424C105.953 67.649 106.715 67.1546 106.814 67.0754C106.942 67.0754 107.21 66.7392 107.308 66.6403C107.477 66.4623 107.872 65.9183 107.872 65.9084C108.129 65.4535 108.228 64.9393 108.218 64.5832Z" fill="#E3E6F7"/>
<path opacity="0.4146" d="M106.794 64.5832C106.626 61.557 101.918 59.9648 99.7318 58.7088C95.6171 56.3254 91.4925 53.942 87.3679 51.5783C84.1929 49.7488 81.0277 47.9192 77.8625 46.0797C75.0732 44.4776 72.2148 42.7865 68.8815 43.5875C68.9309 43.5776 68.9803 43.5677 69.0298 43.5677C68.4561 43.637 67.3087 43.8941 67.1208 43.9831C67.0615 44.0029 66.9527 44.0325 66.8933 44.0622C66.1119 44.26 64.2228 45.4171 63.1446 46.05C61.4829 47.0291 59.8113 47.9884 58.1397 48.9576C54.6877 50.9652 51.2357 52.9728 47.7837 54.9804C43.5206 57.4528 39.2081 59.8955 35.133 62.6053C32.4525 65.6909 36.9628 67.8864 39.2477 69.2017C47.0814 73.7312 54.9251 78.2507 62.7688 82.7802C65.3306 84.2636 67.378 85.6284 70.286 85.6284C72.7489 85.6284 74.7667 84.9757 76.913 83.7296C80.2265 81.8011 83.54 79.8726 86.8437 77.954C92.8772 74.4432 99.1977 71.15 105.014 67.3523C104.529 67.6589 105.291 67.1644 105.389 67.0853C105.518 67.0853 105.785 66.7491 105.884 66.6403C106.052 66.4722 106.448 65.9183 106.448 65.9084C106.705 65.4535 106.804 64.9393 106.794 64.5832Z" fill="#E1E5F7"/>
<path opacity="0.439" d="M105.37 64.5832C105.202 61.557 100.494 59.9648 98.3076 58.7088C94.1929 56.3254 90.0683 53.942 85.9437 51.5783C82.7686 49.7488 79.6034 47.9192 76.4383 46.0797C73.649 44.4776 70.7905 42.7865 67.4572 43.5875C67.5066 43.5776 67.5561 43.5677 67.6055 43.5677C67.0318 43.637 65.8845 43.8941 65.6965 43.9831C65.6372 44.0029 65.5284 44.0325 65.4691 44.0622C64.6877 44.26 62.7985 45.4171 61.7203 46.05C60.0586 47.0291 58.387 47.9884 56.7154 48.9576C53.2634 50.9652 49.8114 52.9728 46.3594 54.9804C42.0963 57.4528 37.7838 59.8955 33.7087 62.6053C31.0282 65.6909 35.5385 67.8864 37.8234 69.2017C45.6571 73.7312 53.5008 78.2507 61.3445 82.7802C63.9063 84.2636 65.9537 85.6284 68.8617 85.6284C71.3246 85.6284 73.3424 84.9757 75.4888 83.7296C78.8023 81.8011 82.1158 79.8726 85.4194 77.954C91.453 74.4432 97.7734 71.15 103.589 67.3523C103.105 67.6589 103.866 67.1644 103.965 67.0853C104.094 67.0853 104.361 66.7491 104.46 66.6403C104.628 66.4722 105.024 65.9183 105.024 65.9084C105.281 65.4634 105.39 64.9393 105.37 64.5832Z" fill="#DFE3F6"/>
<path opacity="0.4634" d="M103.945 64.5832C103.777 61.557 99.0692 59.9648 96.8832 58.7088C92.7685 56.3254 88.6439 53.942 84.5193 51.5783C81.3443 49.7488 78.1791 47.9192 75.014 46.0797C72.2247 44.4776 69.3661 42.7865 66.0328 43.5875C66.0823 43.5776 66.1317 43.5677 66.1812 43.5677C65.6075 43.637 64.4601 43.8941 64.2722 43.9831C64.2129 44.0029 64.1041 44.0325 64.0447 44.0622C63.2633 44.26 61.3741 45.4171 60.296 46.05C58.6343 47.0291 56.9627 47.9884 55.2911 48.9576C51.8391 50.9652 48.3871 52.9728 44.9351 54.9804C40.672 57.4528 36.3595 59.8955 32.2844 62.6053C29.6039 65.6909 34.1142 67.8864 36.3991 69.2017C44.2328 73.7312 52.0765 78.2507 59.9201 82.7802C62.4819 84.2636 64.5294 85.6284 67.4374 85.6284C69.9003 85.6284 71.9181 84.9757 74.0644 83.7296C77.3779 81.8011 80.6914 79.8726 83.9951 77.954C90.0287 74.4432 96.3491 71.15 102.165 67.3523C101.68 67.6589 102.442 67.1644 102.541 67.0853C102.669 67.0853 102.937 66.7491 103.035 66.6403C103.204 66.4722 103.599 65.9183 103.599 65.9084C103.866 65.4634 103.965 64.9393 103.945 64.5832Z" fill="#DEE2F6"/>
<path opacity="0.4878" d="M102.521 64.5832C102.353 61.557 97.6448 59.9648 95.4589 58.7088C91.3442 56.3254 87.2196 53.942 83.095 51.5783C79.92 49.7488 76.7548 47.9192 73.5897 46.0797C70.8004 44.4776 67.9418 42.7865 64.6085 43.5875C64.658 43.5776 64.7074 43.5677 64.7569 43.5677C64.1832 43.637 63.0358 43.8941 62.8479 43.9831C62.7885 44.0029 62.6798 44.0325 62.6204 44.0622C61.839 44.26 59.9498 45.4171 58.8717 46.05C57.21 47.0291 55.5384 47.9884 53.8668 48.9576C50.4148 50.9652 46.9628 52.9728 43.5108 54.9804C39.2477 57.4528 34.9352 59.8955 30.8601 62.6053C28.1796 65.6909 32.6899 67.8864 34.9747 69.2017C42.8085 73.7312 50.6522 78.2507 58.4958 82.7802C61.0576 84.2636 63.1051 85.6284 66.0131 85.6284C68.4759 85.6284 70.4937 84.9757 72.6401 83.7296C75.9536 81.8011 79.2671 79.8726 82.5708 77.954C88.6043 74.4432 94.9248 71.15 100.741 67.3523C100.256 67.6589 101.018 67.1644 101.117 67.0853C101.245 67.0853 101.512 66.7491 101.611 66.6403C101.779 66.4722 102.175 65.9183 102.175 65.9084C102.442 65.4634 102.541 64.9393 102.521 64.5832Z" fill="#DCE0F5"/>
<path opacity="0.5122" d="M101.107 64.5832C100.938 61.557 96.2303 59.9648 94.0444 58.7088C89.9297 56.3254 85.8051 53.942 81.6805 51.5783C78.5054 49.7488 75.3402 47.9192 72.1751 46.0797C69.3858 44.4776 66.5273 42.7865 63.194 43.5875C63.2434 43.5776 63.2929 43.5677 63.3423 43.5677C62.7686 43.6468 61.6213 43.8941 61.4333 43.9831C61.374 44.0029 61.2652 44.0325 61.2059 44.0622C60.4245 44.26 58.5353 45.4171 57.4571 46.05C55.7954 47.0291 54.1238 47.9884 52.4522 48.9576C49.0002 50.9652 45.5482 52.9728 42.0962 54.9804C37.8332 57.4528 33.5207 59.8955 29.4455 62.6053C26.765 65.6909 31.2753 67.8864 33.5602 69.2017C41.3939 73.7312 49.2376 78.2507 57.0813 82.7802C59.6431 84.2636 61.6905 85.6284 64.5985 85.6284C67.0614 85.6284 69.0792 84.9757 71.2256 83.7296C74.5391 81.8011 77.8526 79.8726 81.1562 77.954C87.1898 74.4432 93.5102 71.15 99.3262 67.3523C98.8415 67.6589 99.6031 67.1644 99.702 67.0853C99.8306 67.0853 100.098 66.7491 100.197 66.6403C100.365 66.4722 100.76 65.9183 100.76 65.9084C101.018 65.4634 101.116 64.9393 101.107 64.5832Z" fill="#DADFF5"/>
<path opacity="0.5366" d="M99.6827 64.5832C99.5145 61.557 94.8064 59.9648 92.6205 58.7088C88.5058 56.3254 84.3812 53.942 80.2566 51.5783C77.0816 49.7488 73.9164 47.9192 70.7512 46.0797C67.9619 44.4776 65.1034 42.7865 61.7701 43.5875C61.8196 43.5776 61.869 43.5677 61.9185 43.5677C61.3448 43.6468 60.1974 43.8941 60.0095 43.9831C59.9501 44.0029 59.8413 44.0325 59.782 44.0622C59.0006 44.26 57.1114 45.4171 56.0333 46.05C54.3716 47.0291 52.7 47.9884 51.0284 48.9576C47.5764 50.9652 44.1244 52.9728 40.6724 54.9804C36.4093 57.4528 32.0968 59.8955 28.0217 62.6053C25.3412 65.6909 29.8515 67.8864 32.1364 69.2017C39.9701 73.7312 47.8138 78.2507 55.6574 82.7802C58.2192 84.2636 60.2667 85.6284 63.1746 85.6284C65.6375 85.6284 67.6553 84.9757 69.8017 83.7296C73.1152 81.8011 76.4287 79.8726 79.7323 77.954C85.7659 74.4432 92.0863 71.15 97.9023 67.3523C97.4176 67.6589 98.1792 67.1644 98.2782 67.0853C98.4067 67.0853 98.6738 66.7491 98.7727 66.6403C98.9409 66.4722 99.3365 65.9183 99.3365 65.9084C99.5937 65.4634 99.6926 64.9393 99.6827 64.5832Z" fill="#D8DDF4"/>
<path opacity="0.561" d="M98.258 64.5832C98.0898 61.557 93.3817 59.9648 91.1957 58.7088C87.081 56.3254 82.9564 53.942 78.8318 51.5783C75.6568 49.7488 72.4916 47.9192 69.3265 46.0797C66.5372 44.4776 63.6786 42.7865 60.3453 43.5875C60.3948 43.5776 60.4442 43.5677 60.4937 43.5677C59.92 43.6468 58.7726 43.8941 58.5847 43.9831C58.5254 44.0029 58.4166 44.0325 58.3572 44.0622C57.5758 44.26 55.6866 45.4171 54.6085 46.05C52.9468 47.0291 51.2752 47.9884 49.6036 48.9576C46.1516 50.9652 42.6996 52.9728 39.2476 54.9804C34.9845 57.4528 30.672 59.8955 26.5969 62.6053C23.9164 65.6909 28.4267 67.8864 30.7116 69.2017C38.5453 73.7312 46.389 78.2507 54.2326 82.7802C56.7944 84.2636 58.8419 85.6284 61.7499 85.6284C64.2128 85.6284 66.2306 84.9757 68.3769 83.7296C71.6904 81.8011 75.0039 79.8726 78.3076 77.954C84.3412 74.4432 90.6616 71.15 96.4775 67.3523C95.9929 67.649 96.7545 67.1644 96.8534 67.0853C96.982 67.0853 97.2491 66.7491 97.348 66.6403C97.5161 66.4722 97.9118 65.9183 97.9118 65.9084C98.1788 65.4634 98.2679 64.9393 98.258 64.5832Z" fill="#D7DCF4"/>
<path opacity="0.5854" d="M96.8337 64.5832C96.6655 61.557 91.9573 59.9648 89.7714 58.7088C85.6567 56.3254 81.5321 53.942 77.4075 51.5783C74.2325 49.7488 71.0673 47.9192 67.9022 46.0797C65.1129 44.4776 62.2543 42.7865 58.921 43.5875C58.9705 43.5776 59.0199 43.5677 59.0694 43.5677C58.4957 43.6468 57.3483 43.8941 57.1604 43.9831C57.101 44.0029 56.9923 44.0325 56.9329 44.0622C56.1515 44.26 54.2623 45.4171 53.1842 46.05C51.5225 47.0291 49.8509 47.9884 48.1793 48.9576C44.7273 50.9652 41.2753 52.9728 37.8233 54.9804C33.5602 57.4528 29.2477 59.8955 25.1726 62.6053C22.4921 65.6909 27.0024 67.8864 29.2872 69.2017C37.1309 73.7312 44.9647 78.2507 52.8083 82.7802C55.3701 84.2636 57.4176 85.6284 60.3256 85.6284C62.7884 85.6284 64.8062 84.9757 66.9526 83.7296C70.2661 81.8011 73.5796 79.8726 76.8833 77.954C82.9168 74.4432 89.2373 71.15 95.0532 67.3523C94.5686 67.649 95.3302 67.1644 95.4291 67.0853C95.5577 67.0853 95.8247 66.7491 95.9237 66.6403C96.0918 66.4722 96.4874 65.9183 96.4874 65.9084C96.7545 65.4634 96.8535 64.9393 96.8337 64.5832Z" fill="#D5DAF3"/>
<path opacity="0.6098" d="M95.4094 64.5832C95.2413 61.557 90.5331 59.9648 88.3471 58.7088C84.2324 56.3254 80.1078 53.942 75.9832 51.5783C72.8082 49.7488 69.643 47.9192 66.4779 46.0797C63.6886 44.4776 60.83 42.7865 57.4967 43.5875C57.5462 43.5776 57.5956 43.5677 57.6451 43.5677C57.0714 43.6468 55.924 43.8941 55.7361 43.9831C55.6767 44.0029 55.568 44.0325 55.5086 44.0622C54.7272 44.26 52.838 45.4171 51.7599 46.05C50.0982 47.0291 48.4266 47.9884 46.755 48.9576C43.303 50.9652 39.851 52.9728 36.399 54.9804C32.1359 57.4528 27.8234 59.8955 23.7482 62.6053C21.0678 65.6909 25.5781 67.8864 27.8629 69.2017C35.7066 73.7312 43.5404 78.2507 51.384 82.7802C53.9458 84.2636 55.9933 85.6284 58.9013 85.6284C61.3641 85.6284 63.3819 84.9757 65.5283 83.7296C68.8418 81.8011 72.1553 79.8726 75.459 77.954C81.4926 74.4432 87.813 71.15 93.629 67.3523C93.1443 67.649 93.9059 67.1644 94.0048 67.0853C94.1334 67.0853 94.4005 66.7491 94.4994 66.6403C94.6675 66.4722 95.0632 65.9183 95.0731 65.9084C95.3303 65.4634 95.4292 64.9393 95.4094 64.5832Z" fill="#D3D9F3"/>
<path opacity="0.6341" d="M93.9952 64.5832C93.8271 61.557 89.119 59.9648 86.933 58.7088C82.8183 56.3254 78.6937 53.942 74.5691 51.5783C71.3941 49.7587 68.2289 47.9192 65.0637 46.0797C62.2744 44.4776 59.416 42.7865 56.0827 43.5875C56.1321 43.5776 56.1815 43.5677 56.231 43.5677C55.6573 43.6468 54.5099 43.8941 54.322 43.9831C54.2627 44.0029 54.1539 44.0325 54.0945 44.0622C53.3131 44.26 51.424 45.4171 50.3458 46.05C48.6841 47.0291 47.0125 47.9884 45.3409 48.9576C41.8889 50.9652 38.4369 52.9728 34.9849 54.9804C30.7218 57.4528 26.4093 59.8955 22.3342 62.6053C19.6537 65.6909 24.164 67.8864 26.4489 69.2017C34.2925 73.7312 42.1263 78.2507 49.97 82.7802C52.5318 84.2636 54.5792 85.6284 57.4872 85.6284C59.9501 85.6284 61.9679 84.9757 64.1142 83.7296C67.4278 81.8011 70.7413 79.8726 74.0449 77.954C80.0785 74.4432 86.3989 71.15 92.2149 67.3523C91.7302 67.649 92.4918 67.1644 92.5907 67.0853C92.7193 67.0853 92.9864 66.7491 93.0853 66.6403C93.2534 66.4722 93.6491 65.9183 93.659 65.9084C93.9062 65.4634 94.0051 64.9393 93.9952 64.5832Z" fill="#D1D7F2"/>
<path opacity="0.6585" d="M92.5705 64.5833C92.4023 61.557 87.6942 59.9648 85.5082 58.7088C81.3935 56.3254 77.2689 53.942 73.1443 51.5784C69.9693 49.7587 66.8041 47.9192 63.639 46.0896C60.8497 44.4875 57.9911 42.7963 54.6578 43.5974C54.7073 43.5875 54.7567 43.5776 54.8062 43.5776C54.2325 43.6568 53.0851 43.904 52.8972 43.993C52.8379 44.0128 52.7291 44.0425 52.6697 44.0721C51.8883 44.2699 49.9991 45.427 48.921 46.06C47.2593 47.039 45.5877 47.9983 43.9161 48.9675C40.4641 50.9751 37.0121 52.9827 33.5601 54.9903C29.297 57.4627 24.9845 59.9055 20.9094 62.6152C18.2289 65.7008 22.7392 67.8963 25.0241 69.2116C32.8677 73.7411 40.7015 78.2607 48.5451 82.7901C51.1069 84.2736 53.1544 85.6383 56.0624 85.6383C58.5253 85.6383 60.5431 84.9856 62.6894 83.7395C66.0029 81.811 69.3164 79.8825 72.6201 77.964C78.6537 74.4531 84.9741 71.1599 90.79 67.3622C90.3054 67.6589 91.067 67.1744 91.1659 67.0952C91.2945 67.0952 91.5616 66.759 91.6605 66.6502C91.8286 66.4821 92.2243 65.9283 92.2243 65.9184C92.4814 65.4634 92.5804 64.9393 92.5705 64.5833Z" fill="#D0D6F2"/>
<path opacity="0.6829" d="M91.1466 64.5833C90.9785 61.557 86.2703 59.9648 84.0843 58.7088C79.9696 56.3254 75.8451 53.942 71.7205 51.5784C68.5454 49.7587 65.3803 47.9192 62.2151 46.0896C59.4258 44.4875 56.5673 42.7963 53.234 43.5974C53.2834 43.5875 53.3329 43.5776 53.3823 43.5776C52.8086 43.6568 51.6613 43.904 51.4733 43.993C51.414 44.0128 51.3052 44.0425 51.2459 44.0721C50.4645 44.2699 48.5753 45.427 47.4972 46.06C45.8355 47.039 44.1639 47.9983 42.4923 48.9675C39.0403 50.9751 35.5882 52.9827 32.1363 54.9903C27.8732 57.4627 23.5607 59.9055 19.4856 62.6152C16.8051 65.7008 21.3154 67.8963 23.6002 69.2116C31.4439 73.7411 39.2777 78.2607 47.1213 82.7901C49.6831 84.2736 51.7305 85.6383 54.6385 85.6383C57.1014 85.6383 59.1192 84.9856 61.2656 83.7395C64.5791 81.811 67.8926 79.8825 71.1962 77.964C77.2298 74.4531 83.5502 71.1599 89.3662 67.3622C88.8815 67.6589 89.6431 67.1744 89.742 67.0952C89.8706 67.0952 90.1377 66.759 90.2366 66.6502C90.4047 66.4821 90.8004 65.9283 90.8103 65.9184C91.0675 65.4634 91.1565 64.9393 91.1466 64.5833Z" fill="#CED4F1"/>
<path opacity="0.7073" d="M89.7219 64.5833C89.5538 61.557 84.8456 59.9648 82.6596 58.7088C78.5449 56.3254 74.4203 53.942 70.2957 51.5784C67.1207 49.7587 63.9555 47.9192 60.7904 46.0896C58.0011 44.4875 55.1425 42.7963 51.8092 43.5974C51.8587 43.5875 51.9081 43.5776 51.9576 43.5776C51.3839 43.6568 50.2365 43.904 50.0486 43.993C49.9892 44.0128 49.8805 44.0425 49.8211 44.0721C49.0397 44.2699 47.1505 45.427 46.0724 46.06C44.4107 47.039 42.7391 47.9983 41.0675 48.9675C37.6155 50.9751 34.1635 52.9827 30.7115 54.9903C26.4484 57.4627 22.1359 59.9055 18.0607 62.6152C15.3803 65.7008 19.8906 67.8963 22.1754 69.2116C30.0191 73.7411 37.8529 78.2607 45.6965 82.7901C48.2583 84.2736 50.3058 85.6383 53.2138 85.6383C55.6766 85.6383 57.6944 84.9856 59.8408 83.7395C63.1543 81.811 66.4678 79.8825 69.7715 77.964C75.8051 74.4531 82.1255 71.1599 87.9415 67.3622C87.4568 67.6589 88.2184 67.1744 88.3173 67.0952C88.4459 67.0952 88.713 66.759 88.8119 66.6502C88.98 66.4821 89.3757 65.9283 89.3856 65.9184C89.6428 65.4634 89.7417 64.9393 89.7219 64.5833Z" fill="#CCD2F1"/>
<path opacity="0.7317" d="M88.2981 64.5833C88.1299 61.557 83.4217 59.9648 81.2358 58.7088C77.1211 56.3254 72.9965 53.942 68.8719 51.5784C65.6969 49.7587 62.5317 47.9192 59.3666 46.0896C56.5773 44.4875 53.7187 42.7963 50.3854 43.5974C50.4349 43.5875 50.4843 43.5776 50.5338 43.5776C49.9601 43.6568 48.8127 43.904 48.6248 43.993C48.5654 44.0128 48.4566 44.0425 48.3973 44.0721C47.6159 44.2699 45.7267 45.427 44.6486 46.06C42.9869 47.039 41.3153 47.9983 39.6437 48.9675C36.1917 50.9751 32.7396 52.9827 29.2876 54.9903C25.0246 57.4627 20.7121 59.9055 16.6369 62.6152C13.9564 65.7008 18.4667 67.8963 20.7516 69.2116C28.5953 73.7411 36.4291 78.2607 44.2727 82.7901C46.8345 84.2736 48.8819 85.6383 51.7899 85.6383C54.2528 85.6383 56.2706 84.9856 58.417 83.7395C61.7305 81.811 65.044 79.8825 68.3477 77.964C74.3812 74.4531 80.7017 71.1599 86.5176 67.3622C86.033 67.6589 86.7946 67.1744 86.8935 67.0952C87.0221 67.0952 87.2891 66.759 87.3881 66.6502C87.5562 66.4821 87.9519 65.9283 87.9618 65.9184C88.2189 65.4634 88.3179 64.9393 88.2981 64.5833Z" fill="#CAD1F0"/>
<path opacity="0.7561" d="M86.8834 64.5833C86.7153 61.557 82.0071 59.9648 79.8212 58.7088C75.7065 56.3254 71.5819 53.942 67.4573 51.5784C64.2822 49.7587 61.1171 47.9192 57.9519 46.0896C55.1725 44.4875 52.3041 42.7963 48.9708 43.5974C49.0203 43.5875 49.0697 43.5776 49.1191 43.5776C48.5455 43.6568 47.3981 43.904 47.2102 43.993C47.1508 44.0128 47.042 44.0425 46.9827 44.0721C46.2013 44.2699 44.3121 45.427 43.234 46.06C41.5723 47.039 39.9007 47.9983 38.2291 48.9675C34.7771 50.9751 31.3251 52.9827 27.8731 54.9903C23.61 57.4627 19.2975 59.9055 15.2224 62.6152C12.5419 65.7008 17.0522 67.8963 19.337 69.2116C27.1807 73.7411 35.0145 78.2607 42.8581 82.7901C45.4199 84.2736 47.4673 85.6383 50.3753 85.6383C52.8382 85.6383 54.856 84.9856 57.0024 83.7395C60.3159 81.811 63.6294 79.8825 66.933 77.964C72.9666 74.4531 79.287 71.1599 85.103 67.3622C84.6183 67.6589 85.3799 67.1744 85.4788 67.0952C85.6074 67.0952 85.8745 66.759 85.9734 66.6502C86.1415 66.4821 86.5372 65.9283 86.5471 65.9184C86.7944 65.4634 86.8933 64.9393 86.8834 64.5833Z" fill="#C9CFF0"/>
<path opacity="0.7805" d="M85.4591 64.5833C85.291 61.557 80.5828 59.9648 78.3968 58.7088C74.2821 56.3254 70.1576 53.942 66.033 51.5784C62.8579 49.7587 59.6928 47.9192 56.5276 46.0896C53.7482 44.4875 50.8798 42.7963 47.5465 43.5974C47.5959 43.5875 47.6454 43.5776 47.6948 43.5776C47.1211 43.6568 45.9738 43.904 45.7858 43.993C45.7265 44.0128 45.6177 44.0425 45.5584 44.0721C44.777 44.2699 42.8878 45.427 41.8097 46.06C40.148 47.039 38.4764 47.9983 36.8048 48.9675C33.3528 50.9751 29.9007 52.9827 26.4488 54.9903C22.1857 57.4627 17.8732 59.9055 13.7981 62.6152C11.1176 65.7008 15.6279 67.8963 17.9127 69.2116C25.7564 73.7411 33.5902 78.2607 41.4338 82.7901C43.9956 84.2736 46.043 85.6383 48.951 85.6383C51.4139 85.6383 53.4317 84.9856 55.5781 83.7395C58.8916 81.811 62.2051 79.8825 65.5087 77.964C71.5423 74.4531 77.8627 71.1599 83.6787 67.3622C83.194 67.6589 83.9556 67.1744 84.0545 67.0952C84.1831 67.0952 84.4502 66.759 84.5491 66.6502C84.7172 66.4821 85.1129 65.9283 85.1228 65.9184C85.38 65.4634 85.469 64.9393 85.4591 64.5833Z" fill="#C7CEEF"/>
<path opacity="0.8049" d="M84.0348 64.5833C83.8666 61.557 79.1585 59.9648 76.9725 58.7088C72.8578 56.3254 68.7332 53.942 64.6086 51.5784C61.4336 49.7587 58.2685 47.9192 55.1033 46.0896C52.3239 44.4875 49.4555 42.7963 46.1222 43.5974C46.1716 43.5875 46.221 43.5776 46.2705 43.5776C45.6968 43.6568 44.5495 43.904 44.3615 43.993C44.3022 44.0128 44.1934 44.0425 44.134 44.0721C43.3527 44.2699 41.4635 45.427 40.3853 46.06C38.7236 47.039 37.052 47.9983 35.3804 48.9675C31.9285 50.9751 28.4764 52.9827 25.0244 54.9903C20.7614 57.4627 16.4489 59.9055 12.3737 62.6152C9.69325 65.7008 14.2036 67.8963 16.4884 69.2116C24.3321 73.7411 32.1658 78.2607 40.0095 82.7901C42.5713 84.2736 44.6187 85.6383 47.5267 85.6383C49.9896 85.6383 52.0074 84.9856 54.1537 83.7395C57.4673 81.811 60.7808 79.8825 64.0943 77.964C70.1279 74.4531 76.4483 71.1599 82.2642 67.3622C81.7796 67.6589 82.5412 67.1744 82.6401 67.0952C82.7687 67.0952 83.0357 66.759 83.1347 66.6502C83.3028 66.4821 83.6985 65.9283 83.7084 65.9184C83.9556 65.4634 84.0447 64.9393 84.0348 64.5833Z" fill="#C5CCEF"/>
<path opacity="0.8293" d="M82.6106 64.5833C82.4424 61.557 77.7342 59.9648 75.5483 58.7088C71.4336 56.3254 67.309 53.942 63.1844 51.5784C60.0094 49.7587 56.8442 47.9192 53.6791 46.0896C50.8997 44.4875 48.0312 42.7963 44.6979 43.5974C44.7474 43.5875 44.7968 43.5776 44.8463 43.5776C44.2726 43.6568 43.1252 43.904 42.9373 43.993C42.8779 44.0128 42.7691 44.0425 42.7098 44.0721C41.9284 44.2699 40.0392 45.427 38.9611 46.06C37.2994 47.039 35.6278 47.9983 33.9562 48.9675C30.5042 50.9751 27.0521 52.9827 23.6001 54.9903C19.3371 57.4627 15.0246 59.9055 10.9494 62.6152C8.26893 65.7008 12.7792 67.8963 15.0641 69.2116C22.9078 73.7411 30.7514 78.2607 38.5852 82.7901C41.147 84.2736 43.1944 85.6383 46.1024 85.6383C48.5653 85.6383 50.5831 84.9856 52.7295 83.7395C56.043 81.811 59.3565 79.8825 62.6701 77.964C68.7036 74.4531 75.0241 71.1599 80.84 67.3622C80.3554 67.6589 81.117 67.1744 81.2159 67.0952C81.3445 67.0952 81.6115 66.759 81.7104 66.6502C81.8786 66.4821 82.2743 65.9283 82.2842 65.9184C82.5314 65.4634 82.6304 64.9393 82.6106 64.5833Z" fill="#C3CBEE"/>
<path opacity="0.8537" d="M81.1862 64.5832C81.0181 61.557 76.3099 59.9648 74.1239 58.7088C70.0092 56.3254 65.8846 53.942 61.76 51.5784C58.585 49.7587 55.4199 47.9192 52.2547 46.0896C49.4753 44.4875 46.6069 42.7963 43.2736 43.5974C43.323 43.5875 43.3725 43.5776 43.422 43.5677C42.8483 43.6469 41.7008 43.8941 41.5129 43.9831C41.4536 44.0029 41.3448 44.0326 41.2854 44.0622C40.504 44.26 38.6149 45.4171 37.5367 46.0501C35.8651 47.0291 34.2034 47.9884 32.5318 48.9576C29.0798 50.9652 25.6278 52.9728 22.1758 54.9804C17.9127 57.4528 13.6002 59.8956 9.5251 62.6053C6.84461 65.6909 11.3549 67.8864 13.6398 69.2017C21.4834 73.7312 29.3271 78.2507 37.1609 82.7802C39.7227 84.2636 41.7701 85.6284 44.6781 85.6284C47.141 85.6284 49.1588 84.9757 51.3051 83.7296C54.6187 81.8011 57.9322 79.8727 61.2457 77.9541C67.2793 74.4432 73.5997 71.15 79.4157 67.3524C78.931 67.6491 79.6926 67.1644 79.7915 67.0853C79.9201 67.0853 80.1872 66.7491 80.2861 66.6403C80.4542 66.4722 80.8499 65.9183 80.8598 65.9085C81.1071 65.4634 81.206 64.9393 81.1862 64.5832Z" fill="#C2C9EE"/>
<path opacity="0.878" d="M79.7621 64.5832C79.5939 61.557 74.8857 59.9648 72.6998 58.7088C68.5851 56.3254 64.4605 53.942 60.3359 51.5784C57.1608 49.7587 53.9957 47.9192 50.8305 46.0896C48.0511 44.4875 45.1826 42.7963 41.8493 43.5974C41.8988 43.5875 41.9483 43.5776 41.9977 43.5677C41.424 43.6469 40.2766 43.8941 40.0887 43.9831C40.0293 44.0029 39.9206 44.0326 39.8612 44.0622C39.0798 44.26 37.1906 45.4171 36.1125 46.0501C34.4409 47.0291 32.7792 47.9884 31.1076 48.9576C27.6556 50.9652 24.2035 52.9728 20.7515 54.9804C16.4884 57.4528 12.1759 59.8956 8.10079 62.6053C5.42029 65.6909 9.93062 67.8864 12.2155 69.2017C20.0591 73.7312 27.9028 78.2507 35.7366 82.7802C38.2984 84.2636 40.3459 85.6284 43.2539 85.6284C45.7167 85.6284 47.7346 84.9757 49.8809 83.7296C53.1945 81.8011 56.508 79.8727 59.8215 77.9541C65.8551 74.4432 72.1755 71.15 77.9915 67.3524C77.5069 67.6491 78.2685 67.1644 78.3674 67.0853C78.496 67.0853 78.763 66.7491 78.8619 66.6403C79.0301 66.4722 79.4258 65.9183 79.4356 65.9085C79.6829 65.4634 79.7819 64.9393 79.7621 64.5832Z" fill="#C0C8ED"/>
<path opacity="0.9024" d="M78.3473 64.5832C78.1791 61.557 73.471 59.9648 71.285 58.7088C67.1703 56.3254 63.0457 53.942 58.9211 51.5784C55.7461 49.7587 52.581 47.9192 49.4158 46.0896C46.6364 44.4875 43.768 42.7963 40.4347 43.5974C40.4841 43.5875 40.5335 43.5776 40.583 43.5677C40.0093 43.6469 38.862 43.8941 38.674 43.9831C38.6147 44.0029 38.5059 44.0326 38.4465 44.0622C37.6652 44.26 35.776 45.4171 34.6978 46.0501C33.0262 47.0291 31.3645 47.9884 29.6929 48.9576C26.241 50.9652 22.7889 52.9728 19.3369 54.9804C15.0739 57.4528 10.7614 59.8956 6.68623 62.6053C4.00575 65.6909 8.51606 67.8864 10.8009 69.2017C18.6446 73.7312 26.4882 78.2507 34.322 82.7802C36.8838 84.2636 38.9312 85.6284 41.8392 85.6284C44.3021 85.6284 46.3199 84.9757 48.4662 83.7296C51.7798 81.8011 55.0933 79.8727 58.4068 77.9541C64.4404 74.4432 70.7608 71.15 76.5767 67.3524C76.0921 67.6491 76.8537 67.1644 76.9526 67.0853C77.0812 67.0853 77.3482 66.7491 77.4472 66.6403C77.6153 66.4722 78.011 65.9183 78.0209 65.9085C78.2681 65.4634 78.3572 64.9393 78.3473 64.5832Z" fill="#BEC6ED"/>
<path opacity="0.9268" d="M76.923 64.5832C76.7549 61.557 72.0467 59.9648 69.8608 58.7088C65.7461 56.3254 61.6215 53.942 57.4969 51.5784C54.3317 49.7587 51.1567 47.9192 47.9915 46.0896C45.2121 44.4875 42.3437 42.7963 39.0104 43.5974C39.0598 43.5875 39.1093 43.5776 39.1588 43.5677C38.5851 43.6469 37.4377 43.8941 37.2497 43.9831C37.1904 44.0029 37.0816 44.0326 37.0223 44.0622C36.2409 44.26 34.3517 45.4171 33.2736 46.0501C31.602 47.0291 29.9403 47.9884 28.2687 48.9576C24.8167 50.9652 21.3646 52.9728 17.9126 54.9804C13.6496 57.4528 9.33706 59.8956 5.26192 62.6053C2.58143 65.6909 7.09175 67.8864 9.37659 69.2017C17.2202 73.7312 25.0639 78.2507 32.8977 82.7802C35.4595 84.2636 37.5069 85.6284 40.4149 85.6284C42.8778 85.6284 44.8956 84.9757 47.042 83.7296C50.3555 81.8011 53.669 79.8727 56.9825 77.9541C63.0161 74.4432 69.3365 71.15 75.1525 67.3524C74.6678 67.6491 75.4294 67.1644 75.5283 67.0853C75.6569 67.0853 75.924 66.7491 76.0229 66.6403C76.191 66.4722 76.5867 65.9183 76.5966 65.9085C76.8439 65.4634 76.9329 64.9393 76.923 64.5832Z" fill="#BCC5EC"/>
<path opacity="0.9512" d="M75.4987 64.5832C75.3306 61.557 70.6224 59.9648 68.4364 58.7088C64.3217 56.3254 60.1971 53.942 56.0725 51.5784C52.9074 49.7587 49.7324 47.9192 46.5672 46.0896C43.7878 44.4875 40.9194 42.7963 37.5861 43.5974C37.6355 43.5875 37.685 43.5776 37.7345 43.5677C37.1608 43.6469 36.0133 43.8941 35.8254 43.9831C35.7661 44.0029 35.6573 44.0326 35.5979 44.0622C34.8165 44.26 32.9274 45.4171 31.8492 46.0501C30.1776 47.0291 28.5159 47.9884 26.8443 48.9576C23.3923 50.9652 19.9403 52.9728 16.4883 54.9804C12.2252 57.4528 7.91274 59.8956 3.8376 62.6053C1.15711 65.6909 5.66743 67.8864 7.95228 69.2017C15.7959 73.7312 23.6396 78.2507 31.4734 82.7802C34.0352 84.2636 36.0826 85.6284 38.9906 85.6284C41.4535 85.6284 43.4713 84.9757 45.6176 83.7296C48.9312 81.8011 52.2447 79.8727 55.5582 77.9541C61.5918 74.4432 67.9122 71.15 73.7282 67.3524C73.2435 67.6491 74.0051 67.1644 74.104 67.0853C74.2326 67.0853 74.4997 66.7491 74.5986 66.6403C74.7667 66.4722 75.1624 65.9183 75.1723 65.9085C75.4196 65.4634 75.5185 64.9393 75.4987 64.5832Z" fill="#BBC3EC"/>
<path opacity="0.9756" d="M74.0744 64.5832C73.9062 61.557 69.1981 59.9648 67.0121 58.7088C62.8974 56.3254 58.7728 53.942 54.6482 51.5784C51.4831 49.7587 48.308 47.9192 45.1429 46.0896C42.3635 44.4875 39.495 42.7963 36.1617 43.5974C36.2112 43.5875 36.2607 43.5776 36.3101 43.5677C35.7365 43.6469 34.589 43.8941 34.4011 43.9831C34.3418 44.0029 34.233 44.0326 34.1736 44.0622C33.3922 44.26 31.503 45.4171 30.4249 46.0501C28.7533 47.0291 27.0916 47.9884 25.42 48.9576C21.968 50.9652 18.516 52.9728 15.064 54.9804C10.8009 57.4528 6.48842 59.8956 2.41329 62.6053C-0.267205 65.6909 4.24311 67.8864 6.52796 69.2017C14.3716 73.7312 22.2153 78.2507 30.049 82.7802C32.6108 84.2636 34.6583 85.6284 37.5663 85.6284C40.0292 85.6284 42.047 84.9757 44.1933 83.7296C47.5068 81.8011 50.8204 79.8727 54.1339 77.9541C60.1674 74.4432 66.4879 71.15 72.3038 67.3524C71.8192 67.6491 72.5808 67.1644 72.6797 67.0853C72.8083 67.0853 73.0753 66.7491 73.1743 66.6403C73.3424 66.4722 73.7381 65.9183 73.748 65.9085C73.9952 65.4634 74.0942 64.9393 74.0744 64.5832Z" fill="#B9C2EB"/>
<path d="M72.6501 64.5832C72.4819 61.557 67.7738 59.9648 65.5878 58.7088C61.4731 56.3254 57.3485 53.942 53.2239 51.5784C50.0588 49.7587 46.8837 47.9192 43.7186 46.0896C40.9392 44.4875 38.0707 42.7963 34.7374 43.5974C34.7869 43.5875 34.8364 43.5776 34.8858 43.5677C34.3121 43.6469 33.1648 43.8941 32.9769 43.9831C32.9175 44.0029 32.8087 44.0326 32.7493 44.0622C31.9679 44.26 30.0787 45.4171 29.0006 46.0501C27.329 47.0291 25.6673 47.9884 23.9957 48.9576C20.5437 50.9652 17.0917 52.9728 13.6397 54.9804C9.37661 57.4528 5.06411 59.8956 0.98897 62.6053C-1.69152 65.6909 2.8188 67.8864 5.10365 69.2017C12.9473 73.7312 20.791 78.2507 28.6247 82.7802C31.1865 84.2636 33.234 85.6284 36.142 85.6284C38.6049 85.6284 40.6227 84.9757 42.769 83.7296C46.0825 81.8011 49.3961 79.8727 52.7096 77.9541C58.7432 74.4432 65.0636 71.15 70.8795 67.3524C70.3949 67.6491 71.1565 67.1644 71.2554 67.0853C71.384 67.0853 71.6511 66.7491 71.75 66.6403C71.9181 66.4722 72.3039 65.9183 72.3237 65.9085C72.5314 65.4436 72.6699 64.9393 72.6501 64.5832Z" fill="#B7C0EB"/>
<path d="M69.6829 18.705C71.5919 19.8127 71.6116 21.6027 69.7027 22.7103C59.8017 28.4661 49.8908 34.2318 39.9898 39.9776C38.0907 41.0952 34.9849 41.0952 33.0759 39.9776C23.1056 34.2318 13.1255 28.4661 3.15524 22.7103C1.24625 21.6027 1.23634 19.8127 3.13544 18.705C13.0463 12.9492 22.9572 7.19347 32.8582 1.42781C34.7573 0.330054 37.8632 0.330054 39.7623 1.42781C49.7325 7.19347 59.7028 12.9492 69.6829 18.705Z" fill="url(#paint0_linear_530_2199)"/>
<path d="M72.66 22.4631C72.6501 22.5422 72.6402 22.6213 72.6303 22.7004C72.6204 22.7598 72.6007 22.8191 72.5908 22.8685C72.5611 22.9477 72.5512 23.0169 72.5215 23.096C72.5017 23.1553 72.4721 23.2147 72.4523 23.274C72.4226 23.3531 72.393 23.4223 72.3534 23.5015C72.3237 23.5509 72.2841 23.6004 72.2544 23.6597C72.205 23.7388 72.1457 23.8278 72.0863 23.9069C72.0566 23.9564 72.0072 24.0059 71.9676 24.0454C71.8786 24.1542 71.7797 24.263 71.661 24.3718C71.6214 24.4113 71.5819 24.4509 71.5423 24.4806C71.4731 24.5498 71.3939 24.6091 71.3247 24.6685C71.2554 24.7278 71.1961 24.7773 71.1268 24.8267C71.0477 24.886 70.9587 24.9355 70.8796 24.9948C70.7905 25.0542 70.7015 25.1135 70.5927 25.1728C70.5927 25.1728 40.7711 42.4303 40.7019 42.4599C40.5238 42.5391 39.7029 42.816 39.5743 42.8457C39.4852 42.8753 39.3863 42.8951 39.2874 42.9248C39.1489 42.9544 38.7137 43.0434 38.6247 43.0632C38.3576 43.1127 37.6554 43.1819 37.5762 43.1918C37.4081 43.2116 37.2399 43.2214 37.0619 43.2214C36.963 43.2313 36.4883 43.2313 36.3696 43.2313C36.2608 43.2313 35.4596 43.1819 35.3606 43.172C35.242 43.1522 35.1134 43.1423 34.9947 43.1324C34.8859 43.1225 34.0946 42.9841 34.0056 42.9643C33.8473 42.9248 33.4022 42.8061 33.3132 42.7863C33.056 42.7072 32.789 42.6281 32.5417 42.5292C32.5021 42.5094 32.4724 42.4995 32.4428 42.4896C32.0966 42.3512 31.7801 42.1929 31.4636 42.0248L2.26501 25.1728C0.860477 24.3619 0.148314 23.2839 0.158205 22.2257C0.158205 22.2257 0.148314 64.5732 0.158205 64.682C0.158205 64.7018 0.178016 64.7908 0.187907 64.8303C0.197798 64.8798 0.217549 64.9886 0.217549 64.9886C0.237331 65.0974 0.267021 65.1765 0.296695 65.2655L0.306595 65.2754C0.445071 65.6809 0.642876 65.9479 0.722004 66.0765C0.979173 66.4424 1.26605 66.6797 1.56278 66.9467C1.73093 67.0951 29.0403 82.8592 31.5526 84.313C31.5526 84.3229 31.5526 84.3327 31.5526 84.3327C31.5625 84.3426 31.5625 84.3525 31.5723 84.3525C31.7009 84.4217 33.6297 85.1635 33.6396 85.1734C33.7286 85.1932 34.3023 85.3217 34.3122 85.3217C34.3122 85.3217 34.7672 85.4008 34.9155 85.4206L35.0441 85.4404C36.0135 85.5591 36.9927 85.5591 37.9521 85.4404C38.0016 85.4305 38.4961 85.3613 38.5654 85.3415H38.6049C38.7632 85.3118 39.9007 85.0052 39.9204 85.0052C39.9897 84.9756 40.0589 84.9558 40.1183 84.936L40.2073 84.9064C40.2667 84.8767 40.87 84.6393 41.0282 84.5602C41.0282 84.5602 41.3843 84.3723 41.4733 84.3228L70.9389 67.1742C70.9389 67.1643 70.9785 67.1445 70.9982 67.1347C71.0774 67.0852 71.2258 66.9665 71.2258 66.9665C71.2357 66.9566 72.0269 66.1852 72.2346 65.8292C72.2445 65.8094 72.2544 65.7897 72.2643 65.7699L72.2742 65.7501L72.294 65.7105L72.3039 65.7006C72.3138 65.6809 72.3237 65.6611 72.3237 65.6512C72.3435 65.6018 72.3632 65.5721 72.3731 65.5325L72.3929 65.5028L72.4028 65.4831C72.4226 65.4336 72.4424 65.3842 72.4424 65.3842L72.4523 65.3446C72.4721 65.3051 72.4819 65.2655 72.4918 65.2259L72.5017 65.1963C72.5017 65.2062 72.4918 65.2161 72.4918 65.2161C72.5116 65.1765 72.5215 65.127 72.5314 65.0875L72.5413 65.0677V65.0479C72.5809 64.9095 72.5908 64.8106 72.6007 64.7512L72.5908 64.7908C72.5908 64.7908 72.5908 64.7809 72.6007 64.7809L72.6105 64.771C72.6105 64.7512 72.6204 64.7216 72.6204 64.7117C72.6204 64.6523 72.6303 64.5831 72.6402 64.5139C72.6402 64.4941 72.6402 64.4743 72.6402 64.4545C72.6402 64.4348 72.6402 64.415 72.6402 64.3952L72.6501 22.2653C72.6699 22.3246 72.66 22.3938 72.66 22.4631Z" fill="#B7C0EB"/>
<path d="M72.66 22.4631C72.6501 22.5422 72.6402 22.6213 72.6303 22.7004C72.6204 22.7598 72.6007 22.8191 72.5908 22.8685C72.5611 22.9477 72.5512 23.0169 72.5215 23.096C72.5017 23.1553 72.4721 23.2147 72.4523 23.274C72.4226 23.3531 72.393 23.4223 72.3534 23.5015C72.3237 23.5509 72.2841 23.6004 72.2544 23.6597C72.205 23.7388 72.1457 23.8278 72.0863 23.9069C72.0566 23.9564 72.0072 24.0059 71.9676 24.0454C71.8786 24.1542 71.7797 24.263 71.661 24.3718C71.6214 24.4113 71.5819 24.4509 71.5423 24.4806C71.4731 24.5498 71.3939 24.6091 71.3247 24.6685C71.2554 24.7278 71.1961 24.7773 71.1268 24.8267C71.0477 24.886 70.9587 24.9355 70.8796 24.9948C70.7905 25.0542 70.7015 25.1135 70.5927 25.1728C70.5927 25.1728 40.7711 42.4303 40.7019 42.4599C40.5238 42.5391 39.7029 42.816 39.5743 42.8457C39.4852 42.8753 39.3863 42.8951 39.2874 42.9248C39.1489 42.9544 38.7137 43.0434 38.6247 43.0632C38.3576 43.1127 37.6554 43.1819 37.5762 43.1918C37.4081 43.2116 37.2399 43.2214 37.0619 43.2214C36.963 43.2313 36.4883 43.2313 36.3696 43.2313C36.2608 43.2313 35.4596 43.1819 35.3606 43.172C35.242 43.1522 35.1134 43.1423 34.9947 43.1324C34.8859 43.1225 34.0946 42.9841 34.0056 42.9643C33.8473 42.9248 33.4022 42.8061 33.3132 42.7863C33.056 42.7072 32.789 42.6281 32.5417 42.5292C32.5021 42.5094 32.4724 42.4995 32.4428 42.4896C32.0966 42.3512 31.7801 42.1929 31.4636 42.0248L2.26501 25.1728C0.860477 24.3619 0.148314 23.2839 0.158205 22.2257C0.158205 22.2257 0.148314 64.5732 0.158205 64.682C0.158205 64.7018 0.178016 64.7908 0.187907 64.8303C0.197798 64.8798 0.217549 64.9886 0.217549 64.9886C0.237331 65.0974 0.267021 65.1765 0.296695 65.2655L0.306595 65.2754C0.445071 65.6809 0.642876 65.9479 0.722004 66.0765C0.979173 66.4424 1.26605 66.6797 1.56278 66.9467C1.73093 67.0951 29.0403 82.8592 31.5526 84.313C31.5526 84.3229 31.5526 84.3327 31.5526 84.3327C31.5625 84.3426 31.5625 84.3525 31.5723 84.3525C31.7009 84.4217 33.6297 85.1635 33.6396 85.1734C33.7286 85.1932 34.3023 85.3217 34.3122 85.3217C34.3122 85.3217 34.7672 85.4008 34.9155 85.4206L35.0441 85.4404C36.0135 85.5591 36.9927 85.5591 37.9521 85.4404C38.0016 85.4305 38.4961 85.3613 38.5654 85.3415H38.6049C38.7632 85.3118 39.9007 85.0052 39.9204 85.0052C39.9897 84.9756 40.0589 84.9558 40.1183 84.936L40.2073 84.9064C40.2667 84.8767 40.87 84.6393 41.0282 84.5602C41.0282 84.5602 41.3843 84.3723 41.4733 84.3228L70.9389 67.1742C70.9389 67.1643 70.9785 67.1445 70.9982 67.1347C71.0774 67.0852 71.2258 66.9665 71.2258 66.9665C71.2357 66.9566 72.0269 66.1852 72.2346 65.8292C72.2445 65.8094 72.2544 65.7897 72.2643 65.7699L72.2742 65.7501L72.294 65.7105L72.3039 65.7006C72.3138 65.6809 72.3237 65.6611 72.3237 65.6512C72.3435 65.6018 72.3632 65.5721 72.3731 65.5325L72.3929 65.5028L72.4028 65.4831C72.4226 65.4336 72.4424 65.3842 72.4424 65.3842L72.4523 65.3446C72.4721 65.3051 72.4819 65.2655 72.4918 65.2259L72.5017 65.1963C72.5017 65.2062 72.4918 65.2161 72.4918 65.2161C72.5116 65.1765 72.5215 65.127 72.5314 65.0875L72.5413 65.0677V65.0479C72.5809 64.9095 72.5908 64.8106 72.6007 64.7512L72.5908 64.7908C72.5908 64.7908 72.5908 64.7809 72.6007 64.7809L72.6105 64.771C72.6105 64.7512 72.6204 64.7216 72.6204 64.7117C72.6204 64.6523 72.6303 64.5831 72.6402 64.5139C72.6402 64.4941 72.6402 64.4743 72.6402 64.4545C72.6402 64.4348 72.6402 64.415 72.6402 64.3952L72.6501 22.2653C72.6699 22.3246 72.66 22.3938 72.66 22.4631Z" fill="#B7C0EB"/>
<path d="M64.4404 19.0116C66.0526 19.9511 66.0625 21.4643 64.4601 22.3939C56.112 27.2497 47.7639 32.0956 39.4158 36.9416C37.8135 37.8811 35.2022 37.8811 33.5801 36.9416C25.1825 32.0956 16.775 27.2398 8.37749 22.3939C6.76523 21.4643 6.75538 19.9511 8.35774 19.0215C16.7058 14.1756 25.054 9.31976 33.4021 4.46394C35.0044 3.53432 37.6156 3.53432 39.2279 4.46394C47.6452 9.31976 56.0428 14.1756 64.4404 19.0116Z" fill="#FDFCFF"/>
<path d="M28.6641 20.683C31.2159 19.1897 33.7777 17.7062 36.3296 16.2228C38.9408 17.726 41.5521 19.2391 44.1633 20.7423C41.6114 22.2357 39.0497 23.7191 36.4978 25.2026L28.6641 20.683Z" fill="url(#paint1_linear_530_2199)"/>
<path d="M72.6503 21.3159C72.6503 21.2665 72.6502 21.2269 72.6404 21.1775C72.6404 21.1379 72.6404 21.1082 72.6404 21.0786C72.6305 21.0489 72.6305 21.0192 72.6305 20.9995C72.6206 20.9896 72.6206 20.9797 72.6206 20.9797L72.6106 20.95V20.9401L72.6008 20.9105V20.9006C72.581 20.8214 72.581 20.7522 72.5513 20.683C72.5315 20.6039 72.5117 20.5346 72.4821 20.4654C72.4722 20.4258 72.4722 20.3962 72.4524 20.3665C72.3139 20.0204 72.126 19.7237 71.8886 19.4468C71.8688 19.427 71.859 19.4072 71.8491 19.3973L71.8392 19.3874C71.8194 19.3578 71.7897 19.338 71.7798 19.3281C71.7403 19.2885 71.7106 19.2589 71.6809 19.2193C71.6611 19.2094 71.6512 19.1897 71.6413 19.1798C71.6018 19.1501 71.5721 19.1105 71.5425 19.071L71.2259 18.8138C71.127 18.7248 71.0281 18.6457 70.8797 18.5567C70.8698 18.5468 70.8501 18.5369 70.8402 18.527C70.7907 18.4974 70.7413 18.4578 70.6819 18.4183C70.6424 18.3985 70.6028 18.3787 70.5632 18.349C70.5534 18.3391 70.5236 18.3292 70.5137 18.3095C70.494 18.2996 70.4742 18.2897 70.4643 18.2798L69.0004 17.4293L67.5464 16.5887L66.8244 16.1733C65.6078 15.4711 64.3813 14.769 63.1745 14.0569L61.7008 13.2163L60.2467 12.3757L59.5247 11.9603C59.1093 11.723 58.7137 11.4856 58.3081 11.2483L57.3289 10.6845L55.9342 9.88347L55.5188 9.63623L54.411 9.00329L52.9471 8.16268L51.4832 7.32206L50.0194 6.47154L49.05 5.91773L45.776 4.0288L45.6376 3.94968L44.1737 3.09917L42.7098 2.25856L42.1757 1.94208L41.2459 1.40804C41.2459 1.40804 41.236 1.39815 41.2261 1.38826C41.2261 1.38826 41.2064 1.38826 41.1965 1.38826L41.1767 1.37838C41.058 1.30915 40.9294 1.23992 40.8107 1.19047L40.6228 1.10145C40.5832 1.08167 40.5535 1.0718 40.5238 1.05202L40.3755 0.982781C40.2568 0.923443 40.0887 0.873996 39.9601 0.814658L39.9008 0.794875L39.8711 0.784991L39.8414 0.775106C39.8117 0.765217 39.782 0.755328 39.7524 0.745439L39.416 0.636652C39.3567 0.626762 39.2875 0.59709 39.2084 0.587201C39.1886 0.577311 39.1688 0.577307 39.149 0.567417C39.06 0.557527 38.971 0.527861 38.9116 0.508082L38.5456 0.438847C38.5159 0.428957 38.5061 0.428968 38.4863 0.419078L38.4171 0.399295C38.4369 0.409184 38.4566 0.409179 38.4566 0.409179C38.4566 0.409179 38.427 0.409184 38.4072 0.399295H38.3874C38.3478 0.389405 38.3083 0.389406 38.2786 0.369627C38.1797 0.359737 38.0907 0.349839 37.9819 0.33006C37.9423 0.33006 37.9126 0.330065 37.8829 0.320176L37.7543 0.310291C36.785 0.181726 35.8058 0.181726 34.8364 0.310291C34.7969 0.310291 34.7672 0.310286 34.7376 0.320176L34.886 0.290508L34.7079 0.320176L34.4705 0.359728C34.3914 0.379507 34.3023 0.389405 34.2232 0.399295H34.1936C34.154 0.409184 34.1144 0.419073 34.0749 0.428962H34.065C33.9364 0.458631 33.7979 0.488302 33.6792 0.508082C33.5111 0.54764 33.3627 0.587194 33.2243 0.626753L33.1847 0.636652C33.1055 0.666321 33.0066 0.695986 32.9176 0.725655L32.8879 0.735539L32.977 0.705872L32.8681 0.735539L32.8484 0.745439C32.8187 0.755328 32.7791 0.765217 32.7494 0.775106L32.8582 0.735539L32.7593 0.775106C32.7494 0.784996 32.7395 0.784991 32.7395 0.784991L32.7198 0.794875H32.7297L32.6901 0.804774L32.4329 0.903662C32.4131 0.913551 32.3835 0.93333 32.3538 0.93333L32.2252 0.982781C32.0769 1.04212 31.9582 1.08168 31.7999 1.17069C31.79 1.18058 31.7603 1.19046 31.7504 1.20035C31.6317 1.26958 31.4537 1.3487 31.335 1.42781L29.8909 2.26844L28.4369 3.10907L26.9829 3.94968L25.5388 4.79031L24.0848 5.64082L22.6308 6.49133L21.1768 7.33194L19.7327 8.17257L16.8347 9.86369L15.3806 10.7043L13.9267 11.5449L12.4825 12.3856L11.3055 13.0679C11.078 13.1965 10.8505 13.3251 10.623 13.4635L9.57454 14.0668L8.41729 14.7393C6.38961 15.9261 4.35201 17.093 2.32433 18.2798L2.31449 18.2897C2.3046 18.2996 2.29469 18.2996 2.29469 18.2996C2.1661 18.3787 2.03751 18.4677 1.91882 18.5369L1.84957 18.5864C1.8199 18.5963 1.80011 18.616 1.78033 18.6358L1.57265 18.7941C1.5232 18.8336 1.46381 18.893 1.40446 18.9325C1.39457 18.9424 1.39456 18.9424 1.39456 18.9424C1.33521 18.9919 1.27588 19.0512 1.22643 19.0907L1.03849 19.2984C1.03849 19.2984 1.02858 19.3083 1.01869 19.3083C1.0088 19.3182 1.00883 19.3281 0.989051 19.338L0.959348 19.3776C0.900002 19.4369 0.840662 19.516 0.781315 19.5951C0.751642 19.6545 0.712092 19.7039 0.672527 19.7533C0.623072 19.8325 0.573602 19.9017 0.534037 19.9808L0.524136 20.0006C0.514245 20.0204 0.504395 20.0303 0.504395 20.0402C0.494504 20.0599 0.484594 20.0698 0.484594 20.0896C0.405465 20.238 0.356004 20.3665 0.356004 20.3665L0.257117 20.6731C0.247226 20.683 0.247216 20.7127 0.247216 20.7225C0.227434 20.8017 0.207664 20.8808 0.197773 20.9698C0.187882 20.9896 0.187872 21.0291 0.187872 21.0489C0.177981 21.1478 0.16807 21.2665 0.16807 21.3654C0.158179 22.4236 0.870345 23.5015 2.27488 24.3125L31.4735 41.1645C31.6417 41.2634 31.8098 41.3524 31.9879 41.4315C31.9879 41.4315 32.0076 41.4414 32.0076 41.4513H32.0274L32.0472 41.4611C32.0571 41.4611 32.067 41.4711 32.0768 41.4809C32.0867 41.4809 32.1066 41.4908 32.1066 41.4908C32.1461 41.5106 32.1659 41.5106 32.1955 41.5304C32.2153 41.5403 32.2252 41.5403 32.245 41.5501C32.2747 41.56 32.3044 41.5699 32.334 41.5897C32.3538 41.5996 32.3736 41.6095 32.3934 41.6194C32.4033 41.6293 32.4329 41.6293 32.4527 41.6392C32.4725 41.6491 32.4923 41.6688 32.522 41.6688C32.4923 41.659 32.4725 41.6491 32.4527 41.6392C32.4923 41.659 32.5318 41.6787 32.5714 41.6886C32.6011 41.6985 32.6209 41.7084 32.6604 41.7282C32.6802 41.7381 32.7 41.7381 32.7198 41.748C32.7495 41.7578 32.7791 41.7677 32.8088 41.7875C32.8582 41.8073 32.9176 41.8172 32.9671 41.837C32.977 41.837 32.9868 41.8469 32.9868 41.8469C33.0165 41.8469 33.0462 41.8666 33.0759 41.8765L33.0957 41.8864C33.1253 41.8864 33.1451 41.8963 33.1747 41.9062C33.2242 41.926 33.2638 41.926 33.3033 41.9458C33.3231 41.9557 33.3429 41.9556 33.3726 41.9655H33.3825L33.4023 41.9754H33.422C33.4616 41.9952 33.5012 42.0051 33.5506 42.0051C33.5902 42.015 33.6396 42.0347 33.6792 42.0446C33.7188 42.0545 33.7583 42.0644 33.7979 42.0743C33.8375 42.0842 33.8671 42.0941 33.9166 42.0941C33.9265 42.104 33.9463 42.104 33.9661 42.1139C33.9859 42.1139 33.9957 42.1238 34.0155 42.1238C34.0452 42.1238 34.0748 42.1238 34.1045 42.1435C34.1045 42.1435 34.1243 42.1435 34.1441 42.1534C34.1342 42.1435 34.1243 42.1435 34.1243 42.1435C34.1342 42.1435 34.1639 42.1534 34.1837 42.1633C34.2529 42.1732 34.332 42.193 34.4012 42.2029C34.4309 42.2029 34.4507 42.2128 34.4705 42.2128C34.4804 42.2128 34.4903 42.2227 34.5002 42.2227C34.5595 42.2326 34.609 42.2325 34.6683 42.2424C34.7178 42.2523 34.7771 42.2622 34.8167 42.2721C34.8365 42.2721 34.8365 42.282 34.8563 42.282C34.876 42.282 34.8958 42.2919 34.9255 42.2919C34.975 42.2919 35.0343 42.2919 35.0837 42.3117C35.1332 42.3117 35.1827 42.3216 35.2321 42.3314C35.2816 42.3413 35.3311 42.3413 35.3805 42.3413C35.43 42.3413 35.4794 42.3512 35.5387 42.3611H35.5585H35.5486H35.5585C35.5783 42.3611 35.5882 42.3611 35.6179 42.3611V42.371C35.6575 42.371 35.7069 42.371 35.7465 42.371C35.786 42.371 35.8058 42.371 35.8355 42.3809C35.8454 42.3809 35.8553 42.3809 35.8553 42.3809C35.9146 42.3809 35.964 42.3809 36.0135 42.3809C36.0728 42.3809 36.1223 42.3908 36.1817 42.3908C36.2114 42.3908 36.2311 42.3908 36.2608 42.3908C36.3102 42.3908 36.3498 42.3908 36.4092 42.3908C36.4982 42.3908 36.5971 42.3908 36.6861 42.3908C36.7257 42.3908 36.7554 42.3908 36.785 42.3908C36.8147 42.3908 36.8542 42.3908 36.8839 42.3908C36.9136 42.3908 36.9334 42.3908 36.973 42.3908H36.9829C37.0125 42.3908 37.0521 42.3809 37.0818 42.3809C37.2598 42.3809 37.4378 42.3611 37.6159 42.3413C37.6455 42.3413 37.6752 42.3413 37.7049 42.3314C37.7247 42.3314 37.7544 42.3314 37.784 42.3314C37.8038 42.3314 37.8236 42.3215 37.8335 42.3215C37.8533 42.3117 37.883 42.3117 37.9027 42.3117C38.1599 42.282 38.4171 42.2523 38.6644 42.2029C38.6644 42.2029 38.6841 42.193 38.7039 42.193C38.694 42.193 38.6841 42.193 38.6742 42.2029C38.7336 42.1831 38.8127 42.1732 38.872 42.1633C38.9314 42.1534 39.0006 42.1337 39.0699 42.1238C39.3765 42.0644 39.6831 41.9754 39.9699 41.8864C39.9798 41.8765 39.9897 41.8765 39.9897 41.8765C40.5733 41.6886 41.1272 41.4612 41.6119 41.1645L70.6226 24.3125V24.2927V24.2828C70.7215 24.2235 70.8105 24.174 70.8995 24.1048C70.8402 24.1444 70.7808 24.1839 70.7116 24.2235C70.761 24.1938 70.8204 24.1641 70.8699 24.1246C70.8896 24.1048 70.9094 24.085 70.9292 24.0751C70.9886 24.0257 71.0676 23.9762 71.127 23.9367C71.1764 23.8971 71.2259 23.8576 71.2754 23.8279L71.2853 23.818C71.3051 23.7982 71.3248 23.7784 71.3446 23.7587C71.4139 23.7092 71.4831 23.6598 71.5425 23.6103C71.5721 23.5807 71.6117 23.551 71.6413 23.5114C71.6611 23.4916 71.6809 23.4719 71.7007 23.4521C71.7304 23.4323 71.7402 23.4125 71.76 23.3829C71.7996 23.3433 71.8392 23.3037 71.8787 23.2642C71.9282 23.2048 71.9579 23.1554 72.0073 23.1059C72.0172 23.0862 72.037 23.0763 72.0469 23.0664C72.0469 23.0664 72.0469 23.0565 72.0568 23.0565C72.0666 23.0367 72.0766 23.0268 72.0766 23.0169C72.0864 22.9972 72.1062 22.9774 72.1161 22.9576C72.1359 22.9378 72.1458 22.918 72.1557 22.8983C72.1953 22.8587 72.215 22.8093 72.2447 22.7598C72.2842 22.7005 72.3139 22.6609 72.3337 22.6016L72.3436 22.5917C72.3337 22.6016 72.3238 22.6312 72.3139 22.651C72.3238 22.6214 72.3436 22.5917 72.3535 22.562C72.3634 22.5521 72.3634 22.5323 72.3733 22.5225C72.3733 22.5225 72.3832 22.5126 72.3832 22.5027C72.3931 22.4829 72.3931 22.473 72.3931 22.4631C72.3931 22.4631 72.403 22.4532 72.403 22.4433C72.4326 22.384 72.4524 22.3247 72.4722 22.2752C72.4722 22.2653 72.4821 22.2455 72.4821 22.2455H72.492V22.2357C72.492 22.206 72.5118 22.1961 72.5118 22.1664C72.5118 22.1664 72.5118 22.1467 72.5316 22.1467C72.5316 22.1269 72.5415 22.0972 72.5415 22.0774C72.5612 22.0379 72.5612 21.9983 72.581 21.9588C72.5909 21.939 72.5909 21.9093 72.5909 21.8796V21.8697C72.6008 21.85 72.6106 21.8401 72.6106 21.8203C72.6106 21.8203 72.6106 21.8302 72.6106 21.8401C72.6106 21.8302 72.6106 21.8104 72.6106 21.8104V21.7906L72.6206 21.7807C72.6206 21.761 72.6206 21.761 72.6305 21.7511V21.7412V21.7214C72.6403 21.6621 72.6503 21.6225 72.6503 21.5632C72.6503 21.5335 72.6503 21.4939 72.6602 21.4643C72.6602 21.4346 72.6602 21.4049 72.6602 21.3753C72.6602 21.3851 72.6602 21.4148 72.6602 21.4247C72.6602 21.4049 72.6602 21.3851 72.6602 21.3654V21.3555V21.3159H72.6503ZM68.9015 22.6609L39.8909 39.5129C38.0313 40.5909 35.0046 40.5909 33.1451 39.5129C33.0165 39.5821 33.0264 39.5821 33.1451 39.5129L3.94649 22.6609C3.8179 22.7301 3.8179 22.7301 3.94649 22.6609C2.07706 21.5829 2.0771 19.8325 3.91685 18.7545L32.9275 1.89263C34.7771 0.814655 37.8038 0.814655 39.6633 1.89263H39.6732L68.8421 18.7347C70.7116 19.8127 70.7215 21.5632 68.8619 22.6411C68.9905 22.7005 68.9213 22.6807 68.9015 22.6609Z" fill="#FDFCFF"/>
<path d="M72.6601 21.5829C72.6502 21.662 72.6403 21.7412 72.6304 21.8203C72.6205 21.8796 72.6007 21.939 72.5909 21.9884C72.5612 22.0675 72.5513 22.1367 72.5216 22.2159C72.5018 22.2752 72.4721 22.3345 72.4524 22.3939C72.4227 22.473 72.393 22.5422 72.3535 22.6213C72.3238 22.6708 72.2842 22.7202 72.2545 22.7796C72.2051 22.8686 72.1457 22.9477 72.0864 23.0367C72.0567 23.0862 72.0073 23.1257 71.9677 23.1752C71.8787 23.2839 71.7798 23.3927 71.6611 23.5015C71.6215 23.5411 71.582 23.5806 71.5424 23.6103C71.4732 23.6795 71.394 23.7389 71.3248 23.7982C71.2555 23.8477 71.1962 23.907 71.1269 23.9565C71.0478 24.0158 70.9588 24.0652 70.8796 24.1246C70.7906 24.174 70.7016 24.2432 70.5928 24.2927C70.5928 24.2927 40.7712 41.5501 40.7019 41.5798C40.5239 41.649 39.7029 41.9259 39.5743 41.9655C39.4853 41.9952 39.3863 42.0149 39.2874 42.0446C39.149 42.0743 38.7138 42.1633 38.6247 42.1831C38.3577 42.2226 37.6554 42.3017 37.5763 42.3116C37.4081 42.3314 37.24 42.3413 37.0619 42.3512C36.963 42.3611 36.4883 42.3611 36.3696 42.3611C36.2608 42.3611 35.4596 42.3116 35.3607 42.3017C35.242 42.2918 35.1134 42.2721 34.9947 42.2622C34.8859 42.2523 34.0946 42.1138 34.0056 42.0941C33.8474 42.0644 33.4022 41.9358 33.3132 41.9161C33.0561 41.8468 32.789 41.7578 32.5418 41.6589C32.5022 41.649 32.4725 41.6292 32.4428 41.6194C32.0966 41.471 31.7801 41.3227 31.4636 41.1545L2.26502 24.3026C0.860478 23.4916 0.148314 22.4137 0.158205 21.3555C0.158205 21.3555 0.148314 63.7029 0.158205 63.8018C0.158205 63.8216 0.178016 63.9106 0.187907 63.9502C0.197798 63.9996 0.217549 64.1084 0.217549 64.1084C0.237331 64.2172 0.267021 64.2963 0.296695 64.3754L0.306595 64.3853C0.445071 64.7809 0.642876 65.0578 0.722005 65.1864C0.979174 65.5523 1.26605 65.7896 1.56279 66.0567C1.73093 66.1951 29.0403 81.9691 31.5526 83.4229C31.5526 83.4328 31.5526 83.4427 31.5526 83.4427C31.5625 83.4526 31.5625 83.4625 31.5724 83.4625C31.701 83.5416 33.6297 84.2734 33.6297 84.2734C33.7287 84.2932 34.3024 84.4316 34.3221 84.4316C34.3221 84.4316 34.7771 84.5009 34.9255 84.5306L35.0541 84.5503C36.0234 84.669 37.0026 84.669 37.9621 84.5503C38.0115 84.5404 38.5061 84.4613 38.5753 84.4514L38.6148 84.4415C38.7731 84.4218 39.9106 84.1152 39.9304 84.1152C39.9996 84.0855 40.0689 84.0657 40.1282 84.0459L40.2172 84.0163C40.2766 83.9866 40.8799 83.7493 41.0382 83.6603C41.0382 83.6603 41.3943 83.4723 41.4833 83.4328L70.9489 66.2841C70.9489 66.2841 70.9885 66.2545 71.0082 66.2446C71.0874 66.1951 71.2358 66.0765 71.2358 66.0765C71.2358 66.0765 72.0369 65.2952 72.2446 64.949C72.2545 64.9292 72.2644 64.9095 72.2743 64.8798L72.2842 64.86L72.304 64.8304L72.3139 64.8205C72.3238 64.7908 72.3337 64.7809 72.3337 64.771C72.3535 64.7216 72.3732 64.6919 72.3831 64.6623L72.4029 64.6326L72.4128 64.6128C72.4326 64.5534 72.4524 64.5139 72.4524 64.5139L72.4623 64.4743C72.482 64.4348 72.4919 64.3952 72.5018 64.3655L72.5117 64.3359C72.5117 64.3557 72.5018 64.3557 72.5018 64.3557C72.5216 64.3161 72.5315 64.2765 72.5414 64.237L72.5512 64.2172V64.2073C72.5908 64.0689 72.6007 63.97 72.6106 63.9106L72.6008 63.9502C72.6008 63.9502 72.6007 63.9403 72.6106 63.9304L72.6205 63.9205C72.6205 63.9007 72.6304 63.881 72.6304 63.8513C72.6304 63.8018 72.6403 63.7326 72.6502 63.6634C72.6502 63.6436 72.6502 63.6238 72.6502 63.5942C72.6502 63.5843 72.6502 63.5645 72.6502 63.5348L72.6601 21.4148C72.67 21.4445 72.6601 21.5137 72.6601 21.5829Z" fill="url(#paint2_linear_530_2199)"/>
<path d="M58.476 33.233C58.476 33.2725 58.4661 33.322 58.4562 33.3714C58.4562 33.4011 58.4464 33.4406 58.4365 33.4703C58.4266 33.5099 58.4167 33.5593 58.3969 33.6087C58.387 33.6483 58.3673 33.678 58.3574 33.7175C58.3376 33.7571 58.3178 33.8065 58.298 33.856C58.2782 33.8955 58.2585 33.9153 58.2387 33.9549C58.209 34.0043 58.1793 34.0538 58.1299 34.1131C58.1101 34.1428 58.0804 34.1725 58.0606 34.1923C58.0013 34.2615 57.9419 34.3208 57.8727 34.39C57.8529 34.4197 57.8331 34.4395 57.8035 34.4593C57.7639 34.4988 57.7144 34.5384 57.665 34.5779C57.6254 34.6076 57.5858 34.6373 57.5463 34.6768C57.4968 34.7164 57.4474 34.7461 57.3881 34.7757C57.3386 34.8153 57.2792 34.845 57.2199 34.8845C57.2199 34.8845 39.1092 45.3675 39.0598 45.3873C38.951 45.4368 38.4465 45.595 38.3773 45.6247C38.3179 45.6346 38.2586 45.6544 38.2092 45.6741C38.1201 45.684 37.8629 45.7434 37.8036 45.7532C37.6354 45.7829 37.2102 45.8225 37.1607 45.8324C37.0519 45.8423 36.953 45.8521 36.8442 45.8521C36.7848 45.862 36.498 45.862 36.4189 45.862C36.3595 45.862 35.8749 45.8324 35.8056 45.8225C35.7265 45.8126 35.6572 45.8027 35.5781 45.7928C35.5187 45.7829 35.0341 45.7038 34.9747 45.6939C34.8857 45.6741 34.6088 45.6049 34.5593 45.5851C34.4011 45.5456 34.2428 45.4862 34.0944 45.4368C34.0746 45.417 34.0549 45.4071 34.0351 45.4071C33.8274 45.3181 33.6296 45.2291 33.4416 45.1203L15.697 34.8845C14.8463 34.39 14.4111 33.7373 14.4111 33.0846C14.4111 33.0846 14.4111 58.8175 14.421 58.8768C14.421 58.8768 14.4309 58.9461 14.4408 58.9658C14.4408 58.9955 14.4606 59.0647 14.4606 59.0647C14.4705 59.1241 14.4902 59.1735 14.51 59.2328C14.599 59.4801 14.7177 59.6482 14.7573 59.7175C14.9254 59.9449 15.0936 60.0932 15.2717 60.2515C15.3706 60.3405 31.9678 69.9236 33.4911 70.8137V70.8235C33.501 70.8334 33.501 70.8334 33.501 70.8334C33.5801 70.873 34.7473 71.3279 34.7473 71.3279C34.8066 71.3477 35.1528 71.4268 35.1726 71.4268C35.1726 71.4268 35.4396 71.4663 35.5385 71.496L35.6276 71.5059C36.2112 71.5751 36.8046 71.5751 37.3882 71.5059C37.4179 71.5059 37.7245 71.4565 37.764 71.4466H37.7838C37.8828 71.4367 38.5751 71.2389 38.5751 71.2389C38.6246 71.229 38.6642 71.2092 38.7037 71.1993L38.7532 71.1796C38.7927 71.1598 39.1488 71.0213 39.2477 70.962C39.2477 70.962 39.4752 70.8532 39.5247 70.8235L57.4276 60.3998C57.4276 60.3998 57.4573 60.3899 57.4573 60.38C57.5067 60.3504 57.5957 60.2811 57.5957 60.2811C57.5957 60.2811 58.0903 59.8064 58.209 59.5988C58.2189 59.579 58.2189 59.5691 58.2288 59.5592L58.2387 59.5394L58.2486 59.5197L58.2585 59.5098C58.2684 59.49 58.2683 59.4801 58.2683 59.4801C58.2881 59.4405 58.298 59.4208 58.3079 59.401L58.3178 59.3812L58.3277 59.3713C58.3375 59.3318 58.3574 59.312 58.3574 59.312L58.3673 59.2823C58.3772 59.2625 58.387 59.2329 58.387 59.2131L58.3969 59.1933V59.2131C58.4068 59.1834 58.4167 59.1537 58.4167 59.1241L58.4266 59.1142V59.1043C58.4464 59.0153 58.4562 58.9559 58.4562 58.9263V58.9461V58.9362V58.9263C58.4562 58.9263 58.4661 58.8966 58.4661 58.8867C58.4661 58.8471 58.4662 58.8076 58.476 58.768C58.476 58.7482 58.486 58.7384 58.486 58.7285C58.486 58.7285 58.486 58.7087 58.486 58.6988L58.4958 33.1044C58.486 33.144 58.476 33.1934 58.476 33.233Z" fill="url(#paint3_linear_530_2199)"/>
<path d="M48.1996 45.6841C48.1996 45.7138 37.171 52.4981 37.1314 52.5079C37.1017 52.5178 37.0622 52.5277 37.0325 52.5277C36.9929 52.5376 36.8445 52.5772 36.8149 52.5772C36.7259 52.5871 36.35 52.6266 36.2907 52.6266C36.261 52.6266 35.7565 52.6167 35.717 52.6068C35.6774 52.6068 35.6378 52.5969 35.5983 52.5969C35.5686 52.5871 35.0642 52.4882 35.0345 52.4783C34.9455 52.4486 34.7575 52.3794 34.7378 52.3794C34.629 52.3299 23.9268 45.9412 23.9268 45.5852C23.9268 45.5852 23.9169 59.7669 23.9268 59.7966L23.9367 59.846C23.9367 59.8658 23.9466 59.9054 23.9466 59.9054C23.9565 59.9351 23.9663 59.9647 23.9762 59.9944C24.0257 60.1329 24.0949 60.2218 24.1246 60.2614C24.2136 60.3801 24.3026 60.4691 24.4114 60.5581C24.4609 60.6075 33.6102 65.8886 34.4509 66.3732V66.3831C34.4905 66.4128 35.1433 66.6501 35.1433 66.6501C35.1729 66.66 35.3708 66.7094 35.3708 66.7094C35.3708 66.7094 35.529 66.7292 35.5785 66.7391H35.6181C35.9445 66.7787 36.2709 66.7787 36.5973 66.7391C36.6072 66.7391 36.7754 66.7094 36.805 66.7094H36.8149C36.8643 66.6995 37.2501 66.5908 37.2501 66.5908C37.2798 66.5908 37.3094 66.5809 37.3292 66.571L37.3589 66.5611C37.3787 66.5512 37.5765 66.4721 37.6359 66.4424C37.6359 66.4424 37.7546 66.3831 37.7842 66.3633L47.6457 60.6273L47.6655 60.6174C47.6951 60.5976 47.7446 60.5581 47.7446 60.5581C47.7446 60.5581 48.0116 60.2911 48.0809 60.1823C48.0809 60.1823 48.0908 60.1724 48.0908 60.1625L48.1007 60.1526V60.1427C48.1106 60.1328 48.1106 60.1328 48.1106 60.1328C48.1205 60.1131 48.1303 60.1032 48.1303 60.0933L48.1402 60.0834C48.1501 60.0636 48.16 60.0537 48.16 60.0537V60.0339C48.1699 60.024 48.1699 60.0043 48.1699 59.9944V59.9746V59.9845C48.1798 59.9746 48.1798 59.9647 48.1798 59.9449V59.9351C48.1897 59.8856 48.1996 59.846 48.1996 59.8362V59.8559V59.846C48.1996 59.8361 48.2095 59.8263 48.2095 59.8263C48.2095 59.8065 48.2095 59.7867 48.2095 59.757C48.2095 59.757 48.2095 59.7372 48.2095 59.7274V59.6977V45.5951C48.1996 45.6347 48.1996 45.6643 48.1996 45.6841Z" fill="url(#paint4_linear_530_2199)" stroke="white" stroke-width="0.3266" stroke-miterlimit="10"/>
<path d="M2.78949 28.9409C2.4631 28.7431 2.17627 28.9013 2.17627 29.2969C2.17627 29.6826 2.44331 30.1474 2.77959 30.3452C3.11588 30.5331 3.38291 30.3847 3.38291 29.999C3.3928 29.6035 3.12578 29.1386 2.78949 28.9409Z" fill="#437FEC"/>
<path d="M7.52728 31.6802C7.191 31.4825 6.91406 31.6407 6.91406 32.0264C6.91406 32.4121 7.1811 32.8868 7.51738 33.0846C7.85367 33.2725 8.1306 33.1241 8.1306 32.7384C8.14049 32.3429 7.86357 31.878 7.52728 31.6802Z" fill="#437FEC"/>
<path d="M9.90121 33.0451C9.57479 32.8571 9.29785 33.0055 9.29785 33.3912C9.29785 33.7769 9.5649 34.2417 9.90121 34.4395C10.2375 34.6373 10.5145 34.4791 10.5145 34.0934C10.5145 33.7077 10.2375 33.2429 9.90121 33.0451Z" fill="#437FEC"/>
<path d="M2.77921 31.4035C2.44294 31.2057 2.17591 31.3738 2.16602 31.7595C2.16602 32.1452 2.43304 32.61 2.76931 32.8078C3.10558 33.0055 3.38251 32.8473 3.38251 32.4616C3.38251 32.076 3.11548 31.6012 2.77921 31.4035Z" fill="#437FEC"/>
<path d="M7.52726 34.1527C7.19099 33.9648 6.92395 34.1132 6.91406 34.4989C6.91406 34.8846 7.18109 35.3593 7.51736 35.5472C7.85363 35.7351 8.13055 35.5868 8.13055 35.2011C8.13055 34.8153 7.85364 34.3406 7.52726 34.1527Z" fill="#437FEC"/>
<path d="M9.90128 35.5175C9.56501 35.3296 9.28809 35.4879 9.28809 35.8735C9.28809 36.2592 9.565 36.724 9.89138 36.9218C10.2277 37.1196 10.4947 36.9614 10.4947 36.5757C10.5046 36.19 10.2277 35.7054 9.90128 35.5175Z" fill="#437FEC"/>
<path d="M2.76953 33.8856C2.43321 33.6878 2.16614 33.856 2.15625 34.2318C2.15625 34.6174 2.4332 35.0921 2.75963 35.28C3.09595 35.4778 3.36302 35.3196 3.37291 34.9339C3.3828 34.5482 3.10585 34.0735 2.76953 33.8856Z" fill="#437FEC"/>
<path d="M7.51736 36.6252C7.18109 36.4274 6.91406 36.5856 6.91406 36.9713C6.91406 37.357 7.18109 37.8317 7.51736 38.0196C7.84375 38.2075 8.12073 38.0493 8.12073 37.6636C8.12073 37.2878 7.85364 36.8131 7.51736 36.6252Z" fill="#437FEC"/>
<path d="M9.89109 37.9899C9.55478 37.7922 9.27783 37.9504 9.27783 38.336C9.27783 38.7217 9.54488 39.1866 9.88119 39.3843C10.2175 39.5722 10.4944 39.414 10.4944 39.0382C10.4944 38.6525 10.2274 38.1778 9.89109 37.9899Z" fill="#437FEC"/>
<path d="M2.76948 36.3481C2.43319 36.1602 2.15625 36.3086 2.15625 36.6943C2.15625 37.08 2.42329 37.5547 2.75958 37.7426C3.09586 37.9404 3.3728 37.7723 3.3728 37.3965C3.3728 37.0206 3.10576 36.5459 2.76948 36.3481Z" fill="#437FEC"/>
<path d="M7.50729 39.0976C7.17103 38.8998 6.89404 39.0581 6.89404 39.4437C6.89404 39.8294 7.17102 40.2942 7.49739 40.492C7.83366 40.6799 8.11058 40.5316 8.11058 40.1459C8.12047 39.7602 7.84356 39.2855 7.50729 39.0976Z" fill="#437FEC"/>
<path d="M9.88119 40.4623C9.54488 40.2744 9.27783 40.4227 9.27783 40.8084C9.27783 41.1941 9.54488 41.6688 9.88119 41.8567C10.2175 42.0545 10.4846 41.8963 10.4944 41.5106C10.4944 41.1249 10.2175 40.6502 9.88119 40.4623Z" fill="#437FEC"/>
<path d="M2.75974 38.8206C2.42343 38.6327 2.15638 38.781 2.14648 39.1766C2.14648 39.5623 2.41353 40.0271 2.74984 40.2249C3.08614 40.4128 3.35325 40.2546 3.35325 39.8689C3.36314 39.4931 3.09604 39.0184 2.75974 38.8206Z" fill="#437FEC"/>
<path d="M7.5073 41.56C7.17103 41.3622 6.90393 41.5205 6.89404 41.9062C6.89404 42.2919 7.17102 42.7567 7.4974 42.9545C7.83367 43.1523 8.1106 42.994 8.1106 42.6083C8.1106 42.2226 7.83368 41.7578 7.5073 41.56Z" fill="#437FEC"/>
<path d="M9.87155 42.9348C9.53525 42.7469 9.2583 42.9051 9.2583 43.2809C9.2583 43.6665 9.53524 44.1413 9.86165 44.3292C10.198 44.5269 10.475 44.3786 10.475 43.983C10.4849 43.5973 10.2079 43.1227 9.87155 42.9348Z" fill="#437FEC"/>
<path d="M2.74995 41.293C2.41366 41.0953 2.13672 41.2535 2.13672 41.6392C2.13672 42.0249 2.40382 42.4896 2.74011 42.6874C3.07639 42.8852 3.34344 42.727 3.35333 42.3413C3.35333 41.9556 3.08623 41.4908 2.74995 41.293Z" fill="#437FEC"/>
<path d="M7.4975 44.0325C7.16122 43.8446 6.88428 43.9929 6.88428 44.3786C6.88428 44.7643 7.15132 45.2291 7.4876 45.4269C7.82389 45.6247 8.10083 45.4665 8.10083 45.0808C8.10083 44.705 7.83379 44.2303 7.4975 44.0325Z" fill="#437FEC"/>
<path d="M9.87143 45.3972C9.53512 45.1994 9.26807 45.3676 9.26807 45.7433C9.26807 46.129 9.53512 46.6037 9.87143 46.7916C10.2077 46.9894 10.4749 46.8312 10.4749 46.4455C10.4749 46.0697 10.1978 45.595 9.87143 45.3972Z" fill="#437FEC"/>
<path d="M2.74011 43.7655C2.40382 43.5677 2.13672 43.7259 2.13672 44.1116C2.13672 44.4973 2.41371 44.972 2.74011 45.1599C3.07639 45.3577 3.35333 45.1994 3.35333 44.8137C3.35333 44.4379 3.07639 43.9632 2.74011 43.7655Z" fill="#437FEC"/>
<path d="M7.4876 46.5049C7.15132 46.317 6.88428 46.4653 6.88428 46.851C6.88428 47.2368 7.15132 47.7016 7.4876 47.8994C7.82389 48.0873 8.10083 47.9389 8.10083 47.5532C8.09094 47.1675 7.82389 46.7027 7.4876 46.5049Z" fill="#437FEC"/>
<path d="M9.86166 47.8796C9.52535 47.6818 9.2583 47.84 9.2583 48.2257C9.2583 48.6114 9.52535 49.0862 9.86166 49.2741C10.198 49.4719 10.475 49.3136 10.475 48.9279C10.4651 48.5422 10.198 48.0675 9.86166 47.8796Z" fill="#437FEC"/>
<path d="M2.7402 46.2379C2.4039 46.0401 2.12695 46.1983 2.12695 46.5939C2.12695 46.9697 2.39401 47.4444 2.7402 47.6422C3.07651 47.84 3.34356 47.6818 3.35345 47.2961C3.34356 46.9005 3.07651 46.4357 2.7402 46.2379Z" fill="#437FEC"/>
<path d="M7.4776 48.9773C7.14132 48.7894 6.87428 48.9377 6.87428 49.3234C6.86439 49.7091 7.14132 50.1838 7.4776 50.3718C7.81388 50.5695 8.09082 50.4113 8.09082 50.0256C8.08093 49.6399 7.81388 49.1652 7.4776 48.9773Z" fill="#437FEC"/>
<path d="M9.85171 50.342C9.51541 50.1541 9.2483 50.3025 9.2483 50.6882C9.23841 51.0739 9.51541 51.5485 9.85171 51.7364C10.1781 51.9342 10.4551 51.776 10.4551 51.3903C10.4649 51.0145 10.1979 50.5398 9.85171 50.342Z" fill="#437FEC"/>
<path d="M2.72999 48.7103C2.39367 48.5125 2.12659 48.6707 2.1167 49.0564C2.1167 49.4421 2.39366 49.9168 2.72009 50.1146C3.05641 50.3025 3.33337 50.1442 3.33337 49.7684C3.33337 49.3729 3.06631 48.8982 2.72999 48.7103Z" fill="#437FEC"/>
<path d="M7.47755 51.4497C7.14122 51.2618 6.86426 51.4102 6.86426 51.7958C6.86426 52.1815 7.13132 52.6463 7.46764 52.8441C7.80397 53.0419 8.08093 52.8837 8.08093 52.498C8.08093 52.1123 7.81387 51.6376 7.47755 51.4497Z" fill="#437FEC"/>
<path d="M9.84164 52.8144C9.50533 52.6166 9.23828 52.7749 9.23828 53.1605C9.23828 53.5462 9.50533 54.0209 9.84164 54.2089C10.1779 54.4066 10.445 54.2484 10.4549 53.8627C10.4549 53.477 10.1779 53.0122 9.84164 52.8144Z" fill="#437FEC"/>
<path d="M2.72999 51.1728C2.39367 50.9849 2.1167 51.1431 2.1167 51.5189C2.1167 51.9046 2.38376 52.3794 2.72009 52.5771C3.05641 52.7651 3.33337 52.6167 3.33337 52.2211C3.33337 51.8354 3.05642 51.3706 2.72999 51.1728Z" fill="#437FEC"/>
<path d="M7.46778 53.9122C7.13146 53.7243 6.86438 53.8825 6.85449 54.2682C6.85449 54.6539 7.13145 55.1286 7.45788 55.3165C7.7843 55.5143 8.06132 55.3561 8.06132 54.9704C8.07121 54.5847 7.8041 54.11 7.46778 53.9122Z" fill="#437FEC"/>
<path d="M9.84171 55.2869C9.50544 55.0891 9.23841 55.2474 9.22852 55.6331C9.22852 56.0188 9.50543 56.4836 9.83181 56.6814C10.1681 56.8791 10.445 56.7209 10.445 56.3352C10.445 55.9495 10.178 55.4847 9.84171 55.2869Z" fill="#437FEC"/>
<path d="M2.71035 53.6551C2.3839 53.4573 2.10693 53.6155 2.10693 54.0012C2.10693 54.3869 2.37401 54.8517 2.71035 55.0495C3.04669 55.2374 3.32367 55.0891 3.32367 54.7034C3.32367 54.3078 3.05658 53.843 2.71035 53.6551Z" fill="#437FEC"/>
<path d="M7.45788 56.3846C7.12156 56.1868 6.85449 56.345 6.85449 56.7307C6.85449 57.1164 7.12156 57.5813 7.45788 57.779C7.7942 57.967 8.07117 57.8186 8.07117 57.423C8.07117 57.0472 7.7942 56.5824 7.45788 56.3846Z" fill="#437FEC"/>
<path d="M9.83198 57.7592C9.49569 57.5614 9.21875 57.7197 9.21875 58.1054C9.21875 58.4911 9.48579 58.9658 9.82208 59.1537C10.1584 59.3515 10.4353 59.1933 10.4353 58.8076C10.4353 58.4218 10.1683 57.957 9.83198 57.7592Z" fill="#437FEC"/>
<path d="M2.71042 56.1177C2.37412 55.9298 2.09717 56.0781 2.09717 56.4638C2.09717 56.8495 2.37411 57.3242 2.70052 57.522C3.03682 57.7198 3.30393 57.5516 3.30393 57.166C3.31382 56.7902 3.04672 56.3155 2.71042 56.1177Z" fill="#437FEC"/>
<path d="M7.45798 58.8569C7.12168 58.669 6.85462 58.8174 6.84473 59.2031C6.84473 59.5888 7.12167 60.0536 7.44808 60.2514C7.78439 60.4492 8.0614 60.291 8.0614 59.9053C8.0614 59.5196 7.7844 59.0547 7.45798 58.8569Z" fill="#437FEC"/>
<path d="M9.82181 60.2218C9.48547 60.0339 9.21839 60.1822 9.2085 60.5679C9.2085 60.9536 9.47557 61.4284 9.81191 61.6163C10.1482 61.8141 10.4252 61.6558 10.4252 61.2701C10.4351 60.8943 10.1581 60.4196 9.82181 60.2218Z" fill="#437FEC"/>
<path d="M2.70049 58.5901C2.36421 58.4022 2.09717 58.5505 2.09717 58.9362C2.09717 59.3219 2.36421 59.7966 2.70049 59.9845C3.03678 60.1823 3.31372 60.0241 3.31372 59.6384C3.30383 59.2626 3.03678 58.7879 2.70049 58.5901Z" fill="#437FEC"/>
<path d="M7.44822 61.3294C7.11191 61.1316 6.83496 61.2899 6.83496 61.6756C6.83496 62.0613 7.10207 62.536 7.43838 62.7239C7.77468 62.9217 8.05164 62.7634 8.05164 62.3777C8.05164 61.9921 7.78452 61.5173 7.44822 61.3294Z" fill="#437FEC"/>
<path d="M9.82184 62.6942C9.48549 62.4964 9.2085 62.6546 9.2085 63.0403C9.2085 63.426 9.47559 63.9007 9.81194 64.0886C10.1483 64.2864 10.4154 64.1282 10.4154 63.7425C10.4253 63.3667 10.1582 62.892 9.82184 62.6942Z" fill="#437FEC"/>
<path d="M2.69034 61.0625C2.35407 60.8746 2.08704 61.023 2.07715 61.4185C2.07715 61.8042 2.34418 62.269 2.69034 62.4569C3.02661 62.6547 3.2937 62.4965 3.30359 62.1108C3.30359 61.7251 3.02661 61.2603 2.69034 61.0625Z" fill="#437FEC"/>
<path d="M7.43838 63.8018C7.10208 63.604 6.83496 63.7623 6.83496 64.1579C6.83496 64.5436 7.10208 65.0084 7.43838 65.2062C7.77469 65.3941 8.04175 65.2458 8.04175 64.8601C8.04175 64.4645 7.77469 63.9897 7.43838 63.8018Z" fill="#437FEC"/>
<path d="M9.81191 65.1667C9.47557 64.9689 9.2085 65.1271 9.2085 65.5128C9.2085 65.9084 9.47557 66.3732 9.81191 66.5611C10.1483 66.7588 10.4153 66.6006 10.4252 66.2149C10.4153 65.8391 10.1483 65.3645 9.81191 65.1667Z" fill="#437FEC"/>
<path d="M69.178 28.9804C69.5144 28.7826 69.7913 28.9409 69.7913 29.3266C69.7913 29.7123 69.5243 30.187 69.1879 30.3848C68.8516 30.5727 68.5845 30.4144 68.5845 30.0287C68.5647 29.643 68.8318 29.1683 69.178 28.9804Z" fill="#437FEC"/>
<path d="M64.4303 31.72C64.7666 31.5321 65.0436 31.6804 65.0436 32.0661C65.0436 32.4518 64.7765 32.9265 64.4402 33.1144C64.1039 33.3023 63.8269 33.154 63.8269 32.7683C63.817 32.3826 64.094 31.9079 64.4303 31.72Z" fill="#437FEC"/>
<path d="M62.0566 33.0847C62.3829 32.8968 62.65 33.0452 62.6599 33.4308C62.6599 33.8165 62.3928 34.2813 62.0566 34.4791C61.7203 34.6769 61.4434 34.5187 61.4434 34.133C61.4434 33.7473 61.7203 33.2825 62.0566 33.0847Z" fill="#437FEC"/>
<path d="M69.178 31.4528C69.5143 31.255 69.7913 31.4133 69.7913 31.799C69.7913 32.1847 69.5242 32.6594 69.1879 32.8473C68.8516 33.0352 68.5747 32.8868 68.5747 32.5011C68.5747 32.1055 68.8417 31.6407 69.178 31.4528Z" fill="#437FEC"/>
<path d="M64.4306 34.1824C64.7669 33.9847 65.0438 34.1429 65.0438 34.5385C65.0438 34.9242 64.7768 35.389 64.4405 35.5868C64.1042 35.7846 63.8271 35.6264 63.8271 35.2407C63.8271 34.855 64.0943 34.3802 64.4306 34.1824Z" fill="#437FEC"/>
<path d="M62.0566 35.5571C62.3929 35.3692 62.6698 35.5176 62.6698 35.9132C62.6698 36.2989 62.4028 36.7637 62.0665 36.9614C61.7302 37.1493 61.4631 36.9911 61.4631 36.6054C61.4533 36.2197 61.7302 35.745 62.0566 35.5571Z" fill="#437FEC"/>
<path d="M69.188 33.9252C69.5243 33.7275 69.8013 33.8857 69.8013 34.2714C69.8013 34.6571 69.5243 35.1219 69.188 35.3197C68.8517 35.5076 68.5747 35.3493 68.5747 34.9636C68.5747 34.5878 68.8517 34.1131 69.188 33.9252Z" fill="#437FEC"/>
<path d="M64.4404 36.6647C64.7767 36.467 65.0438 36.6252 65.0438 37.0109C65.0438 37.3965 64.7767 37.8613 64.4404 38.0591C64.104 38.2569 63.8369 38.0987 63.8369 37.713C63.8369 37.3174 64.104 36.8526 64.4404 36.6647Z" fill="#437FEC"/>
<path d="M62.0663 38.0294C62.4026 37.8218 62.6697 37.9899 62.6697 38.3756C62.6697 38.7612 62.4026 39.226 62.0762 39.4238C61.7399 39.6216 61.4629 39.4634 61.4629 39.0777C61.4629 38.692 61.73 38.2173 62.0663 38.0294Z" fill="#437FEC"/>
<path d="M69.1982 36.3878C69.5345 36.1999 69.8016 36.3483 69.8016 36.7339C69.8016 37.1196 69.5345 37.5844 69.1982 37.7822C68.8619 37.98 68.585 37.8218 68.585 37.4361C68.585 37.0504 68.852 36.5856 69.1982 36.3878Z" fill="#437FEC"/>
<path d="M64.45 39.1273C64.7863 38.9394 65.0633 39.0976 65.0633 39.4734C65.0633 39.8591 64.7863 40.3338 64.45 40.5217C64.1137 40.7195 63.8467 40.5612 63.8467 40.1755C63.8467 39.7899 64.1137 39.3251 64.45 39.1273Z" fill="#437FEC"/>
<path d="M62.0762 40.4921C62.4125 40.3042 62.6796 40.4525 62.6796 40.8382C62.6796 41.2239 62.4125 41.6986 62.0762 41.8865C61.7399 42.0843 61.4629 41.926 61.4629 41.5404C61.4728 41.1646 61.7399 40.6899 62.0762 40.4921Z" fill="#437FEC"/>
<path d="M69.1982 38.8602C69.5345 38.6624 69.8015 38.8206 69.8015 39.2063C69.8015 39.592 69.5345 40.0569 69.1982 40.2547C68.8618 40.4524 68.5947 40.2942 68.5947 39.9085C68.5947 39.5228 68.8618 39.058 69.1982 38.8602Z" fill="#437FEC"/>
<path d="M64.46 41.5996C64.7963 41.4018 65.0634 41.56 65.0732 41.9457C65.0732 42.3314 64.7963 42.7962 64.4699 42.994C64.1336 43.1918 63.8567 43.0336 63.8567 42.6479C63.8468 42.2622 64.1237 41.7974 64.46 41.5996Z" fill="#437FEC"/>
<path d="M62.0861 42.9743C62.4224 42.7765 62.6993 42.9348 62.6993 43.3205C62.6993 43.7062 62.4322 44.1809 62.0959 44.3787C61.7596 44.5666 61.4827 44.4182 61.4827 44.0325C61.4728 43.6271 61.7399 43.1622 62.0861 42.9743Z" fill="#437FEC"/>
<path d="M69.1981 41.3325C69.5443 41.1446 69.8113 41.293 69.8113 41.6787C69.8113 42.0644 69.5344 42.5391 69.208 42.727C68.8717 42.9149 68.6046 42.7567 68.5947 42.3809C68.6046 41.9952 68.8717 41.5303 69.1981 41.3325Z" fill="#437FEC"/>
<path d="M64.4698 44.0721C64.8061 43.8743 65.0731 44.0325 65.083 44.4182C65.083 44.804 64.816 45.2787 64.4698 45.4666C64.1335 45.6644 63.8665 45.5061 63.8665 45.1204C63.8566 44.7347 64.1236 44.26 64.4698 44.0721Z" fill="#437FEC"/>
<path d="M62.0864 45.4368C62.4227 45.239 62.6996 45.3973 62.6996 45.783C62.6996 46.1687 62.4325 46.6434 62.0963 46.8314C61.76 47.0193 61.4929 46.8709 61.4929 46.4852C61.483 46.1094 61.76 45.6347 62.0864 45.4368Z" fill="#437FEC"/>
<path d="M69.2177 43.805C69.554 43.6072 69.8211 43.7655 69.8211 44.1512C69.8211 44.5369 69.554 45.0116 69.2177 45.1995C68.8814 45.3973 68.6045 45.2391 68.6045 44.8534C68.6045 44.4677 68.8715 43.9929 69.2177 43.805Z" fill="#437FEC"/>
<path d="M64.47 46.5345C64.8063 46.3466 65.0832 46.495 65.0832 46.8807C65.0832 47.2664 64.8063 47.7411 64.4799 47.929C64.1436 48.1268 63.8667 47.9685 63.8667 47.5828C63.8667 47.207 64.1337 46.7323 64.47 46.5345Z" fill="#437FEC"/>
<path d="M62.1062 47.9093C62.4424 47.7115 62.7095 47.8697 62.7095 48.2554C62.7095 48.6411 62.4424 49.1059 62.1062 49.3037C61.7699 49.5015 61.4929 49.3433 61.4929 48.9576C61.483 48.5719 61.76 48.1071 62.1062 47.9093Z" fill="#437FEC"/>
<path d="M69.2275 46.2675C69.5638 46.0796 69.8308 46.2379 69.8407 46.6137C69.8407 46.9994 69.5737 47.4642 69.2275 47.662C68.8912 47.8499 68.6241 47.7015 68.6143 47.3158C68.6143 46.94 68.8912 46.4653 69.2275 46.2675Z" fill="#437FEC"/>
<path d="M64.4799 49.0169C64.8162 48.8191 65.0832 48.9774 65.0832 49.3631C65.0832 49.7488 64.8162 50.2136 64.4799 50.4114C64.1436 50.5993 63.8766 50.441 63.8667 50.0553C63.8766 49.6795 64.1436 49.2048 64.4799 49.0169Z" fill="#437FEC"/>
<path d="M62.1061 50.3817C62.4424 50.1839 62.7095 50.3421 62.7095 50.7278C62.7095 51.1135 62.4424 51.5783 62.1061 51.7761C61.7697 51.9739 61.5027 51.8157 61.5027 51.43C61.4928 51.0443 61.7697 50.5696 62.1061 50.3817Z" fill="#437FEC"/>
<path d="M69.2276 48.7499C69.5639 48.5522 69.8309 48.7104 69.8408 49.0961C69.8408 49.4818 69.5639 49.9565 69.2375 50.1444C68.9012 50.3422 68.6243 50.184 68.6243 49.7983C68.6144 49.4027 68.8913 48.9379 69.2276 48.7499Z" fill="#437FEC"/>
<path d="M64.4798 51.4794C64.8161 51.2915 65.0832 51.4398 65.0931 51.8255C65.0931 52.2112 64.826 52.6859 64.4897 52.8739C64.1534 53.0717 63.8765 52.9134 63.8765 52.5178C63.8765 52.1519 64.1435 51.6772 64.4798 51.4794Z" fill="#437FEC"/>
<path d="M62.1158 52.8541C62.4521 52.6563 62.7291 52.8145 62.7291 53.2002C62.7291 53.5859 62.4521 54.0607 62.1257 54.2486C61.7894 54.4464 61.5125 54.2783 61.5125 53.9024C61.5026 53.5167 61.7795 53.0519 62.1158 52.8541Z" fill="#437FEC"/>
<path d="M69.2373 51.2222C69.5735 51.0244 69.8406 51.1827 69.8406 51.5684C69.8406 51.9541 69.5735 52.4288 69.2373 52.6266C68.901 52.8145 68.624 52.6563 68.624 52.2706C68.6339 51.875 68.901 51.4101 69.2373 51.2222Z" fill="#437FEC"/>
<path d="M64.4897 53.9617C64.826 53.7639 65.103 53.9222 65.103 54.3079C65.103 54.6936 64.826 55.1584 64.4996 55.3562C64.1634 55.5441 63.8963 55.3957 63.8963 55.0002C63.8864 54.6145 64.1535 54.1496 64.4897 53.9617Z" fill="#437FEC"/>
<path d="M62.1161 55.3265C62.4524 55.1287 62.7293 55.2869 62.7293 55.6726C62.7293 56.0583 62.4524 56.533 62.126 56.7209C61.7896 56.9187 61.5127 56.7506 61.5127 56.3748C61.5127 55.9891 61.7797 55.5243 62.1161 55.3265Z" fill="#437FEC"/>
<path d="M69.2475 53.6848C69.5838 53.4969 69.8509 53.6453 69.8509 54.031C69.8509 54.4167 69.5838 54.8914 69.2475 55.0793C68.9112 55.2672 68.6343 55.1188 68.6343 54.7331C68.6343 54.3573 68.9112 53.8826 69.2475 53.6848Z" fill="#437FEC"/>
<path d="M64.5 56.4243C64.8363 56.2265 65.1033 56.3847 65.1132 56.7704C65.1132 57.1561 64.8363 57.621 64.5 57.8188C64.1637 58.0166 63.8867 57.8583 63.8867 57.4726C63.8867 57.0869 64.1637 56.6221 64.5 56.4243Z" fill="#437FEC"/>
<path d="M62.1258 57.789C62.462 57.6011 62.739 57.7593 62.739 58.145C62.739 58.5307 62.4719 58.9956 62.1357 59.1934C61.7994 59.3912 61.5225 59.2329 61.5225 58.8472C61.5225 58.4615 61.7895 57.9868 62.1258 57.789Z" fill="#437FEC"/>
<path d="M69.2476 56.1572C69.5838 55.9594 69.8608 56.1176 69.8608 56.5033C69.8608 56.889 69.5839 57.3538 69.2575 57.5417C68.9212 57.7395 68.6541 57.5813 68.6541 57.1956C68.6442 56.8297 68.9113 56.3451 69.2476 56.1572Z" fill="#437FEC"/>
<path d="M64.5093 58.8967C64.8456 58.7088 65.1127 58.8572 65.1226 59.2429C65.1226 59.6187 64.8456 60.0934 64.5192 60.2912C64.183 60.489 63.906 60.3307 63.906 59.945C63.8961 59.5593 64.1731 59.0846 64.5093 58.8967Z" fill="#437FEC"/>
<path d="M62.1359 60.2615C62.4722 60.0736 62.7393 60.2219 62.7491 60.6076C62.7491 60.9933 62.4821 61.4581 62.1458 61.6559C61.8094 61.8537 61.5325 61.6955 61.5325 61.3098C61.5226 60.934 61.7995 60.4593 62.1359 60.2615Z" fill="#437FEC"/>
<path d="M69.2573 58.6296C69.5936 58.4417 69.8606 58.5901 69.8606 58.9758C69.8606 59.3615 69.5936 59.8362 69.2573 60.0241C68.921 60.2219 68.644 60.0636 68.644 59.6779C68.6539 59.2922 68.921 58.8274 69.2573 58.6296Z" fill="#437FEC"/>
<path d="M64.5096 61.3691C64.8459 61.1713 65.1229 61.3295 65.1229 61.7152C65.1229 62.1009 64.8558 62.5756 64.5195 62.7635C64.1832 62.9613 63.9161 62.8031 63.9062 62.4075C63.9062 62.0317 64.1832 61.5669 64.5096 61.3691Z" fill="#437FEC"/>
<path d="M62.1356 62.7339C62.4719 62.546 62.7389 62.6943 62.7488 63.08C62.7488 63.4657 62.4818 63.9404 62.1455 64.1283C61.8092 64.3162 61.5322 64.158 61.5322 63.7822C61.5322 63.4064 61.8092 62.9317 62.1356 62.7339Z" fill="#437FEC"/>
<path d="M69.2672 61.102C69.5935 60.9042 69.8804 61.0624 69.8804 61.4481C69.8804 61.8338 69.6034 62.3085 69.2771 62.4964C68.9408 62.6942 68.6638 62.5359 68.6638 62.1503C68.6539 61.7646 68.921 61.2899 69.2672 61.102Z" fill="#437FEC"/>
<path d="M64.5195 63.8416C64.8558 63.6537 65.1327 63.802 65.1327 64.1877C65.1327 64.5734 64.8657 65.0382 64.5294 65.236C64.1931 65.4338 63.926 65.2755 63.926 64.8898C63.9162 64.5041 64.1832 64.0295 64.5195 63.8416Z" fill="#437FEC"/>
<path d="M62.1553 65.2063C62.4916 65.0184 62.7587 65.1667 62.7587 65.5525C62.7587 65.9382 62.4916 66.403 62.1553 66.6008C61.819 66.7986 61.542 66.6404 61.542 66.2645C61.542 65.8689 61.8091 65.3942 62.1553 65.2063Z" fill="#437FEC"/>
<defs>
<linearGradient id="paint0_linear_530_2199" x1="1.7043" y1="20.7123" x2="71.1227" y2="20.7123" gradientUnits="userSpaceOnUse">
<stop stop-color="#4CD9ED"/>
<stop offset="1" stop-color="#5FEFC0"/>
</linearGradient>
<linearGradient id="paint1_linear_530_2199" x1="31.851" y1="16.8832" x2="40.9754" y2="24.5405" gradientUnits="userSpaceOnUse">
<stop stop-color="#4CD9ED"/>
<stop offset="1" stop-color="#437FEC"/>
</linearGradient>
<linearGradient id="paint2_linear_530_2199" x1="72.669" y1="52.9905" x2="0.150787" y2="52.9905" gradientUnits="userSpaceOnUse">
<stop stop-color="#B7C0EB"/>
<stop offset="0.5105" stop-color="#E4E7FB"/>
<stop offset="0.8827" stop-color="#EFF1FE"/>
</linearGradient>
<linearGradient id="paint3_linear_530_2199" x1="14.415" y1="52.312" x2="58.4852" y2="52.312" gradientUnits="userSpaceOnUse">
<stop stop-color="#4CD9ED"/>
<stop offset="1" stop-color="#437FEC"/>
</linearGradient>
<linearGradient id="paint4_linear_530_2199" x1="23.926" y1="56.1995" x2="48.2029" y2="56.1995" gradientUnits="userSpaceOnUse">
<stop offset="0.4173" stop-color="#5FEFC0"/>
<stop offset="0.4207" stop-color="#5FEEC1"/>
<stop offset="0.5729" stop-color="#4CD9ED"/>
</linearGradient>
</defs>
</svg>
