<svg width="49" height="54" viewBox="0 0 49 54" fill="none" xmlns="http://www.w3.org/2000/svg">
<path d="M20.113 0.230225L48.9217 5.4874C48.9217 5.4874 49.1391 18.2822 43.1913 33.0615C37.2435 47.8408 29.4435 53.1502 29.4435 53.1502L0.269531 43.7151C0.269531 43.7151 11.4521 34.1582 14.9826 23.3566C18.513 12.5463 20.113 0.230225 20.113 0.230225Z" fill="url(#paint0_linear_740_7)"/>
<path d="M24.2211 11.7781L23.9961 12.6997L40.3747 16.7063L40.5998 15.7847L24.2211 11.7781Z" fill="#2968E5"/>
<path d="M21.9477 20.4022L21.7227 21.3237L38.1014 25.3303L38.3264 24.4087L21.9477 20.4022Z" fill="#2968E5"/>
<path d="M18.6166 28.4378L18.3916 29.3594L34.7703 33.366L34.9953 32.4444L18.6166 28.4378Z" fill="#2968E5"/>
<path d="M13.8988 36.8748L13.6738 37.7964L30.0524 41.803L30.2775 40.8813L13.8988 36.8748Z" fill="#2968E5"/>
<defs>
<linearGradient id="paint0_linear_740_7" x1="0.270749" y1="26.6912" x2="48.9239" y2="26.6912" gradientUnits="userSpaceOnUse">
<stop stop-color="#3F81FF"/>
<stop offset="1" stop-color="#6AAEFF"/>
</linearGradient>
</defs>
</svg>
