<svg width="172" height="212" viewBox="0 0 172 212" fill="none" xmlns="http://www.w3.org/2000/svg">
<path d="M121.87 131.102C121.684 132.917 121.408 134.678 121.141 136.422C120.732 139.01 120.27 141.528 119.754 143.947C118.207 151.526 116.225 158.394 113.896 164.46C112.971 166.862 111.993 169.14 110.988 171.283C103.903 186.219 94.7281 194.741 85.8823 194.741C77.0364 194.741 67.8616 186.228 60.8027 171.283C58.1979 172.386 55.673 173.374 53.1748 174.272C61.4784 191.565 72.9647 202.106 85.8823 202.106C98.7999 202.106 110.313 191.547 118.59 174.254C119.648 172.093 120.626 169.851 121.55 167.503C124.457 160.164 126.813 151.856 128.582 142.844C129.045 140.371 129.48 137.809 129.854 135.221C130.503 130.987 130.992 126.637 131.321 122.162C128.333 125.151 125.186 128.14 121.87 131.102ZM131.916 101.605C129.151 98.5891 126.191 95.5557 123.017 92.5224C123.319 96.8278 123.453 101.276 123.453 105.866C123.453 110.429 123.319 114.877 123.017 119.182C126.191 116.149 129.151 113.115 131.916 110.1C131.943 108.686 131.97 107.28 131.97 105.866C131.97 104.425 131.943 103.019 131.916 101.605ZM52.0102 143.947C51.4946 141.528 51.0323 139.01 50.65 136.422C50.3477 134.678 50.081 132.89 49.8943 131.084C46.6138 128.122 43.4577 125.16 40.4795 122.189C40.8084 126.654 41.2974 131.013 41.9464 135.221C42.302 137.809 42.7376 140.371 43.2177 142.844C44.978 151.882 47.3428 160.182 50.2233 167.521C52.6948 166.631 55.2463 165.59 57.8778 164.46C55.5663 158.394 53.5571 151.526 52.0102 143.947Z" fill="url(#paint0_linear_710_4)"/>
<path d="M131.321 89.5335C128.334 86.5446 125.187 83.5557 121.88 80.5935C121.666 78.8055 121.417 77.0175 121.151 75.3006C120.742 72.712 120.279 70.1946 119.764 67.7483C118.217 60.196 116.234 53.3287 113.905 47.253C112.98 44.8335 112.002 42.5473 110.998 40.4035C103.912 25.4857 94.7375 16.946 85.8916 16.946C77.0458 16.946 67.871 25.4857 60.8121 40.4035C59.7808 42.5473 58.8029 44.8246 57.8783 47.253C55.5757 53.3198 53.5665 60.196 52.0196 67.7483C51.5039 70.1946 51.0416 72.712 50.6593 75.3006C50.3571 77.0442 50.117 78.8055 49.9037 80.6201C49.388 84.4541 49.0057 88.4037 48.7657 92.5046C48.4634 96.81 48.3301 101.276 48.3301 105.866C48.3301 110.456 48.4634 114.903 48.7657 119.209C45.6185 116.149 42.6314 113.115 39.8932 110.127C39.8665 108.712 39.8398 107.307 39.8398 105.866C39.8398 104.433 39.8665 102.992 39.8932 101.587C39.9732 97.4949 40.1688 93.4475 40.4888 89.5157C40.8178 85.0501 41.3067 80.6913 41.9557 76.4837C42.3113 73.8951 42.747 71.351 43.227 68.887C44.9607 59.8491 47.3522 51.5763 50.2326 44.2108C51.1839 41.8624 52.1618 39.6029 53.1931 37.4324C61.4966 20.1395 72.9829 9.5983 85.9005 9.5983C98.8181 9.5983 110.331 20.1573 118.608 37.4502C119.666 39.6118 120.644 41.8713 121.568 44.2019C124.476 51.5674 126.831 59.8491 128.601 68.8781C129.09 71.351 129.499 73.8862 129.872 76.4748C130.503 80.7091 130.992 85.0679 131.321 89.5335Z" fill="url(#paint1_linear_710_4)"/>
<path d="M30.8428 99.6744C32.4697 101.694 34.2122 103.766 36.0258 105.866C37.2438 104.451 38.5507 103.019 39.8842 101.587C39.9642 97.495 40.1598 93.4475 40.4799 89.5157C37.0571 92.896 33.8299 96.3119 30.8428 99.6744ZM78.7437 58.1323C74.8587 60.7476 70.9558 63.523 67.0441 66.4852C63.6213 69.0738 60.2074 71.8047 56.7847 74.6513C55.6467 75.612 54.4821 76.6083 53.3086 77.6135C52.1439 78.6276 51.006 79.6327 49.8858 80.629C49.3702 84.463 48.9879 88.4126 48.7478 92.5135C52.055 89.3111 55.5845 86.0642 59.3095 82.844C63.0523 79.5972 66.804 76.5371 70.4935 73.6727C74.023 70.924 77.4991 68.3799 80.9396 65.9781C82.5932 64.8217 84.2468 63.7187 85.8826 62.6334C83.4734 61.05 81.1085 59.5378 78.7437 58.1323ZM110.989 40.4124C102.925 43.8194 94.4884 48.2227 85.9093 53.5422C88.2741 55.001 90.6301 56.5311 93.0215 58.1323C100.294 53.729 107.326 50.1085 113.896 47.2619C112.971 44.8335 111.993 42.5562 110.989 40.4124Z" fill="url(#paint2_linear_710_4)"/>
<path d="M164.811 77.5156C163.806 79.6772 162.668 81.8655 161.361 84.1072C157.449 91.0902 152.346 98.4112 146.221 105.866C144.541 107.912 142.772 109.984 140.958 112.057C137.944 115.419 134.744 118.809 131.321 122.171C128.334 125.16 125.187 128.149 121.879 131.111C120.768 132.099 119.63 133.113 118.483 134.1C117.319 135.114 116.145 136.102 115.007 137.062C111.584 139.909 108.171 142.64 104.748 145.228C100.836 148.191 96.9332 150.966 93.0215 153.581C90.63 155.182 88.2474 156.712 85.8826 158.171C80.0772 161.774 74.3163 164.95 68.7332 167.672C66.0483 168.988 63.4168 170.189 60.8119 171.292C58.207 172.395 55.6822 173.383 53.184 174.281C43.2002 177.857 33.9987 179.743 26.1753 179.743C18.3874 179.743 11.9241 177.884 7.36339 173.934C-1.75806 166.026 -1.29576 151.517 6.95444 134.198C7.95904 132.054 9.12367 129.848 10.4039 127.606C14.3156 120.641 19.4186 113.329 25.5441 105.866C27.2243 107.912 28.9935 109.984 30.8338 112.057C25.7574 118.364 21.579 124.431 18.2718 130.15C16.9649 132.437 15.8003 134.616 14.769 136.76C7.57676 151.651 7.11447 163.277 13.3821 168.713C19.6231 174.148 33.0564 173.747 50.2147 167.538C52.6862 166.649 55.2377 165.608 57.8692 164.478C64.4658 161.605 71.4625 157.985 78.7436 153.59C81.1085 152.176 83.4911 150.672 85.8826 149.098C87.5095 148.013 89.1631 146.91 90.8256 145.753C94.275 143.351 97.7422 140.789 101.272 138.059C104.961 135.185 108.704 132.134 112.456 128.887C116.207 125.64 119.728 122.42 123.017 119.191C126.191 116.158 129.152 113.124 131.917 110.109C133.25 108.694 134.521 107.289 135.739 105.875C137.589 103.784 139.322 101.711 140.949 99.6655C146.025 93.3585 150.204 87.2918 153.484 81.5986C154.818 79.3125 155.983 77.1064 157.014 74.9626C160.837 67.01 162.766 59.9736 162.766 54.3339C162.766 49.4146 161.299 45.5629 158.392 43.0188C155.458 40.4746 150.986 39.2293 145.314 39.2293C138.798 39.2293 130.716 40.9016 121.542 44.2197C120.617 41.889 119.639 39.6296 118.581 37.468C138.531 30.2893 155.271 29.889 164.393 37.7971C173.523 45.6874 173.061 60.196 164.811 77.5156Z" fill="url(#paint3_linear_710_4)"/>
<path d="M7.36375 37.7793C2.80302 41.7289 0.633789 47.3331 0.633789 54.0848C0.633789 60.881 2.80302 68.8336 6.9548 77.5156C7.9594 79.6594 9.12403 81.8655 10.4042 84.1072C12.8491 83.2087 15.4806 82.3903 18.2722 81.5631C16.9653 79.3036 15.8007 77.0886 14.7694 74.9537C7.57712 60.0893 7.11482 48.4361 13.3825 43.001C19.6235 37.5658 33.0567 37.9661 50.215 44.2019C51.1663 41.8534 52.1442 39.594 53.1755 37.4235C33.2079 30.2715 16.4852 29.8712 7.36375 37.7793ZM164.811 134.189C163.806 132.045 162.669 129.839 161.362 127.597C157.45 120.632 152.347 113.32 146.221 105.857C144.541 107.903 142.772 109.975 140.958 112.048C146.035 118.355 150.187 124.422 153.494 130.115C154.801 132.401 155.992 134.607 157.023 136.751C164.189 151.615 164.678 163.268 158.41 168.704C152.142 174.139 138.709 173.738 121.551 167.503C119.079 166.604 116.528 165.599 113.896 164.469C107.3 161.596 100.303 157.976 93.0219 153.581C90.6304 155.182 88.2478 156.712 85.8829 158.171C94.4888 163.464 102.926 167.885 110.989 171.301C113.567 172.404 116.119 173.392 118.59 174.263C128.574 177.866 137.776 179.743 145.599 179.743C153.423 179.743 159.877 177.884 164.411 173.934C173.524 166.017 173.061 151.5 164.811 134.189Z" fill="url(#paint4_linear_710_4)"/>
<path d="M140.949 99.6477C139.322 101.694 137.58 103.766 135.739 105.857C134.521 104.442 133.241 103.037 131.916 101.596C129.152 98.5802 126.191 95.5468 123.017 92.5135C119.737 89.2933 116.207 86.0642 112.456 82.8173C108.713 79.5705 104.961 76.5104 101.245 73.6461C97.7421 70.9151 94.266 68.3532 90.7988 65.9514C89.1719 64.795 87.5183 63.692 85.8825 62.6067C83.4643 61.0322 81.1084 59.5289 78.7436 58.1145C71.4713 53.7112 64.4657 50.0907 57.8691 47.2441C58.7937 44.8246 59.7717 42.5384 60.8029 40.3946C68.8398 43.8016 77.3033 48.2315 85.9091 53.5244C88.274 54.9832 90.6299 56.5133 93.0214 58.1145C96.9064 60.7031 100.836 63.5052 104.748 66.4674C108.17 69.056 111.584 71.7869 115.007 74.6335C116.145 75.5942 117.31 76.5905 118.483 77.5957C119.621 78.5831 120.759 79.5972 121.879 80.5846C125.186 83.5468 128.343 86.5357 131.321 89.5246C134.735 92.9226 137.944 96.2852 140.949 99.6477Z" fill="url(#paint5_linear_710_4)"/>
<path d="M85.883 149.08C83.4915 150.655 81.1089 152.158 78.7441 153.572C74.859 150.957 70.9562 148.182 67.0445 145.219C63.6217 142.631 60.2078 139.9 56.785 137.053C55.6471 136.093 54.4825 135.096 53.3089 134.091C52.1443 133.077 51.0063 132.09 49.8862 131.076C46.6056 128.113 43.4496 125.151 40.4713 122.18C37.0486 118.791 33.848 115.402 30.8342 112.039C28.985 109.966 27.2248 107.903 25.5445 105.848C19.4102 98.3934 14.3338 91.0724 10.4043 84.0894C12.8491 83.1909 15.4807 82.3725 18.2722 81.5453C21.5794 87.2651 25.7668 93.3585 30.8342 99.6565C32.4612 101.676 34.2037 103.748 36.0173 105.848C37.2619 107.262 38.5421 108.668 39.8757 110.109C42.6139 113.098 45.601 116.131 48.7482 119.191C52.0554 122.393 55.5849 125.64 59.3099 128.861C63.0527 132.107 66.8044 135.167 70.5206 138.032C74.0234 140.763 77.4995 143.325 80.9667 145.726C82.6025 146.892 84.2561 147.995 85.883 149.08Z" fill="url(#paint6_linear_710_4)"/>
<path d="M30.8425 211.607C36.0864 211.607 40.3375 207.353 40.3375 202.106C40.3375 196.859 36.0864 192.606 30.8425 192.606C25.5987 192.606 21.3477 196.859 21.3477 202.106C21.3477 207.353 25.5987 211.607 30.8425 211.607Z" fill="url(#paint7_linear_710_4)"/>
<path d="M140.949 19.0809C146.193 19.0809 150.444 14.8274 150.444 9.5805C150.444 4.33356 146.193 0.0800781 140.949 0.0800781C135.705 0.0800781 131.454 4.33356 131.454 9.5805C131.454 14.8274 135.705 19.0809 140.949 19.0809Z" fill="url(#paint8_linear_710_4)"/>
<defs>
<linearGradient id="paint0_linear_710_4" x1="40.4779" y1="147.316" x2="131.969" y2="147.316" gradientUnits="userSpaceOnUse">
<stop stop-color="#F22AFF"/>
<stop offset="1" stop-color="#6C00E9"/>
</linearGradient>
<linearGradient id="paint1_linear_710_4" x1="39.827" y1="64.3981" x2="131.318" y2="64.3981" gradientUnits="userSpaceOnUse">
<stop stop-color="#F22AFF"/>
<stop offset="1" stop-color="#6C00E9"/>
</linearGradient>
<linearGradient id="paint2_linear_710_4" x1="30.8433" y1="73.1379" x2="113.894" y2="73.1379" gradientUnits="userSpaceOnUse">
<stop stop-color="#FFAAAC"/>
<stop offset="1" stop-color="#FF0007"/>
</linearGradient>
<linearGradient id="paint3_linear_710_4" x1="0.64917" y1="105.847" x2="171.12" y2="105.847" gradientUnits="userSpaceOnUse">
<stop stop-color="#FFAAAC"/>
<stop offset="1" stop-color="#FF0007"/>
</linearGradient>
<linearGradient id="paint4_linear_710_4" x1="0.636012" y1="105.845" x2="171.12" y2="105.845" gradientUnits="userSpaceOnUse">
<stop stop-color="#6AAEFF"/>
<stop offset="1" stop-color="#005EFF"/>
</linearGradient>
<linearGradient id="paint5_linear_710_4" x1="57.8753" y1="73.1379" x2="140.953" y2="73.1379" gradientUnits="userSpaceOnUse">
<stop stop-color="#6AAEFF"/>
<stop offset="1" stop-color="#005EFF"/>
</linearGradient>
<linearGradient id="paint6_linear_710_4" x1="10.4066" y1="117.567" x2="85.8851" y2="117.567" gradientUnits="userSpaceOnUse">
<stop stop-color="#6AAEFF"/>
<stop offset="1" stop-color="#005EFF"/>
</linearGradient>
<linearGradient id="paint7_linear_710_4" x1="21.3438" y1="202.108" x2="40.3424" y2="202.108" gradientUnits="userSpaceOnUse">
<stop stop-color="#6AAEFF"/>
<stop offset="1" stop-color="#005EFF"/>
</linearGradient>
<linearGradient id="paint8_linear_710_4" x1="131.454" y1="9.58236" x2="150.452" y2="9.58236" gradientUnits="userSpaceOnUse">
<stop stop-color="#F22AFF"/>
<stop offset="1" stop-color="#6C00E9"/>
</linearGradient>
</defs>
</svg>
