<svg width="23" height="29" viewBox="0 0 23 29" fill="none" xmlns="http://www.w3.org/2000/svg">
<path d="M17.6143 10.1594C14.7425 8.33286 10.1333 5.39993 2.984 0.847879C2.50199 0.485895 1.94742 0.438458 1.46826 0.622881L13.7345 14.5713L17.6143 10.1594Z" fill="#32BBFF"/>
<path d="M1.46827 0.622559C1.37847 0.657148 1.29108 0.698875 1.2075 0.749277C0.678371 1.07475 0.289551 1.70104 0.289551 2.49314V26.6488C0.289551 27.4409 0.678322 28.0672 1.2075 28.3926C1.29093 28.4429 1.37828 28.4848 1.46798 28.5196L13.7345 14.571L1.46827 0.622559Z" fill="#32BBFF"/>
<path d="M13.7343 14.5713L1.46777 28.52C1.94707 28.7058 2.50165 28.662 2.9838 28.2947C9.91708 23.8799 14.4744 20.9817 17.3793 19.1396C17.4602 19.088 17.5395 19.0375 17.6178 18.9875L13.7343 14.5713Z" fill="#32BBFF"/>
<path d="M0.263184 15.1348V26.8182C0.263184 27.5845 0.654101 28.1903 1.1862 28.5051C1.27009 28.5538 1.35792 28.5943 1.44812 28.628L13.7823 15.1348H0.263184Z" fill="#2C9FD9"/>
<path d="M3.00652 0.856206C2.43381 0.415821 1.75843 0.428366 1.229 0.755561L13.5768 15.1348L17.6451 10.3972C14.7718 8.52569 10.1599 5.52047 3.00652 0.856206Z" fill="#29CC5E"/>
<path d="M13.5741 14.0103L1.229 28.3873C1.75836 28.7144 2.43353 28.7333 3.00612 28.2867C9.94177 23.7637 14.5006 20.7945 17.4066 18.9073C17.4875 18.8544 17.5667 18.8026 17.6451 18.7514L13.5741 14.0103Z" fill="#D93F21"/>
<path d="M22.4729 15.1323C22.4729 14.473 22.167 13.8077 21.5606 13.4387C21.5606 13.4387 20.4266 12.7507 16.9508 10.6367L12.8164 15.1323L16.9548 19.6322C20.3925 17.5334 21.5606 16.8258 21.5606 16.8258C22.167 16.4569 22.4729 15.7915 22.4729 15.1323Z" fill="#FFD500"/>
<path d="M21.5606 16.8275C22.167 16.4587 22.4729 15.7937 22.4729 15.1348H12.8164L16.9548 19.6325C20.3926 17.5348 21.5606 16.8275 21.5606 16.8275Z" fill="#FFAA00"/>
</svg>
