<svg width="72" height="58" viewBox="0 0 72 58" fill="none" xmlns="http://www.w3.org/2000/svg">
<g style="mix-blend-mode:multiply" opacity="0.3">
<g style="mix-blend-mode:multiply" opacity="0.03">
<path d="M41.1129 30.6252C47.4302 30.5485 53.7352 31.2008 59.9029 32.5692C69.0463 34.8234 70.4323 38.2426 70.4323 40.0832C70.4323 41.9237 69.0532 45.343 59.9029 47.5972C47.5127 50.1896 34.7199 50.1896 22.3297 47.5972C13.1863 45.343 11.8073 41.9237 11.8073 40.0832C11.8073 38.2426 13.1863 34.8234 22.3297 32.5692C28.4952 31.2019 34.7979 30.5496 41.1129 30.6252Z" fill="#FDFDFE"/>
</g>
<g style="mix-blend-mode:multiply" opacity="0.06">
<path d="M40.6924 31.1908C46.8312 31.1167 52.958 31.7505 58.9516 33.0797C67.826 35.258 69.1913 38.5945 69.1913 40.3662C69.1913 42.1378 67.8122 45.4743 58.9516 47.6526C46.9003 50.175 34.457 50.175 22.4057 47.6526C13.5244 45.4743 12.166 42.1378 12.166 40.3662C12.166 38.5945 13.5451 35.258 22.4057 33.0797C28.4081 31.7477 34.5444 31.1139 40.6924 31.1908Z" fill="#FAFBFE"/>
</g>
<g style="mix-blend-mode:multiply" opacity="0.1">
<path d="M40.2717 31.7566C46.2339 31.6851 52.1845 32.298 58.0068 33.5833C66.6192 35.6997 67.957 38.9052 67.957 40.6492C67.957 42.3933 66.6192 45.5988 58.0068 47.7152C46.3089 50.1509 34.2345 50.1509 22.5366 47.7152C13.9242 45.5988 12.5796 42.3864 12.5796 40.6492C12.5796 38.9121 13.9587 35.6997 22.5366 33.5833C28.3589 32.298 34.3096 31.6851 40.2717 31.7566Z" fill="#F8F9FD"/>
</g>
<g style="mix-blend-mode:multiply" opacity="0.13">
<path d="M39.8511 32.3493C45.6465 32.2791 51.4308 32.8759 57.0897 34.1278C65.4332 36.1959 66.7434 39.2773 66.7434 40.9662C66.7434 42.6552 65.4194 45.7917 57.0897 47.8046C45.7374 50.1669 34.02 50.1669 22.6677 47.8046C14.3242 45.7366 13.014 42.6552 13.014 40.9662C13.014 39.2773 14.338 36.1408 22.6677 34.1278C28.3086 32.8801 34.0741 32.2834 39.8511 32.3493Z" fill="#F6F7FC"/>
</g>
<g style="mix-blend-mode:multiply" opacity="0.16">
<path d="M39.4304 32.8799C45.04 32.8151 50.6386 33.3909 56.1173 34.5964C64.1988 36.568 65.4951 39.5735 65.4951 41.2142C65.4951 42.8549 64.1988 45.8536 56.1173 47.8251C45.1128 50.1139 33.7549 50.1139 22.7504 47.8251C14.6689 45.8536 13.3657 42.8549 13.3657 41.2142C13.3657 39.5735 14.6689 36.568 22.7504 34.5964C28.2268 33.3909 33.8232 32.815 39.4304 32.8799Z" fill="#F3F5FC"/>
</g>
<g style="mix-blend-mode:multiply" opacity="0.19">
<path d="M39.0099 33.4451C44.4428 33.3834 49.8652 33.9384 55.1729 35.0995C62.9854 37.009 64.268 39.925 64.268 41.4968C64.268 43.0685 62.9854 45.9776 55.1729 47.8871C44.5129 50.093 33.5139 50.093 22.8539 47.8871C15.0413 45.9776 13.7588 43.0616 13.7588 41.4968C13.7588 39.9319 15.0413 37.009 22.8539 35.0995C28.1592 33.9382 33.5793 33.3832 39.0099 33.4451Z" fill="#F1F3FB"/>
</g>
<g style="mix-blend-mode:multiply" opacity="0.23">
<path d="M38.5893 34.01C43.8462 33.9461 49.0931 34.4827 54.2282 35.6093C61.8132 37.443 63.0336 40.2349 63.0336 41.7722C63.0336 43.3094 61.7787 46.1082 54.2282 47.9764C43.9136 50.1082 33.2719 50.1082 22.9573 47.9764C15.4068 46.1427 14.1519 43.3508 14.1519 41.7722C14.1519 40.1935 15.4068 37.443 22.9573 35.6093C28.0901 34.483 33.3347 33.9465 38.5893 34.01Z" fill="#EFF1FA"/>
</g>
<g style="mix-blend-mode:multiply" opacity="0.26">
<path d="M38.1755 34.5761C43.2534 34.5157 48.3218 35.0315 53.2834 36.1134C60.565 37.885 61.7993 40.5735 61.7993 42.0556C61.7993 43.5377 60.565 46.2331 53.2834 48.0047C43.3135 50.0544 33.0306 50.0544 23.0607 48.0047C15.7791 46.2331 14.5448 43.5446 14.5448 42.0556C14.5448 40.5666 15.7791 37.885 23.0607 36.1134C28.0246 35.0311 33.0953 34.5154 38.1755 34.5761Z" fill="#ECEFFA"/>
</g>
<g style="mix-blend-mode:multiply" opacity="0.29">
<path d="M37.7548 35.1407C42.6496 35.0833 47.5352 35.5806 52.318 36.6228C59.3307 38.3186 60.5512 40.9037 60.5512 42.3376C60.5512 43.7714 59.3307 46.3634 52.318 48.0592C42.6959 50.0354 32.7724 50.0354 23.1503 48.0592C16.1307 46.3634 14.9171 43.7783 14.9171 42.3376C14.9171 40.8968 16.1307 38.3186 23.1503 36.6228C27.9466 35.5775 32.8462 35.0802 37.7548 35.1407Z" fill="#EAEDF9"/>
</g>
<g style="mix-blend-mode:multiply" opacity="0.32">
<path d="M37.3343 35.6995C42.0596 35.6459 46.7759 36.1246 51.394 37.1264C58.1446 38.7602 59.3376 41.2626 59.3376 42.6413C59.3376 44.02 58.1446 46.5085 51.394 48.1561C42.1174 50.0587 32.5511 50.0587 23.2745 48.1561C16.5239 46.5292 15.3309 44.02 15.3309 42.6413C15.3309 41.2626 16.5239 38.7809 23.2745 37.1264C27.8925 36.1239 32.6089 35.6452 37.3343 35.6995Z" fill="#E8EBF9"/>
</g>
<g style="mix-blend-mode:multiply" opacity="0.35">
<path d="M36.9136 36.2644C41.4629 36.2145 46.0035 36.6769 50.4493 37.6431C56.931 39.2011 58.1033 41.5725 58.1033 42.9098C58.1033 44.2472 56.931 46.6186 50.4493 48.1834C41.512 50.0129 32.2973 50.0199 23.3572 48.2041C16.8755 46.6393 15.7032 44.2678 15.7032 42.9305C15.7032 41.5931 16.8755 39.2218 23.3572 37.6638C27.8089 36.6891 32.3565 36.2197 36.9136 36.2644Z" fill="#E5E9F8"/>
</g>
<g style="mix-blend-mode:multiply" opacity="0.39">
<path d="M36.4931 36.8299C40.8656 36.7805 45.2299 37.2198 49.5047 38.1397C55.7106 39.6287 56.876 41.9036 56.876 43.1858C56.876 44.468 55.7244 46.7428 49.5047 48.2318C40.9206 49.9783 32.0725 49.9783 23.4883 48.2318C17.2824 46.7428 16.1171 44.468 16.1171 43.1858C16.1171 41.9036 17.2686 39.6287 23.4883 38.1397C27.7608 37.2198 32.1228 36.7804 36.4931 36.8299Z" fill="#E3E7F7"/>
</g>
<g style="mix-blend-mode:multiply" opacity="0.42">
<path d="M36.0722 37.3956C40.2682 37.3459 44.4567 37.7644 48.5598 38.6433C54.5106 40.0703 55.6415 42.2349 55.6415 43.4688C55.6415 44.7028 54.5106 46.8674 48.5598 48.2943C40.3202 49.9579 31.8311 49.9579 23.5914 48.2943C17.6406 46.8674 16.5098 44.7028 16.5098 43.4688C16.5098 42.2349 17.6406 40.0703 23.5914 38.6433C27.6923 37.7643 31.8784 37.3458 36.0722 37.3956Z" fill="#E1E5F7"/>
</g>
<g style="mix-blend-mode:multiply" opacity="0.45">
<path d="M35.6516 37.96C39.6714 37.9116 43.6841 38.3116 47.6152 39.1526C53.3039 40.5313 54.414 42.5993 54.414 43.7506C54.414 44.9018 53.3039 46.9975 47.6152 48.3486C39.7211 49.9386 31.5891 49.9386 23.695 48.3486C18.0063 46.9699 16.8961 44.9018 16.8961 43.7506C16.8961 42.5993 18.0063 40.5037 23.695 39.1526C27.6238 38.3119 31.6341 37.9119 35.6516 37.96Z" fill="#DEE3F6"/>
</g>
<g style="mix-blend-mode:multiply" opacity="0.48">
<path d="M35.238 38.5531C39.0791 38.5105 42.9132 38.892 46.6706 39.6906C52.0905 40.9797 53.1799 42.9305 53.1799 44.068C53.1799 45.2054 52.0905 47.1563 46.6706 48.4385C39.1244 49.9551 31.3517 49.9551 23.8054 48.4385C18.3787 47.1563 17.2892 45.1985 17.2892 44.068C17.2892 42.9374 18.3787 40.9797 23.8054 39.6906C27.5627 38.8913 31.3968 38.5098 35.238 38.5531Z" fill="#DCE1F5"/>
</g>
<g style="mix-blend-mode:multiply" opacity="0.52">
<path d="M34.8173 39.0842C38.4823 39.0429 42.1406 39.4059 45.7259 40.1665C50.8837 41.3798 51.9318 43.2342 51.9318 44.3027C51.9318 45.3712 50.8699 47.2325 45.7259 48.4388C38.5242 49.8726 31.1104 49.8726 23.9088 48.4388C18.751 47.2187 17.7029 45.3712 17.7029 44.3027C17.7029 43.2342 18.7717 41.366 23.9088 40.1665C27.4941 39.4059 31.1524 39.0429 34.8173 39.0842Z" fill="#DADEF5"/>
</g>
<g style="mix-blend-mode:multiply" opacity="0.55">
<path d="M34.3899 39.6494C37.8782 39.6109 41.3603 39.953 44.7744 40.6696C49.6633 41.814 50.7114 43.5649 50.7114 44.599C50.7114 45.633 49.6633 47.3564 44.7744 48.5214C37.9183 49.8817 30.8615 49.8817 24.0053 48.5214C19.1165 47.377 18.0684 45.6261 18.0684 44.599C18.0684 43.5718 19.1165 41.8415 24.0053 40.6696C27.4194 39.953 30.9016 39.6109 34.3899 39.6494Z" fill="#D8DCF4"/>
</g>
<g style="mix-blend-mode:multiply" opacity="0.58">
<path d="M33.9761 40.2145C37.2878 40.1792 40.5937 40.5005 43.8366 41.1728C48.4566 42.255 49.484 43.9302 49.484 44.8746C49.484 45.819 48.4566 47.5011 43.8366 48.5834C37.3251 49.861 30.6272 49.861 24.1156 48.5834C19.4957 47.5011 18.4683 45.8604 18.4683 44.8746C18.4683 43.8888 19.4957 42.255 24.1156 41.1728C27.3586 40.5009 30.6645 40.1797 33.9761 40.2145Z" fill="#D5DAF3"/>
</g>
<g style="mix-blend-mode:multiply" opacity="0.61">
<path d="M33.5556 40.7799C36.6911 40.7462 39.8212 41.049 42.892 41.6829C47.2499 42.6894 48.2497 44.2335 48.2497 45.1297C48.2497 46.0259 47.2499 47.6045 42.892 48.5765C36.7283 49.7805 30.3898 49.7805 24.2261 48.5765C19.8682 47.57 18.8615 46.0259 18.8615 45.1297C18.8615 44.2335 19.8682 42.6618 24.2261 41.6829C27.2947 41.049 30.4224 40.7462 33.5556 40.7799Z" fill="#D3D8F3"/>
</g>
<g style="mix-blend-mode:multiply" opacity="0.65">
<path d="M33.135 41.3449C36.1033 41.3086 39.0669 41.5906 41.975 42.1859C46.064 43.1303 47.0501 44.5642 47.0501 45.4397C47.0501 46.3151 46.064 47.7559 41.975 48.6934C36.1568 49.8232 30.1754 49.8232 24.3571 48.6934C20.2681 47.7559 19.2821 46.322 19.2821 45.4397C19.2821 44.5573 20.2681 43.1303 24.3571 42.1859C27.245 41.5949 30.1875 41.3129 33.135 41.3449Z" fill="#D1D6F2"/>
</g>
<g style="mix-blend-mode:multiply" opacity="0.68">
<path d="M32.7212 41.9036C35.4997 41.8738 38.2735 42.1396 40.9957 42.6964C44.8227 43.565 45.7812 44.8954 45.7812 45.7227C45.7812 46.5499 44.8227 47.8803 40.9957 48.7558C35.5289 49.8009 29.9135 49.8009 24.4467 48.7558C20.6197 47.8803 19.6613 46.5499 19.6613 45.7227C19.6613 44.8954 20.6197 43.565 24.4467 42.6964C27.169 42.1398 29.9427 41.874 32.7212 41.9036Z" fill="#CED4F1"/>
</g>
<g style="mix-blend-mode:multiply" opacity="0.71">
<path d="M32.3213 42.4689C34.9255 42.4415 37.5254 42.6864 40.0786 43.1996C43.6367 43.9993 44.5814 45.2264 44.5814 46.0053C44.5814 46.7843 43.6367 48.0183 40.0786 48.811C34.953 49.7853 29.6896 49.7853 24.5639 48.811C20.999 48.0183 20.0612 46.7843 20.0612 46.0053C20.0612 45.2264 20.999 43.9993 24.5639 43.1996C27.1171 42.686 29.7171 42.4411 32.3213 42.4689Z" fill="#CCD2F1"/>
</g>
<g style="mix-blend-mode:multiply" opacity="0.74">
<path d="M31.8799 43.0337C34.3084 43.0127 36.7324 43.2438 39.1132 43.723C42.4092 44.4538 43.3263 45.5843 43.3263 46.3081C43.3263 47.0319 42.4092 48.1625 39.1132 48.8932C34.3277 49.7864 29.4182 49.7864 24.6328 48.8932C21.3368 48.1625 20.4197 47.0319 20.4197 46.3081C20.4197 45.5843 21.3368 44.4538 24.6328 43.723C27.018 43.2425 29.4468 43.0114 31.8799 43.0337Z" fill="#CAD0F0"/>
</g>
<g style="mix-blend-mode:multiply" opacity="0.77">
<path d="M31.4593 43.5999C33.7109 43.5738 35.9591 43.7794 38.1686 44.2134C41.1957 44.8683 42.0921 45.8954 42.0921 46.571C42.0921 47.2465 41.1957 48.2737 38.1686 48.9286C33.7332 49.7466 29.1855 49.7466 24.7501 48.9286C21.7229 48.2737 20.8265 47.2465 20.8265 46.571C20.8265 45.8954 21.7229 44.8683 24.7501 44.2134C26.9595 43.7794 29.2078 43.5738 31.4593 43.5999Z" fill="#C7CEF0"/>
</g>
<g style="mix-blend-mode:multiply" opacity="0.81">
<path d="M31.0387 44.1653C33.1206 44.1405 35.1997 44.3253 37.2446 44.7168C40.0028 45.3096 40.8854 46.2264 40.8854 46.8537C40.8854 47.4811 40.0097 48.3979 37.2446 48.9839C33.1548 49.7284 28.964 49.7284 24.8742 48.9839C22.116 48.3979 21.2334 47.4811 21.2334 46.8537C21.2334 46.2264 22.116 45.3096 24.8742 44.7168C26.9055 44.328 28.9706 44.1433 31.0387 44.1653Z" fill="#C5CCEF"/>
</g>
<g style="mix-blend-mode:multiply" opacity="0.84">
<path d="M30.6181 44.7574C32.5171 44.7378 34.4134 44.9064 36.2792 45.2606C38.7753 45.7776 39.6304 46.5911 39.6304 47.1702C39.6304 47.7492 38.7753 48.5489 36.2792 49.0797C32.5364 49.7415 28.7066 49.7415 24.9638 49.0797C22.4607 48.5558 21.6057 47.7423 21.6057 47.1702C21.6057 46.598 22.4607 45.7914 24.9638 45.2606C26.8273 44.9063 28.7213 44.7378 30.6181 44.7574Z" fill="#C3CAEE"/>
</g>
<g style="mix-blend-mode:multiply" opacity="0.87">
<path d="M30.1975 45.2884C31.92 45.2716 33.6402 45.4193 35.3346 45.7295C37.5687 46.1845 38.4031 46.8946 38.4031 47.4185C38.4031 47.9424 37.5687 48.6524 35.3346 49.1005C31.9374 49.6888 28.4644 49.6888 25.0672 49.1005C22.8331 48.6524 21.9988 47.9424 21.9988 47.4185C21.9988 46.8946 22.8331 46.1845 25.0672 45.7295C26.7594 45.4197 28.4772 45.272 30.1975 45.2884Z" fill="#C0C8EE"/>
</g>
<g style="mix-blend-mode:multiply" opacity="0.9">
<path d="M29.7837 45.8537C31.3277 45.8389 32.8698 45.9681 34.3898 46.2397C36.355 46.6189 37.148 47.2255 37.148 47.7012C37.148 48.1768 36.3343 48.7766 34.3898 49.1626C31.3376 49.6682 28.2229 49.6682 25.1706 49.1626C23.2054 48.7766 22.4125 48.1699 22.4125 47.7012C22.4125 47.2324 23.2261 46.6189 25.1706 46.2397C26.693 45.9682 28.2374 45.839 29.7837 45.8537Z" fill="#BEC6ED"/>
</g>
<g style="mix-blend-mode:multiply" opacity="0.94">
<path d="M29.3632 46.4189C30.7307 46.4073 32.0967 46.5157 33.4453 46.7429C35.1415 47.06 35.9345 47.5564 35.9345 47.9769C35.9345 48.3974 35.1415 48.9006 33.4453 49.2177C30.741 49.6497 27.9853 49.6497 25.2811 49.2177C23.5779 48.9006 22.7849 48.4043 22.7849 47.9769C22.7849 47.5495 23.5779 47.06 25.2811 46.7429C26.6296 46.5151 27.9956 46.4067 29.3632 46.4189Z" fill="#BCC4EC"/>
</g>
<g style="mix-blend-mode:multiply" opacity="0.97">
<path d="M28.9424 46.984C30.1336 46.9752 31.3235 47.0628 32.5005 47.246C33.9348 47.501 34.7071 47.8871 34.7071 48.2594C34.7071 48.6316 33.9348 49.0245 32.5005 49.2727C30.142 49.6312 27.7429 49.6312 25.3844 49.2727C23.9502 49.0245 23.1779 48.6316 23.1779 48.2594C23.1779 47.8871 23.9502 47.501 25.3844 47.246C26.5614 47.0628 27.7513 46.9752 28.9424 46.984Z" fill="#B9C2EC"/>
</g>
<g style="mix-blend-mode:multiply" opacity="0.7">
<path d="M33.4728 48.5425C33.4728 49.0939 31.2594 49.542 28.5219 49.542C25.7844 49.542 23.5709 49.0939 23.5709 48.5425C23.5709 47.991 25.7844 47.5498 28.5219 47.5498C31.2594 47.5498 33.4728 47.991 33.4728 48.5425Z" fill="#B7C0EB"/>
</g>
</g>
<path d="M38.4757 47.1045C48.7405 41.6136 52.6093 28.8434 47.1169 18.5814C41.6245 8.31943 28.8508 4.4517 18.586 9.94261C8.32125 15.4335 4.45247 28.2038 9.94486 38.4657C15.4373 48.7277 28.211 52.5954 38.4757 47.1045Z" fill="url(#paint0_linear_236_563)"/>
<defs>
<linearGradient id="paint0_linear_236_563" x1="18.586" y1="9.94261" x2="38.4673" y2="47.109" gradientUnits="userSpaceOnUse">
<stop stop-color="white"/>
<stop offset="1" stop-color="#DFE4FC"/>
</linearGradient>
</defs>
</svg>
