<svg width="253" height="716" viewBox="0 0 253 716" fill="none" xmlns="http://www.w3.org/2000/svg">
<path opacity="0.05" d="M86.3955 599.669L226.138 518.989C264.452 496.868 259.647 458.228 215.405 432.685L-97.9654 256.13C-142.207 230.587 -209.133 227.813 -247.448 249.934L-853.208 599.669L86.3955 599.669Z" fill="url(#paint0_linear_476_3529)"/>
<path opacity="0.05" d="M-1176.14 569.937C-1214.46 592.058 -1209.63 630.698 -1165.39 656.241L-1059.37 715.972L-489.456 715.972C-489.456 715.972 87.0181 386.477 152.51 345.222C218.002 303.968 200.471 230.669 152.51 197.19C104.549 163.711 -189.008 8.84726e-05 -189.008 8.84726e-05L-1176.14 569.937Z" fill="url(#paint1_linear_476_3529)"/>
<defs>
<linearGradient id="paint0_linear_476_3529" x1="1067.35" y1="268.299" x2="-1378.38" y2="593.412" gradientUnits="userSpaceOnUse">
<stop offset="0.000460737" stop-color="white"/>
<stop offset="1" stop-color="#E4FFFF"/>
</linearGradient>
<linearGradient id="paint1_linear_476_3529" x1="638.014" y1="228.081" x2="-2436.2" y2="636.737" gradientUnits="userSpaceOnUse">
<stop offset="0.000460737" stop-color="white"/>
<stop offset="1" stop-color="#E4FFFF"/>
</linearGradient>
</defs>
</svg>
