<svg width="28" height="26" viewBox="0 0 28 26" fill="none" xmlns="http://www.w3.org/2000/svg">
<path opacity="0.3" d="M0.853516 21.6617L10.0758 16.7871L19.0235 20.8493L9.65856 25.5702L0.853516 21.6617Z" fill="url(#paint0_linear_82_185)"/>
<path d="M27.7626 9.95818L19.0344 20.8821L9.95489 16.8968L9.85608 4.46875L27.7626 6.66452V9.95818Z" fill="url(#paint1_linear_82_185)"/>
<path d="M19.0344 20.8821V9.03587L27.4003 4.69922L27.9712 4.74313L27.9931 16.3697L19.0344 20.8821Z" fill="url(#paint2_linear_82_185)"/>
<path d="M9.82318 4.45742L18.6831 0L27.9712 4.74287L19.0344 9.25518L9.82318 4.45742Z" fill="url(#paint3_linear_82_185)"/>
<defs>
<linearGradient id="paint0_linear_82_185" x1="14.9887" y1="20.6371" x2="6.58894" y2="24.4421" gradientUnits="userSpaceOnUse">
<stop offset="0.00502513" stop-color="#5298EF"/>
<stop offset="1" stop-color="#73B0F1" stop-opacity="0"/>
</linearGradient>
<linearGradient id="paint1_linear_82_185" x1="9.85926" y1="12.6733" x2="27.7674" y2="12.6733" gradientUnits="userSpaceOnUse">
<stop stop-color="#6DACEF"/>
<stop offset="1" stop-color="#97C9FE"/>
</linearGradient>
<linearGradient id="paint2_linear_82_185" x1="22.1188" y1="16.488" x2="27.1614" y2="12.2953" gradientUnits="userSpaceOnUse">
<stop offset="0.00337838" stop-color="#8EBEF4"/>
<stop offset="1" stop-color="#B4D8FA"/>
</linearGradient>
<linearGradient id="paint3_linear_82_185" x1="9.8223" y1="4.62671" x2="27.9738" y2="4.62671" gradientUnits="userSpaceOnUse">
<stop stop-color="#97C3F4"/>
<stop offset="1" stop-color="#E8F1FA"/>
</linearGradient>
</defs>
</svg>
