<svg width="79" height="63" viewBox="0 0 79 63" fill="none" xmlns="http://www.w3.org/2000/svg">
<g style="mix-blend-mode:multiply" opacity="0.3">
<g style="mix-blend-mode:multiply" opacity="0.03">
<path d="M45.2052 33.6746C52.1513 33.5903 59.084 34.3075 65.8656 35.8121C75.9191 38.2907 77.4431 42.0503 77.4431 44.0741C77.4431 46.0979 75.9267 49.8574 65.8656 52.336C52.2421 55.1865 38.1758 55.1865 24.5523 52.336C14.4988 49.8574 12.9824 46.0979 12.9824 44.0741C12.9824 42.0503 14.4988 38.2907 24.5523 35.8121C31.3316 34.3087 38.2616 33.5915 45.2052 33.6746Z" fill="#FDFDFE"/>
</g>
<g style="mix-blend-mode:multiply" opacity="0.06">
<path d="M44.742 34.2962C51.4918 34.2147 58.2285 34.9116 64.8186 36.373C74.5764 38.7682 76.0776 42.4368 76.0776 44.3848C76.0776 46.3328 74.5613 50.0014 64.8186 52.3966C51.5677 55.1701 37.8859 55.1701 24.635 52.3966C14.8696 50.0014 13.376 46.3328 13.376 44.3848C13.376 42.4368 14.8923 38.7682 24.635 36.373C31.2349 34.9085 37.982 34.2116 44.742 34.2962Z" fill="#FAFBFE"/>
</g>
<g style="mix-blend-mode:multiply" opacity="0.1">
<path d="M44.2807 34.9173C50.8363 34.8387 57.3793 35.5126 63.7812 36.9259C73.2509 39.2529 74.7218 42.7775 74.7218 44.6952C74.7218 46.6128 73.2509 50.1374 63.7812 52.4644C50.9189 55.1426 37.6425 55.1426 24.7802 52.4644C15.3105 50.1374 13.832 46.6053 13.832 44.6952C13.832 42.7851 15.3484 39.2529 24.7802 36.9259C31.1821 35.5126 37.7251 34.8387 44.2807 34.9173Z" fill="#F8F9FD"/>
</g>
<g style="mix-blend-mode:multiply" opacity="0.13">
<path d="M43.8181 35.5693C50.1904 35.4922 56.5504 36.1484 62.7727 37.5249C71.9467 39.7988 73.3872 43.187 73.3872 45.044C73.3872 46.9011 71.9315 50.3498 62.7727 52.5631C50.2902 55.1605 37.4066 55.1605 24.9241 52.5631C15.7501 50.2892 14.3096 46.9011 14.3096 45.044C14.3096 43.187 15.7653 39.7382 24.9241 37.5249C31.1266 36.153 37.466 35.4968 43.8181 35.5693Z" fill="#F6F7FC"/>
</g>
<g style="mix-blend-mode:multiply" opacity="0.16">
<path d="M43.3565 36.1529C49.5244 36.0816 55.6803 36.7148 61.7045 38.0402C70.5903 40.208 72.0157 43.5128 72.0157 45.3168C72.0157 47.1207 70.5903 50.4179 61.7045 52.5857C49.6045 55.1023 37.116 55.1023 25.0161 52.5857C16.1302 50.4179 14.6973 47.1207 14.6973 45.3168C14.6973 43.5128 16.1302 40.208 25.0161 38.0402C31.0377 36.7148 37.1911 36.0815 43.3565 36.1529Z" fill="#F3F5FC"/>
</g>
<g style="mix-blend-mode:multiply" opacity="0.19">
<path d="M42.8926 36.7742C48.8663 36.7063 54.8284 37.3166 60.6644 38.5933C69.2547 40.6929 70.6649 43.8992 70.6649 45.6273C70.6649 47.3555 69.2547 50.5542 60.6644 52.6538C48.9433 55.0792 36.8495 55.0792 25.1284 52.6538C16.5382 50.5542 15.1279 47.3479 15.1279 45.6273C15.1279 43.9067 16.5382 40.6929 25.1284 38.5933C30.9618 37.3164 36.9214 36.7061 42.8926 36.7742Z" fill="#F1F3FB"/>
</g>
<g style="mix-blend-mode:multiply" opacity="0.23">
<path d="M42.4315 37.396C48.2117 37.3258 53.9809 37.9158 59.6271 39.1545C67.9671 41.1707 69.3091 44.2405 69.3091 45.9308C69.3091 47.6211 67.9292 50.6985 59.6271 52.7526C48.2858 55.0966 36.5848 55.0966 25.2435 52.7526C16.9414 50.7364 15.5615 47.6666 15.5615 45.9308C15.5615 44.1951 16.9414 41.1707 25.2435 39.1545C30.8872 37.9161 36.6539 37.3261 42.4315 37.396Z" fill="#EFF1FA"/>
</g>
<g style="mix-blend-mode:multiply" opacity="0.26">
<path d="M41.9751 38.0175C47.5585 37.9511 53.1314 38.5182 58.5869 39.7078C66.5933 41.6558 67.9504 44.6119 67.9504 46.2415C67.9504 47.8712 66.5933 50.8349 58.5869 52.7828C47.6246 55.0365 36.3181 55.0365 25.3558 52.7828C17.3494 50.8349 15.9922 47.8788 15.9922 46.2415C15.9922 44.6043 17.3494 41.6558 25.3558 39.7078C30.8138 38.5178 36.3892 37.9507 41.9751 38.0175Z" fill="#ECEFFA"/>
</g>
<g style="mix-blend-mode:multiply" opacity="0.29">
<path d="M41.5134 38.6392C46.8954 38.5762 52.2673 39.1229 57.5262 40.2689C65.2369 42.1335 66.5789 44.9759 66.5789 46.5525C66.5789 48.1291 65.2369 50.9791 57.5262 52.8437C46.9463 55.0166 36.035 55.0166 25.4551 52.8437C17.7367 50.9791 16.4023 48.1367 16.4023 46.5525C16.4023 44.9683 17.7367 42.1335 25.4551 40.2689C30.7288 39.1195 36.1161 38.5727 41.5134 38.6392Z" fill="#EAEDF9"/>
</g>
<g style="mix-blend-mode:multiply" opacity="0.32">
<path d="M41.05 39.2531C46.2457 39.1943 51.4315 39.7206 56.5093 40.8221C63.9319 42.6185 65.2436 45.3699 65.2436 46.8859C65.2436 48.4018 63.9319 51.1381 56.5093 52.9497C46.3093 55.0417 35.7907 55.0417 25.5907 52.9497C18.1681 51.1609 16.8564 48.4018 16.8564 46.8859C16.8564 45.3699 18.1681 42.6412 25.5907 40.8221C30.6684 39.7198 35.8543 39.1934 41.05 39.2531Z" fill="#E8EBF9"/>
</g>
<g style="mix-blend-mode:multiply" opacity="0.35">
<path d="M40.5882 39.8746C45.5905 39.8197 50.583 40.3282 55.4713 41.3906C62.5982 43.1036 63.8872 45.7111 63.8872 47.1816C63.8872 48.652 62.5982 51.2595 55.4713 52.9801C45.6444 54.9917 35.5124 54.9994 25.6824 53.0028C18.5555 51.2822 17.2666 48.6747 17.2666 47.2043C17.2666 45.7338 18.5555 43.1264 25.6824 41.4133C30.5773 40.3417 35.5775 39.8255 40.5882 39.8746Z" fill="#E5E9F8"/>
</g>
<g style="mix-blend-mode:multiply" opacity="0.39">
<path d="M40.1259 40.4963C44.9337 40.442 49.7324 40.925 54.4328 41.9365C61.2565 43.5737 62.5378 46.075 62.5378 47.4848C62.5378 48.8947 61.2716 51.396 54.4328 53.0332C44.9942 54.9535 35.2653 54.9535 25.8266 53.0332C19.003 51.396 17.7217 48.8947 17.7217 47.4848C17.7217 46.075 18.9878 43.5737 25.8266 41.9365C30.5245 40.925 35.3207 40.4419 40.1259 40.4963Z" fill="#E3E7F7"/>
</g>
<g style="mix-blend-mode:multiply" opacity="0.42">
<path d="M39.663 41.1179C44.2767 41.0632 48.8821 41.5234 53.3937 42.4898C59.9369 44.0588 61.1803 46.4389 61.1803 47.7957C61.1803 49.1525 59.9369 51.5325 53.3937 53.1015C44.3339 54.9307 34.9997 54.9307 25.9399 53.1015C19.3968 51.5325 18.1533 49.1525 18.1533 47.7957C18.1533 46.4389 19.3968 44.0588 25.9399 42.4898C30.4489 41.5233 35.0518 41.0632 39.663 41.1179Z" fill="#E1E5F7"/>
</g>
<g style="mix-blend-mode:multiply" opacity="0.45">
<path d="M39.2006 41.7392C43.6205 41.6859 48.0326 42.1257 52.355 43.0505C58.61 44.5664 59.8306 46.8403 59.8306 48.1062C59.8306 49.372 58.61 51.6763 52.355 53.1619C43.6751 54.9102 34.7336 54.9102 26.0538 53.1619C19.7988 51.646 18.5781 49.372 18.5781 48.1062C18.5781 46.8403 19.7988 44.5361 26.0538 43.0505C30.3736 42.1261 34.7832 41.6863 39.2006 41.7392Z" fill="#DEE3F6"/>
</g>
<g style="mix-blend-mode:multiply" opacity="0.48">
<path d="M38.7462 42.3911C42.9697 42.3443 47.1855 42.7637 51.3169 43.6418C57.2762 45.0592 58.4741 47.2043 58.4741 48.4549C58.4741 49.7056 57.2762 51.8507 51.3169 53.2605C43.0194 54.928 34.473 54.928 26.1756 53.2605C20.2087 51.8507 19.0107 49.698 19.0107 48.4549C19.0107 47.2118 20.2087 45.0592 26.1756 43.6418C30.3069 42.7629 34.5227 42.3435 38.7462 42.3911Z" fill="#DCE1F5"/>
</g>
<g style="mix-blend-mode:multiply" opacity="0.52">
<path d="M38.2839 42.9749C42.3136 42.9295 46.3361 43.3286 50.2783 44.1649C55.9495 45.499 57.102 47.538 57.102 48.7128C57.102 49.8877 55.9344 51.9342 50.2783 53.2607C42.3598 54.8372 34.208 54.8372 26.2895 53.2607C20.6183 51.9191 19.4658 49.8877 19.4658 48.7128C19.4658 47.538 20.641 45.4838 26.2895 44.1649C30.2317 43.3286 34.2541 42.9295 38.2839 42.9749Z" fill="#DADEF5"/>
</g>
<g style="mix-blend-mode:multiply" opacity="0.55">
<path d="M37.8124 43.5965C41.648 43.5542 45.4767 43.9303 49.2306 44.7183C54.6062 45.9765 55.7586 47.9017 55.7586 49.0387C55.7586 50.1757 54.6062 52.0706 49.2306 53.3516C41.692 54.8474 33.9328 54.8474 26.3942 53.3516C21.0186 52.0933 19.8662 50.1681 19.8662 49.0387C19.8662 47.9093 21.0186 46.0068 26.3942 44.7183C30.1481 43.9303 33.9768 43.5542 37.8124 43.5965Z" fill="#D8DCF4"/>
</g>
<g style="mix-blend-mode:multiply" opacity="0.58">
<path d="M37.3582 44.2177C40.9996 44.1789 44.6345 44.5321 48.2002 45.2713C53.28 46.4614 54.4097 48.3032 54.4097 49.3417C54.4097 50.3801 53.28 52.2296 48.2002 53.4196C41.0405 54.8244 33.6759 54.8244 26.5162 53.4196C21.4363 52.2296 20.3066 50.4256 20.3066 49.3417C20.3066 48.2578 21.4363 46.4614 26.5162 45.2713C30.0819 44.5326 33.7169 44.1794 37.3582 44.2177Z" fill="#D5DAF3"/>
</g>
<g style="mix-blend-mode:multiply" opacity="0.61">
<path d="M36.8951 44.8392C40.3427 44.8022 43.7844 45.1351 47.1609 45.8321C51.9526 46.9388 53.0519 48.6367 53.0519 49.622C53.0519 50.6074 51.9526 52.3432 47.1609 53.4119C40.3837 54.7358 33.4142 54.7358 26.6369 53.4119C21.8452 52.3053 20.7383 50.6074 20.7383 49.622C20.7383 48.6367 21.8452 46.9085 26.6369 45.8321C30.0109 45.1351 33.45 44.8022 36.8951 44.8392Z" fill="#D3D8F3"/>
</g>
<g style="mix-blend-mode:multiply" opacity="0.65">
<path d="M36.4331 45.4609C39.6968 45.4211 42.9554 45.7311 46.153 46.3857C50.649 47.4241 51.7332 49.0007 51.7332 49.9633C51.7332 50.9259 50.649 52.5101 46.153 53.5409C39.7556 54.7832 33.1788 54.7832 26.7814 53.5409C22.2854 52.5101 21.2012 50.9335 21.2012 49.9633C21.2012 48.9931 22.2854 47.4241 26.7814 46.3857C29.9567 45.7358 33.1921 45.4258 36.4331 45.4609Z" fill="#D1D6F2"/>
</g>
<g style="mix-blend-mode:multiply" opacity="0.68">
<path d="M35.9781 46.075C39.0332 46.0422 42.0831 46.3345 45.0763 46.9467C49.2842 47.9017 50.3381 49.3646 50.3381 50.2742C50.3381 51.1838 49.2842 52.6466 45.0763 53.6092C39.0653 54.7584 32.8909 54.7584 26.8799 53.6092C22.672 52.6466 21.6182 51.1838 21.6182 50.2742C21.6182 49.3646 22.672 47.9017 26.8799 46.9467C29.8732 46.3346 32.9231 46.0424 35.9781 46.075Z" fill="#CED4F1"/>
</g>
<g style="mix-blend-mode:multiply" opacity="0.71">
<path d="M35.5381 46.6964C38.4016 46.6662 41.2603 46.9355 44.0677 47.4999C47.9799 48.3791 49.0186 49.7284 49.0186 50.5849C49.0186 51.4414 47.9799 52.7982 44.0677 53.6699C38.4318 54.7411 32.6445 54.7411 27.0086 53.6699C23.0888 52.7982 22.0576 51.4414 22.0576 50.5849C22.0576 49.7284 23.0888 48.3791 27.0086 47.4999C29.8159 46.9351 32.6747 46.6659 35.5381 46.6964Z" fill="#CCD2F1"/>
</g>
<g style="mix-blend-mode:multiply" opacity="0.74">
<path d="M35.0531 47.3178C37.7233 47.2947 40.3887 47.5487 43.0065 48.0757C46.6306 48.8792 47.639 50.1223 47.639 50.9181C47.639 51.714 46.6306 52.9571 43.0065 53.7605C37.7446 54.7427 32.3464 54.7427 27.0846 53.7605C23.4605 52.9571 22.4521 51.714 22.4521 50.9181C22.4521 50.1223 23.4605 48.8792 27.0846 48.0757C29.7073 47.5473 32.3779 47.2933 35.0531 47.3178Z" fill="#CAD0F0"/>
</g>
<g style="mix-blend-mode:multiply" opacity="0.77">
<path d="M34.5906 47.9394C37.0663 47.9108 39.5383 48.1368 41.9677 48.614C45.2962 49.3341 46.2818 50.4635 46.2818 51.2063C46.2818 51.9491 45.2962 53.0785 41.9677 53.7986C37.0908 54.6981 32.0904 54.6981 27.2135 53.7986C23.8851 53.0785 22.8994 51.9491 22.8994 51.2063C22.8994 50.4635 23.8851 49.3341 27.2135 48.614C29.6429 48.1368 32.1149 47.9108 34.5906 47.9394Z" fill="#C7CEF0"/>
</g>
<g style="mix-blend-mode:multiply" opacity="0.81">
<path d="M34.129 48.5613C36.4181 48.534 38.7042 48.7371 40.9526 49.1676C43.9854 49.8195 44.9558 50.8276 44.9558 51.5173C44.9558 52.2071 43.993 53.2152 40.9526 53.8595C36.4557 54.6781 31.8478 54.6781 27.3509 53.8595C24.3182 53.2152 23.3477 52.2071 23.3477 51.5173C23.3477 50.8276 24.3182 49.8195 27.3509 49.1676C29.5844 48.7402 31.8551 48.537 34.129 48.5613Z" fill="#C5CCEF"/>
</g>
<g style="mix-blend-mode:multiply" opacity="0.84">
<path d="M33.6653 49.2131C35.7534 49.1916 37.8384 49.3769 39.89 49.7664C42.6346 50.3349 43.5747 51.2293 43.5747 51.866C43.5747 52.5027 42.6346 53.382 39.89 53.9657C35.7746 54.6933 31.5635 54.6933 27.4482 53.9657C24.696 53.3896 23.7559 52.4952 23.7559 51.866C23.7559 51.2369 24.696 50.3501 27.4482 49.7664C29.4972 49.3769 31.5797 49.1915 33.6653 49.2131Z" fill="#C3CAEE"/>
</g>
<g style="mix-blend-mode:multiply" opacity="0.87">
<path d="M33.2033 49.7966C35.0972 49.7782 36.9887 49.9406 38.8517 50.2816C41.3083 50.7819 42.2257 51.5626 42.2257 52.1387C42.2257 52.7148 41.3083 53.4955 38.8517 53.9882C35.1164 54.635 31.2977 54.635 27.5624 53.9882C25.1058 53.4955 24.1885 52.7148 24.1885 52.1387C24.1885 51.5626 25.1058 50.7819 27.5624 50.2816C29.4229 49.9409 31.3118 49.7785 33.2033 49.7966Z" fill="#C0C8EE"/>
</g>
<g style="mix-blend-mode:multiply" opacity="0.9">
<path d="M32.7485 50.418C34.4463 50.4017 36.1418 50.5438 37.8132 50.8425C39.974 51.2594 40.8459 51.9264 40.8459 52.4494C40.8459 52.9724 39.9512 53.6318 37.8132 54.0563C34.4571 54.6122 31.0324 54.6122 27.6763 54.0563C25.5155 53.6318 24.6436 52.9648 24.6436 52.4494C24.6436 51.934 25.5382 51.2594 27.6763 50.8425C29.3502 50.5439 31.0483 50.4018 32.7485 50.418Z" fill="#BEC6ED"/>
</g>
<g style="mix-blend-mode:multiply" opacity="0.94">
<path d="M32.2858 51.0396C33.7895 51.0268 35.2914 51.146 36.7742 51.3959C38.6394 51.7445 39.5112 52.2903 39.5112 52.7527C39.5112 53.215 38.6394 53.7683 36.7742 54.117C33.8008 54.592 30.7708 54.592 27.7973 54.117C25.9246 53.7683 25.0527 53.2226 25.0527 52.7527C25.0527 52.2827 25.9246 51.7445 27.7973 51.3959C29.2801 51.1454 30.7821 51.0262 32.2858 51.0396Z" fill="#BCC4EC"/>
</g>
<g style="mix-blend-mode:multiply" opacity="0.97">
<path d="M31.8238 51.6613C33.1335 51.6516 34.4418 51.7479 35.736 51.9494C37.313 52.2298 38.1622 52.6543 38.1622 53.0636C38.1622 53.4729 37.313 53.905 35.736 54.1778C33.1428 54.572 30.5048 54.572 27.9115 54.1778C26.3345 53.905 25.4854 53.4729 25.4854 53.0636C25.4854 52.6543 26.3345 52.2298 27.9115 51.9494C29.2057 51.7479 30.514 51.6516 31.8238 51.6613Z" fill="#B9C2EC"/>
</g>
<g style="mix-blend-mode:multiply" opacity="0.7">
<path d="M36.8045 53.3742C36.8045 53.9805 34.3707 54.4732 31.3608 54.4732C28.3508 54.4732 25.917 53.9805 25.917 53.3742C25.917 52.7678 28.3508 52.2827 31.3608 52.2827C34.3707 52.2827 36.8045 52.7678 36.8045 53.3742Z" fill="#B7C0EB"/>
</g>
</g>
<path d="M42.3057 51.7928C53.5922 45.7553 57.8461 31.7139 51.807 20.4304C45.7679 9.14696 31.7227 4.89423 20.4361 10.9317C9.14956 16.9692 4.89567 31.0106 10.9348 42.2941C16.9739 53.5776 31.0191 57.8303 42.3057 51.7928Z" fill="url(#paint0_linear_477_7530)"/>
<defs>
<linearGradient id="paint0_linear_477_7530" x1="20.4361" y1="10.9317" x2="42.2965" y2="51.7977" gradientUnits="userSpaceOnUse">
<stop stop-color="white"/>
<stop offset="1" stop-color="#DFE4FC"/>
</linearGradient>
</defs>
</svg>
