<svg width="83" height="98" viewBox="0 0 83 98" fill="none" xmlns="http://www.w3.org/2000/svg">
<g style="mix-blend-mode:multiply" opacity="0.15">
<g style="mix-blend-mode:multiply" opacity="0.03">
<path d="M16.1445 63.7414C11.4347 66.4763 6.65429 69.1831 2.14184 72.2C-0.833562 75.6257 4.17243 78.0222 6.71069 79.4884L32.7419 94.5164C35.5622 96.1517 37.8325 97.6884 41.0476 97.6884C43.6427 97.6768 46.1827 96.9395 48.3804 95.5597L59.3654 89.1735C66.0495 85.2966 73.0437 81.6453 79.4881 77.4302C78.9522 77.7685 79.7843 77.2328 79.8971 77.1341C80.0099 77.0354 80.2496 76.8804 80.3765 76.7394L80.447 76.6548C80.6708 76.4005 80.878 76.1321 81.0675 75.8512C81.32 75.3989 81.4511 74.889 81.4482 74.371C81.2649 71.1427 76.3999 69.4086 73.8899 68.0412L73.6361 67.8861L59.9577 60.0056L49.4239 53.9154C46.3498 52.1391 43.1769 50.2782 39.5529 51.0959H39.7221C39.0019 51.1989 38.2903 51.3544 37.5928 51.5611L37.353 51.6457C35.9097 52.2567 34.5225 52.9925 33.2072 53.8449L27.6654 57.0591L16.1445 63.7414Z" fill="#FDFDFE"/>
</g>
<g style="mix-blend-mode:multiply" opacity="0.06">
<path d="M14.6503 63.7418C9.92639 66.4767 5.16013 69.1834 0.647694 72.2003C-2.3277 75.626 2.67828 78.0085 5.21653 79.4606L31.2477 94.4886C34.068 96.138 36.3382 97.6888 39.5533 97.6888C42.1442 97.6651 44.6777 96.9234 46.872 95.5459L57.857 89.1456C64.541 85.2688 71.5353 81.6175 77.9796 77.4164C77.4578 77.7406 78.2758 77.2049 78.4027 77.1204C78.5296 77.0358 78.7411 76.8525 78.8821 76.7115V76.641C79.0513 76.4437 79.4461 75.8939 79.5026 75.8375C79.7441 75.4063 79.875 74.9219 79.8833 74.4277C79.7141 71.1853 74.835 69.4795 72.339 68.0979L72.0711 67.9569C67.5117 65.3254 62.9569 62.6985 58.4069 60.0764L47.8732 53.9862C44.7991 52.2099 41.6122 50.349 38.0022 51.1667H38.1573C37.442 51.271 36.7351 51.4265 36.0421 51.6319L35.8024 51.7165C34.3315 52.3264 32.9161 53.0622 31.572 53.9157L26.0443 57.13L14.6503 63.7418Z" fill="#FAFBFE"/>
</g>
<g style="mix-blend-mode:multiply" opacity="0.1">
<path d="M13.1409 63.742C8.41692 66.477 3.65064 69.1837 -0.86182 72.2006C-3.83723 75.6263 1.18289 77.9947 3.72115 79.4467L29.7383 94.4747C32.5586 96.1242 34.8289 97.689 38.044 97.689C40.634 97.6625 43.1648 96.9104 45.3486 95.518L56.3336 89.1317C63.0177 85.2408 70.0121 81.6037 76.4564 77.3885C75.9347 77.7127 76.7384 77.1911 76.8795 77.0924C77.0205 76.9938 77.2319 76.8246 77.3589 76.6836H77.4294C77.6532 76.4293 77.8605 76.1609 78.0499 75.88C78.2909 75.4486 78.4216 74.9643 78.4306 74.4703C78.2614 71.2419 73.3823 69.5502 70.8863 68.1686L70.6184 68.0277C66.0777 65.3962 61.5277 62.7693 56.9682 60.1471L46.4344 54.057C43.3462 52.2807 40.1734 50.4198 36.5634 51.2375H36.7185C36.0029 51.3402 35.2959 51.4956 34.6033 51.7027L34.2931 51.6181C32.8222 52.228 31.4068 52.9638 30.0626 53.8173L24.5349 57.0316L13.1409 63.742Z" fill="#F8F9FD"/>
</g>
<g style="mix-blend-mode:multiply" opacity="0.13">
<path d="M11.6472 63.7418C6.93732 66.4767 2.15697 69.1834 -2.35547 72.2003C-5.31676 75.626 -0.29666 77.9662 2.24159 79.4324L28.2727 94.4604C31.0929 96.0958 33.3351 97.6888 36.5643 97.6888C39.1556 97.6573 41.6861 96.9003 43.8688 95.5036C47.521 93.3749 51.1875 91.2743 54.8538 89.1033C61.5238 85.2124 68.5322 81.5752 74.9624 77.3741C74.4547 77.6984 75.2444 77.1767 75.3854 77.064C75.5264 76.9512 75.752 76.7961 75.8648 76.6552C75.9776 76.5142 75.8648 76.6551 75.8648 76.5846C75.8648 76.5142 76.443 75.8516 76.4853 75.7952C76.7338 75.3668 76.8652 74.8806 76.866 74.3854C76.6968 71.143 71.8178 69.4654 69.3218 68.0979L69.0679 67.9428C64.5132 65.3207 59.9725 62.6844 55.4037 60.0764L44.8841 53.9862C41.7959 52.2099 38.6231 50.349 35.0132 51.1667H35.1683C34.4527 51.2694 33.7457 51.4249 33.0531 51.6319L32.7992 51.7165C31.3586 52.3331 29.9718 53.0688 28.6534 53.9157L23.1257 57.13L11.6472 63.7418Z" fill="#F6F7FC"/>
</g>
<g style="mix-blend-mode:multiply" opacity="0.16">
<path d="M10.1505 63.7421C5.44067 66.4771 0.66031 69.1838 -3.85214 72.2007C-6.81343 75.6264 -1.77922 77.9525 0.744932 79.4186L26.7761 94.4467C29.5963 96.082 31.8385 97.6891 35.0677 97.6891C37.6547 97.6456 40.1788 96.8842 42.3581 95.4899L53.3431 89.0755C60.0131 85.1987 67.0215 81.5615 73.4517 77.3463C72.9441 77.6705 73.7338 77.163 73.8889 77.0361C74.044 76.9093 74.2414 76.7683 74.3683 76.6414V76.5709C74.5516 76.3736 74.9464 75.8238 74.9887 75.7674C75.2266 75.3339 75.3617 74.8516 75.3836 74.3576C75.2003 71.1011 70.3212 69.4517 67.8253 68.0701L67.5714 67.9291C63.0307 65.307 58.476 62.6707 53.9212 60.0626L43.4017 53.9725C40.3135 52.1962 37.1406 50.3353 33.5307 51.153H33.6858C32.9702 51.2557 32.2632 51.4112 31.5706 51.6182L31.3167 51.7028C29.8734 52.3138 28.4862 53.0497 27.1709 53.902L21.6009 57.074L10.1505 63.7421Z" fill="#F3F5FC"/>
</g>
<g style="mix-blend-mode:multiply" opacity="0.19">
<path d="M8.65628 63.7418C3.94641 66.4767 -0.833957 69.1834 -5.34641 72.2003C-8.30771 75.626 -3.27356 77.938 -0.735305 79.3901L25.2959 94.4181C28.1162 96.0675 30.3442 97.6888 33.5735 97.6888C36.1596 97.6417 38.6807 96.87 40.8498 95.4613L51.8348 89.0469C58.5048 85.1701 65.5132 81.5329 71.9576 77.3318C71.4499 77.642 72.2114 77.1344 72.3806 77.0217C72.5658 76.9183 72.7287 76.7794 72.86 76.6129V76.5424C73.0433 76.345 73.4241 75.8093 73.4664 75.7529C73.7022 75.3194 73.8326 74.8364 73.8471 74.3431C73.6638 71.0866 68.7847 69.4654 66.3029 68.0838L66.0349 67.9428C61.4943 65.3019 56.949 62.6797 52.3989 60.0764L41.8792 53.9862C38.791 52.2099 35.6182 50.349 31.9236 51.1667H32.0928C31.3772 51.2694 30.6702 51.4249 29.9776 51.6319L29.7238 51.7165C28.2805 52.3275 26.8932 53.0634 25.578 53.9157L20.1912 57.0736L8.65628 63.7418Z" fill="#F1F3FB"/>
</g>
<g style="mix-blend-mode:multiply" opacity="0.23">
<path d="M7.16191 63.7421C2.45204 66.4771 -2.32834 69.1838 -6.84079 72.2007C-9.81619 75.6264 -4.76794 77.9243 -2.22969 79.3764L23.8016 94.4044C26.6219 96.0538 28.8499 97.6891 32.065 97.6891C34.6513 97.6304 37.1705 96.8543 39.3414 95.4476C43.0077 93.3048 46.66 91.1478 50.3264 89.0332C56.9963 85.1423 64.0048 81.5192 70.4491 77.304C69.9556 77.6142 70.7029 77.1207 70.8721 76.9939C71.0608 76.8955 71.2247 76.7557 71.3516 76.585C71.3516 76.585 71.3516 76.585 71.4221 76.5145C71.6392 76.2632 71.8416 75.9996 72.0285 75.7251C72.2628 75.291 72.3932 74.8084 72.4092 74.3153C72.2259 71.0588 67.3609 69.4517 64.8649 68.0701L64.597 67.915L50.975 60.0626L40.4554 53.9725C37.3671 52.1962 34.1943 50.3353 30.4997 51.153H30.669C29.9534 51.2557 29.2464 51.4112 28.5537 51.6182L28.2999 51.7028C26.8566 52.3138 25.4694 53.0497 24.1541 53.902L18.6123 57.1163L7.16191 63.7421Z" fill="#EFF1FA"/>
</g>
<g style="mix-blend-mode:multiply" opacity="0.26">
<path d="M5.66816 63.7421C0.958288 66.4771 -3.82208 69.1838 -8.33453 72.2007C-11.3099 75.6264 -6.24758 77.8397 -3.72343 79.3622L22.3078 94.3903C25.1281 96.0256 27.3561 97.6891 30.5712 97.6891C33.1611 97.6272 35.6819 96.8409 37.8476 95.4194C41.5139 93.2907 45.1521 91.1901 48.8184 89.005C55.4884 85.1141 62.4968 81.491 68.9412 77.2899C68.4476 77.6 69.195 77.1067 69.3783 76.9657C69.5631 76.8678 69.7261 76.7335 69.8577 76.5709V76.5004C70.0792 76.2442 70.2863 75.976 70.4782 75.6969C70.714 75.2633 70.8445 74.7804 70.8589 74.2871C70.6897 71.0306 65.8107 69.4376 63.3147 68.056L63.0609 67.915L49.4389 60.0626L38.9052 53.9725C35.8311 52.1962 32.6583 50.3353 29.0342 51.153H29.2034C28.4833 51.256 27.7716 51.4115 27.0741 51.6182L26.8344 51.7028C25.391 52.3138 24.0038 53.0497 22.6886 53.902L17.1467 57.1163L5.66816 63.7421Z" fill="#ECEFFA"/>
</g>
<g style="mix-blend-mode:multiply" opacity="0.29">
<path d="M4.17288 63.7421C-0.536981 66.4771 -5.31734 69.1838 -9.82979 72.2007C-12.8052 75.6264 -7.74283 77.8397 -5.20458 79.3482L20.8266 94.3762C23.6469 96.0115 25.8608 97.6891 29.0759 97.6891C31.6615 97.6152 34.1758 96.8245 36.3382 95.4053C40.0045 93.2625 43.6426 91.1055 47.309 88.9768C53.979 85.1 60.9874 81.4769 67.4317 77.2617C66.9523 77.5719 67.6714 77.0784 67.8689 76.9375C68.056 76.8431 68.2199 76.7083 68.3483 76.5427L68.4188 76.4723C68.6021 76.2749 68.9829 75.7392 69.0252 75.6828C69.269 75.2525 69.4 74.7675 69.4059 74.273C69.2367 71.0024 64.3576 69.4376 61.8616 68.056L61.6078 67.915L48 60.0626L37.4663 53.9725C34.3922 52.1962 31.2193 50.3353 27.5953 51.153H27.7645C27.0443 51.256 26.3326 51.4115 25.6352 51.6182L25.3955 51.7028C23.9521 52.3138 22.5649 53.0497 21.2496 53.902L15.7078 57.1163L4.17288 63.7421Z" fill="#EAEDF9"/>
</g>
<g style="mix-blend-mode:multiply" opacity="0.32">
<path d="M2.67722 63.7425C-2.04675 66.4774 -6.81302 69.1841 -11.3255 72.201C-14.3009 75.6267 -9.2244 77.84 -6.70025 79.3203L19.331 94.3624C22.1513 95.9977 24.351 97.6894 27.5803 97.6894C30.1651 97.6119 32.6763 96.8109 34.8284 95.3774C38.4948 93.2487 42.1329 91.1482 45.7992 88.9489C52.4692 85.0721 59.4917 81.449 65.922 77.2479C65.4566 77.544 66.1617 77.0647 66.3591 76.9237C66.5464 76.8234 66.71 76.684 66.8386 76.5149C67.0557 76.2635 67.2581 75.9999 67.445 75.7254C67.6842 75.2925 67.8194 74.8098 67.8398 74.3156C67.6564 71.045 62.7774 69.5083 60.2955 68.1268L60.0276 67.9717C55.5058 65.3496 50.9745 62.7368 46.4338 60.1335L35.9001 54.0433C32.8119 52.267 29.6391 50.4061 25.9586 51.2238H26.1137C25.3982 51.3265 24.6912 51.482 23.9985 51.689L23.7588 51.7736C22.288 52.3835 20.8726 53.1193 19.5284 53.9728L14.0006 57.1871L2.67722 63.7425Z" fill="#E8EBF9"/>
</g>
<g style="mix-blend-mode:multiply" opacity="0.35">
<path d="M1.18198 63.7414C-3.542 66.4764 -8.32239 69.1831 -12.8348 72.2C-15.7961 75.6257 -10.7196 77.839 -8.18139 79.2488L17.8499 94.2769C20.6702 95.9263 22.8558 97.6321 26.0851 97.6321C28.6655 97.5426 31.1703 96.7371 33.3191 95.306C36.9855 93.1631 40.6237 90.9921 44.29 88.8774C50.96 84.9865 57.9825 81.3775 64.4127 77.1765C63.9474 77.4584 64.6525 76.9932 64.864 76.8381C65.0451 76.7348 65.2073 76.6012 65.3435 76.4433V76.3729C65.5616 76.1224 65.7641 75.8588 65.9498 75.5834C66.1814 75.1482 66.3115 74.6663 66.3305 74.1737C66.1472 70.903 61.2681 69.3663 58.7863 67.9848L58.5183 67.8438C53.9871 65.2217 49.4558 62.6089 44.9245 60.0056L34.4049 53.9154C31.3167 52.1391 28.1439 50.2782 24.5339 51.0959H24.689C23.9734 51.1986 23.2664 51.354 22.5738 51.5611L22.3341 51.6457C20.8875 52.2592 19.4958 52.9949 18.1742 53.8449L12.6464 57.0591L1.18198 63.7414Z" fill="#E5E9F8"/>
</g>
<g style="mix-blend-mode:multiply" opacity="0.39">
<path d="M-0.326306 63.7419C-5.03617 66.4769 -9.81654 69.1836 -14.329 72.2005C-17.2903 75.6262 -12.2138 77.8395 -9.67554 79.2493L16.3557 94.2773C19.1759 95.9126 21.3616 97.6466 24.5908 97.6466C27.175 97.5539 29.6813 96.7383 31.8249 95.2924C35.4912 93.1636 39.1153 90.9926 42.7817 88.8639C49.4657 84.9729 56.4741 81.3639 62.9184 77.1628C62.4531 77.4448 63.144 76.9937 63.3556 76.8245C63.5361 76.7203 63.6981 76.5869 63.8351 76.4298V76.3593C64.0485 76.1085 64.2462 75.8448 64.4273 75.5698C64.6571 75.1339 64.7871 74.6523 64.8081 74.16C64.6247 70.8894 59.7456 69.381 57.2637 67.9994L57.0099 67.8584C52.4881 65.2363 47.9568 62.6235 43.4162 60.0202L32.8966 53.93C29.8084 52.1537 26.6356 50.2929 22.9551 51.1105H23.1102C22.3946 51.2132 21.6876 51.3687 20.995 51.5757L20.7412 51.6603C19.2992 52.2742 17.9123 53.01 16.5954 53.8595L11.0676 57.0738L-0.326306 63.7419Z" fill="#E3E7F7"/>
</g>
<g style="mix-blend-mode:multiply" opacity="0.42">
<path d="M-1.81999 63.7419C-6.52987 66.4768 -11.3102 69.1836 -15.8227 72.2004C-18.784 75.6262 -13.6934 77.8395 -11.1692 79.2493L14.8619 94.2773C17.6822 95.9126 19.868 97.6607 23.0972 97.6607C25.677 97.5561 28.1768 96.736 30.3171 95.2924C33.9835 93.1495 37.6076 90.9785 41.274 88.8497C47.958 84.9729 54.9664 81.3639 61.4107 77.1628C60.9595 77.4447 61.6223 76.9795 61.8479 76.8104C62.0336 76.7138 62.197 76.5793 62.3274 76.4156V76.3452C62.5248 76.1478 62.8914 75.612 62.9337 75.5698C63.1711 75.1368 63.3016 74.6535 63.3145 74.16C63.1312 70.8752 58.252 69.395 55.7702 68.0135L55.5164 67.8584L41.9367 60.0342L31.4734 53.9017C28.3852 52.1254 25.2124 50.2645 21.6024 51.0822H21.7575C21.042 51.1849 20.335 51.3404 19.6423 51.5474L19.3885 51.632C17.9452 52.243 16.558 52.9789 15.2427 53.8313L9.70084 57.0455L-1.81999 63.7419Z" fill="#E1E5F7"/>
</g>
<g style="mix-blend-mode:multiply" opacity="0.45">
<path d="M-3.31457 63.7425C-8.02443 66.4774 -12.8048 69.1841 -17.3172 72.201C-20.2926 75.6267 -15.1879 77.84 -12.6497 79.2498L13.3814 94.2919C16.2017 95.9272 18.3733 97.6894 21.5885 97.6894C24.172 97.5816 26.6734 96.7513 28.8084 95.2928C32.4747 93.1641 36.1129 90.979 39.7652 88.8502C46.4492 84.9734 53.4576 81.3644 59.9019 77.1633C59.4507 77.4453 60.1135 76.9942 60.3532 76.825C60.53 76.7156 60.6913 76.5828 60.8327 76.4303C61.0508 76.1798 61.2533 75.9162 61.439 75.6408C61.6749 75.2073 61.8053 74.7243 61.8198 74.2311C61.6506 70.9463 56.7573 69.4802 54.2896 68.0986L54.0217 67.9576C49.5092 65.3496 44.9827 62.7274 40.4561 60.1335L29.9224 54.0433C26.8483 52.267 23.6754 50.4061 19.9809 51.2238H20.1501C19.4345 51.3265 18.7275 51.482 18.0349 51.689L17.7811 51.7736C16.3377 52.3846 14.9505 53.1205 13.6353 53.9728L8.09341 57.1871L-3.31457 63.7425Z" fill="#DEE3F6"/>
</g>
<g style="mix-blend-mode:multiply" opacity="0.48">
<path d="M-4.81021 63.7413C-9.52008 66.4763 -14.3005 69.183 -18.8129 72.1999C-21.7883 75.6256 -16.6695 77.8389 -14.1453 79.2487L11.8858 94.2767C14.7061 95.9261 16.8777 97.7024 20.0929 97.7024C22.6502 97.5828 25.1246 96.7582 27.2423 95.3199C30.9087 93.1911 34.5469 90.9919 38.1991 88.8773C44.8832 84.9863 51.9057 81.3915 58.3359 77.1904C57.8988 77.4583 58.5474 77.0212 58.7872 76.838C58.9667 76.7323 59.1285 76.5991 59.2667 76.4432V76.3727C59.45 76.1613 59.8307 75.6397 59.8589 75.5974C60.1001 75.1653 60.2354 74.6821 60.2537 74.1876C60.0704 70.8888 55.1772 69.4509 52.7095 68.0693L52.4557 67.9283C47.9244 65.3062 43.4025 62.6981 38.8901 60.1041L28.3563 54.014C25.2822 52.2377 22.1093 50.3768 18.4853 51.1945H18.6545C17.9343 51.2975 17.2227 51.453 16.5253 51.6597L16.2855 51.7443C14.8421 52.3553 13.4549 53.0912 12.1396 53.9435L6.5978 57.1577L-4.81021 63.7413Z" fill="#DCE1F5"/>
</g>
<g style="mix-blend-mode:multiply" opacity="0.52">
<path d="M-6.3053 63.7413C-11.0152 66.4762 -15.7956 69.1829 -20.308 72.1998C-23.2834 75.6255 -18.1646 77.8389 -15.6404 79.2486L10.4049 94.2766C13.2252 95.9261 15.3827 97.7164 18.5978 97.7164C21.1806 97.5927 23.6769 96.7478 25.8036 95.2775C29.47 93.1488 33.0941 90.9637 36.7605 88.8349C43.4305 84.944 50.453 81.3491 56.8833 77.148C56.4461 77.4159 57.0806 76.993 57.3486 76.7956C57.5239 76.6899 57.6811 76.5566 57.8139 76.4009L57.8844 76.3304C58.0982 76.0848 58.2961 75.8259 58.4768 75.5551C58.7065 75.1191 58.8365 74.6376 58.8574 74.1453C58.6741 70.8606 53.781 69.4367 51.3132 68.0551L51.0594 67.9L37.5079 60.09L26.9741 53.9999C23.9 52.2236 20.7272 50.3627 17.0326 51.1803H17.2018C16.4816 51.2834 15.7699 51.4388 15.0725 51.6455L14.8328 51.7301C13.3894 52.3411 12.0022 53.077 10.6869 53.9294L5.14507 57.1436L-6.3053 63.7413Z" fill="#DADEF5"/>
</g>
<g style="mix-blend-mode:multiply" opacity="0.55">
<path d="M-7.79949 63.7426C-12.5235 66.4775 -17.2898 69.1842 -21.8023 72.2011C-24.7777 75.6268 -19.6589 77.7415 -17.1206 79.2499L8.91068 94.2215C11.731 95.8568 13.8744 97.6754 17.1036 97.6754C19.6819 97.5397 22.1717 96.6905 24.2953 95.2224C27.9617 93.0937 31.5858 90.8945 35.2522 88.7658C41.9222 84.8889 48.9447 81.294 55.3891 77.093C54.9519 77.3608 55.5724 76.9238 55.8403 76.7264C56.0159 76.6208 56.1771 76.4929 56.3197 76.3458V76.2753C56.5347 76.0307 56.7325 75.7716 56.912 75.4999C57.1435 75.0647 57.2737 74.5828 57.2927 74.0902C57.1094 70.7913 52.2163 69.3957 49.7485 68L49.4947 67.859L35.9572 60.049L25.4235 53.9588C22.3353 52.1825 19.1625 50.3217 15.5525 51.1393H15.7076C14.992 51.242 14.285 51.3975 13.5924 51.6045L13.3527 51.6891C11.906 52.3026 10.5143 53.0384 9.19273 53.8883L3.66499 57.1026L-7.79949 63.7426Z" fill="#D8DCF4"/>
</g>
<g style="mix-blend-mode:multiply" opacity="0.58">
<path d="M-9.29514 63.7422C-14.0191 66.4772 -18.7996 69.1839 -23.298 72.2008C-26.2734 75.6265 -21.1404 77.727 -18.6163 79.2496L7.41506 94.2776C10.2354 95.913 12.3788 97.7456 15.608 97.7456C18.1857 97.6064 20.6726 96.7468 22.7857 95.2644C26.4521 93.1357 30.0761 90.9365 33.7425 88.8078C40.4125 84.9309 47.435 81.336 53.8794 77.1349C53.4564 77.4028 54.0627 76.9799 54.3307 76.7684C54.5088 76.6665 54.6704 76.5381 54.8101 76.3878H54.8805C55.0639 76.1763 55.4447 75.6547 55.4729 75.6124C55.7026 75.1764 55.8326 74.6949 55.8536 74.2026C55.6702 70.9038 50.7771 69.5222 48.3234 68.1407L48.0555 67.9997C43.5618 65.3869 39.0493 62.7836 34.518 60.1896L23.9984 54.0995C20.9102 52.3232 17.7374 50.4623 14.0569 51.28H14.212C13.4964 51.3826 12.7894 51.5381 12.0968 51.7452L11.8571 51.8297C10.3862 52.4396 8.97076 53.1754 7.62662 54.029L2.09878 57.2432L-9.29514 63.7422Z" fill="#D5DAF3"/>
</g>
<g style="mix-blend-mode:multiply" opacity="0.61">
<path d="M-10.832 63.7421C-15.5418 66.4771 -20.3222 69.1838 -24.8346 72.2007C-27.7959 75.6264 -22.6631 77.7128 -20.1248 79.1649L5.9064 94.1929C8.72668 95.8423 10.856 97.6891 14.0852 97.6891C16.6588 97.5402 19.1398 96.676 21.2487 95.1938C24.9151 93.0651 28.5392 90.8518 32.2055 88.7371C38.8755 84.8462 45.898 81.2654 52.3423 77.0643C51.9193 77.3181 52.5256 76.9093 52.8077 76.6978C52.9791 76.5867 53.1355 76.4541 53.273 76.3031V76.2326C53.4705 76.0211 53.8371 75.4995 53.8653 75.4713C54.0968 75.0361 54.227 74.5542 54.246 74.0616C54.0768 70.7486 49.1695 69.3953 46.7159 68.0137L46.462 67.8586C41.9496 65.2459 37.4372 62.6472 32.9247 60.0626L22.4051 53.9725C19.3168 52.1962 16.144 50.3353 12.5341 51.153H12.6892C11.9736 51.2557 11.2666 51.4112 10.574 51.6182H10.3201C8.87819 52.2321 7.49123 52.9679 6.17433 53.8174L0.646608 57.0317L-10.832 63.7421Z" fill="#D3D8F3"/>
</g>
<g style="mix-blend-mode:multiply" opacity="0.65">
<path d="M-12.2407 63.7421C-16.9506 66.4771 -21.7309 69.1838 -26.2434 72.2007C-29.2046 75.6264 -24.0577 77.6987 -21.5336 79.1508L4.49759 94.1788C7.31787 95.8282 9.44715 97.6891 12.6764 97.6891C15.2532 97.5341 17.735 96.6599 19.8399 95.1657C23.5062 93.0369 27.1162 90.8377 30.7826 88.7089C37.4525 84.8321 44.4749 81.2372 50.9193 77.0361C50.5103 77.2899 51.0885 76.8811 51.3846 76.6696C51.5532 76.5541 51.7134 76.4269 51.8641 76.289V76.2185C52.0615 75.9929 52.4281 75.4854 52.4564 75.4431C52.6968 75.0115 52.8276 74.5274 52.8371 74.0334C52.6679 70.7345 47.7606 69.3953 45.3069 67.9996L45.0531 67.8586C40.5595 65.2459 36.0517 62.6472 31.5299 60.0626L21.0103 53.9725C17.9221 52.1962 14.7493 50.3353 11.0689 51.153H11.224C10.5084 51.2557 9.80139 51.4112 9.10877 51.6182H8.91133C7.46799 52.2292 6.08078 52.9651 4.76552 53.8174L-0.776302 57.0317L-12.2407 63.7421Z" fill="#D1D6F2"/>
</g>
<g style="mix-blend-mode:multiply" opacity="0.68">
<path d="M-13.7933 63.7421C-18.5032 66.4771 -23.2836 69.1838 -27.7961 72.2007C-30.7574 75.6264 -25.6103 77.6705 -23.0862 79.1367L2.95924 94.1647C5.77953 95.8 7.8947 97.6891 11.1098 97.6891C13.6871 97.5247 16.1676 96.6461 18.2734 95.1516C21.9398 93.0228 25.5498 90.8095 29.2161 88.6808C35.8861 84.8039 42.9227 81.2231 49.353 77.022C48.9581 77.2617 49.5222 76.867 49.8183 76.6414C49.9954 76.538 50.1568 76.4098 50.2977 76.2608V76.1903C50.5049 75.9478 50.698 75.6937 50.8759 75.429C51.1075 74.9938 51.2377 74.5119 51.2567 74.0193C51.0734 70.7064 46.166 69.3812 43.7124 67.9996L43.4586 67.8586C38.9649 65.2459 34.4618 62.6472 29.9493 60.0626L19.4156 53.9725C16.3415 52.1962 13.1687 50.3353 9.54459 51.153H9.7138C8.99793 51.2541 8.29081 51.4096 7.59859 51.6182L7.34477 51.7028C5.90142 52.3138 4.51421 53.0497 3.19894 53.902L-2.37115 57.074L-13.7933 63.7421Z" fill="#CED4F1"/>
</g>
<g style="mix-blend-mode:multiply" opacity="0.71">
<path d="M-15.2879 63.7421C-19.9978 66.4771 -24.7782 69.1838 -29.2907 72.2007C-32.2661 75.6264 -27.1049 77.6565 -24.5666 79.1226L1.46447 94.1506C4.28475 95.786 6.4 97.6891 9.61512 97.6891C12.3367 97.6891 14.3955 96.5049 16.7645 95.1233C20.4309 92.9946 24.0409 90.7813 27.7072 88.6525C34.3772 84.7757 41.4137 81.1949 47.844 76.9939C47.4491 77.2476 48.0132 76.8529 48.3235 76.6132C48.4966 76.5101 48.6535 76.3818 48.7888 76.2326L48.8593 76.1621C49.0699 75.9224 49.263 75.668 49.4374 75.4008C49.6655 74.9642 49.7954 74.4831 49.8182 73.9911C49.6349 70.6781 44.7276 69.3812 42.288 67.9996L42.0201 67.8445C37.5358 65.2506 33.0234 62.6425 28.525 60.0626L17.9913 53.9725C14.9172 52.1962 11.7444 50.3353 8.04988 51.153H8.21909C7.50322 51.2541 6.7961 51.4096 6.10388 51.6182L5.85007 51.7028C4.40672 52.3138 3.01951 53.0497 1.70426 53.902L-3.78121 57.074L-15.2879 63.7421Z" fill="#CCD2F1"/>
</g>
<g style="mix-blend-mode:multiply" opacity="0.74">
<path d="M-16.7816 63.7418C-21.4915 66.4767 -26.2719 69.1834 -30.7844 72.2003C-33.7598 75.626 -28.5845 77.642 -26.0603 79.094L-0.0292034 94.1221C2.79108 95.7715 4.90633 97.6888 8.12145 97.6888C10.843 97.6888 12.9018 96.4764 15.2709 95.1089C18.9372 92.9802 22.5331 90.7528 26.1995 88.6381C32.8835 84.7331 39.9342 81.2228 46.3503 76.9935C45.9555 77.2331 46.4914 76.8525 46.8157 76.6129C46.9863 76.5002 47.1467 76.3728 47.2951 76.2322V76.1617C47.4925 75.9362 47.8592 75.4286 47.8874 75.4005C48.119 74.9652 48.2491 74.4833 48.2681 73.9907C48.0848 70.6637 43.1775 69.3949 40.738 67.9992L40.4842 67.8582L26.9891 60.0764L16.4553 53.9862C13.3812 52.2099 10.2084 50.349 6.58436 51.1667H6.75357C6.05278 51.2677 5.3601 51.4185 4.6807 51.6178L4.44101 51.7024C2.99766 52.3134 1.61045 53.0493 0.295189 53.9016L-5.24665 57.1159L-16.7816 63.7418Z" fill="#CAD0F0"/>
</g>
<g style="mix-blend-mode:multiply" opacity="0.77">
<path d="M-18.2759 63.7421C-22.9999 66.4771 -27.7662 69.1838 -32.2786 72.2007C-35.254 75.6264 -30.0787 77.6283 -27.5405 79.0803L-1.50935 94.1083C1.31094 95.7578 3.39797 97.6891 6.62719 97.6891C9.34877 97.6891 11.3935 96.4626 13.7625 95.0951C17.4289 92.9523 21.0247 90.739 24.6911 88.6103C31.3752 84.7334 38.3976 81.1526 44.842 76.9516C44.4471 77.1912 44.983 76.8106 45.3074 76.5709C45.4833 76.4659 45.6446 76.3378 45.7868 76.1903L45.8573 76.1198C46.0547 75.8943 46.4213 75.3867 46.4354 75.3585C46.6635 74.9219 46.7935 74.4408 46.8162 73.9488C46.6329 70.6358 41.7256 69.3811 39.286 67.9855L39.0322 67.8304C34.5339 65.2365 30.0496 62.6425 25.5372 60.0626L15.0176 53.9725C11.9293 52.1962 8.77065 50.3353 5.07607 51.153H5.23117C4.51558 51.2557 3.80858 51.4112 3.11596 51.6182L2.87617 51.7028C1.40529 52.3127 -0.0101128 53.0485 -1.35425 53.902L-6.88198 57.1163L-18.2759 63.7421Z" fill="#C7CEF0"/>
</g>
<g style="mix-blend-mode:multiply" opacity="0.81">
<path d="M-19.7725 63.7419C-24.4965 66.4769 -29.2769 69.1836 -33.7753 72.2005C-36.7507 75.6262 -31.5613 77.614 -29.0371 79.066L-3.00593 94.094C-0.185646 95.7294 1.90139 97.6889 5.13062 97.6889C7.8522 97.6889 9.8828 96.4342 12.1813 95.0668C15.8477 92.938 19.4577 90.7106 23.1099 88.5819C29.794 84.705 36.8165 81.1383 43.2608 76.9373C42.8801 77.1628 43.4019 76.7963 43.7403 76.5425C43.9065 76.4298 44.0623 76.3024 44.2057 76.1619C44.4031 75.9363 44.7697 75.4288 44.7838 75.4006C45.0154 74.9654 45.1456 74.4835 45.1646 73.9909C44.9954 70.6638 40.0739 69.4232 37.6344 68.0417L37.3806 67.8866L23.8996 60.1047L13.3799 54.0287C10.2917 52.2524 7.11889 50.3915 3.50892 51.2092H3.6641C2.94852 51.3118 2.24152 51.4674 1.54889 51.6744L1.3091 51.759C-0.137554 52.3725 -1.52925 53.1082 -2.85083 53.9582L-8.37857 57.1724L-19.7725 63.7419Z" fill="#C5CCEF"/>
</g>
<g style="mix-blend-mode:multiply" opacity="0.84">
<path d="M-21.2806 63.7421C-25.9905 66.4771 -30.771 69.1838 -35.2834 72.2007C-38.2447 75.6264 -33.0553 77.5859 -30.5312 79.0521L-4.48585 94.0801C-1.66557 95.7154 0.40736 97.6891 3.63659 97.6891C6.35817 97.6891 8.37467 96.4203 10.6873 95.0529C14.3537 92.91 17.9636 90.6826 21.6159 88.5539C28.3 84.6771 35.3366 81.1104 41.7668 76.9093C41.4002 77.1489 41.9079 76.7824 42.2463 76.5145C42.4147 76.4039 42.5748 76.2814 42.7257 76.148V76.0775C42.9231 75.852 43.2898 75.3444 43.3039 75.3162C43.526 74.8773 43.6555 74.3975 43.6846 73.9065C43.5013 70.5795 38.5799 69.3671 36.1545 67.9714L35.9007 67.8304L22.4197 60.0486L11.9 53.9725C8.81179 52.1962 5.63899 50.3353 1.95852 51.153H2.11361C1.39802 51.2557 0.691021 51.4112 -0.00160599 51.6182L-0.255421 51.7028C-1.69738 52.3167 -3.08435 53.0524 -4.40125 53.902L-9.92899 57.1163L-21.2806 63.7421Z" fill="#C3CAEE"/>
</g>
<g style="mix-blend-mode:multiply" opacity="0.87">
<path d="M-22.7759 63.7421C-27.4858 66.4771 -32.2662 69.1838 -36.7787 72.2007C-39.74 75.6264 -34.5506 77.5719 -32.0124 79.0239L-5.98119 94.066C-3.16091 95.7013 -1.08799 97.6891 2.14123 97.6891C4.8628 97.6891 6.8793 96.4062 9.19193 95.0247C12.8583 92.8959 16.4541 90.6544 20.1205 88.5398C26.7905 84.6488 33.827 81.0962 40.2572 76.8952C39.8906 77.1207 40.3842 76.7683 40.7508 76.5004L41.2161 76.1198V76.0493C41.4277 75.8237 41.7802 75.3162 41.7943 75.3021C42.0259 74.8669 42.1561 74.385 42.1751 73.8924C41.9918 70.5512 37.0704 69.3671 34.6449 67.9714L34.3911 67.8163L20.9243 60.0486L10.4046 53.9725C7.31642 52.1962 4.1436 50.3353 0.533646 51.153H0.68874C-0.026844 51.2557 -0.733845 51.4112 -1.42647 51.6182L-1.68028 51.7028C-3.12363 52.3138 -4.51084 53.0497 -5.82609 53.902L-11.3679 57.1163L-22.7759 63.7421Z" fill="#C0C8EE"/>
</g>
<g style="mix-blend-mode:multiply" opacity="0.9">
<path d="M-24.2696 63.7419C-28.9795 66.4769 -33.7599 69.1836 -38.2723 72.2005C-41.2336 75.6262 -36.0302 77.5576 -33.506 79.0096L-7.47477 94.0376C-4.65449 95.6871 -2.58156 97.6889 0.647667 97.6889C3.36924 97.6889 5.37164 96.3778 7.69838 95.0104C11.3647 92.8675 14.9606 90.6401 18.627 88.5114C25.297 84.6346 32.3335 81.0679 38.7638 76.8668C38.4112 77.0923 38.8908 76.7399 39.2574 76.4721L39.7368 76.0914C39.9342 75.8517 40.3009 75.3583 40.315 75.3302C40.5466 74.8949 40.6767 74.413 40.6957 73.9204C40.5124 70.5934 35.591 69.4092 33.1656 68.0276L32.9117 67.8725L19.4589 60.1047L8.9252 54.0287C5.85108 52.2524 2.67828 50.3915 -1.01629 51.2092H-0.847084C-1.56295 51.3103 -2.27007 51.4658 -2.9623 51.6744L-3.21611 51.759C-4.65946 52.37 -6.04668 53.1059 -7.36194 53.9582L-12.9038 57.1724L-24.2696 63.7419Z" fill="#BEC6ED"/>
</g>
<g style="mix-blend-mode:multiply" opacity="0.94">
<path d="M-25.7641 63.7419C-30.474 66.4768 -35.2543 69.1835 -39.7668 72.2004C-42.7422 75.6261 -37.5247 77.5434 -35.0005 78.9955L-8.95522 94.0235C-6.13495 95.6588 -4.07616 97.6888 -0.86105 97.6888C1.86052 97.6888 3.86291 96.3637 6.18964 94.9821C9.856 92.8534 13.4518 90.6119 17.1182 88.4831C23.7882 84.6063 30.8247 81.0537 37.269 76.8526C36.9165 77.0641 37.3819 76.7257 37.7485 76.4438C38.1152 76.1618 38.1715 76.1195 38.2279 76.0773C38.4394 75.8517 38.792 75.3442 38.8061 75.3301C39.0377 74.8949 39.1678 74.4129 39.1868 73.9203C39.0035 70.5792 34.0822 69.4232 31.6567 68.0275L31.4029 67.8866L17.9643 60.1188L7.50106 53.9017C4.42696 52.1254 1.25415 50.2645 -2.36991 51.0822H-2.2007C-2.91656 51.1833 -3.62368 51.3389 -4.3159 51.5474L-4.56972 51.632C-6.01306 52.243 -7.40027 52.9789 -8.71552 53.8312L-14.2574 57.0455L-25.7641 63.7419Z" fill="#BCC4EC"/>
</g>
<g style="mix-blend-mode:multiply" opacity="0.97">
<path d="M-27.2599 63.7419C-31.9697 66.4768 -36.7501 69.1835 -41.2625 72.2004C-44.2379 75.6261 -39.0063 77.5152 -36.4821 78.9814L-10.4509 94.0094C-7.63064 95.6447 -5.57185 97.6888 -2.35673 97.6888C0.364845 97.6888 2.36724 96.2791 4.69398 94.968C8.36034 92.8252 11.9562 90.5837 15.6226 88.4549C22.2925 84.5781 29.3291 81.0255 35.7734 76.8244C35.4209 77.0359 35.8722 76.7116 36.267 76.4156L36.7323 76.049V75.9786C36.9439 75.753 37.2964 75.2455 37.3105 75.2314C37.5421 74.7962 37.6722 74.3142 37.6912 73.8216C37.5079 70.4805 32.5866 69.3527 30.1752 67.957L29.9214 67.802L16.4827 60.0483L6.09 53.9017C3.0159 52.1254 -0.156902 50.2645 -3.85147 51.0822H-3.68226C-4.40242 51.1852 -5.1141 51.3407 -5.81159 51.5474L-6.05129 51.632C-7.49463 52.243 -8.88184 52.9789 -10.1971 53.8312L-15.7389 57.0455L-27.2599 63.7419Z" fill="#B9C2EC"/>
</g>
<g style="mix-blend-mode:multiply" opacity="0.5">
<path d="M36.2675 73.7381C36.0983 70.3828 31.1628 69.2691 28.7514 67.8876L15.0589 59.9788L4.53932 53.9027C1.46521 52.1264 -1.7076 50.2655 -5.33167 51.0832H-5.17657C-5.89215 51.1859 -6.59916 51.3414 -7.29178 51.5484L-7.53148 51.633C-8.97483 52.244 -10.362 52.9799 -11.6773 53.8322L-17.2192 57.0465L-28.6836 63.7146C-33.4076 66.4496 -38.1739 69.1563 -42.6864 72.1732C-45.6618 75.5989 -40.4301 77.4739 -37.906 78.9401L-11.8606 93.9682C-9.04034 95.6035 -7.00977 97.6617 -3.78054 97.6617C-1.05897 97.6617 0.929325 96.2519 3.27016 94.9127C6.93653 92.7839 10.5183 90.5424 14.1846 88.4137C20.8546 84.5227 27.8913 80.9842 34.3356 76.7831C33.7998 77.1074 35.1816 76.1206 35.3085 75.9937C35.4354 75.8668 35.9149 75.2042 35.929 75.1901C36.1551 74.7397 36.2711 74.242 36.2675 73.7381Z" fill="#B7C0EB"/>
</g>
</g>
<path d="M39.3709 25.1565C39.3709 25.1565 39.3709 25.2693 39.3709 25.3257C39.3775 25.3677 39.3775 25.4105 39.3709 25.4526V25.6076C39.3762 25.6498 39.3762 25.6924 39.3709 25.7345C39.3762 25.7861 39.3762 25.838 39.3709 25.8896L39.2441 26.1152C39.1996 26.1903 39.1424 26.2571 39.0749 26.3125L38.8633 26.524L38.6941 26.6509L38.5531 26.7636L38.3698 26.8905L38.1723 27.0033L0.281871 49.0378L0.197266 95.8136L38.1019 73.7932L38.2428 73.7086C38.3005 73.6615 38.3618 73.619 38.4262 73.5817L38.5672 73.4689L38.7223 73.342L38.9057 73.1587L39.0044 73.046V72.9473C39.05 72.8966 39.0879 72.8397 39.1171 72.7781C39.1347 72.724 39.1584 72.6719 39.1876 72.623V72.5243V72.3693C39.1792 72.3369 39.1792 72.303 39.1876 72.2706C39.194 72.2191 39.194 72.167 39.1876 72.1155C39.1937 72.0782 39.1937 72.0401 39.1876 72.0027L39.2723 25.2129C39.2723 25.2129 39.3709 25.1142 39.3709 25.1565Z" fill="#E4E7FB"/>
<path d="M37.8771 22.9011C39.8795 24.0431 39.8795 25.9321 37.8771 27.1304L-0.0133514 49.165C-1.13989 49.7316 -2.38344 50.0266 -3.64448 50.0266C-4.90553 50.0266 -6.14899 49.7316 -7.27553 49.165L-45.3494 27.1445C-47.3518 25.9885 -47.3659 24.0995 -45.3494 22.9153L-7.52934 0.86656C-6.40626 0.296895 -5.16472 0 -3.90535 0C-2.64599 0 -1.40436 0.296895 -0.281284 0.86656L37.8771 22.9011Z" fill="url(#paint0_linear_477_7898)"/>
<path d="M-0.56463 96.1528L0.366002 95.6453V48.8977L-0.480027 49.3629H-0.635204L-1.02999 49.518H-1.18508L-1.43897 49.6025H-1.65044L-1.93248 49.673H-2.12991L-2.70802 49.7435H-2.89134H-3.22975H-4.48476H-4.73857H-4.96424C-5.05812 49.7503 -5.15231 49.7503 -5.24619 49.7435H-5.44362C-5.55374 49.7237 -5.66214 49.6954 -5.76792 49.6589C-5.82885 49.6654 -5.89031 49.6654 -5.95124 49.6589L-6.5012 49.4757L-6.75501 49.3629H-6.88196C-7.00887 49.3629 -7.72801 48.8976 -7.84082 48.8271V95.6735C-7.72801 95.6735 -7.09346 96.0964 -6.95245 96.1528H-6.83961L-6.59992 96.2515L-6.04996 96.4347H-5.90898L-5.59872 96.5052H-5.51411C-5.46832 96.5203 -5.41893 96.5203 -5.37314 96.5052H-5.11933H-5.0065H-4.87963H-4.63985H-2.84908L-2.27089 96.4206H-2.10168L-1.81964 96.3502C-1.754 96.3567 -1.68785 96.3567 -1.62221 96.3502L-1.35437 96.2656H-1.25565L-0.860783 96.1105L-0.56463 96.1528Z" fill="url(#paint1_linear_477_7898)"/>
<defs>
<linearGradient id="paint0_linear_477_7898" x1="-18.9938" y1="12.4068" x2="28.9459" y2="36.3831" gradientUnits="userSpaceOnUse">
<stop stop-color="#FBFCFF"/>
<stop offset="1" stop-color="#F2F5FE"/>
</linearGradient>
<linearGradient id="paint1_linear_477_7898" x1="5825.08" y1="89750.1" x2="5861.02" y2="89750.1" gradientUnits="userSpaceOnUse">
<stop stop-color="#EFF1FE"/>
<stop offset="1" stop-color="#E4E7FB"/>
</linearGradient>
</defs>
</svg>
