<svg width="214" height="359" viewBox="0 0 214 359" fill="none" xmlns="http://www.w3.org/2000/svg">
<mask id="mask0_788_4" style="mask-type:alpha" maskUnits="userSpaceOnUse" x="0" y="0" width="214" height="359">
<rect width="214" height="359" fill="#C4C4C4"/>
</mask>
<g mask="url(#mask0_788_4)">
<path opacity="0.05" d="M613.709 -262H434.61L44.3694 -29.7401C7.50334 -8.45543 8.80045 48.6822 51.3697 73.2599L333.108 229.571C375.677 254.149 440.074 256.818 476.94 235.534L613.709 156.569V-262Z" fill="url(#paint0_linear_788_4)"/>
<path opacity="0.05" d="M54.8271 268L298.539 400.903C301.791 399.289 305.008 397.574 308.178 395.744L1165.22 -99.0846V-355.122L1135.85 -371.669C1093.28 -396.247 1028.89 -398.915 992.018 -377.63L54.8276 160C17.9603 181.285 12.2567 243.422 54.8271 268Z" fill="url(#paint1_linear_788_4)"/>
</g>
<defs>
<linearGradient id="paint0_linear_788_4" x1="-490.51" y1="116.323" x2="936.399" y2="-73.357" gradientUnits="userSpaceOnUse">
<stop offset="0.000460737" stop-color="white"/>
<stop offset="1" stop-color="#E4FFFF"/>
</linearGradient>
<linearGradient id="paint1_linear_788_4" x1="-132.842" y1="111.306" x2="2552.2" y2="-245.618" gradientUnits="userSpaceOnUse">
<stop offset="0.000460737" stop-color="white"/>
<stop offset="1" stop-color="#E4FFFF"/>
</linearGradient>
</defs>
</svg>
