<svg width="86" height="65" viewBox="0 0 86 65" fill="none" xmlns="http://www.w3.org/2000/svg">
<g style="mix-blend-mode:multiply" opacity="0.1">
<g style="mix-blend-mode:multiply" opacity="0.03">
<path d="M41.4052 41.8002C38.3201 43.6094 35.1834 45.3842 32.219 47.3484C30.2715 49.5883 33.5462 51.1734 35.2179 52.1383L52.2975 61.994C53.8875 63.1865 55.7805 63.9088 57.7609 64.0787C59.4633 64.0759 61.1303 63.5921 62.5695 62.6831L69.7909 58.4962C74.1685 55.9461 78.7701 53.5512 82.9927 50.7944C82.648 51.0012 83.1994 50.6566 83.2684 50.5876C83.3373 50.5187 83.5614 50.3463 83.6303 50.2774C83.7811 50.1097 83.9193 49.9312 84.0439 49.7433C84.209 49.4482 84.2979 49.1165 84.3025 48.7784C84.1819 46.6591 80.9934 45.5219 79.3389 44.6088H79.1666L70.1872 39.4397L63.2933 35.4423C61.2596 34.2879 59.1743 33.0646 56.7614 33.7193H56.8648C56.3996 33.7882 55.939 33.8861 55.4859 34.0123H55.3136C54.3626 34.4084 53.4508 34.8929 52.5905 35.4596L48.9367 37.4066L41.4052 41.8002Z" fill="#FDFDFE"/>
</g>
<g style="mix-blend-mode:multiply" opacity="0.06">
<path d="M40.4228 41.8002C37.3378 43.6094 34.201 45.3842 31.2366 47.3484C29.2891 49.5883 32.581 51.1562 34.2356 52.121L51.3324 61.994C52.9171 63.1843 54.8039 63.9066 56.7786 64.0787C58.4798 64.0676 60.1445 63.5845 61.5872 62.6831L68.8085 58.479C73.1862 55.9289 77.7878 53.534 82.0103 50.7772C81.6656 50.9839 82.2 50.6393 82.2861 50.5876C82.3723 50.536 82.5791 50.3292 82.648 50.2603C82.7169 50.1914 83.0444 49.7434 83.0616 49.7261C83.2221 49.43 83.3051 49.0981 83.3029 48.7613C83.1995 46.642 79.9939 45.5219 78.3566 44.6088H78.1843L69.2049 39.4397L62.311 35.4423C60.2773 34.2879 58.1919 33.0646 55.779 33.7193H55.8824C55.4172 33.7882 54.9566 33.8861 54.5036 34.0123H54.3313C53.3802 34.4084 52.4685 34.8929 51.6081 35.4596L47.9544 37.4066L40.4228 41.8002Z" fill="#FAFBFE"/>
</g>
<g style="mix-blend-mode:multiply" opacity="0.1">
<path d="M39.4393 41.8004C36.3543 43.6095 33.2176 45.3843 30.2532 47.3485C28.3057 49.5884 31.5975 51.1563 33.2521 52.104L50.3489 61.9767C51.9285 63.179 53.8172 63.908 55.7951 64.0787C57.4975 64.0598 59.1617 63.5708 60.6037 62.6659L67.8078 58.4618C72.1854 55.9117 76.7871 53.5168 81.0268 50.76C80.6821 50.9668 81.1992 50.6222 81.2854 50.5705C81.3716 50.5188 81.5783 50.3293 81.6472 50.2431C81.798 50.0754 81.9364 49.8969 82.061 49.709C82.2282 49.4147 82.3171 49.0825 82.3194 48.7441C82.1988 46.6248 79.0103 45.5221 77.3558 44.6089L77.1835 44.5055L68.2214 39.3365L61.3275 35.3391C59.2938 34.1847 57.2084 32.9614 54.7955 33.6161H54.8989C54.4337 33.685 53.9732 33.7828 53.5202 33.909H53.3478C52.3967 34.3051 51.485 34.7897 50.6247 35.3564L46.9709 37.4068L39.4393 41.8004Z" fill="#F8F9FD"/>
</g>
<g style="mix-blend-mode:multiply" opacity="0.13">
<path d="M38.4587 41.8004C35.3736 43.6095 32.237 45.3843 29.2726 47.3485C27.3251 49.5884 30.6169 51.1391 32.2887 52.104L49.3683 61.9595C50.9464 63.1671 52.8351 63.902 54.8146 64.0787C56.5135 64.0559 58.1724 63.5608 59.6058 62.6487L66.8271 58.4446C71.2048 55.8946 75.8065 53.4995 80.0291 50.7428C79.7016 50.9495 80.2014 50.6222 80.3048 50.5532C80.4082 50.4843 80.5978 50.312 80.6667 50.2431C80.7357 50.1742 81.0631 49.709 81.0803 49.709C81.2435 49.4131 81.3321 49.0819 81.3388 48.7441C81.2182 46.6076 78.0125 45.5048 76.3752 44.6089L76.2029 44.5055L67.2408 39.3365L60.3469 35.3391C58.3131 34.1847 56.2278 32.9614 53.8149 33.6161H53.9183C53.4531 33.685 52.9926 33.7828 52.5395 33.909H52.3671C51.4161 34.3051 50.5045 34.7897 49.6441 35.3564L45.9904 37.4068L38.4587 41.8004Z" fill="#F6F7FC"/>
</g>
<g style="mix-blend-mode:multiply" opacity="0.16">
<path d="M37.4753 41.8004C34.3903 43.6095 31.2536 45.3843 28.2892 47.3485C26.3417 49.5884 29.6335 51.1219 31.3053 52.0867L48.4021 61.9595C49.9781 63.1592 51.8589 63.8934 53.8311 64.0787C55.5329 64.0582 57.1939 63.5564 58.6223 62.6315L65.7575 58.4274C70.1524 55.8773 74.7368 53.4995 78.9766 50.7255C78.6491 50.9323 79.149 50.6049 79.2351 50.536C79.3213 50.4671 79.5453 50.2948 79.6143 50.2259C79.6832 50.157 80.0107 49.6917 80.0107 49.6917C80.1841 49.4 80.2735 49.0662 80.2692 48.7269C80.1485 46.5904 76.9601 45.5048 75.3228 44.6089L75.1505 44.5055L66.1884 39.3365L59.2945 35.3391C57.2608 34.1847 55.1754 32.9614 52.7626 33.6161H52.866C52.3955 33.6873 51.9294 33.785 51.47 33.909H51.3148C50.3638 34.3051 49.452 34.7897 48.5917 35.3564L45.0758 37.4068L37.4753 41.8004Z" fill="#F3F5FC"/>
</g>
<g style="mix-blend-mode:multiply" opacity="0.19">
<path d="M36.4578 41.8004C33.3728 43.6095 30.2361 45.3843 27.2717 47.3485C25.3241 49.5884 28.6332 51.1218 30.2878 52.0695L47.3847 61.9422C48.9593 63.1473 50.8399 63.8874 52.8136 64.0787C54.5165 64.0493 56.1768 63.5418 57.6049 62.6142L64.8091 58.4101C69.1867 55.8601 73.7883 53.4823 78.0109 50.7255C77.7006 50.915 78.1833 50.6049 78.2867 50.5188C78.3901 50.4326 78.5796 50.2775 78.6485 50.2086C78.7993 50.041 78.9376 49.8624 79.0622 49.6745C79.2273 49.3794 79.3162 49.0477 79.3207 48.7096C79.2001 46.5731 75.9944 45.5048 74.3571 44.6089L74.1848 44.5055L65.2399 39.3365C62.942 38.0155 60.644 36.6831 58.346 35.3391C56.3123 34.1847 54.2268 32.9614 51.814 33.6161H51.9691C51.4986 33.6873 51.0325 33.785 50.5731 33.909H50.418C49.4669 34.3051 48.5553 34.7897 47.6949 35.3564L44.0239 37.4068L36.4578 41.8004Z" fill="#F1F3FB"/>
</g>
<g style="mix-blend-mode:multiply" opacity="0.23">
<path d="M35.5106 41.8003C32.4255 43.6095 29.2888 45.3842 26.3244 47.3485C24.3769 49.5884 27.686 51.1046 29.3405 52.0695L46.4373 61.925C48.0067 63.142 49.8893 63.8888 51.8663 64.0787C53.5629 64.0434 55.216 63.5363 56.6404 62.6142L63.8445 58.3929C68.2394 55.8428 72.841 53.465 77.0635 50.7082C76.7361 50.8978 77.2186 50.5876 77.3393 50.5015C77.4599 50.4153 77.6323 50.2603 77.7012 50.1914C77.7702 50.1224 78.0976 49.6745 78.1148 49.6572C78.2839 49.3645 78.3675 49.0302 78.3562 48.6923C78.2527 46.5558 75.0471 45.5048 73.4098 44.5916H73.2375L64.2926 39.4226C61.9947 38.1016 59.6967 36.7692 57.3987 35.4252C55.365 34.2708 53.2796 33.0475 50.8667 33.7022H50.9701C50.4996 33.7733 50.0335 33.8712 49.5741 33.9952H49.419C48.468 34.3913 47.5562 34.8758 46.6959 35.4425L43.0421 37.4067L35.5106 41.8003Z" fill="#EFF1FA"/>
</g>
<g style="mix-blend-mode:multiply" opacity="0.26">
<path d="M34.529 41.8003C31.4439 43.6095 28.3072 45.3842 25.3428 47.3485C23.3953 49.5884 26.7044 51.0873 28.3761 52.0522L45.4557 61.925C47.0293 63.1346 48.9097 63.8806 50.8847 64.0787C52.5828 64.0373 54.2358 63.5243 55.6588 62.597C58.0717 61.2014 60.4501 59.7712 62.8629 58.3756C67.2406 55.8256 71.8422 53.4479 76.082 50.6911C75.7545 50.8806 76.2371 50.5705 76.3405 50.4843C76.4439 50.3982 76.6507 50.243 76.7024 50.1741C76.8586 50.011 76.9973 49.832 77.1161 49.64C77.2912 49.349 77.3807 49.0146 77.3746 48.6751C77.2539 46.5386 74.0483 45.5048 72.4282 44.5916H72.2559L63.3111 39.4226C61.0131 38.1016 58.7151 36.7692 56.4171 35.4252C54.3834 34.2708 52.298 33.0475 49.8851 33.7022H49.9885C49.5176 33.7715 49.0515 33.8694 48.5925 33.9952H48.4374C47.4864 34.3913 46.5746 34.8758 45.7143 35.4425L42.0605 37.4067L34.529 41.8003Z" fill="#ECEFFA"/>
</g>
<g style="mix-blend-mode:multiply" opacity="0.29">
<path d="M33.5456 41.8004C30.4606 43.6096 27.3238 45.3843 24.3595 47.3485C22.4119 49.5884 25.7383 51.0874 27.3928 52.035L44.4897 61.9078C46.0556 63.1222 47.9302 63.8742 49.9015 64.0788C51.6006 64.0286 53.2528 63.5098 54.6755 62.5798C57.0712 61.1841 59.4668 59.754 61.8797 58.3584C66.2573 55.8084 70.859 53.4307 75.0815 50.6739C74.7713 50.8634 75.2367 50.5705 75.3573 50.4844C75.485 50.3895 75.6059 50.2858 75.7193 50.1741C75.8399 50.0363 76.1329 49.64 76.1329 49.64C76.298 49.3449 76.3868 49.0133 76.3914 48.6751C76.2707 46.5214 73.065 45.5048 71.4277 44.5917L71.2554 44.4883L62.3278 39.3193C60.0298 37.9983 57.7318 36.6659 55.4339 35.3219C53.4002 34.1675 51.3147 32.9442 48.9018 33.5989H49.0053C48.5345 33.6682 48.0682 33.7661 47.6092 33.8919H47.4541C46.5031 34.288 45.5914 34.7725 44.731 35.3392L41.0772 37.4068L33.5456 41.8004Z" fill="#EAEDF9"/>
</g>
<g style="mix-blend-mode:multiply" opacity="0.32">
<path d="M32.5632 41.8004C29.4782 43.6096 26.3414 45.3843 23.377 47.3485C21.4295 49.5884 24.7558 51.0701 26.4104 52.035L43.5074 61.8906C45.068 63.1169 46.9444 63.8756 48.919 64.0788C50.6161 64.0331 52.2655 63.5073 53.6758 62.5625C56.0887 61.1669 58.4843 59.7369 60.8799 58.3412C65.2576 55.7912 69.8766 53.4307 74.0991 50.6566C73.7889 50.8462 74.2369 50.5533 74.3576 50.4671C74.494 50.3767 74.6211 50.2728 74.7368 50.157C74.8574 50.0192 75.1332 49.6229 75.1504 49.6229C75.3194 49.3301 75.403 48.9959 75.3917 48.658C75.2711 46.5043 72.0653 45.4876 70.4452 44.5917L70.2729 44.4883L61.3453 39.3193C59.0473 37.9983 56.7494 36.6659 54.4514 35.3219C52.4177 34.1675 50.3323 32.9442 47.9195 33.5989H48.0229C47.552 33.6682 47.0858 33.7661 46.6268 33.8919H46.4717C45.5206 34.288 44.6089 34.7725 43.7486 35.3392L40.0948 37.4068L32.5632 41.8004Z" fill="#E8EBF9"/>
</g>
<g style="mix-blend-mode:multiply" opacity="0.35">
<path d="M31.5815 41.8004C28.4965 43.6096 25.3598 45.3843 22.3954 47.3485C20.4479 49.5884 23.7741 51.0529 25.4459 52.0178L42.5257 61.8906C44.0905 63.1096 45.9648 63.8674 47.9373 64.0788C49.636 64.027 51.2852 63.4954 52.6941 62.5454C55.107 61.1497 57.4854 59.7196 59.8983 58.324C64.2759 55.7912 68.8777 53.4134 73.1002 50.6566C72.8072 50.8289 73.238 50.536 73.3759 50.4499C73.5103 50.3638 73.6322 50.2594 73.7379 50.1398C73.8886 49.9721 74.0269 49.7936 74.1515 49.6056C74.3166 49.3105 74.4055 48.9789 74.41 48.6408C74.2894 46.487 71.0837 45.4876 69.4637 44.5917L69.2913 44.4883L60.3636 39.3193C58.0657 37.9983 55.7677 36.6659 53.4697 35.3219C51.436 34.1675 49.3506 32.9442 46.9378 33.5989H47.0412C46.5703 33.6682 46.1041 33.7661 45.6452 33.8919H45.49C44.5389 34.288 43.6272 34.7725 42.7669 35.3392L39.1131 37.4068L31.5815 41.8004Z" fill="#E5E9F8"/>
</g>
<g style="mix-blend-mode:multiply" opacity="0.39">
<path d="M30.5991 41.8003C27.514 43.6095 24.3774 45.3842 21.413 47.3485C19.4655 49.5884 22.7917 51.0528 24.4635 52.0005L41.6293 61.8734C43.5079 62.9416 44.9212 64.0787 47.0411 64.0787C48.7378 64.016 50.3841 63.4854 51.7979 62.5454L58.9848 58.324C63.3796 55.7739 67.9813 53.3962 72.2038 50.6394C71.9108 50.8117 72.3417 50.536 72.4796 50.4326C72.6149 50.3476 72.7368 50.2431 72.8415 50.1225C72.9621 50.0019 73.2378 49.6056 73.2551 49.5883C73.4241 49.2956 73.5077 48.9613 73.4964 48.6235C73.393 46.4697 70.1701 45.4875 68.55 44.5744H68.3777L59.4673 39.4053C57.1693 38.0844 54.8713 36.752 52.5734 35.4081C50.5397 34.2537 48.4543 33.0303 46.0414 33.6851H46.1448C45.674 33.7543 45.2078 33.8521 44.7488 33.978H44.5937C43.6426 34.374 42.731 34.8585 41.8707 35.4252L38.1824 37.4067L30.5991 41.8003Z" fill="#E3E7F7"/>
</g>
<g style="mix-blend-mode:multiply" opacity="0.42">
<path d="M29.5641 41.8003C26.479 43.6095 23.3423 45.3842 20.3779 47.3485C18.4304 49.5884 21.774 51.0356 23.4285 52.0005L40.5253 61.8561C42.3867 62.9416 43.7999 64.0787 45.9198 64.0787C47.6131 64.0122 49.2544 63.4753 50.6594 62.5281C53.0722 61.1325 55.4506 59.7024 57.8635 58.3067C62.2411 55.7567 66.8429 53.3789 71.0826 50.6221C70.7896 50.8116 71.2032 50.5187 71.3411 50.4154C71.4797 50.335 71.6024 50.2299 71.703 50.1052C71.8592 49.9422 71.9979 49.7631 72.1166 49.5711C72.29 49.2794 72.3795 48.9455 72.3752 48.6062C72.2546 46.4525 69.0488 45.4875 67.4287 44.5744H67.2564L58.3461 39.4053C56.0481 38.0844 53.7502 36.752 51.4522 35.4081C49.4185 34.2537 47.333 33.0303 44.9202 33.6851H45.0753C44.6045 33.7543 44.1383 33.8521 43.6793 33.978H43.5242C42.5731 34.374 41.6615 34.8585 40.8012 35.4252L37.1474 37.4067L29.5641 41.8003Z" fill="#E1E5F7"/>
</g>
<g style="mix-blend-mode:multiply" opacity="0.45">
<path d="M28.6334 41.8003C25.5484 43.6094 22.4116 45.3842 19.4473 47.3484C17.4997 49.5883 20.8433 51.0184 22.4978 51.9833L39.5947 61.8561C41.4561 62.9244 42.8693 64.0787 44.9892 64.0787C46.684 64.0062 48.3252 63.4633 49.7288 62.5108C52.1416 61.1152 54.52 59.6851 56.9156 58.2895C61.3105 55.7394 65.9122 53.3616 70.1347 50.6048L70.4105 50.3981C70.5491 50.3177 70.6717 50.2126 70.7724 50.0879C70.893 49.9673 71.1861 49.5711 71.1861 49.5711C71.3512 49.2759 71.44 48.9443 71.4445 48.6062C71.3239 46.4524 68.1182 45.4875 66.4809 44.5743L66.3259 44.4709L57.4154 39.3019C55.1174 37.9809 52.8195 36.6486 50.5215 35.3046C48.4878 34.1502 46.4024 32.9269 43.9896 33.5816H44.093C43.6221 33.6509 43.1559 33.7487 42.6969 33.8745H42.5419C41.5908 34.2706 40.6791 34.7551 39.8188 35.3218L36.165 37.4066L28.6334 41.8003Z" fill="#DEE3F6"/>
</g>
<g style="mix-blend-mode:multiply" opacity="0.48">
<path d="M27.6528 41.8003C24.5677 43.6094 21.431 45.3842 18.4666 47.3484C16.5191 49.5883 19.8627 51.0184 21.5344 51.9661L38.614 61.8389C40.4754 62.9071 41.8886 64.0787 44.0085 64.0787C45.7057 64.0048 47.348 63.4555 48.7481 62.4936C51.1437 61.098 53.522 59.6679 55.9349 58.2722C60.3125 55.7222 64.9314 53.3617 69.1539 50.5877C68.8782 50.7772 69.2746 50.5877 69.4125 50.3809C69.5543 50.305 69.6825 50.206 69.7917 50.0879C69.9123 49.9501 70.1881 49.5538 70.2053 49.5538C70.3743 49.261 70.4579 48.9268 70.4465 48.5889C70.3431 46.4352 67.1202 45.4875 65.5002 44.5743L65.3279 44.4709L56.4348 39.3019C54.1368 37.9809 51.8389 36.6486 49.5409 35.3046C47.5072 34.1502 45.4217 32.9269 43.0089 33.5816H43.1123C42.6414 33.6509 42.1752 33.7487 41.7163 33.8745H41.5612C40.6102 34.2706 39.6984 34.7551 38.8381 35.3218L35.1843 37.4066L27.6528 41.8003Z" fill="#DCE1F5"/>
</g>
<g style="mix-blend-mode:multiply" opacity="0.52">
<path d="M26.6694 41.8003C23.5844 43.6095 20.4476 45.3842 17.4832 47.3484C15.5357 49.5883 18.8793 51.0012 20.5511 51.9661L37.6479 61.8216C39.5093 62.9071 40.9053 64.0787 43.0252 64.0787C44.7161 63.9997 46.3515 63.4508 47.7475 62.4936C50.1604 61.0807 52.5388 59.6506 54.9516 58.255C59.3293 55.7049 63.931 53.3445 68.1708 50.5877C67.8778 50.76 68.2741 50.4843 68.4292 50.3809C68.5637 50.2948 68.6855 50.1904 68.7912 50.0707C68.9449 49.881 69.0832 49.6794 69.2048 49.4677C69.3782 49.176 69.4677 48.8421 69.4634 48.5028C69.3427 46.3491 66.1371 45.4014 64.517 44.5054L64.3446 44.4021L55.4515 39.2331C53.1535 37.9121 50.8556 36.5796 48.5576 35.2357C46.5239 34.0813 44.4384 32.8579 42.0255 33.5127H42.1289C41.6581 33.5819 41.1919 33.6797 40.7329 33.8056H40.5779C39.6268 34.2016 38.7151 34.6863 37.8547 35.2529L34.201 37.4067L26.6694 41.8003Z" fill="#DADEF5"/>
</g>
<g style="mix-blend-mode:multiply" opacity="0.55">
<path d="M25.6871 41.8003C22.602 43.6094 19.448 45.3842 16.5009 47.3484C14.5534 49.5883 17.9142 50.9839 19.5687 51.9488L36.6656 61.8216C38.527 62.8899 39.923 64.0787 42.0429 64.0787C43.7353 63.9937 45.3706 63.4389 46.7652 62.4764L53.9522 58.2378C58.3298 55.6878 62.9487 53.3272 67.1712 50.5704C66.8955 50.7427 67.2746 50.5704 67.4469 50.3637C67.5777 50.2728 67.699 50.1689 67.8089 50.0536C67.9597 49.8859 68.0979 49.7074 68.2225 49.5194C68.3876 49.2243 68.4765 48.8926 68.4811 48.5544C68.3604 46.4007 65.1375 45.4703 63.5174 44.5743L63.3623 44.4709L54.4692 39.3019C52.1712 37.9809 49.8732 36.6486 47.5753 35.3046C45.5416 34.1502 43.4561 32.9269 41.0432 33.5816H41.1466C40.6758 33.6509 40.2096 33.7487 39.7506 33.8745H39.5955C38.6445 34.2706 37.7328 34.7551 36.8724 35.3218L33.2187 37.4066L25.6871 41.8003Z" fill="#D8DCF4"/>
</g>
<g style="mix-blend-mode:multiply" opacity="0.58">
<path d="M24.7037 41.8003C21.6186 43.6095 18.4646 45.3842 15.5175 47.3484C13.57 49.5883 16.9308 50.9839 18.5853 51.9316L35.6822 61.8044C37.5436 62.8726 38.9396 64.0787 41.0595 64.0787C42.7528 63.9842 44.387 63.4237 45.7818 62.4591C48.1774 61.0635 50.5559 59.6162 52.9688 58.2206C57.3464 55.6705 61.9481 53.31 66.1878 50.5532C65.9121 50.7255 66.1879 50.5532 66.4464 50.3464C66.5856 50.2597 66.7129 50.1555 66.8255 50.0363C66.9462 49.9157 67.2219 49.5194 67.2391 49.5022C67.4081 49.2094 67.4918 48.8752 67.4804 48.5373C67.3598 46.3836 64.1541 45.4704 62.5341 44.5572H62.3618C59.4203 42.8342 56.4617 41.1112 53.4858 39.3882C51.1878 38.0672 48.8898 36.7347 46.5919 35.3908C44.5582 34.2364 42.4728 33.013 40.0599 33.6678H40.1633C39.6925 33.737 39.2263 33.8348 38.7673 33.9607H38.6122C37.6611 34.3567 36.7494 34.8414 35.889 35.408L32.2353 37.4067L24.7037 41.8003Z" fill="#D5DAF3"/>
</g>
<g style="mix-blend-mode:multiply" opacity="0.61">
<path d="M23.722 41.8003C20.6197 43.6094 17.483 45.3842 14.5359 47.3484C12.5711 49.5883 15.9491 50.9667 17.6209 51.9316L34.7005 61.7872C36.5619 62.8727 37.9579 64.0787 40.0777 64.0787C41.7781 63.9633 43.4103 63.3656 44.7829 62.3557C47.1958 60.9601 49.5742 59.5128 51.9698 58.1172C56.3647 55.5672 60.9663 53.2066 65.1888 50.4498C64.9303 50.6221 65.2923 50.4498 65.4647 50.2431C65.595 50.1515 65.7161 50.0477 65.8265 49.9329C65.9773 49.7653 66.1156 49.5867 66.2402 49.3988C66.4067 49.1105 66.4957 48.784 66.4987 48.4511C66.3781 46.2801 63.1552 45.3841 61.5523 44.4709H61.38L52.5041 39.3019C50.2061 37.9809 47.9081 36.6486 45.6102 35.3046C43.5764 34.1502 41.4911 32.9269 39.0782 33.5816H39.1816C38.7108 33.6509 38.2446 33.7487 37.7856 33.8745H37.6304C36.6794 34.2706 35.7676 34.7551 34.9073 35.3218L31.288 37.4066L23.722 41.8003Z" fill="#D3D8F3"/>
</g>
<g style="mix-blend-mode:multiply" opacity="0.65">
<path d="M22.6712 41.8003C19.569 43.6095 16.4322 45.3842 13.4851 47.3485C11.5203 49.5884 14.8984 50.9495 16.5702 51.9144L33.667 61.7872C35.5283 62.8555 36.9071 64.0787 39.0269 64.0787C40.7271 63.9624 42.3589 63.3648 43.732 62.3557C46.1448 60.9601 48.5061 59.5129 50.9189 58.1172C55.2966 55.5672 59.9154 53.2239 64.1379 50.4498C63.8794 50.6221 64.138 50.4499 64.3965 50.2431C64.5298 50.1547 64.6564 50.0568 64.7756 49.9502C64.8963 49.8124 65.172 49.416 65.1892 49.416C65.3582 49.1232 65.4419 48.789 65.4305 48.4511C65.3271 46.2801 62.1042 45.4014 60.4842 44.4882L60.329 44.3848L51.4532 39.2158C49.1553 37.8949 46.8573 36.5624 44.5593 35.2185C42.5256 34.0641 40.4402 32.8407 38.0273 33.4955H38.1825C37.7116 33.5647 37.2454 33.6626 36.7865 33.7885H36.6313C35.6802 34.1845 34.7686 34.669 33.9083 35.2357L30.2717 37.4067L22.6712 41.8003Z" fill="#D1D6F2"/>
</g>
<g style="mix-blend-mode:multiply" opacity="0.68">
<path d="M21.7572 41.8003C18.655 43.6095 15.5183 45.3842 12.5711 47.3485C10.6064 49.5884 14.0016 50.9495 15.6561 51.8971L32.7531 61.77C34.6144 62.8382 35.9933 64.0787 38.1132 64.0787C39.8109 63.9514 41.4399 63.3549 42.8182 62.3557C45.2139 60.9429 47.5922 59.4956 49.9879 58.1C54.3828 55.5499 58.9846 53.2066 63.2243 50.4498C62.9658 50.6049 63.2243 50.3637 63.4828 50.2258C63.6153 50.1439 63.737 50.0455 63.8447 49.933C63.9955 49.7653 64.1338 49.5868 64.2584 49.3988C64.438 49.1098 64.528 48.7741 64.5169 48.434C64.3963 46.263 61.1733 45.4014 59.5704 44.4882L59.3981 44.3848L50.5394 39.2158C48.2414 37.8949 45.9435 36.5624 43.6455 35.2185C41.6118 34.0641 39.5264 32.8407 37.1135 33.4955H37.2169C36.7461 33.5647 36.2799 33.6626 35.8209 33.7885H35.6657C34.7147 34.1845 33.8031 34.669 32.9427 35.2357L29.2889 37.4067L21.7572 41.8003Z" fill="#CED4F1"/>
</g>
<g style="mix-blend-mode:multiply" opacity="0.71">
<path d="M20.7749 41.8003C17.6726 43.6095 14.5359 45.3842 11.5887 47.3484C9.62395 49.5883 13.0192 50.9322 14.6737 51.8971L31.7707 61.7527C33.6321 62.8382 35.0108 64.0787 37.1307 64.0787C38.8235 63.9527 40.4473 63.3559 41.8186 62.3557C44.2314 60.9601 46.5927 59.4956 49.0055 58.1C53.3832 55.5499 58.0021 53.2066 62.2246 50.4498C61.9833 50.6049 62.2246 50.4498 62.5003 50.2258C62.6295 50.1393 62.7507 50.0413 62.8623 49.9329C63.0131 49.7653 63.1513 49.5868 63.2759 49.3988C63.441 49.1037 63.5299 48.7721 63.5345 48.4339C63.4138 46.263 60.1909 45.4186 58.5881 44.5054L58.4157 44.4021L49.5398 39.2331L42.6459 35.2357C40.6294 34.0813 38.544 32.8579 36.1311 33.5127H36.2345C35.7636 33.5819 35.2974 33.6797 34.8385 33.8056H34.6833C33.7323 34.2016 32.8206 34.6863 31.9603 35.2529L28.3065 37.4067L20.7749 41.8003Z" fill="#CCD2F1"/>
</g>
<g style="mix-blend-mode:multiply" opacity="0.74">
<path d="M19.7933 41.8004C16.691 43.6095 13.5543 45.3843 10.6071 47.3485C8.64233 49.5884 12.0376 50.9151 13.7093 51.88L30.7891 61.7527C32.6677 62.821 34.0292 64.0787 36.1491 64.0787C37.8417 63.9519 39.4652 63.3551 40.8369 62.3557C43.2498 60.9601 45.611 59.4956 48.0239 58.1C52.4015 55.55 57.0204 53.2067 61.243 50.4499C61.0017 50.6049 61.243 50.4499 61.5015 50.2431C61.636 50.1501 61.7628 50.0464 61.8806 49.933C62.0013 49.8124 62.277 49.4161 62.2943 49.3989C62.4633 49.1061 62.5469 48.7718 62.5356 48.434C62.4149 46.263 59.192 45.4187 57.5892 44.5055H57.434L48.5582 39.3365L41.6643 35.3391C39.6478 34.1847 37.5623 32.9614 35.1494 33.6161H35.2529C34.782 33.6854 34.3158 33.7832 33.8568 33.909H33.7018C32.7507 34.3051 31.839 34.7897 30.9787 35.3564L27.3249 37.4068L19.7933 41.8004Z" fill="#CAD0F0"/>
</g>
<g style="mix-blend-mode:multiply" opacity="0.77">
<path d="M18.811 41.8003C15.7087 43.6095 12.5719 45.3842 9.62479 47.3484C7.66002 49.5883 11.0725 50.915 12.727 51.8627L29.824 61.7355C31.6854 62.8037 33.0469 64.0787 35.1668 64.0787C36.8556 63.9588 38.4755 63.3612 39.8374 62.3557C42.2503 60.9601 44.6114 59.4956 47.0243 58.1C51.4019 55.5499 56.0208 53.2066 60.2434 50.4498L60.5192 50.2431C60.6526 50.1556 60.7742 50.0514 60.881 49.9329C61.0318 49.7653 61.1701 49.5867 61.2947 49.3988C61.471 49.1147 61.5608 48.7853 61.5532 48.4511C61.4326 46.2629 58.2097 45.4359 56.6068 44.5227H56.4345L47.5758 39.3537L40.6819 35.3563C38.6654 34.2019 36.58 32.9785 34.1671 33.6333H34.2705C33.7997 33.7025 33.3335 33.8003 32.8745 33.9262H32.7194C31.7684 34.3222 30.8567 34.8069 29.9963 35.3735L26.3426 37.4067L18.811 41.8003Z" fill="#C7CEF0"/>
</g>
<g style="mix-blend-mode:multiply" opacity="0.81">
<path d="M17.8285 41.8003C14.7263 43.6095 11.5895 45.3842 8.64236 47.3485C6.6776 49.5884 10.0901 50.8978 11.7446 51.8627L28.8416 61.7182C30.703 62.8037 32.0645 64.0787 34.1843 64.0787C35.8727 63.9569 37.4921 63.3595 38.855 62.3557C41.2679 60.9601 43.629 59.4956 46.0419 58.1C50.4195 55.5499 55.0384 53.2239 59.2609 50.4498C59.0197 50.6049 59.261 50.4499 59.5195 50.2431L59.8986 49.9502C60.0193 49.8124 60.2951 49.416 60.3123 49.416C60.4814 49.1232 60.5649 48.7889 60.5536 48.4511C60.4501 46.2629 57.2273 45.4531 55.6244 44.54L55.4521 44.4366L46.5934 39.2676L39.6995 35.2702C37.683 34.1158 35.5976 32.8925 33.1847 33.5472H33.2881C32.8172 33.6164 32.3511 33.7142 31.8921 33.8401H31.737C30.786 34.2362 29.8742 34.7208 29.0139 35.2874L25.3601 37.4067L17.8285 41.8003Z" fill="#C5CCEF"/>
</g>
<g style="mix-blend-mode:multiply" opacity="0.84">
<path d="M16.8451 41.8003C13.7429 43.6095 10.6061 45.3842 7.65895 47.3485C5.69419 49.5884 9.10676 50.8806 10.7613 51.8455L27.8582 61.7182C29.7196 62.7865 31.0811 64.0787 33.201 64.0787C34.887 63.946 36.5035 63.3497 37.8716 62.3557C40.2845 60.9429 42.6456 59.4784 45.0413 58.0827C49.4189 55.5327 54.0378 53.2066 58.2776 50.4498C58.0363 50.5877 58.2776 50.4498 58.5361 50.2258C58.664 50.1375 58.785 50.0396 58.8981 49.933C59.0543 49.7699 59.193 49.5909 59.3117 49.3988C59.4913 49.1098 59.5812 48.7741 59.5702 48.434C59.4495 46.2457 56.2266 45.4531 54.6238 44.54L54.4688 44.4366L45.61 39.2676L38.7161 35.2702C36.6996 34.1158 34.6143 32.8925 32.2014 33.5472H32.3048C31.834 33.6164 31.3678 33.7142 30.9088 33.8401H30.7536C29.8026 34.2362 28.8908 34.7208 28.0305 35.2874L24.394 37.4067L16.8451 41.8003Z" fill="#C3CAEE"/>
</g>
<g style="mix-blend-mode:multiply" opacity="0.87">
<path d="M15.8631 41.8003C12.7608 43.6095 9.62415 45.3842 6.65976 47.3484C4.71223 49.5883 8.12473 50.8806 9.79651 51.8282L26.8934 61.701C28.7548 62.7692 30.099 64.0787 32.2189 64.0787C33.8994 63.9447 35.5099 63.3483 36.8723 62.3557C39.2852 60.9601 41.6463 59.4956 44.0592 58.0827C48.4368 55.5499 53.0558 53.2066 57.2784 50.4498C57.0543 50.5877 57.2783 50.4498 57.5368 50.2258C57.6726 50.1409 57.7996 50.0428 57.916 49.9329C58.0668 49.7653 58.2051 49.5868 58.3297 49.3988C58.4948 49.1037 58.5837 48.7721 58.5882 48.4339C58.4676 46.2457 55.2446 45.4704 53.6417 44.5572L53.4694 44.4538C50.5223 42.7308 47.5924 41.0078 44.628 39.2848L37.7341 35.2874C35.7176 34.133 33.6322 32.9097 31.2194 33.5644H31.2883C30.8174 33.6337 30.3512 33.7314 29.8922 33.8573H29.7371C28.786 34.2534 27.8744 34.738 27.0141 35.3047L23.3947 37.4067L15.8631 41.8003Z" fill="#C0C8EE"/>
</g>
<g style="mix-blend-mode:multiply" opacity="0.9">
<path d="M14.8808 41.8003C11.7785 43.6094 8.64186 45.3842 5.67748 47.3484C3.72995 49.5883 7.15968 50.7944 8.81422 51.8282L25.9111 61.6838C27.7724 62.7693 29.1167 64.0787 31.2366 64.0787C32.9168 63.9438 34.5272 63.3475 35.89 62.3557C38.3029 60.9601 40.6641 59.4956 43.0597 58.0827C47.4546 55.5499 52.0735 53.2066 56.296 50.4498C56.072 50.5877 56.2959 50.4498 56.5545 50.2258L56.9337 49.9329C57.0543 49.8123 57.3301 49.416 57.3473 49.3988C57.5163 49.106 57.5999 48.7718 57.5886 48.4339C57.468 46.2457 54.2451 45.4875 52.6595 44.5743L52.4871 44.4709L43.6456 39.3019L36.7517 35.3046C34.7353 34.1502 32.6499 32.9269 30.237 33.5816H30.3404C29.8696 33.6509 29.4034 33.7487 28.9444 33.8745H28.7893C27.8382 34.2706 26.9265 34.7551 26.0661 35.3218L22.4124 37.4066L14.8808 41.8003Z" fill="#BEC6ED"/>
</g>
<g style="mix-blend-mode:multiply" opacity="0.94">
<path d="M13.8984 41.8003C10.7961 43.6095 7.65944 45.3842 4.69506 47.3485C2.74753 49.5884 6.17726 50.7944 7.8318 51.811L24.9287 61.6839C26.79 62.7521 28.1344 64.0787 30.2542 64.0787C31.9359 63.9501 33.5478 63.3532 34.9076 62.3557C37.3204 60.9601 39.6644 59.4956 42.0773 58.1C46.4549 55.5499 51.0738 53.2067 55.3136 50.4499C55.0895 50.5877 55.3136 50.4498 55.5721 50.2259L55.934 49.933C56.0848 49.7653 56.223 49.5868 56.3476 49.3988C56.5298 49.1173 56.6202 48.7861 56.6062 48.4511C56.4855 46.2457 53.2626 45.4875 51.6598 44.5744H51.5046L42.6632 39.4053L35.7693 35.4081C33.7528 34.2537 31.6675 33.0303 29.2546 33.6851H29.358C28.8872 33.7543 28.421 33.8521 27.962 33.978H27.8068C26.8558 34.374 25.9442 34.8585 25.0838 35.4252L21.4301 37.4067L13.8984 41.8003Z" fill="#BCC4EC"/>
</g>
<g style="mix-blend-mode:multiply" opacity="0.97">
<path d="M12.9161 41.8003C9.8138 43.6095 6.67702 45.3842 3.71264 47.3485C1.7651 49.5884 5.19484 50.7944 6.84938 51.7937L23.9463 61.6666C25.8076 62.7349 27.152 64.0787 29.2719 64.0787C30.9479 63.9487 32.554 63.3518 33.908 62.3557C36.3209 60.9601 38.682 59.4956 41.0777 58.1C45.4726 55.5499 50.0915 53.2239 54.314 50.4498C54.1072 50.5877 54.314 50.4498 54.5726 50.2258L54.9517 49.9502C55.0723 49.8124 55.3653 49.416 55.3653 49.416C55.5304 49.1209 55.6193 48.7892 55.6239 48.4511C55.5032 46.2457 52.1769 45.5048 50.6775 44.5916H50.5052L41.681 39.4226L34.787 35.4252C32.7706 34.2708 30.6851 33.0475 28.2722 33.7022H28.3756C27.9048 33.7715 27.4386 33.8694 26.9796 33.9952H26.8245C25.8734 34.3913 24.9618 34.8758 24.1014 35.4425L20.4477 37.4067L12.9161 41.8003Z" fill="#B9C2EC"/>
</g>
<g style="mix-blend-mode:multiply" opacity="0.5">
<path d="M54.624 48.3652C54.5034 46.1597 51.2805 45.4361 49.6949 44.5229L40.6984 39.3539L33.8044 35.3565C31.788 34.2021 29.7025 32.9788 27.2896 33.6335H27.393C26.9222 33.7027 26.456 33.8005 25.997 33.9264H25.842C24.8909 34.3225 23.9792 34.8071 23.1188 35.3738L19.4651 37.4069L11.9335 41.7833C8.83121 43.5924 5.69444 45.3672 2.73005 47.3314C0.782518 49.5713 4.21227 50.7775 5.88405 51.7768L22.9809 61.6324C24.8423 62.7179 26.1694 64.0618 28.2893 64.0618C29.9636 63.9237 31.5675 63.3276 32.9254 62.3388C35.3383 60.9259 37.6822 59.4614 40.0951 58.0657C44.4727 55.5157 49.0916 53.1896 53.3314 50.4328C52.9695 50.6396 53.8829 49.9849 53.9691 49.9159C54.0552 49.847 54.3656 49.3818 54.3828 49.3818C54.5416 49.0665 54.6242 48.7182 54.624 48.3652Z" fill="#B7C0EB"/>
</g>
</g>
<path d="M56.6578 16.472C56.6659 16.506 56.6659 16.5414 56.6578 16.5754C56.6684 16.6031 56.6684 16.6339 56.6578 16.6616C56.6653 16.6957 56.6653 16.7309 56.6578 16.765C56.6578 16.765 56.6578 16.765 56.6578 16.8511C56.6653 16.8852 56.6653 16.9204 56.6578 16.9545V17.0924L56.5373 17.213C56.4958 17.2632 56.4496 17.3092 56.3994 17.3507L56.296 17.4369H56.1926C56.1527 17.4448 56.1117 17.4448 56.0719 17.4369L55.9513 17.5231L30.8057 32.2376V62.959L55.6927 48.5029H55.7789H55.8996H56.003H56.1064L56.227 48.3823V48.2789C56.2344 48.2448 56.2344 48.2096 56.227 48.1755C56.2344 48.1414 56.2344 48.1062 56.227 48.0721C56.235 48.0381 56.235 48.0027 56.227 47.9688V47.8654V17.144L56.6578 16.472Z" fill="#E4E7FB"/>
<path d="M1.00648 17.7472C0.732385 17.6222 0.495809 17.4276 0.320416 17.1827C0.145022 16.9378 0.036908 16.6512 0.00683594 16.3516V47.0727C0.0352615 47.3706 0.140796 47.656 0.313052 47.9007C0.485308 48.1454 0.718358 48.341 0.989231 48.4684L26.0487 62.9244L26.1176 32.2376L1.00648 17.7472Z" fill="#EFF1FE"/>
<path d="M55.675 15.0076C55.9589 15.1096 56.2045 15.2966 56.3781 15.5433C56.5517 15.79 56.6448 16.0844 56.6448 16.386C56.6448 16.6877 56.5517 16.982 56.3781 17.2287C56.2045 17.4754 55.9589 17.6625 55.675 17.7644L30.8051 32.2377C30.0681 32.6115 29.2533 32.8064 28.4268 32.8064C27.6003 32.8064 26.7855 32.6115 26.0484 32.2377L1.00627 17.7816C0.714086 17.6881 0.459204 17.5042 0.27834 17.2565C0.0974746 17.0087 0 16.71 0 16.4033C0 16.0965 0.0974746 15.7978 0.27834 15.5501C0.459204 15.3023 0.714086 15.1184 1.00627 15.0249L25.876 0.568832C26.6161 0.194817 27.4338 0 28.263 0C29.0923 0 29.91 0.194817 30.6501 0.568832L55.675 15.0076Z" fill="white"/>
<path d="M28.427 32.5305C27.6388 32.5509 26.8593 32.3606 26.1693 31.9792L1.12704 17.5232C0.888494 17.4253 0.680906 17.2646 0.526177 17.0584C0.371447 16.8521 0.275314 16.6079 0.248047 16.3516C0.280019 16.1012 0.37614 15.8633 0.527124 15.6611C0.678107 15.4588 0.878829 15.299 1.10979 15.1971L25.9968 0.741026C26.6852 0.373083 27.457 0.189103 28.2374 0.206898C29.0287 0.189343 29.8116 0.373135 30.5124 0.741026L55.5546 15.1971C55.7878 15.3004 55.99 15.4629 56.1411 15.6684C56.2923 15.8739 56.3872 16.1153 56.4163 16.3687C56.3928 16.6194 56.3019 16.8591 56.1532 17.0624C56.0046 17.2656 55.8037 17.4248 55.5718 17.5232L30.6848 31.9964C29.9902 32.3643 29.2129 32.5482 28.427 32.5305Z" fill="url(#paint0_linear_476_3341)"/>
<path d="M30.4448 63.0797L31.048 62.7523V32.0653L30.4965 32.3582H30.3931H30.1346H30.0312H29.8588H29.7381H29.5486H29.4107H29.0315H27.5494H27.3769H27.2391H27.0151H26.9117L26.5497 32.2376H26.3774L25.7568 31.8929V62.7351L26.3256 63.0452H26.4808L26.8427 63.1658H26.9633H27.1701H27.308H27.4803H28.9626H29.359H29.4624H29.652H29.7899H29.9449C30.0364 63.1465 30.124 63.1116 30.2035 63.0624L30.4448 63.0797Z" fill="url(#paint1_linear_476_3341)"/>
<defs>
<linearGradient id="paint0_linear_476_3341" x1="39294.4" y1="19809.4" x2="37463.9" y2="19809.4" gradientUnits="userSpaceOnUse">
<stop stop-color="#F1F4FE"/>
<stop offset="0.58" stop-color="#F7F9FE"/>
<stop offset="1" stop-color="white"/>
</linearGradient>
<linearGradient id="paint1_linear_476_3341" x1="3172.31" y1="65484.2" x2="3184.75" y2="65484.2" gradientUnits="userSpaceOnUse">
<stop stop-color="#EFF1FE"/>
<stop offset="1" stop-color="#E4E7FB"/>
</linearGradient>
</defs>
</svg>
