<svg width="134" height="107" viewBox="0 0 134 107" fill="none" xmlns="http://www.w3.org/2000/svg">
<g style="mix-blend-mode:multiply" opacity="0.3">
<g style="mix-blend-mode:multiply" opacity="0.03">
<path d="M76.9159 57.296C88.7346 57.1525 100.53 58.3729 112.069 60.9329C129.175 65.1502 131.768 71.5469 131.768 74.9904C131.768 78.4338 129.188 84.8307 112.069 89.048C88.889 93.898 64.9556 93.898 41.7755 89.048C24.6697 84.8307 22.0896 78.4338 22.0896 74.9904C22.0896 71.5469 24.6697 65.1502 41.7755 60.9329C53.3103 58.3749 65.1015 57.1545 76.9159 57.296Z" fill="#FDFDFE"/>
</g>
<g style="mix-blend-mode:multiply" opacity="0.06">
<path d="M76.1293 58.3535C87.614 58.2149 99.0763 59.4006 110.289 61.8872C126.892 65.9626 129.446 72.2046 129.446 75.5191C129.446 78.8336 126.866 85.0756 110.289 89.151C87.7431 93.87 64.4638 93.87 41.9177 89.151C25.3021 85.0756 22.7607 78.8336 22.7607 75.5191C22.7607 72.2046 25.3408 65.9626 41.9177 61.8872C53.1472 59.3953 64.6273 58.2095 76.1293 58.3535Z" fill="#FAFBFE"/>
</g>
<g style="mix-blend-mode:multiply" opacity="0.1">
<path d="M75.3422 59.4109C86.4964 59.2772 97.6291 60.4238 108.522 62.8285C124.634 66.7878 127.137 72.7848 127.137 76.0477C127.137 79.3106 124.634 85.3076 108.522 89.2669C86.6368 93.8238 64.0474 93.8238 42.1625 89.2669C26.05 85.3076 23.5344 79.2977 23.5344 76.0477C23.5344 72.7977 26.1145 66.7878 42.1625 62.8285C53.0551 60.4238 64.1879 59.2772 75.3422 59.4109Z" fill="#F8F9FD"/>
</g>
<g style="mix-blend-mode:multiply" opacity="0.13">
<path d="M74.555 60.5196C85.3973 60.3884 96.2187 61.5049 106.806 63.847C122.415 67.7161 124.866 73.4809 124.866 76.6406C124.866 79.8003 122.389 85.6684 106.806 89.4342C85.5672 93.8536 63.6459 93.8536 42.4074 89.4342C26.798 85.5652 24.3469 79.8003 24.3469 76.6406C24.3469 73.4809 26.8238 67.6129 42.4074 63.847C52.9607 61.5128 63.7471 60.3963 74.555 60.5196Z" fill="#F6F7FC"/>
</g>
<g style="mix-blend-mode:multiply" opacity="0.16">
<path d="M73.7684 61.5131C84.263 61.3918 94.7371 62.4692 104.987 64.7244C120.106 68.4129 122.531 74.0358 122.531 77.1053C122.531 80.1747 120.106 85.7848 104.987 89.4733C84.3993 93.7552 63.1504 93.7552 42.5626 89.4733C27.4435 85.7848 25.0054 80.1747 25.0054 77.1053C25.0054 74.0358 27.4435 68.4129 42.5626 64.7244C52.8082 62.4691 63.2781 61.3917 73.7684 61.5131Z" fill="#F3F5FC"/>
</g>
<g style="mix-blend-mode:multiply" opacity="0.19">
<path d="M72.9815 62.5702C83.1456 62.4548 93.29 63.4931 103.22 65.6654C117.836 69.2378 120.235 74.6932 120.235 77.6337C120.235 80.5742 117.836 86.0166 103.22 89.589C83.2766 93.7159 62.6993 93.7159 42.756 89.589C28.1399 86.0166 25.7405 80.5613 25.7405 77.6337C25.7405 74.7061 28.1399 69.2378 42.756 65.6654C52.6814 63.4928 62.8216 62.4544 72.9815 62.5702Z" fill="#F1F3FB"/>
</g>
<g style="mix-blend-mode:multiply" opacity="0.23">
<path d="M72.1945 63.6282C82.0293 63.5087 91.8456 64.5126 101.452 66.6203C115.643 70.0508 117.926 75.274 117.926 78.15C117.926 81.026 115.578 86.2621 101.452 89.7572C82.1555 93.7455 62.2464 93.7455 42.9495 89.7572C28.8236 86.3266 26.4758 81.1034 26.4758 78.15C26.4758 75.1967 28.8236 70.0508 42.9495 66.6203C52.5521 64.5132 62.3641 63.5093 72.1945 63.6282Z" fill="#EFF1FA"/>
</g>
<g style="mix-blend-mode:multiply" opacity="0.26">
<path d="M71.4203 64.6852C80.9203 64.5723 90.4025 65.5372 99.6849 67.5613C113.308 70.8757 115.617 75.9055 115.617 78.6783C115.617 81.4511 113.308 86.4937 99.6849 89.8082C81.0327 93.6428 61.7951 93.6428 43.1429 89.8082C29.5201 86.4937 27.2109 81.464 27.2109 78.6783C27.2109 75.8926 29.5201 70.8757 43.1429 67.5613C52.4295 65.5366 61.916 64.5717 71.4203 64.6852Z" fill="#ECEFFA"/>
</g>
<g style="mix-blend-mode:multiply" opacity="0.29">
<path d="M70.6336 65.7436C79.791 65.6363 88.9311 66.5666 97.879 68.5164C110.999 71.689 113.282 76.5253 113.282 79.2079C113.282 81.8904 110.999 86.7396 97.879 89.9122C79.8776 93.6094 61.3122 93.6094 43.3107 89.9122C30.1782 86.7396 27.9077 81.9033 27.9077 79.2079C27.9077 76.5124 30.1782 71.689 43.3107 68.5164C52.2839 66.5607 61.4503 65.6305 70.6336 65.7436Z" fill="#EAEDF9"/>
</g>
<g style="mix-blend-mode:multiply" opacity="0.32">
<path d="M69.8467 66.7875C78.6871 66.6874 87.5105 67.583 96.1503 69.4572C108.78 72.5137 111.011 77.1952 111.011 79.7746C111.011 82.3539 108.78 87.0097 96.1503 90.092C78.7953 93.6514 60.8981 93.6514 43.543 90.092C30.9137 87.0483 28.6819 82.3539 28.6819 79.7746C28.6819 77.1952 30.9137 72.5524 43.543 69.4572C52.1827 67.5816 61.0063 66.686 69.8467 66.7875Z" fill="#E8EBF9"/>
</g>
<g style="mix-blend-mode:multiply" opacity="0.35">
<path d="M69.0594 67.8452C77.5706 67.7518 86.0652 68.617 94.3827 70.4246C106.509 73.3393 108.702 77.7758 108.702 80.2778C108.702 82.7798 106.509 87.2162 94.3827 90.1438C77.6623 93.5665 60.423 93.5797 43.6975 90.1826C31.5712 87.255 29.3782 82.8184 29.3782 80.3164C29.3782 77.8145 31.5712 73.378 43.6975 70.4633C52.0261 68.6399 60.5338 67.7616 69.0594 67.8452Z" fill="#E5E9F8"/>
</g>
<g style="mix-blend-mode:multiply" opacity="0.39">
<path d="M68.2732 68.903C76.4534 68.8105 84.6184 69.6325 92.616 71.3535C104.226 74.1392 106.406 78.395 106.406 80.7938C106.406 83.1926 104.252 87.4486 92.616 90.2343C76.5563 93.5016 60.0029 93.5016 43.9432 90.2343C32.333 87.4486 30.1528 83.1926 30.1528 80.7938C30.1528 78.395 32.3072 74.1392 43.9432 71.3535C51.9365 69.6323 60.0972 68.8104 68.2732 68.903Z" fill="#E3E7F7"/>
</g>
<g style="mix-blend-mode:multiply" opacity="0.42">
<path d="M67.4855 69.9606C75.3356 69.8675 83.1715 70.6505 90.848 72.2949C101.981 74.9645 104.097 79.0141 104.097 81.3227C104.097 83.6312 101.981 87.6808 90.848 90.3505C75.4329 93.4627 59.551 93.4627 44.1359 90.3505C33.0029 87.6808 30.8872 83.6312 30.8872 81.3227C30.8872 79.0141 33.0029 74.9645 44.1359 72.2949C51.8079 70.6504 59.6396 69.8674 67.4855 69.9606Z" fill="#E1E5F7"/>
</g>
<g style="mix-blend-mode:multiply" opacity="0.45">
<path d="M66.699 71.0176C74.2195 70.927 81.7265 71.6753 89.0809 73.2487C99.7236 75.8281 101.801 79.6971 101.801 81.8509C101.801 84.0046 99.7236 87.9253 89.0809 90.4531C74.3123 93.4278 59.0986 93.4278 44.33 90.4531C33.6873 87.8737 31.6104 84.0046 31.6104 81.8509C31.6104 79.6971 33.6873 75.7765 44.33 73.2487C51.6802 71.676 59.1829 70.9277 66.699 71.0176Z" fill="#DEE3F6"/>
</g>
<g style="mix-blend-mode:multiply" opacity="0.48">
<path d="M65.9249 72.1273C73.1111 72.0477 80.2841 72.7613 87.3136 74.2553C97.4533 76.667 99.4915 80.3168 99.4915 82.4448C99.4915 84.5727 97.4533 88.2226 87.3136 90.6214C73.1957 93.4586 58.6542 93.4586 44.5363 90.6214C34.3837 88.2226 32.3455 84.5598 32.3455 82.4448C32.3455 80.3297 34.3837 76.667 44.5363 74.2553C51.5656 72.76 58.7387 72.0463 65.9249 72.1273Z" fill="#DCE1F5"/>
</g>
<g style="mix-blend-mode:multiply" opacity="0.52">
<path d="M65.1381 73.1207C71.9947 73.0435 78.8388 73.7225 85.5464 75.1455C95.1958 77.4153 97.1567 80.8846 97.1567 82.8836C97.1567 84.8826 95.17 88.3648 85.5464 90.6217C72.0732 93.3041 58.2031 93.3041 44.7299 90.6217C35.0805 88.339 33.1196 84.8826 33.1196 82.8836C33.1196 80.8846 35.1192 77.3895 44.7299 75.1455C51.4375 73.7225 58.2816 73.0435 65.1381 73.1207Z" fill="#DADEF5"/>
</g>
<g style="mix-blend-mode:multiply" opacity="0.55">
<path d="M64.338 74.1778C70.8641 74.1059 77.3786 74.7459 83.7659 76.0865C92.9122 78.2274 94.8731 81.5032 94.8731 83.4377C94.8731 85.3722 92.9122 88.5964 83.7659 90.7759C70.9391 93.321 57.737 93.321 44.9101 90.7759C35.7638 88.635 33.803 85.3593 33.803 83.4377C33.803 81.5161 35.7638 78.279 44.9101 76.0865C51.2974 74.7459 57.8119 74.1059 64.338 74.1778Z" fill="#D8DCF4"/>
</g>
<g style="mix-blend-mode:multiply" opacity="0.58">
<path d="M63.5641 75.2349C69.7598 75.1688 75.9446 75.7698 82.0115 77.0276C90.6547 79.0524 92.5769 82.1863 92.5769 83.9532C92.5769 85.72 90.6547 88.8668 82.0115 90.8916C69.8295 93.2819 57.2987 93.2819 45.1166 90.8916C36.4734 88.8668 34.5513 85.7974 34.5513 83.9532C34.5513 82.1089 36.4734 79.0524 45.1166 77.0276C51.1837 75.7707 57.3685 75.1697 63.5641 75.2349Z" fill="#D5DAF3"/>
</g>
<g style="mix-blend-mode:multiply" opacity="0.61">
<path d="M62.7774 76.2928C68.6434 76.2299 74.4992 76.7963 80.2444 77.9823C88.3974 79.8652 90.2678 82.7541 90.2678 84.4307C90.2678 86.1073 88.3974 89.0606 80.2444 90.8791C68.7131 93.1316 56.8546 93.1316 45.3233 90.8791C37.1703 88.9961 35.2869 86.1073 35.2869 84.4307C35.2869 82.7541 37.1703 79.8136 45.3233 77.9823C51.0641 76.7963 56.9156 76.2299 62.7774 76.2928Z" fill="#D3D8F3"/>
</g>
<g style="mix-blend-mode:multiply" opacity="0.65">
<path d="M61.9902 77.35C67.5433 77.2822 73.0878 77.8097 78.5284 78.9235C86.1783 80.6903 88.0231 83.3728 88.0231 85.0107C88.0231 86.6486 86.1783 89.344 78.5284 91.098C67.6434 93.2117 56.4532 93.2117 45.5681 91.098C37.9182 89.344 36.0735 86.6615 36.0735 85.0107C36.0735 83.3599 37.9182 80.6903 45.5681 78.9235C50.9708 77.8177 56.4758 77.2902 61.9902 77.35Z" fill="#D1D6F2"/>
</g>
<g style="mix-blend-mode:multiply" opacity="0.68">
<path d="M61.2161 78.3948C66.4142 78.3391 71.6035 78.8363 76.6965 79.878C83.8561 81.503 85.6493 83.9921 85.6493 85.5397C85.6493 87.0873 83.8561 89.5763 76.6965 91.2142C66.4689 93.1694 55.9633 93.1694 45.7358 91.2142C38.5761 89.5763 36.783 87.0873 36.783 85.5397C36.783 83.9921 38.5761 81.503 45.7358 79.878C50.8287 78.8366 56.018 78.3394 61.2161 78.3948Z" fill="#CED4F1"/>
</g>
<g style="mix-blend-mode:multiply" opacity="0.71">
<path d="M60.4678 79.4527C65.3399 79.4013 70.2039 79.8595 74.9806 80.8198C81.6372 82.3158 83.4046 84.6115 83.4046 86.0688C83.4046 87.5261 81.6372 89.8347 74.9806 91.3178C65.3913 93.1406 55.5443 93.1406 45.9549 91.3178C39.2855 89.8347 37.531 87.5261 37.531 86.0688C37.531 84.6115 39.2855 82.3158 45.9549 80.8198C50.7316 79.8589 55.5957 79.4007 60.4678 79.4527Z" fill="#CCD2F1"/>
</g>
<g style="mix-blend-mode:multiply" opacity="0.74">
<path d="M59.6424 80.5096C64.1857 80.4704 68.7208 80.9026 73.1748 81.7993C79.3412 83.1663 81.057 85.2814 81.057 86.6355C81.057 87.9897 79.3412 90.1047 73.1748 91.4718C64.222 93.1429 55.0371 93.1429 46.0842 91.4718C39.9179 90.1047 38.2021 87.9897 38.2021 86.6355C38.2021 85.2814 39.9179 83.1663 46.0842 81.7993C50.5466 80.9001 55.0905 80.4679 59.6424 80.5096Z" fill="#CAD0F0"/>
</g>
<g style="mix-blend-mode:multiply" opacity="0.77">
<path d="M58.8557 81.5676C63.068 81.5188 67.2741 81.9035 71.4077 82.7154C77.0709 83.9406 78.748 85.8622 78.748 87.1261C78.748 88.39 77.0709 90.3116 71.4077 91.5368C63.1097 93.0672 54.6017 93.0672 46.3037 91.5368C40.6404 90.3116 38.9634 88.39 38.9634 87.1261C38.9634 85.8622 40.6404 83.9406 46.3037 82.7154C50.4372 81.9035 54.6434 81.5188 58.8557 81.5676Z" fill="#C7CEF0"/>
</g>
<g style="mix-blend-mode:multiply" opacity="0.81">
<path d="M58.0686 82.6252C61.9635 82.5788 65.8532 82.9245 69.6789 83.6569C74.839 84.7661 76.4902 86.4813 76.4902 87.6549C76.4902 88.8285 74.8519 90.5438 69.6789 91.64C62.0274 93.033 54.1872 93.033 46.5358 91.64C41.3756 90.5438 39.7244 88.8285 39.7244 87.6549C39.7244 86.4813 41.3756 84.7661 46.5358 83.6569C50.336 82.9296 54.1995 82.584 58.0686 82.6252Z" fill="#C5CCEF"/>
</g>
<g style="mix-blend-mode:multiply" opacity="0.84">
<path d="M57.2819 83.7348C60.8347 83.6982 64.3823 84.0135 67.873 84.6762C72.5429 85.6435 74.1425 87.1654 74.1425 88.2487C74.1425 89.332 72.5429 90.8281 67.873 91.8212C60.8708 93.0593 53.7057 93.0593 46.7036 91.8212C42.0208 90.841 40.4211 89.3191 40.4211 88.2487C40.4211 87.1783 42.0208 85.6693 46.7036 84.6762C50.1899 84.0135 53.7333 83.6981 57.2819 83.7348Z" fill="#C3CAEE"/>
</g>
<g style="mix-blend-mode:multiply" opacity="0.87">
<path d="M56.4947 84.727C59.7173 84.6957 62.9355 84.972 66.1055 85.5523C70.2852 86.4035 71.8461 87.7319 71.8461 88.7121C71.8461 89.6922 70.2852 91.0206 66.1055 91.8589C59.7499 92.9595 53.2524 92.9595 46.8968 91.8589C42.7171 91.0206 41.1562 89.6922 41.1562 88.7121C41.1562 87.7319 42.7171 86.4035 46.8968 85.5523C50.0626 84.9726 53.2764 84.6963 56.4947 84.727Z" fill="#C0C8EE"/>
</g>
<g style="mix-blend-mode:multiply" opacity="0.9">
<path d="M55.7208 85.7849C58.6095 85.7571 61.4945 85.9989 64.3382 86.5071C68.0148 87.2164 69.4983 88.3513 69.4983 89.2412C69.4983 90.1311 67.9761 91.2531 64.3382 91.9753C58.6279 92.9211 52.8008 92.9211 47.0905 91.9753C43.414 91.2531 41.9304 90.1182 41.9304 89.2412C41.9304 88.3642 43.4527 87.2164 47.0905 86.5071C49.9386 85.9991 52.8279 85.7573 55.7208 85.7849Z" fill="#BEC6ED"/>
</g>
<g style="mix-blend-mode:multiply" opacity="0.94">
<path d="M54.9336 86.8421C57.4921 86.8203 60.0476 87.0232 62.5706 87.4483C65.744 88.0415 67.2276 88.9701 67.2276 89.7568C67.2276 90.5435 65.744 91.485 62.5706 92.0782C57.5113 92.8864 52.3558 92.8864 47.2966 92.0782C44.1102 91.485 42.6267 90.5564 42.6267 89.7568C42.6267 88.9572 44.1102 88.0415 47.2966 87.4483C49.8195 87.0221 52.3751 86.8192 54.9336 86.8421Z" fill="#BCC4EC"/>
</g>
<g style="mix-blend-mode:multiply" opacity="0.97">
<path d="M54.147 87.9001C56.3754 87.8835 58.6016 88.0474 60.8036 88.3902C63.4868 88.8673 64.9317 89.5896 64.9317 90.2861C64.9317 90.9825 63.4868 91.7176 60.8036 92.1819C56.3912 92.8525 51.9028 92.8525 47.4904 92.1819C44.8072 91.7176 43.3623 90.9825 43.3623 90.2861C43.3623 89.5896 44.8072 88.8673 47.4904 88.3902C49.6924 88.0474 51.9185 87.8835 54.147 87.9001Z" fill="#B9C2EC"/>
</g>
<g style="mix-blend-mode:multiply" opacity="0.7">
<path d="M62.6225 90.8141C62.6225 91.8458 58.4815 92.6841 53.3601 92.6841C48.2387 92.6841 44.0977 91.8458 44.0977 90.8141C44.0977 89.7824 48.2387 88.957 53.3601 88.957C58.4815 88.957 62.6225 89.7824 62.6225 90.8141Z" fill="#B7C0EB"/>
</g>
</g>
<path d="M71.9822 88.1247C91.186 77.852 98.4239 53.9609 88.1485 34.7623C77.873 15.5637 53.9754 8.3278 34.7716 18.6004C15.5678 28.8731 8.32988 52.7642 18.6053 71.9628C28.8807 91.1614 52.7784 98.3973 71.9822 88.1247Z" fill="url(#paint0_linear_236_481)"/>
<defs>
<linearGradient id="paint0_linear_236_481" x1="34.7716" y1="18.6004" x2="71.9665" y2="88.1331" gradientUnits="userSpaceOnUse">
<stop stop-color="white"/>
<stop offset="1" stop-color="#DFE4FC"/>
</linearGradient>
</defs>
</svg>
