<svg width="61" height="73" viewBox="0 0 61 73" fill="none" xmlns="http://www.w3.org/2000/svg">
<g style="mix-blend-mode:multiply" opacity="0.1">
<g style="mix-blend-mode:multiply" opacity="0.03">
<path d="M11.5742 47.0188C8.10399 49.0538 4.57562 51.0501 1.24115 53.2596C-0.949518 55.7792 2.73401 57.5622 4.6145 58.6475L23.8264 69.7336C25.6149 71.0751 27.7442 71.8875 29.9719 72.0787C31.8868 72.0755 33.7619 71.5313 35.3808 70.5088L43.5037 65.7992C48.4279 62.9308 53.604 60.2368 58.3537 57.1358C57.966 57.3684 58.5863 56.9808 58.6638 56.9033C58.7414 56.8257 58.9935 56.6318 59.071 56.5543C59.2406 56.3657 59.3961 56.1649 59.5363 55.9535C59.722 55.6215 59.822 55.2485 59.8271 54.8682C59.6914 52.4843 56.1049 51.2051 54.2438 50.1779H54.05L43.9496 44.3636L36.195 39.8671C33.9074 38.5686 31.5617 37.1925 28.8476 37.929H28.9639C28.4406 38.0065 27.9225 38.1166 27.4129 38.2586H27.2191C26.1493 38.7041 25.1237 39.2491 24.156 39.8865L20.046 42.0766L11.5742 47.0188Z" fill="#FDFDFE"/>
</g>
<g style="mix-blend-mode:multiply" opacity="0.06">
<path d="M10.4685 47.0188C6.99834 49.0538 3.46997 51.0501 0.135493 53.2596C-2.05518 55.7792 1.64774 57.5428 3.50884 58.6281L22.7402 69.7336C24.5227 71.0726 26.6451 71.885 28.8663 72.0787C30.7798 72.0662 32.6524 71.5227 34.2752 70.5088L42.3981 65.7798C47.3223 62.9114 52.4984 60.2174 57.2481 57.1164C56.8604 57.349 57.4614 56.9614 57.5584 56.9033C57.6553 56.8451 57.8879 56.6125 57.9654 56.535C58.043 56.4575 58.4113 55.9536 58.4307 55.9342C58.6112 55.6011 58.7046 55.2277 58.7021 54.8489C58.5858 52.465 54.9799 51.2051 53.1382 50.1779H52.9444L42.844 44.3636L35.0894 39.8671C32.8018 38.5686 30.4561 37.1925 27.7419 37.929H27.8583C27.3349 38.0065 26.8169 38.1166 26.3072 38.2586H26.1134C25.0436 38.7041 24.0181 39.2491 23.0503 39.8865L18.9404 42.0766L10.4685 47.0188Z" fill="#FAFBFE"/>
</g>
<g style="mix-blend-mode:multiply" opacity="0.1">
<path d="M9.36295 47.0191C5.89277 49.0541 2.36451 51.0504 -0.969962 53.2598C-3.16063 55.7794 0.542165 57.5431 2.40327 58.609L21.6346 69.7144C23.4114 71.0668 25.5358 71.8867 27.7607 72.0788C29.6757 72.0575 31.5476 71.5075 33.1696 70.4895L41.2731 65.7605C46.1973 62.8921 51.3735 60.1982 56.1425 57.0972C55.7548 57.3298 56.3364 56.9422 56.4334 56.8841C56.5303 56.8259 56.7629 56.6127 56.8404 56.5158C57.01 56.3272 57.1656 56.1264 57.3058 55.915C57.4938 55.584 57.5939 55.2104 57.5965 54.8297C57.4608 52.4458 53.8743 51.2054 52.0132 50.1782L51.8194 50.0619L41.7384 44.2476L33.9838 39.7511C31.6962 38.4526 29.3505 37.0766 26.6364 37.813H26.7527C26.2294 37.8906 25.7114 38.0006 25.2018 38.1425H25.0078C23.9381 38.588 22.9125 39.1331 21.9448 39.7705L17.8348 42.0769L9.36295 47.0191Z" fill="#F8F9FD"/>
</g>
<g style="mix-blend-mode:multiply" opacity="0.13">
<path d="M8.25923 47.0191C4.78905 49.0541 1.2608 51.0504 -2.07368 53.2598C-4.26435 55.7794 -0.561531 57.5237 1.31896 58.609L20.5309 69.695C22.306 71.0534 24.4305 71.88 26.6571 72.0788C28.5681 72.0531 30.4342 71.4962 32.0465 70.4703L40.1694 65.7413C45.0936 62.8729 50.2699 60.1788 55.0195 57.0778C54.6512 57.3104 55.2134 56.9422 55.3297 56.8647C55.446 56.7872 55.6593 56.5934 55.7368 56.5158C55.8144 56.4383 56.1827 55.915 56.2021 55.915C56.3856 55.5822 56.4853 55.2097 56.4928 54.8297C56.3571 52.4264 52.7512 51.186 50.9095 50.1782L50.7157 50.0619L40.6347 44.2476L32.8801 39.7511C30.5925 38.4526 28.2468 37.0766 25.5327 37.813H25.649C25.1257 37.8906 24.6077 38.0006 24.0981 38.1425H23.9041C22.8344 38.588 21.8089 39.1331 20.8412 39.7705L16.7312 42.0769L8.25923 47.0191Z" fill="#F6F7FC"/>
</g>
<g style="mix-blend-mode:multiply" opacity="0.16">
<path d="M7.15387 47.0191C3.68369 49.0541 0.155325 51.0504 -3.17915 53.2598C-5.36982 55.7794 -1.667 57.5043 0.213484 58.5896L19.4448 69.695C21.2176 71.0444 23.3332 71.8703 25.5516 72.0788C27.4658 72.0556 29.3343 71.4913 30.941 70.4509L38.967 65.7219C43.9105 62.8535 49.0673 60.1788 53.8364 57.0584C53.468 57.291 54.0303 56.9228 54.1272 56.8453C54.2242 56.7678 54.4761 56.574 54.5537 56.4964C54.6312 56.4189 54.9996 55.8956 54.9996 55.8956C55.1946 55.5675 55.2952 55.1919 55.2904 54.8103C55.1547 52.407 51.5682 51.186 49.7265 50.1782L49.5326 50.0619L39.4517 44.2476L31.6971 39.7511C29.4095 38.4526 27.0638 37.0766 24.3496 37.813H24.466C23.9367 37.893 23.4124 38.003 22.8957 38.1425H22.7211C21.6514 38.588 20.6258 39.1331 19.658 39.7705L15.7032 42.0769L7.15387 47.0191Z" fill="#F3F5FC"/>
</g>
<g style="mix-blend-mode:multiply" opacity="0.19">
<path d="M6.00917 47.0191C2.53899 49.0541 -0.98938 51.0504 -4.32385 53.2598C-6.51453 55.7794 -2.79232 57.5043 -0.931221 58.5702L18.3003 69.6756C20.0714 71.0311 22.1868 71.8636 24.4069 72.0788C26.3224 72.0457 28.19 71.4749 29.7964 70.4314L37.9 65.7025C42.8241 62.8341 48.0003 60.1594 52.7499 57.0584C52.401 57.2716 52.9439 56.9228 53.0602 56.8259C53.1765 56.729 53.3897 56.5546 53.4672 56.477C53.6368 56.2884 53.7923 56.0876 53.9325 55.8762C54.1182 55.5443 54.2182 55.1712 54.2233 54.7909C54.0876 52.3876 50.4817 51.186 48.64 50.1782L48.4462 50.0619L38.3846 44.2476C35.7998 42.7617 33.2149 41.2629 30.63 39.7511C28.3424 38.4526 25.9966 37.0766 23.2825 37.813H23.457C22.9277 37.893 22.4035 38.003 21.8867 38.1425H21.7122C20.6424 38.588 19.6169 39.1331 18.6492 39.7705L14.5199 42.0769L6.00917 47.0191Z" fill="#F1F3FB"/>
</g>
<g style="mix-blend-mode:multiply" opacity="0.23">
<path d="M4.94275 47.0191C1.47258 49.0541 -2.05579 51.0504 -5.39026 53.2599C-7.58093 55.7794 -3.85873 57.485 -1.99763 58.5703L17.2337 69.6563C18.999 71.0252 21.1166 71.8652 23.3405 72.0789C25.2488 72.0391 27.1084 71.4687 28.7106 70.4315L36.8141 65.6831C41.7576 62.8147 46.9338 60.1401 51.6835 57.0391C51.3151 57.2523 51.8579 56.9035 51.9936 56.8066C52.1293 56.7097 52.3232 56.5352 52.4008 56.4577C52.4783 56.3802 52.8466 55.8763 52.866 55.8569C53.0561 55.5276 53.1502 55.1516 53.1375 54.7716C53.0211 52.3683 49.4153 51.186 47.5736 50.1588H47.3797L37.3182 44.3445C34.7333 42.8586 32.1484 41.3598 29.5636 39.8481C27.276 38.5495 24.9301 37.1735 22.216 37.91H22.3323C21.8031 37.99 21.2788 38.1001 20.762 38.2395H20.5876C19.5179 38.6851 18.4923 39.2301 17.5245 39.8675L13.4146 42.0769L4.94275 47.0191Z" fill="#EFF1FA"/>
</g>
<g style="mix-blend-mode:multiply" opacity="0.26">
<path d="M3.83905 47.0191C0.368872 49.0541 -3.1595 51.0504 -6.49397 53.2599C-8.68465 55.7794 -4.96242 57.4656 -3.08193 58.5509L16.13 69.6563C17.9 71.0169 20.0152 71.856 22.2368 72.0789C24.1469 72.0323 26.0063 71.4552 27.6069 70.4121C30.321 68.8423 32.9963 67.2336 35.7104 65.6637C40.6346 62.7953 45.8107 60.1208 50.5798 57.0198C50.2115 57.233 50.7543 56.8842 50.8707 56.7873C50.987 56.6904 51.2195 56.5158 51.2777 56.4383C51.4534 56.2549 51.6095 56.0535 51.7431 55.8375C51.94 55.5102 52.0407 55.1341 52.0338 54.7522C51.8981 52.3489 48.2922 51.186 46.4699 50.1588H46.2761L36.2145 44.3445C33.6296 42.8586 31.0448 41.3598 28.4599 39.8481C26.1723 38.5495 23.8265 37.1735 21.1124 37.91H21.2287C20.699 37.9879 20.1746 38.098 19.6584 38.2395H19.484C18.4142 38.6851 17.3886 39.2301 16.4209 39.8675L12.3109 42.0769L3.83905 47.0191Z" fill="#ECEFFA"/>
</g>
<g style="mix-blend-mode:multiply" opacity="0.29">
<path d="M2.73344 47.0192C-0.736747 49.0542 -4.26513 51.0505 -7.59961 53.2599C-9.79028 55.7795 -6.04867 57.4656 -4.18756 58.5315L15.0438 69.6368C16.8052 71.0029 18.9139 71.8488 21.1312 72.0789C23.0425 72.0224 24.901 71.4389 26.5013 70.3927C29.196 68.8229 31.8908 67.2142 34.6049 65.6443C39.529 62.7759 44.7052 60.1014 49.4549 57.0005C49.1059 57.2137 49.6294 56.8842 49.7651 56.7873C49.9087 56.6805 50.0448 56.5639 50.1723 56.4383C50.308 56.2833 50.6376 55.8375 50.6376 55.8375C50.8233 55.5055 50.9231 55.1325 50.9283 54.7522C50.7926 52.3296 47.1867 51.1861 45.345 50.1589L45.1511 50.0426L35.1089 44.2283C32.5241 42.7424 29.9392 41.2436 27.3543 39.7319C25.0667 38.4333 22.7209 37.0573 20.0068 37.7937H20.1232C19.5936 37.8716 19.0691 37.9818 18.5528 38.1233H18.3784C17.3086 38.5688 16.283 39.1138 15.3153 39.7513L11.2053 42.077L2.73344 47.0192Z" fill="#EAEDF9"/>
</g>
<g style="mix-blend-mode:multiply" opacity="0.32">
<path d="M1.62795 47.0192C-1.84223 49.0542 -5.3706 51.0505 -8.70508 53.2599C-10.8957 55.7795 -7.15414 57.4462 -5.29304 58.5315L13.9384 69.6176C15.6939 70.997 17.8046 71.8504 20.0257 72.0789C21.9347 72.0275 23.79 71.4361 25.3764 70.3733C28.0905 68.8035 30.7852 67.1949 33.4799 65.6251C38.4041 62.7567 43.5998 60.1014 48.3494 56.9811C48.0005 57.1943 48.5045 56.8648 48.6402 56.7679C48.7937 56.6662 48.9366 56.5493 49.0667 56.4191C49.2024 56.264 49.5126 55.8182 49.532 55.8182C49.7221 55.4889 49.8162 55.1129 49.8034 54.7329C49.6677 52.3103 46.0617 51.1667 44.2394 50.1589L44.0456 50.0426L34.0034 44.2283C31.4185 42.7424 28.8337 41.2436 26.2488 39.7319C23.9612 38.4333 21.6155 37.0573 18.9014 37.7937H19.0177C18.4881 37.8716 17.9637 37.9818 17.4474 38.1233H17.2729C16.2031 38.5688 15.1775 39.1138 14.2098 39.7513L10.0998 42.077L1.62795 47.0192Z" fill="#E8EBF9"/>
</g>
<g style="mix-blend-mode:multiply" opacity="0.35">
<path d="M0.524149 47.0192C-2.94603 49.0542 -6.47429 51.0505 -9.80877 53.2599C-11.9994 55.7795 -8.25793 57.4268 -6.37744 58.5121L12.8346 69.6176C14.5949 70.9888 16.7031 71.8412 18.9219 72.0789C20.8326 72.0207 22.6878 71.4227 24.2726 70.354C26.9867 68.7842 29.662 67.1755 32.3762 65.6057C37.3003 62.7566 42.4766 60.082 47.2263 56.9811C46.8967 57.1749 47.3813 56.8454 47.5364 56.7485C47.6876 56.6516 47.8247 56.5342 47.9436 56.3997C48.1132 56.211 48.2687 56.0102 48.4088 55.7988C48.5945 55.4669 48.6945 55.0938 48.6997 54.7135C48.564 52.2909 44.9581 51.1667 43.1358 50.1589L42.9418 50.0426L32.8996 44.2283C30.3148 42.7424 27.7299 41.2436 25.145 39.7319C22.8574 38.4333 20.5117 37.0573 17.7976 37.7937H17.9139C17.3843 37.8716 16.8599 37.9818 16.3436 38.1233H16.1691C15.0993 38.5688 14.0737 39.1138 13.106 39.7513L8.99604 42.077L0.524149 47.0192Z" fill="#E5E9F8"/>
</g>
<g style="mix-blend-mode:multiply" opacity="0.39">
<path d="M-0.581347 47.0191C-4.05152 49.0541 -7.57977 51.0504 -10.9142 53.2599C-13.1049 55.7794 -9.36341 57.4267 -7.48292 58.4927L11.826 69.5982C13.9392 70.7998 15.5289 72.0789 17.9134 72.0789C19.822 72.0084 21.6738 71.4114 23.2641 70.3541L31.3482 65.6057C36.2917 62.7373 41.4679 60.0626 46.2176 56.9616C45.888 57.1554 46.3727 56.8454 46.5278 56.7291C46.68 56.6335 46.8171 56.5159 46.9349 56.3802C47.0706 56.2446 47.3807 55.7988 47.4001 55.7794C47.5902 55.4501 47.6843 55.0741 47.6716 54.6941C47.5552 52.2714 43.93 51.1666 42.1077 50.1394H41.9138L31.891 44.3251C29.3061 42.8392 26.7212 41.3405 24.1364 39.8288C21.8488 38.5302 19.5031 37.1542 16.789 37.8907H16.9053C16.3756 37.9686 15.8512 38.0786 15.335 38.2201H15.1604C14.0907 38.6656 13.0652 39.2107 12.0975 39.8481L7.94874 42.0769L-0.581347 47.0191Z" fill="#E3E7F7"/>
</g>
<g style="mix-blend-mode:multiply" opacity="0.42">
<path d="M-1.74547 47.0191C-5.21564 49.0541 -8.744 51.0504 -12.0785 53.2599C-14.2691 55.7794 -10.5081 57.4074 -8.64703 58.4927L10.5843 69.5788C12.678 70.7998 14.2677 72.0789 16.6522 72.0789C18.5569 72.0041 20.4031 71.4001 21.9835 70.3347C24.6976 68.7648 27.3729 67.1561 30.087 65.5863C35.0112 62.7179 40.1874 60.0432 44.9565 56.9422C44.6269 57.1554 45.0921 56.826 45.2472 56.7097C45.4031 56.6193 45.5412 56.501 45.6544 56.3608C45.8301 56.1774 45.986 55.976 46.1197 55.76C46.3146 55.4319 46.4153 55.0563 46.4105 54.6747C46.2748 52.252 42.6688 51.1666 40.8465 50.1394H40.6527L30.6299 44.3251C28.045 42.8392 25.4602 41.3405 22.8753 39.8288C20.5877 38.5302 18.2419 37.1542 15.5278 37.8907H15.7023C15.1727 37.9686 14.6483 38.0786 14.132 38.2201H13.9575C12.8877 38.6656 11.8623 39.2107 10.8945 39.8481L6.78461 42.0769L-1.74547 47.0191Z" fill="#E1E5F7"/>
</g>
<g style="mix-blend-mode:multiply" opacity="0.45">
<path d="M-2.79232 47.019C-6.2625 49.054 -9.79087 51.0503 -13.1253 53.2598C-15.316 55.7793 -11.555 57.3879 -9.6939 58.4733L9.53745 69.5787C11.6312 70.7803 13.2209 72.0788 15.6054 72.0788C17.5119 71.9972 19.3579 71.3866 20.9367 70.3152C23.6508 68.7453 26.3261 67.1366 29.0208 65.5667C33.9644 62.6983 39.1405 60.0237 43.8902 56.9227L44.2005 56.6901C44.3564 56.5997 44.4943 56.4815 44.6075 56.3413C44.7432 56.2056 45.0729 55.7599 45.0729 55.7599C45.2586 55.4279 45.3585 55.0549 45.3636 54.6745C45.2279 52.2519 41.622 51.1665 39.7803 50.1393L39.6059 50.023L29.583 44.2087C26.9981 42.7228 24.4133 41.2241 21.8284 39.7123C19.5408 38.4138 17.1951 37.0377 14.481 37.7742H14.5973C14.0677 37.8521 13.5433 37.9621 13.027 38.1037H12.8526C11.7828 38.5492 10.7572 39.0942 9.78948 39.7316L5.67956 42.0768L-2.79232 47.019Z" fill="#DEE3F6"/>
</g>
<g style="mix-blend-mode:multiply" opacity="0.48">
<path d="M-3.89605 47.019C-7.36623 49.054 -10.8946 51.0503 -14.2291 53.2598C-16.4197 55.7793 -12.6587 57.3879 -10.7782 58.4539L8.43369 69.5593C10.5274 70.7609 12.1171 72.0788 14.5016 72.0788C16.4107 71.9956 18.258 71.3778 19.8329 70.2958C22.5276 68.7259 25.2029 67.1172 27.917 65.5473C32.8412 62.6789 38.0367 60.0238 42.7864 56.9034C42.4762 57.1166 42.9221 56.9034 43.0772 56.6709C43.2367 56.5855 43.3809 56.474 43.5038 56.3413C43.6395 56.1862 43.9497 55.7405 43.969 55.7405C44.1592 55.4112 44.2531 55.0352 44.2404 54.6551C44.124 52.2325 40.4988 51.1665 38.6765 50.1393L38.4827 50.023L28.4793 44.2087C25.8945 42.7228 23.3096 41.2241 20.7247 39.7123C18.4371 38.4138 16.0913 37.0377 13.3772 37.7742H13.4935C12.9639 37.8521 12.4395 37.9621 11.9232 38.1037H11.7488C10.679 38.5492 9.65346 39.0942 8.68572 39.7316L4.57581 42.0768L-3.89605 47.019Z" fill="#DCE1F5"/>
</g>
<g style="mix-blend-mode:multiply" opacity="0.52">
<path d="M-5.00149 47.0189C-8.47167 49.0539 -12 51.0502 -15.3345 53.2597C-17.5252 55.7792 -13.7642 57.3685 -11.8837 58.4538L7.34769 69.5398C9.44143 70.7608 11.0117 72.0787 13.3963 72.0787C15.2983 71.9898 17.1379 71.3724 18.7081 70.2957C21.4222 68.7064 24.0976 67.0977 26.8117 65.5279C31.7358 62.6595 36.9121 60.0043 41.6812 56.9034C41.3516 57.0972 41.7974 56.7871 41.9719 56.6708C42.1231 56.5739 42.2602 56.4564 42.3791 56.3218C42.5519 56.1084 42.7075 55.8816 42.8443 55.6435C43.0393 55.3154 43.14 54.9398 43.1352 54.5582C42.9995 52.1356 39.3936 51.0696 37.5713 50.0618L37.3773 49.9455L27.374 44.1311C24.7891 42.6452 22.2042 41.1464 19.6194 39.6347C17.3318 38.3362 14.9859 36.9601 12.2718 37.6966H12.3881C11.8585 37.7745 11.3341 37.8845 10.8178 38.026H10.6434C9.57363 38.4716 8.54806 39.0167 7.58032 39.6541L3.47039 42.0767L-5.00149 47.0189Z" fill="#DADEF5"/>
</g>
<g style="mix-blend-mode:multiply" opacity="0.55">
<path d="M-6.1071 47.019C-9.57728 49.054 -13.125 51.0503 -16.4401 53.2598C-18.6308 55.7793 -14.8504 57.3491 -12.9893 58.4345L6.24209 69.5399C8.33583 70.7415 9.90612 72.0788 12.2907 72.0788C14.1944 71.9832 16.0339 71.359 17.6025 70.2764L25.6868 65.5087C30.611 62.6403 35.8065 59.985 40.5562 56.884C40.246 57.0778 40.6725 56.884 40.8663 56.6515C41.0135 56.5492 41.1499 56.4323 41.2735 56.3026C41.4431 56.114 41.5986 55.9132 41.7387 55.7018C41.9244 55.3698 42.0244 54.9967 42.0296 54.6163C41.8939 52.1937 38.2686 51.1471 36.4463 50.1393L36.2717 50.023L26.2684 44.2087C23.6835 42.7228 21.0986 41.2241 18.5138 39.7123C16.2262 38.4138 13.8803 37.0377 11.1662 37.7742H11.2825C10.7529 37.8521 10.2285 37.9621 9.71222 38.1037H9.53781C8.46803 38.5492 7.44246 39.0942 6.47471 39.7316L2.36479 42.0768L-6.1071 47.019Z" fill="#D8DCF4"/>
</g>
<g style="mix-blend-mode:multiply" opacity="0.58">
<path d="M-7.21256 47.019C-10.6827 49.054 -14.2305 51.0503 -17.5456 53.2598C-19.7363 55.7793 -15.9558 57.3492 -14.0947 58.4151L5.13663 69.5205C7.23037 70.7221 8.80066 72.0788 11.1852 72.0788C13.0899 71.9724 14.9282 71.3419 16.4971 70.257C19.1918 68.6871 21.8672 67.0592 24.5813 65.4893C29.5055 62.6209 34.6817 59.9656 39.4507 56.8647C39.1406 57.0585 39.4508 56.8647 39.7416 56.6321C39.8981 56.5346 40.0414 56.4173 40.168 56.2832C40.3037 56.1476 40.6139 55.7018 40.6333 55.6824C40.8234 55.3531 40.9175 54.9771 40.9047 54.5971C40.769 52.1744 37.1631 51.1472 35.3408 50.12H35.147C31.8384 48.1819 28.5103 46.2438 25.1629 44.3057C22.578 42.8198 19.9932 41.321 17.4083 39.8093C15.1207 38.5107 12.775 37.1347 10.0609 37.8711H10.1772C9.64755 37.949 9.12315 38.059 8.60688 38.2006H8.43235C7.36256 38.6461 6.337 39.1912 5.36925 39.8287L1.25933 42.0768L-7.21256 47.019Z" fill="#D5DAF3"/>
</g>
<g style="mix-blend-mode:multiply" opacity="0.61">
<path d="M-8.31748 47.019C-11.807 49.054 -15.3353 51.0503 -18.6504 53.2598C-20.8605 55.7793 -17.0607 57.3297 -15.1803 58.4151L4.0317 69.5012C6.12544 70.7222 7.69574 72.0788 10.0803 72.0788C11.9929 71.949 13.8289 71.2767 15.3729 70.1407C18.087 68.5708 20.7623 66.9429 23.457 65.373C28.4006 62.5046 33.5767 59.8493 38.3264 56.7483C38.0356 56.9422 38.4428 56.7484 38.6367 56.5158C38.7832 56.4128 38.9195 56.296 39.0437 56.1669C39.2133 55.9783 39.3689 55.7775 39.5091 55.5661C39.6964 55.2418 39.7965 54.8745 39.7998 54.5001C39.6641 52.058 36.0388 51.0502 34.2359 50.023H34.0421L24.058 44.2087C21.4731 42.7228 18.8882 41.2241 16.3034 39.7123C14.0158 38.4138 11.6701 37.0377 8.95595 37.7742H9.07226C8.54263 37.8521 8.01823 37.9621 7.50196 38.1037H7.32743C6.25764 38.5492 5.23208 39.0942 4.26433 39.7316L0.193216 42.0768L-8.31748 47.019Z" fill="#D3D8F3"/>
</g>
<g style="mix-blend-mode:multiply" opacity="0.65">
<path d="M-9.49906 47.019C-12.9886 49.054 -16.517 51.0503 -19.8321 53.2598C-22.0421 55.7793 -18.2423 57.3104 -16.3618 58.3957L2.86947 69.5012C4.9632 70.7028 6.51409 72.0788 8.89861 72.0788C10.811 71.9479 12.6466 71.2757 14.1911 70.1407C16.9052 68.5708 19.5612 66.9429 22.2753 65.373C27.1994 62.5046 32.395 59.8687 37.1446 56.7484C36.8538 56.9422 37.1447 56.7484 37.4355 56.5158C37.5854 56.4164 37.7278 56.3063 37.8619 56.1864C37.9976 56.0313 38.3078 55.5854 38.3272 55.5854C38.5173 55.2561 38.6113 54.8801 38.5986 54.5001C38.4823 52.0581 34.857 51.0697 33.0347 50.0425L32.8602 49.9262L22.8763 44.1118C20.2914 42.626 17.7065 41.1271 15.1217 39.6154C12.8341 38.3169 10.4883 36.9408 7.77417 37.6773H7.9487C7.41907 37.7552 6.89467 37.8653 6.3784 38.0069H6.20388C5.13409 38.4524 4.10865 38.9974 3.14091 39.6348L-0.949713 42.0768L-9.49906 47.019Z" fill="#D1D6F2"/>
</g>
<g style="mix-blend-mode:multiply" opacity="0.68">
<path d="M-10.5266 47.019C-14.0162 49.054 -17.5444 51.0503 -20.8595 53.2598C-23.0696 55.7793 -19.2505 57.3104 -17.3894 58.3763L1.84204 69.4818C3.93579 70.6834 5.4868 72.0788 7.87134 72.0788C9.78108 71.9355 11.6134 71.2645 13.1638 70.1407C15.8586 68.5514 18.5338 66.9235 21.2286 65.3536C26.1721 62.4852 31.3484 59.8493 36.1175 56.7484C35.8267 56.9228 36.1175 56.6515 36.4083 56.4964C36.5573 56.4042 36.6942 56.2935 36.8154 56.167C36.985 55.9784 37.1405 55.7775 37.2807 55.5661C37.4827 55.241 37.5839 54.8634 37.5715 54.4808C37.4358 52.0388 33.8104 51.0697 32.0075 50.0425L31.8137 49.9262L21.849 44.1118C19.2641 42.626 16.6792 41.1271 14.0943 39.6154C11.8067 38.3169 9.461 36.9408 6.74689 37.6773H6.8632C6.33357 37.7552 5.80917 37.8653 5.2929 38.0069H5.11837C4.04858 38.4524 3.02313 38.9974 2.05538 39.6348L-2.05455 42.0768L-10.5266 47.019Z" fill="#CED4F1"/>
</g>
<g style="mix-blend-mode:multiply" opacity="0.71">
<path d="M-11.6319 47.0189C-15.1215 49.0539 -18.6499 51.0502 -21.965 53.2597C-24.175 55.7792 -20.3559 57.2909 -18.4948 58.3762L0.736679 69.4623C2.83042 70.6833 4.38132 72.0787 6.76586 72.0787C8.66998 71.937 10.4964 71.2657 12.0389 70.1406C14.7531 68.5707 17.4091 66.9234 20.1232 65.3535C25.0474 62.4851 30.2429 59.8493 34.9926 56.7483C34.7212 56.9227 34.9926 56.7483 35.3028 56.4963C35.4481 56.3989 35.5844 56.2887 35.7099 56.1669C35.8795 55.9783 36.035 55.7775 36.1752 55.566C36.3609 55.2341 36.4609 54.861 36.466 54.4807C36.3303 52.0387 32.7051 51.089 30.9021 50.0618L30.7082 49.9455L20.7242 44.1311L12.9696 39.6347C10.7014 38.3362 8.35552 36.9601 5.64141 37.6966H5.75772C5.22809 37.7745 4.70369 37.8845 4.18742 38.026H4.01289C2.9431 38.4716 1.91765 39.0167 0.949902 39.6541L-3.16003 42.0767L-11.6319 47.0189Z" fill="#CCD2F1"/>
</g>
<g style="mix-blend-mode:multiply" opacity="0.74">
<path d="M-12.7366 47.0191C-16.2262 49.0541 -19.7546 51.0504 -23.0697 53.2598C-25.2797 55.7794 -21.4606 57.2717 -19.5801 58.3571L-0.368023 69.4624C1.74511 70.664 3.27661 72.0788 5.66115 72.0788C7.56505 71.9361 9.39124 71.2648 10.9342 70.1407C13.6483 68.5708 16.3044 66.9235 19.0185 65.3536C23.9427 62.4852 29.1382 59.8494 33.8879 56.7484C33.6165 56.9228 33.888 56.7484 34.1787 56.5158C34.33 56.4112 34.4726 56.2945 34.6052 56.167C34.7409 56.0313 35.0511 55.5856 35.0705 55.5662C35.2606 55.2369 35.3546 54.8609 35.3419 54.4808C35.2062 52.0388 31.5809 51.0891 29.778 50.0619H29.6034L19.6195 44.2476L11.8649 39.7511C9.59664 38.4526 7.25081 37.0766 4.5367 37.813H4.65302C4.12338 37.8909 3.59898 38.0009 3.08271 38.1425H2.9083C1.83851 38.588 0.812948 39.1331 -0.154799 39.7705L-4.26473 42.0769L-12.7366 47.0191Z" fill="#CAD0F0"/>
</g>
<g style="mix-blend-mode:multiply" opacity="0.77">
<path d="M-13.8412 47.019C-17.3308 49.054 -20.8592 51.0503 -24.1743 53.2598C-26.3843 55.7793 -22.5458 57.2717 -20.6847 58.3376L-1.45325 69.443C0.64049 70.6446 2.17197 72.0788 4.55651 72.0788C6.45616 71.9439 8.2783 71.2717 9.81029 70.1407C12.5244 68.5708 15.1803 66.9235 17.8944 65.3536C22.8186 62.4852 28.0141 59.8493 32.7638 56.7484L33.0741 56.5158C33.2242 56.4174 33.3609 56.3002 33.4811 56.1669C33.6507 55.9783 33.8062 55.7775 33.9464 55.5661C34.1447 55.2465 34.2458 54.8761 34.2372 54.5001C34.1015 52.0387 30.4763 51.1084 28.6733 50.0812H28.4795L18.5148 44.2669L10.7602 39.7704C8.49199 38.4719 6.14617 37.0958 3.43206 37.8323H3.54838C3.01875 37.9102 2.49435 38.0202 1.97808 38.1618H1.80367C0.733877 38.6073 -0.291689 39.1524 -1.25943 39.7898L-5.36936 42.0768L-13.8412 47.019Z" fill="#C7CEF0"/>
</g>
<g style="mix-blend-mode:multiply" opacity="0.81">
<path d="M-14.9467 47.0189C-18.4363 49.0539 -21.9647 51.0503 -25.2798 53.2597C-27.4898 55.7792 -23.6513 57.2522 -21.7902 58.3375L-2.55872 69.4235C-0.464977 70.6445 1.06651 72.0787 3.45105 72.0787C5.35024 71.9417 7.17182 71.2697 8.70483 70.1406C11.4189 68.5707 14.0749 66.9234 16.789 65.3535C21.7131 62.4851 26.9087 59.8686 31.6584 56.7483C31.387 56.9227 31.6584 56.7483 31.9492 56.5157L32.3757 56.1863C32.5114 56.0312 32.8217 55.5853 32.841 55.5853C33.0312 55.256 33.1251 54.88 33.1124 54.5C32.996 52.0386 29.3708 51.1278 27.5678 50.1006L27.374 49.9843L17.4093 44.1699L9.65475 39.6735C7.38653 38.375 5.04071 36.9989 2.3266 37.7354H2.44291C1.91328 37.8133 1.38888 37.9233 0.87261 38.0648H0.698198C-0.37159 38.5104 -1.39715 39.0555 -2.3649 39.6929L-6.47483 42.0768L-14.9467 47.0189Z" fill="#C5CCEF"/>
</g>
<g style="mix-blend-mode:multiply" opacity="0.84">
<path d="M-16.0522 47.0189C-19.5418 49.0539 -23.0701 51.0503 -26.3852 53.2597C-28.5953 55.7792 -24.7567 57.2328 -22.8956 58.3181L-3.66418 69.4235C-1.57044 70.6251 -0.03895 72.0787 2.34559 72.0787C4.24212 71.9294 6.06044 71.2587 7.59938 70.1406C10.3135 68.5513 12.9694 66.904 15.6641 65.3341C20.5883 62.4657 25.7839 59.8493 30.5529 56.7483C30.2815 56.9033 30.553 56.7483 30.8438 56.4963C30.9876 56.3969 31.1237 56.2868 31.2509 56.1669C31.4267 55.9835 31.5826 55.7821 31.7162 55.5661C31.9182 55.2409 32.0193 54.8633 32.0069 54.4807C31.8712 52.0193 28.246 51.1278 26.443 50.1006L26.2686 49.9843L16.3039 44.1699L8.5493 39.6735C6.28108 38.375 3.93537 36.9989 1.22126 37.7354H1.33757C0.80794 37.8133 0.283541 37.9233 -0.232729 38.0648H-0.407261C-1.47705 38.5104 -2.50261 39.0555 -3.47036 39.6929L-7.56089 42.0768L-16.0522 47.0189Z" fill="#C3CAEE"/>
</g>
<g style="mix-blend-mode:multiply" opacity="0.87">
<path d="M-17.1572 47.0191C-20.6468 49.0541 -24.1751 51.0504 -27.5096 53.2598C-29.7002 55.7794 -25.8617 57.2329 -23.9812 58.2989L-4.74982 69.4043C-2.65608 70.6059 -1.144 72.0789 1.24054 72.0789C3.13079 71.9281 4.94246 71.2573 6.47492 70.1408C9.18903 68.5709 11.8449 66.9235 14.5591 65.3343C19.4832 62.4852 24.6789 59.8494 29.4286 56.7484C29.1766 56.9035 29.4285 56.7484 29.7193 56.4965C29.872 56.401 30.0149 56.2906 30.1459 56.167C30.3155 55.9784 30.471 55.7776 30.6111 55.5662C30.7968 55.2342 30.8968 54.8612 30.902 54.4809C30.7663 52.0195 27.1409 51.1473 25.338 50.1201L25.1441 50.0038C21.829 48.0657 18.5333 46.1276 15.1988 44.1895L7.44424 39.693C5.17603 38.3945 2.83032 37.0184 0.116207 37.7549H0.19371C-0.335922 37.8328 -0.860323 37.9428 -1.37659 38.0844H-1.55112C-2.62091 38.5299 -3.64636 39.075 -4.61411 39.7124L-8.68534 42.0769L-17.1572 47.0191Z" fill="#C0C8EE"/>
</g>
<g style="mix-blend-mode:multiply" opacity="0.9">
<path d="M-18.2618 47.019C-21.7514 49.054 -25.2797 51.0503 -28.6141 53.2598C-30.8048 55.7793 -26.9469 57.1359 -25.0858 58.2988L-5.85444 69.3849C-3.7607 70.6059 -2.24862 72.0788 0.135912 72.0788C2.02594 71.927 3.83734 71.2563 5.37029 70.1407C8.08439 68.5708 10.7404 66.9234 13.4351 65.3342C18.3787 62.4852 23.5742 59.8493 28.3239 56.7483C28.0719 56.9034 28.3239 56.7483 28.6147 56.4964L29.0412 56.1669C29.1769 56.0313 29.4871 55.5855 29.5065 55.5661C29.6966 55.2368 29.7906 54.8608 29.7779 54.4808C29.6422 52.0194 26.017 51.1665 24.2334 50.1393L24.0395 50.023L14.0942 44.2087L6.33961 39.7123C4.07139 38.4138 1.72569 37.0377 -0.988419 37.7742H-0.872105C-1.40174 37.8521 -1.92614 37.9621 -2.4424 38.1037H-2.61693C-3.68672 38.5492 -4.71229 39.0942 -5.68003 39.7316L-9.78996 42.0768L-18.2618 47.019Z" fill="#BEC6ED"/>
</g>
<g style="mix-blend-mode:multiply" opacity="0.94">
<path d="M-19.3673 47.0191C-22.8569 49.0541 -26.3851 51.0504 -29.7196 53.2599C-31.9103 55.7794 -28.0524 57.1361 -26.1913 58.2795L-6.95992 69.385C-4.86618 70.5866 -3.35398 72.0789 -0.96945 72.0789C0.922127 71.9342 2.73527 71.2628 4.2648 70.1408C6.97891 68.5709 9.61554 66.9236 12.3296 65.3537C17.2538 62.4853 22.4494 59.8495 27.2184 56.7485C26.9664 56.9035 27.2185 56.7485 27.5093 56.4965L27.9163 56.1671C28.0859 55.9785 28.2414 55.7777 28.3816 55.5662C28.5865 55.2496 28.6882 54.877 28.6724 54.5002C28.5367 52.0194 24.9115 51.1666 23.1085 50.1394H22.934L12.9887 44.3251L5.23413 39.8288C2.96591 38.5302 0.620209 37.1542 -2.0939 37.8907H-1.97758C-2.50722 37.9686 -3.03161 38.0786 -3.54788 38.2201H-3.72241C-4.7922 38.6656 -5.81765 39.2107 -6.78539 39.8481L-10.8953 42.0769L-19.3673 47.0191Z" fill="#BCC4EC"/>
</g>
<g style="mix-blend-mode:multiply" opacity="0.97">
<path d="M-20.4717 47.0191C-23.9612 49.0541 -27.4896 51.0504 -30.8241 53.2599C-33.0148 55.7794 -29.1569 57.136 -27.2957 58.2601L-8.06436 69.3656C-5.97062 70.5672 -4.45842 72.0789 -2.07388 72.0789C-0.18857 71.9326 1.61804 71.2612 3.14109 70.1408C5.85521 68.5709 8.51111 66.9236 11.2058 65.3537C16.1494 62.4853 21.345 59.8688 26.0947 56.7485C25.862 56.9035 26.0947 56.7485 26.3855 56.4965L26.8119 56.1865C26.9477 56.0314 27.2772 55.5855 27.2772 55.5855C27.4629 55.2536 27.5629 54.8805 27.5681 54.5002C27.4323 52.0194 23.6908 51.186 22.0041 50.1588H21.8103L11.8844 44.3445L4.12983 39.8481C1.86161 38.5495 -0.484219 37.1735 -3.19833 37.91H-3.08202C-3.61165 37.9879 -4.13605 38.098 -4.65232 38.2395H-4.82685C-5.89664 38.6851 -6.92209 39.2301 -7.88983 39.8675L-11.9998 42.0769L-20.4717 47.0191Z" fill="#B9C2EC"/>
</g>
<g style="mix-blend-mode:multiply" opacity="0.5">
<path d="M26.443 54.4035C26.3073 51.9227 22.682 51.1087 20.8984 50.0815L10.7788 44.2671L3.02415 39.7707C0.755932 38.4721 -1.58989 37.0961 -4.304 37.8326H-4.18769C-4.71732 37.9105 -5.24172 38.0205 -5.75799 38.162H-5.9324C-7.00219 38.6075 -8.02775 39.1527 -8.9955 39.7901L-13.1054 42.0771L-21.5773 46.9998C-25.0669 49.0349 -28.5953 51.0312 -31.9298 53.2406C-34.1204 55.7602 -30.2625 57.1169 -28.382 58.241L-9.15063 69.327C-7.05688 70.548 -5.56409 72.0597 -3.17955 72.0597C-1.29624 71.9044 0.507988 71.2339 2.03542 70.1216C4.74953 68.5323 7.38604 66.8849 10.1002 65.3151C15.0243 62.4467 20.2199 59.8302 24.989 56.7292C24.5819 56.9618 25.6093 56.2253 25.7063 56.1478C25.8032 56.0703 26.1522 55.547 26.1716 55.547C26.3503 55.1923 26.4432 54.8006 26.443 54.4035Z" fill="#B7C0EB"/>
</g>
</g>
<path d="M28.7311 18.5286C28.7402 18.5668 28.7402 18.6066 28.7311 18.6448C28.743 18.676 28.743 18.7106 28.7311 18.7418C28.7395 18.7802 28.7395 18.8198 28.7311 18.8581C28.7311 18.8581 28.7311 18.8581 28.7311 18.955C28.7395 18.9933 28.7395 19.033 28.7311 19.0713V19.2264L28.5955 19.3621C28.5488 19.4185 28.4968 19.4703 28.4404 19.517L28.324 19.6139H28.2077C28.1629 19.6228 28.1168 19.6228 28.072 19.6139L27.9363 19.7109L-0.348633 36.2625V70.8193L27.6454 54.5584H27.7425H27.8782H27.9945H28.1108L28.2464 54.4227V54.3064C28.2548 54.2681 28.2548 54.2285 28.2464 54.1902C28.2548 54.1518 28.2548 54.1122 28.2464 54.0739C28.2555 54.0356 28.2555 53.9958 28.2464 53.9576V53.8413V19.2845L28.7311 18.5286Z" fill="#E4E7FB"/>
<path d="M27.6258 16.8813C27.9452 16.9959 28.2214 17.2063 28.4167 17.4839C28.6119 17.7614 28.7167 18.0924 28.7167 18.4317C28.7167 18.771 28.6119 19.1021 28.4167 19.3796C28.2214 19.6571 27.9452 19.8676 27.6258 19.9822L-0.348972 36.2624C-1.17804 36.683 -2.09451 36.9022 -3.02419 36.9022C-3.95387 36.9022 -4.87046 36.683 -5.69953 36.2624L-33.8681 20.0016C-34.1968 19.8964 -34.4835 19.6895 -34.6869 19.4109C-34.8904 19.1322 -35 18.7961 -35 18.4511C-35 18.1061 -34.8904 17.7701 -34.6869 17.4914C-34.4835 17.2128 -34.1968 17.0059 -33.8681 16.9007L-5.89347 0.639848C-5.06099 0.219139 -4.14123 0 -3.20843 0C-2.27562 0 -1.35587 0.219139 -0.523384 0.639848L27.6258 16.8813Z" fill="white"/>
<path d="M-3.02369 36.5919C-3.91037 36.6149 -4.78709 36.4007 -5.56332 35.9717L-33.732 19.711C-34.0003 19.6008 -34.2338 19.4201 -34.4078 19.1881C-34.5819 18.9561 -34.69 18.6814 -34.7207 18.3931C-34.6847 18.1115 -34.5766 17.8439 -34.4068 17.6163C-34.237 17.3888 -34.0112 17.209 -33.7514 17.0944L-5.75726 0.833583C-4.98294 0.419704 -4.11485 0.212755 -3.23704 0.232771C-2.34689 0.213024 -1.4663 0.419763 -0.678001 0.833583L27.4906 17.0944C27.753 17.2107 27.9804 17.3935 28.1504 17.6246C28.3204 17.8558 28.4272 18.1273 28.46 18.4123C28.4335 18.6943 28.3313 18.964 28.164 19.1926C27.9968 19.4212 27.7708 19.6003 27.5101 19.711L-0.484066 35.9911C-1.26538 36.4049 -2.13972 36.6118 -3.02369 36.5919Z" fill="url(#paint0_linear_477_7565)"/>
<defs>
<linearGradient id="paint0_linear_477_7565" x1="44165.2" y1="22282.6" x2="42106.2" y2="22282.6" gradientUnits="userSpaceOnUse">
<stop stop-color="#F1F4FE"/>
<stop offset="0.58" stop-color="#F7F9FE"/>
<stop offset="1" stop-color="white"/>
</linearGradient>
</defs>
</svg>
