<svg width="70" height="53" viewBox="0 0 70 53" fill="none" xmlns="http://www.w3.org/2000/svg">
<g style="mix-blend-mode:multiply" opacity="0.15">
<g style="mix-blend-mode:multiply" opacity="0.03">
<path d="M34.0162 34.3222C31.4801 35.7949 28.9061 37.2523 26.4763 38.8768C24.8741 40.7214 27.5697 42.0119 28.9364 42.8014L42.9532 50.8934C44.4719 51.7739 45.6943 52.6013 47.4255 52.6013C48.8229 52.5951 50.1906 52.1981 51.3739 51.4551L57.289 48.0164C60.8881 45.9289 64.6542 43.9628 68.1242 41.6931C67.8357 41.8753 68.2837 41.5868 68.3445 41.5337C68.4052 41.4805 68.5343 41.397 68.6026 41.3211L68.6406 41.2756C68.7611 41.1386 68.8727 40.9941 68.9747 40.8429C69.1106 40.5993 69.1813 40.3248 69.1797 40.0458C69.081 38.3075 66.4614 37.3738 65.1098 36.6375L64.9731 36.554L57.6079 32.3106L51.9358 29.0313C50.2805 28.0748 48.5721 27.0728 46.6207 27.5131H46.7118C46.324 27.5686 45.9408 27.6523 45.5653 27.7636L45.4361 27.8091C44.659 28.1381 43.912 28.5344 43.2038 28.9933L40.2197 30.7241L34.0162 34.3222Z" fill="#FDFDFE"/>
</g>
<g style="mix-blend-mode:multiply" opacity="0.06">
<path d="M33.2115 34.3224C30.6678 35.795 28.1014 37.2525 25.6716 38.877C24.0695 40.7216 26.765 42.0045 28.1317 42.7863L42.1485 50.8784C43.6671 51.7665 44.8896 52.6015 46.6208 52.6015C48.0158 52.5888 49.38 52.1894 50.5616 51.4477L56.4766 48.0014C60.0757 45.9138 63.8418 43.9478 67.3118 41.6856C67.0309 41.8602 67.4713 41.5718 67.5396 41.5262C67.608 41.4807 67.7218 41.382 67.7978 41.3061V41.2681C67.8889 41.1619 68.1015 40.8658 68.1319 40.8354C68.2619 40.6032 68.3324 40.3424 68.3369 40.0763C68.2458 38.3304 65.6186 37.4119 64.2746 36.668L64.1303 36.5921C61.6752 35.1751 59.2227 33.7606 56.7727 32.3487L51.1007 29.0694C49.4454 28.1129 47.7294 27.1109 45.7856 27.5512H45.8691C45.4839 27.6073 45.1033 27.6911 44.7301 27.8017L44.601 27.8472C43.809 28.1756 43.0469 28.5718 42.3231 29.0314L39.3467 30.7622L33.2115 34.3224Z" fill="#FAFBFE"/>
</g>
<g style="mix-blend-mode:multiply" opacity="0.1">
<path d="M32.3988 34.3215C29.8551 35.7942 27.2887 37.2516 24.8589 38.8761C23.2568 40.7207 25.9599 41.996 27.3267 42.7779L41.3359 50.8699C42.8545 51.758 44.077 52.6006 45.8082 52.6006C47.2028 52.5864 48.5655 52.1814 49.7414 51.4316L55.6564 47.9929C59.2556 45.8978 63.0218 43.9393 66.4918 41.6696C66.2108 41.8442 66.6436 41.5633 66.7196 41.5102C66.7955 41.457 66.9094 41.3659 66.9777 41.29H67.0157C67.1362 41.1531 67.2478 41.0086 67.3498 40.8573C67.4796 40.625 67.55 40.3643 67.5548 40.0982C67.4637 38.3599 64.8365 37.449 63.4925 36.7051L63.3482 36.6292C60.9033 35.2122 58.4532 33.7977 55.9981 32.3858L50.3261 29.1065C48.6632 28.15 46.9548 27.148 45.0109 27.5883H45.0944C44.7091 27.6436 44.3284 27.7273 43.9555 27.8388L43.7885 27.7932C42.9964 28.1216 42.2343 28.5178 41.5105 28.9774L38.5341 30.7082L32.3988 34.3215Z" fill="#F8F9FD"/>
</g>
<g style="mix-blend-mode:multiply" opacity="0.13">
<path d="M31.5941 34.3224C29.058 35.795 26.484 37.2525 24.0542 38.877C22.4596 40.7216 25.1628 41.9817 26.5295 42.7712L40.5462 50.8632C42.0649 51.7437 43.2722 52.6015 45.011 52.6015C46.4063 52.5846 47.7689 52.177 48.9442 51.4249C50.9108 50.2787 52.885 49.1476 54.8592 47.9786C58.4507 45.8835 62.2244 43.925 65.6869 41.6629C65.4135 41.8375 65.8387 41.5566 65.9146 41.4959C65.9906 41.4351 66.112 41.3516 66.1728 41.2757C66.2335 41.1998 66.1728 41.2757 66.1728 41.2378C66.1728 41.1998 66.4841 40.843 66.5069 40.8127C66.6407 40.582 66.7114 40.3202 66.7119 40.0536C66.6208 38.3076 63.9936 37.4043 62.6496 36.668L62.5129 36.5845C60.0604 35.1725 57.6154 33.753 55.1553 32.3487L49.4909 29.0694C47.828 28.1129 46.1196 27.1109 44.1757 27.5512H44.2593C43.8739 27.6065 43.4933 27.6902 43.1203 27.8017L42.9836 27.8472C42.2079 28.1793 41.4612 28.5754 40.7513 29.0314L37.7748 30.7622L31.5941 34.3224Z" fill="#F6F7FC"/>
</g>
<g style="mix-blend-mode:multiply" opacity="0.16">
<path d="M30.789 34.3221C28.253 35.7948 25.6789 37.2522 23.2491 38.8767C21.6546 40.7213 24.3653 41.9739 25.7245 42.7633L39.7412 50.8553C41.2599 51.7359 42.4672 52.6012 44.206 52.6012C45.599 52.5778 46.9581 52.1678 48.1316 51.4171L54.0466 47.9632C57.6381 45.8756 61.4119 43.9171 64.8743 41.6474C64.6009 41.822 65.0261 41.5488 65.1097 41.4804C65.1932 41.4121 65.2995 41.3362 65.3678 41.2679V41.2299C65.4665 41.1237 65.6791 40.8276 65.7019 40.7972C65.83 40.5638 65.9027 40.3041 65.9145 40.0381C65.8158 38.2846 63.1886 37.3965 61.8447 36.6526L61.708 36.5767C59.263 35.1647 56.8104 33.7452 54.3579 32.3409L48.6935 29.0616C47.0306 28.1051 45.3222 27.1031 43.3783 27.5434H43.4619C43.0765 27.5987 42.6959 27.6824 42.3229 27.7939L42.1862 27.8394C41.409 28.1684 40.6621 28.5646 39.9539 29.0236L36.9546 30.7316L30.789 34.3221Z" fill="#F3F5FC"/>
</g>
<g style="mix-blend-mode:multiply" opacity="0.19">
<path d="M29.9843 34.3224C27.4482 35.795 24.8742 37.2525 22.4444 38.877C20.8498 40.7216 23.5605 41.9665 24.9273 42.7484L38.9441 50.8404C40.4627 51.7285 41.6624 52.6015 43.4012 52.6015C44.7938 52.5762 46.1513 52.1606 47.3193 51.4021L53.2343 47.9482C56.8258 45.8607 60.5995 43.9022 64.0696 41.6401C63.7962 41.8071 64.2062 41.5338 64.2974 41.4731C64.3971 41.4175 64.4848 41.3427 64.5555 41.253V41.215C64.6542 41.1087 64.8593 40.8203 64.882 40.7899C65.009 40.5565 65.0792 40.2964 65.087 40.0308C64.9883 38.2773 62.3611 37.4043 61.0248 36.6604L60.8805 36.5845C58.4355 35.1624 55.988 33.7505 53.538 32.3487L47.8736 29.0694C46.2107 28.1129 44.5022 27.1109 42.5129 27.5512H42.604C42.2187 27.6065 41.838 27.6902 41.465 27.8017L41.3283 27.8472C40.5512 28.1762 39.8042 28.5725 39.096 29.0314L36.1954 30.7318L29.9843 34.3224Z" fill="#F1F3FB"/>
</g>
<g style="mix-blend-mode:multiply" opacity="0.23">
<path d="M29.1792 34.3221C26.6431 35.7948 24.0691 37.2522 21.6393 38.8767C20.0372 40.7213 22.7555 41.9587 24.1222 42.7405L38.139 50.8326C39.6576 51.7207 40.8573 52.6012 42.5886 52.6012C43.9812 52.5696 45.3377 52.1518 46.5066 51.3943C48.4808 50.2404 50.4474 49.079 52.4216 47.9404C56.0131 45.8453 59.7869 43.8944 63.2569 41.6247C62.9912 41.7917 63.3936 41.526 63.4847 41.4577C63.5863 41.4047 63.6746 41.3294 63.7429 41.2375C63.7429 41.2375 63.7429 41.2375 63.7809 41.1996C63.8977 41.0642 64.0067 40.9223 64.1073 40.7745C64.2336 40.5407 64.3037 40.2809 64.3124 40.0154C64.2137 38.2619 61.594 37.3965 60.2501 36.6526L60.1058 36.5691L52.7709 32.3409L47.1065 29.0616C45.4436 28.1051 43.7351 27.1031 41.7457 27.5434H41.8369C41.4515 27.5987 41.0708 27.6824 40.6979 27.7939L40.5612 27.8394C39.784 28.1684 39.0371 28.5646 38.3289 29.0236L35.3448 30.7543L29.1792 34.3221Z" fill="#EFF1FA"/>
</g>
<g style="mix-blend-mode:multiply" opacity="0.26">
<path d="M28.3747 34.3221C25.8386 35.7948 23.2645 37.2522 20.8348 38.8767C19.2326 40.7213 21.9585 41.9131 23.3177 42.7329L37.3345 50.825C38.8531 51.7055 40.0528 52.6012 41.784 52.6012C43.1786 52.5679 44.5359 52.1445 45.702 51.3791C47.6762 50.2329 49.6352 49.1018 51.6094 47.9252C55.2009 45.8301 58.9747 43.8792 62.4447 41.6171C62.179 41.7841 62.5814 41.5184 62.6801 41.4425C62.7796 41.3898 62.8674 41.3175 62.9383 41.2299V41.192C63.0575 41.054 63.1691 40.9096 63.2724 40.7593C63.3993 40.5258 63.4696 40.2658 63.4774 40.0002C63.3863 38.2467 60.7591 37.3889 59.4151 36.645L59.2784 36.5691L51.9435 32.3409L46.2715 29.0616C44.6162 28.1051 42.9078 27.1031 40.9564 27.5434H41.0475C40.6597 27.5988 40.2765 27.6825 39.9009 27.7939L39.7719 27.8394C38.9947 28.1684 38.2477 28.5646 37.5395 29.0236L34.5554 30.7543L28.3747 34.3221Z" fill="#ECEFFA"/>
</g>
<g style="mix-blend-mode:multiply" opacity="0.29">
<path d="M27.5697 34.3221C25.0336 35.7948 22.4595 37.2522 20.0298 38.8767C18.4276 40.7213 21.1535 41.9131 22.5203 42.7254L36.537 50.8174C38.0557 51.6979 39.2477 52.6012 40.979 52.6012C42.3712 52.5614 43.7251 52.1357 44.8894 51.3715C46.8636 50.2177 48.8226 49.0563 50.7968 47.91C54.3883 45.8225 58.1621 43.8716 61.6321 41.6019C61.3739 41.7689 61.7612 41.5032 61.8675 41.4273C61.9683 41.3765 62.0565 41.3039 62.1257 41.2147L62.1636 41.1768C62.2623 41.0705 62.4673 40.7821 62.4901 40.7517C62.6214 40.52 62.6919 40.2589 62.6951 39.9926C62.604 38.2315 59.9768 37.3889 58.6328 36.645L58.4961 36.5691L51.1688 32.3409L45.4968 29.0616C43.8416 28.1051 42.1331 27.1031 40.1817 27.5434H40.2728C39.885 27.5988 39.5018 27.6825 39.1263 27.7939L38.9972 27.8394C38.22 28.1684 37.473 28.5646 36.7648 29.0236L33.7808 30.7543L27.5697 34.3221Z" fill="#EAEDF9"/>
</g>
<g style="mix-blend-mode:multiply" opacity="0.32">
<path d="M26.7646 34.3223C24.221 35.7949 21.6545 37.2524 19.2247 38.8769C17.6226 40.7215 20.3561 41.9132 21.7152 42.7103L35.732 50.8099C37.2506 51.6905 38.4351 52.6014 40.174 52.6014C41.5658 52.5596 42.918 52.1283 44.0768 51.3565C46.051 50.2102 48.01 49.0792 49.9842 47.895C53.5757 45.8074 57.3571 43.8565 60.8195 41.5944C60.5689 41.7538 60.9486 41.4958 61.0549 41.4198C61.1557 41.3658 61.2438 41.2908 61.3131 41.1997C61.4299 41.0644 61.5389 40.9224 61.6395 40.7746C61.7684 40.5415 61.8412 40.2816 61.8521 40.0155C61.7534 38.2544 59.1262 37.427 57.7899 36.683L57.6456 36.5996C55.2108 35.1876 52.7708 33.7808 50.3259 32.379L44.6539 29.0996C42.991 28.1432 41.2826 27.1412 39.3008 27.5814H39.3843C38.999 27.6367 38.6183 27.7205 38.2453 27.8319L38.1163 27.8775C37.3243 28.2059 36.5621 28.6021 35.8383 29.0617L32.8618 30.7924L26.7646 34.3223Z" fill="#E8EBF9"/>
</g>
<g style="mix-blend-mode:multiply" opacity="0.35">
<path d="M25.9599 34.3222C23.4162 35.7949 20.8422 37.2524 18.4124 38.8768C16.8178 40.7215 19.5513 41.9132 20.9181 42.6723L34.9349 50.7644C36.4535 51.6525 37.6304 52.571 39.3692 52.571C40.7587 52.5228 42.1074 52.0891 43.2645 51.3185C45.2387 50.1647 47.1977 48.9957 49.1719 47.857C52.7634 45.7619 56.5448 43.8186 60.0072 41.5565C59.7566 41.7083 60.1363 41.4578 60.2502 41.3743C60.3477 41.3186 60.435 41.2467 60.5084 41.1617V41.1238C60.6258 40.9889 60.7349 40.847 60.8349 40.6987C60.9596 40.4643 61.0296 40.2048 61.0399 39.9396C60.9411 38.1785 58.314 37.351 56.9776 36.6071L56.8333 36.5312C54.3934 35.1193 51.9535 33.7124 49.5136 32.3106L43.8492 29.0313C42.1863 28.0748 40.4778 27.0728 38.534 27.5131H38.6175C38.2322 27.5684 37.8515 27.6521 37.4786 27.7636L37.3495 27.8091C36.5705 28.1395 35.8212 28.5356 35.1095 28.9933L32.1331 30.7241L25.9599 34.3222Z" fill="#E5E9F8"/>
</g>
<g style="mix-blend-mode:multiply" opacity="0.39">
<path d="M25.1476 34.3224C22.6115 35.7951 20.0375 37.2526 17.6077 38.877C16.0131 40.7216 18.7466 41.9134 20.1134 42.6725L34.1302 50.7646C35.6488 51.6451 36.8257 52.5788 38.5645 52.5788C39.956 52.5289 41.3055 52.0897 42.4598 51.3111C44.4339 50.1649 46.3854 48.9958 48.3596 47.8496C51.9587 45.7545 55.7324 43.8112 59.2024 41.5491C58.9519 41.7009 59.3239 41.458 59.4378 41.3669C59.535 41.3108 59.6223 41.2389 59.696 41.1543V41.1164C59.8109 40.9813 59.9174 40.8394 60.0149 40.6913C60.1386 40.4565 60.2087 40.1973 60.2199 39.9322C60.1212 38.1711 57.494 37.3588 56.1576 36.6149L56.0209 36.539C53.5861 35.1271 51.1462 33.7202 48.7012 32.3184L43.0368 29.0391C41.374 28.0826 39.6655 27.0806 37.6837 27.5209H37.7673C37.3819 27.5762 37.0012 27.6599 36.6283 27.7714L36.4916 27.8169C35.7152 28.1475 34.9684 28.5437 34.2593 29.0011L31.2828 30.7319L25.1476 34.3224Z" fill="#E3E7F7"/>
</g>
<g style="mix-blend-mode:multiply" opacity="0.42">
<path d="M24.3426 34.322C21.8065 35.7947 19.2325 37.2522 16.8027 38.8766C15.2081 40.7213 17.9492 41.913 19.3084 42.6721L33.3252 50.7642C34.8438 51.6447 36.0207 52.586 37.7595 52.586C39.1486 52.5296 40.4947 52.0881 41.6472 51.3107C43.6214 50.1569 45.5728 48.9879 47.547 47.8416C51.1461 45.7541 54.9199 43.8108 58.3899 41.5487C58.1469 41.7005 58.5038 41.45 58.6253 41.3589C58.7253 41.3069 58.8132 41.2345 58.8835 41.1463V41.1084C58.9898 41.0021 59.1872 40.7136 59.21 40.6909C59.3377 40.4578 59.4081 40.1975 59.415 39.9318C59.3163 38.1631 56.689 37.366 55.3527 36.6221L55.216 36.5386L47.9039 32.3256L42.2698 29.0235C40.6069 28.067 38.8985 27.065 36.9547 27.5053H37.0382C36.6529 27.5606 36.2722 27.6443 35.8992 27.7558L35.7625 27.8013C34.9854 28.1303 34.2384 28.5266 33.5302 28.9855L30.5461 30.7163L24.3426 34.322Z" fill="#E1E5F7"/>
</g>
<g style="mix-blend-mode:multiply" opacity="0.45">
<path d="M23.5376 34.3223C21.0016 35.7949 18.4275 37.2524 15.9977 38.8769C14.3956 40.7215 17.1443 41.9133 18.511 42.6724L32.5278 50.7719C34.0464 51.6525 35.2157 52.6014 36.947 52.6014C38.3381 52.5433 39.685 52.0962 40.8346 51.3109C42.8088 50.1647 44.7678 48.9881 46.7344 47.8418C50.3335 45.7543 54.1073 43.811 57.5773 41.5489C57.3343 41.7007 57.6912 41.4578 57.8203 41.3667C57.9155 41.3078 58.0023 41.2363 58.0784 41.1542C58.1959 41.0193 58.305 40.8773 58.4049 40.7291C58.5319 40.4956 58.6022 40.2356 58.61 39.97C58.5189 38.2013 55.884 37.4118 54.5553 36.6679L54.411 36.592C51.9812 35.1876 49.5438 33.7757 47.1065 32.379L41.4345 29.0996C39.7792 28.1432 38.0707 27.1412 36.0813 27.5814H36.1725C35.7871 27.6367 35.4064 27.7205 35.0335 27.8319L34.8968 27.8775C34.1196 28.2065 33.3727 28.6027 32.6645 29.0617L29.6804 30.7924L23.5376 34.3223Z" fill="#DEE3F6"/>
</g>
<g style="mix-blend-mode:multiply" opacity="0.48">
<path d="M22.7326 34.3218C20.1966 35.7945 17.6225 37.2519 15.1927 38.8764C13.5906 40.721 16.3469 41.9128 17.706 42.6719L31.7228 50.7639C33.2414 51.652 34.4108 52.6085 36.142 52.6085C37.519 52.5441 38.8514 52.1001 39.9917 51.3256C41.9659 50.1794 43.9249 48.9952 45.8915 47.8565C49.4906 45.7614 53.2719 43.8257 56.7344 41.5636C56.499 41.7078 56.8483 41.4725 56.9774 41.3738C57.074 41.317 57.1612 41.2452 57.2356 41.1613V41.1233C57.3343 41.0095 57.5393 40.7286 57.5545 40.7058C57.6844 40.4732 57.7572 40.213 57.767 39.9467C57.6683 38.1704 55.0335 37.3962 53.7048 36.6522L53.5681 36.5763C51.1282 35.1644 48.6933 33.7601 46.2636 32.3633L40.5915 29.084C38.9362 28.1276 37.2278 27.1255 35.2764 27.5658H35.3675C34.9797 27.6213 34.5965 27.705 34.221 27.8163L34.0918 27.8619C33.3147 28.1909 32.5677 28.5871 31.8595 29.0461L28.8754 30.7768L22.7326 34.3218Z" fill="#DCE1F5"/>
</g>
<g style="mix-blend-mode:multiply" opacity="0.52">
<path d="M21.928 34.3216C19.3919 35.7942 16.8178 37.2517 14.388 38.8762C12.7859 40.7208 15.5422 41.9126 16.9013 42.6717L30.9258 50.7637C32.4444 51.6518 33.6061 52.6159 35.3373 52.6159C36.728 52.5493 38.0722 52.0943 39.2174 51.3026C41.1916 50.1564 43.143 48.9798 45.1172 47.8336C48.7088 45.7384 52.4901 43.8027 55.9526 41.5406C55.7172 41.6848 56.0588 41.4571 56.2031 41.3508C56.2975 41.2939 56.3821 41.2221 56.4537 41.1383L56.4916 41.1003C56.6067 40.9681 56.7133 40.8287 56.8106 40.6828C56.9343 40.4481 57.0043 40.1888 57.0156 39.9237C56.9169 38.155 54.2821 37.3884 52.9533 36.6444L52.8166 36.5609L45.5197 32.3555L39.8476 29.0762C38.1923 28.1197 36.4839 27.1177 34.4945 27.558H34.5856C34.1978 27.6135 33.8146 27.6972 33.4391 27.8085L33.31 27.854C32.5328 28.1831 31.7858 28.5793 31.0776 29.0383L28.0935 30.769L21.928 34.3216Z" fill="#DADEF5"/>
</g>
<g style="mix-blend-mode:multiply" opacity="0.55">
<path d="M21.1232 34.3219C18.5796 35.7946 16.0131 37.252 13.5833 38.8765C11.9811 40.7211 14.7374 41.8598 16.1042 42.672L30.121 50.7336C31.6396 51.6142 32.7938 52.5934 34.5326 52.5934C35.9209 52.5204 37.2616 52.0631 38.4051 51.2726C40.3793 50.1263 42.3307 48.9422 44.3049 47.7959C47.8964 45.7084 51.6778 43.7727 55.1479 41.5106C54.9125 41.6548 55.2466 41.4195 55.3908 41.3132C55.4854 41.2563 55.5721 41.1874 55.649 41.1083V41.0703C55.7647 40.9386 55.8712 40.7991 55.9679 40.6528C56.0926 40.4184 56.1627 40.1589 56.1729 39.8937C56.0742 38.1174 53.4394 37.3659 52.1106 36.6144L51.9739 36.5385L44.6846 32.3331L39.0126 29.0537C37.3497 28.0973 35.6412 27.0953 33.6974 27.5355H33.7809C33.3956 27.5908 33.0149 27.6746 32.6419 27.786L32.5129 27.8316C31.7339 28.1619 30.9845 28.5581 30.2729 29.0158L27.2964 30.7465L21.1232 34.3219Z" fill="#D8DCF4"/>
</g>
<g style="mix-blend-mode:multiply" opacity="0.58">
<path d="M20.3182 34.3222C17.7746 35.7948 15.2005 37.2523 12.7783 38.8768C11.1761 40.7214 13.94 41.8525 15.2992 42.6723L29.316 50.7643C30.8347 51.6449 31.9888 52.6317 33.7276 52.6317C35.1156 52.5567 36.4547 52.0938 37.5925 51.2957C39.5667 50.1494 41.5181 48.9652 43.4923 47.819C47.0839 45.7315 50.8652 43.7958 54.3353 41.5336C54.1075 41.6779 54.434 41.4501 54.5783 41.3363C54.6742 41.2814 54.7612 41.2123 54.8364 41.1313H54.8744C54.9731 41.0174 55.1781 40.7366 55.1933 40.7138C55.317 40.4791 55.387 40.2198 55.3983 39.9547C55.2996 38.1784 52.6648 37.4345 51.3436 36.6906L51.1993 36.6146C48.7797 35.2078 46.3498 33.806 43.9099 32.4092L38.2455 29.1299C36.5826 28.1735 34.8742 27.1714 32.8924 27.6117H32.9759C32.5906 27.667 32.2099 27.7507 31.8369 27.8622L31.7079 27.9078C30.9159 28.2362 30.1537 28.6324 29.43 29.092L26.4534 30.8227L20.3182 34.3222Z" fill="#D5DAF3"/>
</g>
<g style="mix-blend-mode:multiply" opacity="0.61">
<path d="M19.4907 34.3221C16.9546 35.7948 14.3806 37.2522 11.9508 38.8767C10.3563 40.7213 13.1201 41.8448 14.4869 42.6267L28.5037 50.7187C30.0223 51.6068 31.1688 52.6012 32.9076 52.6012C34.2934 52.5211 35.6293 52.0557 36.7649 51.2577C38.7391 50.1114 40.6905 48.9196 42.6647 47.781C46.2562 45.6858 50.0376 43.7577 53.5076 41.4956C53.2798 41.6322 53.6063 41.4121 53.7582 41.2983C53.8505 41.2384 53.9347 41.167 54.0088 41.0857V41.0477C54.1151 40.9339 54.3125 40.653 54.3277 40.6378C54.4523 40.4035 54.5224 40.144 54.5327 39.8787C54.4416 38.0949 51.7992 37.3661 50.478 36.6222L50.3413 36.5387C47.9115 35.1318 45.4818 33.7325 43.052 32.3409L37.3875 29.0616C35.7247 28.1051 34.0162 27.1031 32.0724 27.5434H32.1559C31.7706 27.5987 31.3899 27.6824 31.017 27.7939H30.8803C30.1039 28.1244 29.357 28.5206 28.6479 28.978L25.6715 30.7088L19.4907 34.3221Z" fill="#D3D8F3"/>
</g>
<g style="mix-blend-mode:multiply" opacity="0.65">
<path d="M18.7316 34.3221C16.1955 35.7948 13.6215 37.2522 11.1917 38.8767C9.59716 40.7213 12.3686 41.8372 13.7277 42.6191L27.7445 50.7111C29.2631 51.5992 30.4097 52.6012 32.1485 52.6012C33.536 52.5178 34.8724 52.047 36.0057 51.2425C37.9799 50.0962 39.9238 48.912 41.8979 47.7658C45.4895 45.6783 49.2708 43.7426 52.7408 41.4804C52.5206 41.6171 52.8319 41.3969 52.9914 41.2831C53.0821 41.2209 53.1684 41.1524 53.2495 41.0781V41.0402C53.3558 40.9187 53.5533 40.6454 53.5684 40.6226C53.6979 40.3902 53.7683 40.1295 53.7735 39.8635C53.6824 38.0873 51.04 37.3661 49.7188 36.6146L49.5821 36.5387C47.1624 35.1318 44.7352 33.7325 42.3004 32.3409L36.636 29.0616C34.9731 28.1051 33.2647 27.1031 31.2829 27.5434H31.3664C30.9811 27.5987 30.6004 27.6824 30.2274 27.7939H30.1211C29.344 28.1229 28.597 28.5191 27.8888 28.978L24.9047 30.7088L18.7316 34.3221Z" fill="#D1D6F2"/>
</g>
<g style="mix-blend-mode:multiply" opacity="0.68">
<path d="M17.896 34.3221C15.3599 35.7948 12.7858 37.2522 10.356 38.8767C8.76145 40.7213 11.5329 41.822 12.8921 42.6115L26.9166 50.7035C28.4352 51.5841 29.5741 52.6012 31.3053 52.6012C32.6931 52.5127 34.0288 52.0396 35.1626 51.2349C37.1368 50.0886 39.0807 48.8969 41.0549 47.7506C44.6464 45.6631 48.4353 43.735 51.8978 41.4728C51.6852 41.6019 51.9889 41.3893 52.1484 41.2679C52.2437 41.2122 52.3306 41.1432 52.4065 41.0629V41.025C52.518 40.8944 52.622 40.7576 52.7178 40.6151C52.8425 40.3807 52.9126 40.1212 52.9229 39.856C52.8242 38.0721 50.1817 37.3585 48.8605 36.6146L48.7239 36.5387C46.3042 35.1318 43.8795 33.7325 41.4497 32.3409L35.7777 29.0616C34.1224 28.1051 32.4139 27.1031 30.4625 27.5434H30.5536C30.1682 27.5978 29.7874 27.6815 29.4147 27.7939L29.278 27.8394C28.5008 28.1684 27.7538 28.5646 27.0456 29.0236L24.0464 30.7316L17.896 34.3221Z" fill="#CED4F1"/>
</g>
<g style="mix-blend-mode:multiply" opacity="0.71">
<path d="M17.0913 34.3221C14.5552 35.7948 11.9811 37.2522 9.55131 38.8767C7.94917 40.7213 10.7283 41.8144 12.095 42.6039L26.1118 50.6959C27.6304 51.5765 28.7693 52.6012 30.5006 52.6012C31.966 52.6012 33.0746 51.9636 34.3502 51.2197C36.3244 50.0734 38.2683 48.8817 40.2425 47.7354C43.834 45.6479 47.6229 43.7198 51.0853 41.4577C50.8727 41.5943 51.1765 41.3818 51.3435 41.2527C51.4367 41.1972 51.5212 41.1281 51.5941 41.0477L51.632 41.0098C51.7454 40.8807 51.8494 40.7437 51.9433 40.5999C52.0661 40.3648 52.1361 40.1057 52.1484 39.8408C52.0497 38.0569 49.4073 37.3585 48.0937 36.6146L47.9494 36.5311C45.5348 35.1344 43.105 33.73 40.6828 32.3409L35.0108 29.0616C33.3556 28.1051 31.6471 27.1031 29.6577 27.5434H29.7489C29.3634 27.5978 28.9826 27.6815 28.6099 27.7939L28.4732 27.8394C27.696 28.1684 26.9491 28.5646 26.2409 29.0236L23.2872 30.7316L17.0913 34.3221Z" fill="#CCD2F1"/>
</g>
<g style="mix-blend-mode:multiply" opacity="0.74">
<path d="M16.2865 34.3224C13.7504 35.795 11.1763 37.2525 8.74654 38.877C7.14441 40.7216 9.93109 41.8071 11.2902 42.589L25.307 50.681C26.8256 51.5691 27.9646 52.6015 29.6958 52.6015C31.1613 52.6015 32.2699 51.9487 33.5455 51.2124C35.5197 50.0661 37.4559 48.8667 39.4301 47.7281C43.0292 45.6254 46.8257 43.7352 50.2806 41.4579C50.068 41.587 50.3565 41.382 50.5312 41.253C50.623 41.1923 50.7094 41.1237 50.7893 41.048V41.01C50.8956 40.8886 51.0931 40.6153 51.1083 40.6001C51.2329 40.3658 51.303 40.1063 51.3132 39.841C51.2145 38.0495 48.5722 37.3664 47.2586 36.6148L47.1219 36.5389L39.8553 32.3487L34.1833 29.0694C32.528 28.1129 30.8196 27.1109 28.8681 27.5512H28.9593C28.5819 27.6056 28.2089 27.6868 27.8431 27.7941L27.714 27.8396C26.9369 28.1686 26.1899 28.5649 25.4817 29.0238L22.4976 30.7546L16.2865 34.3224Z" fill="#CAD0F0"/>
</g>
<g style="mix-blend-mode:multiply" opacity="0.77">
<path d="M15.4817 34.3221C12.938 35.7948 10.3716 37.2522 7.94178 38.8767C6.33964 40.7213 9.12633 41.7993 10.4931 42.5811L24.5099 50.6732C26.0285 51.5613 27.1523 52.6012 28.8911 52.6012C30.3565 52.6012 31.4575 51.9408 32.7332 51.2045C34.7074 50.0507 36.6436 48.8589 38.6178 47.7126C42.2169 45.6251 45.9982 43.697 49.4683 41.4349C49.2556 41.5639 49.5442 41.359 49.7188 41.2299C49.8136 41.1734 49.9004 41.1044 49.977 41.025L50.015 40.987C50.1213 40.8656 50.3187 40.5923 50.3263 40.5771C50.4491 40.342 50.519 40.0829 50.5313 39.818C50.4326 38.0341 47.7902 37.3585 46.4766 36.607L46.3399 36.5235C43.9177 35.1268 41.5031 33.73 39.0733 32.3409L33.4089 29.0616C31.7461 28.1051 30.0452 27.1031 28.0558 27.5434H28.1394C27.754 27.5987 27.3734 27.6824 27.0004 27.7939L26.8713 27.8394C26.0793 28.1678 25.3171 28.564 24.5934 29.0236L21.6169 30.7543L15.4817 34.3221Z" fill="#C7CEF0"/>
</g>
<g style="mix-blend-mode:multiply" opacity="0.81">
<path d="M14.6767 34.322C12.133 35.7947 9.55896 37.2522 7.13677 38.8767C5.53464 40.7213 8.32892 41.7916 9.68808 42.5735L23.7049 50.6655C25.2235 51.546 26.3473 52.6012 28.0861 52.6012C29.5515 52.6012 30.6449 51.9256 31.8826 51.1893C33.8568 50.043 35.8006 48.8436 37.7672 47.6974C41.3664 45.6099 45.1477 43.6893 48.6177 41.4272C48.4127 41.5487 48.6937 41.3513 48.8759 41.2147C48.9654 41.154 49.0493 41.0854 49.1265 41.0097C49.2328 40.8883 49.4302 40.615 49.4378 40.5998C49.5625 40.3654 49.6326 40.1059 49.6428 39.8407C49.5517 38.0492 46.9017 37.3812 45.5881 36.6373L45.4514 36.5538L38.1925 32.3636L32.528 29.0918C30.8651 28.1354 29.1567 27.1334 27.2129 27.5736H27.2964C26.9111 27.6289 26.5304 27.7127 26.1575 27.8241L26.0283 27.8697C25.2494 28.2 24.5 28.5962 23.7884 29.0539L20.8119 30.7846L14.6767 34.322Z" fill="#C5CCEF"/>
</g>
<g style="mix-blend-mode:multiply" opacity="0.84">
<path d="M13.8643 34.3221C11.3282 35.7948 8.75409 37.2522 6.32431 38.8767C4.72976 40.7213 7.52406 41.7765 8.88322 42.5659L22.9076 50.658C24.4262 51.5385 25.5424 52.6012 27.2812 52.6012C28.7467 52.6012 29.8325 51.9181 31.0778 51.1817C33.052 50.0279 34.9958 48.8285 36.9624 47.6823C40.5615 45.5948 44.3504 43.6742 47.8129 41.4121C47.6155 41.5412 47.8888 41.3438 48.0711 41.1996C48.1617 41.14 48.248 41.074 48.3292 41.0022V40.9643C48.4355 40.8428 48.633 40.5695 48.6406 40.5543C48.7601 40.318 48.8299 40.0596 48.8455 39.7952C48.7468 38.0038 46.0969 37.3509 44.7909 36.5994L44.6542 36.5235L37.3952 32.3333L31.7308 29.0616C30.0679 28.1051 28.3594 27.1031 26.3776 27.5434H26.4612C26.0758 27.5987 25.6952 27.6824 25.3222 27.7939L25.1855 27.8394C24.4091 28.17 23.6623 28.5661 22.9532 29.0236L19.9767 30.7543L13.8643 34.3221Z" fill="#C3CAEE"/>
</g>
<g style="mix-blend-mode:multiply" opacity="0.87">
<path d="M13.0595 34.3221C10.5234 35.7948 7.94933 37.2522 5.51955 38.8767C3.92501 40.7213 6.71926 41.7689 8.08601 42.5508L22.1028 50.6504C23.6214 51.5309 24.7376 52.6012 26.4764 52.6012C27.9419 52.6012 29.0277 51.9105 30.2729 51.1666C32.2471 50.0203 34.1834 48.8133 36.1576 47.6747C39.7491 45.5796 43.538 43.6666 47.0004 41.4045C46.803 41.526 47.0688 41.3362 47.2662 41.192L47.5167 40.987V40.9491C47.6306 40.8276 47.8205 40.5543 47.8281 40.5467C47.9528 40.3124 48.0229 40.0529 48.0331 39.7876C47.9344 37.9886 45.2844 37.3509 43.9784 36.5994L43.8417 36.5159L36.5904 32.3333L30.9259 29.0616C29.2631 28.1051 27.5546 27.1031 25.6108 27.5434H25.6943C25.309 27.5987 24.9283 27.6824 24.5553 27.7939L24.4187 27.8394C23.6415 28.1684 22.8945 28.5646 22.1863 29.0236L19.2022 30.7543L13.0595 34.3221Z" fill="#C0C8EE"/>
</g>
<g style="mix-blend-mode:multiply" opacity="0.9">
<path d="M12.2545 34.322C9.71838 35.7947 7.14434 37.2522 4.71455 38.8767C3.12001 40.7213 5.92186 41.7612 7.28102 42.5431L21.2979 50.6351C22.8165 51.5233 23.9327 52.6012 25.6715 52.6012C27.1369 52.6012 28.2151 51.8952 29.468 51.1589C31.4422 50.0051 33.3784 48.8057 35.3526 47.6595C38.9442 45.5719 42.7331 43.6514 46.1955 41.3893C46.0057 41.5107 46.2639 41.321 46.4613 41.1767L46.7195 40.9718C46.8258 40.8427 47.0232 40.577 47.0308 40.5619C47.1555 40.3275 47.2255 40.068 47.2358 39.8028C47.1371 38.0113 44.4871 37.3736 43.1811 36.6297L43.0444 36.5462L35.8006 32.3636L30.1286 29.0918C28.4733 28.1354 26.7649 27.1334 24.7755 27.5736H24.8666C24.4811 27.6281 24.1004 27.7118 23.7276 27.8241L23.591 27.8697C22.8138 28.1987 22.0668 28.5949 21.3586 29.0539L18.3745 30.7846L12.2545 34.322Z" fill="#BEC6ED"/>
</g>
<g style="mix-blend-mode:multiply" opacity="0.94">
<path d="M11.4496 34.322C8.91349 35.7947 6.33946 37.2521 3.90968 38.8766C2.30755 40.7212 5.11698 41.7536 6.47614 42.5355L20.5005 50.6275C22.0191 51.508 23.1277 52.6012 24.8589 52.6012C26.3244 52.6012 27.4026 51.8876 28.6554 51.1437C30.6296 49.9974 32.5659 48.7905 34.54 47.6442C38.1316 45.5567 41.9205 43.6438 45.3905 41.3816C45.2007 41.4955 45.4513 41.3133 45.6487 41.1615C45.8461 41.0097 45.8764 40.9869 45.9068 40.9641C46.0207 40.8427 46.2106 40.5694 46.2182 40.5618C46.3428 40.3275 46.4129 40.068 46.4231 39.8027C46.3244 38.0037 43.6745 37.3812 42.3685 36.6297L42.2318 36.5538L34.9956 32.3711L29.3616 29.0235C27.7063 28.067 25.9979 27.065 24.0465 27.5053H24.1376C23.7521 27.5597 23.3713 27.6435 22.9986 27.7558L22.8619 27.8013C22.0848 28.1303 21.3378 28.5266 20.6296 28.9855L17.6455 30.7163L11.4496 34.322Z" fill="#BCC4EC"/>
</g>
<g style="mix-blend-mode:multiply" opacity="0.97">
<path d="M10.6448 34.322C8.10868 35.7947 5.53464 37.2521 3.10486 38.8766C1.50272 40.7212 4.31976 41.7384 5.67891 42.5279L19.6957 50.6199C21.2143 51.5005 22.3229 52.6012 24.0541 52.6012C25.5196 52.6012 26.5978 51.8421 27.8507 51.1361C29.8249 49.9823 31.7611 48.7753 33.7353 47.629C37.3268 45.5415 41.1157 43.6286 44.5858 41.3665C44.3959 41.4803 44.6389 41.3057 44.8515 41.1463L45.1021 40.9489V40.911C45.216 40.7895 45.4058 40.5163 45.4134 40.5087C45.5381 40.2743 45.6082 40.0148 45.6184 39.7496C45.5197 37.9505 42.8697 37.3432 41.5713 36.5917L41.4347 36.5082L34.1985 32.3332L28.6024 29.0235C26.9471 28.067 25.2387 27.065 23.2493 27.5053H23.3404C22.9526 27.5607 22.5694 27.6445 22.1938 27.7558L22.0648 27.8013C21.2876 28.1303 20.5406 28.5266 19.8324 28.9855L16.8483 30.7163L10.6448 34.322Z" fill="#B9C2EC"/>
</g>
<g style="mix-blend-mode:multiply" opacity="0.5">
<path d="M44.8516 39.7041C44.7605 37.8974 42.1029 37.2977 40.8045 36.5538L33.4316 32.2952L27.7672 29.0235C26.1119 28.067 24.4035 27.065 22.4521 27.5053H22.5356C22.1503 27.5606 21.7696 27.6443 21.3966 27.7558L21.2676 27.8013C20.4904 28.1303 19.7434 28.5266 19.0352 28.9855L16.0511 30.7163L9.87796 34.3068C7.33429 35.7795 4.76779 37.237 2.33801 38.8614C0.735873 40.7061 3.55291 41.7157 4.91207 42.5051L18.9365 50.5972C20.4551 51.4777 21.5485 52.586 23.2873 52.586C24.7528 52.586 25.8234 51.8269 27.0838 51.1058C29.058 49.9595 30.9867 48.7526 32.9608 47.6063C36.5524 45.5112 40.3413 43.6058 43.8114 41.3437C43.5228 41.5183 44.2669 40.9869 44.3352 40.9186C44.4036 40.8503 44.6617 40.4935 44.6693 40.4859C44.7911 40.2434 44.8536 39.9754 44.8516 39.7041Z" fill="#B7C0EB"/>
</g>
</g>
<path d="M0.265259 39.9396C-0.57757 39.4006 0.857539 27.4751 0.857539 27.4751L21.2677 15.618C21.8724 15.3112 22.5409 15.1514 23.219 15.1514C23.8972 15.1514 24.5657 15.3112 25.1705 15.618L45.7172 27.4751C45.7172 27.4751 47.16 39.4234 46.0893 40.0382L25.3223 52.1839C24.7163 52.4907 24.0464 52.6505 23.3671 52.6505C22.6878 52.6505 22.018 52.4907 21.4119 52.1839L0.265259 39.9396Z" fill="#B7C0EB"/>
<path d="M46.522 13.5457C46.522 13.5457 46.522 13.6064 46.522 13.6368C46.5255 13.6594 46.5255 13.6825 46.522 13.7051V13.7886C46.5248 13.8113 46.5248 13.8343 46.522 13.8569C46.5248 13.8847 46.5248 13.9127 46.522 13.9404L46.4537 14.0619C46.4297 14.1024 46.3989 14.1383 46.3625 14.1682L46.2486 14.282L46.1575 14.3504L46.0816 14.4111L45.9829 14.4794L45.8766 14.5401L25.474 26.4049L25.4285 51.5918L45.8386 39.7347L45.9145 39.6891C45.9456 39.6638 45.9786 39.6409 46.0133 39.6208L46.0892 39.5601L46.1727 39.4917L46.2714 39.393L46.3246 39.3323V39.2792C46.3491 39.2519 46.3696 39.2212 46.3853 39.1881C46.3948 39.1589 46.4075 39.1309 46.4233 39.1046V39.0514V38.968C46.4188 38.9505 46.4188 38.9322 46.4233 38.9148C46.4267 38.8871 46.4267 38.8591 46.4233 38.8313C46.4265 38.8112 46.4265 38.7907 46.4233 38.7706L46.4689 13.5761C46.4689 13.5761 46.522 13.5229 46.522 13.5457Z" fill="#E4E7FB"/>
<path d="M0.872668 14.5859C0.647197 14.4869 0.452689 14.3288 0.309677 14.1284C0.166665 13.928 0.0804559 13.6926 0.060205 13.4473L0.0146484 38.6419C0.0364735 38.8868 0.123291 39.1214 0.266113 39.3215C0.408935 39.5217 0.602591 39.6802 0.827112 39.7805L21.3739 51.6377V26.4431L0.872668 14.5859Z" fill="#EFF1FE"/>
<path d="M45.7171 12.3314C46.7953 12.9463 46.7953 13.9635 45.7171 14.6087L25.3145 26.4735C24.7079 26.7785 24.0383 26.9374 23.3593 26.9374C22.6803 26.9374 22.0107 26.7785 21.4041 26.4735L0.90282 14.6163C-0.175395 13.9938 -0.182988 12.9766 0.90282 12.339L21.2674 0.466609C21.8722 0.159866 22.5407 0 23.2188 0C23.8969 0 24.5655 0.159866 25.1702 0.466609L45.7171 12.3314Z" fill="url(#paint0_linear_236_524)"/>
<path d="M25.0185 51.774L25.5196 51.5008V26.329L25.0641 26.5795H24.9805L24.768 26.663H24.6844L24.5477 26.7085H24.4339L24.282 26.7465H24.1757L23.8644 26.7844H23.7657H23.5835H22.9077H22.771H22.6495C22.599 26.7881 22.5482 26.7881 22.4977 26.7844H22.3914C22.3321 26.7738 22.2737 26.7585 22.2168 26.7389C22.184 26.7424 22.1509 26.7424 22.1181 26.7389L21.8219 26.6402L21.6853 26.5795H21.6169C21.5486 26.5795 21.1613 26.329 21.1006 26.291V51.5159C21.1613 51.5159 21.503 51.7437 21.5789 51.774H21.6397L21.7688 51.8272L22.0649 51.9259H22.1408L22.3079 51.9638H22.3534C22.3781 51.9719 22.4047 51.9719 22.4293 51.9638H22.566H22.6268H22.6951H22.8242H23.7884L24.0998 51.9183H24.1909L24.3428 51.8803C24.3781 51.8839 24.4137 51.8839 24.4491 51.8803L24.5933 51.8348H24.6464L24.8591 51.7513L25.0185 51.774Z" fill="url(#paint1_linear_236_524)"/>
<defs>
<linearGradient id="paint0_linear_236_524" x1="15.0943" y1="6.6806" x2="40.9079" y2="19.5909" gradientUnits="userSpaceOnUse">
<stop stop-color="#FBFCFF"/>
<stop offset="1" stop-color="#F2F5FE"/>
</linearGradient>
<linearGradient id="paint1_linear_236_524" x1="3161.9" y1="48327" x2="3181.26" y2="48327" gradientUnits="userSpaceOnUse">
<stop stop-color="#EFF1FE"/>
<stop offset="1" stop-color="#E4E7FB"/>
</linearGradient>
</defs>
</svg>
