<svg width="58" height="44" viewBox="0 0 58 44" fill="none" xmlns="http://www.w3.org/2000/svg">
<g style="mix-blend-mode:multiply" opacity="0.15">
<g style="mix-blend-mode:multiply" opacity="0.03">
<path d="M28.1847 28.4389C26.0834 29.6591 23.9506 30.8667 21.9374 32.2127C20.6099 33.7411 22.8433 34.8103 23.9758 35.4644L35.5897 42.1693C36.848 42.8989 37.8609 43.5844 39.2953 43.5844C40.4531 43.5793 41.5864 43.2503 42.5668 42.6347L47.4679 39.7855C50.45 38.0558 53.5705 36.4268 56.4457 34.5462C56.2066 34.6971 56.5778 34.4581 56.6281 34.4141C56.6785 34.37 56.7854 34.3009 56.842 34.238L56.8735 34.2002C56.9733 34.0868 57.0658 33.967 57.1503 33.8417C57.263 33.6399 57.3215 33.4124 57.3202 33.1813C57.2384 31.741 55.0679 30.9673 53.948 30.3572L53.8348 30.288L47.7321 26.7721L43.0324 24.055C41.6609 23.2625 40.2453 22.4322 38.6284 22.797H38.7039C38.3826 22.843 38.0651 22.9123 37.7539 23.0046L37.647 23.0423C37.003 23.3149 36.3841 23.6432 35.7973 24.0235L33.3248 25.4575L28.1847 28.4389Z" fill="#FDFDFE"/>
</g>
<g style="mix-blend-mode:multiply" opacity="0.06">
<path d="M27.5179 28.4387C25.4103 29.6589 23.2838 30.8665 21.2706 32.2125C19.9431 33.7409 22.1766 34.8039 23.309 35.4517L34.9229 42.1565C36.1812 42.8924 37.1941 43.5843 38.6285 43.5843C39.7844 43.5737 40.9148 43.2428 41.8937 42.6282L46.7947 39.7727C49.7768 38.043 52.8974 36.414 55.7725 34.5397C55.5397 34.6843 55.9047 34.4453 55.9613 34.4076C56.0179 34.3699 56.1123 34.2881 56.1752 34.2252V34.1938C56.2507 34.1057 56.4268 33.8604 56.452 33.8352C56.5598 33.6428 56.6181 33.4267 56.6219 33.2063C56.5464 31.7596 54.3695 30.9986 53.256 30.3822L53.1364 30.3193C51.1022 29.1452 49.0701 27.9732 47.0401 26.8034L42.3404 24.0862C40.9689 23.2937 39.5471 22.4635 37.9365 22.8283H38.0057C37.6865 22.8748 37.3712 22.9442 37.062 23.0358L36.955 23.0736C36.2988 23.3457 35.6673 23.674 35.0676 24.0548L32.6014 25.4888L27.5179 28.4387Z" fill="#FAFBFE"/>
</g>
<g style="mix-blend-mode:multiply" opacity="0.1">
<path d="M26.8448 28.439C24.7372 29.6592 22.6107 30.8668 20.5975 32.2128C19.27 33.7412 21.5097 34.7978 22.6422 35.4457L34.2499 42.1505C35.5081 42.8864 36.521 43.5845 37.9555 43.5845C39.111 43.5727 40.2401 43.2371 41.2145 42.6159L46.1154 39.7667C49.0976 38.0307 52.2181 36.408 55.0933 34.5274C54.8605 34.672 55.2191 34.4393 55.282 34.3953C55.345 34.3513 55.4393 34.2758 55.4959 34.2129H55.5274C55.6273 34.0994 55.7197 33.9797 55.8042 33.8544C55.9118 33.6619 55.9701 33.4458 55.9741 33.2254C55.8986 31.7851 53.7218 31.0303 52.6082 30.4139L52.4887 30.351C50.4628 29.177 48.4328 28.005 46.3986 26.8351L41.6989 24.1179C40.321 23.3254 38.9055 22.4952 37.2949 22.86H37.3641C37.0448 22.9058 36.7294 22.9752 36.4204 23.0676L36.282 23.0298C35.6257 23.3019 34.9942 23.6302 34.3945 24.011L31.9283 25.4451L26.8448 28.439Z" fill="#F8F9FD"/>
</g>
<g style="mix-blend-mode:multiply" opacity="0.13">
<path d="M26.178 28.4387C24.0767 29.6589 21.9439 30.8665 19.9306 32.2125C18.6094 33.7409 20.8492 34.785 21.9816 35.4391L33.5955 42.1439C34.8538 42.8735 35.8541 43.5843 37.2948 43.5843C38.4509 43.5702 39.58 43.2325 40.5538 42.6094C42.1832 41.6596 43.819 40.7225 45.4548 39.7538C48.4306 38.0179 51.5574 36.3951 54.4263 34.5208C54.1998 34.6655 54.5521 34.4328 54.615 34.3824C54.6779 34.3321 54.7786 34.2629 54.8289 34.2C54.8792 34.1372 54.8289 34.2 54.8289 34.1686C54.8289 34.1371 55.0869 33.8415 55.1057 33.8164C55.2166 33.6253 55.2752 33.4083 55.2756 33.1874C55.2001 31.7408 53.0233 30.9923 51.9097 30.3822L51.7965 30.313C49.7643 29.1431 47.7385 27.967 45.7001 26.8034L41.0068 24.0862C39.629 23.2937 38.2134 22.4635 36.6028 22.8283H36.672C36.3527 22.8741 36.0373 22.9435 35.7283 23.0358L35.615 23.0736C34.9723 23.3487 34.3536 23.6769 33.7654 24.0548L31.2992 25.4888L26.178 28.4387Z" fill="#F6F7FC"/>
</g>
<g style="mix-blend-mode:multiply" opacity="0.16">
<path d="M25.511 28.4391C23.4097 29.6593 21.2769 30.8669 19.2637 32.2129C17.9425 33.7413 20.1885 34.7791 21.3147 35.4332L32.9286 42.138C34.1868 42.8676 35.1872 43.5847 36.6279 43.5847C37.7821 43.5653 38.9082 43.2256 39.8806 42.6035L44.7816 39.7417C47.7574 38.012 50.8842 36.3893 53.7531 34.5086C53.5266 34.6533 53.8789 34.4269 53.9481 34.3703C54.0173 34.3137 54.1054 34.2508 54.162 34.1942V34.1627C54.2438 34.0747 54.42 33.8294 54.4388 33.8042C54.545 33.6108 54.6052 33.3956 54.615 33.1752C54.5332 31.7223 52.3564 30.9864 51.2428 30.37L51.1296 30.3071C49.1037 29.1373 47.0716 27.9611 45.0395 26.7975L40.3461 24.0803C38.9683 23.2878 37.5528 22.4576 35.9422 22.8224H36.0114C35.6921 22.8682 35.3767 22.9376 35.0677 23.03L34.9544 23.0677C34.3105 23.3403 33.6916 23.6686 33.1047 24.0489L30.6196 25.4641L25.511 28.4391Z" fill="#F3F5FC"/>
</g>
<g style="mix-blend-mode:multiply" opacity="0.19">
<path d="M24.8442 28.4387C22.7429 29.6589 20.6101 30.8665 18.5969 32.2125C17.2757 33.7409 19.5217 34.7724 20.6541 35.4202L32.2681 42.125C33.5264 42.8609 34.5204 43.5843 35.9611 43.5843C37.115 43.5633 38.2397 43.219 39.2075 42.5905L44.1085 39.7287C47.0843 37.999 50.2112 36.3763 53.0863 34.5019C52.8598 34.6403 53.1996 34.4139 53.2751 34.3636C53.3577 34.3175 53.4304 34.2555 53.489 34.1812V34.1497C53.5707 34.0617 53.7406 33.8227 53.7595 33.7975C53.8647 33.6041 53.9229 33.3886 53.9294 33.1685C53.8476 31.7156 51.6708 30.9923 50.5635 30.3759L50.4439 30.313C48.4181 29.1347 46.3902 27.9649 44.3602 26.8034L39.6668 24.0862C38.289 23.2937 36.8734 22.4635 35.225 22.8283H35.3005C34.9813 22.8741 34.6658 22.9435 34.3568 23.0358L34.2436 23.0736C33.5996 23.3462 32.9807 23.6745 32.3939 24.0548L29.9906 25.4637L24.8442 28.4387Z" fill="#F1F3FB"/>
</g>
<g style="mix-blend-mode:multiply" opacity="0.23">
<path d="M24.1771 28.4391C22.0757 29.6593 19.943 30.8669 17.9297 32.2129C16.6022 33.7413 18.8545 34.7665 19.987 35.4144L31.6009 42.1192C32.8592 42.8551 33.8532 43.5847 35.2877 43.5847C36.4416 43.5585 37.5655 43.2122 38.5341 42.5846C40.1698 41.6286 41.7993 40.6663 43.435 39.7228C46.4109 37.9868 49.5377 36.3704 52.4129 34.4898C52.1927 34.6281 52.5261 34.408 52.6016 34.3514C52.6858 34.3075 52.7589 34.2451 52.8155 34.169C52.8155 34.169 52.8155 34.169 52.847 34.1376C52.9438 34.0254 53.0342 33.9078 53.1175 33.7853C53.2221 33.5917 53.2802 33.3763 53.2874 33.1564C53.2056 31.7034 51.0351 30.9864 49.9215 30.37L49.8019 30.3008L43.7245 26.7975L39.0311 24.0803C37.6532 23.2878 36.2377 22.4576 34.5893 22.8224H34.6648C34.3456 22.8682 34.0301 22.9376 33.7211 23.03L33.6079 23.0677C32.9639 23.3403 32.345 23.6686 31.7582 24.0489L29.2857 25.4829L24.1771 28.4391Z" fill="#EFF1FA"/>
</g>
<g style="mix-blend-mode:multiply" opacity="0.26">
<path d="M23.5104 28.4391C21.409 29.6593 19.2763 30.8669 17.263 32.2129C15.9355 33.7413 18.1941 34.7288 19.3203 35.4081L30.9342 42.1129C32.1925 42.8425 33.1865 43.5847 34.6209 43.5847C35.7765 43.557 36.9011 43.2062 37.8673 42.572C39.5031 41.6223 41.1262 40.6851 42.762 39.7102C45.7378 37.9743 48.8647 36.3578 51.7398 34.4835C51.5196 34.6219 51.8531 34.4017 51.9349 34.3388C52.0173 34.2951 52.0901 34.2352 52.1488 34.1627V34.1313C52.2476 34.017 52.34 33.8973 52.4256 33.7727C52.5308 33.5793 52.589 33.3639 52.5955 33.1438C52.52 31.6909 50.3432 30.9801 49.2296 30.3637L49.1163 30.3008L43.0388 26.7975L38.3392 24.0803C36.9676 23.2878 35.5521 22.4576 33.9352 22.8224H34.0107C33.6894 22.8684 33.3719 22.9377 33.0607 23.03L32.9537 23.0677C32.3098 23.3403 31.6909 23.6686 31.1041 24.0489L28.6316 25.4829L23.5104 28.4391Z" fill="#ECEFFA"/>
</g>
<g style="mix-blend-mode:multiply" opacity="0.29">
<path d="M22.8435 28.4391C20.7422 29.6593 18.6094 30.8669 16.5962 32.2129C15.2687 33.7413 17.5273 34.7288 18.6597 35.4018L30.2737 42.1066C31.5319 42.8362 32.5197 43.5847 33.9541 43.5847C35.1077 43.5517 36.2295 43.1989 37.1942 42.5657C38.83 41.6097 40.4531 40.6474 42.0889 39.6976C45.0647 37.968 48.1915 36.3515 51.0667 34.4709C50.8528 34.6093 51.1736 34.3891 51.2617 34.3262C51.3452 34.2842 51.4183 34.224 51.4757 34.1501L51.5071 34.1187C51.5889 34.0306 51.7588 33.7916 51.7776 33.7665C51.8864 33.5745 51.9448 33.3581 51.9475 33.1375C51.872 31.6783 49.6952 30.9801 48.5816 30.3637L48.4683 30.3008L42.3971 26.7975L37.6975 24.0803C36.326 23.2878 34.9104 22.4576 33.2935 22.8224H33.369C33.0477 22.8684 32.7302 22.9377 32.419 23.03L32.3121 23.0677C31.6681 23.3403 31.0492 23.6686 30.4624 24.0489L27.9899 25.4829L22.8435 28.4391Z" fill="#EAEDF9"/>
</g>
<g style="mix-blend-mode:multiply" opacity="0.32">
<path d="M22.1764 28.4389C20.0687 29.6591 17.9422 30.8667 15.929 32.2127C14.6015 33.7411 16.8664 34.7286 17.9926 35.389L29.6065 42.1001C30.8648 42.8297 31.8462 43.5845 33.2869 43.5845C34.4402 43.5499 35.5606 43.1925 36.5207 42.553C38.1565 41.6032 39.7796 40.6661 41.4154 39.6849C44.3912 37.9552 47.5244 36.3387 50.3932 34.4644C50.1856 34.5965 50.5002 34.3827 50.5883 34.3198C50.6718 34.275 50.7448 34.2128 50.8022 34.1374C50.899 34.0252 50.9893 33.9076 51.0727 33.7851C51.1795 33.592 51.2398 33.3767 51.2489 33.1562C51.1671 31.697 48.9903 31.0114 47.883 30.395L47.7634 30.3258C45.746 29.1559 43.7243 27.9902 41.6985 26.8287L36.9989 24.1116C35.6211 23.3191 34.2055 22.4889 32.5634 22.8537H32.6326C32.3134 22.8995 31.998 22.9688 31.6889 23.0612L31.582 23.0989C30.9258 23.371 30.2943 23.6993 29.6946 24.0802L27.2283 25.5142L22.1764 28.4389Z" fill="#E8EBF9"/>
</g>
<g style="mix-blend-mode:multiply" opacity="0.35">
<path d="M21.5097 28.4389C19.4021 29.6591 17.2693 30.8667 15.256 32.2127C13.9348 33.7411 16.1997 34.7286 17.3322 35.3575L28.9461 42.0624C30.2044 42.7983 31.1795 43.5593 32.6203 43.5593C33.7716 43.5194 34.8891 43.16 35.8478 42.5215C37.4835 41.5655 39.1067 40.5969 40.7425 39.6534C43.7183 37.9174 46.8514 36.3073 49.7203 34.433C49.5127 34.5588 49.8273 34.3512 49.9216 34.282C50.0024 34.2359 50.0748 34.1763 50.1356 34.1059V34.0744C50.2329 33.9627 50.3232 33.8451 50.4061 33.7222C50.5094 33.528 50.5674 33.313 50.5759 33.0933C50.4941 31.634 48.3173 30.9485 47.21 30.3321L47.0905 30.2692C45.0689 29.0993 43.0472 27.9336 41.0256 26.7721L36.3322 24.055C34.9544 23.2625 33.5388 22.4322 31.9282 22.797H31.9974C31.6782 22.8428 31.3627 22.9122 31.0537 23.0046L30.9468 23.0423C30.3013 23.316 29.6804 23.6443 29.0908 24.0235L26.6246 25.4575L21.5097 28.4389Z" fill="#E5E9F8"/>
</g>
<g style="mix-blend-mode:multiply" opacity="0.39">
<path d="M20.8366 28.4389C18.7353 29.6591 16.6025 30.8667 14.5893 32.2127C13.2681 33.7411 15.533 34.7286 16.6654 35.3576L28.2793 42.0624C29.5376 42.792 30.5128 43.5656 31.9535 43.5656C33.1064 43.5243 34.2246 43.1604 35.181 42.5152C36.8167 41.5655 38.4336 40.5969 40.0694 39.6472C43.0515 37.9112 46.1783 36.301 49.0535 34.4267C48.8459 34.5525 49.1541 34.3512 49.2485 34.2758C49.329 34.2292 49.4013 34.1697 49.4624 34.0996V34.0682C49.5577 33.9563 49.6459 33.8387 49.7267 33.716C49.8292 33.5215 49.8872 33.3066 49.8965 33.087C49.8148 31.6278 47.6379 30.9548 46.5306 30.3384L46.4174 30.2755C44.4 29.1056 42.3783 27.9399 40.3525 26.7784L35.6591 24.0613C34.2813 23.2688 32.8658 22.4386 31.2237 22.8034H31.2929C30.9736 22.8492 30.6582 22.9185 30.3492 23.0109L30.236 23.0487C29.5926 23.3226 28.9738 23.6508 28.3863 24.0298L25.9201 25.4639L20.8366 28.4389Z" fill="#E3E7F7"/>
</g>
<g style="mix-blend-mode:multiply" opacity="0.42">
<path d="M20.1694 28.4388C18.0681 29.659 15.9353 30.8667 13.9221 32.2127C12.6009 33.7411 14.8721 34.7285 15.9982 35.3575L27.6121 42.0623C28.8704 42.7919 29.8456 43.5719 31.2863 43.5719C32.4373 43.5251 33.5526 43.1593 34.5075 42.5152C36.1433 41.5592 37.7602 40.5905 39.396 39.6408C42.3781 37.9111 45.5049 36.301 48.3801 34.4266C48.1787 34.5524 48.4744 34.3449 48.5751 34.2694C48.6579 34.2263 48.7308 34.1663 48.789 34.0933V34.0618C48.8771 33.9738 49.0407 33.7348 49.0595 33.7159C49.1654 33.5227 49.2237 33.3071 49.2294 33.0869C49.1476 31.6214 46.9708 30.961 45.8635 30.3446L45.7503 30.2754L39.6916 26.7846L35.0234 24.0486C33.6456 23.2561 32.23 22.4259 30.6194 22.7907H30.6886C30.3694 22.8365 30.0539 22.9059 29.7449 22.9982L29.6317 23.036C28.9877 23.3086 28.3688 23.6369 27.782 24.0172L25.3095 25.4512L20.1694 28.4388Z" fill="#E1E5F7"/>
</g>
<g style="mix-blend-mode:multiply" opacity="0.45">
<path d="M19.5027 28.4389C17.4013 29.6591 15.2686 30.8667 13.2553 32.2127C11.9278 33.7411 14.2053 34.7286 15.3378 35.3576L26.9517 42.0686C28.2099 42.7982 29.1788 43.5845 30.6132 43.5845C31.7659 43.5363 32.8819 43.1659 33.8344 42.5152C35.4702 41.5655 37.0934 40.5906 38.7229 39.6408C41.705 37.9112 44.8318 36.301 47.7069 34.4267C47.5056 34.5525 47.8013 34.3512 47.9083 34.2757C47.9872 34.2269 48.0591 34.1677 48.1222 34.0996C48.2195 33.9879 48.3099 33.8703 48.3927 33.7474C48.4979 33.554 48.5561 33.3385 48.5626 33.1184C48.4871 31.6529 46.304 30.9988 45.203 30.3824L45.0834 30.3195C43.0702 29.1559 41.0507 27.986 39.0311 26.8287L34.3315 24.1116C32.96 23.3191 31.5444 22.4889 29.896 22.8537H29.9715C29.6523 22.8995 29.3368 22.9688 29.0278 23.0612L28.9146 23.0989C28.2706 23.3716 27.6517 23.6999 27.0649 24.0802L24.5924 25.5142L19.5027 28.4389Z" fill="#DEE3F6"/>
</g>
<g style="mix-blend-mode:multiply" opacity="0.48">
<path d="M18.8357 28.4388C16.7344 29.659 14.6016 30.8666 12.5884 32.2126C11.2609 33.741 13.5447 34.7285 14.6708 35.3574L26.2847 42.0622C27.543 42.7981 28.5119 43.5906 29.9463 43.5906C31.0873 43.5373 32.1913 43.1694 33.1361 42.5277C34.7719 41.5779 36.395 40.5967 38.0245 39.6533C41.0066 37.9173 44.1397 36.3135 47.0086 34.4391C46.8136 34.5586 47.103 34.3637 47.2099 34.2819C47.29 34.2348 47.3622 34.1753 47.4239 34.1058V34.0743C47.5057 33.98 47.6755 33.7473 47.6881 33.7284C47.7957 33.5356 47.8561 33.3201 47.8642 33.0994C47.7825 31.6276 45.5993 30.9861 44.4984 30.3697L44.3851 30.3068C42.3635 29.1369 40.346 27.9733 38.3328 26.816L33.6331 24.0989C32.2616 23.3064 30.846 22.4762 29.2291 22.841H29.3046C28.9833 22.8869 28.6658 22.9563 28.3546 23.0485L28.2477 23.0863C27.6037 23.3589 26.9848 23.6872 26.398 24.0674L23.9255 25.5015L18.8357 28.4388Z" fill="#DCE1F5"/>
</g>
<g style="mix-blend-mode:multiply" opacity="0.52">
<path d="M18.1688 28.4387C16.0674 29.6589 13.9346 30.8665 11.9214 32.2125C10.5939 33.7409 12.8777 34.7284 14.0038 35.3574L25.6241 42.0622C26.8824 42.7981 27.8449 43.5969 29.2794 43.5969C30.4317 43.5417 31.5454 43.1647 32.4943 42.5087C34.13 41.559 35.747 40.5841 37.3827 39.6344C40.3586 37.8984 43.4917 36.2945 46.3606 34.4202C46.1655 34.5397 46.4486 34.351 46.5682 34.263C46.6464 34.2158 46.7165 34.1563 46.7758 34.0868L46.8072 34.0554C46.9026 33.9458 46.9909 33.8303 47.0715 33.7095C47.174 33.515 47.232 33.3002 47.2414 33.0805C47.1596 31.615 44.9765 30.9798 43.8755 30.3634L43.7622 30.2942L37.7162 26.8097L33.0165 24.0926C31.645 23.3001 30.2294 22.4698 28.581 22.8346H28.6565C28.3352 22.8806 28.0177 22.9499 27.7065 23.0422L27.5996 23.0799C26.9556 23.3525 26.3367 23.6808 25.7499 24.0611L23.2774 25.4952L18.1688 28.4387Z" fill="#DADEF5"/>
</g>
<g style="mix-blend-mode:multiply" opacity="0.55">
<path d="M17.502 28.439C15.3944 29.6592 13.2678 30.8669 11.2546 32.2128C9.9271 33.7412 12.2109 34.6847 13.3433 35.3577L24.9573 42.0373C26.2156 42.7669 27.1719 43.5783 28.6126 43.5783C29.7629 43.5178 30.8738 43.1389 31.8212 42.4839C33.457 41.5342 35.0739 40.553 36.7096 39.6032C39.6855 37.8736 42.8186 36.2697 45.6938 34.3954C45.4988 34.5149 45.7756 34.3199 45.8951 34.2318C45.9735 34.1847 46.0454 34.1276 46.109 34.062V34.0306C46.2049 33.9214 46.2932 33.8058 46.3732 33.6846C46.4766 33.4905 46.5346 33.2754 46.5431 33.0557C46.4613 31.5839 44.2782 30.9612 43.1772 30.3385L43.064 30.2756L37.0242 26.7911L32.3246 24.074C30.9467 23.2815 29.5312 22.4513 27.9206 22.8161H27.9898C27.6705 22.8619 27.3551 22.9312 27.046 23.0236L26.9391 23.0613C26.2937 23.3351 25.6728 23.6633 25.0831 24.0425L22.6169 25.4766L17.502 28.439Z" fill="#D8DCF4"/>
</g>
<g style="mix-blend-mode:multiply" opacity="0.58">
<path d="M16.8351 28.4386C14.7274 29.6588 12.5946 30.8665 10.5876 32.2125C9.26016 33.7409 11.5502 34.678 12.6764 35.3573L24.2904 42.0621C25.5487 42.7917 26.505 43.6094 27.9457 43.6094C29.0957 43.5473 30.2053 43.1637 31.148 42.5024C32.7838 41.5527 34.4007 40.5715 36.0364 39.6217C39.0123 37.8921 42.1454 36.2882 45.0206 34.4139C44.8319 34.5334 45.1024 34.3447 45.2219 34.2503C45.3014 34.2048 45.3735 34.1476 45.4358 34.0805H45.4673C45.5491 33.9862 45.719 33.7534 45.7315 33.7346C45.8341 33.5401 45.892 33.3252 45.9014 33.1056C45.8196 31.6338 43.6365 31.0174 42.5418 30.401L42.4222 30.3381C40.4174 29.1724 38.4041 28.0109 36.3825 26.8536L31.6891 24.1365C30.3113 23.344 28.8957 22.5138 27.2536 22.8786H27.3228C27.0036 22.9244 26.6881 22.9937 26.3791 23.0861L26.2722 23.1238C25.6159 23.3959 24.9845 23.7242 24.3848 24.105L21.9185 25.5391L16.8351 28.4386Z" fill="#D5DAF3"/>
</g>
<g style="mix-blend-mode:multiply" opacity="0.61">
<path d="M16.1493 28.4391C14.048 29.6593 11.9152 30.8669 9.90199 32.2129C8.58079 33.7413 10.8708 34.6722 12.0033 35.32L23.6172 42.0248C24.8755 42.7607 25.8255 43.5847 27.2662 43.5847C28.4144 43.5182 29.5213 43.1327 30.4622 42.4714C32.098 41.5216 33.7149 40.5342 35.3507 39.5907C38.3265 37.8547 41.4596 36.2572 44.3347 34.3828C44.146 34.4961 44.4165 34.3137 44.5424 34.2193C44.6188 34.1698 44.6886 34.1106 44.75 34.0432V34.0118C44.8381 33.9174 45.0016 33.6847 45.0142 33.6721C45.1175 33.4779 45.1756 33.2629 45.1841 33.0432C45.1086 31.5651 42.9192 30.9613 41.8245 30.3449L41.7113 30.2757C39.698 29.11 37.6848 27.9506 35.6715 26.7975L30.9781 24.0803C29.6003 23.2878 28.1848 22.4576 26.5742 22.8224H26.6434C26.3241 22.8682 26.0087 22.9376 25.6997 23.03H25.5864C24.9431 23.3039 24.3243 23.6321 23.7367 24.0111L21.2705 25.4452L16.1493 28.4391Z" fill="#D3D8F3"/>
</g>
<g style="mix-blend-mode:multiply" opacity="0.65">
<path d="M15.5202 28.4391C13.4189 29.6593 11.2861 30.8669 9.27289 32.2129C7.95171 33.7413 10.248 34.6659 11.3742 35.3137L22.9881 42.0185C24.2464 42.7544 25.1964 43.5847 26.6371 43.5847C27.7868 43.5155 28.894 43.1255 29.8331 42.4588C31.4689 41.5091 33.0795 40.5279 34.7152 39.5781C37.691 37.8485 40.8241 36.2446 43.6993 34.3703C43.5168 34.4835 43.7748 34.3011 43.9069 34.2067C43.9821 34.1552 44.0536 34.0985 44.1208 34.0369V34.0055C44.2089 33.9048 44.3725 33.6784 44.3851 33.6595C44.4923 33.4669 44.5507 33.251 44.5549 33.0306C44.4794 31.5588 42.29 30.9613 41.1953 30.3386L41.0821 30.2757C39.0772 29.11 37.0661 27.9506 35.0486 26.7975L30.3553 24.0803C28.9775 23.2878 27.5619 22.4576 25.9199 22.8224H25.9891C25.6698 22.8682 25.3544 22.9376 25.0454 23.03H24.9573C24.3133 23.3026 23.6944 23.6309 23.1076 24.0111L20.6351 25.4452L15.5202 28.4391Z" fill="#D1D6F2"/>
</g>
<g style="mix-blend-mode:multiply" opacity="0.68">
<path d="M14.8282 28.4391C12.7268 29.6593 10.594 30.8669 8.58075 32.2129C7.25956 33.7413 9.55594 34.6533 10.6821 35.3074L22.3024 42.0122C23.5606 42.7418 24.5043 43.5847 25.9388 43.5847C27.0886 43.5113 28.1953 43.1193 29.1348 42.4525C30.7706 41.5028 32.3812 40.5153 34.017 39.5656C36.9928 37.8359 40.1322 36.2383 43.0011 34.364C42.8249 34.4709 43.0766 34.2948 43.2087 34.1942C43.2877 34.148 43.3597 34.0908 43.4226 34.0243V33.9929C43.515 33.8847 43.6012 33.7713 43.6806 33.6533C43.7839 33.4591 43.842 33.2441 43.8505 33.0243C43.7687 31.5462 41.5792 30.955 40.4845 30.3386L40.3713 30.2757C38.3664 29.11 36.3573 27.9506 34.3441 26.7975L29.6444 24.0803C28.2729 23.2878 26.8573 22.4576 25.2404 22.8224H25.3159C24.9965 22.8675 24.6811 22.9369 24.3722 23.03L24.259 23.0677C23.615 23.3403 22.9961 23.6686 22.4093 24.0489L19.9242 25.4641L14.8282 28.4391Z" fill="#CED4F1"/>
</g>
<g style="mix-blend-mode:multiply" opacity="0.71">
<path d="M14.1614 28.4391C12.06 29.6593 9.92723 30.8669 7.91399 32.2129C6.58651 33.7413 8.88918 34.647 10.0216 35.3011L21.6355 42.006C22.8938 42.7356 23.8375 43.5847 25.2719 43.5847C26.4862 43.5847 27.4047 43.0563 28.4617 42.4399C30.0974 41.4902 31.708 40.5027 33.3438 39.553C36.3196 37.8233 39.459 36.2257 42.3279 34.3514C42.1517 34.4646 42.4034 34.2885 42.5418 34.1816C42.6191 34.1356 42.689 34.0783 42.7494 34.0118L42.7809 33.9803C42.8748 33.8734 42.961 33.7599 43.0388 33.6407C43.1406 33.4459 43.1985 33.2312 43.2087 33.0117C43.1269 31.5336 40.9375 30.955 39.8491 30.3386L39.7295 30.2694C37.7289 29.1121 35.7156 27.9485 33.7087 26.7975L29.009 24.0803C27.6375 23.2878 26.222 22.4576 24.5736 22.8224H24.6491C24.3297 22.8675 24.0142 22.9369 23.7054 23.03L23.5922 23.0677C22.9482 23.3403 22.3293 23.6686 21.7425 24.0489L19.2951 25.4641L14.1614 28.4391Z" fill="#CCD2F1"/>
</g>
<g style="mix-blend-mode:multiply" opacity="0.74">
<path d="M13.4944 28.4387C11.3931 29.6589 9.2603 30.8665 7.24706 32.2125C5.91957 33.7409 8.22854 34.6403 9.3547 35.2882L20.9686 41.993C22.2269 42.7289 23.1706 43.5843 24.605 43.5843C25.8193 43.5843 26.7378 43.0434 27.7948 42.4333C29.4305 41.4835 31.0348 40.4897 32.6706 39.5463C35.6527 37.804 38.7984 36.2379 41.661 34.351C41.4848 34.4579 41.7239 34.2881 41.8686 34.1812C41.9447 34.1309 42.0163 34.0741 42.0825 34.0113V33.9799C42.1706 33.8793 42.3342 33.6528 42.3468 33.6403C42.4501 33.4461 42.5081 33.2311 42.5166 33.0113C42.4348 31.5269 40.2454 30.9608 39.157 30.3382L39.0438 30.2753L33.0229 26.8034L28.3232 24.0862C26.9517 23.2937 25.5361 22.4635 23.9192 22.8283H23.9947C23.6821 22.8734 23.373 22.9406 23.0699 23.0295L22.963 23.0673C22.319 23.3399 21.7001 23.6682 21.1133 24.0485L18.6408 25.4825L13.4944 28.4387Z" fill="#CAD0F0"/>
</g>
<g style="mix-blend-mode:multiply" opacity="0.77">
<path d="M12.8276 28.4391C10.72 29.6593 8.5935 30.8669 6.58025 32.2129C5.25276 33.7413 7.56174 34.6344 8.69419 35.2823L20.3081 41.9871C21.5664 42.723 22.4975 43.5847 23.9382 43.5847C25.1525 43.5847 26.0647 43.0375 27.1217 42.4274C28.7574 41.4713 30.3617 40.4838 31.9975 39.5341C34.9796 37.8044 38.1127 36.2069 40.9879 34.3325C40.8117 34.4395 41.0508 34.2696 41.1955 34.1627C41.274 34.1158 41.346 34.0587 41.4094 33.9929L41.4409 33.9614C41.529 33.8608 41.6925 33.6344 41.6988 33.6218C41.8006 33.427 41.8586 33.2123 41.8687 32.9928C41.7869 31.5147 39.5975 30.955 38.5091 30.3323L38.3958 30.2631C36.3889 29.1058 34.3882 27.9485 32.375 26.7975L27.6816 24.0803C26.3038 23.2878 24.8945 22.4576 23.2462 22.8224H23.3154C22.9961 22.8682 22.6807 22.9376 22.3717 23.03L22.2647 23.0677C21.6085 23.3398 20.977 23.6681 20.3773 24.0489L17.9111 25.4829L12.8276 28.4391Z" fill="#C7CEF0"/>
</g>
<g style="mix-blend-mode:multiply" opacity="0.81">
<path d="M12.1607 28.4389C10.0531 29.6591 7.92028 30.8667 5.91332 32.2127C4.58583 33.7411 6.9011 34.6279 8.02726 35.2757L19.6412 41.9806C20.8994 42.7102 21.8306 43.5844 23.2713 43.5844C24.4856 43.5844 25.3915 43.0247 26.417 42.4146C28.0528 41.4648 29.6634 40.471 31.2929 39.5213C34.275 37.7916 37.4081 36.2003 40.2833 34.326C40.1134 34.4266 40.3462 34.2631 40.4972 34.1499C40.5713 34.0996 40.6408 34.0428 40.7048 33.9801C40.7929 33.8794 40.9564 33.653 40.9627 33.6404C41.0661 33.4462 41.1241 33.2312 41.1326 33.0115C41.0571 31.5271 38.8614 30.9736 37.773 30.3572L37.6598 30.288L31.6452 26.8161L26.9518 24.1052C25.574 23.3127 24.1584 22.4825 22.5478 22.8473H22.617C22.2978 22.8931 21.9823 22.9625 21.6733 23.0549L21.5663 23.0926C20.9209 23.3663 20.3 23.6946 19.7104 24.0738L17.2441 25.5079L12.1607 28.4389Z" fill="#C5CCEF"/>
</g>
<g style="mix-blend-mode:multiply" opacity="0.84">
<path d="M11.4876 28.4391C9.38626 29.6593 7.25344 30.8669 5.24019 32.2129C3.91899 33.7413 6.23427 34.6156 7.36043 35.2697L18.9806 41.9745C20.2389 42.7041 21.1638 43.5847 22.6045 43.5847C23.8187 43.5847 24.7184 43.0186 25.7502 42.4085C27.386 41.4525 28.9966 40.4587 30.626 39.509C33.6082 37.7793 36.7476 36.188 39.6164 34.3137C39.4529 34.4206 39.6794 34.2571 39.8304 34.1376C39.9055 34.0882 39.9769 34.0335 40.0443 33.974V33.9426C40.1323 33.8419 40.2959 33.6155 40.3022 33.6029C40.4013 33.4071 40.4591 33.193 40.4721 32.974C40.3903 31.4896 38.1946 30.9487 37.1125 30.326L36.9992 30.2631L30.9847 26.7912L26.2912 24.0803C24.9134 23.2878 23.4979 22.4576 21.8558 22.8224H21.925C21.6057 22.8682 21.2903 22.9376 20.9813 23.03L20.8681 23.0677C20.2247 23.3416 19.6059 23.6699 19.0184 24.0489L16.5522 25.4829L11.4876 28.4391Z" fill="#C3CAEE"/>
</g>
<g style="mix-blend-mode:multiply" opacity="0.87">
<path d="M10.8205 28.4391C8.7192 29.6593 6.58638 30.8669 4.57314 32.2129C3.25195 33.7413 5.56718 34.6093 6.69963 35.2571L18.3135 41.9682C19.5718 42.6978 20.4967 43.5847 21.9374 43.5847C23.1516 43.5847 24.0513 43.0123 25.0831 42.3959C26.7188 41.4462 28.3232 40.4461 29.9589 39.5027C32.9347 37.7667 36.0741 36.1817 38.943 34.3074C38.7794 34.408 38.9996 34.2508 39.1632 34.1313L39.3708 33.9614V33.93C39.4652 33.8293 39.6225 33.6029 39.6288 33.5966C39.7321 33.4025 39.7902 33.1874 39.7987 32.9677C39.7169 31.477 37.5212 30.9487 36.439 30.326L36.3258 30.2568L30.3175 26.7912L25.6241 24.0803C24.2463 23.2878 22.8308 22.4576 21.2202 22.8224H21.2894C20.9701 22.8682 20.6547 22.9376 20.3457 23.03L20.2324 23.0677C19.5885 23.3403 18.9696 23.6686 18.3827 24.0489L15.9102 25.4829L10.8205 28.4391Z" fill="#C0C8EE"/>
</g>
<g style="mix-blend-mode:multiply" opacity="0.9">
<path d="M10.1536 28.4389C8.05225 29.6591 5.91947 30.8667 3.90622 32.2127C2.58502 33.7411 4.90655 34.6027 6.03272 35.2506L17.6467 41.9554C18.9049 42.6913 19.8298 43.5844 21.2705 43.5844C22.4848 43.5844 23.3781 42.9995 24.4162 42.3894C26.052 41.4334 27.6563 40.4396 29.2921 39.4898C32.2679 37.7602 35.4073 36.1689 38.2762 34.2946C38.1189 34.3952 38.3328 34.238 38.4964 34.1184L38.7103 33.9486C38.7984 33.8417 38.962 33.6216 38.9682 33.609C39.0716 33.4148 39.1296 33.1998 39.1381 32.98C39.0563 31.4956 36.8606 30.9673 35.7785 30.3509L35.6653 30.2817L29.6632 26.8161L24.9636 24.1052C23.592 23.3127 22.1765 22.4825 20.5281 22.8473H20.6036C20.2842 22.8924 19.9688 22.9618 19.6599 23.0549L19.5467 23.0926C18.9027 23.3652 18.2838 23.6935 17.697 24.0738L15.2245 25.5079L10.1536 28.4389Z" fill="#BEC6ED"/>
</g>
<g style="mix-blend-mode:multiply" opacity="0.94">
<path d="M9.48684 28.4388C7.38552 29.659 5.25275 30.8666 3.23951 32.2126C1.91203 33.741 4.23984 34.5964 5.366 35.2443L16.9862 41.9491C18.2445 42.6787 19.163 43.5844 20.5974 43.5844C21.8117 43.5844 22.7051 42.9932 23.7431 42.3768C25.3789 41.427 26.9832 40.427 28.619 39.4772C31.5948 37.7476 34.7342 36.1626 37.6093 34.2882C37.452 34.3826 37.6597 34.2316 37.8232 34.1058C37.9868 33.98 38.012 33.9612 38.0371 33.9423C38.1315 33.8417 38.2888 33.6152 38.2951 33.609C38.3984 33.4148 38.4565 33.1998 38.4649 32.98C38.3832 31.4893 36.1875 30.9736 35.1054 30.3509L34.9921 30.288L28.9964 26.8224L24.3282 24.0486C22.9567 23.2561 21.5411 22.4259 19.9243 22.7907H19.9998C19.6804 22.8358 19.3649 22.9052 19.056 22.9982L18.9428 23.036C18.2989 23.3086 17.6799 23.6369 17.0931 24.0172L14.6206 25.4512L9.48684 28.4388Z" fill="#BCC4EC"/>
</g>
<g style="mix-blend-mode:multiply" opacity="0.97">
<path d="M8.81987 28.4388C6.71855 29.659 4.58577 30.8666 2.57252 32.2126C1.24504 33.741 3.57916 34.5839 4.70532 35.238L16.3192 41.9428C17.5775 42.6724 18.4961 43.5844 19.9305 43.5844C21.1447 43.5844 22.0381 42.9554 23.0762 42.3705C24.712 41.4145 26.3163 40.4144 27.952 39.4647C30.9279 37.735 34.0672 36.15 36.9424 34.2757C36.7851 34.37 36.9865 34.2253 37.1626 34.0933L37.3702 33.9297V33.8983C37.4646 33.7976 37.6219 33.5712 37.6282 33.5649C37.7315 33.3707 37.7896 33.1557 37.798 32.936C37.7162 31.4453 35.5206 30.9421 34.4447 30.3194L34.3315 30.2503L28.3358 26.7909L23.699 24.0486C22.3275 23.2561 20.912 22.4259 19.2636 22.7907H19.3391C19.0178 22.8366 18.7003 22.906 18.3891 22.9982L18.2822 23.036C17.6382 23.3086 17.0193 23.6369 16.4325 24.0172L13.96 25.4512L8.81987 28.4388Z" fill="#B9C2EC"/>
</g>
<g style="mix-blend-mode:multiply" opacity="0.5">
<path d="M37.1628 32.8982C37.0873 31.4013 34.8853 30.9044 33.8095 30.288L27.7005 26.7595L23.0072 24.0486C21.6357 23.2561 20.2201 22.4259 18.6032 22.7907H18.6724C18.3531 22.8365 18.0377 22.9059 17.7287 22.9982L17.6218 23.036C16.9778 23.3086 16.3589 23.6369 15.7721 24.0172L13.2995 25.4512L8.18466 28.4262C6.07704 29.6464 3.95052 30.8541 1.93727 32.2001C0.609787 33.7285 2.9439 34.565 4.07006 35.2191L15.6903 41.924C16.9486 42.6536 17.8545 43.5719 19.2952 43.5719C20.5095 43.5719 21.3966 42.9429 22.4409 42.3454C24.0767 41.3956 25.6747 40.3956 27.3105 39.4458C30.2863 37.7099 33.4257 36.1311 36.3009 34.2568C36.0618 34.4015 36.6784 33.9612 36.735 33.9046C36.7916 33.848 37.0055 33.5524 37.0118 33.5461C37.1127 33.3451 37.1645 33.1231 37.1628 32.8982Z" fill="#B7C0EB"/>
</g>
</g>
<path d="M0.219786 33.093C-0.478558 32.6464 0.710532 22.7653 0.710532 22.7653L17.6218 12.9408C18.1228 12.6866 18.6768 12.5542 19.2386 12.5542C19.8005 12.5542 20.3545 12.6866 20.8555 12.9408L37.88 22.7653C37.88 22.7653 39.0754 32.6653 38.1883 33.1748L20.9813 43.2383C20.4792 43.4925 19.9242 43.6249 19.3613 43.6249C18.7984 43.6249 18.2435 43.4925 17.7413 43.2383L0.219786 33.093Z" fill="#B7C0EB"/>
<path d="M38.5468 11.2235C38.5468 11.2235 38.5468 11.2738 38.5468 11.2989C38.5498 11.3177 38.5498 11.3368 38.5468 11.3555V11.4247C38.5492 11.4435 38.5492 11.4625 38.5468 11.4813C38.5492 11.5043 38.5492 11.5275 38.5468 11.5505L38.4902 11.6511C38.4704 11.6847 38.4448 11.7145 38.4147 11.7392L38.3203 11.8336L38.2448 11.8902L38.1819 11.9405L38.1001 11.9971L38.0121 12.0474L21.1071 21.8782L21.0693 42.7473L37.9806 32.9229L38.0435 32.8851C38.0692 32.8641 38.0966 32.8452 38.1253 32.8285L38.1882 32.7782L38.2574 32.7216L38.3392 32.6398L38.3833 32.5895V32.5455C38.4036 32.5229 38.4205 32.4975 38.4336 32.47C38.4414 32.4458 38.452 32.4226 38.465 32.4008V32.3568V32.2876C38.4613 32.2732 38.4613 32.258 38.465 32.2436C38.4679 32.2206 38.4679 32.1974 38.465 32.1744C38.4677 32.1577 38.4677 32.1407 38.465 32.1241L38.5028 11.2486C38.5028 11.2486 38.5468 11.2046 38.5468 11.2235Z" fill="#E4E7FB"/>
<path d="M0.722894 12.0851C0.536074 12.003 0.374911 11.872 0.256415 11.706C0.137919 11.5399 0.0664891 11.3449 0.0497097 11.1416L0.0119629 32.0171C0.0300465 32.22 0.101981 32.4144 0.220319 32.5803C0.338657 32.7461 0.499116 32.8774 0.685147 32.9606L17.7097 42.7851V21.9096L0.722894 12.0851Z" fill="#EFF1FE"/>
<path d="M37.8801 10.2174C38.7735 10.7269 38.7735 11.5697 37.8801 12.1043L20.9751 21.9352C20.4725 22.1879 19.9177 22.3196 19.3551 22.3196C18.7925 22.3196 18.2377 22.1879 17.7351 21.9352L0.748323 12.1106C-0.145056 11.5949 -0.151347 10.7521 0.748323 10.2237L17.6219 0.386619C18.1229 0.132461 18.6768 0 19.2387 0C19.8006 0 20.3545 0.132461 20.8556 0.386619L37.8801 10.2174Z" fill="url(#paint0_linear_236_403)"/>
<path d="M20.7297 42.8987L21.1449 42.6723V21.8156L20.7674 22.0232H20.6982L20.5221 22.0924H20.4529L20.3396 22.1301H20.2453L20.1194 22.1616H20.0313L19.7734 22.193H19.6916H19.5406H18.9807H18.8675H18.7668C18.7249 22.1961 18.6829 22.1961 18.641 22.193H18.5529C18.5038 22.1842 18.4554 22.1715 18.4082 22.1553C18.381 22.1582 18.3536 22.1582 18.3264 22.1553L18.0811 22.0735L17.9678 22.0232H17.9112C17.8546 22.0232 17.5337 21.8156 17.4834 21.7842V42.6848C17.5337 42.6848 17.8168 42.8735 17.8797 42.8987H17.9301L18.037 42.9427L18.2824 43.0245H18.3453L18.4837 43.0559H18.5215C18.5419 43.0626 18.5639 43.0626 18.5844 43.0559H18.6976H18.7479H18.8045H18.9115H19.7105L19.9684 43.0182H20.0439L20.1698 42.9867C20.1991 42.9897 20.2286 42.9897 20.2579 42.9867L20.3774 42.949H20.4214L20.5976 42.8798L20.7297 42.8987Z" fill="url(#paint1_linear_236_403)"/>
<defs>
<linearGradient id="paint0_linear_236_403" x1="12.507" y1="5.53536" x2="33.8954" y2="16.2325" gradientUnits="userSpaceOnUse">
<stop stop-color="#FBFCFF"/>
<stop offset="1" stop-color="#F2F5FE"/>
</linearGradient>
<linearGradient id="paint1_linear_236_403" x1="2619.86" y1="40042.3" x2="2635.9" y2="40042.3" gradientUnits="userSpaceOnUse">
<stop stop-color="#EFF1FE"/>
<stop offset="1" stop-color="#E4E7FB"/>
</linearGradient>
</defs>
</svg>
