<svg width="72" height="58" viewBox="0 0 72 58" fill="none" xmlns="http://www.w3.org/2000/svg">
<g style="mix-blend-mode:multiply" opacity="0.3">
<g style="mix-blend-mode:multiply" opacity="0.03">
<path d="M41.1122 30.6257C47.4295 30.549 53.7346 31.2013 59.9023 32.5697C69.0457 34.8239 70.4317 38.2431 70.4317 40.0837C70.4317 41.9242 69.0526 45.3435 59.9023 47.5977C47.5121 50.1901 34.7193 50.1901 22.3291 47.5977C13.1857 45.3435 11.8066 41.9242 11.8066 40.0837C11.8066 38.2431 13.1857 34.8239 22.3291 32.5697C28.4946 31.2024 34.7973 30.5501 41.1122 30.6257Z" fill="#FDFDFE"/>
</g>
<g style="mix-blend-mode:multiply" opacity="0.06">
<path d="M40.6924 31.1908C46.8312 31.1167 52.958 31.7505 58.9516 33.0797C67.826 35.258 69.1913 38.5945 69.1913 40.3662C69.1913 42.1378 67.8122 45.4743 58.9516 47.6526C46.9003 50.175 34.457 50.175 22.4057 47.6526C13.5244 45.4743 12.166 42.1378 12.166 40.3662C12.166 38.5945 13.5451 35.258 22.4057 33.0797C28.4081 31.7477 34.5444 31.1139 40.6924 31.1908Z" fill="#FAFBFE"/>
</g>
<g style="mix-blend-mode:multiply" opacity="0.1">
<path d="M40.2713 31.7566C46.2334 31.6851 52.184 32.298 58.0063 33.5833C66.6188 35.6997 67.9565 38.9052 67.9565 40.6492C67.9565 42.3933 66.6188 45.5988 58.0063 47.7152C46.3085 50.1509 34.234 50.1509 22.5361 47.7152C13.9237 45.5988 12.5791 42.3864 12.5791 40.6492C12.5791 38.9121 13.9582 35.6997 22.5361 33.5833C28.3584 32.298 34.3091 31.6851 40.2713 31.7566Z" fill="#F8F9FD"/>
</g>
<g style="mix-blend-mode:multiply" opacity="0.13">
<path d="M39.8507 32.3493C45.6462 32.2791 51.4304 32.8759 57.0894 34.1278C65.4329 36.1959 66.743 39.2773 66.743 40.9662C66.743 42.6552 65.4191 45.7917 57.0894 47.8046C45.737 50.1669 34.0197 50.1669 22.6673 47.8046C14.3238 45.7366 13.0137 42.6552 13.0137 40.9662C13.0137 39.2773 14.3376 36.1408 22.6673 34.1278C28.3083 32.8801 34.0737 32.2834 39.8507 32.3493Z" fill="#F6F7FC"/>
</g>
<g style="mix-blend-mode:multiply" opacity="0.16">
<path d="M39.4299 32.8799C45.0395 32.8151 50.6381 33.3909 56.1169 34.5964C64.1983 36.568 65.4946 39.5735 65.4946 41.2142C65.4946 42.8549 64.1983 45.8536 56.1169 47.8251C45.1124 50.1139 33.7544 50.1139 22.7499 47.8251C14.6685 45.8536 13.3652 42.8549 13.3652 41.2142C13.3652 39.5735 14.6685 36.568 22.7499 34.5964C28.2264 33.3909 33.8227 32.815 39.4299 32.8799Z" fill="#F3F5FC"/>
</g>
<g style="mix-blend-mode:multiply" opacity="0.19">
<path d="M39.0099 33.4456C44.4428 33.3839 49.8652 33.9389 55.1729 35.1C62.9854 37.0095 64.268 39.9255 64.268 41.4973C64.268 43.069 62.9854 45.9781 55.1729 47.8876C44.5129 50.0935 33.5139 50.0935 22.8539 47.8876C15.0413 45.9781 13.7588 43.0621 13.7588 41.4973C13.7588 39.9324 15.0413 37.0095 22.8539 35.1C28.1592 33.9387 33.5793 33.3837 39.0099 33.4456Z" fill="#F1F3FB"/>
</g>
<g style="mix-blend-mode:multiply" opacity="0.23">
<path d="M38.5888 34.01C43.8457 33.9461 49.0926 34.4827 54.2277 35.6093C61.8127 37.443 63.0331 40.2349 63.0331 41.7722C63.0331 43.3094 61.7782 46.1082 54.2277 47.9764C43.9131 50.1082 33.2714 50.1082 22.9568 47.9764C15.4063 46.1427 14.1514 43.3508 14.1514 41.7722C14.1514 40.1935 15.4063 37.443 22.9568 35.6093C28.0896 34.483 33.3343 33.9465 38.5888 34.01Z" fill="#EFF1FA"/>
</g>
<g style="mix-blend-mode:multiply" opacity="0.26">
<path d="M38.1756 34.5756C43.2535 34.5152 48.3219 35.031 53.2835 36.1129C60.5651 37.8845 61.7994 40.573 61.7994 42.0551C61.7994 43.5372 60.5651 46.2326 53.2835 48.0043C43.3136 50.0539 33.0307 50.0539 23.0608 48.0043C15.7792 46.2326 14.5449 43.5441 14.5449 42.0551C14.5449 40.5661 15.7792 37.8845 23.0608 36.1129C28.0247 35.0306 33.0954 34.5149 38.1756 34.5756Z" fill="#ECEFFA"/>
</g>
<g style="mix-blend-mode:multiply" opacity="0.29">
<path d="M37.7547 35.1407C42.6495 35.0833 47.5351 35.5806 52.3179 36.6228C59.3306 38.3186 60.5511 40.9037 60.5511 42.3376C60.5511 43.7714 59.3306 46.3634 52.3179 48.0592C42.6958 50.0354 32.7723 50.0354 23.1502 48.0592C16.1306 46.3634 14.917 43.7783 14.917 42.3376C14.917 40.8968 16.1306 38.3186 23.1502 36.6228C27.9465 35.5775 32.8461 35.0802 37.7547 35.1407Z" fill="#EAEDF9"/>
</g>
<g style="mix-blend-mode:multiply" opacity="0.32">
<path d="M37.3344 35.6999C42.0597 35.6464 46.776 36.1251 51.3941 37.1269C58.1447 38.7607 59.3377 41.263 59.3377 42.6417C59.3377 44.0205 58.1447 46.509 51.3941 48.1566C42.1175 50.0592 32.5512 50.0592 23.2746 48.1566C16.524 46.5297 15.3311 44.0205 15.3311 42.6417C15.3311 41.263 16.524 38.7814 23.2746 37.1269C27.8926 36.1244 32.609 35.6457 37.3344 35.6999Z" fill="#E8EBF9"/>
</g>
<g style="mix-blend-mode:multiply" opacity="0.35">
<path d="M36.9134 36.2644C41.4628 36.2145 46.0034 36.6769 50.4492 37.6431C56.9309 39.2011 58.1031 41.5725 58.1031 42.9098C58.1031 44.2472 56.9309 46.6186 50.4492 48.1834C41.5119 50.0129 32.2971 50.0199 23.357 48.2041C16.8753 46.6393 15.7031 44.2678 15.7031 42.9305C15.7031 41.5931 16.8753 39.2218 23.357 37.6638C27.8088 36.6891 32.3564 36.2197 36.9134 36.2644Z" fill="#E5E9F8"/>
</g>
<g style="mix-blend-mode:multiply" opacity="0.39">
<path d="M36.4932 36.8299C40.8657 36.7805 45.23 37.2198 49.5049 38.1397C55.7108 39.6287 56.8761 41.9036 56.8761 43.1858C56.8761 44.468 55.7245 46.7428 49.5049 48.2318C40.9207 49.9783 32.0726 49.9783 23.4884 48.2318C17.2825 46.7428 16.1172 44.468 16.1172 43.1858C16.1172 41.9036 17.2687 39.6287 23.4884 38.1397C27.7609 37.2198 32.123 36.7804 36.4932 36.8299Z" fill="#E3E7F7"/>
</g>
<g style="mix-blend-mode:multiply" opacity="0.42">
<path d="M36.0722 37.3956C40.2682 37.3459 44.4567 37.7644 48.5598 38.6433C54.5106 40.0703 55.6415 42.2349 55.6415 43.4688C55.6415 44.7028 54.5106 46.8674 48.5598 48.2943C40.3202 49.9579 31.8311 49.9579 23.5914 48.2943C17.6406 46.8674 16.5098 44.7028 16.5098 43.4688C16.5098 42.2349 17.6406 40.0703 23.5914 38.6433C27.6923 37.7643 31.8784 37.3458 36.0722 37.3956Z" fill="#E1E5F7"/>
</g>
<g style="mix-blend-mode:multiply" opacity="0.45">
<path d="M35.651 37.9605C39.6708 37.9121 43.6835 38.312 47.6145 39.153C53.3033 40.5318 54.4134 42.5998 54.4134 43.751C54.4134 44.9023 53.3033 46.998 47.6145 48.3491C39.7205 49.9391 31.5885 49.9391 23.6944 48.3491C18.0057 46.9704 16.8955 44.9023 16.8955 43.751C16.8955 42.5998 18.0057 40.5042 23.6944 39.153C27.6232 38.3124 31.6335 37.9124 35.651 37.9605Z" fill="#DEE3F6"/>
</g>
<g style="mix-blend-mode:multiply" opacity="0.48">
<path d="M35.2379 38.5531C39.079 38.5105 42.9131 38.892 46.6705 39.6906C52.0903 40.9797 53.1798 42.9305 53.1798 44.068C53.1798 45.2054 52.0903 47.1563 46.6705 48.4385C39.1242 49.9551 31.3515 49.9551 23.8053 48.4385C18.3786 47.1563 17.2891 45.1985 17.2891 44.068C17.2891 42.9374 18.3786 40.9797 23.8053 39.6906C27.5626 38.8913 31.3967 38.5098 35.2379 38.5531Z" fill="#DCE1F5"/>
</g>
<g style="mix-blend-mode:multiply" opacity="0.52">
<path d="M34.8166 39.0842C38.4815 39.0429 42.1399 39.4059 45.7252 40.1665C50.883 41.3798 51.9311 43.2342 51.9311 44.3027C51.9311 45.3712 50.8692 47.2325 45.7252 48.4388C38.5235 49.8726 31.1097 49.8726 23.908 48.4388C18.7503 47.2187 17.7021 45.3712 17.7021 44.3027C17.7021 43.2342 18.7709 41.366 23.908 40.1665C27.4934 39.4059 31.1517 39.0429 34.8166 39.0842Z" fill="#DADEF5"/>
</g>
<g style="mix-blend-mode:multiply" opacity="0.55">
<path d="M34.3899 39.6489C37.8782 39.6104 41.3603 39.9525 44.7744 40.6691C49.6633 41.8135 50.7114 43.5644 50.7114 44.5985C50.7114 45.6325 49.6633 47.3559 44.7744 48.5209C37.9183 49.8813 30.8615 49.8813 24.0053 48.5209C19.1165 47.3766 18.0684 45.6256 18.0684 44.5985C18.0684 43.5713 19.1165 41.841 24.0053 40.6691C27.4194 39.9525 30.9016 39.6104 34.3899 39.6489Z" fill="#D8DCF4"/>
</g>
<g style="mix-blend-mode:multiply" opacity="0.58">
<path d="M33.9757 40.2145C37.2874 40.1792 40.5932 40.5005 43.8361 41.1728C48.4561 42.255 49.4835 43.9302 49.4835 44.8746C49.4835 45.819 48.4561 47.5011 43.8361 48.5834C37.3246 49.861 30.6267 49.861 24.1151 48.5834C19.4952 47.5011 18.4678 45.8604 18.4678 44.8746C18.4678 43.8888 19.4952 42.255 24.1151 41.1728C27.3581 40.5009 30.664 40.1797 33.9757 40.2145Z" fill="#D5DAF3"/>
</g>
<g style="mix-blend-mode:multiply" opacity="0.61">
<path d="M33.5555 40.7804C36.691 40.7467 39.821 41.0495 42.8919 41.6834C47.2498 42.6899 48.2496 44.234 48.2496 45.1302C48.2496 46.0264 47.2498 47.605 42.8919 48.577C36.7282 49.781 30.3897 49.781 24.226 48.577C19.8681 47.5705 18.8613 46.0264 18.8613 45.1302C18.8613 44.234 19.8681 42.6623 24.226 41.6834C27.2945 41.0495 30.4223 40.7467 33.5555 40.7804Z" fill="#D3D8F3"/>
</g>
<g style="mix-blend-mode:multiply" opacity="0.65">
<path d="M33.1352 41.3449C36.1034 41.3086 39.067 41.5906 41.9751 42.1859C46.0642 43.1303 47.0502 44.5642 47.0502 45.4397C47.0502 46.3151 46.0642 47.7559 41.9751 48.6934C36.1569 49.8232 30.1755 49.8232 24.3573 48.6934C20.2683 47.7559 19.2822 46.322 19.2822 45.4397C19.2822 44.5573 20.2683 43.1303 24.3573 42.1859C27.2451 41.5949 30.1876 41.3129 33.1352 41.3449Z" fill="#D1D6F2"/>
</g>
<g style="mix-blend-mode:multiply" opacity="0.68">
<path d="M32.7211 41.9031C35.4996 41.8734 38.2733 42.1391 40.9956 42.6959C44.8226 43.5645 45.781 44.895 45.781 45.7222C45.781 46.5494 44.8226 47.8798 40.9956 48.7553C35.5288 49.8004 29.9134 49.8004 24.4466 48.7553C20.6196 47.8798 19.6611 46.5494 19.6611 45.7222C19.6611 44.895 20.6196 43.5645 24.4466 42.6959C27.1688 42.1393 29.9426 41.8735 32.7211 41.9031Z" fill="#CED4F1"/>
</g>
<g style="mix-blend-mode:multiply" opacity="0.71">
<path d="M32.3207 42.4689C34.9249 42.4415 37.5248 42.6864 40.078 43.1996C43.6361 43.9993 44.5808 45.2264 44.5808 46.0053C44.5808 46.7843 43.6361 48.0183 40.078 48.811C34.9524 49.7853 29.689 49.7853 24.5633 48.811C20.9983 48.0183 20.0605 46.7843 20.0605 46.0053C20.0605 45.2264 20.9983 43.9993 24.5633 43.1996C27.1165 42.686 29.7164 42.4411 32.3207 42.4689Z" fill="#CCD2F1"/>
</g>
<g style="mix-blend-mode:multiply" opacity="0.74">
<path d="M31.8801 43.0342C34.3086 43.0132 36.7327 43.2442 39.1134 43.7235C42.4095 44.4542 43.3266 45.5848 43.3266 46.3086C43.3266 47.0324 42.4095 48.163 39.1134 48.8937C34.328 49.7869 29.4185 49.7869 24.633 48.8937C21.337 48.163 20.4199 47.0324 20.4199 46.3086C20.4199 45.5848 21.337 44.4542 24.633 43.7235C27.0182 43.2429 29.4471 43.0119 31.8801 43.0342Z" fill="#CAD0F0"/>
</g>
<g style="mix-blend-mode:multiply" opacity="0.77">
<path d="M31.459 43.5999C33.7105 43.5738 35.9588 43.7794 38.1682 44.2134C41.1953 44.8683 42.0917 45.8954 42.0917 46.571C42.0917 47.2465 41.1953 48.2737 38.1682 48.9286C33.7328 49.7466 29.1851 49.7466 24.7497 48.9286C21.7226 48.2737 20.8262 47.2465 20.8262 46.571C20.8262 45.8954 21.7226 44.8683 24.7497 44.2134C26.9592 43.7794 29.2074 43.5738 31.459 43.5999Z" fill="#C7CEF0"/>
</g>
<g style="mix-blend-mode:multiply" opacity="0.81">
<path d="M31.0387 44.1648C33.1206 44.14 35.1997 44.3248 37.2446 44.7163C40.0028 45.3091 40.8854 46.2259 40.8854 46.8533C40.8854 47.4806 40.0097 48.3974 37.2446 48.9834C33.1548 49.7279 28.964 49.7279 24.8742 48.9834C22.116 48.3974 21.2334 47.4806 21.2334 46.8533C21.2334 46.2259 22.116 45.3091 24.8742 44.7163C26.9055 44.3275 28.9706 44.1428 31.0387 44.1648Z" fill="#C5CCEF"/>
</g>
<g style="mix-blend-mode:multiply" opacity="0.84">
<path d="M30.6178 44.7579C32.5169 44.7383 34.4132 44.9069 36.2789 45.2611C38.7751 45.7781 39.6301 46.5916 39.6301 47.1706C39.6301 47.7497 38.7751 48.5494 36.2789 49.0802C32.5362 49.742 28.7063 49.742 24.9635 49.0802C22.4605 48.5563 21.6055 47.7428 21.6055 47.1706C21.6055 46.5985 22.4605 45.7919 24.9635 45.2611C26.827 44.9068 28.7211 44.7383 30.6178 44.7579Z" fill="#C3CAEE"/>
</g>
<g style="mix-blend-mode:multiply" opacity="0.87">
<path d="M30.1977 45.2889C31.9202 45.2721 33.6404 45.4198 35.3348 45.73C37.569 46.185 38.4033 46.8951 38.4033 47.419C38.4033 47.9429 37.569 48.6529 35.3348 49.101C31.9377 49.6893 28.4646 49.6893 25.0675 49.101C22.8333 48.6529 21.999 47.9429 21.999 47.419C21.999 46.8951 22.8333 46.185 25.0675 45.73C26.7596 45.4201 28.4775 45.2724 30.1977 45.2889Z" fill="#C0C8EE"/>
</g>
<g style="mix-blend-mode:multiply" opacity="0.9">
<path d="M29.7833 45.8537C31.3274 45.8389 32.8694 45.9681 34.3895 46.2397C36.3547 46.6189 37.1476 47.2255 37.1476 47.7012C37.1476 48.1768 36.334 48.7766 34.3895 49.1626C31.3372 49.6682 28.2225 49.6682 25.1703 49.1626C23.2051 48.7766 22.4121 48.1699 22.4121 47.7012C22.4121 47.2324 23.2258 46.6189 25.1703 46.2397C26.6926 45.9682 28.237 45.839 29.7833 45.8537Z" fill="#BEC6ED"/>
</g>
<g style="mix-blend-mode:multiply" opacity="0.94">
<path d="M29.3624 46.4189C30.73 46.4073 32.0959 46.5157 33.4445 46.7429C35.1408 47.06 35.9338 47.5564 35.9338 47.9769C35.9338 48.3974 35.1408 48.9006 33.4445 49.2177C30.7403 49.6497 27.9846 49.6497 25.2803 49.2177C23.5772 48.9006 22.7842 48.4043 22.7842 47.9769C22.7842 47.5495 23.5772 47.06 25.2803 46.7429C26.6288 46.5151 27.9949 46.4067 29.3624 46.4189Z" fill="#BCC4EC"/>
</g>
<g style="mix-blend-mode:multiply" opacity="0.97">
<path d="M28.9423 46.984C30.1335 46.9752 31.3234 47.0628 32.5004 47.246C33.9347 47.501 34.707 47.8871 34.707 48.2594C34.707 48.6316 33.9347 49.0245 32.5004 49.2727C30.1419 49.6312 27.7428 49.6312 25.3843 49.2727C23.95 49.0245 23.1777 48.6316 23.1777 48.2594C23.1777 47.8871 23.95 47.501 25.3843 47.246C26.5613 47.0628 27.7512 46.9752 28.9423 46.984Z" fill="#B9C2EC"/>
</g>
<g style="mix-blend-mode:multiply" opacity="0.7">
<path d="M33.4722 48.5425C33.4722 49.0939 31.2587 49.542 28.5212 49.542C25.7837 49.542 23.5703 49.0939 23.5703 48.5425C23.5703 47.991 25.7837 47.5498 28.5212 47.5498C31.2587 47.5498 33.4722 47.991 33.4722 48.5425Z" fill="#B7C0EB"/>
</g>
</g>
<path d="M38.4757 47.1041C48.7405 41.6131 52.6093 28.8429 47.1169 18.5809C41.6245 8.31894 28.8508 4.45122 18.586 9.94212C8.32125 15.433 4.45247 28.2033 9.94486 38.4652C15.4373 48.7272 28.211 52.595 38.4757 47.1041Z" fill="url(#paint0_linear_477_7937)"/>
<defs>
<linearGradient id="paint0_linear_477_7937" x1="18.586" y1="9.94212" x2="38.4673" y2="47.1085" gradientUnits="userSpaceOnUse">
<stop stop-color="white"/>
<stop offset="1" stop-color="#DFE4FC"/>
</linearGradient>
</defs>
</svg>
