<?xml version="1.0" encoding="iso-8859-1"?>
<!-- Generator: Adobe Illustrator 19.0.0, SVG Export Plug-In . SVG Version: 6.00 Build 0)  -->
<svg version="1.1" id="Capa_1" xmlns="http://www.w3.org/2000/svg" xmlns:xlink="http://www.w3.org/1999/xlink" x="0px" y="0px"
	 viewBox="0 0 512 512" style="enable-background:new 0 0 512 512;" xml:space="preserve">
<g>
	<path style="fill:#006838;" d="M503.467,460.8h-25.6V298.667c0-4.71-3.831-8.533-8.542-8.525c-2.782,0-5.385,1.357-6.98,3.635
		L342.878,464.444c-2.697,3.866-1.758,9.182,2.108,11.887c1.425,0.998,3.132,1.536,4.881,1.536H460.8v25.6
		c0,4.71,3.823,8.533,8.533,8.533c4.71,0,8.533-3.823,8.533-8.533v-25.6h25.6c4.71,0,8.533-3.823,8.533-8.533
		C512,464.623,508.177,460.8,503.467,460.8z M460.8,325.734V460.8h-94.549L460.8,325.734z"/>
	<path style="fill:#006838;" d="M349.867,494.933H248.841l93.926-110.601c0.213-0.256,0.41-0.521,0.597-0.794
		c17.673-26.155,11.785-61.559-13.397-80.589c-30.618-21.999-73.276-15.01-95.275,15.607c-8.337,11.605-12.826,25.549-12.826,39.842
		c0,4.71,3.823,8.533,8.533,8.533s8.533-3.823,8.533-8.533c0-28.279,22.921-51.2,51.191-51.209c10.718,0,21.163,3.362,29.875,9.617
		c17.638,13.517,21.751,38.409,9.387,56.875L223.898,497.946c-3.046,3.593-2.611,8.977,0.981,12.023
		c1.545,1.314,3.499,2.031,5.521,2.031h119.467c4.71,0,8.533-3.823,8.533-8.533C358.4,498.756,354.577,494.933,349.867,494.933z"/>
</g>
<g>
	<path style="fill:#231F20;" d="M230.588,452.429c0.179-4.71-3.499-8.67-8.209-8.849l0,0
		C111.053,439.45,21.7,350.251,17.365,238.933H51.2c4.71,0,8.533-3.823,8.533-8.533s-3.823-8.533-8.533-8.533H17.365
		c4.267-111.121,93.38-200.226,204.501-204.493v25.293c0,4.71,3.823,8.533,8.533,8.533s8.533-3.823,8.533-8.533V17.374
		c109.602,4.241,198.067,91.034,204.39,200.533l-33.28-33.28c-3.388-3.277-8.789-3.183-12.066,0.213
		c-3.191,3.311-3.191,8.55,0,11.853l47.633,47.633c0.896,1.084,2.057,1.929,3.362,2.449c0.333,0.102,0.674,0.179,1.015,0.247
		c0.589,0.213,1.195,0.358,1.809,0.435c0.085,0,0.162,0,0.247,0c0.085,0,0.162,0,0.239,0c0.649-0.051,1.289-0.179,1.911-0.375
		c0.35-0.043,0.7-0.111,1.041-0.196c1.152-0.41,2.21-1.067,3.081-1.929l48.282-48.265c3.277-3.388,3.183-8.789-0.213-12.066
		c-3.311-3.191-8.55-3.191-11.853,0l-34.108,34.082C454.332,96.393,353.476,0.299,231.006,0.119C230.793,0.111,230.613,0,230.4,0
		s-0.393,0.111-0.606,0.119C103.023,0.29,0.29,103.023,0.119,229.794c0,0.213-0.119,0.393-0.119,0.606s0.111,0.393,0.119,0.606
		c0.213,123.648,98.065,225.033,221.628,229.632h0.316C226.645,460.638,230.417,457.011,230.588,452.429z"/>
	<path style="fill:#231F20;" d="M345.045,115.755c-3.328-3.328-8.738-3.328-12.066,0l-91.699,91.691
		c-6.929-3.089-14.839-3.089-21.769,0l-43.418-43.418c-3.388-3.277-8.789-3.183-12.066,0.213c-3.191,3.311-3.191,8.55,0,11.853
		l43.332,43.332c-6.084,12.74-0.691,27.989,12.049,34.074c9.779,4.668,21.436,2.671,29.09-4.992l0,0
		c7.697-7.637,9.685-19.328,4.932-29.073l91.614-91.614C348.373,124.493,348.373,119.083,345.045,115.755z M236.433,236.433
		L236.433,236.433c-3.371,3.226-8.695,3.226-12.066,0c-3.337-3.328-3.337-8.738,0-12.066c3.337-3.328,8.738-3.337,12.066,0
		C239.77,227.695,239.77,233.097,236.433,236.433L236.433,236.433z"/>
</g>
<g>
</g>
<g>
</g>
<g>
</g>
<g>
</g>
<g>
</g>
<g>
</g>
<g>
</g>
<g>
</g>
<g>
</g>
<g>
</g>
<g>
</g>
<g>
</g>
<g>
</g>
<g>
</g>
<g>
</g>
</svg>
