<svg xmlns="http://www.w3.org/2000/svg" viewBox="0 0 62.96 80.31"><defs><style>.cls-1{opacity:0.12;}.cls-2{fill:#aaa;}.cls-3{fill:#ebf0f9;}.cls-4{fill:#fff;}.cls-5{fill:#606060;}.cls-6{fill:#c2d0e1;}.cls-7{fill:#2f55d4;}.cls-8{fill:#1e388f;}</style></defs><title>Asset 310</title><g id="Layer_2" data-name="Layer 2"><g id="Layer_1-2" data-name="Layer 1"><g class="cls-1"><path class="cls-2" d="M.2,19.63A16.46,16.46,0,0,1,6.15,7.23c3.75-2.89,9.3-3.53,13.29-1C20.64,7,21.68,8,22.89,8.79c3.82,2.4,8.8,1.9,13.1.53S44.36,5.8,48.82,5.06s9.64.36,12.09,4.16,1.1,9.4-2.41,12.34c-3,2.5-7.34,3.66-9,7.18a12.4,12.4,0,0,0-.81,4.94c-.12,4.76-.13,9.92,2.69,13.76A31.75,31.75,0,0,0,56.12,52c3.67,3.29,6.71,7.55,6.84,12.68a10.64,10.64,0,0,1-1,4.74c-2.59,5.56-8.49,6.2-13.71,5.82-4-.3-8.11-1.06-12,0-2.82.75-5.31,2.4-8,3.5a22,22,0,0,1-12.71,1.14,13.68,13.68,0,0,1-7-3.46C4.72,72.46,4.78,66.16,5.73,60.72s2.53-11.12.8-16.36a18.84,18.84,0,0,0-1.7-3.62A34.09,34.09,0,0,1,.14,20.36Z"/></g><path class="cls-3" d="M24.2,73,36.11,35.83,23.83,31.89,11.91,69c-.57,1.78,1.09,3.23,2.54,2.22L19,68.11l1.85,5.21C21.43,75,23.62,74.77,24.2,73Z"/><path class="cls-3" d="M39,73,27,35.83l12.29-3.94L51.25,69c.57,1.78-1.09,3.23-2.54,2.22l-4.54-3.16-1.85,5.21C41.73,75,39.53,74.77,39,73Z"/><path class="cls-4" d="M46.7,54a22.84,22.84,0,0,1-11.76,5.6L30.58,46l4.53-14.14-4.53-1.45,7.75-2.49Z"/><path class="cls-4" d="M28,30.83,32.58,45,28.3,58.3a22.77,22.77,0,0,1-11.48-6.46l8-24.95,7.76,2.49Z"/><path class="cls-5" d="M22.36,74.46a2.59,2.59,0,0,1-2.47-1.81l-1.41-4L15,71.09a2.59,2.59,0,0,1-3.09,0,3,3,0,0,1-1-3.35L23.18,29.64l14.19,4.55L25.15,72.3a3,3,0,0,1-2.75,2.16Zm-2.87-8.92L21.78,72a.6.6,0,0,0,.58.48h0a1,1,0,0,0,.87-.77l1,.31-1-.31L34.86,35.48,24.47,32.15,12.86,68.35a1,1,0,0,0,.26,1.13.61.61,0,0,0,.76,0Z"/><path class="cls-5" d="M40.8,74.46h0A3,3,0,0,1,38,72.3L25.79,34.19,40,29.64,52.2,67.74a3,3,0,0,1-1,3.35,2.59,2.59,0,0,1-3.09,0l-3.46-2.41-1.41,4A2.59,2.59,0,0,1,40.8,74.46Zm-.88-2.77a1,1,0,0,0,.87.77.6.6,0,0,0,.59-.48l2.29-6.45,5.61,3.91a.6.6,0,0,0,.76,0,1,1,0,0,0,.26-1.13L38.68,32.15,28.3,35.48Z"/><line class="cls-6" x1="7.21" y1="49.5" x2="6.93" y2="51.54"/><path class="cls-6" d="M7.12,52a.5.5,0,0,0,.3-.39l.28-2a.5.5,0,1,0-1-.14l-.28,2a.5.5,0,0,0,.69.53Z"/><line class="cls-6" x1="6.05" y1="50.38" x2="8.09" y2="50.66"/><path class="cls-6" d="M8.29,51.12a.5.5,0,0,0-.13-1l-2-.28a.5.5,0,1,0-.14,1l2,.28A.49.49,0,0,0,8.29,51.12Z"/><path class="cls-6" d="M3.11,39.61a1.37,1.37,0,1,1,1.81.71A1.38,1.38,0,0,1,3.11,39.61Zm.69-.3a.62.62,0,1,0,.32-.82A.63.63,0,0,0,3.79,39.31Z"/><circle class="cls-6" cx="6.16" cy="57.63" r="0.75" transform="translate(-22.43 7.21) rotate(-23.46)"/><line class="cls-6" x1="59.56" y1="38.14" x2="58.11" y2="39.61"/><path class="cls-6" d="M58,40.09a.5.5,0,0,0,.47-.14l1.45-1.47a.5.5,0,1,0-.71-.7l-1.45,1.47a.5.5,0,0,0,.24.84Z"/><line class="cls-6" x1="58.1" y1="38.15" x2="59.57" y2="39.59"/><path class="cls-6" d="M59.45,40.08a.5.5,0,0,0,.46-.84l-1.47-1.45a.5.5,0,1,0-.7.71L59.22,40A.49.49,0,0,0,59.45,40.08Z"/><path class="cls-6" d="M58.78,29a1.37,1.37,0,1,1,1,1.65A1.38,1.38,0,0,1,58.78,29Zm.73.17a.62.62,0,1,0,.75-.47A.63.63,0,0,0,59.51,29.19Z"/><circle class="cls-6" cx="56.84" cy="48.85" r="0.75" transform="translate(-3.66 93.08) rotate(-76.84)"/><path class="cls-6" d="M58.16,56.15a.57.57,0,0,0-1-.22l-.43.46-.43.46a.57.57,0,0,0,.29.94l.61.14.61.14a.57.57,0,0,0,.67-.72l-.18-.6Z"/><line class="cls-6" x1="25.57" y1="3.95" x2="27.33" y2="2.88"/><path class="cls-6" d="M27.83,2.88a.5.5,0,0,1-.24.43L25.83,4.38a.5.5,0,0,1-.52-.85l1.76-1.07a.5.5,0,0,1,.76.43Z"/><line class="cls-6" x1="25.91" y1="2.54" x2="26.98" y2="4.3"/><path class="cls-6" d="M27.48,4.3a.5.5,0,0,1-.93.26L25.48,2.8a.5.5,0,1,1,.85-.52L27.41,4A.49.49,0,0,1,27.48,4.3Z"/><path class="cls-6" d="M11.24,3.5A1.38,1.38,0,1,1,9.86,2.13,1.38,1.38,0,0,1,11.24,3.5Zm-2,0a.63.63,0,1,0,.63-.62A.63.63,0,0,0,9.24,3.5Z"/><circle class="cls-6" cx="42.61" cy="3.75" r="0.75"/><path class="cls-6" d="M54.42,1.69a.57.57,0,0,1,0-1L55,.39l.54-.31a.57.57,0,0,1,.85.49V1.82a.57.57,0,0,1-.85.49L55,2Z"/><circle class="cls-3" cx="32.36" cy="30.87" r="23"/><path class="cls-4" d="M51.05,16.19A23,23,0,0,0,18.67,48.56,23,23,0,1,1,51.05,16.19Z"/><path class="cls-6" d="M55.36,30.88A23,23,0,0,1,14.45,45.28,23,23,0,0,0,46.77,13,22.9,22.9,0,0,1,55.36,30.88Z"/><path class="cls-5" d="M32.36,54.87A24,24,0,0,1,16.68,49q-.66-.57-1.27-1.18a24,24,0,0,1,17-41A23.77,23.77,0,0,1,43.05,9.38a1,1,0,0,1-.89,1.79,21.78,21.78,0,0,0-9.8-2.3A22,22,0,0,0,16.82,46.45q.56.56,1.17,1.08A22,22,0,0,0,47.43,14.85a1,1,0,1,1,1.37-1.46A24,24,0,0,1,32.36,54.87Z"/><path class="cls-7" d="M36.7,38.64l-3.29-1.43a1.16,1.16,0,0,0-1.08.08l-3,1.9a1.16,1.16,0,0,1-1.78-1.1l.34-3.57a1.16,1.16,0,0,0-.41-1L24.69,31.2a1.16,1.16,0,0,1,.5-2l3.5-.78a1.16,1.16,0,0,0,.83-.7l1.35-3.33A1.16,1.16,0,0,1,33,24.21l1.82,3.09a1.16,1.16,0,0,0,.92.57l3.58.25a1.16,1.16,0,0,1,.79,1.93l-2.38,2.69a1.16,1.16,0,0,0-.26,1.05l.87,3.48A1.16,1.16,0,0,1,36.7,38.64Z"/><path class="cls-8" d="M37.69,32.75a1.15,1.15,0,0,0-.25,1l.86,3.48a1.16,1.16,0,0,1-1.6,1.35L33.41,37.2a1.17,1.17,0,0,0-1.08.08l-3,1.9a1.16,1.16,0,0,1-1.78-1.1l.18-1.88,2.19-1.36A1.17,1.17,0,0,1,31,34.75l3.29,1.43a1.16,1.16,0,0,0,1.6-1.35L35,31.35a1.15,1.15,0,0,1,.25-1l2-2.32,2,.14a1.16,1.16,0,0,1,.79,1.93Z"/><path class="cls-5" d="M28.67,40.37A2.17,2.17,0,0,1,26.51,38l.34-3.57a.17.17,0,0,0-.06-.14L24.05,32A2.17,2.17,0,0,1,25,28.19l3.5-.78a.16.16,0,0,0,.12-.1L29.94,24a2.16,2.16,0,0,1,3.87-.29l1.82,3.09a.17.17,0,0,0,.13.08l3.58.25a2.17,2.17,0,0,1,1.47,3.59l-2.38,2.69a.16.16,0,0,0,0,.15L39.27,37a2.17,2.17,0,0,1-3,2.51L33,38.12a.17.17,0,0,0-.15,0l-3,1.9A2.16,2.16,0,0,1,28.67,40.37ZM32,24.64h0a.15.15,0,0,0-.14.1l-1.35,3.33a2.16,2.16,0,0,1-1.54,1.3l-3.5.78a.15.15,0,0,0-.12.12.15.15,0,0,0,.05.17l2.75,2.31a2.16,2.16,0,0,1,.76,1.87l-.34,3.57a.15.15,0,0,0,.08.16.15.15,0,0,0,.17,0l3-1.9a2.16,2.16,0,0,1,2-.15l3.29,1.43a.16.16,0,0,0,.17,0,.15.15,0,0,0,.05-.17L36.46,34a2.16,2.16,0,0,1,.48-2l2.38-2.69a.15.15,0,0,0,0-.17.15.15,0,0,0-.14-.1l-3.58-.25a2.17,2.17,0,0,1-1.71-1.06l-1.82-3.09A.15.15,0,0,0,32,24.64Z"/><path class="cls-5" d="M9.66,29.2a1,1,0,0,1-.34-1.94L24,21.93a1,1,0,1,1,.68,1.88L10,29.14A1,1,0,0,1,9.66,29.2Z"/><path class="cls-5" d="M11.36,23.87A1,1,0,0,1,11,21.94l8-3a1,1,0,1,1,.7,1.87l-8,3A1,1,0,0,1,11.36,23.87Z"/></g></g></svg>