<svg xmlns="http://www.w3.org/2000/svg" viewBox="0 0 52.64 79.76"><defs><style>.cls-1{opacity:0.12;}.cls-2{fill:#aaa;}.cls-3{fill:#c2d0e1;}.cls-4{fill:#fff;}.cls-5{fill:#2f55d4;}.cls-6{fill:#1e388f;}.cls-7{fill:#606060;}</style></defs><title>Asset 340</title><g id="Layer_2" data-name="Layer 2"><g id="Layer_1-2" data-name="Layer 1"><g class="cls-1"><path class="cls-2" d="M1.45,27.18A13.43,13.43,0,0,1,6.29,17.07a9.71,9.71,0,0,1,10.84-.81c1,.63,1.83,1.46,2.81,2.08,3.12,2,7.18,1.55,10.69.43s6.84-2.87,10.47-3.47S49,15.6,51,18.69s.9,7.67-2,10.07c-2.43,2-6,3-7.32,5.86a10.11,10.11,0,0,0-.66,4c-.1,3.89-.1,8.09,2.19,11.22a25.9,25.9,0,0,0,3.84,3.71c3,2.68,5.48,6.16,5.58,10.34a8.68,8.68,0,0,1-.78,3.87c-2.11,4.54-6.92,5.06-11.18,4.74-3.27-.24-6.62-.86-9.78,0-2.3.61-4.34,2-6.54,2.85A17.9,17.9,0,0,1,14,76.3a11.16,11.16,0,0,1-5.67-2.82C5.13,70.28,5.18,65.14,6,60.7S8,51.63,6.61,47.35a15.37,15.37,0,0,0-1.38-3A27.81,27.81,0,0,1,1.39,27.78Z"/></g><line class="cls-3" x1="39.77" y1="47.36" x2="41.19" y2="48.86"/><path class="cls-3" d="M41.29,49.35a.5.5,0,0,1-.47-.15l-1.42-1.5a.5.5,0,1,1,.73-.69l1.42,1.5a.5.5,0,0,1-.26.83Z"/><line class="cls-3" x1="41.22" y1="47.4" x2="39.73" y2="48.82"/><path class="cls-3" d="M39.83,49.31a.5.5,0,0,1-.45-.85L40.88,47a.5.5,0,1,1,.69.73l-1.5,1.42A.49.49,0,0,1,39.83,49.31Z"/><path class="cls-3" d="M36.3,38.57a1.37,1.37,0,1,1,1.06-1.63A1.38,1.38,0,0,1,36.3,38.57Zm-.42-2a.62.62,0,1,0,.74.48A.63.63,0,0,0,35.88,36.61Z"/><circle class="cls-3" cx="45.36" cy="53.37" r="0.75" transform="matrix(0.98, -0.21, 0.21, 0.98, -10.19, 10.71)"/><line class="cls-3" x1="44.49" y1="11.81" x2="44.21" y2="13.85"/><path class="cls-3" d="M44.41,14.31a.5.5,0,0,0,.3-.39l.28-2a.5.5,0,0,0-1-.14l-.28,2a.5.5,0,0,0,.69.53Z"/><line class="cls-3" x1="43.33" y1="12.69" x2="45.37" y2="12.97"/><path class="cls-3" d="M45.57,13.43a.5.5,0,0,0-.13-1l-2-.28a.5.5,0,1,0-.14,1l2,.28A.49.49,0,0,0,45.57,13.43Z"/><path class="cls-3" d="M40.39,1.92a1.37,1.37,0,1,1,1.81.71A1.38,1.38,0,0,1,40.39,1.92Zm.69-.3A.63.63,0,1,0,41.4.8.63.63,0,0,0,41.08,1.62Z"/><circle class="cls-3" cx="43.44" cy="19.95" r="0.75" transform="translate(-4.35 18.94) rotate(-23.46)"/><line class="cls-3" x1="9.84" y1="53.46" x2="10.74" y2="55.31"/><path class="cls-3" d="M10.7,55.81a.5.5,0,0,1-.4-.28l-.9-1.85a.5.5,0,1,1,.9-.44l.9,1.85a.5.5,0,0,1-.5.72Z"/><line class="cls-3" x1="11.22" y1="53.94" x2="9.36" y2="54.84"/><path class="cls-3" d="M9.32,55.34a.5.5,0,0,1-.17-.95l1.85-.9a.5.5,0,1,1,.44.9l-1.85.9A.49.49,0,0,1,9.32,55.34Z"/><path class="cls-3" d="M12,46.3a1.37,1.37,0,1,1,1.5-1.24A1.38,1.38,0,0,1,12,46.3Zm.19-2a.63.63,0,1,0,.56.68A.63.63,0,0,0,12.17,44.31Z"/><circle class="cls-3" cx="9" cy="64.48" r="0.75" transform="translate(-56.04 67.36) rotate(-84.59)"/><path class="cls-3" d="M5.43,71a.57.57,0,0,1,1,.09l.26.57.26.57a.57.57,0,0,1-.57.8L5.74,73l-.63-.06A.57.57,0,0,1,4.7,72l.36-.51Z"/><rect class="cls-4" x="20.18" y="20.42" width="11.05" height="51.84" transform="translate(-20.95 21.2) rotate(-32.67)"/><rect class="cls-5" x="1.76" y="12.54" width="11.05" height="10.13" rx="2.88" ry="2.88" transform="translate(-8.35 6.72) rotate(-32.67)"/><path class="cls-6" d="M8.62,11.48A26.33,26.33,0,0,1,5.25,23.57a2.53,2.53,0,0,1-.8-.45,2.65,2.65,0,0,1-.64-.69L1.45,18.75a2.9,2.9,0,0,1,.87-4l4.46-2.86a2.89,2.89,0,0,1,1.84-.43Z"/><path class="cls-3" d="M44.69,65.28l.23,5.06a4.26,4.26,0,0,0-1.35-.05c-1.83.22-3.32,1.65-5.13,2a4,4,0,0,1-1,.06l-2.1-1.08Z"/><path class="cls-7" d="M6.25,24.75a4,4,0,0,1-.84-.09A3.85,3.85,0,0,1,3,23L.61,19.29a3.89,3.89,0,0,1,1.17-5.36l4.45-2.86a3.88,3.88,0,0,1,5.36,1.17L14,15.92a3.89,3.89,0,0,1-1.17,5.36L8.33,24.14A3.84,3.84,0,0,1,6.25,24.75ZM8.33,12.46a1.87,1.87,0,0,0-1,.3L2.86,15.61a1.89,1.89,0,0,0-.57,2.6l2.36,3.68a1.89,1.89,0,0,0,2.6.57l4.45-2.86a1.88,1.88,0,0,0,.57-2.6L9.92,13.32A1.88,1.88,0,0,0,8.33,12.46Zm3.92,8h0Z"/><path class="cls-7" d="M35.09,72.63,4.68,25.2l11-7L36.23,50.23a1,1,0,1,1-1.68,1.08L15.06,20.92,7.44,25.8,35.69,69.86,43.31,65l-6.2-9.67a1,1,0,0,1,1.68-1.08l7.28,11.35Z"/><rect class="cls-4" x="3.55" y="19.9" width="13.81" height="5.31" rx="0.97" ry="0.97" transform="translate(-10.52 9.21) rotate(-32.67)"/><path class="cls-3" d="M17.43,19.34l.5.78a.9.9,0,0,1-.27,1.23L7.53,27.84a.9.9,0,0,1-1.23-.27L4.65,25a5.79,5.79,0,0,0,2.68-.42,9,9,0,0,0,3.49-2.26c.37-.41.69-.86,1.06-1.27C13.25,19.51,15.55,18.6,17.43,19.34Z"/><path class="cls-7" d="M44.3,77a2.07,2.07,0,0,1-1-.23l-8.18-4.23a1,1,0,0,1,.92-1.78L44.27,75l1.1-.11-1,0-.43-9.19a1,1,0,0,1,1-1,1,1,0,0,1,1,1l.43,9.19A2.07,2.07,0,0,1,44.3,77Z"/><path class="cls-7" d="M22.69,46a.5.5,0,0,1-.42-.23L9.84,26.36a.5.5,0,1,1,.84-.54L23.11,45.2a.5.5,0,0,1-.42.77Z"/><path class="cls-7" d="M37.86,69.62a.5.5,0,0,1-.42-.23L25,50a.5.5,0,1,1,.84-.54L38.28,68.85a.5.5,0,0,1-.42.77Z"/><path class="cls-7" d="M41.73,67.13a.5.5,0,0,1-.42-.23L19.68,33.17a.5.5,0,1,1,.84-.54L42.15,66.36a.5.5,0,0,1-.42.77Z"/><path class="cls-7" d="M17.62,29.53a.5.5,0,0,1-.42-.23l-3.48-5.43a.5.5,0,0,1,.84-.54L18,28.76a.5.5,0,0,1-.42.77Z"/><path class="cls-7" d="M32.83,57.52a.5.5,0,0,1-.42-.23L20,37.91a.5.5,0,1,1,.84-.54L33.25,56.75a.5.5,0,0,1-.42.77Z"/><path class="cls-7" d="M18.67,35.42a.5.5,0,0,1-.42-.23L12,25.5a.5.5,0,1,1,.84-.54l6.21,9.69a.5.5,0,0,1-.42.77Z"/><path class="cls-7" d="M40,68.76a.5.5,0,0,1-.42-.23l-6.21-9.69a.5.5,0,0,1,.84-.54L40.46,68a.5.5,0,0,1-.42.77Z"/><path class="cls-7" d="M6.37,29.14a2,2,0,0,1-.43,0,2,2,0,0,1-1.24-.86L2.89,25.41a2,2,0,0,1,.6-2.73l10-6.41a2,2,0,0,1,2.73.6L18,19.7a2,2,0,0,1-.6,2.73l-10,6.41A2,2,0,0,1,6.37,29.14Zm8.15-11.19-10,6.41,1.82,2.79,9.93-6.4Zm2.36,3.63h0Zm-.54-.84h0Z"/><polygon class="cls-7" points="41.64 75.19 44.64 73.19 44.64 75.91 41.64 75.19"/><rect class="cls-4" x="18.58" y="18.43" width="11.05" height="51.84" transform="translate(10.03 -4.13) rotate(12.33)"/><rect class="cls-5" x="25.88" y="5.94" width="11.05" height="10.13" rx="2.88" ry="2.88" transform="translate(3.08 -6.45) rotate(12.33)"/><path class="cls-6" d="M36.68,7.62a26.33,26.33,0,0,1-10.93,6.17,2.53,2.53,0,0,1-.25-.88,2.65,2.65,0,0,1,0-.94l.93-4.27A2.9,2.9,0,0,1,29.9,5.5l5.18,1.13a2.89,2.89,0,0,1,1.6,1Z"/><path class="cls-3" d="M24.14,71.17l-3.41,3.74a4.26,4.26,0,0,0-.91-1c-1.45-1.14-3.51-1.18-5-2.22a4,4,0,0,1-.72-.64l-.72-2.25Z"/><path class="cls-7" d="M33.52,17.59a3.82,3.82,0,0,1-.83-.09l-5.17-1.13a3.88,3.88,0,0,1-3-4.62l.93-4.27a3.88,3.88,0,0,1,4.62-3l5.17,1.13a3.88,3.88,0,0,1,3,4.62,1,1,0,0,1-2-.43A1.89,1.89,0,0,0,34.86,7.6L29.69,6.47a1.88,1.88,0,0,0-2.24,1.44l-.93,4.27A1.88,1.88,0,0,0,28,14.42l5.17,1.13a1.89,1.89,0,0,0,2.24-1.44,1,1,0,0,1,2,.43A3.89,3.89,0,0,1,33.52,17.59Z"/><path class="cls-7" d="M17.71,49.84l-.21,0a1,1,0,0,1-.76-1.19l7.45-34.09,12.75,2.79-2.23,10.2a1,1,0,1,1-2-.43l1.8-8.25-8.84-1.93-7,32.14A1,1,0,0,1,17.71,49.84Z"/><path class="cls-7" d="M24.91,72.36,12.16,69.58l3.47-15.85a1,1,0,0,1,2,.43l-3,13.9L23.38,70,32,30.73a1,1,0,1,1,2,.43Z"/><rect class="cls-4" x="23.24" y="14.1" width="13.81" height="5.31" rx="0.97" ry="0.97" transform="translate(4.27 -6.05) rotate(12.33)"/><path class="cls-3" d="M37.35,19.41l-.2.9a.9.9,0,0,1-1.06.68L24.34,18.42a.9.9,0,0,1-.68-1.06l.65-3A5.79,5.79,0,0,0,26.5,16a9,9,0,0,0,4.06.87c.55,0,1.09-.12,1.64-.15C34.27,16.58,36.54,17.55,37.35,19.41Z"/><path class="cls-7" d="M17.07,79.76a2.1,2.1,0,0,1-.45,0,2,2,0,0,1-1.53-1.39L12.3,69.55a1,1,0,0,1,1.91-.61L17,77.72l.11,0,6.2-6.8a1,1,0,1,1,1.48,1.35l-6.2,6.8A2,2,0,0,1,17.07,79.76Z"/><path class="cls-7" d="M22.59,42.11h-.11a.5.5,0,0,1-.38-.59L27,19a.5.5,0,0,1,1,.21L23.08,41.71A.5.5,0,0,1,22.59,42.11Z"/><path class="cls-7" d="M16.6,69.55h-.11a.5.5,0,0,1-.38-.59L21,46.45a.5.5,0,0,1,1,.21L17.08,69.16A.5.5,0,0,1,16.6,69.55Z"/><path class="cls-7" d="M21.09,70.53H21a.5.5,0,0,1-.38-.59l8.56-39.14a.5.5,0,0,1,.59-.38.5.5,0,0,1,.38.59L21.58,70.14A.5.5,0,0,1,21.09,70.53Z"/><path class="cls-7" d="M30.63,26.9h-.11a.5.5,0,0,1-.38-.59L31.52,20a.5.5,0,1,1,1,.21l-1.38,6.3A.5.5,0,0,1,30.63,26.9Z"/><path class="cls-7" d="M21.6,57.45h-.11a.5.5,0,0,1-.38-.59L26,34.35a.5.5,0,0,1,1,.21L22.09,57.05A.5.5,0,0,1,21.6,57.45Z"/><path class="cls-7" d="M27.2,31.8H27.1a.5.5,0,0,1-.38-.59L29.17,20a.5.5,0,0,1,.59-.38.5.5,0,0,1,.38.59L27.69,31.41A.5.5,0,0,1,27.2,31.8Z"/><path class="cls-7" d="M18.75,70.49h-.11a.5.5,0,0,1-.38-.59l2.46-11.25a.5.5,0,1,1,1,.21L19.23,70.1A.5.5,0,0,1,18.75,70.49Z"/><path class="cls-7" d="M35.59,21.63a2,2,0,0,1-.42,0L23.57,19.05a2,2,0,0,1-1.51-2.35l.72-3.28a2,2,0,0,1,2.35-1.51l11.59,2.53a2,2,0,0,1,1.51,2.35l-.72,3.28A2,2,0,0,1,35.59,21.63Zm0-2h0ZM24.7,13.87,24,17.13l11.55,2.5.71-3.26Z"/><polygon class="cls-7" points="14.98 76.02 18.52 76.73 16.59 78.65 14.98 76.02"/></g></g></svg>