<svg xmlns="http://www.w3.org/2000/svg" viewBox="0 0 73.19 94.07"><defs><style>.cls-1{opacity:0.12;}.cls-2{fill:#aaa;}.cls-3{fill:#ebf0f9;}.cls-4{fill:#fff;}.cls-5{fill:#c2d0e1;}.cls-6{fill:#606060;}.cls-7{fill:#2f55d4;}.cls-8{fill:#1e388f;}</style></defs><title>Asset 260</title><g id="Layer_2" data-name="Layer 2"><g id="Layer_1-2" data-name="Layer 1"><g class="cls-1"><path class="cls-2" d="M5.46,25.79c.19-5,2.3-10,6.22-13s9.74-3.7,13.92-1c1.26.81,2.34,1.87,3.61,2.67,4,2.51,9.21,2,13.72.56s8.77-3.69,13.44-4.46,10.1.38,12.66,4.35,1.15,9.84-2.52,12.93c-3.11,2.62-7.69,3.83-9.4,7.52a13,13,0,0,0-.84,5.17c-.13,5-.13,10.38,2.81,14.41A33.25,33.25,0,0,0,64,59.69c3.84,3.44,7,7.91,7.16,13.28a11.14,11.14,0,0,1-1,5c-2.71,5.82-8.89,6.5-14.36,6.09-4.2-.31-8.49-1.11-12.56,0-3,.79-5.56,2.51-8.4,3.66a23,23,0,0,1-13.31,1.19,14.32,14.32,0,0,1-7.28-3.62c-4.08-4.1-4-10.7-3-16.4s2.65-11.64.83-17.13A19.72,19.72,0,0,0,10.3,47.9,35.7,35.7,0,0,1,5.39,26.55Z"/></g><path class="cls-3" d="M62.9,39V28.14H12.83V71.45a10.1,10.1,0,0,0,10.1,10.1H52.8a10.1,10.1,0,0,0,10.1-10.1V43.14"/><path class="cls-4" d="M63.22,33.38c0,9.4-.42,18.89,0,28.28-1.4-2-3.57-3.42-5-5.43-3.87-5.45-4.37-16.09-.42-21.58C59.13,32.86,61.27,33.38,63.22,33.38Z"/><line class="cls-5" x1="4.42" y1="62.3" x2="4.12" y2="64.44"/><path class="cls-5" d="M4.33,64.92a.52.52,0,0,0,.31-.41l.3-2.14a.52.52,0,1,0-1-.14l-.3,2.14a.52.52,0,0,0,.73.55Z"/><line class="cls-5" x1="3.2" y1="63.22" x2="5.34" y2="63.52"/><path class="cls-5" d="M5.54,64a.52.52,0,0,0-.14-1l-2.14-.3a.52.52,0,1,0-.14,1l2.14.3A.52.52,0,0,0,5.54,64Z"/><path class="cls-5" d="M.12,51.95A1.44,1.44,0,1,1,2,52.7,1.44,1.44,0,0,1,.12,51.95Zm.72-.31a.65.65,0,1,0,.34-.86A.66.66,0,0,0,.84,51.64Z"/><circle class="cls-5" cx="3.31" cy="70.82" r="0.79" transform="translate(-27.92 7.17) rotate(-23.46)"/><line class="cls-5" x1="69.58" y1="47.2" x2="68.46" y2="49.05"/><path class="cls-5" d="M68.46,49.57a.52.52,0,0,0,.45-.25L70,47.48a.52.52,0,1,0-.89-.54L68,48.78a.52.52,0,0,0,.45.8Z"/><line class="cls-5" x1="68.1" y1="47.56" x2="69.94" y2="48.69"/><path class="cls-5" d="M69.94,49.21a.52.52,0,0,0,.27-1l-1.84-1.12a.52.52,0,0,0-.54.89l1.84,1.12A.52.52,0,0,0,69.94,49.21Z"/><path class="cls-5" d="M66.62,38.09a1.44,1.44,0,1,1,1.44,1.44A1.44,1.44,0,0,1,66.62,38.09Zm.79,0a.65.65,0,1,0,.65-.65A.66.66,0,0,0,67.41,38.09Z"/><circle class="cls-5" cx="69.37" cy="58.77" r="0.79"/><path class="cls-5" d="M72.45,65.9a.6.6,0,0,0-1,0l-.33.57-.33.57a.6.6,0,0,0,.52.89h1.31A.6.6,0,0,0,73.1,67l-.33-.57Z"/><line class="cls-5" x1="26.78" y1="4.14" x2="28.62" y2="3.02"/><path class="cls-5" d="M29.15,3a.52.52,0,0,1-.25.45L27.05,4.59a.52.52,0,1,1-.54-.89l1.84-1.12a.52.52,0,0,1,.8.45Z"/><line class="cls-5" x1="27.14" y1="2.66" x2="28.26" y2="4.5"/><path class="cls-5" d="M28.79,4.5a.52.52,0,0,1-1,.27L26.69,2.93a.52.52,0,0,1,.89-.54l1.12,1.84A.52.52,0,0,1,28.79,4.5Z"/><path class="cls-5" d="M11.78,3.67a1.44,1.44,0,1,1-1.44-1.44A1.44,1.44,0,0,1,11.78,3.67Zm-2.09,0A.65.65,0,1,0,10.34,3,.66.66,0,0,0,9.68,3.67Z"/><circle class="cls-5" cx="44.63" cy="3.93" r="0.79"/><path class="cls-5" d="M57,1.77a.6.6,0,0,1,0-1l.57-.33.57-.33A.6.6,0,0,1,59,.6V1.91a.6.6,0,0,1-.89.52l-.57-.33Z"/><rect class="cls-5" x="12.95" y="29.19" width="50.26" height="4.19"/><path class="cls-5" d="M62.92,66l0,8.84c0,3.76-4.45,6.8-9.9,6.77l-29.15-.15c-5.45,0-9.85-3.11-9.83-6.87V71.76a56.36,56.36,0,0,0,10.76,2.48c7,.88,14.5.24,20.5-2.37,2.5-1.09,4.68-2.5,7.22-3.54A36.22,36.22,0,0,1,62.92,66Z"/><path class="cls-6" d="M22.93,82.55a11.11,11.11,0,0,1-11.1-11.1V61.13a1,1,0,0,1,2,0V71.45a9.11,9.11,0,0,0,9.1,9.1,1,1,0,0,1,0,2Z"/><path class="cls-6" d="M45.6,82.55H29.24a1,1,0,1,1,0-2H45.6a1,1,0,0,1,0,2Z"/><path class="cls-6" d="M52.8,82.55H49.42a1,1,0,1,1,0-2H52.8a9.11,9.11,0,0,0,9.1-9.1V43.14a1,1,0,0,1,2,0V71.45A11.11,11.11,0,0,1,52.8,82.55Z"/><path class="cls-6" d="M12.83,55.84a1,1,0,0,1-1-1V27.14H63.9V39a1,1,0,1,1-2,0V29.14H13.83v25.7A1,1,0,0,1,12.83,55.84Z"/><path class="cls-6" d="M48.15,21.94l-6.61-8.78a3.78,3.78,0,0,0-6.47,0l-5.39,7.16-1.6-1.2L33.47,12a5.77,5.77,0,0,1,9.66,0l6.61,8.78Z"/><path class="cls-6" d="M57.33,41.71H20.5a1,1,0,0,1,0-2H57.33a1,1,0,0,1,0,2Z"/><path class="cls-6" d="M32.9,51.13H26.78a1,1,0,1,1,0-2H32.9a1,1,0,0,1,0,2Z"/><path class="cls-6" d="M51.7,59.51H45.58a1,1,0,0,1,0-2H51.7a1,1,0,0,1,0,2Z"/><path class="cls-6" d="M51.7,51.13H36.53a1,1,0,0,1,0-2H51.7a1,1,0,0,1,0,2Z"/><path class="cls-6" d="M42,59.51H26.78a1,1,0,1,1,0-2H42a1,1,0,0,1,0,2Z"/><path class="cls-3" d="M54.5,29.19h9.86A5.25,5.25,0,0,0,69.59,24h0a5.25,5.25,0,0,0-5.24-5.24H13.47A5.25,5.25,0,0,0,8.23,24h0a5.25,5.25,0,0,0,5.24,5.24h41Z"/><path class="cls-5" d="M69.28,25.73a5.26,5.26,0,0,1-4.92,3.46H13.47A5.26,5.26,0,0,1,8.23,24,5.26,5.26,0,0,1,11.69,19a5.26,5.26,0,0,0-.31,1.78A5.26,5.26,0,0,0,16.61,26H67.5A5.25,5.25,0,0,0,69.28,25.73Z"/><rect class="cls-6" x="36.75" y="81.55" width="2" height="8.38"/><path class="cls-6" d="M50.47,30.19h-37a6.24,6.24,0,1,1,0-12.47h3.67v2H13.47a4.24,4.24,0,1,0,0,8.47h37Z"/><path class="cls-6" d="M64.36,30.19H54.5v-2h9.86a4.24,4.24,0,0,0,0-8.47h-43v-2h43a6.24,6.24,0,0,1,0,12.47Z"/><circle class="cls-7" cx="38.61" cy="10.86" r="3.67"/><path class="cls-8" d="M42.27,10.86a3.67,3.67,0,0,1-7.33,0,3.48,3.48,0,0,1,.16-1,3.66,3.66,0,0,0,7,0A3.48,3.48,0,0,1,42.27,10.86Z"/><path class="cls-6" d="M38.61,15.53a4.67,4.67,0,1,1,4.67-4.67A4.67,4.67,0,0,1,38.61,15.53Zm0-7.33a2.67,2.67,0,1,0,2.67,2.67A2.67,2.67,0,0,0,38.61,8.2Z"/><circle class="cls-5" cx="37.56" cy="90.45" r="2.62"/><path class="cls-6" d="M37.56,94.07a3.62,3.62,0,1,1,3.62-3.62A3.62,3.62,0,0,1,37.56,94.07Zm0-5.24a1.62,1.62,0,1,0,1.62,1.62A1.62,1.62,0,0,0,37.56,88.83Z"/><path class="cls-4" d="M64.26,23.91H58.79a1,1,0,0,1,0-2h5.47a1,1,0,0,1,0,2Z"/><path class="cls-4" d="M54.07,23.91H51.7a1,1,0,0,1,0-2h2.37a1,1,0,0,1,0,2Z"/></g></g></svg>