<?xml version="1.0"?>
<svg xmlns="http://www.w3.org/2000/svg" id="Layer_1" data-name="Layer 1" viewBox="0 0 512 512" width="512" height="512"><title>Big Server</title><path d="M122,112a49.076,49.076,0,0,1,49.135-49h-30a49,49,0,1,0,0,98h30A49.076,49.076,0,0,1,122,112Z" style="fill:#d4e1f4"/><path d="M122,259a49.076,49.076,0,0,1,49.135-49h-30a49,49,0,1,0,0,98h30A49.076,49.076,0,0,1,122,259Z" style="fill:#d4e1f4"/><path d="M431.767,112.076A60.955,60.955,0,0,0,370.865,51H141.135A61.057,61.057,0,0,0,136,172.884v25.292A61.026,61.026,0,0,0,141.135,320H250v77.557A31.929,31.929,0,0,0,224.505,423H150.527a26.077,26.077,0,0,0-25.7-20.374,26.4,26.4,0,1,0,0,52.793A26.117,26.117,0,0,0,150.527,435h73.978a32.06,32.06,0,0,0,62.99,0h73.978a26.123,26.123,0,0,0,25.7,20.426,26.4,26.4,0,0,0,0-52.806,26.083,26.083,0,0,0-25.7,20.38H287.5A31.929,31.929,0,0,0,262,397.557V320H370.865A61.026,61.026,0,0,0,376,198.176V172.884A60.655,60.655,0,0,0,431.767,112.076ZM124.823,443.452a14.4,14.4,0,1,1,14.4-14.4A14.417,14.417,0,0,1,124.823,443.452Zm262.354-28.8a14.4,14.4,0,1,1-14.4,14.4A14.417,14.417,0,0,1,387.177,414.652Zm-111.111,14.4A20.066,20.066,0,1,1,256,408.985,20.089,20.089,0,0,1,276.066,429.052ZM148,198V173H364v25ZM92,112a49.076,49.076,0,0,1,49.135-49h229.73a49,49,0,1,1,0,98H141.135A49.076,49.076,0,0,1,92,112ZM420,259a49.076,49.076,0,0,1-49.135,49H141.135a49,49,0,1,1,0-98h229.73A49.076,49.076,0,0,1,420,259Z" style="fill:#2f55d4"/><path d="M372.3,140.99a28.974,28.974,0,1,0-28.974-28.973A29.005,29.005,0,0,0,372.3,140.99Zm0-45.947a16.974,16.974,0,1,1-16.974,16.974A16.993,16.993,0,0,1,372.3,95.043Z" style="fill:#2eca8b"/><path d="M144,131.8a6,6,0,0,0,6-6V98.233a6,6,0,0,0-12,0V125.8A6,6,0,0,0,144,131.8Z" style="fill:#2eca8b"/><path d="M171,131.8a6,6,0,0,0,6-6V98.233a6,6,0,0,0-12,0V125.8A6,6,0,0,0,171,131.8Z" style="fill:#2eca8b"/><path d="M198,131.8a6,6,0,0,0,6-6V98.233a6,6,0,0,0-12,0V125.8A6,6,0,0,0,198,131.8Z" style="fill:#2eca8b"/><path d="M225,92.233a6,6,0,0,0-6,6V125.8a6,6,0,1,0,12,0V98.233A6,6,0,0,0,225,92.233Z" style="fill:#2eca8b"/><path d="M252,92.233a6,6,0,0,0-6,6V125.8a6,6,0,1,0,12,0V98.233A6,6,0,0,0,252,92.233Z" style="fill:#2eca8b"/><path d="M372.3,288.017a28.973,28.973,0,1,0-28.974-28.974A29.006,29.006,0,0,0,372.3,288.017Zm0-45.946a16.973,16.973,0,1,1-16.974,16.972A16.992,16.992,0,0,1,372.3,242.071Z" style="fill:#2eca8b"/><path d="M144,278.828a6,6,0,0,0,6-6V245.26a6,6,0,0,0-12,0v27.568A6,6,0,0,0,144,278.828Z" style="fill:#2eca8b"/><path d="M171,278.828a6,6,0,0,0,6-6V245.26a6,6,0,0,0-12,0v27.568A6,6,0,0,0,171,278.828Z" style="fill:#2eca8b"/><path d="M198,278.828a6,6,0,0,0,6-6V245.26a6,6,0,0,0-12,0v27.568A6,6,0,0,0,198,278.828Z" style="fill:#2eca8b"/><path d="M225,239.26a6,6,0,0,0-6,6v27.568a6,6,0,0,0,12,0V245.26A6,6,0,0,0,225,239.26Z" style="fill:#2eca8b"/><path d="M252,239.26a6,6,0,0,0-6,6v27.568a6,6,0,0,0,12,0V245.26A6,6,0,0,0,252,239.26Z" style="fill:#2eca8b"/></svg>
