<?xml version="1.0" encoding="iso-8859-1"?>
<!-- Generator: Adobe Illustrator 19.0.0, SVG Export Plug-In . SVG Version: 6.00 Build 0)  -->
<svg version="1.1" id="Layer_1" xmlns="http://www.w3.org/2000/svg" xmlns:xlink="http://www.w3.org/1999/xlink" x="0px" y="0px"
	 viewBox="0 0 301.274 301.274" style="enable-background:new 0 0 301.274 301.274;" xml:space="preserve">
<g>
	<g>
		<g>
			<g id="XMLID_6_">
				<g>
					<path style="fill:#2D213F;" d="M292.819,129.498c4.683,0,8.455,3.74,8.455,8.325s-3.772,8.325-8.455,8.325h-24.326
						c-3.61,6.602-8.195,12.716-13.724,18.179L152.101,265.371c-1.594,1.561-3.74,2.439-5.984,2.439h-0.033
						c-2.244,0-4.39-0.911-5.984-2.472L38.472,164.295c-3.089-3.057-5.854-6.374-8.325-9.821H8.455c-4.683,0-8.455-3.74-8.455-8.325
						s3.772-8.325,8.455-8.325h12.553c-3.447-8.716-5.301-18.049-5.301-27.708c0-20.488,8.098-39.708,22.797-54.213
						c14.7-14.472,34.277-22.44,55.091-22.44c19.838,0,38.57,7.285,53.042,20.553c14.472-13.269,33.204-20.553,53.074-20.553
						c20.781,0,40.359,7.968,55.058,22.44c14.7,14.504,22.797,33.724,22.797,54.213c0,6.634-0.911,13.139-2.569,19.383
						C274.998,129.498,292.819,129.498,292.819,129.498z M257.339,129.498c7.22-20.976,2.439-45.107-14.537-61.822
						c-23.773-23.383-62.44-23.383-86.213,0c-0.618,0.618-1.203,1.236-1.789,1.886c-0.585,0.618-1.138,1.268-1.691,1.919
						c-3.22,3.74-9.724,3.74-12.943,0c-1.106-1.301-2.211-2.569-3.447-3.805c-11.903-11.708-27.513-17.561-43.123-17.561
						c-15.643,0-31.253,5.854-43.123,17.561c-19.285,18.96-22.927,47.546-10.96,70.148h40.586L96.88,85.367
						c1.106-3.545,4.618-5.984,8.195-5.821c3.74,0.065,7.025,2.537,8,6.081l23.35,83.384l21.204-89.726
						c0.683-2.829,2.829-5.041,5.464-5.951c1.008-0.325,2.081-0.488,3.155-0.455c4.065,0.163,7.415,3.155,8,7.122l5.464,37.757
						l8.716-22.83c1.333-3.48,4.813-5.659,8.553-5.366c3.772,0.26,6.862,2.959,7.642,6.569l7.057,33.367
						C211.679,129.498,257.339,129.498,257.339,129.498z M248.396,146.149h-43.578c-4,0-7.48-2.764-8.293-6.634l-2.504-11.87
						l-10.082,26.44c-1.366,3.545-4.976,5.724-8.813,5.333c-3.837-0.423-6.927-3.317-7.48-7.09l-3.772-26.049l-18.537,78.408
						c-0.878,3.707-4.195,6.342-8.065,6.407c-0.065,0.033-0.13,0.033-0.163,0.033c-3.805,0-7.155-2.504-8.163-6.114l-24.553-87.742
						l-10.016,31.383c-1.106,3.447-4.358,5.821-8.065,5.821H52.391l93.758,93.205l96.653-95.124
						C244.883,150.539,246.672,148.36,248.396,146.149z"/>
					<path style="fill:#F47C6D;" d="M242.802,67.675c16.976,16.716,21.757,40.846,14.537,61.822h-45.66l-7.057-33.367
						c-0.781-3.61-3.87-6.309-7.642-6.569c-3.74-0.293-7.22,1.886-8.553,5.366l-8.716,22.83L174.247,80
						c-0.585-3.968-3.935-6.959-8-7.122c-1.073-0.033-2.146,0.13-3.155,0.455l-8.293-3.772c0.585-0.65,1.171-1.268,1.789-1.886
						C180.362,44.293,219.029,44.293,242.802,67.675z"/>
					<path style="fill:#F47C6D;" d="M204.817,146.149h43.578c-1.724,2.211-3.512,4.39-5.594,6.407l-96.651,95.123l-93.758-93.205
						h33.919c3.707,0,6.96-2.374,8.065-5.821l10.016-31.383l24.553,87.742c1.008,3.61,4.358,6.114,8.163,6.114
						c0.033,0,0.098,0,0.163-0.033c3.87-0.065,7.187-2.699,8.065-6.407l18.537-78.408l3.772,26.049
						c0.553,3.772,3.642,6.667,7.48,7.09c3.837,0.39,7.447-1.789,8.813-5.333l10.082-26.44l2.504,11.87
						C197.338,143.384,200.817,146.149,204.817,146.149z"/>
					<path style="fill:#F47C6D;" d="M154.8,69.561l8.293,3.772c-2.634,0.911-4.781,3.122-5.464,5.951l-21.204,89.726l-23.35-83.384
						c-0.976-3.545-4.26-6.016-8-6.081c-3.577-0.163-7.09,2.276-8.195,5.821l-16.781,52.456H39.513
						c-11.968-22.602-8.325-51.188,10.96-70.148c11.87-11.708,27.48-17.561,43.123-17.561c15.61,0,31.22,5.854,43.123,17.561
						c1.236,1.236,2.342,2.504,3.447,3.805c3.22,3.74,9.724,3.74,12.943,0C153.662,70.83,154.215,70.179,154.8,69.561z"/>
				</g>
			</g>
		</g>
		<path style="fill:#EF685E;" d="M156.589,67.675c-0.618,0.618-1.203,1.236-1.789,1.886l8.293,3.772
			c1.008-0.325,2.081-0.488,3.155-0.455c0.725,0.029,1.418,0.176,2.088,0.377c23.044-6.608,48.817-8.647,70.847-8.797
			C215.253,44.397,179.197,45.437,156.589,67.675z"/>
		<path style="fill:#EF685E;" d="M106.975,126.503l-2.582-9.233l-10.016,31.383c-1.106,3.447-4.358,5.821-8.065,5.821H52.391
			l93.758,93.205C109.667,192.582,100.373,153.755,106.975,126.503z"/>
		<path style="fill:#EF685E;" d="M153.109,71.48c-3.22,3.74-9.724,3.74-12.943,0c-1.106-1.301-2.211-2.569-3.447-3.805
			c-11.903-11.708-27.513-17.561-43.123-17.561c-15.643,0-31.253,5.854-43.123,17.561c-19.285,18.96-22.927,47.546-10.96,70.148
			h40.586L96.88,85.367c1.106-3.545,4.618-5.984,8.195-5.821c3.74,0.065,7.025,2.537,8,6.081l4.989,17.815
			c9.851-12.641,24.479-21.36,41.152-27.282c1.011-1.281,2.338-2.296,3.877-2.826l-8.293-3.772
			C154.215,70.179,153.662,70.83,153.109,71.48z"/>
	</g>
</g>
<g>
</g>
<g>
</g>
<g>
</g>
<g>
</g>
<g>
</g>
<g>
</g>
<g>
</g>
<g>
</g>
<g>
</g>
<g>
</g>
<g>
</g>
<g>
</g>
<g>
</g>
<g>
</g>
<g>
</g>
</svg>
