<?xml version="1.0"?>
<svg xmlns="http://www.w3.org/2000/svg" id="Layer_1" data-name="Layer 1" viewBox="0 0 512 512" width="512px" height="512px" class="hovered-paths"><g><path d="M151.083,64.6V51.471H176.07a7,7,0,0,0,6.837-5.5A30.032,30.032,0,0,1,198,26.176a31.3,31.3,0,0,0-15-3.829c-14.43,0-27.086,9.936-30.093,23.626a7,7,0,0,1-6.837,5.5H121.083V64.6a29.414,29.414,0,0,0,29.38,29.38h30A29.414,29.414,0,0,1,151.083,64.6Z" style="fill:#d4e1f4" data-original="#D4E1F4"/><path d="M70,386.432V80.852A29.413,29.413,0,0,1,99.381,51.471h-30A29.413,29.413,0,0,0,40,80.852v305.58a29.414,29.414,0,0,0,29.381,29.38h30A29.414,29.414,0,0,1,70,386.432Z" style="fill:#d4e1f4" data-original="#D4E1F4"/><path d="M333,201.652a7,7,0,0,0,7-7V80.911A43.43,43.43,0,0,0,296.619,37.53H225.165a45.085,45.085,0,0,0-84.33,0H69.381A43.43,43.43,0,0,0,26,80.911v305.58a43.43,43.43,0,0,0,43.381,43.381H279.139a7,7,0,0,0,0-14H69.381A29.415,29.415,0,0,1,40,386.491V80.911A29.415,29.415,0,0,1,69.381,51.53h37.7V64.661a43.43,43.43,0,0,0,43.38,43.381h65.074a43.43,43.43,0,0,0,43.38-43.381V51.53h37.7A29.415,29.415,0,0,1,326,80.911V194.652A7,7,0,0,0,333,201.652ZM244.917,64.661a29.414,29.414,0,0,1-29.38,29.381H150.463a29.414,29.414,0,0,1-29.38-29.381V51.53H146.07a7,7,0,0,0,6.837-5.5C155.914,32.343,168.57,22.406,183,22.406s27.086,9.937,30.093,23.626a7,7,0,0,0,6.837,5.5h24.987Z" style="fill:#2F55D4" data-original="#0635C9" class="" data-old_color="#0635C9"/><path d="M238.67,205.47l-73,71.269L127.33,239.305a7,7,0,0,0-9.781,10.017l43.233,42.209a7,7,0,0,0,9.78,0l77.889-76.044a7,7,0,0,0-9.781-10.017Z" style="fill:#2F55D4" data-original="#0635C9" class="" data-old_color="#0635C9"/><path d="M391.561,466.61h-6.869a7,7,0,0,0,0,14h6.869a7,7,0,1,0,0-14Z" style="fill:#2ECA8B" data-original="#1AE5BE" class="hovered-path active-path" data-old_color="#1AE5BE"/><path d="M486,496.594V454.155a41.354,41.354,0,0,0-28.094-39.185l-10.45-3.542,12.562-1.54a7,7,0,0,0,6-8.363l-16.532-80.159a23.36,23.36,0,0,0,9.036-24.5,19.09,19.09,0,0,0-10.776-13.01l.1-26.971a78.917,78.917,0,1,0-157.832-.465l.072,24.613c0,.055,0,.11,0,.164l.061,2.705a19.087,19.087,0,0,0-10.674,12.963,23.345,23.345,0,0,0,10.94,25.729l-20.9,78.545a7,7,0,0,0,5.092,8.6,129.748,129.748,0,0,0,13.963,2.362l-8.473,2.872A41.354,41.354,0,0,0,252,454.155v42.439a7,7,0,0,0,7,7H479A7,7,0,0,0,486,496.594ZM338.272,410.035l23.659,23.595v14.316l-35.025-34.059Zm24.468-16.181h12.519a64.181,64.181,0,0,0,15.6-1.943v7.195L369,420.908l-21.861-21.8v-7.195A64.173,64.173,0,0,0,362.74,393.854Zm13.191,39.913,23.8-23.732,11.366,3.852L375.931,448.08Zm45.652-31.107,3.279-4.024,9.089,8.215Zm23.084-5-15.884-14.356a7,7,0,0,0-10.121.771l-11.23,13.784-2.571-.872V386.645a72.275,72.275,0,0,0,20.59-15.939,78.776,78.776,0,0,0,14.916-24.26l10.409,50.47ZM393.427,254.5a63.292,63.292,0,0,0,15.1,17.664A80.11,80.11,0,0,1,388.019,259.4Q390.742,257.114,393.427,254.5Zm-24.5-63.019a64.916,64.916,0,0,1,64.915,65.334l-.051,14.017c-14.166-5.5-25.287-15.532-30.347-27.623a127.191,127.191,0,0,0,10-15.154,7,7,0,0,0-12.19-6.887c-24.832,43.953-60.658,45.954-77.876,46.915l-.259.015c-5.134.287-9.937,3.81-12.533,9.2a3.856,3.856,0,0,1-1.833,1.784,3.977,3.977,0,0,1-4.511-.778l-.171-.171-.064-21.733A64.991,64.991,0,0,1,368.931,191.483ZM293.073,300.2a5.326,5.326,0,0,1,4.84-4.054,7,7,0,0,0,5.2-3.12,17.946,17.946,0,0,0,20.089-9.646,3.788,3.788,0,0,1,.988-1.313c11.165-.623,31.51-1.774,52.17-14.294a94.324,94.324,0,0,0,58.218,24.737,6.992,6.992,0,0,0,5.5,3.636,5.326,5.326,0,0,1,4.84,4.055,9.341,9.341,0,0,1-7.434,11.413A7.1,7.1,0,0,0,431.7,318.6a64.508,64.508,0,0,1-16.629,42.71c-10.819,11.958-24.957,18.542-39.811,18.542H362.74c-14.854,0-28.992-6.584-39.811-18.542A64.565,64.565,0,0,1,306.3,318.505a7,7,0,0,0-5.793-6.9,9.3,9.3,0,0,1-7.7-9.182A9.409,9.409,0,0,1,293.073,300.2Zm5.113,47.638a78.737,78.737,0,0,0,14.362,22.873,72.283,72.283,0,0,0,20.591,15.94v10.346l-5.2,1.764c-2.517-.028-5.03-.115-7.469-.21l-.359-.014-.739-13.836a7,7,0,0,0-12.073-4.439l-17,17.948c-1.988-.244-3.769-.5-5.317-.742Zm8.072,53.878.214,4.006c0,.1.021.2.03.3l-6.372,2.159ZM266,454.155a27.362,27.362,0,0,1,18.588-25.926l27.427-9.295,49.916,48.54v22.12H266Zm206,35.439H375.931V467.608l50.054-48.674,27.428,9.295A27.362,27.362,0,0,1,472,454.155Z" style="fill:#2ECA8B" data-original="#1AE5BE" class="hovered-path active-path" data-old_color="#1AE5BE"/></g> </svg>
