<?xml version="1.0"?>
<svg xmlns="http://www.w3.org/2000/svg" id="Layer_1" data-name="Layer 1" viewBox="0 0 512 512" width="512" height="512"><title>Cloud Server</title><path d="M137.5,184.181A36.091,36.091,0,0,1,162.807,149.9a6,6,0,0,0,4.217-6.458,51.145,51.145,0,0,1-.357-6.076A51.661,51.661,0,0,1,214.346,86a6,6,0,0,0,4.832-3.115,75.668,75.668,0,0,1,51.437-38.015,75.534,75.534,0,0,0-81.437,38.015A6,6,0,0,1,184.346,86a51.661,51.661,0,0,0-47.679,51.358,51.145,51.145,0,0,0,.357,6.076,6,6,0,0,1-4.217,6.458,35.845,35.845,0,0,0,10.36,70.1h30A35.838,35.838,0,0,1,137.5,184.181Z" style="fill:#d4e1f4"/><path d="M280.148,335.667A35.65,35.65,0,0,1,299,366.86V417.3a32.02,32.02,0,1,0,12-.183V366.86a47.633,47.633,0,0,0-25.148-41.75A35.649,35.649,0,0,1,267,293.918V221H255v72.918A47.631,47.631,0,0,0,280.148,335.667ZM325.5,448.639a20,20,0,1,1-20-20A20.023,20.023,0,0,1,325.5,448.639Z" style="fill:#2eca8b"/><path d="M147.25,443.639A32.061,32.061,0,0,0,121,412.211V343.176A23.337,23.337,0,0,1,139.274,320.5,35.4,35.4,0,0,0,167,286.1V223H155v63.1a23.335,23.335,0,0,1-18.274,22.673A35.406,35.406,0,0,0,109,343.176v69.035c-14,2.817-25.75,15.834-25.75,31.428a32,32,0,0,0,64,0Zm-31.75,20a20,20,0,1,1,20-20A20.023,20.023,0,0,1,115.5,463.639Z" style="fill:#2eca8b"/><path d="M360.307,302.4A41.594,41.594,0,0,1,390,342.079v10.132c-14,2.817-25.75,15.834-25.75,31.428A31.969,31.969,0,1,0,402,352.211V342.079a53.662,53.662,0,0,0-38.307-51.2A41.594,41.594,0,0,1,334,251.2V223H322v28.2A53.662,53.662,0,0,0,360.307,302.4ZM416.5,383.639a20,20,0,1,1-20-20A20.023,20.023,0,0,1,416.5,383.639Z" style="fill:#2eca8b"/><path d="M146.25,381.639A31.969,31.969,0,1,0,184,350.211V322.639a32.914,32.914,0,0,1,20.308-30.462A44.881,44.881,0,0,0,232,250.639V223H220v27.639A32.912,32.912,0,0,1,199.692,281.1,44.883,44.883,0,0,0,172,322.639v27.572C158,353.028,146.25,366.045,146.25,381.639Zm52.25,0a20,20,0,1,1-20-20A20.023,20.023,0,0,1,198.5,381.639Z" style="fill:#2eca8b"/><path d="M143.167,232H334a73.617,73.617,0,0,0,2.36-147.192A87.681,87.681,0,0,0,180.226,74.376a63.721,63.721,0,0,0-55.559,63c0,.9.019,1.8.057,2.694A47.856,47.856,0,0,0,143.167,232Zm-10.36-82.1a6,6,0,0,0,4.217-6.458,51.145,51.145,0,0,1-.357-6.076A51.661,51.661,0,0,1,184.346,86a6,6,0,0,0,4.832-3.115A75.685,75.685,0,0,1,326.654,92.8a5.984,5.984,0,0,0,5.805,3.92c.509-.015,1.024-.023,1.541-.023A61.653,61.653,0,0,1,334,220H143.167a35.845,35.845,0,0,1-10.36-70.1Z" style="fill:#2f55d4"/></svg>
