<?xml version="1.0"?>
<svg xmlns="http://www.w3.org/2000/svg" id="Layer_1" data-name="Layer 1" viewBox="0 0 512 512" width="512" height="512"><title>Computer</title><path d="M171,133H141a13.846,13.846,0,0,0-14,13.8V279h30V146.8A13.846,13.846,0,0,1,171,133Z" style="fill:#d4e1f4"/><path d="M157,319.3V291H127v28.3A13.762,13.762,0,0,0,141,333h30A13.762,13.762,0,0,1,157,319.3Z" style="fill:#d4e1f4"/><path d="M409.072,238H389v12h20.072A23.618,23.618,0,0,0,430.7,235.308,11.655,11.655,0,0,1,441.242,228h3.619A17.333,17.333,0,0,0,461.4,239.638a17.614,17.614,0,1,0,0-35.227A17.289,17.289,0,0,0,444.861,216h-3.619a23.621,23.621,0,0,0-21.623,14.692A11.654,11.654,0,0,1,409.072,238Zm46.715-15.944a5.617,5.617,0,1,1,5.617,5.617A5.624,5.624,0,0,1,455.787,222.056Z" style="fill:#2eca8b"/><path d="M62.016,274.535A12.414,12.414,0,0,1,51,281H43.32c-2.522-6-8.94-11.289-16.461-11.289A17.6,17.6,0,1,0,43.483,293H51a24.4,24.4,0,0,0,21.573-12.761,12.456,12.456,0,0,1,11-6.518l39.688.159.039-11.987-39.707-.178A24.453,24.453,0,0,0,62.016,274.535ZM26.859,293.05a5.617,5.617,0,1,1,5.618-5.617A5.624,5.624,0,0,1,26.859,293.05Z" style="fill:#2eca8b"/><path d="M22.9,194.438c7.6,0,14.08-5.438,16.542-11.438H61.582a6.848,6.848,0,0,1,6.887,5.274A18.912,18.912,0,0,0,87.083,203H123V191H87.083a6.849,6.849,0,0,1-6.888-5.274A18.911,18.911,0,0,0,61.582,171H39.437A17.582,17.582,0,1,0,22.9,194.438Zm0-23.413a5.617,5.617,0,1,1-5.618,5.617A5.623,5.623,0,0,1,22.9,171.025Z" style="fill:#2eca8b"/><path d="M76.619,328.306A15.077,15.077,0,0,1,62.072,339H53.846c-2.462-6-8.938-11.438-16.542-11.438a17.714,17.714,0,0,0-17.617,17.707A17.576,17.576,0,0,0,53.846,351h8.226a27.143,27.143,0,0,0,26.059-19.307A15.075,15.075,0,0,1,102.678,321H123V309H102.678A27.141,27.141,0,0,0,76.619,328.306ZM37.3,350.975a5.617,5.617,0,1,1,5.616-5.617A5.622,5.622,0,0,1,37.3,350.975Z" style="fill:#2eca8b"/><path d="M92.381,230.692A23.621,23.621,0,0,0,70.758,216H67.139A17.289,17.289,0,0,0,50.6,204.411a17.614,17.614,0,1,0,0,35.227A17.333,17.333,0,0,0,67.139,228h3.619A11.655,11.655,0,0,1,81.3,235.308,23.618,23.618,0,0,0,102.928,250H123V238H102.928A11.654,11.654,0,0,1,92.381,230.692ZM50.6,227.673a5.617,5.617,0,1,1,5.617-5.617A5.623,5.623,0,0,1,50.6,227.673Z" style="fill:#2eca8b"/><path d="M485.141,269.711C477.62,269.711,471.2,275,468.68,281H461a12.416,12.416,0,0,1-11.017-6.465,24.452,24.452,0,0,0-21.592-12.814l-39.688.159.039,12.013,39.668-.126a12.415,12.415,0,0,1,11.016,6.468A24.4,24.4,0,0,0,461,293h7.517a17.594,17.594,0,1,0,16.624-23.289Zm0,23.339a5.617,5.617,0,1,1,5.617-5.617A5.624,5.624,0,0,1,485.141,293.05Z" style="fill:#2eca8b"/><path d="M474.7,327.562c-7.6,0-14.08,5.438-16.542,11.438h-8.226a15.078,15.078,0,0,1-14.547-10.693A27.141,27.141,0,0,0,409.322,309H389v12h20.322a15.075,15.075,0,0,1,14.547,10.693A27.143,27.143,0,0,0,449.928,351h8.226A17.582,17.582,0,1,0,474.7,327.562Zm0,23.413a5.617,5.617,0,1,1,5.617-5.617A5.623,5.623,0,0,1,474.7,350.975Z" style="fill:#2eca8b"/><path d="M489.105,159.2A17.471,17.471,0,0,0,472.563,171H450.418a18.911,18.911,0,0,0-18.613,14.726A6.849,6.849,0,0,1,424.917,191H389v12h35.917a18.912,18.912,0,0,0,18.614-14.726A6.848,6.848,0,0,1,450.418,183h22.145c2.462,6,8.938,11.438,16.542,11.438a17.617,17.617,0,1,0,0-35.234Zm0,23.054a5.617,5.617,0,1,1,5.618-5.616A5.623,5.623,0,0,1,489.105,182.258Z" style="fill:#2eca8b"/><path d="M397,146.8A25.859,25.859,0,0,0,371,121H141a25.859,25.859,0,0,0-26,25.8V319.3A25.775,25.775,0,0,0,141,345H250v34H212.8a6,6,0,1,0,0,12h86.4a6,6,0,1,0,0-12H262V345H371a25.775,25.775,0,0,0,26-25.7ZM141,133H371a13.846,13.846,0,0,1,14,13.8V279H127V146.8A13.846,13.846,0,0,1,141,133ZM371,333H141a13.762,13.762,0,0,1-14-13.7V291H385v28.3A13.762,13.762,0,0,1,371,333Z" style="fill:#2f55d4"/></svg>
