<svg height="492pt" viewBox="0 -41 492.001 492" width="492pt" xmlns="http://www.w3.org/2000/svg"><path d="m78.300781 66.253906c.015625-13.390625 10.863281-24.238281 24.253907-24.253906h377.445312v-5.746094c-.015625-13.390625-10.863281-24.238281-24.25-24.253906h-383.195312c-13.386719.015625-24.238282 10.863281-24.253907 24.253906v147.398438c9.140625-7.242188 19.238281-13.1875 30-17.679688zm0 0" fill="#d4e1f4"/><g fill="#2f55d4"><path d="m455.75 0h-383.195312c-20.011719.0234375-36.230469 16.238281-36.253907 36.253906v160.589844h12v-160.589844c.015625-13.390625 10.867188-24.238281 24.253907-24.253906h383.195312c13.386719.015625 24.234375 10.863281 24.25 24.253906v219.722656c-.011719 13.390626-10.863281 24.242188-24.25 24.257813h-207.769531v12h207.769531c20.011719-.023437 36.230469-16.242187 36.25-36.257813v-219.722656c-.023438-20.011718-16.238281-36.2304685-36.25-36.253906zm0 0"/><path d="m365.953125 252.765625c18.882813 9.078125 41.535156 3.898437 54.59375-12.484375s13.058594-39.617188 0-56-35.710937-21.5625-54.59375-12.484375c-18.882813-9.078125-41.535156-3.898437-54.59375 12.484375s-13.058594 39.617188 0 56 35.710937 21.5625 54.59375 12.484375zm19.460937-73.402344c12.671876-.011719 24.226563 7.253907 29.710938 18.679688 5.480469 11.425781 3.917969 24.984375-4.019531 34.863281s-20.84375 14.324219-33.179688 11.429688c8.625-8.433594 13.488281-19.988282 13.488281-32.050782s-4.863281-23.617187-13.488281-32.046875c2.453125-.578125 4.964844-.875 7.488281-.878906zm-32.921874 32.921875c.003906-10.484375 5.003906-20.339844 13.460937-26.53125 8.460937 6.191406 13.460937 16.046875 13.460937 26.53125s-5 20.339844-13.460937 26.53125c-8.460937-6.195312-13.460937-16.050781-13.460937-26.535156zm-38.921876 0c-.003906-10.050781 4.582032-19.550781 12.457032-25.796875 7.875-6.246093 18.167968-8.546875 27.953125-6.253906-8.625 8.433594-13.484375 19.988281-13.484375 32.050781s4.859375 23.613282 13.484375 32.046875c-9.785157 2.296875-20.082031-.007812-27.953125-6.253906-7.875-6.246094-12.460938-15.746094-12.457032-25.796875zm0 0"/><path d="m241.871094 54.863281h-160.089844c-3.316406 0-6 2.683594-6 6 0 3.3125 2.683594 6 6 6h160.089844c3.3125 0 6-2.6875 6-6 0-3.316406-2.6875-6-6-6zm0 0"/><path d="m280.953125 66.863281c3.316406 0 6-2.6875 6-6 0-3.316406-2.683594-6-6-6h-17.335937c-3.3125 0-6 2.683594-6 6 0 3.3125 2.6875 6 6 6zm0 0"/><path d="m81.78125 97.117188h7.476562c3.316407 0 6-2.6875 6-6 0-3.316407-2.683593-6-6-6h-7.476562c-3.316406 0-6 2.683593-6 6 0 3.3125 2.683594 6 6 6zm0 0"/><path d="m111.65625 85.117188c-3.316406 0-6 2.683593-6 6 0 3.3125 2.683594 6 6 6h99.960938c3.316406 0 6-2.6875 6-6 0-3.316407-2.683594-6-6-6zm0 0"/><path d="m227.367188 91.117188c0 3.3125 2.683593 6 6 6h47.585937c3.316406 0 6-2.6875 6-6 0-3.316407-2.683594-6-6-6h-47.585937c-3.316407 0-6 2.683593-6 6zm0 0"/></g><path d="m127.007812 156.25c-70.144531 0-127.007812 56.863281-127.007812 127.007812 0 70.144532 56.863281 127.007813 127.007812 127.007813 70.144532 0 127.011719-56.863281 127.011719-127.007813-.082031-70.113281-56.898437-126.929687-127.011719-127.007812zm0 242.015625c-63.515624 0-115.007812-51.492187-115.007812-115.007813 0-63.519531 51.492188-115.007812 115.007812-115.007812 63.519532 0 115.011719 51.492188 115.011719 115.007812-.074219 63.488282-51.523437 114.9375-115.011719 115.007813zm0 0" fill="#2eca8b"/><path d="m177.007812 277.257812h-44v-44c0-3.3125-2.683593-6-6-6-3.3125 0-6 2.6875-6 6v44h-44c-3.3125 0-6 2.6875-6 6s2.6875 6 6 6h44v44c0 3.3125 2.6875 6 6 6 3.316407 0 6-2.6875 6-6v-44h44c3.316407 0 6-2.6875 6-6s-2.683593-6-6-6zm0 0" fill="#2eca8b"/></svg>