<?xml version="1.0"?>
<svg xmlns="http://www.w3.org/2000/svg" id="Layer_1" data-name="Layer 1" viewBox="0 0 512 512" width="512" height="512"><title>Currency Exchange</title><path d="M182,81a34.038,34.038,0,0,1,34-34H176a34.038,34.038,0,0,0-34,34V95h40Z" style="fill:#d4e1f4"/><rect x="142" y="107" width="40" height="77" style="fill:#d4e1f4"/><path d="M182,431V405H142v26a34.038,34.038,0,0,0,34,34h40A34.038,34.038,0,0,1,182,431Z" style="fill:#d4e1f4"/><path d="M173.781,255.986a79.326,79.326,0,0,1,.626-9.986H142V393h40V291.772A81.676,81.676,0,0,1,173.781,255.986Z" style="fill:#d4e1f4"/><path d="M370,393H142V240H130V431a46.052,46.052,0,0,0,46,46H336a46.052,46.052,0,0,0,46-46V320H370Zm-34,72H176a34.038,34.038,0,0,1-34-34V405H370v26A34.038,34.038,0,0,1,336,465Z" style="fill:#2f55d4"/><path d="M336,35H176a46.052,46.052,0,0,0-46,46V191h12V107H305a6,6,0,0,0,0-12H142V81a34.038,34.038,0,0,1,34-34H336a34.038,34.038,0,0,1,34,34V95H356a6,6,0,0,0,0,12h14V272h12V81A46.052,46.052,0,0,0,336,35Z" style="fill:#2f55d4"/><path d="M335.81,107a6,6,0,0,0,0-12H324.7a6,6,0,0,0,0,12Z" style="fill:#2f55d4"/><path d="M256,414a21,21,0,1,0,21,21A21.024,21.024,0,0,0,256,414Zm0,30a9,9,0,1,1,9-9A9.01,9.01,0,0,1,256,444Z" style="fill:#2f55d4"/><path d="M256,200a56,56,0,1,0,56,56A56.063,56.063,0,0,0,256,200Zm0,100a44,44,0,1,1,44-44A44.049,44.049,0,0,1,256,300Z" style="fill:#2eca8b"/><path d="M256,236.972a6.38,6.38,0,0,1,6.373,6.373,6,6,0,0,0,12,0A18.39,18.39,0,0,0,262,226v-1.824a6,6,0,1,0-12,0V226a18.363,18.363,0,0,0,6,35.721,6.371,6.371,0,0,1,.087,12.741c-.029,0-.058,0-.087,0s-.058,0-.087,0a6.378,6.378,0,0,1-6.286-6.368,6,6,0,0,0-12,0A18.388,18.388,0,0,0,250,285.438v2.388a6,6,0,0,0,12,0v-2.388a18.362,18.362,0,0,0-6-35.719,6.374,6.374,0,0,1,0-12.747Z" style="fill:#2eca8b"/><path d="M425.456,247.824a6.173,6.173,0,0,0-6.646-1.3,6.1,6.1,0,0,0-3.81,5.543V266H337.594a79.626,79.626,0,0,0,.625-9.986,81.963,81.963,0,0,0-23.764-57.757c-.108-.128-.2-.271-.317-.391s-.26-.21-.388-.319a82.064,82.064,0,0,0-57.75-23.9c-14.558,0-28.234,4.351-40.107,10.351H97V170.359a6.117,6.117,0,0,0-10.4-4.242L41.784,210.9a6,6,0,0,0-.013,8.485l44.78,44.787a5.991,5.991,0,0,0,4.241,1.758,6.525,6.525,0,0,0,2.4-.457A6.1,6.1,0,0,0,97,259.934V246h77.407a79.326,79.326,0,0,0-.626,9.986,81.963,81.963,0,0,0,23.764,57.757c.108.128.2.271.317.391s.26.21.388.319a82.064,82.064,0,0,0,57.75,23.9A80.55,80.55,0,0,0,296.185,328H415v13.641a6.1,6.1,0,0,0,3.81,5.543,6.268,6.268,0,0,0,2.348.457,6.061,6.061,0,0,0,4.271-1.758l44.8-44.787a6,6,0,0,0,.007-8.485ZM90.787,234A5.846,5.846,0,0,0,85,240.028v5.42l-30.3-30.3,30.3-30.3v5.42A5.6,5.6,0,0,0,90.787,196H199.593c-.45,1-.9.978-1.343,1.413-.128.108-.267.263-.388.383s-.209.279-.317.407A80.545,80.545,0,0,0,176.786,234ZM262,325.954V324.3a6,6,0,1,0-12,0v1.645a69.89,69.89,0,0,1-39.2-16.264l1.144-1.144a6,6,0,0,0-8.485-8.484l-1.144,1.144A69.9,69.9,0,0,1,186.055,262H187.7a6,6,0,0,0,0-12h-1.644a69.9,69.9,0,0,1,16.263-39.2l1.144,1.144a6,6,0,1,0,8.485-8.484l-1.144-1.144A69.89,69.89,0,0,1,250,186.054V187.7a6,6,0,0,0,12,0v-1.645a69.89,69.89,0,0,1,39.2,16.264l-1.144,1.144a6,6,0,1,0,8.485,8.484l1.144-1.144A69.9,69.9,0,0,1,325.945,250H324.3a6,6,0,1,0,0,12h1.646A69.138,69.138,0,0,1,309.7,301.211l-1.158-1.157a6,6,0,0,0-8.485,8.484l1.169,1.169A69.646,69.646,0,0,1,262,325.954Zm165,1.2v-5.42A5.6,5.6,0,0,0,421.213,316H312.464c.5-1,.991-1.085,1.478-1.569.063-.058.135-.166.2-.227s.077-.12.122-.168A80.425,80.425,0,0,0,335.224,278h85.989A5.846,5.846,0,0,0,427,271.972v-5.42l30.3,30.3Z" style="fill:#2eca8b"/></svg>
