<?xml version="1.0" encoding="iso-8859-1"?>
<!-- Generator: Adobe Illustrator 19.0.0, SVG Export Plug-In . SVG Version: 6.00 Build 0)  -->
<svg version="1.1" id="Layer_1" xmlns="http://www.w3.org/2000/svg" xmlns:xlink="http://www.w3.org/1999/xlink" x="0px" y="0px"
	 viewBox="0 0 511.967 511.967" style="enable-background:new 0 0 511.967 511.967;" xml:space="preserve">
<g transform="translate(1 1)">
	<g>
		<path style="fill:#434C6D;" d="M144.048,510.967c-4.71,0-8.533-3.823-8.533-8.533V493.9c0-4.71,3.823-8.533,8.533-8.533
			s8.533,3.823,8.533,8.533v8.533C152.582,507.144,148.759,510.967,144.048,510.967"/>
		<path style="fill:#434C6D;" d="M246.448,510.967c-4.71,0-8.533-3.823-8.533-8.533V493.9c0-4.71,3.823-8.533,8.533-8.533
			s8.533,3.823,8.533,8.533v8.533C254.982,507.144,251.159,510.967,246.448,510.967"/>
	</g>
	<path style="fill:#7383BF;" d="M485.382,7.5H263.515c-4.71,0-8.533,3.823-8.533,8.533v76.8h0.077
		c27.093,0,48.017,23.825,44.51,50.697l-2.287,17.57h188.1c4.71,0,8.533-3.823,8.533-8.533V16.033
		C493.915,11.323,490.092,7.5,485.382,7.5"/>
	<path style="fill:#434C6D;" d="M485.382,169.6H287.604l3.536-27.167c1.354-10.384-1.83-20.85-8.737-28.718
		c-6.908-7.869-16.875-12.381-27.344-12.381h-8.5l-0.077-8.5v-76.8C246.482,6.641,254.123-1,263.515-1h221.867
		c9.393,0,17.033,7.641,17.033,17.034v136.533C502.415,161.959,494.775,169.6,485.382,169.6z M306.959,152.6h178.423l0.033-136.566
		L485.382,16H263.515l-0.03,69.009c12.217,1.957,23.442,8.092,31.692,17.489c10.136,11.543,14.808,26.9,12.82,42.131L306.959,152.6z
		"/>
	<path style="fill:#7383BF;" d="M298.596,126.967c1.297,5.257,1.724,10.829,0.973,16.563l-2.295,17.57h188.109
		c4.71,0,8.533-3.823,8.533-8.533v-25.6H298.596z"/>
	<path style="fill:#434C6D;" d="M485.382,169.6H287.591l3.55-27.171c0.579-4.421,0.311-8.937-0.797-13.424l-2.603-10.538h214.675
		v34.1C502.416,161.959,494.775,169.6,485.382,169.6z M306.956,152.6h178.426l0.022-17.133h-177.02
		c0.14,3.066,0.011,6.128-0.388,9.167L306.956,152.6z"/>
	<path style="fill:#7383BF;" d="M417.115,212.3h-85.333v-14.217c0-6.289,5.094-11.383,11.383-11.383h62.566
		c6.289,0,11.383,5.094,11.383,11.383V212.3H417.115z"/>
	<path style="fill:#434C6D;" d="M425.615,220.8H323.281v-22.717c0-10.964,8.92-19.883,19.884-19.883h62.566
		c10.964,0,19.884,8.919,19.884,19.883L425.615,220.8L425.615,220.8z M340.281,203.8h68.334v-5.717c0-1.59-1.294-2.883-2.884-2.883
		h-62.566c-1.59,0-2.884,1.293-2.884,2.883L340.281,203.8L340.281,203.8z"/>
	<polygon style="fill:#7383BF;" points="357.382,186.7 391.515,186.7 391.515,161.1 357.382,161.1 	"/>
	<path style="fill:#434C6D;" d="M400.015,195.2h-51.133v-42.6h51.133V195.2z M365.882,178.2h17.133v-8.6h-17.133V178.2z"/>
	<polygon style="fill:#845C46;" points="331.782,331.767 485.382,331.767 485.382,246.433 331.782,246.433 	"/>
	<path style="fill:#553323;" d="M493.882,340.267H323.281V237.934h170.601L493.882,340.267L493.882,340.267z M340.281,323.267
		h136.601v-68.333H340.281V323.267z"/>
	<polygon style="fill:#845C46;" points="331.782,417.1 485.382,417.1 485.382,331.767 331.782,331.767 	"/>
	<path style="fill:#553323;" d="M493.882,425.601H323.281V323.267h170.601L493.882,425.601L493.882,425.601z M340.281,408.601
		h136.601v-68.334H340.281V408.601z"/>
	<polygon style="fill:#845C46;" points="331.782,502.434 485.382,502.434 485.382,417.1 331.782,417.1 	"/>
	<path style="fill:#553323;" d="M493.882,510.934H323.281V408.601h170.601L493.882,510.934L493.882,510.934z M340.281,493.934
		h136.601v-68.333H340.281V493.934z"/>
	<g>
		<path style="fill:#D7B740;" d="M417.115,297.633h-17.067c-4.71,0-8.533-3.823-8.533-8.533s3.823-8.533,8.533-8.533h17.067
			c4.719,0,8.533,3.823,8.533,8.533C425.648,293.811,421.834,297.633,417.115,297.633"/>
		<path style="fill:#D7B740;" d="M417.115,382.967h-17.067c-4.71,0-8.533-3.823-8.533-8.533s3.823-8.533,8.533-8.533h17.067
			c4.719,0,8.533,3.823,8.533,8.533C425.648,379.144,421.834,382.967,417.115,382.967"/>
		<path style="fill:#D7B740;" d="M417.115,468.3h-17.067c-4.71,0-8.533-3.823-8.533-8.533s3.823-8.533,8.533-8.533h17.067
			c4.719,0,8.533,3.823,8.533,8.533S421.834,468.3,417.115,468.3"/>
	</g>
	<polygon style="fill:#845C46;" points="24.582,502.434 58.715,502.434 58.715,246.433 24.582,246.433 	"/>
	<path style="fill:#553323;" d="M67.215,510.934H16.082v-273h51.133V510.934z M33.082,493.934h17.133v-239H33.082V493.934z"/>
	<g>
		<polygon style="fill:#D1D4D1;" points="126.982,493.9 263.515,493.9 263.515,468.3 126.982,468.3 		"/>
		<path style="fill:#D1D4D1;" d="M195.248,434.167c-4.71,0-8.533-3.823-8.533-8.533v-128c0-4.71,3.823-8.533,8.533-8.533
			s8.533,3.823,8.533,8.533v128C203.782,430.344,199.959,434.167,195.248,434.167"/>
	</g>
	<path style="fill:#88C057;" d="M280.582,357.367H109.915c0-18.85,15.283-34.133,34.133-34.133h102.4
		C265.299,323.233,280.582,338.517,280.582,357.367"/>
	<polygon style="fill:#845C46;" points="290.599,212.3 286.145,246.433 502.448,246.433 502.448,212.3 	"/>
	<path style="fill:#553323;" d="M510.948,254.934H276.463l6.673-51.133h227.812V254.934z M295.826,237.934h198.121V220.8H298.062
		L295.826,237.934z"/>
	<polygon style="fill:#845C46;" points="101.352,212.3 7.519,212.3 7.519,246.433 105.806,246.433 	"/>
	<path style="fill:#553323;" d="M115.488,254.934H-0.981V203.8h109.795L115.488,254.934z M16.019,237.934h80.106L93.889,220.8
		h-77.87C16.019,220.8,16.019,237.934,16.019,237.934z"/>
	<g>
		<path style="fill:#434C6D;" d="M280.582,58.7c-2.185,0-4.369-0.836-6.033-2.5c-3.337-3.337-3.337-8.73,0-12.066l17.067-17.067
			c3.337-3.337,8.73-3.337,12.066,0s3.337,8.73,0,12.066L286.615,56.2C284.951,57.864,282.766,58.7,280.582,58.7"/>
		<path style="fill:#434C6D;" d="M297.648,84.3c-2.185,0-4.369-0.836-6.033-2.5c-3.337-3.337-3.337-8.73,0-12.066L325.749,35.6
			c3.337-3.337,8.73-3.337,12.066,0s3.337,8.73,0,12.066L303.681,81.8C302.017,83.464,299.833,84.3,297.648,84.3"/>
	</g>
	<path style="fill:#23A24D;" d="M245.099,297.633h-98.244c-24.508,0-45.218-18.176-48.384-42.479L83.376,139.4
		c-3.814-29.201,18.927-55.1,48.375-55.1h128.444c29.457,0,52.19,25.899,48.384,55.1l-15.095,115.755
		C290.309,279.457,269.607,297.633,245.099,297.633"/>
	<path style="fill:#AEB7AE;" d="M220.848,468.3h-51.2v-25.634c0-9.404,7.629-17.033,17.033-17.033h17.135
		c9.404,0,17.033,7.629,17.033,17.033V468.3H220.848z"/>
</g>
<g>
</g>
<g>
</g>
<g>
</g>
<g>
</g>
<g>
</g>
<g>
</g>
<g>
</g>
<g>
</g>
<g>
</g>
<g>
</g>
<g>
</g>
<g>
</g>
<g>
</g>
<g>
</g>
<g>
</g>
</svg>
