<svg height="451pt" viewBox="0 0 451.844 451" width="451pt" xmlns="http://www.w3.org/2000/svg"><path d="m72.234375 12.421875h-30c-16.6875.019531-30.214844 13.542969-30.234375 30.230469v183.261718h30v-183.261718c.019531-16.6875 13.546875-30.210938 30.234375-30.230469zm0 0" fill="#d4e1f4"/><path d="m42 263.914062v-26h-30v26c.015625 16.691407 13.542969 30.21875 30.234375 30.238282h30c-16.691406-.019532-30.21875-13.546875-30.234375-30.238282zm0 0" fill="#d4e1f4"/><path d="m344.492188.421875h-302.257813c-23.3125.027344-42.2070312 18.917969-42.234375 42.230469v221.261718c.0234375 23.316407 18.917969 42.214844 42.234375 42.238282h145.128906v65.691406h-68.851562c-3.3125 0-6 2.683594-6 6 0 3.3125 2.6875 6 6 6h154.039062c3.3125 0 6-2.6875 6-6 0-3.316406-2.6875-6-6-6h-73.1875v-65.691406h108.363281c3.3125 0 6-2.683594 6-6 0-3.3125-2.6875-6-6-6h-265.492187c-16.691406-.019532-30.214844-13.542969-30.234375-30.234375v-26h295.726562v-12h-295.726562v-183.265625c.019531-16.6875 13.546875-30.210938 30.234375-30.230469h302.257813c16.691406.019531 30.214843 13.542969 30.238281 30.230469v153.421875c0 3.316406 2.6875 6 6 6s6-2.683594 6-6v-153.421875c-.03125-23.3125-18.921875-42.203125-42.238281-42.230469zm0 0" fill="#2f55d4"/><path d="m228.882812 133.679688c-11.265624 0-20.398437 9.132812-20.398437 20.398437s9.132813 20.402344 20.398437 20.402344c11.265626 0 20.398438-9.136719 20.398438-20.402344 0-.753906-.039062-1.507813-.121094-2.253906 0-.019531-.007812-.039063-.011718-.054688v-83.855469c0-3.910156-1.746094-7.613281-4.761719-10.101562s-6.984375-3.5-10.824219-2.757812l-56.789062 9.664062c-.0625.011719-.121094.019531-.183594.035156-6.097656 1.25-10.484375 6.609375-10.5 12.835938v66.964844c-8.191406-3.714844-17.84375-1.625-23.769532 5.140624-5.921874 6.761719-6.71875 16.609376-1.960937 24.238282 4.761719 7.628906 13.953125 11.242187 22.632813 8.894531 8.679687-2.347656 14.800781-10.101563 15.066406-19.089844.019531-.199219.03125-.40625.03125-.613281v-59.878906l59.0625-10.429688v42.625c-2.601563-1.160156-5.421875-1.757812-8.269532-1.761718zm0 28.804687c-4.515624 0-8.222656-3.574219-8.390624-8.085937-.167969-4.511719 3.261718-8.351563 7.765624-8.691407 4.503907-.335937 8.46875 2.945313 8.976563 7.433594.035156.3125.050781.625.050781.941406-.003906 4.640625-3.761718 8.398438-8.402344 8.402344zm-71.195312 9.039063c-4.636719 0-8.398438-3.761719-8.398438-8.402344 0-4.636719 3.761719-8.398438 8.398438-8.398438 4.640625 0 8.402344 3.761719 8.402344 8.398438-.007813 4.636718-3.765625 8.394531-8.402344 8.402344zm20.402344-80.460938v-13.46875c0-.503906.339844-.941406.828125-1.066406l56.734375-9.65625c.0625-.007813.121094-.019532.183594-.03125.324218-.066406.65625.019531.910156.226562.257812.207032.402344.519532.40625.847656v12.714844zm0 0" fill="#2f55d4"/><g fill="#2eca8b"><path d="m418.222656 190.074219h-82.871094c-18.5625.023437-33.601562 15.066406-33.625 33.625v193.363281c.023438 18.5625 15.0625 33.601562 33.625 33.625h82.871094c18.558594-.023438 33.601563-15.0625 33.621094-33.625v-193.363281c-.019531-18.558594-15.0625-33.601563-33.621094-33.625zm21.621094 44.457031v148.910156h-126.117188v-148.910156zm-104.496094-32.457031h82.875c11.480469.015625 20.957032 8.992187 21.589844 20.457031h-126.054688c.632813-11.464844 10.109376-20.441406 21.589844-20.457031zm82.871094 236.613281h-82.871094c-11.933594-.015625-21.609375-9.6875-21.621094-21.625v-21.621094h126.117188v21.621094c-.015625 11.9375-9.6875 21.609375-21.621094 21.625zm0 0"/><path d="m389.558594 411.0625h-25.550782c-3.3125 0-6 2.6875-6 6s2.6875 6 6 6h25.550782c3.316406 0 6-2.6875 6-6s-2.683594-6-6-6zm0 0"/><path d="m350.085938 370.148438c9.03125-.015626 16.4375-7.164063 16.769531-16.1875.023437-.203126.03125-.410157.03125-.617188v-43.644531l41.300781-7.296875v28.03125c-7.113281-2.082032-14.75.734375-18.804688 6.9375-4.058593 6.199218-3.578124 14.324218 1.179688 20.007812s12.671875 7.582032 19.488281 4.679688c6.820313-2.902344 10.9375-9.925782 10.136719-17.292969v-62.824219c0-3.378906-1.507812-6.582031-4.113281-8.734375-2.605469-2.148437-6.035157-3.023437-9.351563-2.386719l-42.578125 7.246094c-.058593.011719-.121093.023438-.183593.035156-5.273438 1.082032-9.0625 5.714844-9.074219 11.097657v48.054687c-6.3125-1.882812-13.140625.097656-17.464844 5.0625-4.328125 4.964844-5.355469 12-2.625 17.996094 2.726563 5.992188 8.703125 9.839844 15.289063 9.839844zm53.398437-18.78125c-2.578125 0-4.699219-2.042969-4.792969-4.621094-.09375-2.582032 1.867188-4.773438 4.441406-4.964844 2.574219-.191406 4.839844 1.6875 5.125 4.253906.019532.175782.03125.351563.027344.53125 0 2.652344-2.152344 4.800782-4.804687 4.800782zm4.703125-68.621094v7.472656l-41.300781 7.296875v-7.742187zm-58.101562 65.800781c2.652343 0 4.800781 2.148437 4.800781 4.796875 0 2.652344-2.148438 4.800781-4.800781 4.800781-2.652344 0-4.800782-2.148437-4.800782-4.800781.003906-2.648438 2.152344-4.796875 4.800782-4.800781zm0 0"/></g></svg>