<svg height="392pt" viewBox="0 -6 392 391" width="392pt" xmlns="http://www.w3.org/2000/svg"><path d="m196.054688 14.183594-70.949219 57.566406h20l61.09375-49.570312zm0 0" fill="#d4e1f4"/><path d="m32 184.070312-20-12.34375v175.007813c0 3.585937.949219 7.113281 2.75 10.214844l17.25-12.757813zm0 0" fill="#d4e1f4"/><path d="m34.414062 171.351562 31.179688-26.25v-26.15625l-49.179688 41.40625 49.179688 30.34375v-.105468zm0 0" fill="#d4e1f4"/><path d="m177.378906 273.773438-16.355468-10.09375-137.300782 101.5625c2.746094 1.316406 5.75 2.003906 8.792969 2.003906h30c-3.042969 0-6.046875-.6875-8.792969-2.003906zm0 0" fill="#d4e1f4"/><path d="m391.953125 160.597656c-.007813-.0625-.011719-.128906-.019531-.191406-.035156-.230469-.082032-.460938-.144532-.691406-.007812-.035156-.019531-.070313-.03125-.105469-.054687-.195313-.125-.386719-.199218-.578125-.023438-.058594-.046875-.113281-.074219-.171875-.082031-.1875-.171875-.367187-.273437-.542969-.019532-.03125-.03125-.066406-.050782-.101562-.125-.207032-.261718-.40625-.410156-.597656-.023438-.03125-.050781-.0625-.074219-.089844-.128906-.15625-.261719-.304688-.402343-.445313-.050782-.050781-.101563-.101562-.15625-.152343-.128907-.121094-.261719-.238282-.398438-.347657-.054688-.042969-.109375-.089843-.164062-.132812-.019532-.011719-.035157-.027344-.050782-.039063l-63.097656-45.367187v-12.070313c-.015625-15.027344-12.195312-27.207031-27.222656-27.222656h-10.710938l-88.757812-69.960938c-2.203125-1.7382808-5.316406-1.7148432-7.496094.050782l-86.160156 69.910156h-13.242188c-15.027344.015625-27.207031 12.195312-27.222656 27.222656v4.285156l-63.457031 53.433594c-1.355469 1.136719-2.136719 2.816406-2.136719 4.585938v185.457031c-.00390625 8.277344 3.164062 16.242187 8.851562 22.261719.273438.351562.589844.675781.9375.957031 6.0625 5.960937 14.226563 9.296875 22.726563 9.292969h326.96875c17.949219-.019532 32.496094-14.5625 32.515625-32.511719v-185.457031c0-.039063-.007812-.074219-.007812-.113282-.003907-.191406-.015626-.378906-.039063-.566406zm-150.253906 96.53125 138.300781-85.113281v174.71875c-.003906 3.667969-.996094 7.269531-2.875 10.421875zm133.480469-96.238281-48.773438 30.019531v-65.089844zm-179.125-146.707031 73.035156 57.566406h-143.984375zm-103.238282 69.566406h16.660156l.332032.410156.5-.410156h174l.304687.238281.191407-.238281h14.375c8.40625.007812 15.214843 6.820312 15.226562 15.222656v13.335938c-.304688 1.074218-.304688 2.210937 0 3.285156v82.699219l-107.636719 66.246093c-6.59375 4.089844-14.9375 4.082032-21.527343-.011718l-107.648438-66.425782v-99.128906c.007812-8.402344 6.816406-15.214844 15.222656-15.222656zm-78.0625 273.199219c-1.804687-3.105469-2.753906-6.628907-2.753906-10.214844v-175l138.019531 85.164063zm50.839844-166.253907-49.179688-30.34375 49.179688-41.40625zm-33.078125 176.550782c-3.042969 0-6.046875-.6875-8.789063-2.003906l137.296876-101.5625 17.921874 11.058593c10.445313 6.492188 23.667969 6.5 34.117188.019531l17.625-10.847656 137.34375 101.449219c-2.675781 1.242187-5.59375 1.886719-8.546875 1.886719zm0 0" fill="#2f55d4"/><g fill="#2eca8b"><path d="m271.851562 173.183594h-26.828124c-3.316407 0-6 2.683594-6 6 0 3.3125 2.683593 6 6 6h26.828124c3.3125 0 6-2.6875 6-6 0-3.316406-2.6875-6-6-6zm0 0"/><path d="m229.699219 179.183594c0-3.316406-2.683594-6-6-6h-103.550781c-3.3125 0-6 2.683594-6 6 0 3.3125 2.6875 6 6 6h103.550781c3.316406 0 6-2.6875 6-6zm0 0"/><path d="m215.023438 215.183594h56.828124c3.3125 0 6-2.6875 6-6 0-3.316406-2.6875-6-6-6h-56.828124c-3.316407 0-6 2.683594-6 6 0 3.3125 2.683593 6 6 6zm0 0"/><path d="m120.148438 203.183594c-3.3125 0-6 2.683594-6 6 0 3.3125 2.6875 6 6 6h73.550781c3.316406 0 6-2.6875 6-6 0-3.316406-2.683594-6-6-6zm0 0"/><path d="m120.148438 125.183594h33.550781c3.316406 0 6-2.6875 6-6 0-3.316406-2.683594-6-6-6h-33.550781c-3.3125 0-6 2.683594-6 6 0 3.3125 2.6875 6 6 6zm0 0"/><path d="m271.851562 143.183594h-106.828124c-3.316407 0-6 2.683594-6 6 0 3.3125 2.683593 6 6 6h106.828124c3.3125 0 6-2.6875 6-6 0-3.316406-2.6875-6-6-6zm0 0"/><path d="m120.148438 155.183594h23.550781c3.316406 0 6-2.6875 6-6 0-3.316406-2.683594-6-6-6h-23.550781c-3.3125 0-6 2.683594-6 6 0 3.3125 2.6875 6 6 6zm0 0"/></g></svg>