<?xml version="1.0"?>
<svg xmlns="http://www.w3.org/2000/svg" id="Layer_1" data-name="Layer 1" viewBox="0 0 512 512" width="512" height="512"><title>Marketing chart Rupees</title><path d="M58,103V70.45a33.448,33.448,0,0,1,2.292-12.14A34.893,34.893,0,0,0,38,90.45V123H386V103Z" style="fill:#d4e1f4"/><path d="M92.5,377C73.752,377,58,361.868,58,343.12V135H38V363.12C38,381.868,53.752,397,72.5,397H297.8a93.4,93.4,0,0,1,3.826-20Z" style="fill:#d4e1f4"/><path d="M411.5,466.5a81.934,81.934,0,0,1-67.078-129.078A81.96,81.96,0,1,0,458.578,451.578,81.521,81.521,0,0,1,411.5,466.5Z" style="fill:#d4e1f4"/><path d="M96.229,286.022a27.333,27.333,0,0,0,21.245-10.136l29.6,20.612a27.373,27.373,0,1,0,53.7,1.86L223.9,253.772a27.342,27.342,0,0,0,42.642-12.68l35.166,16.357a27.391,27.391,0,1,0,1.087-12.729l-35.008-16.283a27.371,27.371,0,1,0-52.047,15.006l-21.384,41.234a27.324,27.324,0,0,0-41.972.893L122.85,265.007a27.373,27.373,0,1,0-26.621,21.015ZM328.771,237.96a15.376,15.376,0,1,1-15.227,17.393,5.975,5.975,0,0,0-.067-3.6A15.4,15.4,0,0,1,328.771,237.96Zm-88.1-21.177a15.376,15.376,0,1,1-15.375,15.376A15.393,15.393,0,0,1,240.669,216.783Zm-66.926,70.505a15.445,15.445,0,1,1-14.809,11.3,6.042,6.042,0,0,0,.6-.723,5.967,5.967,0,0,0,1.064-3.138A15.364,15.364,0,0,1,173.743,287.288ZM96.229,243.271a15.376,15.376,0,1,1-15.376,15.375A15.392,15.392,0,0,1,96.229,243.271Z" style="fill:#2eca8b"/><path d="M426.5,357a6,6,0,0,0,0-12h-70a6,6,0,0,0,0,12h20.03c11.182,0,20.6,7,23.276,18H356.5a6,6,0,0,0,0,12h43.306a24.457,24.457,0,0,1-23.276,18H356.5a5.935,5.935,0,0,0-4.121,10.27l50.064,47.294a5.983,5.983,0,0,0,8.242-8.675L371.585,417h4.945a36.077,36.077,0,0,0,35.525-30H426.5a6,6,0,0,0,0-12H412.055a35.4,35.4,0,0,0-8.7-18Z" style="fill:#2eca8b"/><path d="M352.5,44H302V19.5a6,6,0,0,0-12,0V44H135V19.5a6,6,0,0,0-12,0V44H72.5C47.136,44,26,65.085,26,90.45V363.12C26,388.485,47.136,409,72.5,409h231a6,6,0,0,0,0-12H72.5C53.752,397,38,381.868,38,363.12V135H386V316.5a6,6,0,0,0,12,0V90.45C398,65.085,377.864,44,352.5,44ZM386,123H38V90.45C38,71.7,53.752,56,72.5,56H123V81.4a6,6,0,0,0,12,0V56H290V81.4a6,6,0,0,0,12,0V56h50.5C371.248,56,386,71.7,386,90.45Z" style="fill:#2f55d4"/><path d="M391.5,310.5a94,94,0,1,0,94,94A94.106,94.106,0,0,0,391.5,310.5Zm0,176a82,82,0,1,1,82-82A82.093,82.093,0,0,1,391.5,486.5Z" style="fill:#2eca8b"/></svg>
