<svg id="Layer_1" enable-background="new 0 0 256 256" height="512" viewBox="0 0 256 256" width="512" xmlns="http://www.w3.org/2000/svg"><path d="m48 232v-178c0-8.837 7.163-16 16-16h128c8.837 0 16 7.163 16 16v178c0 8.837-7.163 16-16 16h-128c-8.837 0-16-7.163-16-16z" fill="#6bdddd"/><path d="m60 228v-170c0-4.418 3.582-8 8-8h120c4.418 0 8 3.582 8 8v170c0 4.418-3.582 8-8 8h-120c-4.418 0-8-3.582-8-8z" fill="#e0ebfc"/><path d="m192 250h-128c-9.925 0-18-8.075-18-18v-178c0-9.925 8.075-18 18-18h128c9.925 0 18 8.075 18 18v178c0 9.925-8.075 18-18 18zm-128-210c-7.72 0-14 6.28-14 14v178c0 7.72 6.28 14 14 14h128c7.72 0 14-6.28 14-14v-178c0-7.72-6.28-14-14-14z" fill="#3762cc"/><path d="m188 238h-120c-5.514 0-10-4.486-10-10v-170c0-5.514 4.486-10 10-10h120c5.514 0 10 4.486 10 10v170c0 5.514-4.486 10-10 10zm-120-186c-3.309 0-6 2.691-6 6v170c0 3.309 2.691 6 6 6h120c3.309 0 6-2.691 6-6v-170c0-3.309-2.691-6-6-6z" fill="#3762cc"/><path d="m133.273 72.824 8.828 17.888c.857 1.736 2.512 2.939 4.428 3.217l19.74 2.868c4.823.701 6.749 6.628 3.259 10.031l-14.284 13.924c-1.386 1.351-2.018 3.297-1.691 5.205l3.372 19.66c.824 4.804-4.218 8.467-8.532 6.199l-17.656-9.282c-1.713-.901-3.76-.901-5.473 0l-17.656 9.282c-4.314 2.268-9.356-1.395-8.532-6.199l3.372-19.66c.327-1.908-.305-3.854-1.691-5.205l-14.284-13.924c-3.49-3.402-1.564-9.33 3.259-10.031l19.74-2.868c1.915-.278 3.571-1.481 4.428-3.217l8.828-17.888c2.156-4.371 8.388-4.371 10.545 0z" fill="#ffea92"/><g fill="#a4c9ff"><path d="m96.5 177.553h-22.5c-2.209 0-4-1.791-4-4s1.791-4 4-4h22.5c2.209 0 4 1.791 4 4s-1.791 4-4 4z"/><path d="m182 177.553h-72c-2.209 0-4-1.791-4-4s1.791-4 4-4h72c2.209 0 4 1.791 4 4s-1.791 4-4 4z"/><path d="m96.5 199.553h-22.5c-2.209 0-4-1.791-4-4s1.791-4 4-4h22.5c2.209 0 4 1.791 4 4s-1.791 4-4 4z"/><path d="m182 199.553h-72c-2.209 0-4-1.791-4-4s1.791-4 4-4h72c2.209 0 4 1.791 4 4s-1.791 4-4 4z"/><path d="m96.5 221.553h-22.5c-2.209 0-4-1.791-4-4s1.791-4 4-4h22.5c2.209 0 4 1.791 4 4s-1.791 4-4 4z"/><path d="m182 221.553h-72c-2.209 0-4-1.791-4-4s1.791-4 4-4h72c2.209 0 4 1.791 4 4s-1.791 4-4 4z"/></g><path d="m139.879 53.019 3.498-40.676c.2-2.336-1.641-4.343-3.986-4.343h-7.891-7-7.891c-2.344 0-4.186 2.007-3.985 4.343l3.498 40.676c.356 4.137 3.818 7.315 7.971 7.315h7.817c4.151-.001 7.613-3.178 7.969-7.315z" fill="#4671c6"/><path d="m131.908 62.333h-7.816c-5.232 0-9.516-3.931-9.963-9.144l-3.498-40.676c-.144-1.67.425-3.336 1.558-4.571 1.133-1.234 2.744-1.942 4.419-1.942h22.783c1.676 0 3.286.708 4.42 1.942 1.133 1.235 1.701 2.901 1.559 4.571l-3.499 40.676c-.447 5.213-4.73 9.144-9.963 9.144zm-15.3-52.333c-.566 0-1.09.229-1.473.647-.384.418-.568.959-.52 1.524l3.497 40.676c.27 3.127 2.839 5.485 5.979 5.485h7.816c3.14 0 5.709-2.358 5.979-5.485l3.498-40.676c.048-.565-.137-1.106-.521-1.524-.383-.418-.906-.647-1.473-.647z" fill="#3762cc"/><path d="m104.863 154.5c-1.627 0-3.243-.51-4.624-1.514-2.445-1.776-3.646-4.729-3.136-7.708l3.372-19.66c.217-1.259-.201-2.543-1.116-3.436l-14.284-13.922c-2.163-2.109-2.928-5.205-1.994-8.079.934-2.873 3.371-4.929 6.361-5.363l19.741-2.868c1.264-.184 2.356-.977 2.921-2.122l8.828-17.888c1.338-2.71 4.046-4.394 7.067-4.394s5.729 1.684 7.067 4.394l8.828 17.888c.564 1.146 1.657 1.938 2.922 2.122l19.739 2.868c2.991.435 5.429 2.49 6.362 5.363.934 2.874.169 5.97-1.994 8.078l-14.284 13.925c-.915.892-1.333 2.176-1.116 3.435l3.372 19.66c.511 2.979-.69 5.932-3.136 7.708-2.444 1.774-5.625 2.005-8.299.6l-17.656-9.282c-1.131-.594-2.48-.596-3.611 0l-17.656 9.282c-1.162.61-2.422.913-3.674.913zm23.137-82.954c-1.511 0-2.812.809-3.479 2.163l-8.828 17.888c-1.148 2.326-3.366 3.938-5.934 4.312l-19.741 2.868c-1.494.217-2.665 1.204-3.132 2.641s-.1 2.924.982 3.979l14.284 13.923c1.857 1.813 2.704 4.42 2.267 6.976l-3.372 19.66c-.256 1.489.321 2.908 1.543 3.796 1.222.89 2.749.999 4.087.295l17.656-9.282c2.297-1.207 5.037-1.207 7.334 0l17.656 9.282c1.338.702 2.865.595 4.087-.295 1.222-.888 1.799-2.307 1.543-3.796l-3.372-19.66c-.438-2.556.409-5.163 2.267-6.975l14.284-13.925c1.082-1.054 1.449-2.541.982-3.978s-1.638-2.424-3.133-2.641l-19.739-2.868c-2.568-.373-4.786-1.985-5.935-4.312l-8.828-17.888c-.667-1.355-1.968-2.163-3.479-2.163z" fill="#3762cc"/><path d="m151 152.504h-46v-6.583c0-11.398 9.24-20.638 20.638-20.638h4.724c11.398 0 20.638 9.24 20.638 20.638z" fill="#f9a7a7"/><path d="m151 154.505h-46c-1.104 0-2-.896-2-2v-6.584c0-12.482 10.155-22.638 22.638-22.638h4.725c12.482 0 22.638 10.155 22.638 22.638v6.584c-.001 1.104-.897 2-2.001 2zm-44-4h42v-4.584c0-10.277-8.36-18.638-18.638-18.638h-4.725c-10.277 0-18.638 8.36-18.638 18.638v4.584z" fill="#3762cc"/><circle cx="128" cy="112.027" fill="#f9cfcf" r="18.355"/><path d="m128 132.382c-11.224 0-20.354-9.132-20.354-20.355s9.13-20.355 20.354-20.355 20.354 9.131 20.354 20.354-9.13 20.356-20.354 20.356zm0-36.71c-9.018 0-16.354 7.337-16.354 16.354 0 9.019 7.337 16.355 16.354 16.355s16.354-7.337 16.354-16.355c0-9.017-7.336-16.354-16.354-16.354z" fill="#3762cc"/></svg>