<svg height="491pt" viewBox="1 -11 491.99944 491" width="491pt" xmlns="http://www.w3.org/2000/svg"><g fill="#d4e1f4"><path d="m103.371094 255.832031-33.421875-11.292969-45.464844-45.464843-10 10 45.464844 45.464843 33.421875 11.292969 121.484375-121.484375zm0 0"/><path d="m118.257812 158.394531c1.699219-1.292969 3.316407-2.6875 4.851563-4.171875 16.835937-16.3125 20.300781-42.023437 9.019531-62.792968l-10 10c9.992188 18.105468 8.476563 40.378906-3.871094 56.964843zm0 0"/><path d="m122.636719 297.226562-11.035157-32.65625-10 10 11.035157 32.65625 146.863281 146.863282 10-10zm0 0"/><path d="m308.277344 345.394531c-1.671875 1.671875-3.234375 3.453125-4.675782 5.324219 17.863282-13.839844 42.582032-14.671875 61.339844-2.070312l10-10c-20.957031-14.058594-48.949218-11.222657-66.664062 6.746093zm0 0"/></g><path d="m338.144531 103.65625c-.65625-.652344-1.449219-1.144531-2.324219-1.441406l-35.085937-11.851563-11.851563-35.082031c-.292968-.875-.789062-1.671875-1.441406-2.324219l-50.699218-50.699219c-2.34375-2.3437495-6.140626-2.3437495-8.484376 0l-43.53125 43.53125c-2.019531 2.019532-2.335937 5.1875-.75 7.570313 5.488282 8.191406 7.914063 18.058594 6.855469 27.863281l-28.492187-28.488281c-2.339844-2.34375-6.140625-2.34375-8.484375 0l-43.527344 43.527344c-2.023437 2.023437-2.335937 5.191406-.75 7.570312 11.054687 16.585938 9.027344 38.355469-4.816406 51.769531-14.199219 13.757813-36 15.855469-51.839844 5-2.378906-1.636718-5.589844-1.339843-7.632813.699219l-43.53125 43.535157c-2.34375 2.34375-2.34375 6.144531 0 8.488281l50.699219 50.699219c.652344.652343 1.449219 1.144531 2.320313 1.441406l35.085937 11.855468 11.851563 35.082032c.296875.875.789062 1.667968 1.441406 2.320312l152.101562 152.101563c2.34375 2.34375 6.140626 2.34375 8.484376 0l39.945312-39.945313c2.195312-2.195312 2.355469-5.699218.367188-8.085937-13.347657-16.273438-12.179688-40.019531 2.707031-54.90625 14.882812-14.882813 38.628906-16.054688 54.90625-2.707031 2.382812 1.988281 5.886719 1.828124 8.082031-.367188l46.089844-46.089844c2.34375-2.339844 2.34375-6.140625 0-8.484375l-4.910156-4.910156c9.199218.183594 18.0625 3.492187 25.136718 9.378906 2.386719 1.984375 5.890625 1.824219 8.085938-.367187l46.089844-46.089844c2.34375-2.34375 2.34375-6.144531 0-8.488281zm-141.617187-52.699219 35.972656-35.972656 45.464844 45.464844 11.289062 33.421875-51 51-11.917968-4.035156-11.851563-35.082032c-.296875-.875-.789063-1.667968-1.441406-2.320312l-12.0625-12.0625c3.886719-13.53125 2.289062-28.050782-4.453125-40.414063zm-182.042969 158.117188 35.941406-35.9375c20.027344 11.007812 45.648438 7.589843 62.683594-8.914063 16.835937-16.308594 20.300781-42.019531 9.019531-62.789062l35.972656-35.972656 45.460938 45.464843 11.292969 33.421875-121.484375 121.484375-33.421875-11.292969zm350.457031 139.574219c-21.003906-13.867188-48.867187-11.046876-66.664062 6.75-17.800782 17.796874-20.621094 45.660156-6.75 66.664062l-32.027344 32.027344-146.863281-146.863282-11.035157-32.65625 122-121.992187 32.652344 11.03125 146.859375 146.867187zm74.398438-50.46875c-11.578125-7.738282-25.753906-10.570313-39.417969-7.871094l-136.179687-136.171875c-.652344-.652344-1.449219-1.144531-2.324219-1.441407l-10.472657-3.539062 47.046876-47.046875 32.65625 11.027344 146.867187 146.863281zm0 0" fill="#2f55d4"/><path d="m193.878906 319.539062h.066406l28.3125-.113281 16.171876 23.113281c1.117187 1.609376 2.945312 2.578126 4.90625 2.597657 2.640624.078125 5-1.644531 5.730468-4.183594l8.402344-27.066406 27.074219-8.402344c2.183593-.675781 3.792969-2.539063 4.148437-4.796875.355469-2.261719-.605468-4.523438-2.476562-5.839844l-23.011719-16.167968.3125-28.316407c.027344-2.265625-1.230469-4.355469-3.246094-5.394531-2.015625-1.042969-4.445312-.859375-6.277343.476562l-22.753907 16.515626-27.164062-9.054688c-2.15625-.71875-4.53125-.15625-6.140625 1.449219-1.605469 1.609375-2.167969 3.984375-1.449219 6.140625l9.054687 27.164062-16.519531 22.753906c-1.328125 1.757813-1.515625 4.132813-.472656 6.078126 1.054687 1.945312 3.121094 3.125 5.332031 3.046874zm24.019532-32.746093-6.234376-18.707031 18.707032 6.234374c1.835937.613282 3.855468.300782 5.421875-.835937l15.59375-11.320313-.214844 19.542969c-.023437 1.976563.929687 3.835938 2.550781 4.972657l15.597656 10.964843-18.421874 5.722657c-1.886719.585937-3.363282 2.0625-3.949219 3.949218l-5.71875 18.429688-10.964844-15.628906c-1.121094-1.609376-2.953125-2.570313-4.914063-2.578126h-.066406l-19.539062.242188 11.320312-15.582031c1.136719-1.558594 1.445313-3.574219.832032-5.40625zm0 0" fill="#2eca8b"/></svg>