<?xml version="1.0"?>
<svg xmlns="http://www.w3.org/2000/svg" id="Layer_1" data-name="Layer 1" viewBox="0 0 512 512" width="512" height="512"><title>Pay online</title><path d="M127.725,37h-20C83.335,37,63,56.984,63,81.374V84H83V81.374C83,56.984,103.335,37,127.725,37Z" style="fill:#d4e1f4"/><path d="M83,433.008V389H63v44.008C63,457.4,83.335,477,107.725,477h20C103.335,477,83,457.4,83,433.008Z" style="fill:#d4e1f4"/><rect x="63" y="96" width="20" height="281" style="fill:#d4e1f4"/><path d="M262.922,262.475l27.113-16.045,13.515-30.482a6,6,0,0,0-1.485-6.9,99.838,99.838,0,0,1,56.61-173.784q-4.95-.5-10.033-.5a99.855,99.855,0,0,0-66.577,174.286,6,6,0,0,1,1.485,6.9Z" style="fill:#d4e1f4"/><path d="M258.425,489C289.433,489,315,464.015,315,433.008V243H303V377H265.636a83,83,0,0,0-165.121,0H63V96H253V84H63V81.374C63,56.984,83.335,37,107.725,37h150.7a44.142,44.142,0,0,1,30.224,12.006l8.2-8.8A56.061,56.061,0,0,0,258.425,25h-150.7C76.718,25,51,50.367,51,81.374V433.008C51,464.015,76.718,489,107.725,489Zm-75.35-174.444A71.2,71.2,0,0,1,253.542,377H112.609A71.2,71.2,0,0,1,183.075,314.556ZM63,433.008V389H303v44.008C303,457.4,282.816,477,258.425,477h-150.7C83.335,477,63,457.4,63,433.008Z" style="fill:#2f55d4"/><path d="M159.843,439h46.465a6,6,0,0,0,0-12H159.843a6,6,0,1,0,0,12Z" style="fill:#2f55d4"/><path d="M135.52,237.83A48.778,48.778,0,1,0,184.3,189.052,48.832,48.832,0,0,0,135.52,237.83Zm85.555,0A36.778,36.778,0,1,1,184.3,201.052,36.819,36.819,0,0,1,221.075,237.83Z" style="fill:#2f55d4"/><path d="M348.642,22.759a111.855,111.855,0,0,0-77.8,192.235l-26.5,59.766a6,6,0,0,0,8.54,7.6l66.948-39.617A111.874,111.874,0,1,0,348.642,22.759Zm0,211.732a99.526,99.526,0,0,1-27.971-3.979,6,6,0,0,0-4.741.594l-53.008,31.369,20.628-46.527a6,6,0,0,0-1.485-6.9,99.853,99.853,0,1,1,66.577,25.446Z" style="fill:#2eca8b"/><path d="M385.936,89H386a5.883,5.883,0,0,0,6-5.8,5.757,5.757,0,0,0-5.711-5.995L337,76.714v.018l-20.072-.2a6.065,6.065,0,0,0-6.177,5.94,5.956,5.956,0,0,0,5.879,6.067l19.82.214a23.568,23.568,0,0,1,16.712,7.139,23.132,23.132,0,0,1,6.072,10.72L316.384,106h-.066a6.129,6.129,0,0,0-6,6.083,6.066,6.066,0,0,0,5.936,6.138l42.844.5a23.781,23.781,0,0,1-23.187,17.54l-19.848-.208a6,6,0,0,0-4.231,10.32l49.1,47.41a6,6,0,1,0,8.335-8.633L331.02,148.216l4.763.052a35.75,35.75,0,0,0,35.57-29.4l14.263.134h.066a5.986,5.986,0,0,0,.063-11.971l-14.263-.148a35.869,35.869,0,0,0-8.342-17.988Z" style="fill:#2eca8b"/></svg>
