<?xml version="1.0"?>
<svg xmlns="http://www.w3.org/2000/svg" id="Layer_1" data-name="Layer 1" viewBox="0 0 512 512" width="512" height="512"><title>Business Payment
</title><path d="M166.657,292.741a37.708,37.708,0,0,1-31.193-58.923,37.716,37.716,0,1,0,52.388,52.389A37.507,37.507,0,0,1,166.657,292.741Z" style="fill:#d4e1f4"/><path d="M352.556,299.689a41.669,41.669,0,0,1-34.044-65.746A41.683,41.683,0,1,0,376.6,292.029,41.463,41.463,0,0,1,352.556,299.689Z" style="fill:#d4e1f4"/><path d="M137,486V461.623a15.957,15.957,0,0,0-14-15.847V423.954a27.332,27.332,0,0,0,21-26.725V370H132v27.229a15.24,15.24,0,0,1-15.193,15.387,5.838,5.838,0,0,0-5.807,6V446H40V331.123a15.13,15.13,0,0,1,4.035-10.579l51.232-42.5-7.7-9.242-51.6,42.714c-.159.131-.143.27-.287.417A27.07,27.07,0,0,0,28,331.123V446H26a15.7,15.7,0,0,0-16,15.623V486a16.019,16.019,0,0,0,16,16h94.954A16.058,16.058,0,0,0,137,486Zm-12,0a4,4,0,0,1-4,4H26a4,4,0,0,1-4-4V462a4,4,0,0,1,4-4h95a4,4,0,0,1,4,4Z" style="fill:#2f55d4"/><path d="M39.258,459.309A15.04,15.04,0,1,0,54,474.346,14.909,14.909,0,0,0,39.258,459.309Zm0,18.074A3.052,3.052,0,1,1,42,474.346,2.9,2.9,0,0,1,39.258,477.383Z" style="fill:#2f55d4"/><path d="M486,10H380.6A15.678,15.678,0,0,0,365,26V54.412c0,8.54,6,15.519,15,15.957V95.036a29.291,29.291,0,0,0-24,28.714V153h12V123.75a17.64,17.64,0,0,1,17.665-17.331,6.3,6.3,0,0,0,6.335-6V70h79V195.866a17.348,17.348,0,0,1-4.893,11.94l-56.072,46.386,7.623,9.243,56.25-46.6c.158-.131.426-.27.569-.417A29.277,29.277,0,0,0,483,195.866V70h3a15.672,15.672,0,0,0,16-15.588V26A16.019,16.019,0,0,0,486,10Zm4,44a4,4,0,0,1-4,4H381a4,4,0,0,1-4-4V26a4,4,0,0,1,4-4H486a4,4,0,0,1,4,4Z" style="fill:#2f55d4"/><path d="M470.628,23.764a15.862,15.862,0,1,0,15.54,15.859A15.72,15.72,0,0,0,470.628,23.764Zm0,19.717a3.873,3.873,0,1,1,3.54-3.858A3.714,3.714,0,0,1,470.628,43.481Z" style="fill:#2f55d4"/><path d="M336,452.3a6,6,0,0,0-6,6v37.006a6,6,0,0,0,12,0V458.3A6,6,0,0,0,336,452.3Z" style="fill:#2f55d4"/><path d="M342,423.088a6,6,0,1,0-12,0v10.1a6,6,0,1,0,12,0Z" style="fill:#2f55d4"/><path d="M386,442.3a6,6,0,0,0-6,6v27.006a6,6,0,0,0,12,0V448.3A6,6,0,0,0,386,442.3Z" style="fill:#2f55d4"/><path d="M392,403.088a6,6,0,1,0-12,0v20.1a6,6,0,1,0,12,0Z" style="fill:#2f55d4"/><path d="M286,450.3a6,6,0,0,0-6,6v19.006a6,6,0,0,0,12,0V456.3A6,6,0,0,0,286,450.3Z" style="fill:#2f55d4"/><path d="M292,403.088a6,6,0,1,0-12,0v32.1a6,6,0,1,0,12,0Z" style="fill:#2f55d4"/><path d="M163,42.481a6,6,0,1,0-12,0V79.487a6,6,0,0,0,12,0Z" style="fill:#2f55d4"/><path d="M157,98.6a6,6,0,0,0-6,6v10.1a6,6,0,0,0,12,0V104.6A6,6,0,0,0,157,98.6Z" style="fill:#2f55d4"/><path d="M107,95.487a6,6,0,0,0,6-6V62.481a6,6,0,1,0-12,0V89.487A6,6,0,0,0,107,95.487Z" style="fill:#2f55d4"/><path d="M101,134.7a6,6,0,0,0,12,0V114.6a6,6,0,0,0-12,0Z" style="fill:#2f55d4"/><path d="M213,62.481a6,6,0,1,0-12,0V81.487a6,6,0,0,0,12,0Z" style="fill:#2f55d4"/><path d="M207,96.6a6,6,0,0,0-6,6v32.1a6,6,0,0,0,12,0V102.6A6,6,0,0,0,207,96.6Z" style="fill:#2f55d4"/><path d="M213.5,161H99.811A14.767,14.767,0,0,0,85,175.686V325l12-11V175.686A2.755,2.755,0,0,1,99.811,173H213.5a2.5,2.5,0,0,1,2.5,2.686V361.215A2.58,2.58,0,0,1,213.5,364H99v12H213.5A14.584,14.584,0,0,0,228,361.215V175.686A14.5,14.5,0,0,0,213.5,161Z" style="fill:#2eca8b"/><path d="M206.386,265.013a49.728,49.728,0,1,0-49.729,49.728A49.785,49.785,0,0,0,206.386,265.013Zm-87.456,0a37.728,37.728,0,1,1,37.727,37.728A37.77,37.77,0,0,1,118.93,265.013Z" style="fill:#2eca8b"/><path d="M163,293.635v-1.726a17.718,17.718,0,0,0,10.957-16.022,17.221,17.221,0,0,0-17.214-17.127,5.171,5.171,0,0,1-5.17-5.128,5.112,5.112,0,1,1,10.223,0,6,6,0,0,0,6,6,6.146,6.146,0,0,0,6.168-6A17.717,17.717,0,0,0,163,237.611v-1.22a6,6,0,1,0-12,0v1.22a16.6,16.6,0,0,0-11.3,16.021,17.074,17.074,0,0,0,17.041,17.128,5.1,5.1,0,0,1,5.085,5.127,5.148,5.148,0,0,1-5.1,5.122l-.062,0-.057,0a5.131,5.131,0,0,1-5.078-5.122,6,6,0,0,0-6-6,5.857,5.857,0,0,0-5.83,6A16.6,16.6,0,0,0,151,291.909v1.726a6,6,0,0,0,12,0Z" style="fill:#2eca8b"/><path d="M408,365.434A3.475,3.475,0,0,1,404.569,369H280.541A3.567,3.567,0,0,1,277,365.434v-202.4c0-1.952,1.589-4.038,3.541-4.038H406V147H280.541C271.972,147,265,154.469,265,163.038v202.4A15.581,15.581,0,0,0,280.541,381H404.569A15.487,15.487,0,0,0,420,365.434V203H408Z" style="fill:#2eca8b"/><path d="M288.852,267.986a53.7,53.7,0,1,0,53.7-53.7A53.764,53.764,0,0,0,288.852,267.986Zm95.407,0a41.7,41.7,0,1,1-41.7-41.7A41.75,41.75,0,0,1,384.259,267.986Z" style="fill:#2eca8b"/><path d="M326.842,242h-.066a5.868,5.868,0,0,0-6,5.779,5.933,5.933,0,0,0,5.936,5.985l9.113.058a7.466,7.466,0,0,1,4.739,1.522L326.7,255h-.065a6.154,6.154,0,0,0-6,6.111,6.077,6.077,0,0,0,5.935,6.152l13.878.193a7.8,7.8,0,0,1-4.782,1.636l-9.114-.086a5.915,5.915,0,0,0-5.615,3.728,6,6,0,0,0,1.383,6.6L344.865,301.1a6,6,0,1,0,8.334-8.632l-12.428-12A19.557,19.557,0,0,0,349.5,275.5a19.034,19.034,0,0,0,4.9-7.7l4.012.2h.065a6.134,6.134,0,0,0,6-6.089,6.067,6.067,0,0,0-5.935-6.141l-4.012-.081c-.174-.567-.369-1.158-.594-1.706l4.623.017h.066a5.99,5.99,0,0,0,.063-11.979l-22.736-.083Z" style="fill:#2eca8b"/><path d="M127.21,337.521a23.525,23.525,0,0,0,0-33.231l-4.125-4.125a6,6,0,0,0-7.967-.461L59.085,344.071a6,6,0,1,0,7.449,9.408l51.844-41.051.346.347a11.513,11.513,0,0,1,0,16.261L93.979,353.782a6,6,0,0,0-1.749,3.9l-.312,5.4c-.007.115-.01.231-.01.346A29.2,29.2,0,0,0,94.786,375.9a25.674,25.674,0,0,1-1.824,25.024A5.96,5.96,0,0,0,92,404.25v5.665a6,6,0,0,0,12,0v-3.936c6-10.628,6.977-23.936,1.693-35.183a17.414,17.414,0,0,1-1.761-7.217l.158-2.927Z" style="fill:#2f55d4"/><path d="M389.122,175.585a22.039,22.039,0,0,0,0,31.169l3.78,3.781a6,6,0,0,0,7.968.462l51.363-40.67a6,6,0,1,0-7.449-9.408l-47.174,37.353,0,0a10.042,10.042,0,0,1,0-14.2l22.685-22.684a6.005,6.005,0,0,0,1.747-3.9l.286-4.947c.007-.115.01-.231.01-.346a27.26,27.26,0,0,0-2.686-11.65,23.017,23.017,0,0,1,1.511-22.449,5.856,5.856,0,0,0,.841-3.328V104.078a6,6,0,1,0-12,0v8.971c-5,9.865-6.273,22.184-1.38,32.6a15.6,15.6,0,0,1,1.63,6.391l-.1,2.477Z" style="fill:#2f55d4"/></svg>
