<svg id="Layer_1" height="512" viewBox="0 0 512 512" width="512" xmlns="http://www.w3.org/2000/svg" data-name="Layer 1"><path d="m137.173 240.038 145.717-53.686 62.758 62.758-82.758-82.758-145.717 53.686-53.145 219.449 32.783-32.782z" fill="#d4e1f4"/><path d="m230.462 85.338h84.371v28.284h-84.371z" fill="#d4e1f4" transform="matrix(.707 -.707 .707 .707 9.514 221.928)"/><path d="m297.9 405.737a6 6 0 0 0 4.218-3.758l56.119-152.323a6 6 0 1 0 -11.259-4.148l-55.015 149.319-219.451 53.146 108.411-108.411a45.7 45.7 0 1 0 -8.481-8.489l-108.414 108.414 53.145-219.449 149.319-55.013a6 6 0 1 0 -4.148-11.26l-152.323 56.119a6 6 0 0 0 -3.757 4.218l-58.528 241.677-.813.813a6 6 0 1 0 8.484 8.486l.812-.812zm-113.018-126.254a33.683 33.683 0 0 1 47.634 0 33.682 33.682 0 1 1 -47.635 0z" fill="#2f55d4"/><path d="m388.448 291.91a6 6 0 0 0 8.485 0l68.144-68.145a6 6 0 0 0 0-8.485l-168.357-168.358a6 6 0 0 0 -8.485 0l-68.144 68.145a6 6 0 0 0 0 8.486zm-95.97-232.26 159.872 159.872-59.66 59.66-159.872-159.872z" fill="#2eca8b"/></svg>