<?xml version="1.0" encoding="iso-8859-1"?>
<!-- Generator: Adobe Illustrator 19.0.0, SVG Export Plug-In . SVG Version: 6.00 Build 0)  -->
<svg version="1.1" id="Layer_1" xmlns="http://www.w3.org/2000/svg" xmlns:xlink="http://www.w3.org/1999/xlink" x="0px" y="0px"
	 viewBox="0 0 488.9 488.9" style="enable-background:new 0 0 488.9 488.9;" xml:space="preserve">
<g>
	<g>
		<path style="fill:#94A4A4;" d="M108.05,130.2V25.7c0-9.2,7.4-16.6,16.6-16.6h239.4c9.2,0,16.6,7.4,16.6,16.6v104.6"/>
		<path style="fill:#94A4A4;" d="M364.15,479.7h-239.4c-9.2,0-16.6-7.4-16.6-16.6V252h272.7v211.2
			C380.75,472.3,373.35,479.7,364.15,479.7z"/>
		<path style="fill:#2C2F33;" d="M48.55,382.8h50.5v80.4c0,14.2,11.5,25.7,25.7,25.7h239.4c14.2,0,25.7-11.5,25.7-25.7v-80.4h50.5
			c22.3,0,40.4-18.1,40.4-40.4V161.5c0-22.3-18.1-40.4-40.4-40.4h-50.6V25.7c0-14.2-11.5-25.7-25.7-25.7h-239.4
			c-14.2,0-25.7,11.5-25.7,25.7v95.5h-50.4c-22.3,0-40.4,18.1-40.4,40.4v180.8C8.15,364.7,26.25,382.8,48.55,382.8z M371.75,463.1
			c0,4.2-3.4,7.5-7.5,7.5h-239.5c-4.2,0-7.5-3.4-7.5-7.5V261h254.5V463.1z M117.15,25.7c0-4.2,3.4-7.5,7.5-7.5h239.4
			c4.2,0,7.5,3.4,7.5,7.5v95.5h-254.4C117.15,121.2,117.15,25.7,117.15,25.7z M26.35,161.5c0-12.3,10-22.2,22.2-22.2h391.8
			c12.3,0,22.2,10,22.2,22.2v180.9c0,12.3-10,22.2-22.2,22.2h-50.5V252c0-5-4.1-9.1-9.1-9.1h-272.6c-5,0-9.1,4.1-9.1,9.1v112.7
			h-50.5c-12.3,0-22.2-10-22.2-22.2C26.35,342.5,26.35,161.5,26.35,161.5z"/>
		<path style="fill:#2C2F33;" d="M77.75,199.9c2.4,0,4.7-1,6.4-2.7c1.7-1.7,2.6-4,2.6-6.4s-1-4.7-2.6-6.4c-1.7-1.7-4-2.7-6.4-2.7
			s-4.7,1-6.4,2.7c-1.7,1.7-2.7,4-2.7,6.4s1,4.7,2.7,6.4C73.05,198.9,75.35,199.9,77.75,199.9z"/>
		<path style="fill:#2C2F33;" d="M314.65,356.8h-140.4c-5,0-9.1,4.1-9.1,9.1s4.1,9.1,9.1,9.1h140.5c5,0,9.1-4.1,9.1-9.1
			S319.65,356.8,314.65,356.8z"/>
		<path style="fill:#2C2F33;" d="M314.65,413h-140.4c-5,0-9.1,4.1-9.1,9.1s4.1,9.1,9.1,9.1h140.5c5,0,9.1-4.1,9.1-9.1
			C323.75,417,319.65,413,314.65,413z"/>
		<path style="fill:#2C2F33;" d="M314.65,300.6h-140.4c-5,0-9.1,4.1-9.1,9.1s4.1,9.1,9.1,9.1h140.5c5,0,9.1-4.1,9.1-9.1
			S319.65,300.6,314.65,300.6z"/>
	</g>
</g>
<g>
</g>
<g>
</g>
<g>
</g>
<g>
</g>
<g>
</g>
<g>
</g>
<g>
</g>
<g>
</g>
<g>
</g>
<g>
</g>
<g>
</g>
<g>
</g>
<g>
</g>
<g>
</g>
<g>
</g>
</svg>
