<?xml version="1.0"?>
<svg xmlns="http://www.w3.org/2000/svg" id="Layer_1" data-name="Layer 1" viewBox="0 0 512 512" width="512" height="512"><title>Refresh</title><path d="M56,299.555a42.486,42.486,0,0,1,27.24-39.628,6,6,0,0,0,3.847-5.869c-.048-1.066-.071-2.03-.071-2.948a61.95,61.95,0,0,1,46.823-59.992A61.8,61.8,0,0,0,57.016,251.11c0,.918.023,1.882.071,2.948a6,6,0,0,1-3.847,5.869A42.445,42.445,0,0,0,68.462,342h30A42.5,42.5,0,0,1,56,299.555Z" style="fill:#d4e1f4"/><path d="M338,291.643V259.11a78.232,78.232,0,0,1-20-9.764v42.3c0,11.1,31.956,26.571,84,26.571q5.135,0,10-.2C365.9,316.193,338,302.008,338,291.643Z" style="fill:#d4e1f4"/><path d="M338,229.929V197.4a78.232,78.232,0,0,1-20-9.764v42.3c0,11.1,31.956,26.571,84,26.571q5.135,0,10-.2C365.9,254.479,338,240.3,338,229.929Z" style="fill:#d4e1f4"/><path d="M338,168.214c0-10.366,27.9-24.551,74-26.372q-4.869-.194-10-.2c-52.044,0-84,15.475-84,26.571s31.956,26.572,84,26.572q5.135,0,10-.2C365.9,192.765,338,178.58,338,168.214Z" style="fill:#d4e1f4"/><path d="M338,353.786V320.824a78.232,78.232,0,0,1-20-9.764v42.726c0,11.1,31.956,26.571,84,26.571q5.135,0,10-.2C365.9,378.337,338,364.152,338,353.786Z" style="fill:#d4e1f4"/><path d="M402,129.643c-46.538,0-96,13.518-96,38.571V353.786c0,25.053,49.462,38.571,96,38.571s96-13.518,96-38.571V168.214C498,143.161,448.538,129.643,402,129.643Zm84,160.714v1.286c0,11.1-31.956,26.571-84,26.571s-84-15.476-84-26.571v-42.3c17.49,12.542,51.458,19.154,84,19.154s66.51-6.612,84-19.154Zm0-60.428c0,11.1-31.956,26.571-84,26.571s-84-15.476-84-26.571v-42.3c17.49,12.542,51.458,19.154,84,19.154s66.51-6.612,84-19.154Zm-84-88.286c52.044,0,84,15.475,84,26.571s-31.956,26.572-84,26.572-84-15.476-84-26.572S349.956,141.643,402,141.643Zm0,238.714c-52.044,0-84-15.475-84-26.571V311.06c17.49,12.542,51.458,19.154,84,19.154s66.51-6.612,84-19.154v42.726C486,364.882,454.044,380.357,402,380.357Z" style="fill:#2f55d4"/><path d="M238.813,247.293a54.481,54.481,0,0,0-65.852-46.444,73.845,73.845,0,0,0-127.942,49.56A54.444,54.444,0,0,0,68.462,354H223.538a54.444,54.444,0,0,0,15.275-106.707Zm14.746,82.283A42.171,42.171,0,0,1,223.538,342H68.462A42.449,42.449,0,0,1,53.24,259.927a6,6,0,0,0,3.847-5.869c-.048-1.066-.071-2.03-.071-2.948A61.843,61.843,0,0,1,166.3,211.432a6,6,0,0,0,6.328,1.9,42.461,42.461,0,0,1,54.562,38.984A6,6,0,0,0,232,257.962a42.441,42.441,0,0,1,21.563,71.614Z" style="fill:#2f55d4"/><path d="M249.956,21.941a134.3,134.3,0,0,0-76.8,47.107L149.679,53.774a6,6,0,0,0-9.143,6.272l9.737,46.005a6,6,0,0,0,7.113,4.628l46.005-9.738a6,6,0,0,0,2.03-10.9l-22.15-14.411A122.494,122.494,0,0,1,361.5,64.068a6,6,0,1,0,8.191-8.769A134.7,134.7,0,0,0,249.956,21.941ZM160.771,97.7l-5.5-25.964L170.918,81.91l.022.019c.041.03.086.05.128.079L186.734,92.2Z" style="fill:#2eca8b"/><path d="M361.727,405.949a6,6,0,0,0-7.113-4.628l-46,9.738a6,6,0,0,0-2.03,10.9l22.15,14.411A122.494,122.494,0,0,1,150.5,447.932a6,6,0,1,0-8.191,8.769,134.493,134.493,0,0,0,196.535-13.749l23.475,15.274a6,6,0,0,0,9.143-6.272ZM341.082,430.09l-.022-.019a6.043,6.043,0,0,0-.6-.384l-15.2-9.888,25.963-5.5,5.5,25.964Z" style="fill:#2eca8b"/></svg>
