<svg height="438pt" viewBox="0 0 438.00453 438" width="438pt" xmlns="http://www.w3.org/2000/svg"><path d="m75.933594 106.003906c.042968-32.257812 23.554687-59.6875 55.429687-64.664062-25.476562-3.925782-50.882812 7.46875-64.890625 29.105468-14.011718 21.636719-14.011718 49.484376 0 71.121094 14.007813 21.636719 39.414063 33.03125 64.890625 29.101563-31.875-4.972657-55.386719-32.402344-55.429687-64.664063zm0 0" fill="#d4e1f4"/><g fill="#2eca8b"><path d="m432.003906 105.277344h-60c-3.3125 0-6 2.6875-6 6v320c0 3.3125 2.6875 6 6 6h60c3.3125 0 6-2.6875 6-6v-320c0-3.3125-2.6875-6-6-6zm-6 320h-48v-308h48zm0 0"/><path d="m340.503906 207.277344h-60c-3.3125 0-6 2.6875-6 6v218c0 3.3125 2.6875 6 6 6h60c3.3125 0 6-2.6875 6-6v-218c0-3.3125-2.6875-6-6-6zm-6 218h-48v-206h48zm0 0"/><path d="m249.003906 266.277344h-60c-3.3125 0-6 2.6875-6 6v159c0 3.3125 2.6875 6 6 6h60c3.3125 0 6-2.6875 6-6v-159c0-3.3125-2.6875-6-6-6zm-6 159h-48v-147h48zm0 0"/><path d="m157.503906 305.277344h-60c-3.3125 0-6 2.6875-6 6v120c0 3.3125 2.6875 6 6 6h60c3.3125 0 6-2.6875 6-6v-120c0-3.3125-2.6875-6-6-6zm-6 120h-48v-108h48zm0 0"/><path d="m66.003906 355.277344h-60c-3.3125 0-5.99999975 2.6875-5.99999975 6v70c0 3.3125 2.68749975 6 5.99999975 6h60c3.3125 0 6-2.6875 6-6v-70c0-3.3125-2.6875-6-6-6zm-6 70h-48v-58h48zm0 0"/><path d="m391.058594 26.214844c-.863282-3.199219-4.15625-5.09375-7.355469-4.230469l-38.617187 10.425781c-3.199219.863282-5.09375 4.15625-4.230469 7.355469s4.15625 5.09375 7.355469 4.230469l25.523437-6.890625c-9.699219 17.378906-38.125 64.472656-86.300781 113.9375-35.484375 36.441406-74.535156 66.9375-116.070313 90.644531-51.230469 29.386719-107.65625 48.605469-166.171875 56.601562-3.128906.425782-5.390625 3.199219-5.1796872 6.34375.2109372 3.148438 2.8242192 5.59375 5.9765622 5.601563.273438 0 .546875-.019531.816407-.058594 60.042968-8.199219 117.9375-27.917969 170.5-58.066406 42.511718-24.265625 82.453124-55.453125 118.722656-92.703125 48.40625-49.707031 76.851562-96.191406 87.46875-115.128906l5.871094 21.746094c.542968 2.085937 2.164062 3.71875 4.246093 4.277343 2.082031.5625 4.300781-.039062 5.820313-1.570312 1.515625-1.53125 2.09375-3.757813 1.515625-5.832031zm0 0"/></g><path d="m121.078125 183.433594c42.761719 0 77.425781-34.664063 77.425781-77.429688 0-42.761718-34.664062-77.425781-77.425781-77.425781-42.765625 0-77.429687 34.664063-77.429687 77.425781.046874 42.742188 34.6875 77.382813 77.429687 77.429688zm0-142.855469c36.132813 0 65.425781 29.292969 65.425781 65.425781 0 36.136719-29.292968 65.429688-65.425781 65.429688-36.136719 0-65.429687-29.292969-65.429687-65.429688.039062-36.117187 29.308593-65.386718 65.429687-65.425781zm0 0" fill="#2f55d4"/><path d="m45.769531 180.527344c.121094.144531.21875.300781.355469.429687.132812.132813.285156.234375.429688.355469 41.253906 40.921875 107.789062 40.921875 149.039062 0 .316406-.207031.582031-.476562.789062-.789062 40.921876-41.253907 40.921876-107.785157 0-149.035157-.121093-.144531-.21875-.300781-.355468-.4375-.136719-.136719-.292969-.238281-.4375-.359375-41.253906-40.917968-107.785156-40.917968-149.035156 0-.144532.121094-.300782.222656-.433594.355469-.125.140625-.246094.285156-.355469.433594-40.925781 41.253906-40.925781 107.789062 0 149.042969zm-14.300781-80.523438h-4.195312c1.3125-20.75 9.496093-40.472656 23.261718-56.054687l2.933594 2.933593c2.34375 2.34375 6.144531 2.34375 8.488281 0 2.34375-2.339843 2.34375-6.140624 0-8.484374l-2.9375-2.933594c15.585938-13.765625 35.308594-21.949219 56.058594-23.261719v4.191406c0 3.316407 2.683594 6 6 6 3.3125 0 6-2.683593 6-6v-4.191406c20.75 1.3125 40.46875 9.496094 56.054687 23.261719l-2.933593 2.933594c-2.34375 2.34375-2.34375 6.144531 0 8.484374 2.339843 2.34375 6.140625 2.34375 8.484375 0l2.933594-2.933593c13.765624 15.585937 21.949218 35.304687 23.261718 56.054687h-4.191406c-3.316406 0-6 2.6875-6 6 0 3.316406 2.683594 6 6 6h4.191406c-1.3125 20.75-9.496094 40.472656-23.261718 56.058594l-2.933594-2.9375c-2.34375-2.339844-6.144532-2.339844-8.484375 0-2.34375 2.34375-2.34375 6.144531 0 8.488281l2.933593 2.933594c-15.582031 13.765625-35.304687 21.949219-56.054687 23.261719v-4.191406c0-3.316407-2.6875-6-6-6-3.316406 0-6 2.683593-6 6v4.191406c-20.753906-1.3125-40.472656-9.496094-56.058594-23.261719l2.9375-2.933594c2.34375-2.34375 2.34375-6.144531 0-8.488281-2.34375-2.339844-6.144531-2.339844-8.488281 0l-2.933594 2.9375c-13.765625-15.582031-21.949218-35.304688-23.261718-56.058594h4.191406c3.316406 0 6-2.683594 6-6 0-3.3125-2.683594-6-6-6zm0 0" fill="#2f55d4"/><path d="m99.648438 145.230469h6.199218v4.875c0 3.3125 2.6875 6 6 6 3.316406 0 6-2.6875 6-6v-4.875h3.601563v4.875c0 3.3125 2.6875 6 6 6s6-2.6875 6-6v-6.144531c7.441406-2.601563 12.976562-8.910157 14.582031-16.632813 1.605469-7.71875-.953125-15.714844-6.742188-21.066406 5.789063-5.351563 8.347657-13.347657 6.742188-21.066407-1.605469-7.722656-7.140625-14.035156-14.582031-16.632812v-6.65625c0-3.3125-2.6875-6-6-6s-6 2.6875-6 6v5.386719h-3.601563v-5.386719c0-3.3125-2.683594-6-6-6-3.3125 0-6 2.6875-6 6v5.386719h-6.199218c-3.3125 0-6 2.6875-6 6v65.9375c0 3.3125 2.6875 6 6 6zm36.855468-22.488281c-.007812 5.785156-4.695312 10.472656-10.480468 10.484374h-20.375v-20.964843h20.375c5.78125.007812 10.46875 4.695312 10.480468 10.480469zm-30.855468-43.453126h20.375c5.746093.058594 10.378906 4.734376 10.378906 10.484376s-4.632813 10.429687-10.378906 10.484374h-20.375zm0 0" fill="#2eca8b"/></svg>