<svg height="362pt" viewBox="0 -4 362 362" width="362pt" xmlns="http://www.w3.org/2000/svg"><path d="m207 324c-97.601562 0-177-79.398438-177-177-.039062-39.613281 13.273438-78.085938 37.796875-109.199219-42.796875 33.511719-67.80078125 84.84375-67.796875 139.199219 0 97.601562 79.398438 177 177 177 54.355469 0 105.691406-25.003906 139.199219-67.800781-31.113281 24.523437-69.585938 37.839843-109.199219 37.800781zm0 0" fill="#d4e1f4"/><path d="m233.460938 101.128906c0-3.867187-3.132813-7-7-7h-98.921876c-3.867187 0-7 3.132813-7 7 0 3.863282 3.132813 7 7 7h28.304688c16.871094.019532 31.394531 11.910156 34.746094 28.441406h-63.050782c-3.867187 0-7 3.136719-7 7 0 3.867188 3.132813 7 7 7h63.050782c-3.351563 16.535157-17.875 28.421876-34.746094 28.445313h-28.304688c-2.867187 0-5.441406 1.75-6.503906 4.410156-1.058594 2.664063-.386718 5.703125 1.695313 7.675781l70.75 66.855469c1.816406 1.726563 4.417969 2.351563 6.820312 1.636719 2.398438-.714844 4.238281-2.660156 4.816407-5.097656.574218-2.4375-.195313-5-2.019532-6.714844l-57.960937-54.769531h10.707031c24.589844-.03125 45.429688-18.105469 48.941406-42.441407h21.675782c3.867187 0 7-3.136718 7-7 0-3.867187-3.132813-7-7-7h-21.675782c-1.554687-10.828124-6.660156-20.835937-14.515625-28.445312h36.191407c3.867187 0 7-3.132812 7-6.996094zm0 0" fill="#2eca8b"/><path d="m355 35.953125h-90c-3.867188 0-7 3.136719-7 7 0 3.867187 3.132812 7 7 7h90c3.867188 0 7-3.132813 7-7 0-3.863281-3.132812-7-7-7zm0 0" fill="#2eca8b"/><path d="m0 177c0 97.601562 79.398438 177 177 177s177-79.398438 177-177c.042969-23.410156-4.585938-46.59375-13.621094-68.191406-1.515625-3.527344-5.589844-5.179688-9.132812-3.699219-3.542969 1.484375-5.234375 5.542969-3.785156 9.101563 8.320312 19.886718 12.582031 41.234374 12.539062 62.789062 0 89.878906-73.121094 163-163 163s-163-73.121094-163-163 73.121094-163 163-163c18.265625-.023438 36.40625 3.035156 53.65625 9.039062 2.363281.839844 5 .347657 6.902344-1.285156 1.902344-1.636718 2.785156-4.167968 2.3125-6.632812s-2.230469-4.488282-4.605469-5.300782c-18.730469-6.523437-38.429687-9.8437495-58.265625-9.820312-97.601562 0-177 79.398438-177 177zm0 0" fill="#2f55d4"/></svg>