<svg height="465pt" viewBox="-11 0 465 465.68385" width="465pt" xmlns="http://www.w3.org/2000/svg"><g fill="#d4e1f4"><path d="m56.390625 295.023438c-13.035156-8.886719-24.046875-29.710938-24.046875-45.472657v-71.222656l74-36.238281 54 26.523437v-.171875l-74-36.347656-74 36.242188v71.21875c0 15.761718 11.011719 36.585937 24.046875 45.472656l49.953125 34.070312 2.667969-1.820312zm0 0"/><path d="m334.160156 232.539062h20v72.613282h-20zm0 0"/><path d="m334.160156 147.921875h20v72.617187h-20zm0 0"/></g><path d="m172.34375 239.550781v-74.851562c-.003906-2.289063-1.304688-4.375-3.355469-5.386719l-80-39.292969c-1.667969-.816406-3.617187-.816406-5.285156 0l-80 39.183594c-2.058594 1.007813-3.363281 3.097656-3.359375 5.386719v74.960937c0 19.863281 12.863281 44.191407 29.285156 55.390625l53.332032 36.371094c2.039062 1.390625 4.722656 1.390625 6.761718 0l53.332032-36.371094c16.421874-11.199218 29.289062-35.53125 29.289062-55.390625zm-36.046875 45.472657-49.953125 34.070312-49.953125-34.070312c-13.035156-8.886719-24.046875-29.710938-24.046875-45.472657v-71.222656l74-36.238281 74 36.347656v71.113281c0 15.761719-11.011719 36.585938-24.046875 45.472657zm0 0" fill="#2f55d4"/><path d="m116 200.335938-39.34375 38.410156-19.972656-19.5c-2.375-2.289063-6.152344-2.230469-8.457032.128906-2.304687 2.363281-2.273437 6.140625.074219 8.457031l24.164063 23.59375c2.332031 2.277344 6.050781 2.277344 8.382812 0l43.539063-42.5c2.371093-2.3125 2.414062-6.113281.101562-8.484375-2.316406-2.371094-6.113281-2.417968-8.488281-.101562zm0 0" fill="#2f55d4"/><path d="m444.160156 184.230469c-.03125-22.945313-16.167968-42.710938-38.640625-47.335938v-24.199219c0-3.3125-2.6875-6-6-6s-6 2.6875-6 6v23.226563h-28.050781v-23.230469c0-3.3125-2.6875-6-6-6-3.316406 0-6 2.6875-6 6v23.230469h-25.308594c-3.316406 0-6 2.6875-6 6v169.230469c0 3.3125 2.683594 6 6 6h25.308594v21.917968c0 3.3125 2.683594 6 6 6 3.3125 0 6-2.6875 6-6v-21.917968h28.050781v21.917968c0 3.3125 2.6875 6 6 6s6-2.6875 6-6v-22.890624c19.835938-4.050782 35.042969-20.050782 38.082031-40.066407 3.042969-20.019531-6.722656-39.808593-24.464843-49.570312 15.425781-8.496094 25.011719-24.703125 25.023437-42.3125zm-12 84.613281c-.023437 20.042969-16.265625 36.285156-36.308594 36.308594h-61.691406v-72.609375h61.691406c20.039063.019531 36.28125 16.257812 36.308594 36.300781zm-36.308594-48.300781h-61.691406v-72.621094h61.691406c20.050782 0 36.308594 16.253906 36.308594 36.308594 0 20.050781-16.257812 36.308593-36.308594 36.308593zm0 0" fill="#2f55d4"/><path d="m121.226562 65.355469c0 3.3125 2.683594 6 6 6h50.15625c2.429688 0 4.617188-1.460938 5.542969-3.703125.929688-2.242188.417969-4.824219-1.300781-6.539063l-20.246094-20.25c28.28125-22.707031 64.710938-32.679687 100.613282-27.542969 35.90625 5.136719 68.078124 24.921876 88.859374 54.648438 1.910157 2.683594 5.628907 3.324219 8.328126 1.433594 2.699218-1.886719 3.371093-5.601563 1.5-8.316406-22.8125-32.632813-58.195313-54.28125-97.636719-59.734376-39.441407-5.457031-79.375 5.769532-110.191407 30.984376l-21.382812-21.382813c-1.71875-1.714844-4.296875-2.230469-6.539062-1.300781-2.242188.929687-3.703126 3.117187-3.703126 5.542968zm12-35.675781 14.765626 14.769531.027343.03125c.160157.179687.332031.351562.511719.507812l14.367188 14.367188h-29.671876zm0 0" fill="#2eca8b"/><path d="m330.058594 433.347656 21.378906 21.382813c1.71875 1.714843 4.296875 2.230469 6.539062 1.300781 2.242188-.929688 3.703126-3.117188 3.703126-5.542969v-50.160156c0-3.3125-2.683594-6-6-6h-50.15625c-2.429688 0-4.617188 1.464844-5.542969 3.707031-.929688 2.238282-.417969 4.820313 1.300781 6.535156l20.246094 20.25c-28.28125 22.707032-64.710938 32.679688-100.613282 27.542969-35.90625-5.136719-68.074218-24.921875-88.855468-54.648437-1.21875-1.789063-3.304688-2.785156-5.460938-2.609375-2.15625.179687-4.046875 1.503906-4.953125 3.472656-.90625 1.964844-.683593 4.265625.582031 6.019531 22.816407 32.632813 58.199219 54.28125 97.640626 59.738282 39.441406 5.453124 79.371093-5.773438 110.191406-30.988282zm19.621094-27.019531v29.675781l-14.769532-14.769531c-.007812-.011719-.015625-.023437-.023437-.03125-.160157-.179687-.332031-.351563-.515625-.507813l-14.363282-14.367187zm0 0" fill="#2eca8b"/></svg>