<?xml version="1.0"?>
<svg xmlns="http://www.w3.org/2000/svg" id="Layer_1" height="512px" viewBox="0 0 512 512" width="512px" data-name="Layer 1" class=""><g><path d="m156.418 388.683c-33.033-21.645-59.908-70.483-59.908-108.878v-165.251l171.9-80.9-29.588-13.971-181.546 85.445v165.252c0 38.391 26.875 87.232 59.908 108.877l121.641 79.724 12.427-8.144z" fill="#d4e1f4" data-original="#D4E1F4"/><g fill="#0635c9"><path d="m305.389 341.491h7.289a6 6 0 0 0 0-12h-1.289v-20.8h20.946a6 6 0 0 0 11.855-1.314v-4.686a6 6 0 0 0 -6-6h-32.8a6 6 0 0 0 -6 6v32.8a6 6 0 0 0 5.999 6z" data-original="#0635C9" class="" style="fill:#2F55D4" data-old_color="#0635C9"/><path d="m305.389 405.271h32.8a6 6 0 0 0 6-6v-32.8a6 6 0 0 0 -6-6h-32.8a6 6 0 0 0 -6 6v32.8a6 6 0 0 0 6 6zm6-32.8h20.8v20.8h-20.8z" data-original="#0635C9" class="" style="fill:#2F55D4" data-old_color="#0635C9"/><path d="m312.679 457.052h-1.29v-20.8h20.8v.71a6 6 0 0 0 12 0v-6.71a6 6 0 0 0 -6-6h-32.8a6 6 0 0 0 -6 6v32.8a6 6 0 0 0 6 6h7.29a6 6 0 0 0 0-12z" data-original="#0635C9" class="" style="fill:#2F55D4" data-old_color="#0635C9"/><path d="m354.9 304.922-21.071 21.078-6.885-6.885a6 6 0 0 0 -8.486 8.487l11.128 11.127a6 6 0 0 0 8.485 0l25.319-25.319a6 6 0 1 0 -8.486-8.484z" data-original="#0635C9" class="" style="fill:#2F55D4" data-old_color="#0635C9"/><path d="m354.9 433.491-21.075 21.075-6.885-6.884a6 6 0 1 0 -8.486 8.484l11.128 11.128a6 6 0 0 0 8.485 0l25.319-25.318a6 6 0 0 0 -8.486-8.485z" data-original="#0635C9" class="" style="fill:#2F55D4" data-old_color="#0635C9"/><path d="m425.661 313.09h-43.735a6 6 0 0 0 0 12h43.735a6 6 0 0 0 0-12z" data-original="#0635C9" class="" style="fill:#2F55D4" data-old_color="#0635C9"/><path d="m425.661 376.87h-43.735a6 6 0 0 0 0 12h43.735a6 6 0 0 0 0-12z" data-original="#0635C9" class="" style="fill:#2F55D4" data-old_color="#0635C9"/><path d="m425.661 440.651h-43.735a6 6 0 0 0 0 12h43.735a6 6 0 0 0 0-12z" data-original="#0635C9" class="" style="fill:#2F55D4" data-old_color="#0635C9"/></g><path d="m235.5 468.419a6 6 0 0 0 3.381-1.043l42.7-29.125-6.762-9.914-39.319 26.819-113.38-77.325c-34.639-23.617-60.76-73.023-60.76-114.923v-154.932l174.154-85.293 174.12 85.517v140.838h12v-144.572a6 6 0 0 0 -3.355-5.385l-180.116-88.466a6 6 0 0 0 -5.285 0l-180.157 88.23a6 6 0 0 0 -3.361 5.389v158.674c0 45.516 28.373 99.184 66 124.837l116.757 79.631a6 6 0 0 0 3.383 1.043z" fill="#1ae5be" data-original="#1AE5BE" class="active-path" style="fill:#2ECA8B" data-old_color="#1ae5be"/><path d="m377.363 230.926v-97.184a6 6 0 0 0 -3.355-5.385l-135.866-66.732a6 6 0 0 0 -5.284 0l-135.867 66.539a6 6 0 0 0 -3.361 5.388v127.309c0 31.951 21.493 72.6 47.909 90.609l90.577 61.774a6 6 0 0 0 6.762 0l37.337-25.464-6.762-9.914-33.953 23.158-87.2-59.468c-23.129-15.77-42.669-52.723-42.669-80.695v-123.567l129.863-63.6 129.87 63.787v93.446z" fill="#1ae5be" data-original="#1AE5BE" class="active-path" style="fill:#2ECA8B" data-old_color="#1ae5be"/><path d="m433.677 243.038h-25.562a23.2 23.2 0 0 0 -22.6-18.112h-39.98a23.2 23.2 0 0 0 -22.6 18.112h-25.562a29 29 0 0 0 -28.963 28.962v201.037a29 29 0 0 0 28.963 28.963h136.3a29 29 0 0 0 28.963-28.963v-201.037a29 29 0 0 0 -28.959-28.962zm-99.3 5.049a11.174 11.174 0 0 1 11.161-11.161h39.98a11.174 11.174 0 0 1 11.161 11.161v.931a11.174 11.174 0 0 1 -11.161 11.161h-39.98a11.174 11.174 0 0 1 -11.161-11.161zm116.263 224.95a16.981 16.981 0 0 1 -16.963 16.963h-136.3a16.982 16.982 0 0 1 -16.963-16.963v-201.037a16.982 16.982 0 0 1 16.963-16.963h25.8a23.2 23.2 0 0 0 22.363 17.141h39.98a23.2 23.2 0 0 0 22.363-17.141h25.8a16.981 16.981 0 0 1 16.957 16.963z" fill="#0635c9" data-original="#0635C9" class="" style="fill:#2F55D4" data-old_color="#0635c9"/></g> </svg>
