<svg height="445pt" viewBox="-45 0 445 445.467" width="445pt" xmlns="http://www.w3.org/2000/svg"><path d="m58.332031 12h-20c-14.40625.015625-26.082031 11.691406-26.097656 26.101562v22.046876h20v-22.050782c.015625-14.40625 11.691406-26.082031 26.097656-26.097656zm0 0" fill="#d4e1f4"/><path d="m32.234375 407.367188v-46.367188h-20v46.367188c.015625 14.40625 11.691406 26.082031 26.097656 26.101562h20c-14.40625-.019531-26.082031-11.695312-26.097656-26.101562zm0 0" fill="#d4e1f4"/><path d="m12.234375 72.148438h20v276.851562h-20zm0 0" fill="#d4e1f4"/><path d="m226.132812 0h-187.800781c-21.03125.0234375-38.074219 17.066406-38.097656 38.101562v369.265626c.023437 21.03125 17.066406 38.078124 38.097656 38.101562h187.800781c21.03125-.027344 38.078126-17.070312 38.101563-38.101562v-84.839844c0-3.3125-2.6875-6-6-6-3.316406 0-6 2.6875-6 6v26.472656h-240v-276.851562h240v42.542968c0 3.3125 2.683594 6 6 6 3.3125 0 6-2.6875 6-6v-76.59375c-.023437-21.03125-17.070313-38.0742185-38.101563-38.097656zm26.101563 361v46.367188c-.015625 14.40625-11.691406 26.082031-26.101563 26.101562h-187.800781c-14.40625-.019531-26.082031-11.695312-26.097656-26.101562v-46.367188zm-240-300.851562v-22.050782c.015625-14.40625 11.691406-26.082031 26.097656-26.097656h187.800781c14.410157.015625 26.085938 11.691406 26.101563 26.097656v22.050782zm0 0" fill="#2f55d4"/><path d="m103.910156 403.53125h56.644532c3.316406 0 6-2.683594 6-6 0-3.3125-2.683594-6-6-6h-56.644532c-3.3125 0-6 2.6875-6 6 0 3.316406 2.6875 6 6 6zm0 0" fill="#2f55d4"/><g fill="#2eca8b"><path d="m351.488281 161.203125-.59375-.253906c-31.308593-13.472657-60.910156-30.609375-88.179687-51.058594-2.132813-1.597656-5.066406-1.597656-7.199219 0-27.273437 20.449219-56.875 37.589844-88.1875 51.0625l-.589844.253906c-2.199219.949219-3.625 3.113281-3.625 5.507813v52.210937c0 33.777344 16.140625 63.445313 46.675781 85.792969 14.023438 10.238281 29.574219 18.191406 46.082032 23.566406 1.082031.316406 2.230468.320313 3.3125.015625 16.992187-5.335937 33.050781-13.273437 47.613281-23.523437 31.609375-22.347656 48.316406-52.03125 48.316406-85.851563v-52.210937c0-2.394532-1.425781-4.5625-3.625-5.511719zm-8.371093 57.722656c0 22.621094-8.179688 42.664063-24.363282 59.832031-.277344-3.1875-3.007812-5.597656-6.203125-5.476562-3.195312.117188-5.734375 2.722656-5.773437 5.921875v5.5c-.003906 1.425781.507812 2.808594 1.4375 3.890625-2.554688 2.113281-5.242188 4.175781-8.066406 6.1875-13.082032 9.164062-27.417969 16.386719-42.566407 21.453125-14.53125-5.039063-28.242187-12.179687-40.699219-21.203125-2.597656-1.902344-5.082031-3.851562-7.441406-5.851562 1.28125-1.132813 2.019532-2.765626 2.019532-4.480469v-5.5c0-3.3125-2.6875-6-6-6-3.316407 0-6 2.6875-6 6v.484375c-16.164063-17.363282-24.339844-37.71875-24.339844-60.757813v-48.273437c29.6875-13.039063 57.859375-29.300782 84-48.488282 26.140625 19.1875 54.308594 35.449219 84 48.488282zm0 0"/><path d="m259.117188 273.203125c-3.316407 0-6 2.683594-6 6v5.5c0 3.3125 2.683593 6 6 6 3.3125 0 6-2.6875 6-6v-5.5c0-3.316406-2.6875-6-6-6zm0 0"/><path d="m277.003906 273.203125c-3.316406 0-6 2.683594-6 6v5.5c0 3.3125 2.683594 6 6 6 3.3125 0 6-2.6875 6-6v-5.5c0-3.316406-2.6875-6-6-6zm0 0"/><path d="m288.886719 279.203125v5.5c0 3.3125 2.6875 6 6 6 3.316406 0 6-2.6875 6-6v-5.5c0-3.316406-2.683594-6-6-6-3.3125 0-6 2.683594-6 6zm0 0"/><path d="m241.230469 273.203125c-3.316407 0-6 2.683594-6 6v5.5c0 3.3125 2.683593 6 6 6 3.3125 0 6-2.6875 6-6v-5.5c0-3.316406-2.6875-6-6-6zm0 0"/><path d="m223.34375 273.203125c-3.316406 0-6 2.683594-6 6v5.5c0 3.3125 2.683594 6 6 6 3.3125 0 6-2.6875 6-6v-5.5c0-3.316406-2.6875-6-6-6zm0 0"/><path d="m235.257812 211.902344c-2.355468-2.273438-6.097656-2.242188-8.410156.074218-2.316406 2.3125-2.347656 6.054688-.074218 8.410157l20.378906 20.375c2.339844 2.34375 6.140625 2.34375 8.480468 0l35.824219-35.820313c1.539063-1.511718 2.144531-3.730468 1.59375-5.816406-.550781-2.082031-2.179687-3.710938-4.261719-4.261719-2.082031-.554687-4.304687.054688-5.816406 1.589844l-31.582031 31.578125zm0 0"/></g></svg>