<svg height="492.00044pt" viewBox="0 0 492.00044 492.00044" width="492.00044pt" xmlns="http://www.w3.org/2000/svg"><path d="m383.699219 253.441406 19.84375 19.589844.128906-.128906-20.84375-20.574219c.246094.40625.539063.78125.871094 1.113281zm0 0" fill="#d4e1f4"/><path d="m227.585938 79.835938 65.351562-65.351563 20 20-65.351562 65.351563zm0 0" fill="#d4e1f4"/><path d="m219.101562 88.320312-204.617187 204.617188 20 20 204.488281-204.488281zm0 0" fill="#d4e1f4"/><path d="m297.179688 1.757812c-2.34375-2.34375-6.140626-2.34375-8.484376 0l-286.9375 286.941407c-2.34375 2.34375-2.34375 6.144531 0 8.484375l48.414063 48.410156c2.097656 2.101562 5.417969 2.347656 7.808594.582031 25.222656-18.640625 60.421875-16.121093 81.878906 5.863281 21.824219 22.351563 24.402344 57.574219 6 81.929688-1.804687 2.390625-1.570313 5.746094.546875 7.863281l48.414062 48.410157c2.34375 2.34375 6.140626 2.34375 8.484376 0l286.9375-286.9375c2.34375-2.34375 2.34375-6.140626 0-8.484376zm114.980468 262.660157-40.027344-39.519531c-2.359374-2.304688-6.144531-2.273438-8.460937.078124-2.320313 2.347657-2.304687 6.132813.03125 8.464844l39.972656 39.457032-204.613281 204.617187-40.613281-40.617187c18.589843-28.765626 14.675781-67.964844-10-93.246094-12.636719-12.9375-29.621094-20.730469-47.671875-21.867188-16.082032-1.015625-32.070313 3.117188-45.648438 11.800782l-40.644531-40.648438 204.617187-204.617188 40.042969 40.566407c2.328125 2.359375 6.128907 2.382812 8.484375.054687 2.359375-2.328125 2.382813-6.125.054688-8.484375l-40.097656-40.621093 65.351562-65.351563 184.578125 184.578125zm0 0" fill="#2f55d4"/><path d="m288.699219 149.359375c-2.34375 2.34375-2.34375 6.140625 0 8.484375l46.046875 46.054688c1.511718 1.539062 3.730468 2.144531 5.8125 1.59375 2.085937-.550782 3.710937-2.179688 4.265625-4.261719.550781-2.085938-.058594-4.304688-1.59375-5.816407l-46.050781-46.054687c-2.34375-2.339844-6.136719-2.339844-8.480469 0zm0 0" fill="#2f55d4"/><g fill="#2eca8b"><path d="m221.042969 330.910156c.289062.050782.578125.082032.871093.089844h.046876c1.566406 0 3.136718.164062 4.726562.164062s3.160156-.164062 4.726562-.164062h76.1875c.582032-.078125 1.15625.191406 1.472657.6875.316406.496094.316406 1.128906 0 1.625-.316407.496094-.890625.765625-1.472657.6875h-28.289062c-12.179688.105469-22 10.007812-22 22.191406.011719 3.3125 2.710938 5.988282 6.023438 5.976563 3.3125-.015625 5.988281-2.710938 5.976562-6.023438-.003906-5.550781 4.453125-10.070312 10-10.144531h28.289062c7.453126 0 13.5-6.042969 13.5-13.5s-6.046874-13.5-13.5-13.5h-39.753906c20.941406-14 34.839844-37.113281 34.839844-63.859375.011719-41.242187-32.871094-74.96875-74.101562-75.996094-41.230469-1.03125-75.757813 31.011719-77.804688 72.203125s29.132812 76.5 70.261719 79.5625zm5.644531-139.789062c35.335938.050781 63.960938 28.6875 64 64.019531 0 33.839844-26.398438 61.859375-59.6875 63.859375h-8.625c-33.285156-2-59.6875-30.019531-59.6875-63.859375.039062-35.332031 28.667969-63.972656 64-64.019531zm0 0"/><path d="m226.613281 239.679688c9.058594-.007813 16.851563-6.410157 18.613281-15.296876 1.761719-8.886718-3-17.777343-11.371093-21.238281-8.371094-3.460937-18.023438-.527343-23.050781 7.003907-5.027344 7.535156-4.035157 17.574218 2.375 23.976562 3.558593 3.566406 8.394531 5.5625 13.433593 5.554688zm-4.949219-23.9375c2.734376-2.734376 7.164063-2.734376 9.898438 0 2.734375 2.734374 2.734375 7.167968 0 9.898437-2.734375 2.734375-7.164062 2.734375-9.898438 0-1.320312-1.308594-2.058593-3.089844-2.058593-4.949219s.738281-3.640625 2.058593-4.949218zm0 0"/><path d="m226.761719 270.550781c-9.0625 0-16.867188 6.402344-18.636719 15.292969-1.769531 8.886719 2.988281 17.789062 11.363281 21.261719 8.375 3.46875 18.035157.539062 23.070313-7 5.035156-7.535157 4.046875-17.582031-2.363282-23.992188-3.554687-3.574219-8.390624-5.578125-13.433593-5.5625zm4.949219 23.945313c-2.359376 2.363281-6.0625 2.726562-8.839844.871094-2.777344-1.855469-3.855469-5.414063-2.578125-8.5 1.277343-3.082032 4.558593-4.835938 7.835937-4.183594 3.273438.648437 5.632813 3.523437 5.632813 6.863281.003906 1.859375-.734375 3.644531-2.050781 4.953125zm0 0"/><path d="m247.683594 268.628906c6.410156 6.410156 16.453125 7.398438 23.992187 2.363282 7.535157-5.039063 10.464844-14.695313 6.996094-23.070313s-12.371094-13.132813-21.261719-11.363281c-8.890625 1.769531-15.292968 9.570312-15.292968 18.636718-.011719 5.042969 1.992187 9.878907 5.566406 13.433594zm8.484375-18.382812c2.363281-2.359375 6.0625-2.726563 8.839843-.871094 2.777344 1.855469 3.855469 5.414062 2.578126 8.5-1.277344 3.085938-4.558594 4.839844-7.835938 4.1875-3.273438-.652344-5.632812-3.527344-5.632812-6.867188-.003907-1.855468.734374-3.640624 2.050781-4.949218zm0 0"/><path d="m205.691406 268.476562c6.425782-6.410156 7.425782-16.464843 2.390625-24.015624-5.035156-7.550782-14.703125-10.492188-23.089843-7.023438-8.386719 3.46875-13.15625 12.378906-11.390626 21.28125 1.769532 8.902344 9.582032 15.3125 18.65625 15.316406 5.039063 0 9.867188-2 13.433594-5.558594zm-18.382812-18.375c2.734375-2.734374 7.167968-2.734374 9.902344 0 2.730468 2.734376 2.730468 7.164063 0 9.898438-2.734376 2.734375-7.167969 2.734375-9.902344 0-1.316406-1.308594-2.058594-3.089844-2.058594-4.949219s.742188-3.640625 2.058594-4.949219zm0 0"/></g></svg>