<?xml version="1.0"?>
<svg xmlns="http://www.w3.org/2000/svg" id="Layer_1" height="512px" viewBox="0 0 512 512" width="512px" data-name="Layer 1" class="hovered-paths"><g><path d="m237.941 386.901h17.648v60.255h-17.648z" fill="#d4e1f4" data-original="#D4E1F4" class=""/><path d="m228.233 285.308 36.83-61.229-.208-32.906-56.622 94.135 34.028 72.527 19.941-.125z" fill="#d4e1f4" data-original="#D4E1F4" class=""/><g fill="#1ae5be"><path d="m416.1 54.341c-17.7 0-32.438 12.585-35.361 29.076h-88.539v-24.61a6 6 0 0 0 -6-6h-61.221a6 6 0 0 0 -6 6v24.61h-89.327c-2.8-16.946-17.233-29.9-34.576-29.9-19.341.004-35.076 16.107-35.076 35.9s15.735 35.9 35.076 35.9c17.343 0 31.778-12.95 34.576-29.9h77.28a105.643 105.643 0 0 0 -56.932 94 6 6 0 1 0 12 0 93.678 93.678 0 0 1 56.979-86.424v17.034a6 6 0 0 0 6 6h61.221a6 6 0 0 0 6-6v-17.36a95.011 95.011 0 0 1 39.128 30.512 93.2 93.2 0 0 1 18.672 56.238 6 6 0 1 0 12 0 105.115 105.115 0 0 0 -21.062-63.425 107.117 107.117 0 0 0 -36-30.575h75.806c2.923 16.491 17.661 29.076 35.361 29.076 19.792 0 35.9-15.735 35.9-35.076s-16.105-35.076-35.905-35.076zm-321.024 58.972c-12.724 0-23.076-10.719-23.076-23.896s10.352-23.9 23.076-23.9 23.076 10.719 23.076 23.9-10.352 23.896-23.076 23.896zm135.9.714v-17.67a5.973 5.973 0 0 0 .121-4c-.036-.108-.079-.211-.121-.317v-27.233h49.224v26.8c-.07.171-.137.344-.192.524a5.969 5.969 0 0 0 .192 4.089v17.807zm185.124-1.534c-13.177 0-23.9-10.351-23.9-23.076s10.72-23.076 23.9-23.076 23.9 10.351 23.9 23.076-10.72 23.076-23.9 23.076z" data-original="#1AE5BE" class="hovered-path active-path" style="fill:#2ECA8B" data-old_color="#1AE5BE"/><path d="m172 231.655a6 6 0 1 0 -10.717 5.4 106.25 106.25 0 0 0 11.109 17.528 6 6 0 0 0 9.459-7.383 94.186 94.186 0 0 1 -9.851-15.545z" data-original="#1AE5BE" class="hovered-path active-path" style="fill:#2ECA8B" data-old_color="#1AE5BE"/><path d="m165.381 214.5c-.6-2.162-1.123-4.38-1.565-6.591a6 6 0 1 0 -11.767 2.348c.5 2.5 1.092 5 1.765 7.436a6 6 0 1 0 11.567-3.193z" data-original="#1AE5BE" class="hovered-path active-path" style="fill:#2ECA8B" data-old_color="#1AE5BE"/><path d="m209.568 271.169a94.454 94.454 0 0 1 -15.029-10.628 6 6 0 1 0 -7.851 9.075 106.418 106.418 0 0 0 16.943 11.984 6 6 0 0 0 5.937-10.428z" data-original="#1AE5BE" class="hovered-path active-path" style="fill:#2ECA8B" data-old_color="#1AE5BE"/><path d="m337.047 248.31a6 6 0 0 0 -8.445.818c-1.617 1.962-3.337 3.888-5.115 5.722a6 6 0 0 0 8.613 8.35c2-2.066 3.941-4.234 5.761-6.446a6 6 0 0 0 -.814-8.444z" data-original="#1AE5BE" class="hovered-path active-path" style="fill:#2ECA8B" data-old_color="#1AE5BE"/><path d="m353.421 212.869a6 6 0 0 0 -7.488 3.99 93.7 93.7 0 0 1 -7.072 16.985 6 6 0 1 0 10.571 5.679 105.607 105.607 0 0 0 7.979-19.166 6 6 0 0 0 -3.99-7.488z" data-original="#1AE5BE" class="hovered-path active-path" style="fill:#2ECA8B" data-old_color="#1AE5BE"/></g><path d="m346.544 280.922-70.721-114.3a6 6 0 0 0 -5.1-2.843h-.038a6 6 0 0 0 -5.1 2.908l-69.285 115.178a6 6 0 0 0 -.29 5.642l36.458 77.707.061 9.721h-.663a6 6 0 0 0 -5.962 6.039l.3 48.163v.013l.151 24.077a6 6 0 0 0 6 5.962h.039l80.283-.5a6 6 0 0 0 5.962-6.038l-.152-24.085-.151-24.085-.151-24.084a6 6 0 0 0 -6-5.961h-.04-.662l-.061-9.721 35.48-78.159a6 6 0 0 0 -.358-5.634zm-75.179-8.36h.1a15.3 15.3 0 0 1 .1 30.609h-.1a15.3 15.3 0 0 1 -.095-30.609zm-33.424 114.338 68.284-.428.076 12.084-68.283.43zm6.556-17.08 54.957-.345.032 5.039-54.957.345zm-6.4 41.166 68.283-.43.076 12.085-68.284.43zm.226 36.169-.076-12.084 68.284-.43.077 12.086zm63.22-89.693-59.278.372-34.028-72.527 56.622-94.135.441 70.092a27.306 27.306 0 0 0 6.162 53.906h.176a27.3 27.3 0 0 0 5.662-53.97l-.441-70.1 57.8 93.417z" fill="#0635c9" data-original="#0635C9" class="" style="fill:#2F55D4" data-old_color="#0635c9"/></g> </svg>
