<svg height="418pt" viewBox="-4 0 418 418.81945" width="418pt" xmlns="http://www.w3.org/2000/svg"><path d="m239.34375 116.054688c0 18.851562-15.28125 34.132812-34.132812 34.132812-18.851563 0-34.132813-15.28125-34.132813-34.132812 0-18.851563 15.28125-34.132813 34.132813-34.132813 18.851562 0 34.132812 15.28125 34.132812 34.132813zm0 0" fill="#ffd578"/><path d="m239.34375 116.054688h6.824219c-.003907-22.628907-18.335938-40.957032-40.957031-40.960938-22.625.003906-40.957032 18.332031-40.960938 40.960938.003906 22.621093 18.335938 40.953124 40.960938 40.957031 22.621093-.003907 40.953124-18.335938 40.957031-40.957031h-13.652344c-.003906 7.558593-3.046875 14.339843-8 19.304687-4.960937 4.953125-11.746094 7.992187-19.304687 8-7.5625-.007813-14.347657-3.046875-19.308594-8-4.953125-4.964844-7.996094-11.746094-8-19.304687.003906-7.566407 3.046875-14.347657 8-19.3125 4.960937-4.949219 11.746094-7.992188 19.308594-8 7.5625.007812 14.34375 3.046874 19.304687 8 4.953125 4.964843 7.996094 11.75 8 19.3125zm0 0" fill="#54596e"/><path d="m233.589844 182.914062 65.226562-116.679687c3.769532-6.535156 12.121094-8.765625 18.652344-5 6.527344 3.773437 8.769531 12.125 4.996094 18.652344l-65.226563 116.679687c-3.769531 6.527344-12.121093 8.769532-18.652343 4.996094-6.53125-3.769531-8.765626-12.121094-4.996094-18.648438zm0 0" fill="#ffd578"/><path d="m233.589844 182.914062 5.957031 3.328126 65.226563-116.679688-5.957032-3.328125 5.914063 3.410156c1.269531-2.207031 3.550781-3.414062 5.925781-3.425781 1.171875.007812 2.296875.289062 3.375.910156l.019531.015625c2.203125 1.265625 3.410157 3.550781 3.421875 5.925781-.003906 1.15625-.285156 2.296876-.921875 3.40625l-.042969.078126-65.226562 116.679687 5.957031 3.332031-5.910156-3.417968c-1.265625 2.195312-3.542969 3.398437-5.925781 3.410156-1.152344 0-2.308594-.289063-3.417969-.921875l.015625.011719c-2.195312-1.269532-3.402344-3.542969-3.414062-5.929688.003906-1.164062.289062-2.308594.910156-3.382812l.054687-.09375-5.960937-3.328126-5.90625-3.425781c-1.859375 3.207031-2.753906 6.757813-2.75 10.230469-.011719 7.0625 3.679687 13.964844 10.242187 17.75l.015625.011719c3.191406 1.832031 6.730469 2.734375 10.210938 2.730469 7.054687.011718 13.953125-3.671876 17.746094-10.230469l.046874-.082031 65.226563-116.679688-5.957031-3.332031 5.914062 3.40625c1.847656-3.203125 2.746094-6.753907 2.746094-10.222657.007812-7.058593-3.683594-13.957031-10.242188-17.75l.023438.015626c-3.226562-1.886719-6.792969-2.769532-10.253906-2.765626-7.066406-.007812-13.960938 3.691407-17.75 10.253907l-.046875.078125-65.226563 116.679687 5.960938 3.332031-5.90625-3.425781zm0 0" fill="#54596e"/><path d="m51.59375 388.8125 91.984375-96.984375c5.265625-5.402344 13.90625-5.507813 19.304687-.242187 5.402344 5.257812 5.507813 13.90625.246094 19.304687l-91.988281 96.988281c-5.265625 5.390625-13.90625 5.507813-19.304687.238282-5.398438-5.261719-5.511719-13.90625-.242188-19.304688zm0 0" fill="#ffd578"/><path d="m51.59375 388.8125 4.953125 4.695312 91.984375-96.984374-4.953125-4.695313 4.890625 4.757813c1.355469-1.382813 3.082031-2.050782 4.882812-2.058594 1.746094.007812 3.417969.628906 4.761719 1.9375l.011719.011718c1.378906 1.351563 2.046875 3.078126 2.054688 4.875-.007813 1.738282-.632813 3.421876-1.949219 4.78125l-.054688.058594-91.988281 96.988282 4.953125 4.699218-4.882813-4.773437c-1.355468 1.386719-3.09375 2.054687-4.894531 2.0625-1.738281-.007813-3.417969-.632813-4.761719-1.9375-1.386718-1.359375-2.054687-3.09375-2.0625-4.894531.007813-1.742188.632813-3.421876 1.929688-4.75l.074219-.078126-4.949219-4.695312-4.878906-4.777344c-3.882813 3.964844-5.835938 9.167969-5.828125 14.300782-.007813 5.300781 2.082031 10.667968 6.179687 14.667968 3.964844 3.871094 9.164063 5.824219 14.296875 5.816406 5.304688.007813 10.664063-2.074218 14.660157-6.171874l.070312-.070313 91.988281-96.988281-4.953125-4.695313 4.894532 4.753907c3.859374-3.964844 5.816406-9.160157 5.808593-14.296876.007813-5.300781-2.078125-10.667968-6.1875-14.660156l.011719.011719c-3.964844-3.882813-9.175781-5.835937-14.304688-5.828125-5.304687-.007812-10.667968 2.078125-14.664062 6.1875l-.0625.0625-91.984375 96.988281 4.953125 4.699219-4.878906-4.777344zm0 0" fill="#54596e"/><path d="m179.101562 182.914062-65.226562-116.683593c-3.769531-6.53125-12.121094-8.765625-18.648438-5-6.53125 3.773437-8.769531 12.128906-5 18.65625l65.230469 116.679687c3.769531 6.523438 12.117188 8.765625 18.648438 4.992188 6.53125-3.765625 8.769531-12.117188 4.996093-18.644532zm0 0" fill="#ffd578"/><path d="m179.101562 182.914062 5.960938-3.332031-65.226562-116.683593-.046876-.078126c-3.789062-6.5625-10.683593-10.261718-17.75-10.25-3.457031-.007812-7.027343.878907-10.25 2.761719l.023438-.015625c-6.558594 3.796875-10.25 10.691406-10.242188 17.75 0 3.472656.894532 7.015625 2.746094 10.21875l5.914063-3.402344-5.957031 3.332032 65.226562 116.679687.046875.082031c3.792969 6.5625 10.691406 10.242188 17.746094 10.230469 3.480469.003907 7.015625-.894531 10.210937-2.730469l.015625-.011718c6.5625-3.785156 10.253907-10.691406 10.246094-17.75 0-3.472656-.894531-7.023438-2.757813-10.234375l-5.90625 3.433593 5.960938-3.332031-5.960938 3.332031-5.902343 3.425782c.621093 1.070312.910156 2.21875.910156 3.378906-.011719 2.382812-1.21875 4.660156-3.414063 5.929688l.015626-.011719c-1.109376.632812-2.269532.921875-3.421876.921875-2.378906-.011719-4.65625-1.214844-5.921874-3.410156l-5.910157 3.417968 5.957031-3.332031-65.226562-116.683594-.042969-.070312c-.636719-1.109375-.917969-2.257813-.921875-3.410157.011719-2.378906 1.21875-4.660156 3.417969-5.929687l.023437-.011719c1.074219-.625 2.199219-.902344 3.375-.910156 2.375.011719 4.65625 1.214844 5.925782 3.421875l5.914062-3.410156-5.960937 3.332031 65.226562 116.679688.054688.097656zm0 0" fill="#54596e"/><path d="m307.625 409.601562c-.746094 0-1.5-.0625-2.257812-.1875-7.4375-1.242187-12.464844-8.273437-11.222657-15.714843l11.914063-71.492188-51.78125-23.011719c-6.890625-3.0625-9.992188-11.128906-6.933594-18.023437 3.058594-6.890625 11.128906-10.019531 18.027344-6.925781l61.4375 27.304687c5.6875 2.527344 8.945312 8.582031 7.921875 14.722657l-13.652344 81.917968c-1.117187 6.675782-6.898437 11.410156-13.453125 11.410156zm0 0" fill="#ffd578"/><path d="m307.625 409.601562v-6.828124l-1.136719-.097657c-3.339843-.542969-5.707031-3.460937-5.707031-6.71875l.09375-1.128906 11.914062-71.5c.511719-3.074219-1.117187-6.097656-3.960937-7.359375l-51.78125-23.015625c-2.550781-1.125-4.046875-3.617187-4.054687-6.242187 0-.925782.183593-1.851563.585937-2.753907l.007813-.015625c1.125-2.558594 3.628906-4.0625 6.226562-4.070312.929688.003906 1.835938.1875 2.738281.59375l.046875.019531 61.4375 27.308594h.003906c2.492188 1.101562 4.050782 3.578125 4.050782 6.226562l-.097656 1.144531-13.652344 81.90625c-.539063 3.335938-3.46875 5.703126-6.714844 5.703126v13.648437c9.859375 0 18.5-7.09375 20.183594-17.105469l13.652344-81.921875c.1875-1.132812.28125-2.261719.28125-3.378906 0-7.992187-4.679688-15.375-12.164063-18.703125l-61.4375-27.304688.046875.019532c-2.71875-1.234375-5.589844-1.8125-8.375-1.808594-7.859375-.007812-15.324219 4.570312-18.710938 12.183594l.007813-.011719c-1.203125 2.6875-1.773437 5.535156-1.773437 8.320313-.007813 7.839843 4.539062 15.324218 12.167968 18.71875l46.949219 20.867187-11.046875 66.28125c-.1875 1.125-.28125 2.261719-.28125 3.382813 0 9.855468 7.097656 18.503906 17.117188 20.1875 1.136718.1875 2.269531.277343 3.382812.273437zm0 0" fill="#54596e"/><path d="m246.167969 253.425781 6.828125-65.839843c0-9.347657-7.574219-16.917969-16.917969-16.917969h-61.734375c-9.34375 0-16.921875 7.570312-16.921875 16.917969l6.828125 73.207031-43.242188 39.148437 39.988282 37.195313 45.347656-50.414063 64.542969 29.226563 15.882812-45.425781zm0 0" fill="#55a6ff"/><path d="m246.167969 253.425781 6.792969.703125 6.828124-65.839844.035157-.703124c-.007813-13.121094-10.632813-23.742188-23.746094-23.746094h-61.734375c-13.117188.003906-23.742188 10.628906-23.746094 23.746094l.027344.632812 6.507812 69.800781-40.710937 36.855469c-1.40625 1.273438-2.230469 3.117188-2.242187 5.015625-.011719 1.902344.785156 3.746094 2.175781 5.042969l39.992187 37.195312c1.335938 1.242188 3.132813 1.902344 4.953125 1.820313 1.824219-.082031 3.550781-.902344 4.773438-2.253907l42.003906-46.699218 59.992187 27.167968c1.753907.792969 3.734376.816407 5.503907.054688 1.769531-.757812 3.121093-2.207031 3.757812-4.023438l15.882813-45.425781c1.1875-3.402343-.472656-7.148437-3.792969-8.542969l-40.601563-17.09375-2.652343 6.292969 6.792969.703125-6.792969-.703125-2.648438 6.292969 34.6875 14.601562-11.300781 32.324219-57.746094-26.144531c-2.707031-1.226562-5.90625-.554688-7.894531 1.65625l-40.699219 45.25-29.460937-27.398438 37.726562-34.152343c1.589844-1.441407 2.414063-3.566407 2.214844-5.699219l-6.824219-73.207031-6.800781.636719h6.828125c.011719-5.578126 4.523438-10.082032 10.09375-10.097657h61.734375c5.570313.015625 10.082031 4.519531 10.089844 10.097657h6.828125l-6.789063-.707032-6.828125 65.839844c-.3125 2.996094 1.367188 5.828125 4.140625 7zm0 0" fill="#54596e"/><path d="m68.675781 68.265625h279.894531c3.769532 0 6.824219-3.054687 6.824219-6.824219 0-3.773437-3.054687-6.828125-6.824219-6.828125h-279.894531c-3.769531 0-6.824219 3.054688-6.824219 6.828125 0 3.769532 3.054688 6.824219 6.824219 6.824219" fill="#54596e"/><path d="m48.195312 6.828125h20.480469v109.226563h-20.480469zm0 0" fill="#ff927d"/><path d="m68.675781 116.054688v-6.828126h-13.652343v-95.578124h6.828124v102.40625h6.824219v-6.828126 6.828126h6.828125v-109.226563c0-1.800781-.730468-3.558594-2-4.832031-1.273437-1.269532-3.03125-1.996094-4.828125-1.996094h-20.480469c-1.796874 0-3.554687.726562-4.824218 1.996094-1.273438 1.273437-2 3.03125-2 4.832031v109.226563c0 1.820312.707031 3.535156 2 4.824218 1.289062 1.292969 3.003906 1.996094 4.824218 1.996094h20.480469c1.824219 0 3.535157-.703125 4.828125-1.996094 1.289063-1.289062 2-3.003906 2-4.824218zm0 0" fill="#54596e"/><path d="m27.714844 6.828125h20.480468v109.226563h-20.480468zm0 0" fill="#ff927d"/><path d="m48.195312 116.054688v-6.828126h-13.652343v-95.578124h6.828125v102.40625h6.824218v-6.828126 6.828126h6.828126v-109.226563c0-1.800781-.730469-3.558594-2-4.832031-1.273438-1.269532-3.03125-1.996094-4.828126-1.996094h-20.480468c-1.796875 0-3.554688.726562-4.824219 1.996094-1.273437 1.273437-2 3.03125-2 4.832031v109.226563c0 1.820312.710937 3.535156 2 4.824218 1.289063 1.292969 3.003906 1.996094 4.824219 1.996094h20.480468c1.824219 0 3.539063-.703125 4.828126-1.996094 1.289062-1.289062 2-3.003906 2-4.824218zm0 0" fill="#54596e"/><path d="m362.222656 6.828125h20.480469v109.226563h-20.480469zm0 0" fill="#ff927d"/><path d="m382.703125 116.054688v-6.828126h-13.652344v-95.578124h6.824219v102.40625h6.828125v-6.828126 6.828126h6.828125v-109.226563c0-1.800781-.730469-3.558594-2-4.832031-1.273438-1.269532-3.03125-1.996094-4.828125-1.996094h-20.480469c-1.796875 0-3.554687.726562-4.824218 1.996094-1.273438 1.273437-2.003907 3.03125-2.003907 4.832031v109.226563c0 1.820312.710938 3.535156 2.003907 4.824218 1.289062 1.292969 3 1.996094 4.824218 1.996094h20.480469c1.824219 0 3.535156-.703125 4.828125-1.996094 1.289062-1.289062 2-3.003906 2-4.824218zm0 0" fill="#54596e"/><path d="m341.742188 6.828125h20.480468v109.226563h-20.480468zm0 0" fill="#ff927d"/><g fill="#54596e"><path d="m362.222656 116.054688v-6.828126h-13.652344v-95.578124h6.824219v102.40625h6.828125v-6.828126 6.828126h6.828125v-109.226563c0-1.800781-.730469-3.558594-2-4.832031-1.273437-1.269532-3.03125-1.996094-4.828125-1.996094h-20.480468c-1.796876 0-3.554688.726562-4.824219 1.996094-1.273438 1.273437-2 3.03125-2 4.832031v109.226563c0 1.820312.707031 3.535156 2 4.824218 1.289062 1.292969 3.003906 1.996094 4.824219 1.996094h20.480468c1.824219 0 3.535156-.703125 4.828125-1.996094 1.289063-1.289062 2-3.003906 2-4.824218zm0 0"/><path d="m7.238281 68.265625h20.476563c3.773437 0 6.828125-3.054687 6.828125-6.824219 0-3.773437-3.054688-6.828125-6.828125-6.828125h-20.476563c-3.773437 0-6.828125 3.054688-6.828125 6.828125 0 3.769532 3.054688 6.824219 6.828125 6.824219"/><path d="m382.703125 68.265625h20.480469c3.769531 0 6.824218-3.054687 6.824218-6.824219 0-3.773437-3.054687-6.828125-6.824218-6.828125h-20.480469c-3.769531 0-6.828125 3.054688-6.828125 6.828125 0 3.769532 3.058594 6.824219 6.828125 6.824219"/></g></svg>